<svg height="82.868" viewBox="0 0 269.935 46.038" width="647.844" xmlns="http://www.w3.org/2000/svg" xmlns:xlink="http://www.w3.org/1999/xlink"><clipPath id="a"><path d="M19 14h250.934v32H19zm0 0"/></clipPath><clipPath id="b"><path d="M19 14h250.934v32.04H19zm0 0"/></clipPath><clipPath id="c"><path d="M237 14h2v32.04h-2zm0 0"/></clipPath><clipPath id="d"><path d="M206 14h2v32.04h-2zm0 0"/></clipPath><clipPath id="e"><path d="M175 14h1v32.04h-1zm0 0"/></clipPath><clipPath id="f"><path d="M144 14h1v32.04h-1zm0 0"/></clipPath><clipPath id="g"><path d="M113 14h1v32.04h-1zm0 0"/></clipPath><clipPath id="h"><path d="M81 14h2v32.04h-2zm0 0"/></clipPath><clipPath id="i"><path d="M50 14h2v32.04h-2zm0 0"/></clipPath><symbol id="j" overflow="visible"><path d="M.266-5.344v.313l.453.047.14.109v4.39l-.14.126-.453.03V0h2.093c1.36 0 2.094-.563 2.094-1.563 0-.78-.547-1.265-1.484-1.28.765-.204 1.156-.61 1.156-1.22 0-.875-.61-1.28-1.828-1.28zm1.296 2.422v-2.047c.204-.015.36-.031.47-.031.874 0 1.296.328 1.296.969 0 .781-.453 1.11-1.453 1.11h-.313zm0 2.531v-2.14c.313-.031.579-.047.782-.047.89 0 1.328.344 1.328 1.078 0 .797-.5 1.125-1.563 1.125-.171 0-.343 0-.546-.016zm0 0"/></symbol><symbol id="k" overflow="visible"><path d="M1.234-5.64a.46.46 0 00-.468.468c0 .25.203.453.468.453.25 0 .454-.203.454-.453a.457.457 0 00-.454-.469zm-.046 1.765l-.907.297v.234h.563v2.89l-.14.126-.423.047V0h1.797v-.281l-.437-.047L1.5-.453v-3.422zm0 0"/></symbol><symbol id="l" overflow="visible"><path d="M.703-3.36v2.58c0 .562.172.812.828.812.313 0 .672-.062 1.047-.187v-.297a2.308 2.308 0 01-.547.078c-.562 0-.672-.266-.672-.875v-2.11h1.22v-.374h-1.22v-.844h-.296l-.344.75-.516.219v.25zm0 0"/></symbol><symbol id="m" overflow="visible"><path d="M2.734-3.734c-.265-.125-.578-.172-.921-.172C.905-3.906.39-3.5.39-2.796c0 .53.359.78 1.03 1.093.532.234.813.375.813.797 0 .375-.28.64-.75.64-.218 0-.453-.062-.671-.187l-.094-.672h-.39v1.031c.28.11.64.172 1.046.172.938 0 1.484-.453 1.484-1.203 0-.297-.109-.531-.296-.688-.266-.218-.579-.328-.844-.453-.453-.218-.688-.39-.688-.734 0-.36.25-.563.672-.563.188 0 .375.047.578.157l.063.562h.39zm0 0"/></symbol><symbol id="n" overflow="visible"><path d="M2.219-5.438c-1.14 0-1.89 1-1.89 2.766 0 1.75.75 2.766 1.89 2.766s1.89-1.016 1.89-2.766c0-1.765-.75-2.765-1.89-2.765zm0 .375c.734 0 1.125.813 1.125 2.391s-.39 2.39-1.125 2.39-1.14-.812-1.14-2.39.405-2.39 1.14-2.39zm0 0"/></symbol><symbol id="o" overflow="visible"><path d="M2.484-5.438L.75-4.921v.328L2-4.812v4.28l-.094.141-.922.047V0h2.672v-.328l-.86-.047L2.704-.5v-4.938zm0 0"/></symbol><symbol id="p" overflow="visible"><path d="M1.125-.625c1.766-1.406 2.719-2.313 2.719-3.313 0-.906-.625-1.5-1.656-1.5C1.203-5.438.5-4.875.5-4.313c0 .266.172.438.453.438A.56.56 0 001.313-4v-.844c.234-.14.468-.187.703-.187.656 0 1.062.437 1.062 1.203 0 1.047-1 1.906-2.75 3.328V0h3.703v-1.313h-.36l-.155.688zm0 0"/></symbol><symbol id="q" overflow="visible"><path d="M2.531-2.813c.781-.218 1.188-.671 1.188-1.296 0-.797-.625-1.329-1.578-1.329-1 0-1.672.532-1.672 1.063 0 .25.172.422.422.422a.49.49 0 00.328-.11v-.75a1.31 1.31 0 01.75-.218c.625 0 1.015.406 1.015 1.031 0 .64-.421 1.031-1.234 1.031-.047 0-.11-.015-.172-.015v.468c.156-.015.297-.03.438-.03.75 0 1.171.374 1.171 1 0 .702-.53 1.265-1.25 1.265a1.17 1.17 0 01-.671-.203l-.25-.672c-.094-.032-.172-.032-.25-.032-.25 0-.438.172-.438.407 0 .406.625.875 1.578.875 1.219 0 2.016-.735 2.016-1.625 0-.719-.516-1.219-1.39-1.282zm0 0"/></symbol><symbol id="r" overflow="visible"><path d="M2.938-5.39L.217-2.064v.516H2.78V.297h.61v-1.844h.906v-.516H3.39V-5.39zm-.157.859v2.468H.812zm0 0"/></symbol><symbol id="s" overflow="visible"><path d="M.813-5.344v2.625a4.05 4.05 0 01.687-.047c1.11 0 1.656.375 1.656 1.204 0 .734-.5 1.265-1.25 1.265a1.57 1.57 0 01-.531-.094l-.328-.687c-.078-.016-.14-.016-.188-.016-.265 0-.468.172-.468.422 0 .375.562.75 1.375.75 1.312 0 2.125-.781 2.125-1.812 0-.907-.672-1.532-1.735-1.532-.265 0-.547.047-.86.141v-1.594h2.36v-.625zm0 0"/></symbol><symbol id="t" overflow="visible"><path d="M3.531-5.688C1.578-5.563.391-4.25.391-2.203.39-.766 1.17.094 2.25.094c1.094 0 1.938-.828 1.938-1.907 0-1.015-.72-1.734-1.657-1.734a2.26 2.26 0 00-1.36.485c.25-1.422 1.063-2.172 2.329-2.172h.031zM1.156-2.703c.328-.25.719-.36 1.157-.36.671 0 1.14.5 1.14 1.329 0 .843-.469 1.453-1.14 1.453-.75 0-1.172-.672-1.172-1.938 0-.156 0-.328.015-.484zm0 0"/></symbol><symbol id="u" overflow="visible"><path d="M.563-5.344v1.328h.375l.125-.718h2.453L.922.296h.656v-.17L4.234-5.03v-.313zm0 0"/></symbol><symbol id="v" overflow="visible"><path d="M4.063-3.64c.656-.376 1.015-1.016 1.015-1.672 0-.985-.875-1.985-2.281-1.985H.766c-.188 0-.485 0-.485.344s.313.344.485.344h.265v5.921H.766c-.172 0-.485 0-.485.344S.578 0 .766 0h1.296c.172 0 .5 0 .5-.344s-.328-.344-.5-.344h-.25v-2.625h.938c.219 0 .578 0 .969.344C4-2.719 4-2.453 4-1.938c0 .844 0 1.188.219 1.594.187.313.5.485.875.485.781 0 1.031-.829 1.031-1.25 0-.235-.11-.391-.406-.391-.36 0-.375.281-.375.39 0 .079-.032.563-.25.563-.328 0-.328-.531-.328-1.203 0-.813 0-.89-.11-1.188-.156-.343-.453-.593-.593-.703zM2.671-4h-.86v-2.61h.86c1.11 0 1.625.72 1.625 1.298C4.297-4.72 3.78-4 2.672-4zm0 0"/></symbol><symbol id="w" overflow="visible"><path d="M5.266-2.531c.234 0 .546 0 .546-.344 0-.36-.328-.36-.5-.36H3.984c-.171 0-.5 0-.5.36 0 .344.329.344.5.344h.485c-.063.719-.375 1.984-1.36 1.984-.968 0-1.89-1.312-1.89-3.094 0-1.843.953-3.109 1.906-3.109.563 0 1.203.453 1.36 1.64.03.298.265.298.374.298.407 0 .407-.204.407-.454V-7c0-.188 0-.453-.344-.453-.203 0-.266.14-.313.203l-.156.375c-.39-.36-.875-.578-1.39-.578-1.407 0-2.626 1.625-2.626 3.797C.438-1.453 1.657.14 3.063.14c.515 0 1.015-.22 1.421-.657 0 .313 0 .547.391.547s.39-.265.39-.484zm0 0"/></symbol><symbol id="x" overflow="visible"><path d="M5.25-6.61h.313c.171 0 .5 0 .5-.343s-.329-.344-.5-.344H4.14c-.157 0-.485 0-.485.344s.328.344.485.344h.328V-2.5c0 1.313-.782 1.953-1.39 1.953-.642 0-1.407-.656-1.407-1.953v-4.11H2c.156 0 .484 0 .484-.343S2.156-7.297 2-7.297H.578c-.172 0-.5 0-.5.344s.328.344.5.344h.313v4.187c0 1.438 1 2.563 2.187 2.563C4.25.14 5.25-.984 5.25-2.422zm0 0"/></symbol><symbol id="y" overflow="visible"><path d="M3.469-6.61h1.219c.171 0 .468 0 .468-.343s-.297-.344-.468-.344h-3.22c-.171 0-.484 0-.484.344s.313.344.485.344h1.218v5.921H1.47c-.172 0-.485 0-.485.344S1.297 0 1.47 0h3.218c.172 0 .47 0 .47-.344s-.298-.344-.47-.344H3.47zm0 0"/></symbol><symbol id="z" overflow="visible"><path d="M3.688-7.047c-.11-.422-.344-.422-.61-.422-.375 0-.515.047-.61.422L.985-.687c-.39 0-.656 0-.656.343S.641 0 .812 0h1.141c.172 0 .5 0 .5-.344s-.297-.344-.656-.344l.312-1.343h1.938l.297 1.344c-.36 0-.657 0-.657.343s.329.344.5.344h1.141c.172 0 .5 0 .5-.344s-.281-.344-.672-.344zM2.266-2.719c.078-.36.734-3.187.796-3.765h.016c.031.28.203 1.015.203 1.015l.61 2.75zm0 0"/></symbol><symbol id="A" overflow="visible"><path d="M2.063-6.61h.624c.172 0 .485 0 .485-.343s-.313-.344-.485-.344H.891c-.157 0-.485 0-.485.344s.328.344.485.344h.406v5.921H.89c-.157 0-.485 0-.485.344S.734 0 .891 0H5.25c.39 0 .469-.11.469-.484v-.985c0-.203 0-.484-.375-.484-.39 0-.39.266-.39.484v.782H2.062zm0 0"/></symbol><symbol id="B" overflow="visible"><path d="M3.469-6.61h1.594v.579c0 .218 0 .5.375.5.39 0 .39-.266.39-.5v-.782c0-.375-.062-.484-.469-.484H.797c-.39 0-.485.094-.485.484v.782c0 .218 0 .5.376.5.406 0 .406-.266.406-.5v-.578h1.593v5.921H2.11c-.156 0-.468 0-.468.344S1.953 0 2.109 0h1.938c.156 0 .469 0 .469-.344s-.313-.344-.47-.344H3.47zm0 0"/></symbol><symbol id="C" overflow="visible"><path d="M5.219-7c0-.188 0-.453-.328-.453-.25 0-.282.11-.422.61-.578-.516-1.266-.61-1.688-.61-1.265 0-2.172.922-2.172 1.969 0 .703.422 1.171.485 1.234.515.516.718.563 1.968.86.891.203 1.094.25 1.391.578.219.265.344.562.344.906 0 .64-.516 1.36-1.469 1.36-1.015 0-1.875-.438-1.937-1.5-.016-.173-.032-.376-.391-.376-.39 0-.39.219-.39.469v1.64c0 .188 0 .454.328.454.25 0 .28-.094.421-.594.657.516 1.485.594 1.97.594C4.686.14 5.53-.891 5.53-1.953c0-.844-.515-1.375-.547-1.422-.484-.484-.703-.531-1.906-.828-.281-.063-.75-.172-.844-.203-.484-.172-.89-.594-.89-1.125 0-.64.61-1.219 1.422-1.219.906 0 1.515.469 1.671 1.484.032.235.063.391.391.391.39 0 .39-.219.39-.453zm0 0"/></symbol><symbol id="D" overflow="visible"><path d="M2-3.313h1.625c0 .422 0 .641.39.641s.391-.265.391-.484v-1c0-.219 0-.5-.39-.5s-.391.234-.391.656H2v-2.61h2.953v.579c0 .218 0 .5.39.5s.391-.266.391-.5v-.782c0-.375-.062-.484-.468-.484H.859c-.171 0-.484 0-.484.344s.313.344.484.344h.36v5.921h-.36c-.171 0-.484 0-.484.344S.688 0 .859 0h1.704c.171 0 .484 0 .484-.344s-.313-.344-.485-.344H2zm0 0"/></symbol><symbol id="E" overflow="visible"><path d="M5.672-7c0-.188 0-.453-.344-.453-.219 0-.266.14-.312.219a7.046 7.046 0 00-.172.39c-.5-.422-1.047-.61-1.547-.61C1.75-7.453.484-5.796.484-3.655.484-1.47 1.797.14 3.297.14c1.406 0 2.375-1.11 2.375-2.157 0-.375-.25-.375-.406-.375s-.36.063-.375.266C4.797-.641 3.578-.547 3.375-.547c-1.11 0-2.125-1.312-2.125-3.11 0-1.812 1.031-3.093 2.125-3.093.64 0 1.344.516 1.516 1.61.03.265.14.327.375.327.406 0 .406-.203.406-.453zm0 0"/></symbol><g clip-path="url(#a)"><path d="M19.785 14.656V45.84h249.453V14.656zm0 0" fill="#fbe963"/></g><g clip-path="url(#b)"><path d="M19.785 14.656V45.84h249.453V14.656zm0 0" fill="none" stroke="#000" stroke-miterlimit="10" stroke-width=".399"/></g><g clip-path="url(#c)"><path d="M238.055 45.84V14.656" fill="none" stroke="#000" stroke-miterlimit="10" stroke-width=".399"/></g><g clip-path="url(#d)"><path d="M206.875 45.84V14.656" fill="none" stroke="#000" stroke-miterlimit="10" stroke-width=".399"/></g><g clip-path="url(#e)"><path d="M175.691 45.84V14.656" fill="none" stroke="#000" stroke-miterlimit="10" stroke-width=".399"/></g><g clip-path="url(#f)"><path d="M144.512 45.84V14.656" fill="none" stroke="#000" stroke-miterlimit="10" stroke-width=".399"/></g><g clip-path="url(#g)"><path d="M113.328 45.84V14.656" fill="none" stroke="#000" stroke-miterlimit="10" stroke-width=".399"/></g><g clip-path="url(#h)"><path d="M82.148 45.84V14.656" fill="none" stroke="#000" stroke-miterlimit="10" stroke-width=".399"/></g><g clip-path="url(#i)"><path d="M50.965 45.84V14.656" fill="none" stroke="#000" stroke-miterlimit="10" stroke-width=".399"/></g><g fill="#303030"><use x="3.985" xlink:href="#j" y="9.672"/><use x="8.799" xlink:href="#k" y="9.672"/><use x="11.031" xlink:href="#l" y="9.672"/><use x="13.693" xlink:href="#m" y="9.672"/><use x="251.431" xlink:href="#n" y="9.56"/><use x="220.25" xlink:href="#o" y="9.594"/><use x="189.068" xlink:href="#p" y="9.594"/><use x="157.887" xlink:href="#q" y="9.56"/><use x="126.706" xlink:href="#r" y="9.393"/><use x="95.524" xlink:href="#s" y="9.51"/><use x="64.343" xlink:href="#t" y="9.672"/><use x="33.162" xlink:href="#u" y="9.393"/></g><use x="23.074" xlink:href="#v" y="33.669"/><use x="29.226" xlink:href="#w" y="33.669"/><use x="35.378" xlink:href="#x" y="33.669"/><use x="41.53" xlink:href="#y" y="33.669"/><use x="54.255" xlink:href="#v" y="33.669"/><use x="60.407" xlink:href="#z" y="33.669"/><use x="66.559" xlink:href="#A" y="33.669"/><use x="72.711" xlink:href="#B" y="33.669"/><use x="85.436" xlink:href="#v" y="33.669"/><use x="91.588" xlink:href="#C" y="33.669"/><use x="97.74" xlink:href="#D" y="33.669"/><use x="103.892" xlink:href="#B" y="33.669"/><use x="116.617" xlink:href="#v" y="33.669"/><use x="122.769" xlink:href="#E" y="33.669"/><use x="128.921" xlink:href="#B" y="33.669"/><use x="135.073" xlink:href="#A" y="33.669"/><use x="147.799" xlink:href="#A" y="33.669"/><use x="153.951" xlink:href="#w" y="33.669"/><use x="160.103" xlink:href="#x" y="33.669"/><use x="166.255" xlink:href="#y" y="33.669"/><use x="178.98" xlink:href="#A" y="33.669"/><use x="185.132" xlink:href="#z" y="33.669"/><use x="191.284" xlink:href="#A" y="33.669"/><use x="197.436" xlink:href="#B" y="33.669"/><use x="210.161" xlink:href="#A" y="33.669"/><use x="216.313" xlink:href="#C" y="33.669"/><use x="222.465" xlink:href="#D" y="33.669"/><use x="228.617" xlink:href="#B" y="33.669"/><use x="241.343" xlink:href="#A" y="33.669"/><use x="247.495" xlink:href="#E" y="33.669"/><use x="253.647" xlink:href="#B" y="33.669"/><use x="259.799" xlink:href="#A" y="33.669"/></svg>