<svg height="58.572" viewBox="0 0 344.814 32.54" width="827.553" xmlns="http://www.w3.org/2000/svg" xmlns:xlink="http://www.w3.org/1999/xlink"><clipPath id="a"><path d="M27 12h317.813v20.54H27zm0 0"/></clipPath><clipPath id="b"><path d="M27 12h20v20.54H27zm0 0"/></clipPath><clipPath id="c"><path d="M46 12h2v20.54h-2zm0 0"/></clipPath><clipPath id="d"><path d="M49 12h1v20.54h-1zm0 0"/></clipPath><clipPath id="e"><path d="M51 12h2v20.54h-2zm0 0"/></clipPath><clipPath id="f"><path d="M54 12h1v20.54h-1zm0 0"/></clipPath><clipPath id="g"><path d="M56 12h2v20.54h-2zm0 0"/></clipPath><clipPath id="h"><path d="M59 12h1v20.54h-1zm0 0"/></clipPath><clipPath id="i"><path d="M61 12h2v20.54h-2zm0 0"/></clipPath><clipPath id="j"><path d="M64 12h1v20.54h-1zm0 0"/></clipPath><clipPath id="k"><path d="M66 12h2v20.54h-2zm0 0"/></clipPath><clipPath id="l"><path d="M69 12h1v20.54h-1zm0 0"/></clipPath><clipPath id="m"><path d="M71 12h1v20.54h-1zm0 0"/></clipPath><clipPath id="n"><path d="M74 12h1v20.54h-1zm0 0"/></clipPath><clipPath id="o"><path d="M76 12h1v20.54h-1zm0 0"/></clipPath><clipPath id="p"><path d="M79 12h1v20.54h-1zm0 0"/></clipPath><clipPath id="q"><path d="M81 12h1v20.54h-1zm0 0"/></clipPath><clipPath id="r"><path d="M83 12h2v20.54h-2zm0 0"/></clipPath><clipPath id="s"><path d="M86 12h1v20.54h-1zm0 0"/></clipPath><clipPath id="t"><path d="M88 12h2v20.54h-2zm0 0"/></clipPath><clipPath id="u"><path d="M91 12h1v20.54h-1zm0 0"/></clipPath><clipPath id="v"><path d="M93 12h2v20.54h-2zm0 0"/></clipPath><clipPath id="w"><path d="M96 12h1v20.54h-1zm0 0"/></clipPath><clipPath id="x"><path d="M98 12h2v20.54h-2zm0 0"/></clipPath><clipPath id="y"><path d="M101 12h1v20.54h-1zm0 0"/></clipPath><clipPath id="z"><path d="M103 12h2v20.54h-2zm0 0"/></clipPath><clipPath id="A"><path d="M106 12h1v20.54h-1zm0 0"/></clipPath><clipPath id="B"><path d="M108 12h2v20.54h-2zm0 0"/></clipPath><clipPath id="C"><path d="M111 12h1v20.54h-1zm0 0"/></clipPath><clipPath id="D"><path d="M113 12h2v20.54h-2zm0 0"/></clipPath><clipPath id="E"><path d="M116 12h1v20.54h-1zm0 0"/></clipPath><clipPath id="F"><path d="M118 12h2v20.54h-2zm0 0"/></clipPath><clipPath id="G"><path d="M121 12h1v20.54h-1zm0 0"/></clipPath><clipPath id="H"><path d="M123 12h2v20.54h-2zm0 0"/></clipPath><clipPath id="I"><path d="M126 12h1v20.54h-1zm0 0"/></clipPath><clipPath id="J"><path d="M128 12h2v20.54h-2zm0 0"/></clipPath><clipPath id="K"><path d="M131 12h1v20.54h-1zm0 0"/></clipPath><clipPath id="L"><path d="M133 12h1v20.54h-1zm0 0"/></clipPath><clipPath id="M"><path d="M136 12h1v20.54h-1zm0 0"/></clipPath><clipPath id="N"><path d="M138 12h1v20.54h-1zm0 0"/></clipPath><clipPath id="O"><path d="M141 12h1v20.54h-1zm0 0"/></clipPath><clipPath id="P"><path d="M143 12h1v20.54h-1zm0 0"/></clipPath><clipPath id="Q"><path d="M145 12h2v20.54h-2zm0 0"/></clipPath><clipPath id="R"><path d="M148 12h1v20.54h-1zm0 0"/></clipPath><clipPath id="S"><path d="M150 12h2v20.54h-2zm0 0"/></clipPath><clipPath id="T"><path d="M153 12h1v20.54h-1zm0 0"/></clipPath><clipPath id="U"><path d="M155 12h2v20.54h-2zm0 0"/></clipPath><clipPath id="V"><path d="M158 12h1v20.54h-1zm0 0"/></clipPath><clipPath id="W"><path d="M160 12h2v20.54h-2zm0 0"/></clipPath><clipPath id="X"><path d="M163 12h1v20.54h-1zm0 0"/></clipPath><clipPath id="Y"><path d="M165 12h2v20.54h-2zm0 0"/></clipPath><clipPath id="Z"><path d="M168 12h1v20.54h-1zm0 0"/></clipPath><clipPath id="aa"><path d="M170 12h2v20.54h-2zm0 0"/></clipPath><clipPath id="ab"><path d="M173 12h1v20.54h-1zm0 0"/></clipPath><clipPath id="ac"><path d="M175 12h2v20.54h-2zm0 0"/></clipPath><clipPath id="ad"><path d="M178 12h1v20.54h-1zm0 0"/></clipPath><clipPath id="ae"><path d="M180 12h2v20.54h-2zm0 0"/></clipPath><clipPath id="af"><path d="M183 12h1v20.54h-1zm0 0"/></clipPath><clipPath id="ag"><path d="M185 12h2v20.54h-2zm0 0"/></clipPath><clipPath id="ah"><path d="M188 12h1v20.54h-1zm0 0"/></clipPath><clipPath id="ai"><path d="M190 12h2v20.54h-2zm0 0"/></clipPath><clipPath id="aj"><path d="M193 12h1v20.54h-1zm0 0"/></clipPath><clipPath id="ak"><path d="M195 12h1v20.54h-1zm0 0"/></clipPath><clipPath id="al"><path d="M198 12h1v20.54h-1zm0 0"/></clipPath><clipPath id="am"><path d="M200 12h1v20.54h-1zm0 0"/></clipPath><clipPath id="an"><path d="M203 12h1v20.54h-1zm0 0"/></clipPath><clipPath id="ao"><path d="M205 12h1v20.54h-1zm0 0"/></clipPath><clipPath id="ap"><path d="M208 12h1v20.54h-1zm0 0"/></clipPath><clipPath id="aq"><path d="M210 12h1v20.54h-1zm0 0"/></clipPath><clipPath id="ar"><path d="M212 12h2v20.54h-2zm0 0"/></clipPath><clipPath id="as"><path d="M215 12h1v20.54h-1zm0 0"/></clipPath><clipPath id="at"><path d="M217 12h2v20.54h-2zm0 0"/></clipPath><clipPath id="au"><path d="M220 12h1v20.54h-1zm0 0"/></clipPath><clipPath id="av"><path d="M222 12h2v20.54h-2zm0 0"/></clipPath><clipPath id="aw"><path d="M225 12h1v20.54h-1zm0 0"/></clipPath><clipPath id="ax"><path d="M227 12h2v20.54h-2zm0 0"/></clipPath><clipPath id="ay"><path d="M230 12h1v20.54h-1zm0 0"/></clipPath><clipPath id="az"><path d="M232 12h2v20.54h-2zm0 0"/></clipPath><clipPath id="aA"><path d="M235 12h1v20.54h-1zm0 0"/></clipPath><clipPath id="aB"><path d="M237 12h2v20.54h-2zm0 0"/></clipPath><clipPath id="aC"><path d="M240 12h1v20.54h-1zm0 0"/></clipPath><clipPath id="aD"><path d="M242 12h2v20.54h-2zm0 0"/></clipPath><clipPath id="aE"><path d="M245 12h1v20.54h-1zm0 0"/></clipPath><clipPath id="aF"><path d="M247 12h2v20.54h-2zm0 0"/></clipPath><clipPath id="aG"><path d="M250 12h1v20.54h-1zm0 0"/></clipPath><clipPath id="aH"><path d="M252 12h2v20.54h-2zm0 0"/></clipPath><clipPath id="aI"><path d="M255 12h1v20.54h-1zm0 0"/></clipPath><clipPath id="aJ"><path d="M257 12h2v20.54h-2zm0 0"/></clipPath><clipPath id="aK"><path d="M260 12h1v20.54h-1zm0 0"/></clipPath><clipPath id="aL"><path d="M262 12h1v20.54h-1zm0 0"/></clipPath><clipPath id="aM"><path d="M265 12h1v20.54h-1zm0 0"/></clipPath><clipPath id="aN"><path d="M267 12h1v20.54h-1zm0 0"/></clipPath><clipPath id="aO"><path d="M270 12h1v20.54h-1zm0 0"/></clipPath><clipPath id="aP"><path d="M272 12h1v20.54h-1zm0 0"/></clipPath><clipPath id="aQ"><path d="M274 12h2v20.54h-2zm0 0"/></clipPath><clipPath id="aR"><path d="M277 12h1v20.54h-1zm0 0"/></clipPath><clipPath id="aS"><path d="M279 12h2v20.54h-2zm0 0"/></clipPath><clipPath id="aT"><path d="M282 12h1v20.54h-1zm0 0"/></clipPath><clipPath id="aU"><path d="M284 12h2v20.54h-2zm0 0"/></clipPath><clipPath id="aV"><path d="M287 12h1v20.54h-1zm0 0"/></clipPath><clipPath id="aW"><path d="M289 12h2v20.54h-2zm0 0"/></clipPath><clipPath id="aX"><path d="M292 12h1v20.54h-1zm0 0"/></clipPath><clipPath id="aY"><path d="M294 12h2v20.54h-2zm0 0"/></clipPath><clipPath id="aZ"><path d="M297 12h1v20.54h-1zm0 0"/></clipPath><clipPath id="ba"><path d="M299 12h2v20.54h-2zm0 0"/></clipPath><clipPath id="bb"><path d="M302 12h1v20.54h-1zm0 0"/></clipPath><clipPath id="bc"><path d="M304 12h2v20.54h-2zm0 0"/></clipPath><clipPath id="bd"><path d="M307 12h1v20.54h-1zm0 0"/></clipPath><clipPath id="be"><path d="M309 12h2v20.54h-2zm0 0"/></clipPath><clipPath id="bf"><path d="M312 12h1v20.54h-1zm0 0"/></clipPath><clipPath id="bg"><path d="M314 12h2v20.54h-2zm0 0"/></clipPath><clipPath id="bh"><path d="M317 12h1v20.54h-1zm0 0"/></clipPath><clipPath id="bi"><path d="M319 12h2v20.54h-2zm0 0"/></clipPath><clipPath id="bj"><path d="M322 12h1v20.54h-1zm0 0"/></clipPath><clipPath id="bk"><path d="M324 12h1v20.54h-1zm0 0"/></clipPath><clipPath id="bl"><path d="M327 12h1v20.54h-1zm0 0"/></clipPath><clipPath id="bm"><path d="M329 12h1v20.54h-1zm0 0"/></clipPath><clipPath id="bn"><path d="M332 12h1v20.54h-1zm0 0"/></clipPath><clipPath id="bo"><path d="M334 12h1v20.54h-1zm0 0"/></clipPath><clipPath id="bp"><path d="M336 12h2v20.54h-2zm0 0"/></clipPath><clipPath id="bq"><path d="M339 12h1v20.54h-1zm0 0"/></clipPath><clipPath id="br"><path d="M341 12h2v20.54h-2zm0 0"/></clipPath><clipPath id="bs"><path d="M26 12h318.813v20.54H26zm0 0"/></clipPath><symbol id="bt" overflow="visible"><path d="M.266-5.344v.313l.453.047.14.109v4.39l-.14.126-.453.03V0h2.093c1.36 0 2.094-.563 2.094-1.563 0-.78-.547-1.265-1.484-1.28.765-.204 1.156-.61 1.156-1.22 0-.875-.61-1.28-1.828-1.28zm1.296 2.422v-2.047c.204-.015.36-.031.47-.031.874 0 1.296.328 1.296.969 0 .781-.453 1.11-1.453 1.11h-.313zm0 2.531v-2.14c.313-.031.579-.047.782-.047.89 0 1.328.344 1.328 1.078 0 .797-.5 1.125-1.563 1.125-.171 0-.343 0-.546-.016zm0 0"/></symbol><symbol id="bu" overflow="visible"><path d="M-.016-3.828v.297l.5.047L1.813-.031c-.188.562-.422.969-.641 1.187L.406.86a.554.554 0 00-.203.438c0 .25.219.437.547.437.516 0 .906-.437 1.281-1.343l1.594-3.86.453-.062v-.297H2.656v.297l.438.031.062.125-1 2.469-.953-2.469.094-.125.422-.031v-.297zm0 0"/></symbol><symbol id="bv" overflow="visible"><path d="M.703-3.36v2.58c0 .562.172.812.828.812.313 0 .672-.062 1.047-.187v-.297a2.308 2.308 0 01-.547.078c-.562 0-.672-.266-.672-.875v-2.11h1.22v-.374h-1.22v-.844h-.296l-.344.75-.516.219v.25zm0 0"/></symbol><symbol id="bw" overflow="visible"><path d="M3.563-.844c-.454.297-.844.469-1.25.469-.797 0-1.329-.61-1.329-1.64v-.079h2.579v-.25c0-.984-.563-1.562-1.422-1.562-1.079 0-1.844.812-1.844 2.015 0 1.172.719 1.97 1.781 1.97.5 0 1.016-.173 1.485-.485zm-.704-1.594H1.016c.046-.671.5-1.109 1.015-1.109.531 0 .828.344.828.985zm0 0"/></symbol><symbol id="bx" overflow="visible"><path d="M2.734-3.734c-.265-.125-.578-.172-.921-.172C.905-3.906.39-3.5.39-2.796c0 .53.359.78 1.03 1.093.532.234.813.375.813.797 0 .375-.28.64-.75.64-.218 0-.453-.062-.671-.187l-.094-.672h-.39v1.031c.28.11.64.172 1.046.172.938 0 1.484-.453 1.484-1.203 0-.297-.109-.531-.296-.688-.266-.218-.579-.328-.844-.453-.453-.218-.688-.39-.688-.734 0-.36.25-.563.672-.563.188 0 .375.047.578.157l.063.562h.39zm0 0"/></symbol><symbol id="by" overflow="visible"><path d="M2.219-5.438c-1.14 0-1.89 1-1.89 2.766 0 1.75.75 2.766 1.89 2.766s1.89-1.016 1.89-2.766c0-1.765-.75-2.765-1.89-2.765zm0 .375c.734 0 1.125.813 1.125 2.391s-.39 2.39-1.125 2.39-1.14-.812-1.14-2.39.405-2.39 1.14-2.39zm0 0"/></symbol><symbol id="bz" overflow="visible"><path d="M2.484-5.438L.75-4.921v.328L2-4.812v4.28l-.094.141-.922.047V0h2.672v-.328l-.86-.047L2.704-.5v-4.938zm0 0"/></symbol><symbol id="bA" overflow="visible"><path d="M1.125-.625c1.766-1.406 2.719-2.313 2.719-3.313 0-.906-.625-1.5-1.656-1.5C1.203-5.438.5-4.875.5-4.313c0 .266.172.438.453.438A.56.56 0 001.313-4v-.844c.234-.14.468-.187.703-.187.656 0 1.062.437 1.062 1.203 0 1.047-1 1.906-2.75 3.328V0h3.703v-1.313h-.36l-.155.688zm0 0"/></symbol><symbol id="bB" overflow="visible"><path d="M2.531-2.813c.781-.218 1.188-.671 1.188-1.296 0-.797-.625-1.329-1.578-1.329-1 0-1.672.532-1.672 1.063 0 .25.172.422.422.422a.49.49 0 00.328-.11v-.75a1.31 1.31 0 01.75-.218c.625 0 1.015.406 1.015 1.031 0 .64-.421 1.031-1.234 1.031-.047 0-.11-.015-.172-.015v.468c.156-.015.297-.03.438-.03.75 0 1.171.374 1.171 1 0 .702-.53 1.265-1.25 1.265a1.17 1.17 0 01-.671-.203l-.25-.672c-.094-.032-.172-.032-.25-.032-.25 0-.438.172-.438.407 0 .406.625.875 1.578.875 1.219 0 2.016-.735 2.016-1.625 0-.719-.516-1.219-1.39-1.282zm0 0"/></symbol><symbol id="bC" overflow="visible"><path d="M2.938-5.39L.217-2.064v.516H2.78V.297h.61v-1.844h.906v-.516H3.39V-5.39zm-.157.859v2.468H.812zm0 0"/></symbol><symbol id="bD" overflow="visible"><path d="M.813-5.344v2.625a4.05 4.05 0 01.687-.047c1.11 0 1.656.375 1.656 1.204 0 .734-.5 1.265-1.25 1.265a1.57 1.57 0 01-.531-.094l-.328-.687c-.078-.016-.14-.016-.188-.016-.265 0-.468.172-.468.422 0 .375.562.75 1.375.75 1.312 0 2.125-.781 2.125-1.812 0-.907-.672-1.532-1.735-1.532-.265 0-.547.047-.86.141v-1.594h2.36v-.625zm0 0"/></symbol><symbol id="bE" overflow="visible"><path d="M3.531-5.688C1.578-5.563.391-4.25.391-2.203.39-.766 1.17.094 2.25.094c1.094 0 1.938-.828 1.938-1.907 0-1.015-.72-1.734-1.657-1.734a2.26 2.26 0 00-1.36.485c.25-1.422 1.063-2.172 2.329-2.172h.031zM1.156-2.703c.328-.25.719-.36 1.157-.36.671 0 1.14.5 1.14 1.329 0 .843-.469 1.453-1.14 1.453-.75 0-1.172-.672-1.172-1.938 0-.156 0-.328.015-.484zm0 0"/></symbol><symbol id="bF" overflow="visible"><path d="M.563-5.344v1.328h.375l.125-.718h2.453L.922.296h.656v-.17L4.234-5.03v-.313zm0 0"/></symbol><symbol id="bG" overflow="visible"><path d="M2.563-2.938c-.876-.312-1.297-.671-1.297-1.203 0-.515.421-.937.968-.937.579 0 .97.406.97 1.031 0 .422-.235.828-.642 1.11zm.328.141c.593-.312.921-.797.921-1.328 0-.766-.593-1.328-1.562-1.328-.984 0-1.64.594-1.64 1.437 0 .579.28 1 .828 1.235-.72.265-1.094.734-1.094 1.375 0 .89.703 1.531 1.844 1.531 1.109 0 1.843-.703 1.843-1.547 0-.625-.39-1.11-1.14-1.375zm-1.141.172c1.063.406 1.594.656 1.594 1.281S2.906-.28 2.219-.28c-.766 0-1.25-.469-1.25-1.172 0-.531.234-.875.781-1.172zm0 0"/></symbol><symbol id="bH" overflow="visible"><path d="M3.281-2.547c-.36.188-.703.281-1.015.281-.75 0-1.172-.484-1.172-1.375 0-.875.468-1.406 1.125-1.406.719 0 1.156.578 1.156 1.703 0 .25-.031.516-.094.797zM1 .422c1.969-.75 3.078-2.235 3.078-3.813 0-1.28-.672-2.03-1.797-2.03-1.14 0-1.937.78-1.937 1.874 0 1.031.672 1.719 1.625 1.719.36 0 .75-.11 1.203-.313C2.828-1.234 2.047-.53.828.047zm0 0"/></symbol><symbol id="bI" overflow="visible"><path d="M3.703-2.406c0-.172 0-1.063-.719-1.063-.265 0-.578.11-.796.39a.634.634 0 00-.61-.39 1.09 1.09 0 00-.672.25c-.047-.219-.234-.219-.344-.219H.297c-.11 0-.344 0-.344.266s.203.266.453.266v2.375c-.25 0-.453 0-.453.265S.187 0 .297 0H1c.125 0 .344 0 .344-.266S1.156-.53.906-.53v-1.39c0-.657.344-1.032.656-1.032.172 0 .25.187.25.594V-.53c-.078 0-.312 0-.312.265S1.719 0 1.844 0h.562c.125 0 .344 0 .344-.266S2.562-.53 2.297-.53v-1.39c0-.657.344-1.032.672-1.032.156 0 .25.187.25.594V-.53c-.094 0-.313 0-.313.265S3.125 0 3.25 0h.563c.109 0 .343 0 .343-.266S3.953-.53 3.703-.53zm0 0"/></symbol><symbol id="bJ" overflow="visible"><path d="M3.781-1.719c0-.968-.75-1.781-1.672-1.781S.438-2.687.438-1.719c0 1 .765 1.766 1.671 1.766S3.781-.72 3.781-1.72zM2.11-.484c-.578 0-1.062-.563-1.062-1.297 0-.688.5-1.188 1.062-1.188s1.063.5 1.063 1.188c0 .734-.485 1.297-1.063 1.297zm0 0"/></symbol><symbol id="bK" overflow="visible"><path d="M3.469-4.531c0-.266-.078-.344-.344-.344h-.594c-.125 0-.344 0-.344.266s.22.265.344.265h.328v1.203a1.376 1.376 0 00-.921-.328c-.875 0-1.672.75-1.672 1.75C.266-.734 1 .047 1.875.047c.422 0 .75-.203.984-.422 0 .219 0 .375.344.375h.594c.125 0 .344 0 .344-.266S3.92-.53 3.797-.53h-.328zm-.61 2.968c0 .454-.359 1.079-.968 1.079-.532 0-1.016-.532-1.016-1.235s.531-1.234 1.11-1.234c.468 0 .874.406.874.844zm0 0"/></symbol><symbol id="bL" overflow="visible"><path d="M3.453-3.156c0-.125 0-.344-.265-.344-.188 0-.22.094-.25.14-.329-.14-.641-.14-.829-.14-1.359 0-1.53.672-1.53.953 0 .735.843.86 1.546.985.422.062 1.031.156 1.031.546 0 .297-.297.532-.984.532-.5 0-.813-.172-.985-.641-.046-.14-.078-.234-.296-.234-.313 0-.313.203-.313.343v.72c0 .108 0 .343.266.343.078 0 .219-.031.297-.266.406.266.859.266 1.015.266 1.36 0 1.531-.75 1.531-1.047a.905.905 0 00-.359-.719C3-1.953 2.688-2 2.141-2.094s-1.032-.172-1.032-.453c0-.156.188-.422.985-.422.719 0 .75.25.75.39.015.267.219.267.297.267.312 0 .312-.204.312-.344zm0 0"/></symbol><symbol id="bM" overflow="visible"><path d="M3.64-6.953c0-.188 0-.5-.359-.5-.203 0-.265.11-.344.266-.218.515-.624 1.156-1.25 1.203-.187.015-.437.03-.437.343 0 .204.125.344.39.344.673 0 1.188-.5 1.22-.531v5.14H1.812c-.172 0-.5 0-.5.344s.328.344.5.344h2.875c.171 0 .484 0 .484-.344s-.313-.344-.484-.344H3.64zm0 0"/></symbol><symbol id="bN" overflow="visible"><path d="M4.156-2.625c.172-.14 1.375-1.172 1.375-2.5 0-1.36-1.125-2.328-2.61-2.328C1.532-7.453.61-6.406.61-5.406c0 .5.422.547.485.547a.489.489 0 00.484-.5c0-.22-.078-.297-.14-.344.171-.625.718-1.047 1.406-1.047 1.015 0 1.906.578 1.906 1.625 0 .922-.703 1.64-1.344 2.203L.781-.64C.641-.53.61-.484.61-.344.61 0 .938 0 1.094 0h4.172c.265-.078.265-.313.265-.484v-.25c0-.22 0-.5-.375-.5-.406 0-.406.25-.406.546H1.875zm0 0"/></symbol><symbol id="bO" overflow="visible"><path d="M5.547-3.64c0-2.235-1.188-3.813-2.469-3.813-1.312 0-2.484 1.61-2.484 3.797C.594-1.437 1.78.14 3.078.14s2.469-1.594 2.469-3.782zM3.078-.548C2.125-.547 1.375-2 1.375-3.78s.828-2.97 1.703-2.97c.86 0 1.688 1.188 1.688 2.969 0 1.765-.75 3.234-1.688 3.234zm0 0"/></symbol><symbol id="bP" overflow="visible"><path d="M1.922-6.813c0-.375-.063-.484-.469-.484H.656c-.172 0-.484 0-.484.344s.312.344.484.344h.485v6.125c0 .203 0 .484.406.484.375 0 .375-.25.375-.594.297.313.734.672 1.406.672 1.266 0 2.375-1.14 2.375-2.656 0-1.469-1-2.64-2.25-2.64a2.13 2.13 0 00-1.531.64zm0 3.641c0-.687.672-1.36 1.453-1.36.86 0 1.547.876 1.547 1.954 0 1.14-.813 1.953-1.656 1.953-.907 0-1.344-1.016-1.344-1.61zm0 0"/></symbol><symbol id="bQ" overflow="visible"><path d="M3.61-6.781a.527.527 0 00-.532-.532c-.312 0-.547.235-.547.532s.235.547.547.547a.54.54 0 00.531-.547zM1.546-5.156c-.156 0-.469 0-.469.343 0 .36.313.36.469.36h1.281v3.766h-1.36c-.171 0-.484 0-.484.343S1.297 0 1.47 0h3.328c.156 0 .469 0 .469-.344s-.313-.344-.47-.344H3.61v-3.968c0-.375-.078-.5-.484-.5zm0 0"/></symbol><symbol id="bR" overflow="visible"><path d="M2.578-4.453h1.938c.171 0 .484 0 .484-.36 0-.343-.313-.343-.484-.343H2.578v-.969c0-.219 0-.5-.375-.5-.39 0-.39.281-.39.5v.969H.78c-.156 0-.484 0-.484.343 0 .36.312.36.484.36h1.031v3c0 1.125.75 1.531 1.625 1.531.641 0 1.829-.328 1.829-1.547 0-.234 0-.5-.407-.5-.375 0-.375.266-.375.516-.015.719-.687.828-.968.828-.938 0-.938-.594-.938-.875zm0 0"/></symbol><symbol id="bS" overflow="visible"><path d="M5.016-4.813c0-.187 0-.453-.329-.453-.28 0-.359.282-.359.297-.484-.297-1.031-.297-1.266-.297-1.953 0-2.218 1-2.218 1.407 0 .484.297.828.703 1.046.375.22.719.282 1.703.438.469.078 1.422.234 1.422.89 0 .438-.406.86-1.516.86-.765 0-1.265-.297-1.515-1.156-.063-.172-.094-.297-.391-.297-.406 0-.406.219-.406.469v1.234c0 .188 0 .453.344.453.14 0 .25 0 .421-.5.547.453 1.172.5 1.547.5C5.36.078 5.36-1.359 5.36-1.484c0-1.235-1.468-1.485-2.046-1.579-1.047-.171-1.766-.296-1.766-.796 0-.329.36-.704 1.484-.704 1.14 0 1.188.532 1.219.844.016.235.234.281.375.281.39 0 .39-.218.39-.453zm0 0"/></symbol><g clip-path="url(#a)"><path d="M27.137 32.34V12.5h317.48v19.84zm0 0" fill="#add2ff"/></g><g clip-path="url(#b)"><path d="M27.137 32.34V12.5H46.98v19.84zm0 0" fill="#fbe963"/></g><g clip-path="url(#c)"><path d="M46.98 32.34V12.5" fill="none" stroke="#000" stroke-miterlimit="10" stroke-width=".399"/></g><g clip-path="url(#d)"><path d="M49.457 32.34V12.5" fill="none" stroke="#7088a6" stroke-miterlimit="10" stroke-width=".399"/></g><g clip-path="url(#e)"><path d="M51.938 32.34V12.5" fill="none" stroke="#7088a6" stroke-miterlimit="10" stroke-width=".399"/></g><g clip-path="url(#f)"><path d="M54.418 32.34V12.5" fill="none" stroke="#7088a6" stroke-miterlimit="10" stroke-width=".399"/></g><g clip-path="url(#g)"><path d="M56.898 32.34V12.5" fill="none" stroke="#7088a6" stroke-miterlimit="10" stroke-width=".399"/></g><g clip-path="url(#h)"><path d="M59.379 32.34V12.5" fill="none" stroke="#7088a6" stroke-miterlimit="10" stroke-width=".399"/></g><g clip-path="url(#i)"><path d="M61.86 32.34V12.5" fill="none" stroke="#7088a6" stroke-miterlimit="10" stroke-width=".399"/></g><g clip-path="url(#j)"><path d="M64.34 32.34V12.5" fill="none" stroke="#7088a6" stroke-miterlimit="10" stroke-width=".399"/></g><g clip-path="url(#k)"><path d="M66.82 32.34V12.5" fill="none" stroke="#000" stroke-miterlimit="10" stroke-width=".399"/></g><g clip-path="url(#l)"><path d="M69.3 32.34V12.5" fill="none" stroke="#7088a6" stroke-miterlimit="10" stroke-width=".399"/></g><g clip-path="url(#m)"><path d="M71.781 32.34V12.5" fill="none" stroke="#7088a6" stroke-miterlimit="10" stroke-width=".399"/></g><g clip-path="url(#n)"><path d="M74.262 32.34V12.5" fill="none" stroke="#7088a6" stroke-miterlimit="10" stroke-width=".399"/></g><g clip-path="url(#o)"><path d="M76.742 32.34V12.5" fill="none" stroke="#7088a6" stroke-miterlimit="10" stroke-width=".399"/></g><g clip-path="url(#p)"><path d="M79.223 32.34V12.5" fill="none" stroke="#7088a6" stroke-miterlimit="10" stroke-width=".399"/></g><g clip-path="url(#q)"><path d="M81.703 32.34V12.5" fill="none" stroke="#7088a6" stroke-miterlimit="10" stroke-width=".399"/></g><g clip-path="url(#r)"><path d="M84.184 32.34V12.5" fill="none" stroke="#7088a6" stroke-miterlimit="10" stroke-width=".399"/></g><g clip-path="url(#s)"><path d="M86.664 32.34V12.5" fill="none" stroke="#000" stroke-miterlimit="10" stroke-width=".399"/></g><g clip-path="url(#t)"><path d="M89.145 32.34V12.5" fill="none" stroke="#7088a6" stroke-miterlimit="10" stroke-width=".399"/></g><g clip-path="url(#u)"><path d="M91.625 32.34V12.5" fill="none" stroke="#7088a6" stroke-miterlimit="10" stroke-width=".399"/></g><g clip-path="url(#v)"><path d="M94.105 32.34V12.5" fill="none" stroke="#7088a6" stroke-miterlimit="10" stroke-width=".399"/></g><g clip-path="url(#w)"><path d="M96.586 32.34V12.5" fill="none" stroke="#7088a6" stroke-miterlimit="10" stroke-width=".399"/></g><g clip-path="url(#x)"><path d="M99.066 32.34V12.5" fill="none" stroke="#7088a6" stroke-miterlimit="10" stroke-width=".399"/></g><g clip-path="url(#y)"><path d="M101.547 32.34V12.5" fill="none" stroke="#7088a6" stroke-miterlimit="10" stroke-width=".399"/></g><g clip-path="url(#z)"><path d="M104.027 32.34V12.5" fill="none" stroke="#7088a6" stroke-miterlimit="10" stroke-width=".399"/></g><g clip-path="url(#A)"><path d="M106.508 32.34V12.5" fill="none" stroke="#000" stroke-miterlimit="10" stroke-width=".399"/></g><g clip-path="url(#B)"><path d="M108.988 32.34V12.5" fill="none" stroke="#7088a6" stroke-miterlimit="10" stroke-width=".399"/></g><g clip-path="url(#C)"><path d="M111.469 32.34V12.5" fill="none" stroke="#7088a6" stroke-miterlimit="10" stroke-width=".399"/></g><g clip-path="url(#D)"><path d="M113.95 32.34V12.5" fill="none" stroke="#7088a6" stroke-miterlimit="10" stroke-width=".399"/></g><g clip-path="url(#E)"><path d="M116.43 32.34V12.5" fill="none" stroke="#7088a6" stroke-miterlimit="10" stroke-width=".399"/></g><g clip-path="url(#F)"><path d="M118.91 32.34V12.5" fill="none" stroke="#7088a6" stroke-miterlimit="10" stroke-width=".399"/></g><g clip-path="url(#G)"><path d="M121.39 32.34V12.5" fill="none" stroke="#7088a6" stroke-miterlimit="10" stroke-width=".399"/></g><g clip-path="url(#H)"><path d="M123.867 32.34V12.5" fill="none" stroke="#7088a6" stroke-miterlimit="10" stroke-width=".399"/></g><g clip-path="url(#I)"><path d="M126.348 32.34V12.5" fill="none" stroke="#000" stroke-miterlimit="10" stroke-width=".399"/></g><g clip-path="url(#J)"><path d="M128.828 32.34V12.5" fill="none" stroke="#7088a6" stroke-miterlimit="10" stroke-width=".399"/></g><g clip-path="url(#K)"><path d="M131.309 32.34V12.5" fill="none" stroke="#7088a6" stroke-miterlimit="10" stroke-width=".399"/></g><g clip-path="url(#L)"><path d="M133.79 32.34V12.5" fill="none" stroke="#7088a6" stroke-miterlimit="10" stroke-width=".399"/></g><g clip-path="url(#M)"><path d="M136.27 32.34V12.5" fill="none" stroke="#7088a6" stroke-miterlimit="10" stroke-width=".399"/></g><g clip-path="url(#N)"><path d="M138.75 32.34V12.5" fill="none" stroke="#7088a6" stroke-miterlimit="10" stroke-width=".399"/></g><g clip-path="url(#O)"><path d="M141.23 32.34V12.5" fill="none" stroke="#7088a6" stroke-miterlimit="10" stroke-width=".399"/></g><g clip-path="url(#P)"><path d="M143.71 32.34V12.5" fill="none" stroke="#7088a6" stroke-miterlimit="10" stroke-width=".399"/></g><g clip-path="url(#Q)"><path d="M146.191 32.34V12.5" fill="none" stroke="#000" stroke-miterlimit="10" stroke-width=".399"/></g><g clip-path="url(#R)"><path d="M148.672 32.34V12.5" fill="none" stroke="#7088a6" stroke-miterlimit="10" stroke-width=".399"/></g><g clip-path="url(#S)"><path d="M151.152 32.34V12.5" fill="none" stroke="#7088a6" stroke-miterlimit="10" stroke-width=".399"/></g><g clip-path="url(#T)"><path d="M153.633 32.34V12.5" fill="none" stroke="#7088a6" stroke-miterlimit="10" stroke-width=".399"/></g><g clip-path="url(#U)"><path d="M156.113 32.34V12.5" fill="none" stroke="#7088a6" stroke-miterlimit="10" stroke-width=".399"/></g><g clip-path="url(#V)"><path d="M158.594 32.34V12.5" fill="none" stroke="#7088a6" stroke-miterlimit="10" stroke-width=".399"/></g><g clip-path="url(#W)"><path d="M161.074 32.34V12.5" fill="none" stroke="#7088a6" stroke-miterlimit="10" stroke-width=".399"/></g><g clip-path="url(#X)"><path d="M163.555 32.34V12.5" fill="none" stroke="#7088a6" stroke-miterlimit="10" stroke-width=".399"/></g><g clip-path="url(#Y)"><path d="M166.035 32.34V12.5" fill="none" stroke="#000" stroke-miterlimit="10" stroke-width=".399"/></g><g clip-path="url(#Z)"><path d="M168.516 32.34V12.5" fill="none" stroke="#7088a6" stroke-miterlimit="10" stroke-width=".399"/></g><g clip-path="url(#aa)"><path d="M170.996 32.34V12.5" fill="none" stroke="#7088a6" stroke-miterlimit="10" stroke-width=".399"/></g><g clip-path="url(#ab)"><path d="M173.477 32.34V12.5" fill="none" stroke="#7088a6" stroke-miterlimit="10" stroke-width=".399"/></g><g clip-path="url(#ac)"><path d="M175.957 32.34V12.5" fill="none" stroke="#7088a6" stroke-miterlimit="10" stroke-width=".399"/></g><g clip-path="url(#ad)"><path d="M178.438 32.34V12.5" fill="none" stroke="#7088a6" stroke-miterlimit="10" stroke-width=".399"/></g><g clip-path="url(#ae)"><path d="M180.918 32.34V12.5" fill="none" stroke="#7088a6" stroke-miterlimit="10" stroke-width=".399"/></g><g clip-path="url(#af)"><path d="M183.398 32.34V12.5" fill="none" stroke="#7088a6" stroke-miterlimit="10" stroke-width=".399"/></g><g clip-path="url(#ag)"><path d="M185.879 32.34V12.5" fill="none" stroke="#000" stroke-miterlimit="10" stroke-width=".399"/></g><g clip-path="url(#ah)"><path d="M188.36 32.34V12.5" fill="none" stroke="#7088a6" stroke-miterlimit="10" stroke-width=".399"/></g><g clip-path="url(#ai)"><path d="M190.84 32.34V12.5" fill="none" stroke="#7088a6" stroke-miterlimit="10" stroke-width=".399"/></g><g clip-path="url(#aj)"><path d="M193.32 32.34V12.5" fill="none" stroke="#7088a6" stroke-miterlimit="10" stroke-width=".399"/></g><g clip-path="url(#ak)"><path d="M195.8 32.34V12.5" fill="none" stroke="#7088a6" stroke-miterlimit="10" stroke-width=".399"/></g><g clip-path="url(#al)"><path d="M198.277 32.34V12.5" fill="none" stroke="#7088a6" stroke-miterlimit="10" stroke-width=".399"/></g><g clip-path="url(#am)"><path d="M200.758 32.34V12.5" fill="none" stroke="#7088a6" stroke-miterlimit="10" stroke-width=".399"/></g><g clip-path="url(#an)"><path d="M203.238 32.34V12.5" fill="none" stroke="#7088a6" stroke-miterlimit="10" stroke-width=".399"/></g><g clip-path="url(#ao)"><path d="M205.719 32.34V12.5" fill="none" stroke="#000" stroke-miterlimit="10" stroke-width=".399"/></g><g clip-path="url(#ap)"><path d="M208.2 32.34V12.5" fill="none" stroke="#7088a6" stroke-miterlimit="10" stroke-width=".399"/></g><g clip-path="url(#aq)"><path d="M210.68 32.34V12.5" fill="none" stroke="#7088a6" stroke-miterlimit="10" stroke-width=".399"/></g><g clip-path="url(#ar)"><path d="M213.16 32.34V12.5" fill="none" stroke="#7088a6" stroke-miterlimit="10" stroke-width=".399"/></g><g clip-path="url(#as)"><path d="M215.64 32.34V12.5" fill="none" stroke="#7088a6" stroke-miterlimit="10" stroke-width=".399"/></g><g clip-path="url(#at)"><path d="M218.121 32.34V12.5" fill="none" stroke="#7088a6" stroke-miterlimit="10" stroke-width=".399"/></g><g clip-path="url(#au)"><path d="M220.602 32.34V12.5" fill="none" stroke="#7088a6" stroke-miterlimit="10" stroke-width=".399"/></g><g clip-path="url(#av)"><path d="M223.082 32.34V12.5" fill="none" stroke="#7088a6" stroke-miterlimit="10" stroke-width=".399"/></g><g clip-path="url(#aw)"><path d="M225.563 32.34V12.5" fill="none" stroke="#000" stroke-miterlimit="10" stroke-width=".399"/></g><g clip-path="url(#ax)"><path d="M228.043 32.34V12.5" fill="none" stroke="#7088a6" stroke-miterlimit="10" stroke-width=".399"/></g><g clip-path="url(#ay)"><path d="M230.523 32.34V12.5" fill="none" stroke="#7088a6" stroke-miterlimit="10" stroke-width=".399"/></g><g clip-path="url(#az)"><path d="M233.004 32.34V12.5" fill="none" stroke="#7088a6" stroke-miterlimit="10" stroke-width=".399"/></g><g clip-path="url(#aA)"><path d="M235.484 32.34V12.5" fill="none" stroke="#7088a6" stroke-miterlimit="10" stroke-width=".399"/></g><g clip-path="url(#aB)"><path d="M237.965 32.34V12.5" fill="none" stroke="#7088a6" stroke-miterlimit="10" stroke-width=".399"/></g><g clip-path="url(#aC)"><path d="M240.445 32.34V12.5" fill="none" stroke="#7088a6" stroke-miterlimit="10" stroke-width=".399"/></g><g clip-path="url(#aD)"><path d="M242.926 32.34V12.5" fill="none" stroke="#7088a6" stroke-miterlimit="10" stroke-width=".399"/></g><g clip-path="url(#aE)"><path d="M245.406 32.34V12.5" fill="none" stroke="#000" stroke-miterlimit="10" stroke-width=".399"/></g><g clip-path="url(#aF)"><path d="M247.887 32.34V12.5" fill="none" stroke="#7088a6" stroke-miterlimit="10" stroke-width=".399"/></g><g clip-path="url(#aG)"><path d="M250.367 32.34V12.5" fill="none" stroke="#7088a6" stroke-miterlimit="10" stroke-width=".399"/></g><g clip-path="url(#aH)"><path d="M252.848 32.34V12.5" fill="none" stroke="#7088a6" stroke-miterlimit="10" stroke-width=".399"/></g><g clip-path="url(#aI)"><path d="M255.328 32.34V12.5" fill="none" stroke="#7088a6" stroke-miterlimit="10" stroke-width=".399"/></g><g clip-path="url(#aJ)"><path d="M257.809 32.34V12.5" fill="none" stroke="#7088a6" stroke-miterlimit="10" stroke-width=".399"/></g><g clip-path="url(#aK)"><path d="M260.29 32.34V12.5" fill="none" stroke="#7088a6" stroke-miterlimit="10" stroke-width=".399"/></g><g clip-path="url(#aL)"><path d="M262.77 32.34V12.5" fill="none" stroke="#7088a6" stroke-miterlimit="10" stroke-width=".399"/></g><g clip-path="url(#aM)"><path d="M265.25 32.34V12.5" fill="none" stroke="#000" stroke-miterlimit="10" stroke-width=".399"/></g><g clip-path="url(#aN)"><path d="M267.73 32.34V12.5" fill="none" stroke="#7088a6" stroke-miterlimit="10" stroke-width=".399"/></g><g clip-path="url(#aO)"><path d="M270.207 32.34V12.5" fill="none" stroke="#7088a6" stroke-miterlimit="10" stroke-width=".399"/></g><g clip-path="url(#aP)"><path d="M272.688 32.34V12.5" fill="none" stroke="#7088a6" stroke-miterlimit="10" stroke-width=".399"/></g><g clip-path="url(#aQ)"><path d="M275.168 32.34V12.5" fill="none" stroke="#7088a6" stroke-miterlimit="10" stroke-width=".399"/></g><g clip-path="url(#aR)"><path d="M277.648 32.34V12.5" fill="none" stroke="#7088a6" stroke-miterlimit="10" stroke-width=".399"/></g><g clip-path="url(#aS)"><path d="M280.129 32.34V12.5" fill="none" stroke="#7088a6" stroke-miterlimit="10" stroke-width=".399"/></g><g clip-path="url(#aT)"><path d="M282.61 32.34V12.5" fill="none" stroke="#7088a6" stroke-miterlimit="10" stroke-width=".399"/></g><g clip-path="url(#aU)"><path d="M285.09 32.34V12.5" fill="none" stroke="#000" stroke-miterlimit="10" stroke-width=".399"/></g><g clip-path="url(#aV)"><path d="M287.57 32.34V12.5" fill="none" stroke="#7088a6" stroke-miterlimit="10" stroke-width=".399"/></g><g clip-path="url(#aW)"><path d="M290.05 32.34V12.5" fill="none" stroke="#7088a6" stroke-miterlimit="10" stroke-width=".399"/></g><g clip-path="url(#aX)"><path d="M292.531 32.34V12.5" fill="none" stroke="#7088a6" stroke-miterlimit="10" stroke-width=".399"/></g><g clip-path="url(#aY)"><path d="M295.012 32.34V12.5" fill="none" stroke="#7088a6" stroke-miterlimit="10" stroke-width=".399"/></g><g clip-path="url(#aZ)"><path d="M297.492 32.34V12.5" fill="none" stroke="#7088a6" stroke-miterlimit="10" stroke-width=".399"/></g><g clip-path="url(#ba)"><path d="M299.973 32.34V12.5" fill="none" stroke="#7088a6" stroke-miterlimit="10" stroke-width=".399"/></g><g clip-path="url(#bb)"><path d="M302.453 32.34V12.5" fill="none" stroke="#7088a6" stroke-miterlimit="10" stroke-width=".399"/></g><g clip-path="url(#bc)"><path d="M304.934 32.34V12.5" fill="none" stroke="#000" stroke-miterlimit="10" stroke-width=".399"/></g><g clip-path="url(#bd)"><path d="M307.414 32.34V12.5" fill="none" stroke="#7088a6" stroke-miterlimit="10" stroke-width=".399"/></g><g clip-path="url(#be)"><path d="M309.895 32.34V12.5" fill="none" stroke="#7088a6" stroke-miterlimit="10" stroke-width=".399"/></g><g clip-path="url(#bf)"><path d="M312.375 32.34V12.5" fill="none" stroke="#7088a6" stroke-miterlimit="10" stroke-width=".399"/></g><g clip-path="url(#bg)"><path d="M314.855 32.34V12.5" fill="none" stroke="#7088a6" stroke-miterlimit="10" stroke-width=".399"/></g><g clip-path="url(#bh)"><path d="M317.336 32.34V12.5" fill="none" stroke="#7088a6" stroke-miterlimit="10" stroke-width=".399"/></g><g clip-path="url(#bi)"><path d="M319.816 32.34V12.5" fill="none" stroke="#7088a6" stroke-miterlimit="10" stroke-width=".399"/></g><g clip-path="url(#bj)"><path d="M322.297 32.34V12.5" fill="none" stroke="#7088a6" stroke-miterlimit="10" stroke-width=".399"/></g><g clip-path="url(#bk)"><path d="M324.777 32.34V12.5" fill="none" stroke="#000" stroke-miterlimit="10" stroke-width=".399"/></g><g clip-path="url(#bl)"><path d="M327.258 32.34V12.5" fill="none" stroke="#7088a6" stroke-miterlimit="10" stroke-width=".399"/></g><g clip-path="url(#bm)"><path d="M329.738 32.34V12.5" fill="none" stroke="#7088a6" stroke-miterlimit="10" stroke-width=".399"/></g><g clip-path="url(#bn)"><path d="M332.219 32.34V12.5" fill="none" stroke="#7088a6" stroke-miterlimit="10" stroke-width=".399"/></g><g clip-path="url(#bo)"><path d="M334.7 32.34V12.5" fill="none" stroke="#7088a6" stroke-miterlimit="10" stroke-width=".399"/></g><g clip-path="url(#bp)"><path d="M337.18 32.34V12.5" fill="none" stroke="#7088a6" stroke-miterlimit="10" stroke-width=".399"/></g><g clip-path="url(#bq)"><path d="M339.66 32.34V12.5" fill="none" stroke="#7088a6" stroke-miterlimit="10" stroke-width=".399"/></g><g clip-path="url(#br)"><path d="M342.137 32.34V12.5" fill="none" stroke="#7088a6" stroke-miterlimit="10" stroke-width=".399"/></g><g clip-path="url(#bs)"><path d="M27.137 32.34V12.5h317.48v19.84zm0 0" fill="none" stroke="#000" stroke-miterlimit="10" stroke-width=".399"/></g><g fill="#303030"><use x="3.985" xlink:href="#bt" y="9.349"/><use x="8.799" xlink:href="#bu" y="9.349"/><use x="12.744" xlink:href="#bv" y="9.349"/><use x="15.406" xlink:href="#bw" y="9.349"/><use x="19.319" xlink:href="#bx" y="9.349"/><use x="34.841" xlink:href="#by" y="10.236"/><use x="54.683" xlink:href="#bz" y="10.27"/><use x="74.526" xlink:href="#bA" y="10.27"/><use x="94.368" xlink:href="#bB" y="10.236"/><use x="114.211" xlink:href="#bC" y="10.068"/><use x="134.053" xlink:href="#bD" y="10.186"/><use x="153.896" xlink:href="#bE" y="10.347"/><use x="173.738" xlink:href="#bF" y="10.068"/><use x="193.58" xlink:href="#bG" y="10.19"/><use x="213.423" xlink:href="#bH" y="10.058"/><use x="231.05" xlink:href="#bz" y="10.236"/><use x="235.481" xlink:href="#by" y="10.236"/><use x="250.892" xlink:href="#bz" y="10.27"/><use x="255.323" xlink:href="#bz" y="10.27"/><use x="270.735" xlink:href="#bz" y="10.27"/><use x="275.166" xlink:href="#bA" y="10.27"/><use x="290.577" xlink:href="#bz" y="10.236"/><use x="295.008" xlink:href="#bB" y="10.236"/><use x="310.419" xlink:href="#bz" y="10.118"/><use x="314.85" xlink:href="#bC" y="10.118"/><use x="330.262" xlink:href="#bz" y="10.236"/><use x="334.693" xlink:href="#bD" y="10.236"/></g><use x="28.588" xlink:href="#bI" y="24.667"/><use x="32.823" xlink:href="#bJ" y="24.667"/><use x="37.057" xlink:href="#bK" y="24.667"/><use x="41.292" xlink:href="#bL" y="24.667"/><path d="M48.395 28.797h294.808V16.043H48.395zm0 0" fill="#add2ff"/><use x="172.272" xlink:href="#bM" y="26.073"/><use x="178.424" xlink:href="#bN" y="26.073"/><use x="184.576" xlink:href="#bO" y="26.073"/><use x="194.71" xlink:href="#bP" y="26.073"/><use x="200.862" xlink:href="#bQ" y="26.073"/><use x="207.014" xlink:href="#bR" y="26.073"/><use x="213.166" xlink:href="#bS" y="26.073"/></svg>