<svg height="58.572" viewBox="0 0 353.095 32.54" width="847.428" xmlns="http://www.w3.org/2000/svg" xmlns:xlink="http://www.w3.org/1999/xlink"><clipPath id="a"><path d="M27 12h326v20.54H27zm0 0"/></clipPath><clipPath id="b"><path d="M27 12h42v20.54H27zm0 0"/></clipPath><clipPath id="c"><path d="M68 12h41v20.54H68zm0 0"/></clipPath><clipPath id="d"><path d="M27 12h326.094v20.54H27zm0 0"/></clipPath><clipPath id="e"><path d="M67 12h2v20.54h-2zm0 0"/></clipPath><clipPath id="f"><path d="M108 12h2v20.54h-2zm0 0"/></clipPath><clipPath id="g"><path d="M149 12h1v20.54h-1zm0 0"/></clipPath><clipPath id="h"><path d="M189 12h2v20.54h-2zm0 0"/></clipPath><clipPath id="i"><path d="M230 12h2v20.54h-2zm0 0"/></clipPath><clipPath id="j"><path d="M271 12h1v20.54h-1zm0 0"/></clipPath><clipPath id="k"><path d="M312 12h1v20.54h-1zm0 0"/></clipPath><symbol id="l" overflow="visible"><path d="M.266-5.344v.313l.453.047.14.109v4.39l-.14.126-.453.03V0h2.093c1.36 0 2.094-.563 2.094-1.563 0-.78-.547-1.265-1.484-1.28.765-.204 1.156-.61 1.156-1.22 0-.875-.61-1.28-1.828-1.28zm1.296 2.422v-2.047c.204-.015.36-.031.47-.031.874 0 1.296.328 1.296.969 0 .781-.453 1.11-1.453 1.11h-.313zm0 2.531v-2.14c.313-.031.579-.047.782-.047.89 0 1.328.344 1.328 1.078 0 .797-.5 1.125-1.563 1.125-.171 0-.343 0-.546-.016zm0 0"/></symbol><symbol id="m" overflow="visible"><path d="M-.016-3.828v.297l.5.047L1.813-.031c-.188.562-.422.969-.641 1.187L.406.86a.554.554 0 00-.203.438c0 .25.219.437.547.437.516 0 .906-.437 1.281-1.343l1.594-3.86.453-.062v-.297H2.656v.297l.438.031.062.125-1 2.469-.953-2.469.094-.125.422-.031v-.297zm0 0"/></symbol><symbol id="n" overflow="visible"><path d="M.703-3.36v2.58c0 .562.172.812.828.812.313 0 .672-.062 1.047-.187v-.297a2.308 2.308 0 01-.547.078c-.562 0-.672-.266-.672-.875v-2.11h1.22v-.374h-1.22v-.844h-.296l-.344.75-.516.219v.25zm0 0"/></symbol><symbol id="o" overflow="visible"><path d="M3.563-.844c-.454.297-.844.469-1.25.469-.797 0-1.329-.61-1.329-1.64v-.079h2.579v-.25c0-.984-.563-1.562-1.422-1.562-1.079 0-1.844.812-1.844 2.015 0 1.172.719 1.97 1.781 1.97.5 0 1.016-.173 1.485-.485zm-.704-1.594H1.016c.046-.671.5-1.109 1.015-1.109.531 0 .828.344.828.985zm0 0"/></symbol><symbol id="p" overflow="visible"><path d="M2.734-3.734c-.265-.125-.578-.172-.921-.172C.905-3.906.39-3.5.39-2.796c0 .53.359.78 1.03 1.093.532.234.813.375.813.797 0 .375-.28.64-.75.64-.218 0-.453-.062-.671-.187l-.094-.672h-.39v1.031c.28.11.64.172 1.046.172.938 0 1.484-.453 1.484-1.203 0-.297-.109-.531-.296-.688-.266-.218-.579-.328-.844-.453-.453-.218-.688-.39-.688-.734 0-.36.25-.563.672-.563.188 0 .375.047.578.157l.063.562h.39zm0 0"/></symbol><symbol id="q" overflow="visible"><path d="M2.219-5.438c-1.14 0-1.89 1-1.89 2.766 0 1.75.75 2.766 1.89 2.766s1.89-1.016 1.89-2.766c0-1.765-.75-2.765-1.89-2.765zm0 .375c.734 0 1.125.813 1.125 2.391s-.39 2.39-1.125 2.39-1.14-.812-1.14-2.39.405-2.39 1.14-2.39zm0 0"/></symbol><symbol id="r" overflow="visible"><path d="M2.484-5.438L.75-4.921v.328L2-4.812v4.28l-.094.141-.922.047V0h2.672v-.328l-.86-.047L2.704-.5v-4.938zm0 0"/></symbol><symbol id="s" overflow="visible"><path d="M1.125-.625c1.766-1.406 2.719-2.313 2.719-3.313 0-.906-.625-1.5-1.656-1.5C1.203-5.438.5-4.875.5-4.313c0 .266.172.438.453.438A.56.56 0 001.313-4v-.844c.234-.14.468-.187.703-.187.656 0 1.062.437 1.062 1.203 0 1.047-1 1.906-2.75 3.328V0h3.703v-1.313h-.36l-.155.688zm0 0"/></symbol><symbol id="t" overflow="visible"><path d="M2.531-2.813c.781-.218 1.188-.671 1.188-1.296 0-.797-.625-1.329-1.578-1.329-1 0-1.672.532-1.672 1.063 0 .25.172.422.422.422a.49.49 0 00.328-.11v-.75a1.31 1.31 0 01.75-.218c.625 0 1.015.406 1.015 1.031 0 .64-.421 1.031-1.234 1.031-.047 0-.11-.015-.172-.015v.468c.156-.015.297-.03.438-.03.75 0 1.171.374 1.171 1 0 .702-.53 1.265-1.25 1.265a1.17 1.17 0 01-.671-.203l-.25-.672c-.094-.032-.172-.032-.25-.032-.25 0-.438.172-.438.407 0 .406.625.875 1.578.875 1.219 0 2.016-.735 2.016-1.625 0-.719-.516-1.219-1.39-1.282zm0 0"/></symbol><symbol id="u" overflow="visible"><path d="M2.938-5.39L.217-2.064v.516H2.78V.297h.61v-1.844h.906v-.516H3.39V-5.39zm-.157.859v2.468H.812zm0 0"/></symbol><symbol id="v" overflow="visible"><path d="M.813-5.344v2.625a4.05 4.05 0 01.687-.047c1.11 0 1.656.375 1.656 1.204 0 .734-.5 1.265-1.25 1.265a1.57 1.57 0 01-.531-.094l-.328-.687c-.078-.016-.14-.016-.188-.016-.265 0-.468.172-.468.422 0 .375.562.75 1.375.75 1.312 0 2.125-.781 2.125-1.812 0-.907-.672-1.532-1.735-1.532-.265 0-.547.047-.86.141v-1.594h2.36v-.625zm0 0"/></symbol><symbol id="w" overflow="visible"><path d="M3.531-5.688C1.578-5.563.391-4.25.391-2.203.39-.766 1.17.094 2.25.094c1.094 0 1.938-.828 1.938-1.907 0-1.015-.72-1.734-1.657-1.734a2.26 2.26 0 00-1.36.485c.25-1.422 1.063-2.172 2.329-2.172h.031zM1.156-2.703c.328-.25.719-.36 1.157-.36.671 0 1.14.5 1.14 1.329 0 .843-.469 1.453-1.14 1.453-.75 0-1.172-.672-1.172-1.938 0-.156 0-.328.015-.484zm0 0"/></symbol><symbol id="x" overflow="visible"><path d="M.563-5.344v1.328h.375l.125-.718h2.453L.922.296h.656v-.17L4.234-5.03v-.313zm0 0"/></symbol><symbol id="y" overflow="visible"><path d="M1.094-4c-.032-.297-.219-.297-.407-.297H.376c-.156 0-.422 0-.422.297 0 .313.219.313.578.313V-.61c-.36 0-.578 0-.578.312C-.047 0 .234 0 .375 0h.875c.14 0 .406 0 .406-.297 0-.312-.203-.312-.562-.312v-1.782c0-.89.406-1.359.812-1.359.235 0 .36.172.36.813V-.61c-.188 0-.438 0-.438.312C1.828 0 2.11 0 2.25 0h.734c.157 0 .422 0 .422-.297 0-.312-.219-.312-.578-.312v-1.782c0-.89.406-1.359.828-1.359.219 0 .36.172.36.813V-.61c-.188 0-.438 0-.438.312 0 .297.266.297.406.297h.75c.157 0 .407 0 .407-.297 0-.312-.204-.312-.563-.312v-2.407c0-.203 0-1.343-.89-1.343a1.22 1.22 0 00-.985.515c-.156-.328-.437-.515-.765-.515-.313 0-.61.14-.844.359zm0 0"/></symbol><symbol id="z" overflow="visible"><path d="M4.656-2.156c0-1.25-.922-2.235-2.047-2.235C1.5-4.39.563-3.406.563-2.156c0 1.265.953 2.219 2.046 2.219s2.047-.954 2.047-2.22zM2.61-.546c-.734 0-1.359-.75-1.359-1.673 0-.906.656-1.562 1.36-1.562.718 0 1.359.656 1.359 1.562 0 .922-.625 1.672-1.36 1.672zm0 0"/></symbol><symbol id="A" overflow="visible"><path d="M3.563-.5c0 .36 0 .5.406.5h.719c.171 0 .421 0 .421-.313 0-.296-.265-.296-.406-.296H4.25v-5.079c0-.296-.047-.406-.39-.406h-.735c-.156 0-.406 0-.406.313 0 .297.265.297.406.297h.438v1.578a1.713 1.713 0 00-1.157-.453C1.312-4.36.36-3.406.36-2.141.36-.906 1.25.063 2.313.063A1.66 1.66 0 003.563-.5zm0-2.14v.703c0 .562-.438 1.39-1.204 1.39-.718 0-1.312-.703-1.312-1.594 0-.953.703-1.609 1.39-1.609.641 0 1.126.563 1.126 1.11zm0 0"/></symbol><symbol id="B" overflow="visible"><path d="M2.969-2.547a11.96 11.96 0 01-.672-.11c-.297-.046-.969-.171-.969-.546 0-.266.313-.578 1.266-.578.828 0 .969.297 1 .562 0 .172.031.344.328.344.36 0 .36-.219.36-.422v-.687c0-.157 0-.407-.298-.407-.25 0-.28.141-.312.22-.438-.22-.875-.22-1.063-.22-1.656 0-1.89.829-1.89 1.188 0 .906 1.047 1.078 1.969 1.219.484.078 1.28.203 1.28.734 0 .375-.374.703-1.28.703-.47 0-1.016-.11-1.266-.89-.063-.172-.094-.282-.36-.282-.343 0-.343.203-.343.407v.968c0 .156 0 .406.297.406.093 0 .25-.015.375-.374.484.359 1.015.374 1.296.374 1.563 0 1.891-.828 1.891-1.312 0-1.031-1.281-1.25-1.61-1.297zm0 0"/></symbol><symbol id="H" overflow="visible"><path d="M2.86-2.547l1.234-1.14h.343c.141 0 .407 0 .407-.297 0-.313-.266-.313-.407-.313h-1.53c-.173 0-.407 0-.407.313 0 .296.25.296.406.296h.36l-1.61 1.516v-3.515c0-.297-.062-.407-.406-.407H.61c-.157 0-.407 0-.407.297 0 .313.25.313.406.313h.485V-.61H.609c-.156 0-.406 0-.406.296C.203 0 .453 0 .61 0h1.532c.156 0 .406 0 .406-.297 0-.312-.25-.312-.406-.312h-.485v-.813l.797-.734L3.641-.61c-.36 0-.563 0-.563.312 0 .297.25.297.406.297h1.172c.157 0 .407 0 .407-.297 0-.312-.25-.312-.407-.312h-.312zm0 0"/></symbol><symbol id="I" overflow="visible"><path d="M4.234-1.906c.204 0 .391 0 .391-.36 0-1.14-.64-2.125-1.938-2.125-1.187 0-2.14 1-2.14 2.235C.547-.953 1.562.063 2.844.063c1.312 0 1.781-.907 1.781-1.157 0-.265-.281-.265-.344-.265-.187 0-.265.03-.328.218-.219.5-.765.594-1.047.594-.75 0-1.484-.5-1.656-1.36zM1.266-2.5c.14-.734.734-1.281 1.421-1.281.516 0 1.141.25 1.235 1.281zm0 0"/></symbol><symbol id="J" overflow="visible"><path d="M4.281-3.688h.297c.156 0 .406 0 .406-.296 0-.313-.234-.313-.406-.313H3.422c-.156 0-.406 0-.406.297 0 .313.25.313.406.313h.281l-.719 2.124c-.14.36-.187.547-.265.86a9.105 9.105 0 00-.219-.594l-.922-2.39h.25c.14 0 .39 0 .39-.297 0-.313-.234-.313-.39-.313H.656c-.156 0-.39 0-.39.313 0 .296.25.296.39.296H.97L2.375-.124c.047.094.047.11.047.125s-.25.844-.375 1.094c-.297.547-.656.562-.797.578 0-.016.047-.094.047-.219a.424.424 0 00-.422-.437c-.281 0-.453.187-.453.437a.82.82 0 00.828.813c1 0 1.453-1.313 1.484-1.422zm0 0"/></symbol><symbol id="K" overflow="visible"><path d="M4.422-6.313c.14 0 .39 0 .39-.296 0-.313-.234-.313-.39-.313H2.609c-.328 0-.39.094-.39.406V.422c0 .312.047.406.39.406h1.813c.14 0 .39 0 .39-.297 0-.312-.234-.312-.39-.312H2.906v-6.532zm0 0"/></symbol><symbol id="L" overflow="visible"><path d="M4.719-3.047c0-1.844-1.016-3.156-2.11-3.156C1.5-6.203.5-4.86.5-3.047.5-1.203 1.516.11 2.61.11c1.124 0 2.109-1.328 2.109-3.156zM2.609-.5c-.78 0-1.421-1.172-1.421-2.656 0-1.453.687-2.438 1.421-2.438s1.422.985 1.422 2.438C4.031-1.672 3.391-.5 2.61-.5zm0 0"/></symbol><symbol id="M" overflow="visible"><path d="M3.016-6.516c0-.296-.063-.406-.407-.406H.813c-.157 0-.407 0-.407.297 0 .313.235.313.406.313h1.516v6.53H.813c-.157 0-.407 0-.407.298 0 .312.235.312.406.312H2.61c.329 0 .407-.094.407-.406zm0 0"/></symbol><symbol id="N" overflow="visible"><path d="M3.094-5.797c0-.156 0-.406-.297-.406-.188 0-.25.125-.297.234-.375.86-.89.969-1.078.985-.172.015-.375.03-.375.312 0 .25.172.297.328.297.188 0 .594-.063 1.031-.438v4.204H1.5c-.156 0-.39 0-.39.312C1.11 0 1.36 0 1.5 0H4c.156 0 .406 0 .406-.297 0-.312-.234-.312-.406-.312h-.906zm0 0"/></symbol><symbol id="O" overflow="visible"><path d="M.672-.578C.578-.5.516-.453.516-.313.516 0 .766 0 .922 0h3.39c.329 0 .391-.094.391-.406v-.266c0-.187 0-.406-.344-.406s-.343.187-.343.469H1.64c.593-.5 1.546-1.25 1.984-1.657.625-.562 1.078-1.187 1.078-1.984 0-1.203-1-1.953-2.219-1.953-1.171 0-1.968.812-1.968 1.672a.446.446 0 10.89.031.426.426 0 00-.14-.328c.156-.453.625-.766 1.171-.766.813 0 1.579.453 1.579 1.344 0 .688-.485 1.266-1.141 1.813zm0 0"/></symbol><symbol id="P" overflow="visible"><path d="M3.656-3.328c.563-.36.844-.922.844-1.469 0-.734-.734-1.406-1.875-1.406-1.203 0-1.89.484-1.89 1.172 0 .328.25.468.437.468a.44.44 0 00.437-.453c0-.14-.046-.234-.078-.265.297-.313 1.016-.313 1.094-.313.688 0 1.188.36 1.188.813 0 .297-.157.64-.422.86-.313.265-.563.28-.922.296-.578.047-.719.047-.719.328 0 .313.234.313.39.313h.47c.984 0 1.484.671 1.484 1.25C4.094-1.125 3.53-.5 2.625-.5c-.39 0-1.156-.11-1.422-.578.047-.047.125-.11.125-.313a.437.437 0 00-.437-.437c-.235 0-.454.156-.454.469 0 .89.97 1.468 2.188 1.468 1.313 0 2.156-.921 2.156-1.843 0-.704-.468-1.297-1.125-1.594zm0 0"/></symbol><symbol id="Q" overflow="visible"><path d="M.375-2.438c-.078.141-.078.157-.078.36 0 .328.078.39.39.39h2.516v1.079h-.625c-.156 0-.39 0-.39.312 0 .297.25.297.39.297h1.797c.156 0 .406 0 .406-.297 0-.312-.25-.312-.406-.312h-.61v-1.079h.766c.157 0 .407 0 .407-.296 0-.313-.25-.313-.407-.313h-.765v-3.5c0-.328-.079-.406-.422-.406h-.266c-.25 0-.297 0-.422.203zm.61.141l2.218-3.469v3.47zm0 0"/></symbol><symbol id="R" overflow="visible"><path d="M2.766-3.875c-.36 0-.797.063-1.204.281v-1.89h2.391c.156 0 .406 0 .406-.297 0-.313-.25-.313-.406-.313H1.281c-.328 0-.406.094-.406.407v2.656c0 .187 0 .406.328.406.172 0 .219-.047.297-.14.266-.329.672-.5 1.25-.5.813 0 1.266.718 1.266 1.374 0 .797-.704 1.391-1.547 1.391-.281 0-.906-.078-1.188-.625.047-.047.125-.125.125-.328a.436.436 0 00-.437-.438c-.156 0-.453.094-.453.47 0 .827.843 1.53 1.953 1.53 1.25 0 2.234-.89 2.234-2 0-1.015-.766-1.984-1.937-1.984zm0 0"/></symbol><symbol id="C" overflow="visible"><path d="M1.797-1.453c0-.875.625-1.5 1.406-1.5.016.312.235.375.36.375.203 0 .359-.14.359-.375 0-.188-.14-.516-.766-.516-.719 0-1.156.422-1.36.61v-.235c0-.265-.077-.344-.343-.344h-.86c-.109 0-.359 0-.359.266s.25.266.36.266h.594v2.375H.594c-.11 0-.36 0-.36.265S.484 0 .594 0H2.64c.125 0 .343 0 .343-.266S2.766-.53 2.641-.53h-.844zm0 0"/></symbol><symbol id="D" overflow="visible"><path d="M3.406-1.5c.14 0 .344 0 .344-.297 0-.953-.547-1.703-1.578-1.703a1.75 1.75 0 00-1.75 1.766c0 .953.797 1.78 1.875 1.78C3.39.047 3.75-.655 3.75-.858c0-.172-.14-.25-.313-.25-.124 0-.203.015-.296.187-.157.36-.547.438-.797.438-.578 0-1.172-.391-1.297-1.016zm-2.344-.516c.11-.562.594-.953 1.11-.953.719 0 .906.547.953.953zm0 0"/></symbol><symbol id="E" overflow="visible"><path d="M3.453-3.156c0-.125 0-.344-.265-.344-.188 0-.22.094-.25.14-.329-.14-.641-.14-.829-.14-1.359 0-1.53.672-1.53.953 0 .735.843.86 1.546.985.422.062 1.031.156 1.031.546 0 .297-.297.532-.984.532-.5 0-.813-.172-.985-.641-.046-.14-.078-.234-.296-.234-.313 0-.313.203-.313.343v.72c0 .108 0 .343.266.343.078 0 .219-.031.297-.266.406.266.859.266 1.015.266 1.36 0 1.531-.75 1.531-1.047a.905.905 0 00-.359-.719C3-1.953 2.688-2 2.141-2.094s-1.032-.172-1.032-.453c0-.156.188-.422.985-.422.719 0 .75.25.75.39.015.267.219.267.297.267.312 0 .312-.204.312-.344zm0 0"/></symbol><symbol id="F" overflow="visible"><path d="M3.469-2.906h.219c.109 0 .343 0 .343-.266s-.234-.265-.343-.265H2.75c-.125 0-.328 0-.328.265s.203.266.328.266h.188L2.109-.453l-.828-2.453h.188c.125 0 .343 0 .343-.266s-.218-.265-.343-.265H.547c-.125 0-.344 0-.344.265s.219.266.344.266H.75l.906 2.64c.094.313.282.313.453.313s.36 0 .47-.313zm0 0"/></symbol><symbol id="G" overflow="visible"><path d="M3.469-4.531c0-.266-.078-.344-.344-.344h-.594c-.125 0-.344 0-.344.266s.22.265.344.265h.328v1.203a1.376 1.376 0 00-.921-.328c-.875 0-1.672.75-1.672 1.75C.266-.734 1 .047 1.875.047c.422 0 .75-.203.984-.422 0 .219 0 .375.344.375h.594c.125 0 .344 0 .344-.266S3.92-.53 3.797-.53h-.328zm-.61 2.968c0 .454-.359 1.079-.968 1.079-.532 0-1.016-.532-1.016-1.235s.531-1.234 1.11-1.234c.468 0 .874.406.874.844zm0 0"/></symbol><g clip-path="url(#a)"><path d="M27.484 32.34V12.5h325.414v19.84zm0 0" fill="#add2ff"/></g><g clip-path="url(#b)"><path d="M27.484 32.34V12.5H68.16v19.84zm0 0" fill="#fbe963"/></g><g clip-path="url(#c)"><path d="M68.16 32.34V12.5h40.676v19.84zm0 0" fill="#e8e8e8"/></g><g clip-path="url(#d)"><path d="M27.484 32.34V12.5h325.414v19.84zm0 0" fill="none" stroke="#000" stroke-miterlimit="10" stroke-width=".399"/></g><g clip-path="url(#e)"><path d="M68.16 32.34V12.5" fill="none" stroke="#000" stroke-miterlimit="10" stroke-width=".399"/></g><g clip-path="url(#f)"><path d="M108.836 32.34V12.5" fill="none" stroke="#000" stroke-miterlimit="10" stroke-width=".399"/></g><g clip-path="url(#g)"><path d="M149.516 32.34V12.5" fill="none" stroke="#000" stroke-miterlimit="10" stroke-width=".399"/></g><g clip-path="url(#h)"><path d="M190.191 32.34V12.5" fill="none" stroke="#000" stroke-miterlimit="10" stroke-width=".399"/></g><g clip-path="url(#i)"><path d="M230.867 32.34V12.5" fill="none" stroke="#000" stroke-miterlimit="10" stroke-width=".399"/></g><g clip-path="url(#j)"><path d="M271.547 32.34V12.5" fill="none" stroke="#000" stroke-miterlimit="10" stroke-width=".399"/></g><g clip-path="url(#k)"><path d="M312.223 32.34V12.5" fill="none" stroke="#000" stroke-miterlimit="10" stroke-width=".399"/></g><g fill="#303030"><use x="3.985" xlink:href="#l" y="9.349"/><use x="8.799" xlink:href="#m" y="9.349"/><use x="12.744" xlink:href="#n" y="9.349"/><use x="15.406" xlink:href="#o" y="9.349"/><use x="19.319" xlink:href="#p" y="9.349"/><use x="45.606" xlink:href="#q" y="10.236"/><use x="86.282" xlink:href="#r" y="10.27"/><use x="126.959" xlink:href="#s" y="10.27"/><use x="167.636" xlink:href="#t" y="10.236"/><use x="208.312" xlink:href="#u" y="10.068"/><use x="248.989" xlink:href="#v" y="10.186"/><use x="289.666" xlink:href="#w" y="10.347"/><use x="330.342" xlink:href="#x" y="10.068"/></g><use x="37.361" xlink:href="#y" y="25.054"/><use x="42.591" xlink:href="#z" y="25.054"/><use x="47.822" xlink:href="#A" y="25.054"/><use x="53.052" xlink:href="#B" y="25.054"/><g fill="#666"><use x="71.561" xlink:href="#C" y="25.054"/><use x="75.796" xlink:href="#D" y="25.054"/><use x="80.03" xlink:href="#E" y="25.054"/><use x="84.265" xlink:href="#D" y="25.054"/><use x="88.499" xlink:href="#C" y="25.054"/><use x="92.734" xlink:href="#F" y="25.054"/><use x="96.968" xlink:href="#D" y="25.054"/><use x="101.203" xlink:href="#G" y="25.054"/></g><use x="113.484" xlink:href="#H" y="25.469"/><use x="118.714" xlink:href="#I" y="25.469"/><use x="123.945" xlink:href="#J" y="25.469"/><use x="129.175" xlink:href="#K" y="25.469"/><use x="134.405" xlink:href="#L" y="25.469"/><use x="139.636" xlink:href="#M" y="25.469"/><use x="154.16" xlink:href="#H" y="25.469"/><use x="159.39" xlink:href="#I" y="25.469"/><use x="164.621" xlink:href="#J" y="25.469"/><use x="169.851" xlink:href="#K" y="25.469"/><use x="175.081" xlink:href="#N" y="25.469"/><use x="180.312" xlink:href="#M" y="25.469"/><use x="194.837" xlink:href="#H" y="25.469"/><use x="200.067" xlink:href="#I" y="25.469"/><use x="205.298" xlink:href="#J" y="25.469"/><use x="210.528" xlink:href="#K" y="25.469"/><use x="215.758" xlink:href="#O" y="25.469"/><use x="220.989" xlink:href="#M" y="25.469"/><use x="235.514" xlink:href="#H" y="25.469"/><use x="240.744" xlink:href="#I" y="25.469"/><use x="245.975" xlink:href="#J" y="25.469"/><use x="251.205" xlink:href="#K" y="25.469"/><use x="256.435" xlink:href="#P" y="25.469"/><use x="261.666" xlink:href="#M" y="25.469"/><use x="276.19" xlink:href="#H" y="25.469"/><use x="281.42" xlink:href="#I" y="25.469"/><use x="286.651" xlink:href="#J" y="25.469"/><use x="291.881" xlink:href="#K" y="25.469"/><use x="297.111" xlink:href="#Q" y="25.469"/><use x="302.342" xlink:href="#M" y="25.469"/><use x="316.867" xlink:href="#H" y="25.469"/><use x="322.097" xlink:href="#I" y="25.469"/><use x="327.328" xlink:href="#J" y="25.469"/><use x="332.558" xlink:href="#K" y="25.469"/><use x="337.788" xlink:href="#R" y="25.469"/><use x="343.019" xlink:href="#M" y="25.469"/></svg>