<svg width="448.947" height="321.751" viewBox="-4 -4 118.784 85.13" xml:space="preserve" xmlns="http://www.w3.org/2000/svg"><path style="fill:#ffc68a;fill-opacity:1;stroke:#000002;stroke-width:.465;stroke-linecap:round;stroke-linejoin:round;stroke-dasharray:none;stroke-opacity:1" d="M11.086 85.236s2.713-4.534 3.714-6.969c.275-.668.626-1.353.62-2.076-.003-.625-.505-1.167-.562-1.79a6.209 6.209 0 0 1 .32-2.609c.282-.795 1.106-2.245 1.985-2.81 0 0 .293-.678.44-1.612.158-.999-.108-2.197-.364-3.175-.296-1.128-1.079-2.126-1.197-3.285-.388-3.79-.648-7.673-.56-11.514.051-2.22.314-4.432.628-6.63.193-1.353.54-2.68.771-4.027.215-1.255.359-2.523.57-3.779.407-2.434.538-4.948 1.343-7.28.366-1.061.759-2.2 1.561-2.984.335-.327.795-.686 1.258-.622.489.068.902.54 1.097.994.505 1.173-.008 2.555-.085 3.83-.09 1.501-.078 2.845-.076 4.35 0 .933-.086 2.926-.086 2.926s.861-3.988.898-4.067c.037-.08.928-3.86 1.416-5.785.536-2.12.889-4.3 1.661-6.347.539-1.426.856-3.145 2.055-4.087.36-.282.894-.42 1.337-.308.326.083.565.392.757.668.363.525.681 1.79.681 1.79s1.012-4.631 2.345-6.515c.353-.498.816-1.066 1.42-1.157.726-.11 1.474.36 2.043.825.181.148.266.386.387.586.408.675.649 1.045.827 1.814.226.978.17 3.268.17 3.268s.382-2.264 1.077-3.044c.527-.59 1.232-1.002 2.017-.903.435.056 1.426.942 1.404.997-.022.055.717 1.889.6 2.99-.252 2.395-1.083 5.244-1.324 7.905-.25 2.756.136 5.544-.12 8.3-.11 1.192-.28 2.381-.094 3.564.765 2.32 1.076 4.906 1.125 6.954.035 1.279-.364 2.608-.011 3.838.202.706.469 1.654 1.172 1.867.945.286 2.137-.403 2.702-1.212 1.062-1.521 2.555-2.63 3.276-4.275.443-1.011.292-2.194.567-3.264.296-1.153.387-2.472 1.16-3.378.771-.903 1.958-1.654 3.145-1.67.538-.008 1.167.256 1.445.716.438.724-.046 1.692-.06 2.538-.014.878.007 2.434-.025 2.634-.032.2-.051 2.686-.444 3.952-.309.998-.796 1.954-1.2 2.918-.466 1.111-.834 2.23-1.357 3.298-1.169 2.38-2.65 4.8-3.966 6.896-1.63 2.223-3.469 4.173-5.562 5.654-1.28.899-2.948 1.244-4.073 2.331-1.666 1.609-2.751 3.776-3.66 5.906-1.233 2.89-1.805 6.036-2.349 9.13-.27 1.537-.45 4.66-.45 4.66" transform="translate(-12.853 -12.116)"/><path style="fill:none;fill-opacity:.414955;stroke:#000002;stroke-width:.465;stroke-linecap:round;stroke-linejoin:round;stroke-dasharray:none;stroke-opacity:1" d="M31.266 17.985s-.634 2.362-.843 3.565c-.24 1.384-.269 2.798-.47 4.188-.299 2.06-.804 4.086-1.093 6.147-.19 1.356-.084 2.759-.421 4.086-.228.899-1.07 2.567-1.07 2.567m-4.928-2.483-.615 3.002m16.611-22.159s-.571 2.641-.841 3.965c-.357 1.75-.739 3.497-1.03 5.26-.3 1.822-.369 3.682-.735 5.493-.304 1.504-1.21 4.442-1.21 4.442m-13.534 5.894s-.155.496-.214.748c-.1.421-.345.857-.24 1.276.11.433.677.627.844 1.042 1.118 2.78.755 8.958.755 8.958m31.326-18.017c-.02.056-.554 1.166-.713 1.787-.195.758-.286 2.246-.286 2.331 0 .085.154.727.659.763.72.051 1.398-.042 1.992.14l1.235.377m-3.408 3.468c.474.544.86 1.136 1.5 1.308.365.097 1.111-.218 1.111-.218M18.42 35.162s.334-.653.642-.803c.303-.146 1.011-.006 1.011-.006m-.8-4.833 1.187-.079m-1.43-2.202s.503.248.773.309c.372.083.793.223 1.14.068.323-.144.658-.832.658-.832m5.069-7.311s.931-.534 1.449-.567c.367-.023.73.409 1.07.27.739-.298 1.026-1.269 1.257-2.03.084-.278.031-.87.031-.87m2.285-2.553s.136.587.453.7c.682.242 1.806.165 2.467-.129.456-.203.785-1.006.884-1.495.155-.77.325-1.53.325-1.53" transform="translate(-12.853 -12.116)"/><path style="fill:none;fill-opacity:1;stroke:#000002;stroke-width:.465;stroke-linecap:round;stroke-linejoin:round;stroke-dasharray:none;stroke-opacity:1" d="M38.937 16.505s.81.466 1.26.554c.52.102 1.158.264 1.59-.044.503-.359.531-1.129.653-1.734.106-.525.06-1.606.06-1.606M25.482 26.634s.559.298.838.223c.31-.083.684-.68.684-.68" transform="translate(-12.853 -12.116)"/><path style="fill:#785005;fill-opacity:1;stroke:#000002;stroke-width:.465;stroke-linecap:round;stroke-linejoin:round;stroke-dasharray:none;stroke-opacity:1" d="M30.979 24.513c.18 0 1.939-.553 1.939-.553" transform="translate(-12.853 -12.116)"/><path style="fill:none;fill-opacity:1;stroke:#000002;stroke-width:.465;stroke-linecap:round;stroke-linejoin:round;stroke-dasharray:none;stroke-opacity:1" d="M31.677 22.745s.681.094.983-.035c.225-.097.527-.516.527-.516" transform="translate(-12.853 -12.116)"/><path style="fill:#785005;fill-opacity:1;stroke:#000002;stroke-width:.465;stroke-linecap:round;stroke-linejoin:round;stroke-dasharray:none;stroke-opacity:1" d="m26.069 25.517 1.253-.371m10.633-1.245 1.741-.272m-7.406-7.132 1.432-.065m-6.699 4.119.79.032m26.374 23.939 1.256.278" transform="translate(-12.853 -12.116)"/><path style="fill:#ca004d;fill-opacity:1;stroke:#000002;stroke-width:.665;stroke-linecap:round;stroke-linejoin:round;stroke-dasharray:none;stroke-opacity:1" d="M43.786 71.172s1.865.733 1.997 1.463c.081.45-.214 1.048-.517 1.47-.508.707-2.059 1.607-2.059 1.607l-.748-2.071-3.884 7.569 7.998 3.225-1.581-3.575s.832-.741 1.317-1.18c.619-.56.953-.977 1.433-1.659.28-.396.685-1.282.685-1.282l-.392-5.484z" transform="translate(-12.853 -12.116)"/><path style="fill:#ff6177;fill-opacity:1;stroke:#000002;stroke-width:.665;stroke-linecap:round;stroke-linejoin:round;stroke-dasharray:none;stroke-opacity:1" d="m29.737 62.428-.021 6.478s4.596-.365 6.859-.034c2.12.31 4.229.918 6.148 1.87 1.542.763 3.164 1.635 4.185 3.019.713.965 1.212 2.265 1.153 3.408-.032.623-.95 1.674-.95 1.674s1.225-1.831 1.225-1.945c0-.114-.504-8.633-.504-8.633s-2.388-2.183-3.702-2.974c-1.615-.973-3.368-1.688-5.168-2.248-1.541-.48-3.066-.695-4.676-.81-1.514-.109-4.55.195-4.55.195z" transform="translate(-12.853 -12.116)"/><path style="fill:#ffc68a;fill-opacity:1;stroke:#000;stroke-width:.465;stroke-linecap:round;stroke-linejoin:round;stroke-dasharray:none;stroke-opacity:1" d="M81.58 87.26c.16-.87 3.542-8.73 3.59-8.849 1.625-5.762 3.378-12.023 1.527-17.467-.486-1.388-1.672-2.453-2.205-3.824-2.528-6.074-.309-9.567-1.925-15.366-.207-.76-.993-3.545-1.028-4.331-.075-1.692.29-2.88.56-4.551.155-.967.194-1.384.297-2.357.162-1.527-.225-3.374.27-4.95.192-.607.44-1.334 1.007-1.621.796-.403 1.873-.192 2.669.213 1.131.575 1.806 1.776 2.48 2.89.62 1.027.885 2.265 1.002 3.46.166 1.7.225 2.414-.16 4.079-.07.3-.727 2.006-.727 2.175 0 .17.872 1.9 1.65 3.899.198.507 1.368 3.346 1.368 3.346s.895-2.336 1.289-3.522c.377-1.137.59-2.327 1.028-3.442.57-1.453 1.461-2.763 2.065-4.202 1.274-3.039 1.931-6.318 3.27-9.33.53-1.194 1.137-2.364 1.876-3.441.929-1.352 2.15-2.479 3.185-3.75 1.108-1.36 1.952-2.956 3.24-4.146.432-.398.89-.887 1.472-.971.532-.077 1.18.073 1.54.472.387.43.372 1.124.335 1.7-.095 1.472-.697 2.902-1.402 4.197-.29.53-1.133 1.285-1.133 1.416 0 .132-1.83 3.795-1.83 3.795l-2 3.013-.067 4.771s.996-3.42 1.731-5.036a18.09 18.09 0 0 1 1.64-2.842c1.296-1.857 4.196-5.165 4.35-5.216.154-.052 1.706-2.851 2.912-3.96.327-.3.693-.665 1.136-.697.513-.038 1.111.194 1.418.606.565.758.674 1.636.587 2.577-.097 1.057-.7 2.347-1.197 3.285-.483.909-1.935 2.405-1.935 2.405l-3.463 6.185-.722 2.867-.342 2.588s1.323-1.832 2.067-2.68c2.555-2.915 5.078-5.947 8.2-8.245.496-.366 1.04-1.005 1.64-.857.678.167.99 1.056 1.194 1.725.195.642.167 1.372-.03 2.014-.34 1.102-1.102 2.06-1.901 2.892-.524.544-1.842 1.32-1.842 1.32l-2.163 3.59-2.45 2.45s-.571 2.921-1.07 4.318c-.39 1.094-1.493 3.15-1.493 3.15l.473.119s1.858-2.95 2.913-4.335c.69-.906 2.227-2.59 2.227-2.59s2.16-1.936 3.334-2.784c.72-.521 1.383-1.526 2.265-1.409.488.065.87.607 1.008 1.08.265.911-.076 1.961-.524 2.798-.43.804-1.958 1.91-1.958 1.91s-.712 1.244-1.173 1.787c-.446.523-1.52 1.395-1.52 1.395s-1.006 4.13-1.92 6.03c-.3.624-1.152 1.727-1.152 1.727s-.265 3.406-.672 5.057c-.294 1.193-.966 2.27-1.27 3.46-1.064 4.168-.099 8.862-1.907 12.766-.834 1.803-2.739 2.891-3.925 4.485-.82 1.102-1.722 2.2-2.192 3.49-1.683 4.618-1.931 13.023-1.931 13.023" transform="translate(-12.853 -12.116)"/><path style="fill:#e5ce31;fill-opacity:.310345;stroke:#000;stroke-width:.465;stroke-linecap:round;stroke-linejoin:round;stroke-dasharray:none;stroke-opacity:1" d="m104.729 30.515-.826 4.985m7.053-2.21-1.53 3.66m10.675-7.533-.552-.611m-9.303-2.465 1.04.976m2.826 6.715 1.039.976m3.705 5.012 1.04.976m-6.317-20.751 1.093.988m-7.489-3.953 1.135.794m-5.729 6.072 1.865 1.193m-1.938.244 1.404.693" transform="translate(-12.853 -12.116)"/><path style="fill:none;fill-opacity:.310345;stroke:#000;stroke-width:.465;stroke-linecap:round;stroke-linejoin:round;stroke-dasharray:none;stroke-opacity:1" d="M91.963 44.006s.263 2.115.737 3.095c.368.76 1.503 2.037 1.503 2.037m5.733-5.031s1.881 1.33 2.672 2.159c1.387 1.454 3.566 4.863 3.566 4.863m.374 27.011s-1.62-.366-2.4-.646c-.855-.307-2.48-1.129-2.48-1.129M82.466 30.81s.933-1.06 1.498-1.477c.302-.222.991-.531.991-.531s.34-2.58-.093-3.753c-.177-.476-.962-1.18-.962-1.18m29.17 19.152 2.138 1.926m-5.74-8.124s-.678 1.26-.349 1.759c.408.619 1.676 1.47 1.676 1.47m6.188 9.051-.596-1.649m-1.205 9.478-2.303-1.698" transform="translate(-12.853 -12.116)"/><path style="fill:#ca004d;fill-opacity:1;stroke:#000;stroke-width:.665;stroke-linecap:round;stroke-linejoin:round;stroke-dasharray:none;stroke-opacity:1" d="M116.98 67.786s3.826.622 4.386 2.151c.442 1.206-.763 2.51-1.542 3.53-.971 1.272-2.36 2.202-3.74 3.014-.824.485-2.659 1.08-2.659 1.08l-1.606 8.76s4.012-2.175 5.785-3.593c1.664-1.33 3.262-2.811 4.483-4.557.644-.92 1.427-2.739 1.427-2.739l-.115-7.886z" transform="translate(-12.853 -12.116)"/><path style="fill:#ff6177;fill-opacity:1;stroke:#000;stroke-width:.665;stroke-linecap:round;stroke-linejoin:round;stroke-dasharray:none;stroke-opacity:1" d="m102.381 62.576 9.892-6.692-.346 3.187s3.334.743 4.854 1.488c1.715.84 3.403 1.882 4.683 3.299.984 1.089 2.159 3.838 2.159 3.838l-.16 7.782s-.735-2.465-1.453-3.506c-.935-1.357-2.219-2.486-3.595-3.393-1.13-.745-2.425-1.24-3.727-1.614-1.219-.35-3.76-.567-3.76-.567l-.376 3.456z" transform="translate(-12.853 -12.116)"/><path style="fill:none;fill-opacity:1;stroke:#000;stroke-width:.428548;stroke-linecap:round;stroke-linejoin:round;stroke-dasharray:none;stroke-opacity:1" d="M100.898 45.97s1.273 2.05 1.553 3.163c.277 1.102-.028 2.255.1 3.376.103.915.542 2.72.542 2.72" transform="translate(-12.853 -12.116)"/><path style="fill:none;fill-opacity:1;stroke:#000;stroke-width:.465;stroke-linecap:round;stroke-linejoin:round;stroke-dasharray:none;stroke-opacity:1" d="m17.067 69.073 1.616-1.213" transform="translate(-12.853 -12.116)"/></svg>