<svg height="38.003" viewBox="-2 -2 209.422 28.502" width="279.229" xmlns="http://www.w3.org/2000/svg"><path d="M140.194 21.62v-6.805h-2.723v1.363s-2.666-1.133-4.082-1.363c-.783-.127-1.604-.168-2.38 0-1.339.29-3 .55-3.741 1.703-.614.954-.614 2.449 0 3.402.742 1.152 2.403 1.41 3.742 1.7.775.168 1.597.127 2.38 0 1.415-.23 4.08-1.36 4.08-1.36v1.36z" fill="none" stroke="#000" stroke-miterlimit="10" stroke-width=".718" style="fill:#f9eabe;fill-opacity:1;stroke-width:.71775;stroke-dasharray:none"/><path d="M142.917 21.112h-2.723v-5.786h2.723zm0 0"/><path d="M153.12 21.62h-10.203v-6.805h10.203zm0 0" fill="none" stroke="#000" stroke-miterlimit="10" stroke-width=".718" style="fill:#f9eabe;fill-opacity:1;stroke-width:.71775;stroke-dasharray:none"/><path d="M155.842 21.112h-2.722v-5.786h2.722zm0 0"/><path d="M177.952 25.022h-5.102V21.62h-17.008v-6.804h17.008v-3.399h5.102zm0 0" fill="none" stroke-width=".718" style="fill:#f9eabe;fill-opacity:1;stroke:#000;stroke-width:.71775;stroke-miterlimit:10;stroke-dasharray:none"/><path d="M181.354 25.022h-3.402V11.416h3.402zm0 0" stroke-width=".718" style="stroke:#000;stroke-miterlimit:10"/><path d="M181.354 18.217h25.568" fill="none" stroke-width="1.435" style="stroke:#000;stroke-width:5.3865;stroke-miterlimit:10;stroke-dasharray:none"/><text xml:space="preserve" style="font-size:16px;font-family:sans-serif;-inkscape-font-specification:sans-serif;text-align:center;text-anchor:middle;fill:#f9eabe;fill-opacity:1;stroke:#000;stroke-width:.71775;stroke-linecap:round;stroke-linejoin:round;stroke-dasharray:none;stroke-opacity:1" x="148.212" y="11.626"><tspan style="fill:#000;fill-opacity:1;stroke:none;stroke-width:.71775" x="148.212" y="11.626">T R S</tspan></text><path d="M12.757 22.24v-6.803h-2.723V16.8s-2.666-1.133-4.082-1.363c-.782-.128-1.604-.168-2.379 0-1.339.29-3 .55-3.742 1.703-.613.953-.614 2.448 0 3.402.742 1.151 2.403 1.41 3.742 1.7.776.168 1.597.127 2.38 0 1.416-.23 4.081-1.36 4.081-1.36v1.36z" fill="none" stroke="#000" stroke-miterlimit="10" stroke-width=".718" style="fill:#f9eabe;fill-opacity:1;stroke-width:.71775;stroke-dasharray:none"/><path d="M35.588 21.734h-22.83v-5.786h22.83zm0 0" style="stroke-width:2.89557"/><path d="M22.926 22.29h-7.495v-6.902h7.495zm0 0" fill="none" stroke="#000" stroke-miterlimit="10" stroke-width=".718" style="fill:#f9eabe;fill-opacity:1;stroke-width:.619595;stroke-dasharray:none"/><path d="M33.328 22.255h-7.674V15.36h7.674zm0 0" fill="none" stroke="#000" stroke-miterlimit="10" stroke-width=".718" style="fill:#f9eabe;fill-opacity:1;stroke-width:.626597;stroke-dasharray:none"/><path d="M50.515 25.644h-5.102V22.24h-9.508v-6.804h9.508v-3.4h5.102z" fill="none" stroke-width=".718" style="fill:#f9eabe;fill-opacity:1;stroke:#000;stroke-width:.71775;stroke-miterlimit:10;stroke-dasharray:none"/><path d="M53.917 25.644h-3.402V12.038h3.402zm0 0" stroke-width=".718" style="stroke:#000;stroke-miterlimit:10"/><path d="M53.917 18.839h25.568" fill="none" stroke-width="1.435" style="stroke:#000;stroke-width:5.3865;stroke-miterlimit:10;stroke-dasharray:none"/><text xml:space="preserve" style="font-size:16px;font-family:sans-serif;-inkscape-font-specification:sans-serif;text-align:center;letter-spacing:-1.56px;text-anchor:middle;white-space:pre;inline-size:70.3275;display:inline;fill:#f9eabe;fill-opacity:1;stroke:#000;stroke-width:.71775;stroke-linecap:round;stroke-linejoin:round;stroke-dasharray:none;stroke-opacity:1" x="33.006" y="21.149" transform="translate(-7.58 -10.274)"><tspan x="33.006" y="21.149"><tspan style="fill:#000;stroke:none">T R R S</tspan></tspan></text></svg>