<svg height="314.757" viewBox="-1 -1 141.318 83.28" width="534.113" xmlns="http://www.w3.org/2000/svg"><g stroke-linecap="round" stroke-width=".5" style="stroke:#000"><path d="M37.172 81.707c.557-4.823 1.346-12.29 3.232-15.395 1.887-3.104 1.84-3.563 2.39-5.478.338-1.175.542-3.628.542-3.628s6.84-6.37 7.79-9.863c.95-3.49 2.564-17.744 2.52-19.986-.063-3.39-.988-4.732-2.88-4.828-2.56-.13-4.187 2.658-4.48 4.312-.291 1.654-.07 5.87-.07 5.87s-1.316 2.783-1.904 4.503c-.588 1.72-1.29 5.763-1.29 5.763s.5-2.74.29-4.42c-.212-1.68-2.743-7.21-3.608-9.892-.866-2.68-4.094-13.745-7.763-19.817-1.185-1.96-2.707-4.955-4.5-5.196-1.794-.242-3.158 1.067-3.007 2.45.152 1.384 5.244 11.516 5.292 12.67.05 1.156 1.478 5.706 1.646 7.27.168 1.564-.37 4.883-.37 4.883s-3.13-9.008-3.696-9.908c-.568-.9-6.954-14.858-7.427-15.767-.474-.91-3.275-4.026-5.69-2.58-2.393 1.432-1.946 3.185-1.578 4.763.287 1.228 6.042 13.275 6.45 14.405.41 1.13 2.423 5.228 2.633 6.958.21 1.73.4 5.038.4 5.038s-9.708-19.97-10.267-20.96C10.732 10.932 8.33 9.046 7.163 9.56c-1.168.514-2.756 2.025-1.764 5.473 1.048 3.637 6.853 14.334 7.09 15.25.237.916 1.68 7.055 1.598 7.998-.082.943-.468-1.94-.468-1.94S9.97 34.052 9.32 33.269c-.65-.783-2.53-7.105-3.32-8.182-.788-1.077-2.048-3.224-4.08-2.945C.74 22.304.036 23.626.308 25.75c.283 2.208 2.156 7.356 3.05 9.752.854 2.295 2.864 5.768 5.092 7.24 2.227 1.47 3.544 1.96 4.634 3.645 1.09 1.684 2.264 6.187 3.882 9.04.895 1.575 3.078 3.443 3.188 4.4.11.958-.664 3.825-.664 3.825s-1.473.29-1.81 2.385c-.38 2.37.547 3.008.067 4.762-.486 1.776-1.84 6.464-3.026 10.821" fill="#ffc68a" fill-opacity=".999" stroke-linejoin="round"/><path d="M48.176 23.457c.347 2.476.155 3.35.6 4.007.446.658.416.49 1.44.488 1.024-.002 2.418.51 2.418.51m-2.574 4.244a3.918 3.918 0 0 0 1.368.447m-20.075-12.39c.068.022 1.882-.765 1.882-.765M24.618 4.985c.595 1.758 1.37 4.27 2.014 4.51.646.24 3.105-.83 3.105-.83M12.66 4.248c1.32 2.99 1.074 3.552 1.828 3.908.754.356 3.124-.232 3.99-.91M5.298 11.89c.627 1.832.786 2.765 1.26 3.017.477.252 1.326.203 2.335-.3 1.01-.5 1.08-.646 1.08-.646M21.897 23a4.506 4.506 0 0 0 1.714-.616l-.037.037m-10.106 2.83c.343-.23 1.042-.496 1.042-.496m-1.133 2.07c.35-.575.77-.196 1.147-.567l.377-.37M.524 23.569c.27 1.26.254 2.546 1.05 3.433.49.545 1.143.382 1.715.29.36-.06.965-.514.965-.514m2.91 10.645a24.07 24.07 0 0 1 1.565-1.73m-.533 2.557.815-.476m8.508 2.386c.605.554.71.688 1.166.675l.457-.013m6.593-4.373c.84.46 1.467.184 1.467.184" fill="none"/></g><path d="m29.35 46.377-1.278 5.092s-3.958-1.228-6-1.256c-2.798-.04-5.64.507-8.26 1.488-1.008.377-2.772 1.655-2.772 1.655l1.873 2.548-6.776-.593 1.813-6.898 1.277 2.098s2.414-1.61 3.75-2.15c2.887-1.17 5.96-1.99 9.06-2.308 2.426-.25 7.313.324 7.313.324z" fill="#ff6177" stroke-width=".7" style="stroke:#000"/><path d="M17.7 13.81c.972-.564 2.167-.584 2.167-.584M19.49 63.65c.954-.564 1.992-.91 1.992-.91" fill="none" stroke-linecap="round" stroke-width=".5" style="stroke:#000"/><g stroke-width=".5" style="stroke:#0c0000;stroke-linecap:round"><path d="M80.221 81.527c.81-6.314.583-3.534.53-6.354-.053-2.82-.246-5.28-.639-6.64-.392-1.36-.518-3.108.386-4.422.904-1.314.972-1.41.972-1.41s-.17-3.865.858-6.44c1.03-2.573 3.45-6.044 3.657-8.15.206-2.106 1.25-7.92 2.096-10.42.845-2.5 8.592-27.493 8.955-28.416.363-.923.957-2.912 4.035-2.96 1.03-.015 1.52 1.769 1.53 2.834.01 1.065-1.663 9.193-2.526 11.979-.863 2.786-1.299 4.067-2.328 5.442-1.03 1.375-2.456 2.166-2.456 2.166s5.06-3.377 5.658-4.476c.597-1.1 3.223-4.903 3.986-6.686.763-1.782 6.19-13.2 6.885-14.13.695-.93 1.999-3.792 4.749-3.086 1.966.506 2.327 2.518 2.043 3.396-.284.877-10.1 20.492-10.1 20.492l-3.42 4.007s10.07-12.062 12.256-14.51c2.185-2.447 6.61-8.95 9.503-10.358.946-.46 2.822-.697 3.648.621.497.821.671 2.249-.361 3.75-.905 1.317-4.797 5.228-6.783 7.44-1.987 2.214-6.994 11.364-7.886 12.426-.892 1.062-2.178 2.8-2.178 2.8l-2.057 1.18s7.655-4.033 8.387-4.662c.732-.63 3.864-4.133 4.412-4.654.548-.521 6.01-5.002 6.672-5.83.662-.826 2.695-2.864 3.97-2.864 1.276 0 2.214.67 2.671 1.58.458.91.654 2.323-.62 3.46-1.274 1.135-8.462 8.67-9.87 10.326-1.408 1.654-7.29 7.685-8.259 9.862-.223.502-1.578 4.645-.674 6.44.94 1.865 1.766 2.83 3.522 1.868 1.756-.964 5.323-1.812 5.98-2.457.66-.646 4.155-4.794 7.042-5.16 1.593-.2 3.466.54 4.473 1.79.468.58 1.33 1.532.37 2.205-1.775 1.242-2.874 2.852-4.07 3.14-1.197.288-3.654 2.527-4.894 3.98-1.24 1.45-7.438 6.853-8.875 7.875-1.437 1.02-4.15 3.914-5.578 4.687-2.974 1.612-5.536 1.38-7.56 3.05-1.444 1.19-1.987 3.516-2.476 4.943-.488 1.426-1.67 7.23-1.484 10.432" fill="#ffc68a" fill-opacity=".999" stroke-linejoin="round"/><path d="M98.458 8.425c-.446 1.012-.82 2.12-.539 2.56.28.44 3.322.423 3.322.423m11.971-9.005s-.507.984-.5 1.816c.01.832.707.945 1.452 1.14.744.194 2.462.308 2.462.308m10.903 2.728c-.842.084-1.614-.308-2.165-.85-1.583-1.554-.412-2.737-.412-2.737m5.842 11.695c.16.692.564 1.33 2.023 1.9 1.46.568 1.904.698 2.45.28M134.15 41.13s-.443.153-.96.772c-.517.62-.75.602.143 1.523.895.92.832 2.14 1.68 2.145.848.005 2.906-1.072 2.906-1.072m-41.745-24.19c.076 0 1.67.218 1.67.218m23.466-9.644c.8.752.91.532.91.532m.133 15.39c.792.62 1.845.667 1.845.667m-11.404 10.416c.328 1.357.254 1.406.822 1.578.739.224 2.03-1.114 2.03-1.114m-10.415.68 1.034-.6m.543-21.126 1.295.794m6.48 2.59 1.46.417m-.979-1.245s.7-.592 1.212-.2c.513.39.707.757.707.757" fill="none"/></g><path d="m106.461 51.25.918 3.884s6.564-.928 9.808-.495c3.026.405 6.08 1.29 8.705 2.847.896.532 2.276 2.142 2.276 2.142l-1.582 1.762 8.264 1.096-2.945-8.013-1.777 2.1s-3.145-2.56-4.974-3.38c-3.129-1.405-6.573-2.093-9.977-2.508-1.826-.223-3.686-.14-5.518.018-1.078.093-3.198.547-3.198.547z" fill="#ff6177" stroke-width=".7" style="stroke:#0c0000;stroke-linecap:round"/></svg>