<svg height="399.151" viewBox="0 0 241.327 105.609" width="912.103" xmlns="http://www.w3.org/2000/svg"><g stroke-linecap="round" stroke-width=".5"><path d="M23.292 100.359s5.059-4.777 7.788-6.927c7.148-5.634 20.004-14.33 22.411-15.595 2.407-1.264 8.373-4.335 10.19-4.506 1.818-.171 5.073-.014 7.844-.54 2.77-.527 8.928-3.419 10.971-3.785 2.043-.366 6.33-2.461 7.638-3.348 1.308-.886 6.819-3.234 8.997-5.067 2.178-1.832 6.326-5.231 6.643-5.988.317-.758.594-3.3.12-3.97-.475-.67-2.137-2.098-3.91-1.2-1.773.898-5.56 3.639-7.195 4.145-4.163 1.288-4.185 1.238-7.164 2.59-2.039.925-3.291.857-3.82.382-.528-.474-.397-1.472-.353-2.22.04-.68.305-1.334.558-1.966.849-2.126 2.223-4.084 3.192-6.08.97-1.997.539-2.884 1.209-4.164 1.35-2.58 4.465-5.974 5.504-6.783 1.039-.809 1.932-2.528 3.082-3.617 1.494-1.415 3.477-2.891 4.907-3.742.457-.237 3.785-1.482 4.69-1.712.906-.23 2.096-1.454 2.237-1.818.142-.364-.004-.753-.086-1.509-.082-.756-.15-.613.3-.862.449-.248.098-1.243-.111-1.582-.209-.338-.636-.852-1.684-.995-1.049-.142-.643-.199-3.48.718-2.838.917-4.554 1.82-6.78 2.845-1.09.5-2.059.75-3.215 1.613-1.157.862-2.313 2.024-6.722 5.804-4.41 3.78-4.544 4.75-6.687 6.933 4.253-4.373 6.874-7.311 8.749-11.116 1.874-3.805 2.586-5.19 4.61-7.576 2.026-2.387 6.62-6.027 7.06-6.871.44-.844.575-3.852-.466-4.659s-2.454-1.619-4.396-.483c-1.941 1.135-5.808 4.671-8.474 8.34-2.667 3.668-13.695 19.871-13.695 19.871 2.518-3.394 6.01-8.763 6.356-10.28.347-1.518 2.09-5.95 3.165-8.085 1.075-2.137 2.884-5.696 2.572-6.797-.311-1.1-.312-2.936-1.237-3.586-.926-.65-1.614-1.17-2.292-.804-2.133 1.22-3.826 3.132-4.216 3.716-.86 1.34-8.107 17.05-8.107 17.05l-3.517 7.938s2.896-5.885 3.517-7.937c.59-1.952 1.867-6.886 1.955-9.167.087-2.281-1.143-4.513-2.053-4.916-.91-.402-2.745.834-4.055 4.514-1.222 3.432-1.216 4.402-1.906 7.008-.613 2.316-.745 4.12-1.424 5.73-.678 1.61-2.592 8.06-4.572 12.378s-3.187 9.96-4.538 11.973c-1.351 2.013-2.472.882-4.748 1.835-2.276.953-2.421 2.935-4.733 4.655C41.61 61.864 5.25 74.436 5.25 74.436" fill="#ffc68a" stroke="#080000" stroke-linejoin="round"/><path d="M67.289 14.963c-.494 1.565-.576 3.196.171 3.466s2.43.1 2.43.1M80.824 6.344s-1.068 1.926-1.105 2.55c-.038.625-.217 1.079.885 1.344 1.103.265 1.114.24 1.114.24m3.141-4.026c.29 1.261.343 1.43.013 2.294-.33.864-1.024 2.024-1.024 2.024m-5.188 1.97c.759.827 1.7 1.117 1.7 1.117m-5.017 6.49c.593.65 1.134.83 1.79 1.122l.656.292m-3.453-.035c.882.651 1.19.893 1.8 1.012l.61.12m-11.939 3.717c.468.395.678.553 1.28.574l.604.022m19.073-5.689c.554.117.984-.417 1.287.846m-2.303.295c.63.12 1.167.06 1.456.493l.289.433m4.012-9.213c.285.32.289.436.639.436h.35m1.905-5.955c.43.983 1.076 1.78 1.88 1.993.804.212 2.536-.27 2.536-.27m1.948-.635c1.015-.47 1.299-1.074 1.299-1.074m2.098 48.404c-.786-.014-2.56-2.024-2.666-3.38-.107-1.356 2.678-2.96 2.678-2.96m-.237-29.009c.475.665.698 1.093 1.423 1.212 2.177.358 4.665-.989 4.665-.989m-8.231 1.741l.876.921m-9.463 3.869c.294.477.206.597.837.604l.63.006" fill="none" stroke="#030000"/></g><g stroke="#000"><path d="M69.077 61.2c.107.156 5.632.065 5.632.065s-.163-5.844-.876-8.656c-.913-3.603-2.642-7.613-4.3-10.289-1.658-2.675-3.675-4.567-5.76-6.617-1.143-1.124-3.68-3.097-3.68-3.097l1.37-4.114-9.115 2.975 4.153 8.615 1.536-2.913s2.997 2.224 4.223 3.613c1.96 2.218 3.709 4.697 4.894 7.409 1.13 2.584 2.034 7.084 2.015 8.216-.018 1.132-.092 4.792-.092 4.792z" fill="#ff6177" stroke-width=".7"/><g stroke-width=".5"><path d="M62.449 68.442c.055-1.109.163-1.945 1.128-2.278.964-.332 2.03.214 3.61.053 1.579-.16 1.557-.16 1.557-.16m15.305-13.799c-.854 2.142-1.387 2.625-2.246 3.66-.86 1.033-2.29 2.098-2.29 2.098" fill="none" stroke-linecap="round"/><path d="M139.122 73.87c7.165-3.645 24.053-12.534 28.421-15.553 4.37-3.02 4.43-4.396 6.856-5.735s3.579-1.176 6.916-1.206c3.337-.03 12.121 1.13 16.273 2.52s19.662 5.904 22.144 7.383c2.482 1.479 6.27 5.848 6.85 7.337s.669 6.168.669 6.168 3.691 1.212 4.587 1.753c.896.541 3.033 1.039 3.809 2.303.507.826.541 1.986.215 2.898-.321.897-1.17 1.555-1.972 2.07-1.25.8-3.122 1.456-4.212 1.447-1.09-.009-3.156-.39-3.156-.39s-.054 4.706-.882 6.178c-.829 1.472-1.862 2.286-3.119 2.192-1.256-.094-3.779-1.894-3.953-4.667-.175-2.772.842-5.761.842-5.761s-1.023-.527-2.5-.393-3.378-.475-3.378-.475.685 4.526.958 6.228c.272 1.703 1.797 6.54.255 7.66-1.541 1.12-3.477.525-4.582-.657-1.106-1.183-1.204-7.04-1.532-7.741-.328-.7-1.46-3.273-1.423-4.69.038-1.415-.077-1.593-.077-1.593l-2.484-.782s.86 3.786 1.101 5.408c.24 1.623 1.183 4.816.166 5.34s-3.386.3-4.12-1.129c-.732-1.427-1.814-4.605-2.042-7.415-.229-2.81-.22-5.014-.22-5.014l-1.374-.702s.797 3.314.238 4.135-1.954 2.156-3.048 1.646c-1.095-.51-1.195-1.676-1.39-3.377s-1.483-6.518-1.483-6.518-.762.041-1.253-.403c-.49-.443-1.1-1.378-2.316-.967s-8.272 4.633-10.764 6.626-20 21.193-20 21.193" fill="#ffc68a"/></g><path d="M198.029 44.616l4.367-3.58s5.997 7.071 5.338 13.843c-.66 6.772-3.416 13.859-3.416 13.859l3.052 1.43-7.634 4.888-2.39-10.398 3.307 2.222s2.546-7.62 2.59-10.288c.045-2.667-.618-5.489-1.822-7.913-.785-1.58-3.392-4.063-3.392-4.063z" fill="#ff6177" stroke-width=".7"/><path d="M189.762 71.37c2.59-.797 2.94-.818 3.594-1.358.654-.54 1.512-2.008 1.512-2.008m1.364 3.404s-2.001.788-3.757 1.33c2.516 2.228 5.683 4.114 5.683 4.114l1.996.916 4.493 2.596 2.484.782s2.611.547 3.643.568c1.031.02 2.758.225 2.758.225m5.878.868l7.112 2.058m-42.806-19.198l1.947-2.677m50.047 16.22c-1.793-1.17-4.842-2.434-5.26-2.193-.418.242.123 1.006-.624 2.316-.81 1.42-1.253 2.144-.723 2.668s2.118 1.407 3.108 1.58c.99.175 1.75.138 1.75.138m-24.009-15.165c5.201 3.365 7.871 5.204 9.648 5.824s7.65.406 7.65.406m-13.758-3.967c2.311-1.332 3.553-4.962 3.553-4.962m.972 7.798c2.166-.299 4.268-1.14 4.268-1.14m-.215 4.474c.239.399.258.52.032.885l-.226.365m-12.49 8.655c.49.458 2.102.246 2.102.246m-10.9-4.712c.735.092 1.585-.036 1.853.08.268.117.496.308.496.308" fill="none" stroke-linecap="round" stroke-width=".5"/></g></svg>