<svg height="209.763" viewBox="0 0 219.685 157.322" width="292.913" xmlns="http://www.w3.org/2000/svg" xmlns:xlink="http://www.w3.org/1999/xlink"><clipPath id="a"><path d="M198 63h21.684v23H198zm0 0"/></clipPath><clipPath id="b"><path d="M28 136h22v21.32H28zm0 0"/></clipPath><clipPath id="o"><path d="M56 136h22v21.32H56zm0 0"/></clipPath><clipPath id="q"><path d="M85 136h22v21.32H85zm0 0"/></clipPath><clipPath id="s"><path d="M113 136h22v21.32h-22zm0 0"/></clipPath><clipPath id="u"><path d="M141 136h22v21.32h-22zm0 0"/></clipPath><clipPath id="v"><path d="M0 0h219.684v157.32H0zm0 0"/></clipPath><symbol id="c" overflow="visible"><path d="M2.984-8.406c-.75 0-1.343.61-1.343 1.36 0 .765.593 1.359 1.343 1.359.735 0 1.344-.594 1.344-1.36 0-.75-.61-1.36-1.344-1.36zm0 5.812c-.75 0-1.343.594-1.343 1.375 0 .75.609 1.36 1.343 1.36s1.344-.61 1.344-1.36c0-.781-.61-1.375-1.344-1.375zm0 0"/></symbol><symbol id="d" overflow="visible"><path d="M1.453-7.125v5c0 .89.016 1.438.61 1.828.406.281.859.39 1.437.39.703 0 1.594-.187 2.625-.562v-.828a4.162 4.162 0 01-1.11.125c-1.14 0-1.437-.453-1.437-1.672v-4.281h2.547v-1.031H3.578v-2.14H2.5L1.594-8.5l-1.266.719v.656zm0 0"/></symbol><symbol id="e" overflow="visible"><path d="M2.828-12.719l-2.547.797v.672h1.25v10.14l-.234.266-.89.063V0h4.265v-.781l-.766-.063-.25-.265v-5.672c.656-.188 1.203-.297 1.64-.297 1.079 0 1.563.594 1.563 1.86v4.109l-.25.265-.734.063V0h4.219v-.781l-.922-.063-.219-.265v-4.61c0-1.906-.781-2.86-2.36-2.86-.78 0-1.702.376-2.937 1.048v-5.188zm0 0"/></symbol><symbol id="f" overflow="visible"><path d="M2.797-12.469c-.719 0-1.25.547-1.25 1.297s.578 1.266 1.266 1.266c.718 0 1.265-.531 1.265-1.297 0-.719-.516-1.266-1.281-1.266zm.187 3.922l-2.437.813v.687h1.14v5.938l-.234.265-.937.063V0H5.03v-.781l-.968-.063-.25-.265v-7.438zm0 0"/></symbol><symbol id="g" overflow="visible"><path d="M8.453-2.14c-1 .64-1.922.953-2.844.953-1.703 0-2.765-1.172-2.765-3.157v-.047h5.625v-.328c0-2.484-1.328-3.89-3.578-3.89C2.406-8.61.64-6.797.64-4.172.64-1.562 2.328.156 4.89.156c1.203 0 2.406-.344 3.562-1.015zM6.22-5.298H2.922c.062-1.5.765-2.36 1.797-2.36.953 0 1.5.735 1.5 2.157zm0 0"/></symbol><symbol id="h" overflow="visible"><path d="M.5 0h4.75v-.781L4.031-.844l-.265-.265v-4.938c.546-.328.953-.484 1.234-.484.5 0 .86.187 1.11.625h.906l.218-2.375c-.375-.188-.765-.297-1.14-.297-.125 0-.25.015-.375.031-.703.5-1.39 1.094-2.016 1.766l.063-1.766h-.829l-2.53.813v.687h1.25v5.938l-.25.265L.5-.78zm0 0"/></symbol><symbol id="i" overflow="visible"><path d="M.531 0h4.657v-.797L4.03-.875l-.281-.266v-5.984h2.313v-1.031H3.75v-1.172c0-1.281.234-2.156.672-2.625l1.672 1.484c.656-.219 1-.61 1-1.062 0-.75-.625-1.266-1.625-1.266-.703 0-1.438.25-2.078.719-1.188.89-1.75 2.125-1.75 3.781L.516-7.78v.656H1.64v5.969l-.25.281-.86.078zm0 0"/></symbol><symbol id="j" overflow="visible"><path d="M.39 0h4.626v-.75l-1-.11-.266-.28v-11.58H3l-2.61.828v.657h1.25V-1.11l-.25.25-1 .109zm0 0"/></symbol><symbol id="k" overflow="visible"><path d="M.531 0h4.25v-.781l-.75-.063-.25-.265v-5.672c.656-.188 1.219-.297 1.64-.297 1.095 0 1.548.594 1.548 1.86v4.109l-.235.265-.75.063V0h4.22v-.781l-.907-.063-.219-.265v-4.61c0-1.906-.765-2.86-2.344-2.86-.765 0-1.718.376-2.953 1.048v-1.016H2.97l-2.485.813v.687h1.172v5.938l-.25.265-.875.063zm0 0"/></symbol><symbol id="l" overflow="visible"><path d="M7.016-8.063c-.844-.343-1.641-.5-2.391-.5-2.281 0-3.672 1.204-3.672 2.97 0 1.234.735 2.187 2.125 2.577-.64.579-.937 1.063-.937 1.641 0 .234.062.531.218.86C1.25-.407.58.312.58 1.374c0 1.422 1.296 2.36 3.577 2.36 2.766 0 4.625-1.422 4.625-3.047 0-1.47-1.281-1.985-3.765-2.344l-1.172-.157c-.031-.171-.063-.328-.063-.453 0-.218.063-.421.14-.64.173.015.345.015.5.015 2.282 0 3.657-1.203 3.657-2.859 0-.453-.125-.875-.375-1.328h1.86v-.984zm-2.422.313c.765 0 1.36.734 1.36 1.984 0 1.313-.579 2.094-1.391 2.094-.829 0-1.407-.765-1.407-2.078 0-1.266.578-2 1.438-2zM3.406-.328l1.469.234c1.219.219 1.86.453 1.86 1.297 0 .875-.813 1.625-2.048 1.625-1.156 0-2-.797-2-1.719 0-.562.235-1.046.72-1.437zm0 0"/></symbol><symbol id="m" overflow="visible"><path d="M-.016-8.39v.796l1.032.11L3.234 0h1.72l2.062-6.188L8.922 0h1.734L13-7.469l.969-.125v-.797h-3.266v.797l.922.11.125.234-1.516 4.984-1.89-6.125H6.625L4.609-2.266 3.22-7.234l.187-.235.844-.125v-.797zm0 0"/></symbol><symbol id="n" overflow="visible"><path d="M6.703-11.234v2.796a8.222 8.222 0 00-1.625-.171C2.468-8.61.641-6.766.641-4 .64-1.516 2.047.156 3.984.156c.875 0 1.735-.39 2.72-1.125V0h3.218v-.75l-.875-.078-.25-.281v-11.61H8l-2.563.797v.688zm0 9.593c-.562.22-1.031.329-1.453.329-1.422 0-2.313-1.11-2.313-3.047 0-2.047 1.016-3.282 2.485-3.282.36 0 .781.079 1.281.25zm0 0"/></symbol><symbol id="p" overflow="visible"><path d="M5.094-8.594C2.39-8.594.64-6.828.64-4.188.64-1.578 2.375.141 4.953.141c2.719 0 4.469-1.735 4.469-4.297 0-2.735-1.688-4.438-4.328-4.438zm-.063.922c1.219 0 2.016 1.219 2.016 3.469 0 2.234-.766 3.422-2.031 3.422C3.812-.781 3.03-2 3.03-4.25c0-2.219.781-3.422 2-3.422zm0 0"/></symbol><symbol id="r" overflow="visible"><path d="M2.828-8.594l-2.437.828v.672h1.125v4.297c0 1.985.75 2.953 2.359 2.953.906 0 1.813-.39 2.89-1.11V0h3.25v-.781l-.89-.063-.234-.265v-7.485h-.797l-2.453.828v.672h1.125v5.5c-.563.172-1.047.266-1.485.266-1.187 0-1.625-.578-1.625-1.922v-5.344zm0 0"/></symbol><symbol id="t" overflow="visible"><path d="M.39 3.766H5l.016-.782-1.094-.078-.25-.234V-.094c.562.078 1.031.11 1.406.11 2.797 0 4.563-1.797 4.563-4.547 0-2.407-1.422-4.063-3.25-4.063-.844 0-1.704.375-2.72 1.094v-1.047h-.78l-2.516.813v.687h1.188v9.688l-.235.25-.937.093zm3.282-4.797v-5.75c.515-.203.953-.328 1.36-.328 1.39 0 2.265 1.03 2.265 2.875 0 2.062-1.016 3.328-2.531 3.328-.344 0-.704-.047-1.094-.125zm0 0"/></symbol><g clip-path="url(#a)"><path d="M219.688 74.41c0-5.87-4.758-10.633-10.63-10.633s-10.632 4.762-10.632 10.633 4.762 10.63 10.633 10.63 10.629-4.759 10.629-10.63zm0 0" fill="#ffa840"/></g><path d="M21.258 10.629C21.258 4.758 16.5 0 10.628 0S0 4.758 0 10.629s4.758 10.629 10.629 10.629 10.629-4.758 10.629-10.63zm0 34.016c0-5.872-4.758-10.63-10.63-10.63S0 38.774 0 44.646c0 5.87 4.758 10.628 10.629 10.628s10.629-4.757 10.629-10.628zM49.605 78.66c0-5.87-4.757-10.629-10.628-10.629-5.872 0-10.63 4.758-10.63 10.63s4.758 10.632 10.63 10.632c5.87 0 10.628-4.762 10.628-10.633zm-28.347 34.016c0-5.871-4.758-10.63-10.63-10.63S0 106.806 0 112.677c0 5.87 4.758 10.633 10.629 10.633s10.629-4.762 10.629-10.633zm0 0" fill="#ffa840"/><g clip-path="url(#b)"><path d="M49.605 146.691c0-5.867-4.757-10.629-10.628-10.629-5.872 0-10.63 4.762-10.63 10.63 0 5.87 4.758 10.632 10.63 10.632 5.87 0 10.628-4.762 10.628-10.633zm0 0" fill="#ffa840"/></g><path d="M49.605 10.629C49.605 4.758 44.848 0 38.977 0c-5.872 0-10.63 4.758-10.63 10.629s4.758 10.629 10.63 10.629c5.87 0 10.628-4.758 10.628-10.63zm0 0" fill="#ffa840"/><use x="36.05" xlink:href="#c" y="14.804"/><path d="M77.953 10.629C77.953 4.758 73.195 0 67.324 0c-5.87 0-10.633 4.758-10.633 10.629s4.762 10.629 10.633 10.629c5.871 0 10.63-4.758 10.63-10.63zm0 0" fill="#ffa840"/><use x="64.241" xlink:href="#d" y="15.717"/><path d="M106.3 10.629C106.3 4.758 101.54 0 95.669 0S85.04 4.758 85.04 10.629s4.758 10.629 10.629 10.629c5.871 0 10.633-4.758 10.633-10.63zm0 0" fill="#ffa840"/><use x="90.53" xlink:href="#e" y="17.025"/><path d="M134.645 10.629c0-5.871-4.758-10.629-10.63-10.629s-10.628 4.758-10.628 10.629 4.758 10.629 10.629 10.629 10.629-4.758 10.629-10.63zm0 0" fill="#ffa840"/><use x="121.39" xlink:href="#f" y="16.814"/><path d="M162.992 27.637c0-5.871-4.758-10.63-10.629-10.63-5.87 0-10.629 4.759-10.629 10.63 0 5.87 4.758 10.629 10.63 10.629 5.87 0 10.628-4.758 10.628-10.63zm0 0" fill="#ffa840"/><use x="147.852" xlink:href="#g" y="31.881"/><path d="M191.34 27.637c0-5.871-4.758-10.63-10.63-10.63-5.87 0-10.632 4.759-10.632 10.63 0 5.87 4.762 10.629 10.633 10.629 5.871 0 10.629-4.758 10.629-10.63zm0 0" fill="#ffa840"/><use x="177.085" xlink:href="#h" y="31.872"/><path d="M49.605 44.645c0-5.872-4.757-10.63-10.628-10.63-5.872 0-10.63 4.758-10.63 10.63 0 5.87 4.758 10.628 10.63 10.628 5.87 0 10.628-4.757 10.628-10.628zm0 0" fill="#ffa840"/><use x="36.041" xlink:href="#i" y="51.041"/><path d="M77.953 44.645c0-5.872-4.758-10.63-10.629-10.63-5.87 0-10.633 4.758-10.633 10.63 0 5.87 4.762 10.628 10.633 10.628 5.871 0 10.63-4.757 10.63-10.628zm0 0" fill="#ffa840"/><use x="64.697" xlink:href="#f" y="50.83"/><path d="M106.3 44.645c0-5.872-4.76-10.63-10.632-10.63-5.871 0-10.629 4.758-10.629 10.63 0 5.87 4.758 10.628 10.629 10.628 5.871 0 10.633-4.757 10.633-10.628zm0 0" fill="#ffa840"/><use x="92.588" xlink:href="#d" y="49.732"/><path d="M134.645 44.645c0-5.872-4.758-10.63-10.63-10.63s-10.628 4.758-10.628 10.63c0 5.87 4.758 10.628 10.629 10.628s10.629-4.757 10.629-10.628zm0 0" fill="#ffa840"/><use x="121.399" xlink:href="#j" y="51.041"/><path d="M49.605 112.676c0-5.871-4.757-10.63-10.628-10.63-5.872 0-10.63 4.759-10.63 10.63 0 5.87 4.758 10.633 10.63 10.633 5.87 0 10.628-4.762 10.628-10.633zm0 0" fill="#ffa840"/><use x="36.36" xlink:href="#j" y="119.072"/><path d="M77.953 112.676c0-5.871-4.758-10.63-10.629-10.63-5.87 0-10.633 4.759-10.633 10.63 0 5.87 4.762 10.633 10.633 10.633 5.871 0 10.63-4.762 10.63-10.633zm0 0" fill="#ffa840"/><use x="62.812" xlink:href="#g" y="116.92"/><path d="M106.3 112.676c0-5.871-4.76-10.63-10.632-10.63-5.871 0-10.629 4.759-10.629 10.63 0 5.87 4.758 10.633 10.629 10.633 5.871 0 10.633-4.762 10.633-10.633zm0 0" fill="#ffa840"/><use x="90.462" xlink:href="#k" y="116.98"/><path d="M134.645 112.676c0-5.871-4.758-10.63-10.63-10.63s-10.628 4.759-10.628 10.63c0 5.87 4.758 10.633 10.629 10.633s10.629-4.762 10.629-10.633zm0 0" fill="#ffa840"/><use x="119.273" xlink:href="#l" y="117.204"/><path d="M162.992 95.668c0-5.871-4.758-10.629-10.629-10.629-5.87 0-10.629 4.758-10.629 10.629 0 5.871 4.758 10.633 10.63 10.633 5.87 0 10.628-4.762 10.628-10.633zm0 0" fill="#ffa840"/><use x="147.223" xlink:href="#e" y="102.064"/><path d="M191.34 121.18c0-5.871-4.758-10.63-10.63-10.63-5.87 0-10.632 4.759-10.632 10.63 0 5.87 4.762 10.632 10.633 10.632 5.871 0 10.629-4.761 10.629-10.632zm0 0" fill="#ffa840"/><use x="177.627" xlink:href="#d" y="126.268"/><path d="M77.953 78.66c0-5.87-4.758-10.629-10.629-10.629-5.87 0-10.633 4.758-10.633 10.63s4.762 10.632 10.633 10.632c5.871 0 10.63-4.762 10.63-10.633zm0 0" fill="#ffa840"/><use x="60.445" xlink:href="#m" y="85.056"/><path d="M106.3 78.66c0-5.87-4.76-10.629-10.632-10.629-5.871 0-10.629 4.758-10.629 10.63s4.758 10.632 10.629 10.632c5.871 0 10.633-4.762 10.633-10.633zm0 0" fill="#ffa840"/><use x="93.044" xlink:href="#f" y="84.845"/><path d="M134.645 78.66c0-5.87-4.758-10.629-10.63-10.629s-10.628 4.758-10.628 10.63 4.758 10.632 10.629 10.632 10.629-4.762 10.629-10.633zm0 0" fill="#ffa840"/><use x="118.885" xlink:href="#n" y="84.996"/><g clip-path="url(#o)"><path d="M77.953 146.691c0-5.867-4.758-10.629-10.629-10.629-5.87 0-10.633 4.762-10.633 10.63 0 5.87 4.762 10.632 10.633 10.632 5.871 0 10.63-4.762 10.63-10.633zm0 0" fill="#ffa840"/></g><use x="62.356" xlink:href="#p" y="150.936"/><g clip-path="url(#q)"><path d="M106.3 146.691c0-5.867-4.76-10.629-10.632-10.629-5.871 0-10.629 4.762-10.629 10.63 0 5.87 4.758 10.632 10.629 10.632 5.871 0 10.633-4.762 10.633-10.633zm0 0" fill="#ffa840"/></g><use x="90.505" xlink:href="#r" y="150.936"/><g clip-path="url(#s)"><path d="M134.645 146.691c0-5.867-4.758-10.629-10.63-10.629s-10.628 4.762-10.628 10.63c0 5.87 4.758 10.632 10.629 10.632s10.629-4.762 10.629-10.633zm0 0" fill="#ffa840"/></g><use x="118.928" xlink:href="#t" y="151.22"/><g clip-path="url(#u)"><path d="M162.992 146.691c0-5.867-4.758-10.629-10.629-10.629-5.87 0-10.629 4.762-10.629 10.63 0 5.87 4.758 10.632 10.63 10.632 5.87 0 10.628-4.762 10.628-10.633zm0 0" fill="#ffa840"/></g><use x="147.197" xlink:href="#r" y="150.936"/><g clip-path="url(#v)"><path d="M21.457 10.629h6.691m21.657 0h6.687m21.66 0h6.688m21.66 0h6.688m20.113 5.57l9.777 5.867m20.113 5.57h6.688m16.445 9.262l17.121 28.25M21.457 44.645h6.691m21.657 0h6.687m21.66 0h6.688m21.66 0h6.688m20.113-5.57l9.777-5.868M21.457 112.676h6.691m21.657 0h6.687m21.66 0h6.688m21.66 0h6.688m20.113-5.57l9.777-5.864m17.336 1.672l12.246 11.024m13.664-2.016l17.121-28.25M49.805 78.66h6.687m21.66 0h6.688m21.66 0h6.688m20.113 5.574l9.777 5.864M49.805 146.69h6.687m21.66 0h6.688m21.66 0h6.688m21.66 0h6.687m18.88-7.242l12.245-11.023" fill="none" stroke="#ffa840" stroke-miterlimit="10" stroke-width="2.291"/></g></svg>