<?xml version="1.0" encoding="UTF-8" standalone="no"?>
<svg
   version="1.1"
   x="0px"
   y="0px"
   width="171"
   height="208.5"
   viewBox="0 0 171 208.5"
   id="svg60"
   sodipodi:docname="typeb3.svg"
   inkscape:version="1.1.1 (3bf5ae0d25, 2021-09-20)"
   xmlns:inkscape="http://www.inkscape.org/namespaces/inkscape"
   xmlns:sodipodi="http://sodipodi.sourceforge.net/DTD/sodipodi-0.dtd"
   xmlns="http://www.w3.org/2000/svg"
   xmlns:svg="http://www.w3.org/2000/svg">
  <defs
     id="defs64" />
  <sodipodi:namedview
     id="namedview62"
     pagecolor="#ffffff"
     bordercolor="#666666"
     borderopacity="1.0"
     inkscape:pageshadow="2"
     inkscape:pageopacity="0.0"
     inkscape:pagecheckerboard="0"
     showgrid="false"
     fit-margin-top="0"
     fit-margin-left="0"
     fit-margin-right="0"
     fit-margin-bottom="0"
     inkscape:zoom="6.3267449"
     inkscape:cx="78.081227"
     inkscape:cy="52.633701"
     inkscape:window-width="1603"
     inkscape:window-height="1032"
     inkscape:window-x="304"
     inkscape:window-y="0"
     inkscape:window-maximized="0"
     inkscape:current-layer="svg60"
     inkscape:snap-global="false" />
  <style
     type="text/css"
     id="style2">
	.st0{fill:#37ABED;stroke:#000000;stroke-width:5;}
	.st1{fill:#E6E6E6;stroke:#000000;stroke-width:1.3;}
	.st2{fill:#FFFF00;stroke:#000000;stroke-width:1.3;}
	.st3{fill:#FFFF00;stroke:#000000;}
	.st4{fill:#FFFFFF;stroke:#000000;}
	.st5{font-family:Liberation Sans,sans-serif;}
	.st6{font-size:41px;}
	.st7{font-size:45px;}
</style>
  <path
     class="st0"
     d="M 28.1,68.5 7.2,88.2 C 4.4,91.1 2.7,94.9 2.5,98.9 v 94.6 c 0,6.9 6,12.5 13.3,12.5 h 139.4 c 7.3,0 13.3,-5.6 13.3,-12.5 V 99 c -0.2,-4 -1.9,-7.8 -4.7,-10.7 L 143,68.6 c -2.6,-2.4 -6.3,-4.8 -6,-6.1 L 136.9,9.2 c 0,-3.7 -3,-6.7 -6.7,-6.7 v 0 H 39.8 c -3.7,0 -6.7,3 -6.7,6.7 v 0 53.3 c 0.1,2.3 -2.4,3.7 -5,6 z"
     id="path4"
     style="stroke-width:2.8;stroke-miterlimit:4;stroke-dasharray:none" />
  <rect
     x="24.700003"
     y="95.399994"
     class="st1"
     width="121.6"
     height="79.699997"
     id="rect6" />
  <rect
     x="46.700005"
     y="86.599991"
     class="st2"
     width="20.799999"
     height="10.5"
     id="rect8"
     style="fill:#b7b7b7;fill-opacity:1" />
  <rect
     x="104.4"
     y="86.599991"
     class="st2"
     width="20.799999"
     height="10.5"
     id="rect10"
     style="fill:#ff0003;fill-opacity:1" />
  <rect
     x="46.700005"
     y="172.3"
     class="st2"
     width="20.799999"
     height="11.1"
     id="rect12"
     style="fill:#60ff00;fill-opacity:1" />
  <rect
     x="104.4"
     y="172.39999"
     class="st2"
     width="20.799999"
     height="10.9"
     id="rect14"
     style="fill:#000000;fill-opacity:1" />
  <rect
     style="fill:#d800ff;stroke:#000000;stroke-width:2.81753"
     id="rect860"
     width="97.346916"
     height="8.5176649"
     x="35.353561"
     y="4.894073"
     ry="1.4196109" />
  <rect
     x="34.867611"
     y="5.1984191"
     class="st1"
     width="99.981033"
     height="30.90316"
     id="rect16" />
  <rect
     x="49.700005"
     y="24.899998"
     class="st3"
     width="4.1999998"
     height="18.9"
     id="rect18"
     style="fill:#0043ff;fill-opacity:1" />
  <rect
     x="117.00001"
     y="24.899998"
     class="st3"
     width="4.1999998"
     height="18.9"
     id="rect20"
     style="fill:#ff00d2;fill-opacity:1" />
  <rect
     x="100.2"
     y="24.899998"
     class="st3"
     width="4.1999998"
     height="18.9"
     id="rect22"
     style="fill:#ff9300;fill-opacity:1" />
  <rect
     x="83.299995"
     y="24.899998"
     class="st3"
     width="4.1999998"
     height="18.9"
     id="rect24"
     style="fill:#000000;fill-opacity:1" />
  <rect
     x="66.500008"
     y="24.899998"
     class="st3"
     width="4.1999998"
     height="18.9"
     id="rect26" />
  <rect
     x="49.700005"
     y="39.500004"
     class="st4"
     width="4.1999998"
     height="4.4000001"
     id="rect28" />
  <rect
     x="66.500008"
     y="39.500004"
     class="st4"
     width="4.1999998"
     height="4.4000001"
     id="rect30" />
  <rect
     x="83.400002"
     y="39.500004"
     class="st4"
     width="4.1999998"
     height="4.4000001"
     id="rect32" />
  <rect
     x="100.2"
     y="39.500004"
     class="st4"
     width="4.1999998"
     height="4.4000001"
     id="rect34" />
  <rect
     x="117.00001"
     y="39.500004"
     class="st4"
     width="4.1999998"
     height="4.4000001"
     id="rect36" />
</svg>
