<?xml version="1.0" encoding="UTF-8" standalone="no"?>
<!-- Generator: Adobe Illustrator 22.1.0, SVG Export Plug-In . SVG Version: 6.00 Build 0)  -->

<svg
   version="1.1"
   id="USB"
   x="0px"
   y="0px"
   width="364.90143"
   height="120"
   viewBox="0 0 364.90143 120"
   xml:space="preserve"
   sodipodi:docname="typea.svg"
   inkscape:version="1.1.1 (3bf5ae0d25, 2021-09-20)"
   xmlns:inkscape="http://www.inkscape.org/namespaces/inkscape"
   xmlns:sodipodi="http://sodipodi.sourceforge.net/DTD/sodipodi-0.dtd"
   xmlns="http://www.w3.org/2000/svg"
   xmlns:svg="http://www.w3.org/2000/svg"><defs
   id="defs35">
	
	
	
</defs><sodipodi:namedview
   id="namedview33"
   pagecolor="#ffffff"
   bordercolor="#666666"
   borderopacity="1.0"
   inkscape:pageshadow="2"
   inkscape:pageopacity="0.0"
   inkscape:pagecheckerboard="0"
   showgrid="false"
   fit-margin-top="0"
   fit-margin-left="0"
   fit-margin-right="0"
   fit-margin-bottom="0"
   inkscape:zoom="2.3911111"
   inkscape:cx="178.78717"
   inkscape:cy="100.37175"
   inkscape:window-width="1920"
   inkscape:window-height="1010"
   inkscape:window-x="-6"
   inkscape:window-y="-6"
   inkscape:window-maximized="1"
   inkscape:current-layer="USB" />
<style
   type="text/css"
   id="style2">
	.st0{fill:#E6E6E6;}
	.st1{fill:#B3B3B3;stroke:#000000;stroke-width:2;}
	.st2{fill:none;stroke:#000000;stroke-width:8;}
	.st3{font-family:Liberation Sans,sans-serif;}
	.st4{font-size:60px;}
	.st5{font-size:48px;}
	.st6{fill:#FCEE21;stroke:#000000;stroke-width:2;}
</style>
<path
   class="st0"
   d="M 352.9,4 H 12.1 C 7.6,4 4,7.6 4,12.1 V 71 H 361 V 12.1 C 361,7.6 357.4,4 352.9,4 Z"
   id="path4" /><path
   class="st1"
   d="M 352.9,115 H 12.1 C 7.6,115 4,111.4 4,106.9 V 71 h 357 v 35.9 c 0,4.5 -3.6,8.1 -8.1,8.1 z"
   id="path6"
   style="fill:#ffffff;fill-opacity:1" /><path
   class="st2"
   d="M 349.7,116 H 15.3 C 9,116 4,110.9 4,104.7 V 15.3 C 4,9 9.1,4 15.3,4 h 334.3 c 6.3,0 11.3,5.1 11.3,11.3 v 89.3 c 0.1,6.3 -5,11.4 -11.2,11.4 z"
   id="path8" />

<rect
   x="43.300003"
   y="64.199997"
   class="st6"
   width="35"
   height="13.5"
   id="rect24"
   style="fill:#000000;fill-opacity:1" />
<rect
   x="130.3"
   y="64.199997"
   class="st6"
   width="35"
   height="13.5"
   id="rect26"
   style="fill:#2dff00;fill-opacity:1" />
<rect
   x="199.60001"
   y="64.199997"
   class="st6"
   width="35"
   height="13.5"
   id="rect28"
   style="fill:#b4b4b4;fill-opacity:1" />
<rect
   x="286.70001"
   y="64.199997"
   class="st6"
   width="35"
   height="13.5"
   id="rect30"
   style="fill:#ff0400;fill-opacity:1" />
</svg>
