<?xml version="1.0" encoding="UTF-8" standalone="no"?>
<svg
   version="1.1"
   x="0"
   y="0"
   width="144"
   height="124.4"
   viewBox="0 0 144 124.4"
   id="svg28"
   sodipodi:docname="typeb.svg"
   inkscape:version="1.1.1 (3bf5ae0d25, 2021-09-20)"
   xmlns:inkscape="http://www.inkscape.org/namespaces/inkscape"
   xmlns:sodipodi="http://sodipodi.sourceforge.net/DTD/sodipodi-0.dtd"
   xmlns="http://www.w3.org/2000/svg"
   xmlns:svg="http://www.w3.org/2000/svg">
  <defs
     id="defs32" />
  <sodipodi:namedview
     id="namedview30"
     pagecolor="#ffffff"
     bordercolor="#666666"
     borderopacity="1.0"
     inkscape:pageshadow="2"
     inkscape:pageopacity="0.0"
     inkscape:pagecheckerboard="0"
     showgrid="false"
     fit-margin-top="0"
     fit-margin-left="0"
     fit-margin-right="0"
     fit-margin-bottom="0"
     inkscape:zoom="3.2075472"
     inkscape:cx="66.873529"
     inkscape:cy="68.899999"
     inkscape:window-width="1920"
     inkscape:window-height="1010"
     inkscape:window-x="-6"
     inkscape:window-y="-6"
     inkscape:window-maximized="1"
     inkscape:current-layer="svg28" />
  <style
     type="text/css"
     id="style2">
	.st0{fill:#B3B3B3;stroke:#000;stroke-width:6;}
	.st1{fill:#E6E6E6;stroke:#000;stroke-width:2;}
	.st2{fill:#FFFF00;stroke:#000;}
	.st3{font-family:Liberation Sans,sans-serif;}
	.st4{font-size:36px;}
</style>
  <path
     class="st0"
     d="M 139,25.7 121.5,8.2 C 118.6,5.3 112.9,3 108.9,3 H 35.1 C 31,3 25.4,5.4 22.5,8.2 L 5,25.7 c -1.3,1.3 -2,3 -2,4.8 v 81.2 c 0,5.3 4.3,9.7 9.7,9.7 h 118.6 c 5.3,0 9.7,-4.3 9.7,-9.7 V 30.5 c -0.1,-1.8 -0.8,-3.5 -2,-4.8 z"
     id="path4"
     style="stroke-width:2.8;stroke-miterlimit:4;stroke-dasharray:none" />
  <path
     class="st1"
     d="M 119.3,95.7 H 24.7 c -1.8,0 -3.2,-1.4 -3.2,-3.2 V 31.9 c 0,-1.8 1.4,-3.2 3.2,-3.2 h 94.6 c 1.8,0 3.2,1.4 3.2,3.2 v 60.6 c 0,1.7 -1.4,3.2 -3.2,3.2 z"
     id="path6" />
  <rect
     x="39.199997"
     y="24.099998"
     class="st2"
     width="18"
     height="7"
     id="rect8"
     style="fill:#a7a7a7;fill-opacity:1" />
  <rect
     x="86.800003"
     y="24.099998"
     class="st2"
     width="18"
     height="7"
     id="rect10"
     style="fill:#ff1d00;fill-opacity:1" />
  <rect
     x="39.199997"
     y="93.199997"
     class="st2"
     width="18"
     height="7"
     id="rect12"
     style="fill:#60ff00;fill-opacity:1" />
  <rect
     x="86.800003"
     y="93.199997"
     class="st2"
     width="18"
     height="7"
     id="rect14"
     style="fill:#000000;fill-opacity:1" />
</svg>
