<?xml version="1.0" encoding="UTF-8" standalone="no"?>
<!-- Generator: Adobe Illustrator 22.1.0, SVG Export Plug-In . SVG Version: 6.00 Build 0)  -->

<svg
   version="1.1"
   id="Calque_1"
   x="0px"
   y="0px"
   width="365.00143"
   height="120"
   viewBox="0 0 365.00143 120"
   xml:space="preserve"
   sodipodi:docname="typea3.svg"
   inkscape:version="1.1.1 (3bf5ae0d25, 2021-09-20)"
   xmlns:inkscape="http://www.inkscape.org/namespaces/inkscape"
   xmlns:sodipodi="http://sodipodi.sourceforge.net/DTD/sodipodi-0.dtd"
   xmlns="http://www.w3.org/2000/svg"
   xmlns:svg="http://www.w3.org/2000/svg"><defs
   id="defs55" /><sodipodi:namedview
   id="namedview53"
   pagecolor="#ffffff"
   bordercolor="#666666"
   borderopacity="1.0"
   inkscape:pageshadow="2"
   inkscape:pageopacity="0.0"
   inkscape:pagecheckerboard="0"
   showgrid="false"
   fit-margin-top="0"
   fit-margin-left="0"
   fit-margin-right="0"
   fit-margin-bottom="0"
   inkscape:zoom="1.9563636"
   inkscape:cx="178.13662"
   inkscape:cy="98.652416"
   inkscape:window-width="1920"
   inkscape:window-height="1010"
   inkscape:window-x="-6"
   inkscape:window-y="-6"
   inkscape:window-maximized="1"
   inkscape:current-layer="Calque_1" />
<style
   type="text/css"
   id="style2">
	.st0{fill:#E6E6E6;stroke:#000000;stroke-width:2;stroke-miterlimit:10;}
	.st1{fill:#37ABED;stroke:#000000;stroke-width:2;}
	.st2{fill:none;stroke:#000000;stroke-width:8;}
	.st3{fill:#FFFF00;stroke:#000000;stroke-width:2;}
	.st4{font-family:Liberation Sans,sans-serif;}
	.st5{font-size:60px;}
	.st6{font-size:48px;}
</style>
<path
   class="st0"
   d="M 352.9,4 H 12.1 C 7.6,4 4,7.6 4,12.1 V 71 H 361 V 12.1 C 361,7.6 357.4,4 352.9,4 Z"
   id="path4" />
<path
   class="st1"
   d="M 352.9,115 H 12.1 C 7.6,115 4,111.4 4,106.9 V 71 h 357 v 35.9 c 0,4.5 -3.6,8.1 -8.1,8.1 z"
   id="path6" />
<path
   class="st2"
   d="M 349.8,116 H 15.3 C 9,116 4,110.9 4,104.7 V 15.3 C 4,9 9.1,4 15.3,4 H 349.7 C 356,4 361,9.1 361,15.3 v 89.3 c 0.1,6.3 -5,11.4 -11.2,11.4 z"
   id="path8" />
<rect
   x="43.5"
   y="65"
   class="st3"
   width="35"
   height="14"
   id="rect10"
   style="fill:#000000;fill-opacity:1" />
<rect
   x="124.5"
   y="65"
   class="st3"
   width="35"
   height="14"
   id="rect12"
   style="fill:#2cff00;fill-opacity:1" />
<rect
   x="205.5"
   y="65"
   class="st3"
   width="35"
   height="14"
   id="rect14"
   style="fill:#c2c2c2;fill-opacity:1" />
<rect
   x="286.5"
   y="65"
   class="st3"
   width="35"
   height="14"
   id="rect16"
   style="fill:#ff0d00;fill-opacity:1" />
<rect
   x="33.5"
   y="40"
   class="st3"
   width="15"
   height="14"
   id="rect18" />
<rect
   x="104.5"
   y="40"
   class="st3"
   width="15"
   height="14"
   id="rect20"
   style="fill:#0c00ff;fill-opacity:1" />
<rect
   x="174.5"
   y="40"
   class="st3"
   width="15"
   height="14"
   id="rect22"
   style="fill:#000000;fill-opacity:1" />
<rect
   x="245.5"
   y="40"
   class="st3"
   width="15"
   height="14"
   id="rect24"
   style="fill:#ffa000;fill-opacity:1" />
<rect
   x="315.5"
   y="40"
   class="st3"
   width="15"
   height="14"
   id="rect26"
   style="fill:#d800ff;fill-opacity:1" />



</svg>
