<?xml version="1.0" encoding="UTF-8" standalone="no"?>
<svg
   width="367.79926"
   height="39.918217"
   viewBox="0 0 367.79926 39.918217"
   version="1.1"
   xml:space="preserve"
   style="clip-rule:evenodd;fill-rule:evenodd;stroke-linecap:round;stroke-linejoin:round;stroke-miterlimit:1.5"
   id="svg114"
   sodipodi:docname="typec.svg"
   inkscape:version="1.1.1 (3bf5ae0d25, 2021-09-20)"
   xmlns:inkscape="http://www.inkscape.org/namespaces/inkscape"
   xmlns:sodipodi="http://sodipodi.sourceforge.net/DTD/sodipodi-0.dtd"
   xmlns="http://www.w3.org/2000/svg"
   xmlns:svg="http://www.w3.org/2000/svg"><defs
   id="defs118" /><sodipodi:namedview
   id="namedview116"
   pagecolor="#ffffff"
   bordercolor="#666666"
   borderopacity="1.0"
   inkscape:pageshadow="2"
   inkscape:pageopacity="0.0"
   inkscape:pagecheckerboard="0"
   showgrid="false"
   inkscape:snap-global="false"
   fit-margin-top="0"
   fit-margin-left="0"
   fit-margin-right="0"
   fit-margin-bottom="0"
   inkscape:zoom="1.345"
   inkscape:cx="173.9777"
   inkscape:cy="157.99257"
   inkscape:window-width="1295"
   inkscape:window-height="997"
   inkscape:window-x="612"
   inkscape:window-y="0"
   inkscape:window-maximized="0"
   inkscape:current-layer="svg114" />
    
    
    
    
    
<path
   id="rect1209"
   style="fill:#dbdbdb;stroke:#000000;stroke-width:2"
   d="M 19.959108,1 H 347.84015 c 10.50334,0 18.95911,8.4557623 18.95911,18.959108 0,10.503346 -8.45577,18.959109 -18.95911,18.959109 H 19.959108 C 9.4557623,38.918217 1,30.462454 1,19.959108 1,9.4557623 9.4557623,1 19.959108,1 Z" /><path
   id="rect1583"
   style="stroke:#000000;stroke-width:0.8"
   d="M 19.215612,1.6022341 H 42.263939 V 15.728628 H 19.215612 Z" /><path
   id="rect1583-8"
   style="stroke:#000000;stroke-width:0.8"
   d="M 19.029711,23.907064 H 42.078037 V 38.033459 H 19.029711 Z" /><path
   id="rect1583-0-2"
   style="fill:#63cedc;stroke:#000000;stroke-width:0.8"
   d="m 270.56744,23.907064 h 23.04833 v 14.126395 h -23.04833 z" /><g
   id="g38903"><path
     id="rect1583-5"
     style="fill:#fd0caa;stroke:#000000;stroke-width:0.8"
     d="m 214.85606,1.6022341 h 23.04833 V 15.728628 h -23.04833 z" /><g
     aria-label="SBU1"
     id="text4325"
     style="font-size:8px;line-height:1.25"><path
       d="m 221.09312,10.071681 q 0,0.234375 -0.10156,0.40625 -0.10156,0.167969 -0.26172,0.277344 -0.16015,0.113281 -0.36718,0.167969 -0.20313,0.05078 -0.41407,0.05078 -0.26562,0 -0.49218,-0.07031 -0.22266,-0.07422 -0.39454,-0.21875 -0.17187,-0.140625 -0.28125,-0.34375 -0.10937,-0.207031 -0.14453,-0.472656 h -0.73828 q 0.0117,0.367188 0.16016,0.667969 0.15234,0.296875 0.41015,0.519531 0.28907,0.257813 0.67969,0.394531 0.39453,0.136719 0.80078,0.136719 0.33985,0 0.67969,-0.09375 0.33984,-0.09766 0.60938,-0.289062 0.26953,-0.1875 0.4375,-0.472657 0.17187,-0.285156 0.17187,-0.667968 0,-0.3789067 -0.16016,-0.6679692 -0.15625,-0.2890625 -0.41406,-0.4882813 -0.26172,-0.2148437 -0.57812,-0.3515625 -0.31641,-0.140625 -0.63282,-0.2382812 -0.1914,-0.058594 -0.41015,-0.1367188 -0.21485,-0.078125 -0.39844,-0.1953125 -0.1875,-0.1171875 -0.30859,-0.2851562 -0.1211,-0.171875 -0.125,-0.4179688 0,-0.2265625 0.0898,-0.3984375 0.0937,-0.171875 0.25,-0.2890625 0.15234,-0.1171875 0.34766,-0.1757812 0.19922,-0.058594 0.40625,-0.058594 0.25781,0 0.46093,0.082031 0.20704,0.078125 0.35547,0.2226562 0.14844,0.1445313 0.23828,0.3476563 0.0899,0.1992187 0.1211,0.4453125 h 0.74219 q -0.008,-0.390625 -0.16797,-0.7070313 -0.16016,-0.3164062 -0.42578,-0.5390625 -0.26563,-0.2226562 -0.60938,-0.34375 -0.34375,-0.125 -0.71484,-0.125 -0.33594,0 -0.66797,0.1054688 -0.33203,0.1015625 -0.59375,0.3007812 -0.26172,0.1992188 -0.42578,0.4882813 -0.16016,0.2890625 -0.16016,0.65625 0,0.3671875 0.16016,0.640625 0.16406,0.2695312 0.42187,0.46875 0.25391,0.1953125 0.5625,0.3359375 0.3125,0.1367187 0.61328,0.234375 0.20703,0.066406 0.42969,0.1484375 0.22656,0.082031 0.41406,0.203125 0.1875,0.125 0.30469,0.3046875 0.12109,0.1796875 0.12109,0.4414062 z"
       style="font-family:'Roboto Mono';-inkscape-font-specification:'Roboto Mono'"
       id="path1115" /><path
       d="m 222.90953,11.509181 h 1.82031 q 0.36328,-0.0039 0.70313,-0.113281 0.34375,-0.109375 0.60547,-0.316406 0.26172,-0.203125 0.41797,-0.507813 0.15625,-0.304687 0.15234,-0.703125 0,-0.2539062 -0.0781,-0.4726562 -0.0742,-0.21875 -0.21093,-0.3945313 -0.12891,-0.1601562 -0.32813,-0.2929687 -0.19922,-0.1328125 -0.41406,-0.1835938 v -0.011719 q 0.20703,-0.089844 0.35156,-0.1914063 0.14844,-0.1015625 0.26953,-0.25 0.11719,-0.1445312 0.1836,-0.328125 0.0703,-0.1835937 0.0742,-0.40625 0.004,-0.3984375 -0.15235,-0.6835937 -0.15625,-0.2851563 -0.41797,-0.46875 -0.26172,-0.1835938 -0.59765,-0.2695313 -0.33594,-0.089844 -0.6875,-0.09375 h -1.69141 z m 0.72656,-2.6601562 h 1.15235 q 0.23047,0.00781 0.42968,0.078125 0.19922,0.070312 0.34766,0.1992187 0.14844,0.1328125 0.23047,0.3203125 0.0859,0.1875 0.082,0.4296875 0,0.2382815 -0.0937,0.4257815 -0.0898,0.1875 -0.24609,0.316406 -0.15625,0.128906 -0.35938,0.203125 -0.20312,0.07031 -0.42969,0.07422 h -1.11328 z m 0,-0.6015625 V 6.4388685 h 0.98828 q 0.21094,0.00391 0.41016,0.054687 0.20313,0.050781 0.35938,0.15625 0.15234,0.109375 0.24218,0.2773438 0.0937,0.1679687 0.0937,0.40625 0,0.2226562 -0.0937,0.390625 -0.0937,0.1679687 -0.24609,0.28125 -0.15234,0.1171875 -0.34766,0.1796875 -0.19531,0.058594 -0.39843,0.0625 z"
       style="font-family:'Roboto Mono';-inkscape-font-specification:'Roboto Mono'"
       id="path1117" /><path
       d="m 231.28844,5.821681 h -0.69922 l -0.0117,3.8515625 q -0.008,0.2539063 -0.082,0.4882815 -0.0742,0.234375 -0.21485,0.414062 -0.14453,0.183594 -0.35546,0.292969 -0.21094,0.105469 -0.48829,0.105469 -0.27734,0 -0.49218,-0.109375 -0.21094,-0.109375 -0.35157,-0.289063 -0.14453,-0.179687 -0.22265,-0.414062 -0.0742,-0.2343752 -0.0781,-0.4882815 l -0.0156,-3.8515625 h -0.6875 l -0.008,3.8515625 q 0.004,0.3984375 0.14062,0.7500005 0.13672,0.347656 0.37891,0.605468 0.24218,0.261719 0.58203,0.410157 0.33984,0.148437 0.7539,0.148437 0.40625,0 0.7461,-0.148437 0.33984,-0.152344 0.58594,-0.414063 0.24609,-0.257812 0.38671,-0.605469 0.14063,-0.347656 0.14063,-0.7460935 z"
       style="font-family:'Roboto Mono';-inkscape-font-specification:'Roboto Mono'"
       id="path1119" /><path
       d="m 234.86266,11.509181 v -5.6875 h -0.0586 l -2.15234,0.828125 V 7.3099623 L 234.14,6.743556 v 4.765625 z"
       style="font-family:'Roboto Mono';-inkscape-font-specification:'Roboto Mono'"
       id="path1121" /></g></g><g
   id="g38878"><path
     id="rect1583-6-8"
     style="fill:#fd0caa;stroke:#000000;stroke-width:0.8"
     d="m 130.82423,23.907064 h 23.04833 v 14.126395 h -23.04833 z" /><g
     aria-label="SBU2"
     id="text4325-0"
     style="font-size:8px;line-height:1.25"><path
       d="m 136.48903,32.120007 q 0,0.234375 -0.10156,0.40625 -0.10157,0.167968 -0.26172,0.277343 -0.16016,0.113282 -0.36719,0.167969 -0.20312,0.05078 -0.41406,0.05078 -0.26563,0 -0.49219,-0.07031 -0.22266,-0.07422 -0.39453,-0.21875 -0.17188,-0.140625 -0.28125,-0.34375 -0.10938,-0.207031 -0.14453,-0.472656 h -0.73828 q 0.0117,0.367187 0.16015,0.667968 0.15235,0.296875 0.41016,0.519532 0.28906,0.257812 0.67969,0.394531 0.39453,0.136719 0.80078,0.136719 0.33984,0 0.67969,-0.09375 0.33984,-0.09766 0.60937,-0.289063 0.26953,-0.1875 0.4375,-0.472656 0.17188,-0.285156 0.17188,-0.667969 0,-0.378906 -0.16016,-0.667969 -0.15625,-0.289062 -0.41406,-0.488281 -0.26172,-0.214844 -0.57813,-0.351562 -0.3164,-0.140625 -0.63281,-0.238282 -0.19141,-0.05859 -0.41016,-0.136718 -0.21484,-0.07813 -0.39843,-0.195313 -0.1875,-0.117187 -0.3086,-0.285156 -0.12109,-0.171875 -0.125,-0.417969 0,-0.226562 0.0899,-0.398437 0.0937,-0.171875 0.25,-0.289063 0.15234,-0.117187 0.34765,-0.175781 0.19922,-0.05859 0.40625,-0.05859 0.25781,0 0.46094,0.08203 0.20703,0.07813 0.35547,0.222657 0.14844,0.144531 0.23828,0.347656 0.0898,0.199219 0.12109,0.445312 h 0.74219 q -0.008,-0.390625 -0.16797,-0.707031 -0.16015,-0.316406 -0.42578,-0.539062 -0.26562,-0.222657 -0.60937,-0.34375 -0.34375,-0.125 -0.71485,-0.125 -0.33594,0 -0.66797,0.105468 -0.33203,0.101563 -0.59375,0.300782 -0.26172,0.199218 -0.42578,0.488281 -0.16015,0.289062 -0.16015,0.65625 0,0.367187 0.16015,0.640625 0.16406,0.269531 0.42188,0.46875 0.2539,0.195312 0.5625,0.335937 0.3125,0.136719 0.61328,0.234375 0.20703,0.06641 0.42969,0.148438 0.22656,0.08203 0.41406,0.203125 0.1875,0.125 0.30469,0.304687 0.12109,0.179688 0.12109,0.441407 z"
       style="font-family:'Roboto Mono';-inkscape-font-specification:'Roboto Mono'"
       id="path1105" /><path
       d="m 138.30544,33.557507 h 1.82031 q 0.36328,-0.0039 0.70312,-0.113282 0.34375,-0.109375 0.60547,-0.316406 0.26172,-0.203125 0.41797,-0.507812 0.15625,-0.304688 0.15234,-0.703125 0,-0.253907 -0.0781,-0.472657 -0.0742,-0.21875 -0.21094,-0.394531 -0.1289,-0.160156 -0.32812,-0.292969 -0.19922,-0.132812 -0.41407,-0.183593 v -0.01172 q 0.20704,-0.08984 0.35157,-0.191406 0.14843,-0.101563 0.26953,-0.25 0.11719,-0.144532 0.18359,-0.328125 0.0703,-0.183594 0.0742,-0.40625 0.004,-0.398438 -0.15234,-0.683594 -0.15625,-0.285156 -0.41797,-0.46875 -0.26172,-0.183594 -0.59766,-0.269531 -0.33594,-0.08984 -0.6875,-0.09375 h -1.6914 z M 139.032,30.89735 h 1.15234 q 0.23047,0.0078 0.42969,0.07813 0.19922,0.07031 0.34766,0.199219 0.14843,0.132813 0.23046,0.320313 0.0859,0.1875 0.082,0.429687 0,0.238281 -0.0937,0.425781 -0.0899,0.1875 -0.2461,0.316407 -0.15625,0.128906 -0.35937,0.203125 -0.20313,0.07031 -0.42969,0.07422 H 139.032 Z m 0,-0.601562 v -1.808594 h 0.98828 q 0.21094,0.0039 0.41016,0.05469 0.20312,0.05078 0.35937,0.15625 0.15234,0.109375 0.24219,0.277343 0.0937,0.167969 0.0937,0.40625 0,0.222657 -0.0937,0.390625 -0.0937,0.167969 -0.2461,0.28125 -0.15234,0.117188 -0.34765,0.179688 -0.19531,0.05859 -0.39844,0.0625 z"
       style="font-family:'Roboto Mono';-inkscape-font-specification:'Roboto Mono'"
       id="path1107" /><path
       d="m 146.68434,27.870007 h -0.69922 l -0.0117,3.851562 q -0.008,0.253906 -0.082,0.488281 -0.0742,0.234375 -0.21484,0.414063 -0.14453,0.183594 -0.35547,0.292969 -0.21094,0.105468 -0.48828,0.105468 -0.27734,0 -0.49219,-0.109375 -0.21094,-0.109375 -0.35156,-0.289062 -0.14453,-0.179688 -0.22266,-0.414063 -0.0742,-0.234375 -0.0781,-0.488281 l -0.0156,-3.851562 h -0.6875 l -0.008,3.851562 q 0.004,0.398438 0.14063,0.75 0.13671,0.347656 0.3789,0.605469 0.24219,0.261719 0.58203,0.410156 0.33985,0.148438 0.75391,0.148438 0.40625,0 0.74609,-0.148438 0.33985,-0.152344 0.58594,-0.414062 0.24609,-0.257813 0.38672,-0.605469 0.14062,-0.347656 0.14062,-0.746094 z"
       style="font-family:'Roboto Mono';-inkscape-font-specification:'Roboto Mono'"
       id="path1109" /><path
       d="m 151.40309,33.557507 v -0.589844 h -2.85547 l 1.52735,-1.65625 q 0.21484,-0.234375 0.40625,-0.46875 0.19531,-0.238281 0.34375,-0.480469 0.14453,-0.242187 0.23047,-0.488281 0.0859,-0.25 0.0859,-0.503906 0,-0.339844 -0.12109,-0.628907 -0.11719,-0.289062 -0.33984,-0.5 -0.22266,-0.210937 -0.54688,-0.328125 -0.32031,-0.121093 -0.72266,-0.121093 -0.4375,0 -0.78125,0.140625 -0.33984,0.140625 -0.57421,0.378906 -0.23829,0.238281 -0.36329,0.558594 -0.125,0.316406 -0.125,0.675781 h 0.72657 q 0,-0.265625 0.0664,-0.480469 0.0703,-0.214844 0.21094,-0.367187 0.13672,-0.148438 0.34375,-0.230469 0.21094,-0.08203 0.49609,-0.08203 0.23438,0 0.41797,0.08203 0.1875,0.07813 0.32032,0.214844 0.1289,0.136718 0.19531,0.324218 0.0703,0.183594 0.0703,0.394532 0,0.171875 -0.043,0.335937 -0.043,0.160156 -0.14453,0.339844 -0.10156,0.183594 -0.26953,0.398437 -0.16797,0.214844 -0.41797,0.492188 l -1.86328,2.070312 v 0.519532 z"
       style="font-family:'Roboto Mono';-inkscape-font-specification:'Roboto Mono'"
       id="path1111" /></g></g><g
   id="g38873"><path
     id="rect1583-6"
     style="fill:#ffab00;stroke:#000000;stroke-width:0.8"
     d="m 131.01015,1.6022341 h 23.04832 V 15.728628 h -23.04832 z" /><g
     aria-label="CC1"
     id="text4325-04"
     style="font-size:8px;line-height:1.25"><path
       d="m 140.37611,9.7982435 h -0.72265 q -0.0352,0.2578125 -0.1211,0.4804685 -0.0859,0.21875 -0.23046,0.378907 -0.14454,0.164062 -0.35547,0.253906 -0.20703,0.08984 -0.49219,0.08984 -0.26172,0 -0.45703,-0.08203 -0.19531,-0.08594 -0.33985,-0.234375 -0.14453,-0.144531 -0.23828,-0.335937 -0.0937,-0.191406 -0.15234,-0.4101565 -0.0586,-0.2148437 -0.0859,-0.4375 -0.0234,-0.2265625 -0.0234,-0.4375 V 8.2630873 q 0,-0.2109375 0.0234,-0.4335938 0.0273,-0.2265625 0.0859,-0.4414062 0.0586,-0.2148438 0.15234,-0.40625 0.0977,-0.1914063 0.24219,-0.3359375 0.14063,-0.1445313 0.33594,-0.2265625 0.19922,-0.085937 0.45703,-0.085937 0.28516,0 0.49219,0.097656 0.21093,0.09375 0.35547,0.2617188 0.14453,0.1679687 0.23046,0.390625 0.0859,0.2226562 0.1211,0.4804687 h 0.72265 q -0.0469,-0.40625 -0.19531,-0.7421875 -0.14453,-0.3359375 -0.38672,-0.578125 -0.24218,-0.2382812 -0.57812,-0.3671875 -0.33594,-0.1328125 -0.76172,-0.1328125 -0.35547,0 -0.64063,0.1015625 -0.28515,0.097656 -0.50781,0.2734375 -0.22656,0.1757813 -0.39062,0.4179688 -0.16016,0.2382812 -0.26563,0.5195312 -0.10937,0.28125 -0.16406,0.5898438 -0.0508,0.3085937 -0.0547,0.625 v 0.7929687 q 0.004,0.3164063 0.0547,0.625 0.0547,0.3085938 0.16406,0.5898435 0.10547,0.28125 0.26563,0.519532 0.16406,0.238281 0.39062,0.414062 0.22266,0.175781 0.50781,0.277344 0.28907,0.09766 0.64063,0.09766 0.41016,0 0.74219,-0.128906 0.33593,-0.132813 0.58203,-0.371094 0.24219,-0.234375 0.39453,-0.5625 0.15234,-0.332031 0.20312,-0.7265625 z"
       style="font-family:'Roboto Mono';-inkscape-font-specification:'Roboto Mono'"
       id="path1097" /><path
       d="m 145.1769,9.7982435 h -0.72266 q -0.0352,0.2578125 -0.12109,0.4804685 -0.0859,0.21875 -0.23047,0.378907 -0.14453,0.164062 -0.35547,0.253906 -0.20703,0.08984 -0.49219,0.08984 -0.26172,0 -0.45703,-0.08203 -0.19531,-0.08594 -0.33984,-0.234375 -0.14454,-0.144531 -0.23829,-0.335937 -0.0937,-0.191406 -0.15234,-0.4101565 -0.0586,-0.2148437 -0.0859,-0.4375 -0.0234,-0.2265625 -0.0234,-0.4375 V 8.2630873 q 0,-0.2109375 0.0234,-0.4335938 0.0273,-0.2265625 0.0859,-0.4414062 0.0586,-0.2148438 0.15234,-0.40625 0.0977,-0.1914063 0.24219,-0.3359375 0.14063,-0.1445313 0.33594,-0.2265625 0.19922,-0.085937 0.45703,-0.085937 0.28516,0 0.49219,0.097656 0.21094,0.09375 0.35547,0.2617188 0.14453,0.1679687 0.23047,0.390625 0.0859,0.2226562 0.12109,0.4804687 h 0.72266 q -0.0469,-0.40625 -0.19532,-0.7421875 -0.14453,-0.3359375 -0.38672,-0.578125 -0.24218,-0.2382812 -0.57812,-0.3671875 -0.33594,-0.1328125 -0.76172,-0.1328125 -0.35547,0 -0.64062,0.1015625 -0.28516,0.097656 -0.50782,0.2734375 -0.22656,0.1757813 -0.39062,0.4179688 -0.16016,0.2382812 -0.26563,0.5195312 -0.10937,0.28125 -0.16406,0.5898438 -0.0508,0.3085937 -0.0547,0.625 v 0.7929687 q 0.004,0.3164063 0.0547,0.625 0.0547,0.3085938 0.16406,0.5898435 0.10547,0.28125 0.26563,0.519532 0.16406,0.238281 0.39062,0.414062 0.22266,0.175781 0.50782,0.277344 0.28906,0.09766 0.64062,0.09766 0.41016,0 0.74219,-0.128906 0.33594,-0.132813 0.58203,-0.371094 0.24219,-0.234375 0.39453,-0.5625 0.15234,-0.332031 0.20313,-0.7265625 z"
       style="font-family:'Roboto Mono';-inkscape-font-specification:'Roboto Mono'"
       id="path1099" /><path
       d="m 148.63783,11.509181 v -5.6875 h -0.0586 l -2.15234,0.828125 v 0.6601563 l 1.48828,-0.5664063 v 4.765625 z"
       style="font-family:'Roboto Mono';-inkscape-font-specification:'Roboto Mono'"
       id="path1101" /></g></g><g
   id="g38933"><path
     id="rect1583-52"
     style="stroke:#000000;stroke-width:0.8"
     d="m 326.6506,1.6022341 h 23.04833 V 15.728628 H 326.6506 Z" /><g
     aria-label="GND"
     id="text4325-04-9"
     style="font-size:8px;line-height:1.25;fill:#ffffff"><path
       d="m 335.31931,10.762999 -0.0117,-2.0859379 h -1.84375 v 0.609375 h 1.15625 l -0.008,1.2773439 q -0.0898,0.128906 -0.22265,0.210937 -0.13281,0.07813 -0.28516,0.125 -0.15234,0.04687 -0.3164,0.0625 -0.16016,0.01563 -0.3086,0.01172 -0.25781,-0.0039 -0.46094,-0.08984 -0.20312,-0.08984 -0.35546,-0.238281 -0.15625,-0.148437 -0.26563,-0.34375 -0.10937,-0.195312 -0.17969,-0.4140624 -0.0703,-0.21875 -0.10547,-0.4453125 -0.0312,-0.2304688 -0.0352,-0.4453125 V 8.3294048 q 0,-0.2109375 0.0273,-0.4375 0.0273,-0.2265625 0.0898,-0.4453125 0.0625,-0.21875 0.16015,-0.4140625 0.0977,-0.1992187 0.2461,-0.3476562 0.14843,-0.1484375 0.34765,-0.234375 0.19922,-0.089844 0.45703,-0.089844 0.26953,0 0.47266,0.085937 0.20312,0.082031 0.35156,0.2304688 0.14453,0.1484375 0.23438,0.359375 0.0898,0.2070312 0.13281,0.453125 h 0.71484 q -0.0351,-0.3984375 -0.1875,-0.71875 -0.15234,-0.3242188 -0.40234,-0.5546875 -0.25,-0.2265625 -0.58594,-0.3476563 -0.33594,-0.125 -0.73437,-0.125 -0.35938,0 -0.64844,0.1054688 -0.28906,0.1054687 -0.51563,0.2851562 -0.23046,0.1835938 -0.39453,0.4335938 -0.16406,0.2460937 -0.27343,0.5351562 -0.10938,0.2890625 -0.16407,0.6054688 -0.0508,0.3125 -0.0547,0.6289062 v 0.6601563 q 0.004,0.3203125 0.0625,0.6367187 0.0625,0.3125 0.18359,0.5976567 0.11719,0.289062 0.29297,0.535156 0.17578,0.246094 0.41015,0.425781 0.23438,0.183594 0.52735,0.289063 0.29687,0.101562 0.64844,0.105468 0.34765,0.0039 0.66406,-0.07813 0.3164,-0.07813 0.58984,-0.242187 0.16016,-0.09375 0.3086,-0.21875 0.14843,-0.128906 0.28125,-0.285156 z"
       style="font-family:'Roboto Mono';-inkscape-font-specification:'Roboto Mono'"
       id="path1089" /><path
       d="M 340.0029,11.509092 V 5.8215923 h -0.73047 l -0.0117,4.2421877 -2.20703,-4.2421877 h -0.73437 v 5.6874997 h 0.73046 l 0.0117,-4.2499997 2.20703,4.2499997 z"
       style="font-family:'Roboto Mono';-inkscape-font-specification:'Roboto Mono'"
       id="path1091" /><path
       d="m 341.16696,11.509092 h 1.31641 q 0.41015,-0.0039 0.76172,-0.09766 0.35547,-0.09375 0.63672,-0.269531 0.26562,-0.167969 0.48046,-0.40625 0.21485,-0.238281 0.35547,-0.53125 0.13672,-0.2812502 0.20703,-0.6171877 0.0742,-0.3359375 0.0742,-0.7109375 V 8.4583111 q -0.004,-0.390625 -0.082,-0.734375 -0.0742,-0.34375 -0.21875,-0.6328125 -0.16015,-0.3398438 -0.42969,-0.5976563 -0.26562,-0.2617187 -0.61328,-0.421875 -0.25,-0.1171875 -0.54687,-0.1796875 -0.29297,-0.066406 -0.625,-0.070312 h -1.31641 z m 0.73438,-5.0937497 h 0.58203 q 0.26953,0.00391 0.49609,0.0625 0.22656,0.054687 0.41016,0.15625 0.25781,0.1367188 0.43359,0.359375 0.17969,0.21875 0.28516,0.4921875 0.082,0.2109375 0.12109,0.4570313 0.043,0.2421875 0.0469,0.5078125 v 0.4257812 q -0.004,0.2617188 -0.043,0.5039063 -0.0391,0.2382812 -0.11719,0.4453125 -0.0898,0.2539064 -0.24609,0.4609374 -0.15235,0.203125 -0.36328,0.34375 -0.19922,0.136719 -0.45704,0.210938 -0.2539,0.07422 -0.5664,0.07813 h -0.58203 z"
       style="font-family:'Roboto Mono';-inkscape-font-specification:'Roboto Mono'"
       id="path1093" /></g></g><g
   id="g38943"><path
     id="rect1583-52-6"
     style="stroke:#000000;stroke-width:0.8"
     d="m 326.46472,23.907064 h 23.04833 v 14.126395 h -23.04833 z" /><g
     aria-label="GND"
     id="text4325-04-9-3"
     style="font-size:8px;line-height:1.25;fill:#ffffff"><path
       d="m 335.13342,33.067829 -0.0117,-2.085937 h -1.84375 v 0.609375 h 1.15625 l -0.008,1.277343 q -0.0898,0.128907 -0.22265,0.210938 -0.13282,0.07813 -0.28516,0.125 -0.15234,0.04687 -0.31641,0.0625 -0.16015,0.01563 -0.30859,0.01172 -0.25781,-0.0039 -0.46094,-0.08984 -0.20312,-0.08984 -0.35547,-0.238281 -0.15625,-0.148438 -0.26562,-0.34375 -0.10938,-0.195313 -0.17969,-0.414063 -0.0703,-0.21875 -0.10547,-0.445312 -0.0312,-0.230469 -0.0352,-0.445313 v -0.667969 q 0,-0.210937 0.0273,-0.4375 0.0273,-0.226562 0.0898,-0.445312 0.0625,-0.21875 0.16016,-0.414063 0.0977,-0.199218 0.24609,-0.347656 0.14844,-0.148437 0.34766,-0.234375 0.19922,-0.08984 0.45703,-0.08984 0.26953,0 0.47266,0.08594 0.20312,0.08203 0.35156,0.230469 0.14453,0.148437 0.23437,0.359375 0.0899,0.207031 0.13282,0.453125 h 0.71484 q -0.0352,-0.398438 -0.1875,-0.71875 -0.15234,-0.324219 -0.40234,-0.554688 -0.25,-0.226562 -0.58594,-0.347656 -0.33594,-0.125 -0.73438,-0.125 -0.35937,0 -0.64843,0.105469 -0.28907,0.105468 -0.51563,0.285156 -0.23047,0.183594 -0.39453,0.433594 -0.16406,0.246093 -0.27344,0.535156 -0.10937,0.289062 -0.16406,0.605469 -0.0508,0.3125 -0.0547,0.628906 v 0.660156 q 0.004,0.320313 0.0625,0.636719 0.0625,0.3125 0.1836,0.597656 0.11718,0.289063 0.29297,0.535156 0.17578,0.246094 0.41015,0.425782 0.23438,0.183593 0.52735,0.289062 0.29687,0.101563 0.64843,0.105469 0.34766,0.0039 0.66407,-0.07813 0.3164,-0.07813 0.58984,-0.242188 0.16016,-0.09375 0.30859,-0.21875 0.14844,-0.128906 0.28125,-0.285156 z"
       style="font-family:'Roboto Mono';-inkscape-font-specification:'Roboto Mono'"
       id="path1081" /><path
       d="m 339.81702,33.813923 v -5.6875 h -0.73047 l -0.0117,4.242187 -2.20703,-4.242187 h -0.73438 v 5.6875 h 0.73047 l 0.0117,-4.25 2.20703,4.25 z"
       style="font-family:'Roboto Mono';-inkscape-font-specification:'Roboto Mono'"
       id="path1083" /><path
       d="m 340.98108,33.813923 h 1.31641 q 0.41015,-0.0039 0.76171,-0.09766 0.35547,-0.09375 0.63672,-0.269532 0.26563,-0.167968 0.48047,-0.40625 0.21485,-0.238281 0.35547,-0.53125 0.13672,-0.28125 0.20703,-0.617187 0.0742,-0.335938 0.0742,-0.710938 v -0.417968 q -0.004,-0.390625 -0.082,-0.734375 -0.0742,-0.34375 -0.21875,-0.632813 -0.16016,-0.339844 -0.42969,-0.597656 -0.26562,-0.261719 -0.61328,-0.421875 -0.25,-0.117188 -0.54687,-0.179688 -0.29297,-0.06641 -0.625,-0.07031 h -1.31641 z m 0.73437,-5.09375 h 0.58204 q 0.26953,0.0039 0.49609,0.0625 0.22656,0.05469 0.41016,0.15625 0.25781,0.136719 0.43359,0.359375 0.17969,0.21875 0.28516,0.492187 0.082,0.210938 0.12109,0.457032 0.043,0.242187 0.0469,0.507812 v 0.425781 q -0.004,0.261719 -0.043,0.503907 -0.0391,0.238281 -0.11719,0.445312 -0.0899,0.253906 -0.2461,0.460938 -0.15234,0.203125 -0.36328,0.34375 -0.19922,0.136718 -0.45703,0.210937 -0.2539,0.07422 -0.5664,0.07813 h -0.58204 z"
       style="font-family:'Roboto Mono';-inkscape-font-specification:'Roboto Mono'"
       id="path1085" /></g></g><g
   aria-label="GND"
   id="text4325-04-9-0"
   style="font-size:8px;line-height:1.25;fill:#ffffff"><path
     d="m 27.698406,33.067829 -0.01172,-2.085937 h -1.84375 v 0.609375 h 1.15625 l -0.0078,1.277343 q -0.08984,0.128907 -0.222656,0.210938 -0.132813,0.07813 -0.285157,0.125 -0.152343,0.04687 -0.316406,0.0625 -0.160156,0.01563 -0.308594,0.01172 -0.257812,-0.0039 -0.460937,-0.08984 -0.203125,-0.08984 -0.355469,-0.238281 -0.15625,-0.148438 -0.265625,-0.34375 -0.109375,-0.195313 -0.179687,-0.414063 -0.07031,-0.21875 -0.105469,-0.445312 -0.03125,-0.230469 -0.03516,-0.445313 v -0.667969 q 0,-0.210937 0.02734,-0.4375 0.02734,-0.226562 0.08984,-0.445312 0.0625,-0.21875 0.160156,-0.414063 0.09766,-0.199218 0.246094,-0.347656 0.148438,-0.148437 0.347656,-0.234375 0.199219,-0.08984 0.457032,-0.08984 0.269531,0 0.472656,0.08594 0.203125,0.08203 0.351562,0.230469 0.144532,0.148437 0.234375,0.359375 0.08984,0.207031 0.132813,0.453125 h 0.714844 q -0.03516,-0.398438 -0.1875,-0.71875 -0.152344,-0.324219 -0.402344,-0.554688 -0.25,-0.226562 -0.585938,-0.347656 -0.335937,-0.125 -0.734375,-0.125 -0.359375,0 -0.648437,0.105469 -0.289063,0.105468 -0.515625,0.285156 -0.230469,0.183594 -0.394531,0.433594 -0.164063,0.246093 -0.273438,0.535156 -0.109375,0.289062 -0.164062,0.605469 -0.05078,0.3125 -0.05469,0.628906 v 0.660156 q 0.0039,0.320313 0.0625,0.636719 0.0625,0.3125 0.183594,0.597656 0.117187,0.289063 0.292969,0.535156 0.175781,0.246094 0.410156,0.425782 0.234375,0.183593 0.527344,0.289062 0.296875,0.101563 0.648437,0.105469 0.347656,0.0039 0.664063,-0.07813 0.316406,-0.07813 0.589843,-0.242188 0.160157,-0.09375 0.308594,-0.21875 0.148438,-0.128906 0.28125,-0.285156 z"
     style="font-family:'Roboto Mono';-inkscape-font-specification:'Roboto Mono'"
     id="path1073" /><path
     d="m 32.382,33.813923 v -5.6875 h -0.730469 l -0.01172,4.242187 -2.207031,-4.242187 h -0.734375 v 5.6875 h 0.730469 l 0.01172,-4.25 2.207031,4.25 z"
     style="font-family:'Roboto Mono';-inkscape-font-specification:'Roboto Mono'"
     id="path1075" /><path
     d="m 33.546062,33.813923 h 1.316407 q 0.410156,-0.0039 0.761718,-0.09766 0.355469,-0.09375 0.636719,-0.269532 0.265625,-0.167968 0.480469,-0.40625 0.214844,-0.238281 0.355469,-0.53125 0.136718,-0.28125 0.207031,-0.617187 0.07422,-0.335938 0.07422,-0.710938 v -0.417968 q -0.0039,-0.390625 -0.08203,-0.734375 -0.07422,-0.34375 -0.21875,-0.632813 -0.160156,-0.339844 -0.429687,-0.597656 -0.265625,-0.261719 -0.613281,-0.421875 -0.25,-0.117188 -0.546875,-0.179688 -0.292969,-0.06641 -0.625,-0.07031 h -1.316407 z m 0.734375,-5.09375 h 0.582032 q 0.269531,0.0039 0.496093,0.0625 0.226563,0.05469 0.410157,0.15625 0.257812,0.136719 0.433593,0.359375 0.179688,0.21875 0.285157,0.492187 0.08203,0.210938 0.121093,0.457032 0.04297,0.242187 0.04687,0.507812 v 0.425781 q -0.0039,0.261719 -0.04297,0.503907 -0.03906,0.238281 -0.117188,0.445312 -0.08984,0.253906 -0.246094,0.460938 -0.152343,0.203125 -0.363281,0.34375 -0.199219,0.136718 -0.457031,0.210937 -0.253906,0.07422 -0.566406,0.07813 h -0.582032 z"
     style="font-family:'Roboto Mono';-inkscape-font-specification:'Roboto Mono'"
     id="path1077" /></g><g
   aria-label="GND"
   id="text4325-04-9-6"
   style="font-size:8px;line-height:1.25;fill:#ffffff"><path
     d="m 27.884308,10.762999 -0.01172,-2.0859379 h -1.84375 v 0.609375 h 1.15625 l -0.0078,1.2773439 q -0.08984,0.128906 -0.222657,0.210937 -0.132812,0.07813 -0.285156,0.125 -0.152344,0.04687 -0.316406,0.0625 -0.160156,0.01563 -0.308594,0.01172 -0.257812,-0.0039 -0.460937,-0.08984 -0.203125,-0.08984 -0.355469,-0.238281 -0.15625,-0.148437 -0.265625,-0.34375 -0.109375,-0.195312 -0.179688,-0.4140624 -0.07031,-0.21875 -0.105468,-0.4453125 -0.03125,-0.2304688 -0.03516,-0.4453125 V 8.3294048 q 0,-0.2109375 0.02734,-0.4375 0.02734,-0.2265625 0.08984,-0.4453125 0.0625,-0.21875 0.160156,-0.4140625 0.09766,-0.1992187 0.246094,-0.3476562 0.148437,-0.1484375 0.347656,-0.234375 0.199219,-0.089844 0.457031,-0.089844 0.269532,0 0.472657,0.085937 0.203125,0.082031 0.351562,0.2304688 0.144531,0.1484375 0.234375,0.359375 0.08984,0.2070312 0.132813,0.453125 h 0.714843 q -0.03516,-0.3984375 -0.1875,-0.71875 -0.152343,-0.3242188 -0.402343,-0.5546875 -0.25,-0.2265625 -0.585938,-0.3476563 -0.335937,-0.125 -0.734375,-0.125 -0.359375,0 -0.648437,0.1054688 -0.289063,0.1054687 -0.515625,0.2851562 -0.230469,0.1835938 -0.394532,0.4335938 -0.164062,0.2460937 -0.273437,0.5351562 -0.109375,0.2890625 -0.164063,0.6054688 -0.05078,0.3125 -0.05469,0.6289062 v 0.6601563 q 0.0039,0.3203125 0.0625,0.6367187 0.0625,0.3125 0.183594,0.5976567 0.117187,0.289062 0.292968,0.535156 0.175782,0.246094 0.410157,0.425781 0.234375,0.183594 0.527343,0.289063 0.296875,0.101562 0.648438,0.105468 0.347656,0.0039 0.664062,-0.07813 0.316407,-0.07813 0.589844,-0.242187 0.160156,-0.09375 0.308594,-0.21875 0.148437,-0.128906 0.28125,-0.285156 z"
     style="font-family:'Roboto Mono';-inkscape-font-specification:'Roboto Mono'"
     id="path1066" /><path
     d="M 32.567902,11.509092 V 5.8215923 H 31.837433 L 31.825714,10.06378 29.618683,5.8215923 h -0.734375 v 5.6874997 h 0.730469 l 0.01172,-4.2499997 2.207032,4.2499997 z"
     style="font-family:'Roboto Mono';-inkscape-font-specification:'Roboto Mono'"
     id="path1068" /><path
     d="m 33.731964,11.509092 h 1.316406 q 0.410157,-0.0039 0.761719,-0.09766 0.355469,-0.09375 0.636719,-0.269531 0.265625,-0.167969 0.480469,-0.40625 0.214843,-0.238281 0.355468,-0.53125 0.136719,-0.2812502 0.207032,-0.6171877 0.07422,-0.3359375 0.07422,-0.7109375 V 8.4583111 q -0.0039,-0.390625 -0.08203,-0.734375 -0.07422,-0.34375 -0.21875,-0.6328125 -0.160156,-0.3398438 -0.429687,-0.5976563 -0.265625,-0.2617187 -0.613282,-0.421875 -0.25,-0.1171875 -0.546875,-0.1796875 -0.292968,-0.066406 -0.625,-0.070312 h -1.316406 z m 0.734375,-5.0937497 h 0.582031 q 0.269532,0.00391 0.496094,0.0625 0.226563,0.054687 0.410156,0.15625 0.257813,0.1367188 0.433594,0.359375 0.179688,0.21875 0.285156,0.4921875 0.08203,0.2109375 0.121094,0.4570313 0.04297,0.2421875 0.04687,0.5078125 v 0.4257812 q -0.0039,0.2617188 -0.04297,0.5039063 -0.03906,0.2382812 -0.117187,0.4453125 -0.08984,0.2539064 -0.246094,0.4609374 -0.152344,0.203125 -0.363281,0.34375 -0.199219,0.136719 -0.457031,0.210938 -0.253907,0.07422 -0.566407,0.07813 h -0.582031 z"
     style="font-family:'Roboto Mono';-inkscape-font-specification:'Roboto Mono'"
     id="path1070" /></g><g
   id="g38843"><path
     id="rect1583-1"
     style="fill:#63cedc;stroke:#000000;stroke-width:0.8"
     d="M 47.164249,1.6022341 H 70.212576 V 15.728628 H 47.164249 Z" /><g
     aria-label="TX1+"
     id="text4325-04-9-6-7"
     style="font-size:8px;line-height:1.25;fill:#ffffff"><path
       d="M 53.672787,6.4388685 V 5.821681 h -4.21875 v 0.6171875 h 1.757812 v 5.0703125 h 0.703125 V 6.4388685 Z"
       style="font-family:'Roboto Mono';-inkscape-font-specification:'Roboto Mono';fill:#000000"
       id="path1057" /><path
       d="M 56.399349,8.0521498 55.188412,5.821681 h -0.847657 l 1.652344,2.8203125 -1.695312,2.8671875 h 0.855468 l 1.261719,-2.2734375 1.257813,2.2734375 h 0.84375 L 56.82513,8.6419935 58.477474,5.821681 h -0.851562 z"
       style="font-family:'Roboto Mono';-inkscape-font-specification:'Roboto Mono';fill:#000000"
       id="path1059" /><path
       d="m 61.782162,11.509181 v -5.6875 h -0.05859 L 59.571224,6.649806 V 7.3099623 L 61.059505,6.743556 v 4.765625 z"
       style="font-family:'Roboto Mono';-inkscape-font-specification:'Roboto Mono';fill:#000000"
       id="path1061" /><path
       d="M 66.332943,8.4583998 V 6.7982435 h -0.722656 v 1.6601563 h -1.585938 v 0.71875 h 1.585938 v 1.7617192 h 0.722656 V 9.1771498 h 1.589844 v -0.71875 z"
       style="font-family:'Roboto Mono';-inkscape-font-specification:'Roboto Mono';fill:#000000"
       id="path1063" /></g></g><g
   id="g38858"><path
     id="rect1583-3"
     style="fill:#63cedc;stroke:#000000;stroke-width:0.8"
     d="M 75.112877,1.6022341 H 98.161203 V 15.728628 H 75.112877 Z" /><g
     aria-label="TX1-"
     id="text4325-04-9-6-7-7"
     style="font-size:8px;line-height:1.25;fill:#ffffff"><path
       d="M 81.883133,6.4388685 V 5.821681 h -4.21875 v 0.6171875 h 1.757812 V 11.509181 H 80.12532 V 6.4388685 Z"
       style="font-family:'Roboto Mono';-inkscape-font-specification:'Roboto Mono';fill:#000000"
       id="path1047" /><path
       d="M 84.609695,8.0521498 83.398758,5.821681 h -0.847656 l 1.652343,2.8203125 -1.695312,2.8671875 h 0.855469 l 1.261718,-2.2734375 1.257813,2.2734375 h 0.84375 L 85.035477,8.6419935 86.68782,5.821681 h -0.851562 z"
       style="font-family:'Roboto Mono';-inkscape-font-specification:'Roboto Mono';fill:#000000"
       id="path1049" /><path
       d="m 89.992508,11.509181 v -5.6875 h -0.05859 L 87.78157,6.649806 V 7.3099623 L 89.269852,6.743556 v 4.765625 z"
       style="font-family:'Roboto Mono';-inkscape-font-specification:'Roboto Mono';fill:#000000"
       id="path1051" /><path
       d="m 95.609695,9.3177748 v -0.59375 h -2.988281 v 0.59375 z"
       style="font-family:'Roboto Mono';-inkscape-font-specification:'Roboto Mono';fill:#000000"
       id="path1053" /></g></g><g
   id="g38848"><path
     id="rect1583-1-2"
     style="fill:#63cedc;stroke:#000000;stroke-width:0.8"
     d="M 46.978348,23.907064 H 70.026674 V 38.033459 H 46.978348 Z" /><g
     aria-label="RX1+"
     id="text4325-04-9-6-7-0"
     style="font-size:8px;line-height:1.25;fill:#ffffff"><path
       d="m 51.328682,31.493698 1.117187,2.320313 h 0.761719 l 0.0039,-0.04687 -1.207031,-2.429688 q 0.234375,-0.101562 0.429688,-0.246094 0.195312,-0.144531 0.335937,-0.332031 0.140625,-0.1875 0.21875,-0.417969 0.08203,-0.230468 0.08203,-0.507812 0,-0.429688 -0.152343,-0.746094 -0.148438,-0.320312 -0.410157,-0.53125 -0.265625,-0.210937 -0.617187,-0.316406 -0.351563,-0.105469 -0.75,-0.113281 h -1.667969 v 5.6875 h 0.71875 v -2.320313 z m -1.136719,-0.59375 v -2.179687 h 0.949219 q 0.261719,0.0039 0.480469,0.07422 0.222656,0.07031 0.382812,0.207032 0.160156,0.140625 0.25,0.347656 0.08984,0.203125 0.08984,0.476562 0,0.257813 -0.09375,0.457032 -0.09375,0.195312 -0.253906,0.332031 -0.164063,0.136719 -0.378907,0.210937 -0.214843,0.07031 -0.457031,0.07422 z"
       style="font-family:'Roboto Mono';-inkscape-font-specification:'Roboto Mono';fill:#000000"
       id="path1037" /><path
       d="m 56.008369,30.356979 -1.210937,-2.230468 h -0.847656 l 1.652343,2.820312 -1.695312,2.867188 h 0.855469 l 1.261718,-2.273438 1.257813,2.273438 h 0.84375 l -1.691406,-2.867188 1.652343,-2.820312 h -0.851562 z"
       style="font-family:'Roboto Mono';-inkscape-font-specification:'Roboto Mono';fill:#000000"
       id="path1039" /><path
       d="m 61.391182,33.814011 v -5.6875 h -0.05859 l -2.152344,0.828125 v 0.660156 l 1.488282,-0.566406 v 4.765625 z"
       style="font-family:'Roboto Mono';-inkscape-font-specification:'Roboto Mono';fill:#000000"
       id="path1041" /><path
       d="m 65.941963,30.763229 v -1.660156 h -0.722656 v 1.660156 h -1.585938 v 0.71875 h 1.585938 v 1.761719 h 0.722656 v -1.761719 h 1.589844 v -0.71875 z"
       style="font-family:'Roboto Mono';-inkscape-font-specification:'Roboto Mono';fill:#000000"
       id="path1043" /></g></g><g
   id="g38853"><path
     id="rect1583-3-1"
     style="fill:#63cedc;stroke:#000000;stroke-width:0.8"
     d="M 74.926979,23.907064 H 97.975306 V 38.033459 H 74.926979 Z" /><g
     aria-label="RX1-"
     id="text4325-04-9-6-7-6"
     style="font-size:8px;line-height:1.25;fill:#ffffff"><path
       d="m 79.539032,31.493698 1.117187,2.320313 h 0.761719 l 0.0039,-0.04687 -1.207031,-2.429688 q 0.234375,-0.101562 0.429688,-0.246094 0.195312,-0.144531 0.335937,-0.332031 0.140625,-0.1875 0.21875,-0.417969 0.08203,-0.230468 0.08203,-0.507812 0,-0.429688 -0.152343,-0.746094 -0.148438,-0.320312 -0.410157,-0.53125 -0.265625,-0.210937 -0.617187,-0.316406 -0.351563,-0.105469 -0.75,-0.113281 h -1.667969 v 5.6875 h 0.71875 v -2.320313 z m -1.136719,-0.59375 v -2.179687 h 0.949219 q 0.261719,0.0039 0.480469,0.07422 0.222656,0.07031 0.382812,0.207032 0.160156,0.140625 0.25,0.347656 0.08984,0.203125 0.08984,0.476562 0,0.257813 -0.09375,0.457032 -0.09375,0.195312 -0.253906,0.332031 -0.164063,0.136719 -0.378907,0.210937 -0.214843,0.07031 -0.457031,0.07422 z"
       style="font-family:'Roboto Mono';-inkscape-font-specification:'Roboto Mono';fill:#000000"
       id="path1027" /><path
       d="m 84.218719,30.356979 -1.210937,-2.230468 h -0.847656 l 1.652343,2.820312 -1.695312,2.867188 h 0.855469 l 1.261718,-2.273438 1.257813,2.273438 h 0.84375 l -1.691406,-2.867188 1.652343,-2.820312 h -0.851562 z"
       style="font-family:'Roboto Mono';-inkscape-font-specification:'Roboto Mono';fill:#000000"
       id="path1029" /><path
       d="m 89.601532,33.814011 v -5.6875 h -0.05859 l -2.152344,0.828125 v 0.660156 l 1.488282,-0.566406 v 4.765625 z"
       style="font-family:'Roboto Mono';-inkscape-font-specification:'Roboto Mono';fill:#000000"
       id="path1031" /><path
       d="m 95.218719,31.622604 v -0.59375 h -2.988281 v 0.59375 z"
       style="font-family:'Roboto Mono';-inkscape-font-specification:'Roboto Mono';fill:#000000"
       id="path1033" /></g></g><g
   id="g38923"><path
     id="rect1583-0"
     style="fill:#63cedc;stroke:#000000;stroke-width:0.8"
     d="m 270.75333,1.6022341 h 23.04832 V 15.728628 h -23.04832 z" /><g
     aria-label="RX2-"
     id="text4325-04-9-6-7-75"
     style="font-size:8px;line-height:1.25;fill:#ffffff"><path
       d="m 275.36539,9.227932 1.11718,2.320312 h 0.76172 l 0.004,-0.04687 -1.20703,-2.429687 q 0.23437,-0.1015625 0.42969,-0.2460938 0.19531,-0.1445312 0.33593,-0.3320312 0.14063,-0.1875 0.21875,-0.4179688 0.082,-0.2304687 0.082,-0.5078125 0,-0.4296875 -0.15234,-0.7460937 -0.14844,-0.3203125 -0.41016,-0.53125 -0.26562,-0.2109375 -0.61718,-0.3164063 -0.35157,-0.1054687 -0.75,-0.1132812 h -1.66797 v 5.6874995 h 0.71875 V 9.227932 Z m -1.13672,-0.59375 V 6.4544945 h 0.94922 q 0.26172,0.00391 0.48047,0.074219 0.22265,0.070312 0.38281,0.2070313 0.16015,0.140625 0.25,0.3476562 0.0898,0.203125 0.0898,0.4765625 0,0.2578125 -0.0937,0.4570313 -0.0937,0.1953125 -0.2539,0.3320312 -0.16407,0.1367188 -0.37891,0.2109375 -0.21484,0.070312 -0.45703,0.074219 z"
       style="font-family:'Roboto Mono';-inkscape-font-specification:'Roboto Mono';fill:#000000"
       id="path1017" /><path
       d="m 280.04507,8.0912132 -1.21093,-2.2304687 h -0.84766 l 1.65234,2.8203125 -1.69531,2.867187 h 0.85547 l 1.26172,-2.273437 1.25781,2.273437 h 0.84375 l -1.6914,-2.867187 1.65234,-2.8203125 h -0.85156 z"
       style="font-family:'Roboto Mono';-inkscape-font-specification:'Roboto Mono';fill:#000000"
       id="path1019" /><path
       d="m 286.57242,11.548244 v -0.589843 h -2.85547 l 1.52734,-1.6562503 q 0.21485,-0.234375 0.40625,-0.46875 0.19532,-0.2382812 0.34375,-0.4804687 0.14453,-0.2421875 0.23047,-0.4882813 0.0859,-0.25 0.0859,-0.5039062 0,-0.3398438 -0.12109,-0.6289063 -0.11719,-0.2890625 -0.33985,-0.5 -0.22265,-0.2109375 -0.54687,-0.328125 -0.32032,-0.1210937 -0.72266,-0.1210937 -0.4375,0 -0.78125,0.140625 -0.33984,0.140625 -0.57422,0.3789062 -0.23828,0.2382813 -0.36328,0.5585938 -0.125,0.3164062 -0.125,0.6757812 h 0.72656 q 0,-0.265625 0.0664,-0.4804687 0.0703,-0.2148438 0.21094,-0.3671875 0.13672,-0.1484375 0.34375,-0.2304688 0.21093,-0.082031 0.49609,-0.082031 0.23438,0 0.41797,0.082031 0.1875,0.078125 0.32031,0.2148438 0.12891,0.1367187 0.19531,0.3242187 0.0703,0.1835938 0.0703,0.3945313 0,0.171875 -0.043,0.3359375 -0.043,0.1601562 -0.14453,0.3398437 -0.10157,0.1835938 -0.26953,0.3984375 -0.16797,0.2148438 -0.41797,0.4921875 l -1.86328,2.0703123 v 0.519531 z"
       style="font-family:'Roboto Mono';-inkscape-font-specification:'Roboto Mono';fill:#000000"
       id="path1021" /><path
       d="m 291.04507,9.3568382 v -0.59375 h -2.98828 v 0.59375 z"
       style="font-family:'Roboto Mono';-inkscape-font-specification:'Roboto Mono';fill:#000000"
       id="path1023" /></g></g><g
   id="g38928"><path
     id="rect1583-02"
     style="fill:#63cedc;stroke:#000000;stroke-width:0.8"
     d="m 298.70197,1.6022341 h 23.04832 V 15.728628 h -23.04832 z" /><g
     aria-label="RX2+"
     id="text4325-04-9-6-7-3"
     style="font-size:8px;line-height:1.25;fill:#ffffff"><path
       d="m 303.05231,9.227932 1.11718,2.320312 h 0.76172 l 0.004,-0.04687 -1.20703,-2.429687 q 0.23437,-0.1015625 0.42969,-0.2460938 0.19531,-0.1445312 0.33593,-0.3320312 0.14063,-0.1875 0.21875,-0.4179688 0.082,-0.2304687 0.082,-0.5078125 0,-0.4296875 -0.15234,-0.7460937 -0.14844,-0.3203125 -0.41016,-0.53125 -0.26562,-0.2109375 -0.61718,-0.3164063 -0.35157,-0.1054687 -0.75,-0.1132812 h -1.66797 v 5.6874995 h 0.71875 V 9.227932 Z m -1.13672,-0.59375 V 6.4544945 h 0.94922 q 0.26172,0.00391 0.48047,0.074219 0.22265,0.070312 0.38281,0.2070313 0.16015,0.140625 0.25,0.3476562 0.0898,0.203125 0.0898,0.4765625 0,0.2578125 -0.0937,0.4570313 -0.0937,0.1953125 -0.2539,0.3320312 -0.16407,0.1367188 -0.37891,0.2109375 -0.21484,0.070312 -0.45703,0.074219 z"
       style="font-family:'Roboto Mono';-inkscape-font-specification:'Roboto Mono';fill:#000000"
       id="path1007" /><path
       d="m 307.73199,8.0912132 -1.21093,-2.2304687 h -0.84766 l 1.65234,2.8203125 -1.69531,2.867187 h 0.85547 l 1.26172,-2.273437 1.25781,2.273437 h 0.84375 l -1.6914,-2.867187 1.65234,-2.8203125 h -0.85156 z"
       style="font-family:'Roboto Mono';-inkscape-font-specification:'Roboto Mono';fill:#000000"
       id="path1009" /><path
       d="m 314.25934,11.548244 v -0.589843 h -2.85547 l 1.52734,-1.6562503 q 0.21485,-0.234375 0.40625,-0.46875 0.19532,-0.2382812 0.34375,-0.4804687 0.14453,-0.2421875 0.23047,-0.4882813 0.0859,-0.25 0.0859,-0.5039062 0,-0.3398438 -0.12109,-0.6289063 -0.11719,-0.2890625 -0.33985,-0.5 -0.22265,-0.2109375 -0.54687,-0.328125 -0.32032,-0.1210937 -0.72266,-0.1210937 -0.4375,0 -0.78125,0.140625 -0.33984,0.140625 -0.57422,0.3789062 -0.23828,0.2382813 -0.36328,0.5585938 -0.125,0.3164062 -0.125,0.6757812 h 0.72656 q 0,-0.265625 0.0664,-0.4804687 0.0703,-0.2148438 0.21094,-0.3671875 0.13672,-0.1484375 0.34375,-0.2304688 0.21093,-0.082031 0.49609,-0.082031 0.23438,0 0.41797,0.082031 0.1875,0.078125 0.32031,0.2148438 0.12891,0.1367187 0.19531,0.3242187 0.0703,0.1835938 0.0703,0.3945313 0,0.171875 -0.043,0.3359375 -0.043,0.1601562 -0.14453,0.3398437 -0.10157,0.1835938 -0.26953,0.3984375 -0.16797,0.2148438 -0.41797,0.4921875 l -1.86328,2.0703123 v 0.519531 z"
       style="font-family:'Roboto Mono';-inkscape-font-specification:'Roboto Mono';fill:#000000"
       id="path1011" /><path
       d="M 317.66559,8.4974632 V 6.837307 h -0.72266 v 1.6601562 h -1.58594 v 0.71875 h 1.58594 v 1.7617188 h 0.72266 V 9.2162132 h 1.58984 v -0.71875 z"
       style="font-family:'Roboto Mono';-inkscape-font-specification:'Roboto Mono';fill:#000000"
       id="path1013" /></g></g><g
   aria-label="TX2-"
   id="text4325-04-9-6-7-1"
   style="font-size:8px;line-height:1.25;fill:#ffffff"><path
     d="m 276.02527,29.000202 v -0.617187 h -4.21875 v 0.617187 h 1.75781 v 5.070313 h 0.70313 v -5.070313 z"
     style="font-family:'Roboto Mono';-inkscape-font-specification:'Roboto Mono';fill:#000000"
     id="path997" /><path
     d="m 278.75183,30.613483 -1.21094,-2.230468 h -0.84765 l 1.65234,2.820312 -1.69531,2.867188 h 0.85547 l 1.26172,-2.273438 1.25781,2.273438 h 0.84375 l -1.69141,-2.867188 1.65235,-2.820312 h -0.85157 z"
     style="font-family:'Roboto Mono';-inkscape-font-specification:'Roboto Mono';fill:#000000"
     id="path999" /><path
     d="m 285.27917,34.070515 v -0.589844 h -2.85546 l 1.52734,-1.65625 q 0.21484,-0.234375 0.40625,-0.46875 0.19531,-0.238281 0.34375,-0.480469 0.14453,-0.242187 0.23047,-0.488281 0.0859,-0.25 0.0859,-0.503906 0,-0.339844 -0.1211,-0.628907 -0.11719,-0.289062 -0.33984,-0.5 -0.22266,-0.210937 -0.54688,-0.328125 -0.32031,-0.121093 -0.72265,-0.121093 -0.4375,0 -0.78125,0.140625 -0.33985,0.140625 -0.57422,0.378906 -0.23828,0.238281 -0.36328,0.558594 -0.125,0.316406 -0.125,0.675781 h 0.72656 q 0,-0.265625 0.0664,-0.480469 0.0703,-0.214844 0.21093,-0.367187 0.13672,-0.148438 0.34375,-0.230469 0.21094,-0.08203 0.4961,-0.08203 0.23437,0 0.41797,0.08203 0.1875,0.07813 0.32031,0.214844 0.1289,0.136718 0.19531,0.324218 0.0703,0.183594 0.0703,0.394532 0,0.171875 -0.043,0.335937 -0.043,0.160156 -0.14453,0.339844 -0.10156,0.183594 -0.26953,0.398437 -0.16797,0.214844 -0.41797,0.492188 l -1.86328,2.070312 v 0.519532 z"
     style="font-family:'Roboto Mono';-inkscape-font-specification:'Roboto Mono';fill:#000000"
     id="path1001" /><path
     d="m 289.75183,31.879108 v -0.59375 h -2.98828 v 0.59375 z"
     style="font-family:'Roboto Mono';-inkscape-font-specification:'Roboto Mono';fill:#000000"
     id="path1003" /></g><g
   id="g38938"><path
     id="rect1583-02-5"
     style="fill:#63cedc;stroke:#000000;stroke-width:0.8"
     d="m 298.51608,23.907064 h 23.04833 v 14.126395 h -23.04833 z" /><g
     aria-label="TX2+"
     id="text4325-04-9-6-7-9"
     style="font-size:8px;line-height:1.25;fill:#ffffff"><path
       d="m 305.02463,28.782761 v -0.617188 h -4.21875 v 0.617188 h 1.75781 v 5.070312 h 0.70313 v -5.070312 z"
       style="font-family:'Roboto Mono';-inkscape-font-specification:'Roboto Mono';fill:#000000"
       id="path988" /><path
       d="m 307.75119,30.396042 -1.21094,-2.230469 h -0.84765 l 1.65234,2.820313 -1.69531,2.867187 h 0.85547 l 1.26172,-2.273437 1.25781,2.273437 h 0.84375 l -1.69141,-2.867187 1.65235,-2.820313 h -0.85157 z"
       style="font-family:'Roboto Mono';-inkscape-font-specification:'Roboto Mono';fill:#000000"
       id="path990" /><path
       d="m 314.27853,33.853073 v -0.589844 h -2.85546 l 1.52734,-1.65625 q 0.21484,-0.234375 0.40625,-0.46875 0.19531,-0.238281 0.34375,-0.480468 0.14453,-0.242188 0.23047,-0.488282 0.0859,-0.25 0.0859,-0.503906 0,-0.339844 -0.1211,-0.628906 -0.11719,-0.289063 -0.33984,-0.5 -0.22266,-0.210938 -0.54688,-0.328125 -0.32031,-0.121094 -0.72265,-0.121094 -0.4375,0 -0.78125,0.140625 -0.33985,0.140625 -0.57422,0.378906 -0.23828,0.238282 -0.36328,0.558594 -0.125,0.316406 -0.125,0.675781 h 0.72656 q 0,-0.265625 0.0664,-0.480468 0.0703,-0.214844 0.21093,-0.367188 0.13672,-0.148437 0.34375,-0.230469 0.21094,-0.08203 0.4961,-0.08203 0.23437,0 0.41797,0.08203 0.1875,0.07813 0.32031,0.214844 0.1289,0.136719 0.19531,0.324219 0.0703,0.183594 0.0703,0.394531 0,0.171875 -0.043,0.335938 -0.043,0.160156 -0.14453,0.339843 -0.10156,0.183594 -0.26953,0.398438 -0.16797,0.214844 -0.41797,0.492187 l -1.86328,2.070313 v 0.519531 z"
       style="font-family:'Roboto Mono';-inkscape-font-specification:'Roboto Mono';fill:#000000"
       id="path992" /><path
       d="m 317.68478,30.802292 v -1.660156 h -0.72265 v 1.660156 h -1.58594 v 0.71875 h 1.58594 v 1.761719 h 0.72265 v -1.761719 h 1.58985 v -0.71875 z"
       style="font-family:'Roboto Mono';-inkscape-font-specification:'Roboto Mono';fill:#000000"
       id="path994" /></g></g><g
   id="g38913"><path
     id="rect1583-34"
     style="fill:#ff0000;stroke:#000000;stroke-width:0.8"
     d="m 242.8047,1.6022341 h 23.04833 V 15.728628 H 242.8047 Z" /><g
     aria-label="VBUS"
     id="text4325-04-9-7"
     style="font-size:8px;line-height:1.25;fill:#ffffff"><path
       d="m 246.85817,11.509181 h 0.62891 l 1.79296,-5.6875 h -0.76953 l -1.25781,4.238281 -0.0859,0.285157 -0.082,-0.277344 -1.25,-4.246094 h -0.77344 z"
       style="font-family:'Roboto Mono';-inkscape-font-specification:'Roboto Mono'"
       id="path978" /><path
       d="m 250.25661,11.509181 h 1.82031 q 0.36328,-0.0039 0.70312,-0.113281 0.34375,-0.109375 0.60547,-0.316406 0.26172,-0.203125 0.41797,-0.507813 0.15625,-0.304687 0.15235,-0.703125 0,-0.2539062 -0.0781,-0.4726562 -0.0742,-0.21875 -0.21094,-0.3945313 -0.1289,-0.1601562 -0.32812,-0.2929687 -0.19922,-0.1328125 -0.41406,-0.1835938 v -0.011719 q 0.20703,-0.089844 0.35156,-0.1914063 0.14844,-0.1015625 0.26953,-0.25 0.11719,-0.1445312 0.18359,-0.328125 0.0703,-0.1835937 0.0742,-0.40625 0.004,-0.3984375 -0.15234,-0.6835937 -0.15625,-0.2851563 -0.41797,-0.46875 -0.26172,-0.1835938 -0.59766,-0.2695313 -0.33593,-0.089844 -0.6875,-0.09375 h -1.6914 z m 0.72656,-2.6601562 h 1.15234 q 0.23047,0.00781 0.42969,0.078125 0.19922,0.070312 0.34766,0.1992187 0.14843,0.1328125 0.23047,0.3203125 0.0859,0.1875 0.082,0.4296875 0,0.2382815 -0.0937,0.4257815 -0.0898,0.1875 -0.2461,0.316406 -0.15625,0.128906 -0.35937,0.203125 -0.20313,0.07031 -0.42969,0.07422 h -1.11328 z m 0,-0.6015625 V 6.4388685 h 0.98828 q 0.21094,0.00391 0.41016,0.054687 0.20312,0.050781 0.35937,0.15625 0.15235,0.109375 0.24219,0.2773438 0.0937,0.1679687 0.0937,0.40625 0,0.2226562 -0.0937,0.390625 -0.0937,0.1679687 -0.24609,0.28125 -0.15235,0.1171875 -0.34766,0.1796875 -0.19531,0.058594 -0.39844,0.0625 z"
       style="font-family:'Roboto Mono';-inkscape-font-specification:'Roboto Mono'"
       id="path980" /><path
       d="m 258.63551,5.821681 h -0.69922 l -0.0117,3.8515625 q -0.008,0.2539063 -0.082,0.4882815 -0.0742,0.234375 -0.21484,0.414062 -0.14453,0.183594 -0.35547,0.292969 -0.21094,0.105469 -0.48828,0.105469 -0.27734,0 -0.49219,-0.109375 -0.21093,-0.109375 -0.35156,-0.289063 -0.14453,-0.179687 -0.22266,-0.414062 -0.0742,-0.2343752 -0.0781,-0.4882815 l -0.0156,-3.8515625 h -0.6875 l -0.008,3.8515625 q 0.004,0.3984375 0.14063,0.7500005 0.13672,0.347656 0.3789,0.605468 0.24219,0.261719 0.58203,0.410157 0.33985,0.148437 0.75391,0.148437 0.40625,0 0.74609,-0.148437 0.33985,-0.152344 0.58594,-0.414063 0.2461,-0.257812 0.38672,-0.605469 0.14063,-0.347656 0.14063,-0.7460935 z"
       style="font-family:'Roboto Mono';-inkscape-font-specification:'Roboto Mono'"
       id="path982" /><path
       d="m 262.84254,10.071681 q 0,0.234375 -0.10156,0.40625 -0.10156,0.167969 -0.26172,0.277344 -0.16015,0.113281 -0.36718,0.167969 -0.20313,0.05078 -0.41407,0.05078 -0.26562,0 -0.49218,-0.07031 -0.22266,-0.07422 -0.39454,-0.21875 -0.17187,-0.140625 -0.28125,-0.34375 -0.10937,-0.207031 -0.14453,-0.472656 h -0.73828 q 0.0117,0.367188 0.16016,0.667969 0.15234,0.296875 0.41015,0.519531 0.28907,0.257813 0.67969,0.394531 0.39453,0.136719 0.80078,0.136719 0.33985,0 0.67969,-0.09375 0.33984,-0.09766 0.60938,-0.289062 0.26953,-0.1875 0.4375,-0.472657 0.17187,-0.285156 0.17187,-0.667968 0,-0.3789067 -0.16016,-0.6679692 -0.15625,-0.2890625 -0.41406,-0.4882813 -0.26172,-0.2148437 -0.57812,-0.3515625 -0.31641,-0.140625 -0.63282,-0.2382812 -0.1914,-0.058594 -0.41015,-0.1367188 -0.21485,-0.078125 -0.39844,-0.1953125 -0.1875,-0.1171875 -0.30859,-0.2851562 -0.1211,-0.171875 -0.125,-0.4179688 0,-0.2265625 0.0898,-0.3984375 0.0937,-0.171875 0.25,-0.2890625 0.15234,-0.1171875 0.34766,-0.1757812 0.19922,-0.058594 0.40625,-0.058594 0.25781,0 0.46093,0.082031 0.20704,0.078125 0.35547,0.2226562 0.14844,0.1445313 0.23828,0.3476563 0.0899,0.1992187 0.1211,0.4453125 h 0.74219 q -0.008,-0.390625 -0.16797,-0.7070313 -0.16016,-0.3164062 -0.42578,-0.5390625 -0.26563,-0.2226562 -0.60938,-0.34375 -0.34375,-0.125 -0.71484,-0.125 -0.33594,0 -0.66797,0.1054688 -0.33203,0.1015625 -0.59375,0.3007812 -0.26172,0.1992188 -0.42578,0.4882813 -0.16016,0.2890625 -0.16016,0.65625 0,0.3671875 0.16016,0.640625 0.16406,0.2695312 0.42187,0.46875 0.25391,0.1953125 0.5625,0.3359375 0.3125,0.1367187 0.61328,0.234375 0.20703,0.066406 0.42969,0.1484375 0.22656,0.082031 0.41406,0.203125 0.1875,0.125 0.30469,0.3046875 0.12109,0.1796875 0.12109,0.4414062 z"
       style="font-family:'Roboto Mono';-inkscape-font-specification:'Roboto Mono'"
       id="path984" /></g></g><g
   id="g38918"><path
     id="rect1583-34-3"
     style="fill:#ff0000;stroke:#000000;stroke-width:0.8"
     d="m 242.61879,23.907064 h 23.04833 v 14.126395 h -23.04833 z" /><g
     aria-label="VBUS"
     id="text4325-04-9-7-0"
     style="font-size:8px;line-height:1.25;fill:#ffffff"><path
       d="m 246.67226,33.814011 h 0.6289 l 1.79297,-5.6875 h -0.76953 l -1.25781,4.238281 -0.0859,0.285156 -0.082,-0.277344 -1.25,-4.246093 h -0.77344 z"
       style="font-family:'Roboto Mono';-inkscape-font-specification:'Roboto Mono'"
       id="path968" /><path
       d="m 250.07069,33.814011 h 1.82032 q 0.36328,-0.0039 0.70312,-0.113282 0.34375,-0.109375 0.60547,-0.316406 0.26172,-0.203125 0.41797,-0.507812 0.15625,-0.304688 0.15234,-0.703125 0,-0.253907 -0.0781,-0.472657 -0.0742,-0.21875 -0.21094,-0.394531 -0.12891,-0.160156 -0.32812,-0.292969 -0.19922,-0.132812 -0.41407,-0.183593 v -0.01172 q 0.20703,-0.08984 0.35157,-0.191406 0.14843,-0.101563 0.26953,-0.25 0.11718,-0.144532 0.18359,-0.328125 0.0703,-0.183594 0.0742,-0.40625 0.004,-0.398438 -0.15234,-0.683594 -0.15625,-0.285156 -0.41797,-0.46875 -0.26172,-0.183594 -0.59766,-0.269531 -0.33594,-0.08984 -0.6875,-0.09375 h -1.69141 z m 0.72657,-2.660157 h 1.15234 q 0.23047,0.0078 0.42969,0.07813 0.19922,0.07031 0.34765,0.199219 0.14844,0.132813 0.23047,0.320313 0.0859,0.1875 0.082,0.429687 0,0.238281 -0.0937,0.425781 -0.0898,0.1875 -0.24609,0.316407 -0.15625,0.128906 -0.35937,0.203125 -0.20313,0.07031 -0.42969,0.07422 h -1.11328 z m 0,-0.601562 v -1.808594 h 0.98828 q 0.21094,0.0039 0.41015,0.05469 0.20313,0.05078 0.35938,0.15625 0.15234,0.109375 0.24219,0.277343 0.0937,0.167969 0.0937,0.40625 0,0.222657 -0.0937,0.390625 -0.0937,0.167969 -0.2461,0.28125 -0.15234,0.117188 -0.34765,0.179688 -0.19532,0.05859 -0.39844,0.0625 z"
       style="font-family:'Roboto Mono';-inkscape-font-specification:'Roboto Mono'"
       id="path970" /><path
       d="m 258.4496,28.126511 h -0.69922 l -0.0117,3.851562 q -0.008,0.253906 -0.082,0.488281 -0.0742,0.234375 -0.21484,0.414063 -0.14453,0.183594 -0.35547,0.292969 -0.21094,0.105468 -0.48828,0.105468 -0.27735,0 -0.49219,-0.109375 -0.21094,-0.109375 -0.35156,-0.289062 -0.14453,-0.179688 -0.22266,-0.414063 -0.0742,-0.234375 -0.0781,-0.488281 l -0.0156,-3.851562 h -0.6875 l -0.008,3.851562 q 0.004,0.398438 0.14062,0.75 0.13672,0.347656 0.37891,0.605469 0.24219,0.261719 0.58203,0.410156 0.33985,0.148438 0.75391,0.148438 0.40625,0 0.74609,-0.148438 0.33985,-0.152344 0.58594,-0.414062 0.24609,-0.257813 0.38672,-0.605469 0.14062,-0.347656 0.14062,-0.746094 z"
       style="font-family:'Roboto Mono';-inkscape-font-specification:'Roboto Mono'"
       id="path972" /><path
       d="m 262.65663,32.376511 q 0,0.234375 -0.10156,0.40625 -0.10156,0.167968 -0.26172,0.277343 -0.16016,0.113282 -0.36719,0.167969 -0.20312,0.05078 -0.41406,0.05078 -0.26562,0 -0.49219,-0.07031 -0.22265,-0.07422 -0.39453,-0.21875 -0.17187,-0.140625 -0.28125,-0.34375 -0.10937,-0.207031 -0.14453,-0.472656 h -0.73828 q 0.0117,0.367187 0.16016,0.667968 0.15234,0.296875 0.41015,0.519532 0.28906,0.257812 0.67969,0.394531 0.39453,0.136719 0.80078,0.136719 0.33984,0 0.67969,-0.09375 0.33984,-0.09766 0.60937,-0.289063 0.26953,-0.1875 0.4375,-0.472656 0.17188,-0.285156 0.17188,-0.667969 0,-0.378906 -0.16016,-0.667969 -0.15625,-0.289062 -0.41406,-0.488281 -0.26172,-0.214844 -0.57813,-0.351562 -0.3164,-0.140625 -0.63281,-0.238282 -0.1914,-0.05859 -0.41015,-0.136718 -0.21485,-0.07813 -0.39844,-0.195313 -0.1875,-0.117187 -0.3086,-0.285156 -0.12109,-0.171875 -0.125,-0.417969 0,-0.226562 0.0899,-0.398437 0.0937,-0.171875 0.25,-0.289063 0.15234,-0.117187 0.34765,-0.175781 0.19922,-0.05859 0.40625,-0.05859 0.25782,0 0.46094,0.08203 0.20703,0.07813 0.35547,0.222657 0.14844,0.144531 0.23828,0.347656 0.0899,0.199219 0.1211,0.445312 h 0.74218 q -0.008,-0.390625 -0.16797,-0.707031 -0.16015,-0.316406 -0.42578,-0.539062 -0.26562,-0.222657 -0.60937,-0.34375 -0.34375,-0.125 -0.71485,-0.125 -0.33593,0 -0.66796,0.105468 -0.33204,0.101563 -0.59375,0.300782 -0.26172,0.199218 -0.42579,0.488281 -0.16015,0.289062 -0.16015,0.65625 0,0.367187 0.16015,0.640625 0.16407,0.269531 0.42188,0.46875 0.25391,0.195312 0.5625,0.335937 0.3125,0.136719 0.61328,0.234375 0.20703,0.06641 0.42969,0.148438 0.22656,0.08203 0.41406,0.203125 0.1875,0.125 0.30469,0.304687 0.12109,0.179688 0.12109,0.441407 z"
       style="font-family:'Roboto Mono';-inkscape-font-specification:'Roboto Mono'"
       id="path974" /></g></g><g
   id="g38868"><path
     id="rect1583-14-4"
     style="fill:#ff0000;stroke:#000000;stroke-width:0.8"
     d="m 102.8756,23.907064 h 23.04833 V 38.033459 H 102.8756 Z" /><g
     aria-label="VBUS"
     id="text4325-04-9-7-7"
     style="font-size:8px;line-height:1.25;fill:#ffffff"><path
       d="m 106.92906,33.814011 h 0.62891 l 1.79297,-5.6875 h -0.76953 l -1.25782,4.238281 -0.0859,0.285156 -0.082,-0.277344 -1.25,-4.246093 h -0.77343 z"
       style="font-family:'Roboto Mono';-inkscape-font-specification:'Roboto Mono'"
       id="path958" /><path
       d="m 110.3275,33.814011 h 1.82031 q 0.36328,-0.0039 0.70313,-0.113282 0.34375,-0.109375 0.60547,-0.316406 0.26171,-0.203125 0.41796,-0.507812 0.15625,-0.304688 0.15235,-0.703125 0,-0.253907 -0.0781,-0.472657 -0.0742,-0.21875 -0.21093,-0.394531 -0.12891,-0.160156 -0.32813,-0.292969 -0.19922,-0.132812 -0.41406,-0.183593 v -0.01172 q 0.20703,-0.08984 0.35156,-0.191406 0.14844,-0.101563 0.26953,-0.25 0.11719,-0.144532 0.1836,-0.328125 0.0703,-0.183594 0.0742,-0.40625 0.004,-0.398438 -0.15234,-0.683594 -0.15625,-0.285156 -0.41797,-0.46875 -0.26172,-0.183594 -0.59765,-0.269531 -0.33594,-0.08984 -0.6875,-0.09375 h -1.69141 z m 0.72656,-2.660157 h 1.15235 q 0.23046,0.0078 0.42968,0.07813 0.19922,0.07031 0.34766,0.199219 0.14844,0.132813 0.23047,0.320313 0.0859,0.1875 0.082,0.429687 0,0.238281 -0.0937,0.425781 -0.0898,0.1875 -0.24609,0.316407 -0.15625,0.128906 -0.35938,0.203125 -0.20312,0.07031 -0.42969,0.07422 h -1.11328 z m 0,-0.601562 v -1.808594 h 0.98828 q 0.21094,0.0039 0.41016,0.05469 0.20312,0.05078 0.35937,0.15625 0.15235,0.109375 0.24219,0.277343 0.0937,0.167969 0.0937,0.40625 0,0.222657 -0.0937,0.390625 -0.0937,0.167969 -0.24609,0.28125 -0.15235,0.117188 -0.34766,0.179688 -0.19531,0.05859 -0.39844,0.0625 z"
       style="font-family:'Roboto Mono';-inkscape-font-specification:'Roboto Mono'"
       id="path960" /><path
       d="m 118.70641,28.126511 h -0.69922 l -0.0117,3.851562 q -0.008,0.253906 -0.082,0.488281 -0.0742,0.234375 -0.21485,0.414063 -0.14453,0.183594 -0.35547,0.292969 -0.21093,0.105468 -0.48828,0.105468 -0.27734,0 -0.49218,-0.109375 -0.21094,-0.109375 -0.35157,-0.289062 -0.14453,-0.179688 -0.22265,-0.414063 -0.0742,-0.234375 -0.0781,-0.488281 l -0.0156,-3.851562 h -0.6875 l -0.008,3.851562 q 0.004,0.398438 0.14063,0.75 0.13672,0.347656 0.37891,0.605469 0.24218,0.261719 0.58203,0.410156 0.33984,0.148438 0.7539,0.148438 0.40625,0 0.7461,-0.148438 0.33984,-0.152344 0.58593,-0.414062 0.2461,-0.257813 0.38672,-0.605469 0.14063,-0.347656 0.14063,-0.746094 z"
       style="font-family:'Roboto Mono';-inkscape-font-specification:'Roboto Mono'"
       id="path962" /><path
       d="m 122.91344,32.376511 q 0,0.234375 -0.10157,0.40625 -0.10156,0.167968 -0.26171,0.277343 -0.16016,0.113282 -0.36719,0.167969 -0.20313,0.05078 -0.41406,0.05078 -0.26563,0 -0.49219,-0.07031 -0.22266,-0.07422 -0.39453,-0.21875 -0.17188,-0.140625 -0.28125,-0.34375 -0.10938,-0.207031 -0.14453,-0.472656 h -0.73829 q 0.0117,0.367187 0.16016,0.667968 0.15234,0.296875 0.41016,0.519532 0.28906,0.257812 0.67968,0.394531 0.39454,0.136719 0.80079,0.136719 0.33984,0 0.67968,-0.09375 0.33985,-0.09766 0.60938,-0.289063 0.26953,-0.1875 0.4375,-0.472656 0.17187,-0.285156 0.17187,-0.667969 0,-0.378906 -0.16015,-0.667969 -0.15625,-0.289062 -0.41407,-0.488281 -0.26171,-0.214844 -0.57812,-0.351562 -0.31641,-0.140625 -0.63281,-0.238282 -0.19141,-0.05859 -0.41016,-0.136718 -0.21484,-0.07813 -0.39844,-0.195313 -0.1875,-0.117187 -0.30859,-0.285156 -0.12109,-0.171875 -0.125,-0.417969 0,-0.226562 0.0898,-0.398437 0.0937,-0.171875 0.25,-0.289063 0.15235,-0.117187 0.34766,-0.175781 0.19922,-0.05859 0.40625,-0.05859 0.25781,0 0.46094,0.08203 0.20703,0.07813 0.35547,0.222657 0.14843,0.144531 0.23828,0.347656 0.0898,0.199219 0.12109,0.445312 h 0.74219 q -0.008,-0.390625 -0.16797,-0.707031 -0.16016,-0.316406 -0.42578,-0.539062 -0.26563,-0.222657 -0.60938,-0.34375 -0.34375,-0.125 -0.71484,-0.125 -0.33594,0 -0.66797,0.105468 -0.33203,0.101563 -0.59375,0.300782 -0.26172,0.199218 -0.42578,0.488281 -0.16016,0.289062 -0.16016,0.65625 0,0.367187 0.16016,0.640625 0.16406,0.269531 0.42187,0.46875 0.25391,0.195312 0.5625,0.335937 0.3125,0.136719 0.61329,0.234375 0.20703,0.06641 0.42968,0.148438 0.22657,0.08203 0.41407,0.203125 0.1875,0.125 0.30468,0.304687 0.1211,0.179688 0.1211,0.441407 z"
       style="font-family:'Roboto Mono';-inkscape-font-specification:'Roboto Mono'"
       id="path964" /></g></g><g
   id="g38863"><path
     id="rect1583-14"
     style="fill:#ff0000;stroke:#000000;stroke-width:0.8"
     d="m 103.0615,1.6022341 h 23.04833 V 15.728628 H 103.0615 Z" /><g
     aria-label="VBUS"
     id="text4325-04-9-7-8"
     style="font-size:8px;line-height:1.25;fill:#ffffff"><path
       d="m 107.11496,11.509181 h 0.62891 l 1.79296,-5.6875 h -0.76953 l -1.25781,4.238281 -0.0859,0.285157 -0.082,-0.277344 -1.25,-4.246094 h -0.77344 z"
       style="font-family:'Roboto Mono';-inkscape-font-specification:'Roboto Mono'"
       id="path948" /><path
       d="m 110.5134,11.509181 h 1.82031 q 0.36328,-0.0039 0.70312,-0.113281 0.34375,-0.109375 0.60547,-0.316406 0.26172,-0.203125 0.41797,-0.507813 0.15625,-0.304687 0.15235,-0.703125 0,-0.2539062 -0.0781,-0.4726562 -0.0742,-0.21875 -0.21094,-0.3945313 -0.1289,-0.1601562 -0.32812,-0.2929687 -0.19922,-0.1328125 -0.41406,-0.1835938 v -0.011719 q 0.20703,-0.089844 0.35156,-0.1914063 0.14844,-0.1015625 0.26953,-0.25 0.11719,-0.1445312 0.18359,-0.328125 0.0703,-0.1835937 0.0742,-0.40625 0.004,-0.3984375 -0.15234,-0.6835937 -0.15625,-0.2851563 -0.41797,-0.46875 -0.26172,-0.1835938 -0.59766,-0.2695313 -0.33593,-0.089844 -0.6875,-0.09375 h -1.6914 z m 0.72656,-2.6601562 h 1.15234 q 0.23047,0.00781 0.42969,0.078125 0.19922,0.070312 0.34766,0.1992187 0.14843,0.1328125 0.23047,0.3203125 0.0859,0.1875 0.082,0.4296875 0,0.2382815 -0.0937,0.4257815 -0.0898,0.1875 -0.2461,0.316406 -0.15625,0.128906 -0.35937,0.203125 -0.20313,0.07031 -0.42969,0.07422 h -1.11328 z m 0,-0.6015625 V 6.4388685 h 0.98828 q 0.21094,0.00391 0.41016,0.054687 0.20312,0.050781 0.35937,0.15625 0.15235,0.109375 0.24219,0.2773438 0.0937,0.1679687 0.0937,0.40625 0,0.2226562 -0.0937,0.390625 -0.0937,0.1679687 -0.24609,0.28125 -0.15235,0.1171875 -0.34766,0.1796875 -0.19531,0.058594 -0.39844,0.0625 z"
       style="font-family:'Roboto Mono';-inkscape-font-specification:'Roboto Mono'"
       id="path950" /><path
       d="m 118.8923,5.821681 h -0.69922 l -0.0117,3.8515625 q -0.008,0.2539063 -0.082,0.4882815 -0.0742,0.234375 -0.21484,0.414062 -0.14453,0.183594 -0.35547,0.292969 -0.21094,0.105469 -0.48828,0.105469 -0.27734,0 -0.49219,-0.109375 -0.21093,-0.109375 -0.35156,-0.289063 -0.14453,-0.179687 -0.22266,-0.414062 -0.0742,-0.2343752 -0.0781,-0.4882815 l -0.0156,-3.8515625 h -0.6875 l -0.008,3.8515625 q 0.004,0.3984375 0.14063,0.7500005 0.13672,0.347656 0.3789,0.605468 0.24219,0.261719 0.58203,0.410157 0.33985,0.148437 0.75391,0.148437 0.40625,0 0.74609,-0.148437 0.33985,-0.152344 0.58594,-0.414063 0.2461,-0.257812 0.38672,-0.605469 0.14063,-0.347656 0.14063,-0.7460935 z"
       style="font-family:'Roboto Mono';-inkscape-font-specification:'Roboto Mono'"
       id="path952" /><path
       d="m 123.09933,10.071681 q 0,0.234375 -0.10156,0.40625 -0.10156,0.167969 -0.26172,0.277344 -0.16015,0.113281 -0.36718,0.167969 -0.20313,0.05078 -0.41407,0.05078 -0.26562,0 -0.49218,-0.07031 -0.22266,-0.07422 -0.39454,-0.21875 -0.17187,-0.140625 -0.28125,-0.34375 -0.10937,-0.207031 -0.14453,-0.472656 h -0.73828 q 0.0117,0.367188 0.16016,0.667969 0.15234,0.296875 0.41015,0.519531 0.28907,0.257813 0.67969,0.394531 0.39453,0.136719 0.80078,0.136719 0.33985,0 0.67969,-0.09375 0.33984,-0.09766 0.60938,-0.289062 0.26953,-0.1875 0.4375,-0.472657 0.17187,-0.285156 0.17187,-0.667968 0,-0.3789067 -0.16016,-0.6679692 -0.15625,-0.2890625 -0.41406,-0.4882813 -0.26172,-0.2148437 -0.57812,-0.3515625 -0.31641,-0.140625 -0.63282,-0.2382812 -0.1914,-0.058594 -0.41015,-0.1367188 -0.21485,-0.078125 -0.39844,-0.1953125 -0.1875,-0.1171875 -0.30859,-0.2851562 -0.1211,-0.171875 -0.125,-0.4179688 0,-0.2265625 0.0898,-0.3984375 0.0937,-0.171875 0.25,-0.2890625 0.15234,-0.1171875 0.34766,-0.1757812 0.19922,-0.058594 0.40625,-0.058594 0.25781,0 0.46093,0.082031 0.20704,0.078125 0.35547,0.2226562 0.14844,0.1445313 0.23828,0.3476563 0.0898,0.1992187 0.1211,0.4453125 h 0.74219 q -0.008,-0.390625 -0.16797,-0.7070313 -0.16016,-0.3164062 -0.42578,-0.5390625 -0.26563,-0.2226562 -0.60938,-0.34375 -0.34375,-0.125 -0.71484,-0.125 -0.33594,0 -0.66797,0.1054688 -0.33203,0.1015625 -0.59375,0.3007812 -0.26172,0.1992188 -0.42578,0.4882813 -0.16016,0.2890625 -0.16016,0.65625 0,0.3671875 0.16016,0.640625 0.16406,0.2695312 0.42187,0.46875 0.25391,0.1953125 0.5625,0.3359375 0.3125,0.1367187 0.61328,0.234375 0.20703,0.066406 0.42969,0.1484375 0.22656,0.082031 0.41406,0.203125 0.1875,0.125 0.30469,0.3046875 0.12109,0.1796875 0.12109,0.4414062 z"
       style="font-family:'Roboto Mono';-inkscape-font-specification:'Roboto Mono'"
       id="path954" /></g></g><g
   id="g38883"><path
     id="rect1583-7"
     style="fill:#00ff03;stroke:#000000;stroke-width:0.8"
     d="m 158.95879,1.6022341 h 23.04832 V 15.728628 h -23.04832 z" /><g
     aria-label="D+"
     id="text4325-04-9-7-4"
     style="font-size:8px;line-height:1.25"><path
       d="m 166.20366,11.509181 h 1.31641 q 0.41015,-0.0039 0.76171,-0.09766 0.35547,-0.09375 0.63672,-0.269531 0.26563,-0.167969 0.48047,-0.40625 0.21485,-0.238282 0.35547,-0.53125 0.13672,-0.2812505 0.20703,-0.617188 0.0742,-0.3359375 0.0742,-0.7109375 V 8.4583998 q -0.004,-0.390625 -0.082,-0.734375 -0.0742,-0.34375 -0.21875,-0.6328125 -0.16016,-0.3398438 -0.42969,-0.5976563 -0.26562,-0.2617187 -0.61328,-0.421875 -0.25,-0.1171875 -0.54687,-0.1796875 -0.29297,-0.066406 -0.625,-0.070312 h -1.31641 z m 0.73437,-5.09375 h 0.58204 q 0.26953,0.00391 0.49609,0.0625 0.22656,0.054687 0.41016,0.15625 0.25781,0.1367188 0.43359,0.359375 0.17969,0.21875 0.28516,0.4921875 0.082,0.2109375 0.12109,0.4570313 0.043,0.2421875 0.0469,0.5078125 v 0.4257812 q -0.004,0.2617188 -0.043,0.5039063 -0.0391,0.2382812 -0.11719,0.4453125 -0.0899,0.2539067 -0.2461,0.4609377 -0.15234,0.203125 -0.36328,0.34375 -0.19922,0.136719 -0.45703,0.210937 -0.2539,0.07422 -0.5664,0.07813 h -0.58204 z"
       style="font-family:'Roboto Mono';-inkscape-font-specification:'Roboto Mono'"
       id="path942" /><path
       d="M 173.17241,8.4583998 V 6.7982435 h -0.72266 v 1.6601563 h -1.58593 v 0.71875 h 1.58593 v 1.7617192 h 0.72266 V 9.1771498 h 1.58984 v -0.71875 z"
       style="font-family:'Roboto Mono';-inkscape-font-specification:'Roboto Mono'"
       id="path944" /></g></g><g
   id="g38898"><path
     id="rect1583-9-9"
     style="fill:#00ff03;stroke:#000000;stroke-width:0.8"
     d="m 186.72151,23.907064 h 23.04833 v 14.126395 h -23.04833 z" /><g
     aria-label="D+"
     id="text4325-04-9-7-4-7"
     style="font-size:8px;line-height:1.25"><path
       d="m 193.96638,33.814011 h 1.31641 q 0.41016,-0.0039 0.76172,-0.09766 0.35547,-0.09375 0.63672,-0.269531 0.26562,-0.167969 0.48047,-0.40625 0.21484,-0.238281 0.35547,-0.53125 0.13671,-0.28125 0.20703,-0.617187 0.0742,-0.335938 0.0742,-0.710938 v -0.417969 q -0.004,-0.390625 -0.082,-0.734375 -0.0742,-0.34375 -0.21875,-0.632812 -0.16015,-0.339844 -0.42968,-0.597656 -0.26563,-0.261719 -0.61328,-0.421875 -0.25,-0.117188 -0.54688,-0.179688 -0.29297,-0.06641 -0.625,-0.07031 h -1.31641 z m 0.73438,-5.09375 h 0.58203 q 0.26953,0.0039 0.49609,0.0625 0.22657,0.05469 0.41016,0.15625 0.25781,0.136718 0.43359,0.359375 0.17969,0.21875 0.28516,0.492187 0.082,0.210938 0.12109,0.457031 0.043,0.242188 0.0469,0.507813 v 0.425781 q -0.004,0.261719 -0.043,0.503906 -0.0391,0.238282 -0.11719,0.445313 -0.0898,0.253906 -0.24609,0.460937 -0.15234,0.203125 -0.36328,0.34375 -0.19922,0.136719 -0.45703,0.210938 -0.25391,0.07422 -0.56641,0.07813 h -0.58203 z"
       style="font-family:'Roboto Mono';-inkscape-font-specification:'Roboto Mono'"
       id="path936" /><path
       d="m 200.93513,30.763229 v -1.660156 h -0.72265 v 1.660156 h -1.58594 v 0.71875 h 1.58594 v 1.761719 h 0.72265 v -1.761719 h 1.58985 v -0.71875 z"
       style="font-family:'Roboto Mono';-inkscape-font-specification:'Roboto Mono'"
       id="path938" /></g></g><g
   id="g38893"><path
     id="rect1583-9"
     style="fill:#dbdbdb;stroke:#000000;stroke-width:0.8"
     d="m 186.90742,1.6022341 h 23.04833 V 15.728628 h -23.04833 z" /><g
     aria-label="D-"
     id="text4325-04-9-7-4-6"
     style="font-size:8px;line-height:1.25"><path
       d="m 194.41402,11.509181 h 1.3164 q 0.41016,-0.0039 0.76172,-0.09766 0.35547,-0.09375 0.63672,-0.269531 0.26563,-0.167969 0.48047,-0.40625 0.21484,-0.238282 0.35547,-0.53125 0.13672,-0.2812505 0.20703,-0.617188 0.0742,-0.3359375 0.0742,-0.7109375 V 8.4583998 q -0.004,-0.390625 -0.082,-0.734375 -0.0742,-0.34375 -0.21875,-0.6328125 -0.16016,-0.3398438 -0.42969,-0.5976563 -0.26563,-0.2617187 -0.61328,-0.421875 -0.25,-0.1171875 -0.54688,-0.1796875 -0.29297,-0.066406 -0.625,-0.070312 h -1.3164 z m 0.73437,-5.09375 h 0.58203 q 0.26953,0.00391 0.4961,0.0625 0.22656,0.054687 0.41015,0.15625 0.25782,0.1367188 0.4336,0.359375 0.17968,0.21875 0.28515,0.4921875 0.082,0.2109375 0.1211,0.4570313 0.043,0.2421875 0.0469,0.5078125 v 0.4257812 q -0.004,0.2617188 -0.043,0.5039063 -0.0391,0.2382812 -0.11718,0.4453125 -0.0898,0.2539067 -0.2461,0.4609377 -0.15234,0.203125 -0.36328,0.34375 -0.19922,0.136719 -0.45703,0.210937 -0.25391,0.07422 -0.56641,0.07813 h -0.58203 z"
       style="font-family:'Roboto Mono';-inkscape-font-specification:'Roboto Mono'"
       id="path930" /><path
       d="m 202.44917,9.3177748 v -0.59375 h -2.98828 v 0.59375 z"
       style="font-family:'Roboto Mono';-inkscape-font-specification:'Roboto Mono'"
       id="path932" /></g></g><g
   id="g38888"><path
     id="rect1583-7-6"
     style="fill:#dbdbdb;stroke:#000000;stroke-width:0.8"
     d="M 158.77287,23.907064 H 181.8212 V 38.033459 H 158.77287 Z" /><g
     aria-label="D-"
     id="text4325-04-9-7-4-9"
     style="font-size:8px;line-height:1.25"><path
       d="m 166.27946,33.814011 h 1.31641 q 0.41016,-0.0039 0.76172,-0.09766 0.35547,-0.09375 0.63672,-0.269531 0.26562,-0.167969 0.48047,-0.40625 0.21484,-0.238281 0.35547,-0.53125 0.13671,-0.28125 0.20703,-0.617187 0.0742,-0.335938 0.0742,-0.710938 v -0.417969 q -0.004,-0.390625 -0.082,-0.734375 -0.0742,-0.34375 -0.21875,-0.632812 -0.16015,-0.339844 -0.42968,-0.597656 -0.26563,-0.261719 -0.61328,-0.421875 -0.25,-0.117188 -0.54688,-0.179688 -0.29297,-0.06641 -0.625,-0.07031 h -1.31641 z m 0.73438,-5.09375 h 0.58203 q 0.26953,0.0039 0.49609,0.0625 0.22657,0.05469 0.41016,0.15625 0.25781,0.136718 0.43359,0.359375 0.17969,0.21875 0.28516,0.492187 0.082,0.210938 0.12109,0.457031 0.043,0.242188 0.0469,0.507813 v 0.425781 q -0.004,0.261719 -0.043,0.503906 -0.0391,0.238282 -0.11719,0.445313 -0.0898,0.253906 -0.24609,0.460937 -0.15234,0.203125 -0.36328,0.34375 -0.19922,0.136719 -0.45703,0.210938 -0.25391,0.07422 -0.56641,0.07813 h -0.58203 z"
       style="font-family:'Roboto Mono';-inkscape-font-specification:'Roboto Mono'"
       id="path924" /><path
       d="m 174.31462,31.622604 v -0.59375 h -2.98828 v 0.59375 z"
       style="font-family:'Roboto Mono';-inkscape-font-specification:'Roboto Mono'"
       id="path926" /></g></g><g
   id="g38908"><path
     id="rect1583-5-9"
     style="fill:#ffab00;stroke:#000000;stroke-width:0.8"
     d="m 214.67015,23.907064 h 23.04833 v 14.126395 h -23.04833 z" /><g
     aria-label="CC2"
     transform="translate(1.0868921,0.48698902)"
     id="text4325-04-2"
     style="font-size:8px;line-height:1.25;white-space:pre;inline-size:31.5379"><path
       d="m 222.37695,31.616085 h -0.72265 q -0.0352,0.257813 -0.1211,0.480469 -0.0859,0.21875 -0.23047,0.378906 -0.14453,0.164063 -0.35546,0.253906 -0.20704,0.08984 -0.49219,0.08984 -0.26172,0 -0.45703,-0.08203 -0.19532,-0.08594 -0.33985,-0.234375 -0.14453,-0.144531 -0.23828,-0.335938 -0.0937,-0.191406 -0.15234,-0.410156 -0.0586,-0.214844 -0.0859,-0.4375 -0.0234,-0.226562 -0.0234,-0.4375 v -0.800781 q 0,-0.210938 0.0234,-0.433594 0.0273,-0.226562 0.0859,-0.441406 0.0586,-0.214844 0.15234,-0.40625 0.0977,-0.191406 0.24219,-0.335938 0.14062,-0.144531 0.33594,-0.226562 0.19922,-0.08594 0.45703,-0.08594 0.28515,0 0.49219,0.09766 0.21093,0.09375 0.35546,0.261718 0.14454,0.167969 0.23047,0.390625 0.0859,0.222657 0.1211,0.480469 h 0.72265 q -0.0469,-0.40625 -0.19531,-0.742187 -0.14453,-0.335938 -0.38672,-0.578125 -0.24219,-0.238282 -0.57812,-0.367188 -0.33594,-0.132812 -0.76172,-0.132812 -0.35547,0 -0.64063,0.101562 -0.28515,0.09766 -0.50781,0.273438 -0.22656,0.175781 -0.39062,0.417968 -0.16016,0.238282 -0.26563,0.519532 -0.10937,0.28125 -0.16406,0.589843 -0.0508,0.308594 -0.0547,0.625 v 0.792969 q 0.004,0.316406 0.0547,0.625 0.0547,0.308594 0.16406,0.589844 0.10547,0.28125 0.26563,0.519531 0.16406,0.238281 0.39062,0.414063 0.22266,0.175781 0.50781,0.277343 0.28907,0.09766 0.64063,0.09766 0.41015,0 0.74219,-0.128907 0.33593,-0.132812 0.58203,-0.371093 0.24218,-0.234375 0.39453,-0.5625 0.15234,-0.332032 0.20312,-0.726563 z"
       style="font-family:'Roboto Mono';-inkscape-font-specification:'Roboto Mono'"
       id="path916" /><path
       d="m 227.17773,31.616085 h -0.72265 q -0.0352,0.257813 -0.1211,0.480469 -0.0859,0.21875 -0.23046,0.378906 -0.14454,0.164063 -0.35547,0.253906 -0.20703,0.08984 -0.49219,0.08984 -0.26172,0 -0.45703,-0.08203 -0.19531,-0.08594 -0.33985,-0.234375 -0.14453,-0.144531 -0.23828,-0.335938 -0.0937,-0.191406 -0.15234,-0.410156 -0.0586,-0.214844 -0.0859,-0.4375 -0.0234,-0.226562 -0.0234,-0.4375 v -0.800781 q 0,-0.210938 0.0234,-0.433594 0.0274,-0.226562 0.0859,-0.441406 0.0586,-0.214844 0.15234,-0.40625 0.0977,-0.191406 0.24219,-0.335938 0.14063,-0.144531 0.33594,-0.226562 0.19922,-0.08594 0.45703,-0.08594 0.28516,0 0.49219,0.09766 0.21093,0.09375 0.35547,0.261718 0.14453,0.167969 0.23046,0.390625 0.0859,0.222657 0.1211,0.480469 h 0.72265 q -0.0469,-0.40625 -0.19531,-0.742187 -0.14453,-0.335938 -0.38672,-0.578125 -0.24218,-0.238282 -0.57812,-0.367188 -0.33594,-0.132812 -0.76172,-0.132812 -0.35547,0 -0.64063,0.101562 -0.28515,0.09766 -0.50781,0.273438 -0.22656,0.175781 -0.39062,0.417968 -0.16016,0.238282 -0.26563,0.519532 -0.10937,0.28125 -0.16406,0.589843 -0.0508,0.308594 -0.0547,0.625 v 0.792969 q 0.004,0.316406 0.0547,0.625 0.0547,0.308594 0.16406,0.589844 0.10547,0.28125 0.26563,0.519531 0.16406,0.238281 0.39062,0.414063 0.22266,0.175781 0.50781,0.277343 0.28907,0.09766 0.64063,0.09766 0.41016,0 0.74219,-0.128907 0.33593,-0.132812 0.58203,-0.371093 0.24219,-0.234375 0.39453,-0.5625 0.15234,-0.332032 0.20312,-0.726563 z"
       style="font-family:'Roboto Mono';-inkscape-font-specification:'Roboto Mono'"
       id="path918" /><path
       d="m 231.7832,33.327023 v -0.589844 h -2.85547 l 1.52735,-1.65625 q 0.21484,-0.234375 0.40625,-0.46875 0.19531,-0.238281 0.34375,-0.480469 0.14453,-0.242187 0.23047,-0.488281 0.0859,-0.25 0.0859,-0.503906 0,-0.339844 -0.12109,-0.628907 -0.11719,-0.289062 -0.33984,-0.5 -0.22266,-0.210937 -0.54688,-0.328125 -0.32031,-0.121093 -0.72265,-0.121093 -0.4375,0 -0.78125,0.140625 -0.33985,0.140625 -0.57422,0.378906 -0.23828,0.238281 -0.36328,0.558594 -0.125,0.316406 -0.125,0.675781 h 0.72656 q 0,-0.265625 0.0664,-0.480469 0.0703,-0.214844 0.21094,-0.367187 0.13672,-0.148438 0.34375,-0.230469 0.21094,-0.08203 0.4961,-0.08203 0.23437,0 0.41796,0.08203 0.1875,0.07813 0.32032,0.214844 0.1289,0.136718 0.19531,0.324218 0.0703,0.183594 0.0703,0.394532 0,0.171875 -0.043,0.335937 -0.043,0.160156 -0.14453,0.339844 -0.10156,0.183594 -0.26953,0.398437 -0.16797,0.214844 -0.41797,0.492188 l -1.86328,2.070312 v 0.519532 z"
       style="font-family:'Roboto Mono';-inkscape-font-specification:'Roboto Mono'"
       id="path920" /></g></g></svg>
