#define c-small-down_width 20
#define c-small-down_height 20
static char c-small-down_bits[] = {
   0x00, 0x00, 0x00, 0x00, 0x00, 0x00, 0x00, 0x80, 0x00, 0x00, 0x80, 0x00,
   0x00, 0x80, 0x00, 0x00, 0x80, 0x00, 0x00, 0x80, 0x00, 0x00, 0x80, 0x00,
   0x00, 0x80, 0x00, 0x00, 0x80, 0x00, 0x00, 0x80, 0x00, 0x00, 0x80, 0x00,
   0x00, 0x80, 0x00, 0x00, 0x60, 0x03, 0x00, 0xc0, 0x01, 0x00, 0xc0, 0x01,
   0x00, 0xc0, 0x01, 0x00, 0x80, 0x00, 0x00, 0x80, 0x00, 0x00, 0x00, 0x00};
