#define down_width 20
#define down_height 20
static char down_bits[] = {
   0x00, 0x00, 0x00, 0x00, 0x00, 0x00, 0xc0, 0x3f, 0x00, 0x40, 0x20, 0x00,
   0x40, 0x20, 0x00, 0x40, 0x20, 0x00, 0x40, 0x20, 0x00, 0x40, 0x20, 0x00,
   0x40, 0x20, 0x00, 0x40, 0x20, 0x00, 0x7c, 0xe0, 0x03, 0x18, 0x80, 0x01,
   0x30, 0xc0, 0x00, 0x60, 0x60, 0x00, 0xc0, 0x30, 0x00, 0x80, 0x19, 0x00,
   0x00, 0x0f, 0x00, 0x00, 0x06, 0x00, 0x00, 0x00, 0x00, 0x00, 0x00, 0x00};
