#define overview_width 20
#define overview_height 20
static char overview_bits[] = {
   0x00, 0x00, 0x00, 0x00, 0x00, 0x00, 0xf4, 0x3f, 0x00, 0x00, 0x00, 0x00,
   0xf4, 0x03, 0x00, 0x00, 0x00, 0x00, 0x74, 0xe6, 0x01, 0x00, 0x0f, 0x00,
   0x94, 0x19, 0x00, 0xc0, 0x30, 0x00, 0x64, 0x60, 0x00, 0x30, 0xc0, 0x00,
   0x78, 0xe0, 0x01, 0x40, 0x20, 0x00, 0x40, 0x20, 0x00, 0x40, 0x20, 0x00,
   0x40, 0x20, 0x00, 0xc0, 0x3f, 0x00, 0x00, 0x00, 0x00, 0x00, 0x00, 0x00};
