#define prev_width 20
#define prev_height 20
static char prev_bits[] = {
   0x00, 0x00, 0x00, 0x00, 0x00, 0x00, 0x00, 0x02, 0x00, 0x00, 0x03, 0x00,
   0x80, 0x03, 0x00, 0xc0, 0x02, 0x00, 0x60, 0xfe, 0x03, 0x30, 0x00, 0x02,
   0x18, 0x00, 0x02, 0x0c, 0x00, 0x02, 0x0c, 0x00, 0x02, 0x18, 0x00, 0x02,
   0x30, 0x00, 0x02, 0x60, 0xfe, 0x03, 0xc0, 0x02, 0x00, 0x80, 0x03, 0x00,
   0x00, 0x03, 0x00, 0x00, 0x02, 0x00, 0x00, 0x00, 0x00, 0x00, 0x00, 0x00};
