<?xml version="1.0" encoding="UTF-8" standalone="no"?>
<!-- Created with Inkscape (http://www.inkscape.org/) -->

<svg
   width="886.88336mm"
   height="304.79999mm"
   viewBox="0 0 886.88336 304.79999"
   version="1.1"
   id="svg5"
   xml:space="preserve"
   inkscape:version="1.2.2 (b0a84865, 2022-12-01)"
   sodipodi:docname="before_jolt_sc.svg"
   xmlns:inkscape="http://www.inkscape.org/namespaces/inkscape"
   xmlns:sodipodi="http://sodipodi.sourceforge.net/DTD/sodipodi-0.dtd"
   xmlns="http://www.w3.org/2000/svg"
   xmlns:svg="http://www.w3.org/2000/svg"><sodipodi:namedview
     id="namedview7"
     pagecolor="#ffffff"
     bordercolor="#000000"
     borderopacity="0.25"
     inkscape:showpageshadow="2"
     inkscape:pageopacity="0.0"
     inkscape:pagecheckerboard="0"
     inkscape:deskcolor="#d1d1d1"
     inkscape:document-units="mm"
     showgrid="false"
     inkscape:zoom="0.37418296"
     inkscape:cx="1623.5373"
     inkscape:cy="531.82539"
     inkscape:window-width="1728"
     inkscape:window-height="950"
     inkscape:window-x="0"
     inkscape:window-y="38"
     inkscape:window-maximized="0"
     inkscape:current-layer="layer1" /><defs
     id="defs2"><marker
       style="overflow:visible"
       id="TriangleStart"
       refX="0"
       refY="0"
       orient="auto-start-reverse"
       inkscape:stockid="TriangleStart"
       markerWidth="5.3244081"
       markerHeight="6.155385"
       viewBox="0 0 5.3244081 6.1553851"
       inkscape:isstock="true"
       inkscape:collect="always"
       preserveAspectRatio="xMidYMid"><path
         transform="scale(0.5)"
         style="fill:context-stroke;fill-rule:evenodd;stroke:context-stroke;stroke-width:1pt"
         d="M 5.77,0 -2.88,5 V -5 Z"
         id="path135" /></marker></defs><g
     inkscape:label="Layer 1"
     inkscape:groupmode="layer"
     id="layer1"
     transform="translate(385.55185,-1.1339045)"><path
       id="rect12529"
       style="fill:#d4d4d4;stroke:#000000;stroke-width:0.972"
       d="M -208.24211,40.30447 H 39.949158 V 234.75593 H -208.24211 Z" /><path
       id="rect7385"
       style="fill:#13ff00;stroke:#000000;stroke-width:1.61"
       d="m -151.30144,99.521057 h 68.5806 v 41.455433 h -68.5806 z" /><path
       id="rect300"
       style="opacity:0.720755;fill:#b9b2b2;stroke:#000000;stroke-width:1.504"
       d="M -139.43678,130.85648 H 40.203827 V 234.23917 H -139.43678 Z" /><path
       id="path7383"
       style="fill:#ff0000;stroke:#000000;stroke-width:1.61"
       d="m -13.628443,166.82219 a 19.704126,19.704126 0 0 1 -19.704126,19.70413 19.704126,19.704126 0 0 1 -19.704126,-19.70413 19.704126,19.704126 0 0 1 19.704126,-19.70413 19.704126,19.704126 0 0 1 19.704126,19.70413 z" /><path
       id="rect300-7"
       style="fill:#ffffff;stroke:#000000;stroke-width:0.972"
       d="M 220.96263,62.931561 H 469.1539 V 205.76498 H 220.96263 Z" /><g
       aria-label="VRAM"
       id="text1662"
       style="font-weight:bold;font-size:22.5778px;font-family:'Avenir Next';-inkscape-font-specification:'Avenir Next Bold';text-align:center;text-anchor:middle;fill:#ffffff;stroke:#000000;stroke-width:0.972"><path
         d="m -113.12075,265.1427 h 3.15296 l 4.86172,-16.05141 h -3.41754 l -2.73403,10.47311 -0.29766,1.0914 -0.2756,-1.08038 -2.72301,-10.48413 h -3.41754 z"
         style="font-family:'Roboto Mono';-inkscape-font-specification:'Roboto Mono Bold';fill:#000000;stroke:none"
         id="path589" /><path
         d="m -97.874119,259.14547 3.020663,5.99723 h 3.31832 v -0.14332 l -3.450612,-6.62561 q 0.661459,-0.29766 1.190627,-0.70556 0.540191,-0.4079 0.926042,-0.95911 0.374827,-0.54019 0.573265,-1.2237 0.209462,-0.69453 0.209462,-1.55443 0,-1.19063 -0.418924,-2.09462 -0.4079,-0.90399 -1.168578,-1.51033 -0.771702,-0.60634 -1.852085,-0.91502 -1.080383,-0.31971 -2.414325,-0.31971 h -5.379866 v 16.05141 h 3.09783 v -5.99723 z m -2.348181,-2.51354 v -5.02709 h 2.282036 q 0.63941,0 1.135504,0.15434 0.496094,0.15434 0.837848,0.44097 0.385851,0.31971 0.573265,0.8158 0.198437,0.48507 0.198437,1.12448 0,0.52917 -0.15434,0.95912 -0.143316,0.42995 -0.429948,0.73863 -0.341754,0.38585 -0.89297,0.59531 -0.540192,0.19844 -1.256772,0.19844 z"
         style="font-family:'Roboto Mono';-inkscape-font-specification:'Roboto Mono Bold';fill:#000000;stroke:none"
         id="path591" /><path
         d="m -81.877835,261.79131 0.937067,3.35139 h 3.263198 l -5.15938,-16.05141 h -2.811201 l -5.258599,16.05141 h 3.263197 l 0.948092,-3.35139 z m -4.056948,-2.63481 1.68672,-5.90904 1.642623,5.90904 z"
         style="font-family:'Roboto Mono';-inkscape-font-specification:'Roboto Mono Bold';fill:#000000;stroke:none"
         id="path593" /><path
         d="m -72.418971,249.09129 h -3.847487 v 16.05141 h 2.844274 v -4.75148 l -0.132292,-7.2099 1.885159,6.66971 h 1.53238 l 2.105644,-6.96737 -0.132292,7.50756 v 4.75148 h 2.844274 v -16.05141 h -3.847487 l -1.730817,6.03031 z"
         style="font-family:'Roboto Mono';-inkscape-font-specification:'Roboto Mono Bold';fill:#000000;stroke:none"
         id="path595" /></g><g
       id="g16229"
       transform="translate(0,15.875004)"><path
         id="rect4175"
         style="fill:#ffffff;stroke:#000000;stroke-width:1.672"
         d="m -362.2177,191.34276 h 43.13286 c 4.30905,0 7.77806,3.46901 7.77806,7.77806 v 30.40513 c 0,4.30904 -3.46901,7.77806 -7.77806,7.77806 h -43.13286 c -4.30904,0 -7.77806,-3.46902 -7.77806,-7.77806 v -30.40513 c 0,-4.30905 3.46902,-7.77806 7.77806,-7.77806 z" /><g
         aria-label="CRTC
START"
         id="text1662-5"
         style="font-weight:bold;font-size:14.1111px;font-family:'Avenir Next';-inkscape-font-specification:'Avenir Next Bold';text-align:center;text-anchor:middle;fill:#ffffff;stroke:#000000;stroke-width:0.972"><path
           d="m -349.9289,206.9443 h -1.93615 q -0.0276,0.45476 -0.15158,0.77859 -0.12402,0.32384 -0.33762,0.53055 -0.2136,0.2067 -0.51676,0.30317 -0.30317,0.0965 -0.68213,0.0965 -0.2825,0 -0.51677,-0.062 -0.22737,-0.0689 -0.41341,-0.20671 -0.17225,-0.12402 -0.31006,-0.31006 -0.13091,-0.18603 -0.22737,-0.42719 -0.1378,-0.3514 -0.20671,-0.81993 -0.062,-0.47542 -0.062,-1.07487 v -1.36426 q 0,-0.44097 0.0413,-0.81993 0.0413,-0.38585 0.13092,-0.7028 0.11713,-0.40652 0.31005,-0.70969 0.19982,-0.31005 0.48232,-0.47542 0.16536,-0.0965 0.35829,-0.14469 0.19981,-0.0482 0.42719,-0.0482 0.42719,0 0.73036,0.11713 0.31006,0.11024 0.51676,0.33073 0.19982,0.22737 0.30317,0.56499 0.11024,0.33762 0.1378,0.78548 h 1.92926 q -0.0689,-0.78548 -0.33073,-1.41248 -0.26183,-0.62701 -0.71658,-1.06109 -0.45475,-0.43408 -1.10243,-0.66835 -0.64079,-0.23427 -1.46761,-0.23427 -0.55811,0 -1.04731,0.1447 -0.48231,0.1378 -0.88883,0.39963 -0.45476,0.31006 -0.81305,0.75792 -0.35828,0.44786 -0.57877,1.01975 -0.19293,0.46853 -0.28939,1.01974 -0.0965,0.54433 -0.0965,1.15066 v 1.35048 q 0,0.64768 0.10335,1.22645 0.11024,0.57878 0.31006,1.06109 0.20671,0.48232 0.50298,0.88195 0.30317,0.39963 0.68902,0.68212 0.4203,0.30317 0.94396,0.46854 0.53054,0.15847 1.15066,0.15847 0.78548,0 1.43316,-0.22737 0.64767,-0.23427 1.11621,-0.66146 0.46853,-0.42719 0.74414,-1.03353 0.28249,-0.60634 0.33073,-1.36426 z"
           style="font-family:'Roboto Mono';-inkscape-font-specification:'Roboto Mono Bold';fill:#000000;stroke:none"
           id="path570" /><path
           d="m -345.02309,206.33797 1.88791,3.74826 h 2.07395 v -0.0896 l -2.15663,-4.14101 q 0.41341,-0.18603 0.74414,-0.44097 0.33762,-0.25494 0.57877,-0.59944 0.23427,-0.33762 0.35829,-0.76482 0.13092,-0.43408 0.13092,-0.97151 0,-0.74414 -0.26183,-1.30914 -0.25494,-0.56499 -0.73036,-0.94395 -0.48231,-0.37896 -1.15755,-0.57189 -0.67524,-0.19981 -1.50895,-0.19981 h -3.36241 v 10.03211 h 1.93614 v -3.74826 z m -1.46761,-1.57097 v -3.14192 h 1.42627 q 0.39963,0 0.70969,0.0965 0.31005,0.0965 0.52365,0.27561 0.24116,0.19981 0.35829,0.50987 0.12402,0.30317 0.12402,0.7028 0,0.33073 -0.0965,0.59945 -0.0896,0.26872 -0.26872,0.46164 -0.21359,0.24116 -0.5581,0.37207 -0.33762,0.12402 -0.78548,0.12402 z"
           style="font-family:'Roboto Mono';-inkscape-font-specification:'Roboto Mono Bold';fill:#000000;stroke:none"
           id="path572" /><path
           d="m -332.58631,201.63197 v -1.57785 h -8.08907 v 1.57785 h 3.05235 v 8.45426 h 1.94303 v -8.45426 z"
           style="font-family:'Roboto Mono';-inkscape-font-specification:'Roboto Mono Bold';fill:#000000;stroke:none"
           id="path574" /><path
           d="m -324.52479,206.9443 h -1.93614 q -0.0276,0.45476 -0.15158,0.77859 -0.12403,0.32384 -0.33762,0.53055 -0.2136,0.2067 -0.51677,0.30317 -0.30317,0.0965 -0.68213,0.0965 -0.28249,0 -0.51676,-0.062 -0.22738,-0.0689 -0.41341,-0.20671 -0.17226,-0.12402 -0.31006,-0.31006 -0.13091,-0.18603 -0.22738,-0.42719 -0.1378,-0.3514 -0.2067,-0.81993 -0.062,-0.47542 -0.062,-1.07487 v -1.36426 q 0,-0.44097 0.0413,-0.81993 0.0413,-0.38585 0.13091,-0.7028 0.11714,-0.40652 0.31006,-0.70969 0.19982,-0.31005 0.48231,-0.47542 0.16537,-0.0965 0.35829,-0.14469 0.19982,-0.0482 0.42719,-0.0482 0.4272,0 0.73036,0.11713 0.31006,0.11024 0.51677,0.33073 0.19981,0.22737 0.30317,0.56499 0.11024,0.33762 0.1378,0.78548 h 1.92925 q -0.0689,-0.78548 -0.33073,-1.41248 -0.26182,-0.62701 -0.71658,-1.06109 -0.45475,-0.43408 -1.10243,-0.66835 -0.64078,-0.23427 -1.46761,-0.23427 -0.5581,0 -1.0473,0.1447 -0.48232,0.1378 -0.88884,0.39963 -0.45475,0.31006 -0.81304,0.75792 -0.35829,0.44786 -0.57878,1.01975 -0.19292,0.46853 -0.28938,1.01974 -0.0965,0.54433 -0.0965,1.15066 v 1.35048 q 0,0.64768 0.10336,1.22645 0.11024,0.57878 0.31006,1.06109 0.2067,0.48232 0.50298,0.88195 0.30317,0.39963 0.68902,0.68212 0.4203,0.30317 0.94395,0.46854 0.53055,0.15847 1.15066,0.15847 0.78549,0 1.43316,-0.22737 0.64768,-0.23427 1.11621,-0.66146 0.46854,-0.42719 0.74414,-1.03353 0.2825,-0.60634 0.33073,-1.36426 z"
           style="font-family:'Roboto Mono';-inkscape-font-specification:'Roboto Mono Bold';fill:#000000;stroke:none"
           id="path576" /><path
           d="m -355.91992,225.98816 q 0,0.26871 -0.11024,0.49609 -0.11025,0.22049 -0.31695,0.37896 -0.20671,0.15847 -0.50988,0.24805 -0.29627,0.0896 -0.68212,0.0896 -0.43409,0 -0.79927,-0.0965 -0.35829,-0.0965 -0.61322,-0.30317 -0.26183,-0.20671 -0.40652,-0.53055 -0.1447,-0.32383 -0.15848,-0.77859 h -1.90169 q 0,0.77859 0.29628,1.35737 0.30317,0.57878 0.81993,1.00597 0.54433,0.43408 1.27469,0.66145 0.73725,0.22049 1.48828,0.22049 0.76481,0 1.41248,-0.17914 0.64768,-0.18604 1.11621,-0.54433 0.46854,-0.3514 0.73036,-0.86127 0.26872,-0.51677 0.26872,-1.17822 0,-0.76481 -0.3514,-1.35048 -0.3514,-0.58567 -0.94395,-1.02664 -0.39274,-0.26871 -0.86128,-0.47542 -0.46853,-0.20671 -0.98529,-0.3514 -0.48232,-0.13091 -0.86817,-0.2825 -0.37896,-0.15158 -0.64767,-0.33762 -0.26872,-0.17914 -0.41342,-0.40652 -0.1378,-0.22737 -0.1378,-0.50987 0,-0.26872 0.10335,-0.49609 0.11025,-0.23427 0.31695,-0.40653 0.20671,-0.16536 0.50299,-0.25493 0.30316,-0.0965 0.68901,-0.0965 0.42031,0 0.73036,0.11714 0.31695,0.11024 0.53055,0.31006 0.2067,0.2067 0.31006,0.4892 0.11024,0.2825 0.12402,0.62012 h 1.88791 q 0,-0.67524 -0.26183,-1.24024 -0.26182,-0.56499 -0.73036,-0.9784 -0.46853,-0.40652 -1.1231,-0.6339 -0.64767,-0.22738 -1.43315,-0.22738 -0.75793,0 -1.4056,0.19982 -0.64768,0.19292 -1.1231,0.5581 -0.47543,0.36518 -0.74414,0.88195 -0.26872,0.51676 -0.26872,1.15066 0,0.55121 0.19982,1.01975 0.2067,0.46853 0.60633,0.85438 0.39963,0.38585 1.02664,0.70969 0.6339,0.32384 1.46761,0.55121 0.53743,0.1447 0.89572,0.31695 0.36518,0.16537 0.59256,0.36518 0.22048,0.20671 0.31006,0.44097 0.0965,0.23427 0.0965,0.50299 z"
           style="font-family:'Roboto Mono';-inkscape-font-specification:'Roboto Mono Bold';fill:#000000;stroke:none"
           id="path578" /><path
           d="m -345.28836,220.15217 v -1.57785 h -8.08908 v 1.57785 h 3.05235 v 8.45426 h 1.94303 v -8.45426 z"
           style="font-family:'Roboto Mono';-inkscape-font-specification:'Roboto Mono Bold';fill:#000000;stroke:none"
           id="path580" /><path
           d="m -339.25945,226.51181 0.58567,2.09462 h 2.03949 l -3.22461,-10.03211 h -1.75699 l -3.28662,10.03211 h 2.03949 l 0.59256,-2.09462 z m -2.53559,-1.64675 1.0542,-3.69314 1.02664,3.69314 z"
           style="font-family:'Roboto Mono';-inkscape-font-specification:'Roboto Mono Bold';fill:#000000;stroke:none"
           id="path582" /><path
           d="m -332.32103,224.85817 1.88791,3.74826 h 2.07394 v -0.0896 l -2.15662,-4.141 q 0.41341,-0.18603 0.74414,-0.44097 0.33761,-0.25494 0.57877,-0.59944 0.23427,-0.33762 0.35829,-0.76482 0.13091,-0.43408 0.13091,-0.97151 0,-0.74414 -0.26182,-1.30914 -0.25494,-0.56499 -0.73036,-0.94395 -0.48232,-0.37896 -1.15755,-0.57189 -0.67524,-0.19981 -1.50895,-0.19981 h -3.36242 v 10.03211 h 1.93615 v -3.74826 z m -1.46761,-1.57097 v -3.14192 h 1.42627 q 0.39963,0 0.70968,0.0965 0.31006,0.0965 0.52366,0.27561 0.24116,0.19981 0.35829,0.50987 0.12402,0.30317 0.12402,0.7028 0,0.33073 -0.0965,0.59945 -0.0896,0.26872 -0.26872,0.46164 -0.21359,0.24116 -0.5581,0.37207 -0.33762,0.12402 -0.78548,0.12402 z"
           style="font-family:'Roboto Mono';-inkscape-font-specification:'Roboto Mono Bold';fill:#000000;stroke:none"
           id="path584" /><path
           d="m -319.88425,220.15217 v -1.57785 h -8.08908 v 1.57785 h 3.05236 v 8.45426 h 1.94303 v -8.45426 z"
           style="font-family:'Roboto Mono';-inkscape-font-specification:'Roboto Mono Bold';fill:#000000;stroke:none"
           id="path586" /></g></g><g
       id="g16217"
       transform="translate(-3.1819458)"><path
         id="rect4175-9"
         style="fill:#ffffff;stroke:#000000;stroke-width:1.672"
         d="m -359.03575,118.15832 h 43.13286 c 4.30904,0 7.77806,3.46901 7.77806,7.77806 v 30.40513 c 0,4.30904 -3.46902,7.77806 -7.77806,7.77806 h -43.13286 c -4.30905,0 -7.77806,-3.46902 -7.77806,-7.77806 v -30.40513 c 0,-4.30905 3.46901,-7.77806 7.77806,-7.77806 z" /><g
         aria-label="OFFSET
4"
         id="text1662-5-1"
         style="font-weight:bold;font-size:14.1111px;font-family:'Avenir Next';-inkscape-font-specification:'Avenir Next Bold';text-align:center;text-anchor:middle;fill:#ffffff;stroke:#000000;stroke-width:0.972"><path
           d="m -355.14954,132.685 v -1.46072 q 0,-0.68213 -0.13091,-1.28846 -0.12403,-0.60634 -0.36518,-1.11621 -0.22049,-0.44787 -0.53055,-0.81994 -0.30317,-0.37207 -0.70969,-0.63389 -0.40652,-0.27561 -0.91639,-0.4203 -0.50298,-0.15159 -1.08176,-0.15159 -0.57189,0 -1.06109,0.1447 -0.4892,0.14469 -0.88194,0.41341 -0.39963,0.2756 -0.70969,0.66146 -0.30317,0.38585 -0.51677,0.86127 -0.22048,0.50298 -0.33761,1.09554 -0.11025,0.59255 -0.11025,1.25401 v 1.46072 q 0,0.62012 0.0965,1.17822 0.10336,0.55811 0.29628,1.03353 0.2136,0.51676 0.53055,0.93018 0.31695,0.40652 0.71658,0.6959 0.40652,0.27561 0.90261,0.4272 0.49609,0.15158 1.08176,0.15158 0.55121,0 1.02664,-0.1378 0.48231,-0.13092 0.88194,-0.37207 0.44097,-0.27561 0.78548,-0.68902 0.34451,-0.41341 0.57878,-0.90951 0.22048,-0.49609 0.33762,-1.07487 0.11713,-0.58566 0.11713,-1.23334 z m -1.9637,-1.4745 v 1.4745 q 0,0.37207 -0.0413,0.71658 -0.0344,0.34451 -0.11025,0.6339 -0.0965,0.37207 -0.26182,0.66835 -0.15848,0.28938 -0.39274,0.48231 -0.18604,0.15847 -0.4272,0.24115 -0.24115,0.0827 -0.53054,0.0827 -0.30317,0 -0.54432,-0.0896 -0.23427,-0.0896 -0.42031,-0.25493 -0.19981,-0.18604 -0.3514,-0.48232 -0.14469,-0.30316 -0.22048,-0.66834 -0.0689,-0.28939 -0.0965,-0.62701 -0.0276,-0.33762 -0.0276,-0.7028 v -1.4745 q 0,-0.38585 0.0276,-0.73725 0.0345,-0.3514 0.10335,-0.64768 0.0896,-0.38585 0.24805,-0.67523 0.16536,-0.28939 0.39963,-0.48232 0.17225,-0.13091 0.38585,-0.19981 0.22048,-0.0689 0.4892,-0.0689 0.2825,0 0.50987,0.0758 0.23427,0.0758 0.4203,0.21359 0.23427,0.18604 0.40653,0.48232 0.17225,0.28938 0.2756,0.66145 0.0827,0.29628 0.11714,0.64768 0.0413,0.34451 0.0413,0.73036 z"
           style="font-family:'Roboto Mono';-inkscape-font-specification:'Roboto Mono Bold';fill:#000000;stroke:none"
           id="path554" /><path
           d="m -347.3154,132.80902 v -1.57096 h -4.29947 v -2.72851 h 4.83691 v -1.57785 h -6.77995 v 10.03211 h 1.94304 v -4.15479 z"
           style="font-family:'Roboto Mono';-inkscape-font-specification:'Roboto Mono Bold';fill:#000000;stroke:none"
           id="path556" /><path
           d="m -338.84736,132.80902 v -1.57096 h -4.29948 v -2.72851 h 4.83691 v -1.57785 h -6.77994 v 10.03211 h 1.94303 v -4.15479 z"
           style="font-family:'Roboto Mono';-inkscape-font-specification:'Roboto Mono Bold';fill:#000000;stroke:none"
           id="path558" /><path
           d="m -331.53687,134.34554 q 0,0.26871 -0.11025,0.49609 -0.11024,0.22048 -0.31694,0.37896 -0.20671,0.15847 -0.50988,0.24805 -0.29628,0.0896 -0.68213,0.0896 -0.43408,0 -0.79926,-0.0965 -0.35829,-0.0965 -0.61322,-0.30317 -0.26183,-0.20671 -0.40652,-0.53055 -0.1447,-0.32384 -0.15848,-0.77859 h -1.90169 q 0,0.77859 0.29628,1.35737 0.30317,0.57877 0.81993,1.00597 0.54432,0.43408 1.27468,0.66145 0.73725,0.22049 1.48828,0.22049 0.76481,0 1.41249,-0.17915 0.64768,-0.18603 1.11621,-0.54432 0.46853,-0.3514 0.73036,-0.86127 0.26872,-0.51677 0.26872,-1.17822 0,-0.76482 -0.3514,-1.35048 -0.3514,-0.58567 -0.94396,-1.02664 -0.39274,-0.26872 -0.86127,-0.47542 -0.46853,-0.20671 -0.9853,-0.3514 -0.48231,-0.13091 -0.86816,-0.2825 -0.37896,-0.15158 -0.64768,-0.33762 -0.26871,-0.17914 -0.41341,-0.40652 -0.1378,-0.22737 -0.1378,-0.50987 0,-0.26872 0.10335,-0.4961 0.11024,-0.23426 0.31695,-0.40652 0.20671,-0.16536 0.50298,-0.25493 0.30317,-0.0965 0.68902,-0.0965 0.4203,0 0.73036,0.11714 0.31695,0.11024 0.53055,0.31006 0.2067,0.2067 0.31005,0.4892 0.11025,0.2825 0.12403,0.62012 h 1.88791 q 0,-0.67524 -0.26183,-1.24024 -0.26183,-0.56499 -0.73036,-0.9784 -0.46853,-0.40653 -1.1231,-0.6339 -0.64768,-0.22738 -1.43316,-0.22738 -0.75792,0 -1.40559,0.19982 -0.64768,0.19292 -1.1231,0.5581 -0.47543,0.36518 -0.74414,0.88195 -0.26872,0.51676 -0.26872,1.15066 0,0.55121 0.19981,1.01974 0.20671,0.46854 0.60634,0.85439 0.39963,0.38585 1.02664,0.70969 0.63389,0.32384 1.46761,0.55121 0.53743,0.1447 0.89572,0.31695 0.36518,0.16536 0.59256,0.36518 0.22048,0.20671 0.31006,0.44097 0.0965,0.23427 0.0965,0.50299 z"
           style="font-family:'Roboto Mono';-inkscape-font-specification:'Roboto Mono Bold';fill:#000000;stroke:none"
           id="path560" /><path
           d="m -322.10421,132.56787 v -1.52962 h -4.12033 v -2.5287 h 4.79557 v -1.57785 h -6.7386 v 10.03211 h 6.75927 v -1.56408 h -4.81624 v -2.83186 z"
           style="font-family:'Roboto Mono';-inkscape-font-specification:'Roboto Mono Bold';fill:#000000;stroke:none"
           id="path562" /><path
           d="m -312.43727,128.50955 v -1.57785 h -8.08908 v 1.57785 h 3.05235 v 8.45426 h 1.94303 v -8.45426 z"
           style="font-family:'Roboto Mono';-inkscape-font-specification:'Roboto Mono Bold';fill:#000000;stroke:none"
           id="path564" /><path
           d="m -335.31614,151.75642 v -6.30452 h -1.94303 l -4.2168,6.65592 0.0758,1.19889 h 4.16856 v 2.1773 h 1.91547 v -2.1773 h 1.16444 v -1.55029 z m -4.27881,0 2.1773,-3.39687 0.18604,-0.33072 v 3.72759 z"
           style="font-family:'Roboto Mono';-inkscape-font-specification:'Roboto Mono Bold';fill:#000000;stroke:none"
           id="path566" /></g></g><g
       id="g16223"
       transform="translate(-5.3032532)"><path
         id="rect4175-9-8"
         style="fill:#ffffff;stroke:#000000;stroke-width:1.672"
         d="m -356.91445,41.791935 h 43.13287 c 4.30904,0 7.77806,3.469014 7.77806,7.778058 v 30.405135 c 0,4.309044 -3.46902,7.778057 -7.77806,7.778057 h -43.13287 c -4.30904,0 -7.77805,-3.469013 -7.77805,-7.778057 V 49.569993 c 0,-4.309044 3.46901,-7.778058 7.77805,-7.778058 z" /><g
         aria-label="PEL
0-7"
         id="text1662-5-1-6"
         style="font-weight:bold;font-size:14.1111px;font-family:'Avenir Next';-inkscape-font-specification:'Avenir Next Bold';text-align:center;text-anchor:middle;fill:#ffffff;stroke:#000000;stroke-width:0.972"><path
           d="m -345.17687,56.77681 h 1.49517 q 0.81993,0 1.48139,-0.234266 0.66146,-0.234267 1.12999,-0.654568 0.46164,-0.413411 0.70969,-0.985296 0.25494,-0.571886 0.25494,-1.247124 0,-0.72347 -0.25494,-1.316026 -0.24805,-0.592556 -0.70969,-1.019747 -0.46853,-0.420301 -1.12999,-0.654568 -0.66146,-0.241156 -1.48139,-0.241156 h -3.43131 v 10.03211 h 1.93614 z m 0,-1.570962 v -3.210827 h 1.49517 q 0.41341,0 0.71658,0.130914 0.30317,0.130913 0.50987,0.358289 0.19982,0.227376 0.29628,0.530545 0.10336,0.303168 0.10336,0.654567 0,0.303168 -0.10336,0.585666 -0.0965,0.275607 -0.29628,0.489203 -0.2067,0.213596 -0.50987,0.337619 -0.30317,0.124024 -0.71658,0.124024 z"
           style="font-family:'Roboto Mono';-inkscape-font-specification:'Roboto Mono Bold';fill:#000000;stroke:none"
           id="path540" /><path
           d="m -332.59539,56.060231 v -1.529622 h -4.12033 v -2.528698 h 4.79557 v -1.577852 h -6.7386 v 10.03211 h 6.75927 v -1.564072 h -4.81624 v -2.831866 z"
           style="font-family:'Roboto Mono';-inkscape-font-specification:'Roboto Mono Bold';fill:#000000;stroke:none"
           id="path542" /><path
           d="m -328.22701,58.892097 v -8.468038 h -1.94303 v 10.03211 h 6.64214 v -1.564072 z"
           style="font-family:'Roboto Mono';-inkscape-font-specification:'Roboto Mono Bold';fill:#000000;stroke:none"
           id="path544" /><path
           d="m -340.63624,75.159206 v -2.397784 q 0,-0.971517 -0.22737,-1.708766 -0.22738,-0.744141 -0.64768,-1.247124 -0.42719,-0.496093 -1.03353,-0.75103 -0.60633,-0.254937 -1.36425,-0.254937 -0.75104,0 -1.35737,0.254937 -0.59945,0.254937 -1.01975,0.75103 -0.42719,0.502983 -0.65457,1.247124 -0.22737,0.737249 -0.22737,1.708766 v 2.397784 q 0,0.971516 0.22737,1.715656 0.23427,0.73725 0.66146,1.233344 0.4203,0.502983 1.02664,0.75792 0.60634,0.254937 1.35737,0.254937 0.75792,0 1.36425,-0.254937 0.60634,-0.254937 1.02664,-0.75792 0.4203,-0.496094 0.64079,-1.233344 0.22737,-0.74414 0.22737,-1.715656 z m -4.60264,-0.826822 q 0,-0.213596 0,-0.323839 0,-0.110243 0,-0.440972 v -1.10932 q 0,-0.558105 0.0827,-0.964626 0.0896,-0.406521 0.26872,-0.661457 0.16536,-0.241157 0.40652,-0.35829 0.24805,-0.124023 0.57189,-0.124023 0.28938,0 0.51676,0.09646 0.23427,0.08957 0.39274,0.282498 0.20671,0.241156 0.31006,0.647677 0.11024,0.399631 0.12402,0.964626 z m 2.67339,1.11621 q 0,0.558105 -0.0896,0.971516 -0.0827,0.406521 -0.25494,0.668348 -0.16536,0.248047 -0.41341,0.37207 -0.24805,0.117133 -0.57188,0.117133 -0.3514,0 -0.60634,-0.137803 -0.25494,-0.137804 -0.4203,-0.420302 -0.1447,-0.234266 -0.22738,-0.585665 -0.0758,-0.3514 -0.0896,-0.806152 l 2.67339,-1.984374 q 0,0.199816 0,0.310059 0,0.103352 0,0.330729 z"
           style="font-family:'Roboto Mono';-inkscape-font-specification:'Roboto Mono Bold';fill:#000000;stroke:none"
           id="path546" /><path
           d="m -331.98905,75.324571 v -1.550292 h -5.73953 v 1.550292 z"
           style="font-family:'Roboto Mono';-inkscape-font-specification:'Roboto Mono Bold';fill:#000000;stroke:none"
           id="path548" /><path
           d="m -323.67949,70.012238 v -1.067979 h -7.04866 v 1.564072 h 5.03673 l -3.91363,8.468038 h 2.01883 z"
           style="font-family:'Roboto Mono';-inkscape-font-specification:'Roboto Mono Bold';fill:#000000;stroke:none"
           id="path550" /></g></g><g
       aria-label="(320 x 200)"
       id="text1662-39-2-39"
       style="font-weight:bold;font-size:14.1111px;font-family:'Avenir Next';-inkscape-font-specification:'Avenir Next Bold';text-align:center;text-anchor:middle;fill:#ffffff;stroke:#000000;stroke-width:0.972"><path
         d="m 303.71993,267.41634 v 0.15158 q 0,0.97841 0.14469,1.83279 0.15158,0.85439 0.40652,1.57786 0.25494,0.73036 0.59256,1.3298 0.34451,0.59945 0.72347,1.0542 0.37896,0.46164 0.77859,0.78548 0.40652,0.32384 0.78548,0.4961 l 0.37207,-1.03353 q -0.26872,-0.20671 -0.54433,-0.51677 -0.2756,-0.31005 -0.52365,-0.73036 -0.23427,-0.38585 -0.44097,-0.90261 -0.19982,-0.51676 -0.3514,-1.1231 -0.11024,-0.43408 -0.20671,-1.16444 -0.0896,-0.73036 -0.0896,-1.59163 v -0.17915 q 0,-0.87505 0.0965,-1.61919 0.0965,-0.74414 0.25494,-1.35737 0.17915,-0.6339 0.41341,-1.17133 0.24116,-0.53744 0.51677,-0.93018 0.21359,-0.30316 0.43408,-0.53743 0.22048,-0.23427 0.44097,-0.39963 l -0.37207,-1.04731 q -0.37896,0.17225 -0.78548,0.49609 -0.39963,0.31695 -0.77859,0.77859 -0.37896,0.46165 -0.72347,1.06109 -0.33762,0.59945 -0.59256,1.32292 -0.25494,0.73036 -0.40652,1.59163 -0.14469,0.85438 -0.14469,1.8259 z"
         style="font-family:'Roboto Mono';-inkscape-font-specification:'Roboto Mono Bold';fill:#000000;stroke:none"
         id="path520" /><path
         d="m 312.71162,265.63867 v 1.48828 h 1.04042 q 0.39274,0 0.7028,0.0896 0.31695,0.0896 0.54432,0.2756 0.22049,0.18604 0.33762,0.47543 0.11713,0.28938 0.11713,0.6959 0,0.32384 -0.10335,0.58567 -0.0965,0.26183 -0.28939,0.44097 -0.19981,0.19982 -0.49609,0.30317 -0.29628,0.10335 -0.66835,0.10335 -0.33073,0 -0.60633,-0.0965 -0.27561,-0.10335 -0.47543,-0.2825 -0.2067,-0.17225 -0.31695,-0.41341 -0.11024,-0.24804 -0.11024,-0.53743 h -1.91547 q 0,0.73036 0.2825,1.26779 0.28938,0.53744 0.76481,0.88884 0.47542,0.35829 1.08176,0.53743 0.61322,0.17225 1.25401,0.17225 0.74414,0 1.38493,-0.19292 0.64768,-0.19982 1.11621,-0.57878 0.46853,-0.37207 0.73725,-0.92328 0.26871,-0.55122 0.26871,-1.25401 0,-0.39964 -0.0965,-0.75793 -0.0965,-0.35829 -0.29628,-0.66145 -0.19981,-0.29628 -0.50987,-0.53055 -0.30317,-0.23426 -0.72347,-0.38585 0.35829,-0.17225 0.6339,-0.40652 0.27561,-0.24116 0.46164,-0.52365 0.18604,-0.2825 0.2825,-0.59256 0.0965,-0.31695 0.0965,-0.64079 0,-0.7028 -0.24805,-1.23334 -0.24115,-0.53743 -0.68212,-0.90261 -0.44098,-0.35829 -1.06109,-0.53744 -0.62012,-0.18603 -1.36426,-0.18603 -0.68902,0 -1.28846,0.19981 -0.59256,0.19982 -1.03353,0.55811 -0.44097,0.36518 -0.69591,0.86816 -0.24805,0.50298 -0.24805,1.11621 h 1.91547 q 0,-0.27561 0.11025,-0.49609 0.11024,-0.22049 0.30317,-0.37896 0.18603,-0.15159 0.43408,-0.23427 0.25493,-0.0827 0.54432,-0.0827 0.3514,0 0.61323,0.0965 0.26872,0.0965 0.44097,0.26872 0.17225,0.17914 0.25494,0.42719 0.0896,0.24116 0.0896,0.53743 0,0.30317 -0.0896,0.565 -0.0827,0.25494 -0.25494,0.43408 -0.18604,0.20671 -0.4892,0.32384 -0.29628,0.11024 -0.70969,0.11024 z"
         style="font-family:'Roboto Mono';-inkscape-font-specification:'Roboto Mono Bold';fill:#000000;stroke:none"
         id="path522" /><path
         d="m 325.80986,271.49533 v -1.53651 h -4.40283 l 1.88792,-1.99815 q 0.4892,-0.50299 0.88883,-0.95774 0.39963,-0.46164 0.68902,-0.90261 0.2825,-0.44098 0.43408,-0.88884 0.15847,-0.45475 0.15847,-0.95084 0,-0.65457 -0.2067,-1.19201 -0.20671,-0.54432 -0.59945,-0.93017 -0.39963,-0.38585 -0.99218,-0.59945 -0.58567,-0.21359 -1.35048,-0.21359 -0.79926,0 -1.46072,0.26182 -0.65457,0.25494 -1.11621,0.7028 -0.46853,0.44786 -0.72347,1.04731 -0.25494,0.59256 -0.25494,1.2609 h 1.92236 q 0,-0.40652 0.10336,-0.72346 0.10335,-0.31695 0.30317,-0.53055 0.19292,-0.2067 0.48231,-0.31006 0.29628,-0.11024 0.68213,-0.11024 0.29628,0 0.53743,0.0965 0.24805,0.0965 0.42719,0.27561 0.17226,0.18603 0.26872,0.44786 0.0965,0.26183 0.0965,0.59945 0,0.22737 -0.0758,0.46853 -0.0689,0.24116 -0.22738,0.51676 -0.16536,0.2825 -0.42719,0.62012 -0.26182,0.33762 -0.64078,0.75103 l -3.24528,3.48644 v 1.30913 z"
         style="font-family:'Roboto Mono';-inkscape-font-specification:'Roboto Mono Bold';fill:#000000;stroke:none"
         id="path524" /><path
         d="m 334.25034,267.67817 v -2.39779 q 0,-0.97151 -0.22738,-1.70876 -0.22737,-0.74414 -0.64767,-1.24713 -0.42719,-0.49609 -1.03353,-0.75103 -0.60634,-0.25493 -1.36426,-0.25493 -0.75103,0 -1.35736,0.25493 -0.59945,0.25494 -1.01975,0.75103 -0.42719,0.50299 -0.65457,1.24713 -0.22738,0.73725 -0.22738,1.70876 v 2.39779 q 0,0.97151 0.22738,1.71565 0.23427,0.73725 0.66146,1.23335 0.4203,0.50298 1.02664,0.75792 0.60633,0.25493 1.35736,0.25493 0.75792,0 1.36426,-0.25493 0.60634,-0.25494 1.02664,-0.75792 0.4203,-0.4961 0.64078,-1.23335 0.22738,-0.74414 0.22738,-1.71565 z m -4.60264,-0.82682 q 0,-0.2136 0,-0.32384 0,-0.11025 0,-0.44097 v -1.10932 q 0,-0.55811 0.0827,-0.96463 0.0896,-0.40652 0.26872,-0.66146 0.16536,-0.24116 0.40652,-0.35829 0.24804,-0.12402 0.57188,-0.12402 0.28939,0 0.51677,0.0965 0.23426,0.0896 0.39274,0.2825 0.2067,0.24116 0.31006,0.64768 0.11024,0.39963 0.12402,0.96462 z m 2.67339,1.11621 q 0,0.5581 -0.0896,0.97151 -0.0827,0.40652 -0.25494,0.66835 -0.16537,0.24805 -0.41341,0.37207 -0.24805,0.11713 -0.57189,0.11713 -0.3514,0 -0.60633,-0.1378 -0.25494,-0.1378 -0.4203,-0.4203 -0.1447,-0.23427 -0.22738,-0.58567 -0.0758,-0.3514 -0.0896,-0.80615 l 2.67339,-1.98437 q 0,0.19981 0,0.31006 0,0.10335 0,0.33072 z"
         style="font-family:'Roboto Mono';-inkscape-font-specification:'Roboto Mono Bold';fill:#000000;stroke:none"
         id="path526" /><path
         d="m 348.06517,266.36903 -1.61231,-2.32888 h -2.06016 l 2.49424,3.65869 -2.59071,3.79649 h 2.07395 l 1.70188,-2.43912 1.71565,2.43912 h 2.06706 l -2.59071,-3.79649 2.50114,-3.65869 h -2.06017 z"
         style="font-family:'Roboto Mono';-inkscape-font-specification:'Roboto Mono Bold';fill:#000000;stroke:none"
         id="path528" /><path
         d="m 368.15005,271.49533 v -1.53651 h -4.40282 l 1.88791,-1.99815 q 0.4892,-0.50299 0.88883,-0.95774 0.39963,-0.46164 0.68902,-0.90261 0.2825,-0.44098 0.43408,-0.88884 0.15847,-0.45475 0.15847,-0.95084 0,-0.65457 -0.2067,-1.19201 -0.20671,-0.54432 -0.59945,-0.93017 -0.39963,-0.38585 -0.99218,-0.59945 -0.58567,-0.21359 -1.35048,-0.21359 -0.79926,0 -1.46072,0.26182 -0.65457,0.25494 -1.11621,0.7028 -0.46853,0.44786 -0.72347,1.04731 -0.25494,0.59256 -0.25494,1.2609 h 1.92237 q 0,-0.40652 0.10335,-0.72346 0.10335,-0.31695 0.30317,-0.53055 0.19292,-0.2067 0.48231,-0.31006 0.29628,-0.11024 0.68213,-0.11024 0.29628,0 0.53743,0.0965 0.24805,0.0965 0.42719,0.27561 0.17226,0.18603 0.26872,0.44786 0.0965,0.26183 0.0965,0.59945 0,0.22737 -0.0758,0.46853 -0.0689,0.24116 -0.22737,0.51676 -0.16537,0.2825 -0.4272,0.62012 -0.26182,0.33762 -0.64078,0.75103 l -3.24528,3.48644 v 1.30913 z"
         style="font-family:'Roboto Mono';-inkscape-font-specification:'Roboto Mono Bold';fill:#000000;stroke:none"
         id="path530" /><path
         d="m 376.59053,267.67817 v -2.39779 q 0,-0.97151 -0.22737,-1.70876 -0.22738,-0.74414 -0.64768,-1.24713 -0.42719,-0.49609 -1.03353,-0.75103 -0.60633,-0.25493 -1.36425,-0.25493 -0.75103,0 -1.35737,0.25493 -0.59945,0.25494 -1.01975,0.75103 -0.42719,0.50299 -0.65457,1.24713 -0.22737,0.73725 -0.22737,1.70876 v 2.39779 q 0,0.97151 0.22737,1.71565 0.23427,0.73725 0.66146,1.23335 0.4203,0.50298 1.02664,0.75792 0.60634,0.25493 1.35737,0.25493 0.75792,0 1.36425,-0.25493 0.60634,-0.25494 1.02664,-0.75792 0.4203,-0.4961 0.64079,-1.23335 0.22737,-0.74414 0.22737,-1.71565 z m -4.60264,-0.82682 q 0,-0.2136 0,-0.32384 0,-0.11025 0,-0.44097 v -1.10932 q 0,-0.55811 0.0827,-0.96463 0.0896,-0.40652 0.26872,-0.66146 0.16536,-0.24116 0.40652,-0.35829 0.24805,-0.12402 0.57189,-0.12402 0.28938,0 0.51676,0.0965 0.23427,0.0896 0.39274,0.2825 0.20671,0.24116 0.31006,0.64768 0.11024,0.39963 0.12402,0.96462 z m 2.67339,1.11621 q 0,0.5581 -0.0896,0.97151 -0.0827,0.40652 -0.25494,0.66835 -0.16536,0.24805 -0.41341,0.37207 -0.24805,0.11713 -0.57188,0.11713 -0.3514,0 -0.60634,-0.1378 -0.25494,-0.1378 -0.4203,-0.4203 -0.1447,-0.23427 -0.22738,-0.58567 -0.0758,-0.3514 -0.0896,-0.80615 l 2.67339,-1.98437 q 0,0.19981 0,0.31006 0,0.10335 0,0.33072 z"
         style="font-family:'Roboto Mono';-inkscape-font-specification:'Roboto Mono Bold';fill:#000000;stroke:none"
         id="path532" /><path
         d="m 385.05857,267.67817 v -2.39779 q 0,-0.97151 -0.22737,-1.70876 -0.22738,-0.74414 -0.64768,-1.24713 -0.42719,-0.49609 -1.03353,-0.75103 -0.60633,-0.25493 -1.36425,-0.25493 -0.75103,0 -1.35737,0.25493 -0.59945,0.25494 -1.01975,0.75103 -0.42719,0.50299 -0.65457,1.24713 -0.22737,0.73725 -0.22737,1.70876 v 2.39779 q 0,0.97151 0.22737,1.71565 0.23427,0.73725 0.66146,1.23335 0.4203,0.50298 1.02664,0.75792 0.60634,0.25493 1.35737,0.25493 0.75792,0 1.36425,-0.25493 0.60634,-0.25494 1.02664,-0.75792 0.4203,-0.4961 0.64079,-1.23335 0.22737,-0.74414 0.22737,-1.71565 z m -4.60264,-0.82682 q 0,-0.2136 0,-0.32384 0,-0.11025 0,-0.44097 v -1.10932 q 0,-0.55811 0.0827,-0.96463 0.0896,-0.40652 0.26872,-0.66146 0.16536,-0.24116 0.40652,-0.35829 0.24805,-0.12402 0.57189,-0.12402 0.28938,0 0.51676,0.0965 0.23427,0.0896 0.39274,0.2825 0.20671,0.24116 0.31006,0.64768 0.11024,0.39963 0.12402,0.96462 z m 2.67339,1.11621 q 0,0.5581 -0.0896,0.97151 -0.0827,0.40652 -0.25494,0.66835 -0.16536,0.24805 -0.41341,0.37207 -0.24805,0.11713 -0.57188,0.11713 -0.3514,0 -0.60634,-0.1378 -0.25494,-0.1378 -0.4203,-0.4203 -0.1447,-0.23427 -0.22738,-0.58567 -0.0758,-0.3514 -0.0896,-0.80615 l 2.67339,-1.98437 q 0,0.19981 0,0.31006 0,0.10335 0,0.33072 z"
         style="font-family:'Roboto Mono';-inkscape-font-specification:'Roboto Mono Bold';fill:#000000;stroke:none"
         id="path534" /><path
         d="m 392.09346,267.56792 v -0.15158 q 0,-0.94395 -0.15159,-1.78456 -0.15158,-0.84749 -0.41341,-1.57785 -0.26183,-0.73036 -0.61323,-1.32981 -0.34451,-0.60633 -0.73725,-1.08175 -0.39274,-0.46854 -0.80615,-0.79927 -0.41341,-0.33073 -0.80615,-0.50298 l -0.36518,1.02664 q 0.20671,0.15847 0.41341,0.38585 0.2136,0.22048 0.41341,0.50298 0.29628,0.42719 0.55811,1.01286 0.26872,0.58566 0.45475,1.32291 0.14469,0.59256 0.22738,1.29536 0.0896,0.7028 0.0896,1.51584 v 0.17915 q 0,0.83371 -0.0896,1.55029 -0.0827,0.71658 -0.22738,1.30913 -0.17225,0.64768 -0.39963,1.17133 -0.22049,0.52366 -0.4892,0.93707 -0.22738,0.3514 -0.46854,0.61323 -0.24115,0.26871 -0.48231,0.44786 l 0.36518,1.03353 q 0.39274,-0.17226 0.80615,-0.50299 0.41341,-0.33073 0.80615,-0.80615 0.39274,-0.46853 0.73725,-1.07487 0.3514,-0.59944 0.61323,-1.3298 0.26183,-0.73036 0.41341,-1.57097 0.15159,-0.84749 0.15159,-1.79145 z"
         style="font-family:'Roboto Mono';-inkscape-font-specification:'Roboto Mono Bold';fill:#000000;stroke:none"
         id="path536" /></g><g
       aria-label="0x0000"
       id="text1662-39-2-3"
       style="font-weight:bold;font-size:14.1111px;font-family:'Avenir Next';-inkscape-font-specification:'Avenir Next Bold';text-align:center;text-anchor:middle;fill:#ffffff;stroke:#000000;stroke-width:0.972"><path
         d="m -257.97848,234.69457 v -2.39778 q 0,-0.97152 -0.22737,-1.70877 -0.22738,-0.74414 -0.64768,-1.24712 -0.42719,-0.4961 -1.03353,-0.75103 -0.60633,-0.25494 -1.36425,-0.25494 -0.75103,0 -1.35737,0.25494 -0.59945,0.25493 -1.01975,0.75103 -0.42719,0.50298 -0.65457,1.24712 -0.22737,0.73725 -0.22737,1.70877 v 2.39778 q 0,0.97152 0.22737,1.71566 0.23427,0.73725 0.66146,1.23334 0.4203,0.50298 1.02664,0.75792 0.60634,0.25494 1.35737,0.25494 0.75792,0 1.36425,-0.25494 0.60634,-0.25494 1.02664,-0.75792 0.4203,-0.49609 0.64079,-1.23334 0.22737,-0.74414 0.22737,-1.71566 z m -4.60264,-0.82682 q 0,-0.2136 0,-0.32384 0,-0.11024 0,-0.44097 v -1.10932 q 0,-0.55811 0.0827,-0.96463 0.0896,-0.40652 0.26872,-0.66146 0.16536,-0.24115 0.40652,-0.35829 0.24805,-0.12402 0.57189,-0.12402 0.28938,0 0.51676,0.0965 0.23427,0.0896 0.39274,0.2825 0.20671,0.24116 0.31006,0.64768 0.11024,0.39963 0.12402,0.96463 z m 2.67339,1.11621 q 0,0.5581 -0.0896,0.97152 -0.0827,0.40652 -0.25494,0.66834 -0.16536,0.24805 -0.41341,0.37207 -0.24805,0.11714 -0.57188,0.11714 -0.3514,0 -0.60634,-0.13781 -0.25494,-0.1378 -0.4203,-0.4203 -0.1447,-0.23427 -0.22738,-0.58566 -0.0758,-0.3514 -0.0896,-0.80616 l 2.67339,-1.98437 q 0,0.19982 0,0.31006 0,0.10335 0,0.33073 z"
         style="font-family:'Roboto Mono';-inkscape-font-specification:'Roboto Mono Bold';fill:#000000;stroke:none"
         id="path507" /><path
         d="m -252.63169,233.38544 -1.61231,-2.32889 h -2.06016 l 2.49425,3.65869 -2.59071,3.79649 h 2.07394 l 1.70188,-2.43912 1.71565,2.43912 h 2.06706 l -2.59071,-3.79649 2.50114,-3.65869 h -2.06017 z"
         style="font-family:'Roboto Mono';-inkscape-font-specification:'Roboto Mono Bold';fill:#000000;stroke:none"
         id="path509" /><path
         d="m -241.0424,234.69457 v -2.39778 q 0,-0.97152 -0.22738,-1.70877 -0.22737,-0.74414 -0.64767,-1.24712 -0.42719,-0.4961 -1.03353,-0.75103 -0.60634,-0.25494 -1.36426,-0.25494 -0.75103,0 -1.35736,0.25494 -0.59945,0.25493 -1.01975,0.75103 -0.42719,0.50298 -0.65457,1.24712 -0.22738,0.73725 -0.22738,1.70877 v 2.39778 q 0,0.97152 0.22738,1.71566 0.23427,0.73725 0.66146,1.23334 0.4203,0.50298 1.02664,0.75792 0.60633,0.25494 1.35736,0.25494 0.75792,0 1.36426,-0.25494 0.60634,-0.25494 1.02664,-0.75792 0.4203,-0.49609 0.64078,-1.23334 0.22738,-0.74414 0.22738,-1.71566 z m -4.60264,-0.82682 q 0,-0.2136 0,-0.32384 0,-0.11024 0,-0.44097 v -1.10932 q 0,-0.55811 0.0827,-0.96463 0.0896,-0.40652 0.26872,-0.66146 0.16536,-0.24115 0.40652,-0.35829 0.24804,-0.12402 0.57188,-0.12402 0.28939,0 0.51677,0.0965 0.23426,0.0896 0.39274,0.2825 0.2067,0.24116 0.31006,0.64768 0.11024,0.39963 0.12402,0.96463 z m 2.67339,1.11621 q 0,0.5581 -0.0896,0.97152 -0.0827,0.40652 -0.25494,0.66834 -0.16536,0.24805 -0.41341,0.37207 -0.24805,0.11714 -0.57189,0.11714 -0.3514,0 -0.60633,-0.13781 -0.25494,-0.1378 -0.4203,-0.4203 -0.1447,-0.23427 -0.22738,-0.58566 -0.0758,-0.3514 -0.0896,-0.80616 l 2.67339,-1.98437 q 0,0.19982 0,0.31006 0,0.10335 0,0.33073 z"
         style="font-family:'Roboto Mono';-inkscape-font-specification:'Roboto Mono Bold';fill:#000000;stroke:none"
         id="path511" /><path
         d="m -232.57436,234.69457 v -2.39778 q 0,-0.97152 -0.22738,-1.70877 -0.22737,-0.74414 -0.64767,-1.24712 -0.4272,-0.4961 -1.03353,-0.75103 -0.60634,-0.25494 -1.36426,-0.25494 -0.75103,0 -1.35737,0.25494 -0.59944,0.25493 -1.01974,0.75103 -0.42719,0.50298 -0.65457,1.24712 -0.22738,0.73725 -0.22738,1.70877 v 2.39778 q 0,0.97152 0.22738,1.71566 0.23427,0.73725 0.66146,1.23334 0.4203,0.50298 1.02663,0.75792 0.60634,0.25494 1.35737,0.25494 0.75792,0 1.36426,-0.25494 0.60633,-0.25494 1.02664,-0.75792 0.4203,-0.49609 0.64078,-1.23334 0.22738,-0.74414 0.22738,-1.71566 z m -4.60264,-0.82682 q 0,-0.2136 0,-0.32384 0,-0.11024 0,-0.44097 v -1.10932 q 0,-0.55811 0.0827,-0.96463 0.0896,-0.40652 0.26871,-0.66146 0.16537,-0.24115 0.40653,-0.35829 0.24804,-0.12402 0.57188,-0.12402 0.28939,0 0.51677,0.0965 0.23426,0.0896 0.39274,0.2825 0.2067,0.24116 0.31005,0.64768 0.11025,0.39963 0.12403,0.96463 z m 2.67339,1.11621 q 0,0.5581 -0.0896,0.97152 -0.0827,0.40652 -0.25493,0.66834 -0.16537,0.24805 -0.41341,0.37207 -0.24805,0.11714 -0.57189,0.11714 -0.3514,0 -0.60633,-0.13781 -0.25494,-0.1378 -0.42031,-0.4203 -0.14469,-0.23427 -0.22737,-0.58566 -0.0758,-0.3514 -0.0896,-0.80616 l 2.67339,-1.98437 q 0,0.19982 0,0.31006 0,0.10335 0,0.33073 z"
         style="font-family:'Roboto Mono';-inkscape-font-specification:'Roboto Mono Bold';fill:#000000;stroke:none"
         id="path513" /><path
         d="m -224.10632,234.69457 v -2.39778 q 0,-0.97152 -0.22738,-1.70877 -0.22737,-0.74414 -0.64768,-1.24712 -0.42719,-0.4961 -1.03352,-0.75103 -0.60634,-0.25494 -1.36426,-0.25494 -0.75103,0 -1.35737,0.25494 -0.59944,0.25493 -1.01974,0.75103 -0.4272,0.50298 -0.65457,1.24712 -0.22738,0.73725 -0.22738,1.70877 v 2.39778 q 0,0.97152 0.22738,1.71566 0.23426,0.73725 0.66146,1.23334 0.4203,0.50298 1.02663,0.75792 0.60634,0.25494 1.35737,0.25494 0.75792,0 1.36426,-0.25494 0.60633,-0.25494 1.02663,-0.75792 0.42031,-0.49609 0.64079,-1.23334 0.22738,-0.74414 0.22738,-1.71566 z m -4.60265,-0.82682 q 0,-0.2136 0,-0.32384 0,-0.11024 0,-0.44097 v -1.10932 q 0,-0.55811 0.0827,-0.96463 0.0896,-0.40652 0.26871,-0.66146 0.16537,-0.24115 0.40652,-0.35829 0.24805,-0.12402 0.57189,-0.12402 0.28939,0 0.51676,0.0965 0.23427,0.0896 0.39274,0.2825 0.20671,0.24116 0.31006,0.64768 0.11025,0.39963 0.12403,0.96463 z m 2.6734,1.11621 q 0,0.5581 -0.0896,0.97152 -0.0827,0.40652 -0.25493,0.66834 -0.16537,0.24805 -0.41341,0.37207 -0.24805,0.11714 -0.57189,0.11714 -0.3514,0 -0.60634,-0.13781 -0.25493,-0.1378 -0.4203,-0.4203 -0.14469,-0.23427 -0.22737,-0.58566 -0.0758,-0.3514 -0.0896,-0.80616 l 2.6734,-1.98437 q 0,0.19982 0,0.31006 0,0.10335 0,0.33073 z"
         style="font-family:'Roboto Mono';-inkscape-font-specification:'Roboto Mono Bold';fill:#000000;stroke:none"
         id="path515" /><path
         d="m -215.63828,234.69457 v -2.39778 q 0,-0.97152 -0.22738,-1.70877 -0.22737,-0.74414 -0.64768,-1.24712 -0.42719,-0.4961 -1.03352,-0.75103 -0.60634,-0.25494 -1.36426,-0.25494 -0.75103,0 -1.35737,0.25494 -0.59944,0.25493 -1.01974,0.75103 -0.4272,0.50298 -0.65457,1.24712 -0.22738,0.73725 -0.22738,1.70877 v 2.39778 q 0,0.97152 0.22738,1.71566 0.23426,0.73725 0.66146,1.23334 0.4203,0.50298 1.02663,0.75792 0.60634,0.25494 1.35737,0.25494 0.75792,0 1.36426,-0.25494 0.60633,-0.25494 1.02663,-0.75792 0.42031,-0.49609 0.64079,-1.23334 0.22738,-0.74414 0.22738,-1.71566 z m -4.60265,-0.82682 q 0,-0.2136 0,-0.32384 0,-0.11024 0,-0.44097 v -1.10932 q 0,-0.55811 0.0827,-0.96463 0.0896,-0.40652 0.26871,-0.66146 0.16537,-0.24115 0.40652,-0.35829 0.24805,-0.12402 0.57189,-0.12402 0.28939,0 0.51676,0.0965 0.23427,0.0896 0.39274,0.2825 0.20671,0.24116 0.31006,0.64768 0.11025,0.39963 0.12403,0.96463 z m 2.6734,1.11621 q 0,0.5581 -0.0896,0.97152 -0.0827,0.40652 -0.25493,0.66834 -0.16537,0.24805 -0.41341,0.37207 -0.24805,0.11714 -0.57189,0.11714 -0.3514,0 -0.60634,-0.13781 -0.25493,-0.1378 -0.4203,-0.4203 -0.14469,-0.23427 -0.22737,-0.58566 -0.0758,-0.3514 -0.0896,-0.80616 l 2.6734,-1.98437 q 0,0.19982 0,0.31006 0,0.10335 0,0.33073 z"
         style="font-family:'Roboto Mono';-inkscape-font-specification:'Roboto Mono Bold';fill:#000000;stroke:none"
         id="path517" /></g><g
       aria-label="0x0280"
       id="text1662-39-2-3-5"
       style="font-weight:bold;font-size:14.1111px;font-family:'Avenir Next';-inkscape-font-specification:'Avenir Next Bold';text-align:center;text-anchor:middle;fill:#ffffff;stroke:#000000;stroke-width:0.972"><path
         d="m -257.97848,210.88569 v -2.39779 q 0,-0.97151 -0.22737,-1.70876 -0.22738,-0.74414 -0.64768,-1.24713 -0.42719,-0.49609 -1.03353,-0.75103 -0.60633,-0.25493 -1.36425,-0.25493 -0.75103,0 -1.35737,0.25493 -0.59945,0.25494 -1.01975,0.75103 -0.42719,0.50299 -0.65457,1.24713 -0.22737,0.73725 -0.22737,1.70876 v 2.39779 q 0,0.97151 0.22737,1.71565 0.23427,0.73725 0.66146,1.23335 0.4203,0.50298 1.02664,0.75792 0.60634,0.25493 1.35737,0.25493 0.75792,0 1.36425,-0.25493 0.60634,-0.25494 1.02664,-0.75792 0.4203,-0.4961 0.64079,-1.23335 0.22737,-0.74414 0.22737,-1.71565 z m -4.60264,-0.82682 q 0,-0.2136 0,-0.32384 0,-0.11025 0,-0.44098 v -1.10932 q 0,-0.5581 0.0827,-0.96462 0.0896,-0.40652 0.26872,-0.66146 0.16536,-0.24116 0.40652,-0.35829 0.24805,-0.12402 0.57189,-0.12402 0.28938,0 0.51676,0.0965 0.23427,0.0896 0.39274,0.2825 0.20671,0.24115 0.31006,0.64768 0.11024,0.39963 0.12402,0.96462 z m 2.67339,1.11621 q 0,0.5581 -0.0896,0.97151 -0.0827,0.40652 -0.25494,0.66835 -0.16536,0.24805 -0.41341,0.37207 -0.24805,0.11713 -0.57188,0.11713 -0.3514,0 -0.60634,-0.1378 -0.25494,-0.1378 -0.4203,-0.4203 -0.1447,-0.23427 -0.22738,-0.58567 -0.0758,-0.3514 -0.0896,-0.80615 l 2.67339,-1.98437 q 0,0.19981 0,0.31006 0,0.10335 0,0.33072 z"
         style="font-family:'Roboto Mono';-inkscape-font-specification:'Roboto Mono Bold';fill:#000000;stroke:none"
         id="path494" /><path
         d="m -252.63169,209.57655 -1.61231,-2.32888 h -2.06016 l 2.49425,3.65869 -2.59071,3.79649 h 2.07394 l 1.70188,-2.43913 1.71565,2.43913 h 2.06706 l -2.59071,-3.79649 2.50114,-3.65869 h -2.06017 z"
         style="font-family:'Roboto Mono';-inkscape-font-specification:'Roboto Mono Bold';fill:#000000;stroke:none"
         id="path496" /><path
         d="m -241.0424,210.88569 v -2.39779 q 0,-0.97151 -0.22738,-1.70876 -0.22737,-0.74414 -0.64767,-1.24713 -0.42719,-0.49609 -1.03353,-0.75103 -0.60634,-0.25493 -1.36426,-0.25493 -0.75103,0 -1.35736,0.25493 -0.59945,0.25494 -1.01975,0.75103 -0.42719,0.50299 -0.65457,1.24713 -0.22738,0.73725 -0.22738,1.70876 v 2.39779 q 0,0.97151 0.22738,1.71565 0.23427,0.73725 0.66146,1.23335 0.4203,0.50298 1.02664,0.75792 0.60633,0.25493 1.35736,0.25493 0.75792,0 1.36426,-0.25493 0.60634,-0.25494 1.02664,-0.75792 0.4203,-0.4961 0.64078,-1.23335 0.22738,-0.74414 0.22738,-1.71565 z m -4.60264,-0.82682 q 0,-0.2136 0,-0.32384 0,-0.11025 0,-0.44098 v -1.10932 q 0,-0.5581 0.0827,-0.96462 0.0896,-0.40652 0.26872,-0.66146 0.16536,-0.24116 0.40652,-0.35829 0.24804,-0.12402 0.57188,-0.12402 0.28939,0 0.51677,0.0965 0.23426,0.0896 0.39274,0.2825 0.2067,0.24115 0.31006,0.64768 0.11024,0.39963 0.12402,0.96462 z m 2.67339,1.11621 q 0,0.5581 -0.0896,0.97151 -0.0827,0.40652 -0.25494,0.66835 -0.16536,0.24805 -0.41341,0.37207 -0.24805,0.11713 -0.57189,0.11713 -0.3514,0 -0.60633,-0.1378 -0.25494,-0.1378 -0.4203,-0.4203 -0.1447,-0.23427 -0.22738,-0.58567 -0.0758,-0.3514 -0.0896,-0.80615 l 2.67339,-1.98437 q 0,0.19981 0,0.31006 0,0.10335 0,0.33072 z"
         style="font-family:'Roboto Mono';-inkscape-font-specification:'Roboto Mono Bold';fill:#000000;stroke:none"
         id="path498" /><path
         d="m -232.5468,214.70285 v -1.53651 h -4.40283 l 1.88791,-1.99815 q 0.48921,-0.50299 0.88884,-0.95774 0.39963,-0.46164 0.68901,-0.90262 0.2825,-0.44097 0.43409,-0.88883 0.15847,-0.45475 0.15847,-0.95084 0,-0.65457 -0.2067,-1.19201 -0.20671,-0.54432 -0.59945,-0.93017 -0.39963,-0.38585 -0.99219,-0.59945 -0.58566,-0.21359 -1.35047,-0.21359 -0.79927,0 -1.46072,0.26182 -0.65457,0.25494 -1.11621,0.7028 -0.46854,0.44786 -0.72347,1.04731 -0.25494,0.59256 -0.25494,1.2609 h 1.92236 q 0,-0.40652 0.10335,-0.72346 0.10336,-0.31695 0.30317,-0.53055 0.19293,-0.2067 0.48232,-0.31006 0.29627,-0.11024 0.68212,-0.11024 0.29628,0 0.53744,0.0965 0.24805,0.0965 0.42719,0.27561 0.17225,0.18603 0.26872,0.44786 0.0965,0.26183 0.0965,0.59945 0,0.22737 -0.0758,0.46853 -0.0689,0.24116 -0.22738,0.51676 -0.16536,0.2825 -0.42719,0.62012 -0.26183,0.33762 -0.64079,0.75103 l -3.24527,3.48644 v 1.30913 z"
         style="font-family:'Roboto Mono';-inkscape-font-specification:'Roboto Mono Bold';fill:#000000;stroke:none"
         id="path500" /><path
         d="m -224.34059,207.33724 q 0,-0.68213 -0.24115,-1.19889 -0.23427,-0.52365 -0.65457,-0.88194 -0.42719,-0.35829 -1.00597,-0.53744 -0.57878,-0.18603 -1.2609,-0.18603 -0.68213,0 -1.26091,0.18603 -0.57188,0.17915 -0.98529,0.53744 -0.42031,0.35829 -0.65457,0.88194 -0.23427,0.51676 -0.23427,1.19889 0,0.37207 0.0965,0.70969 0.10336,0.33762 0.28939,0.62012 0.17226,0.26871 0.4203,0.4892 0.25494,0.22049 0.565,0.37896 -0.36518,0.17226 -0.66146,0.4203 -0.28939,0.24116 -0.49609,0.54433 -0.20671,0.31006 -0.32384,0.68213 -0.11024,0.36518 -0.11024,0.77859 0,0.70969 0.25493,1.24712 0.26183,0.53743 0.71658,0.89572 0.45475,0.36518 1.06798,0.55122 0.62012,0.18603 1.3367,0.18603 0.70969,0 1.32291,-0.18603 0.61323,-0.18604 1.06798,-0.55122 0.44786,-0.35829 0.7028,-0.89572 0.26183,-0.53743 0.26183,-1.24712 0,-0.53744 -0.18604,-0.99219 -0.18603,-0.45475 -0.51676,-0.79926 -0.17915,-0.19293 -0.40652,-0.34451 -0.22738,-0.15848 -0.48232,-0.2825 0.2825,-0.14469 0.50988,-0.33762 0.23426,-0.19981 0.40652,-0.42719 0.22049,-0.30317 0.33762,-0.66146 0.12402,-0.36518 0.12402,-0.77859 z m -1.70876,4.4924 q 0,0.34451 -0.11025,0.62012 -0.10335,0.26872 -0.28939,0.46164 -0.19292,0.19293 -0.45475,0.29628 -0.26182,0.0965 -0.57877,0.0965 -0.32384,0 -0.58567,-0.0896 -0.26183,-0.0965 -0.44786,-0.27561 -0.19982,-0.18603 -0.31006,-0.46853 -0.11024,-0.2825 -0.11024,-0.64079 0,-0.34451 0.10335,-0.62011 0.10335,-0.27561 0.28939,-0.47543 0.18603,-0.19292 0.44786,-0.29627 0.26872,-0.10336 0.59945,-0.10336 0.33073,0 0.59255,0.10336 0.26872,0.10335 0.46164,0.29627 0.18604,0.19982 0.28939,0.47543 0.10336,0.2756 0.10336,0.62011 z m -0.19982,-4.40283 q 0,0.30317 -0.0896,0.55811 -0.0827,0.24805 -0.24116,0.42719 -0.15847,0.17915 -0.38585,0.2825 -0.22738,0.0965 -0.51676,0.0965 -0.28939,0 -0.52366,-0.0965 -0.22737,-0.10335 -0.38585,-0.2825 -0.16536,-0.17914 -0.24804,-0.42719 -0.0827,-0.25494 -0.0827,-0.565 0,-0.30316 0.0758,-0.55121 0.0827,-0.25494 0.24115,-0.42719 0.15159,-0.17226 0.37896,-0.26183 0.22738,-0.0965 0.52366,-0.0965 0.28938,0 0.51676,0.0965 0.23427,0.0965 0.39963,0.26872 0.15848,0.17914 0.24805,0.42719 0.0896,0.24805 0.0896,0.55121 z"
         style="font-family:'Roboto Mono';-inkscape-font-specification:'Roboto Mono Bold';fill:#000000;stroke:none"
         id="path502" /><path
         d="m -215.63828,210.88569 v -2.39779 q 0,-0.97151 -0.22738,-1.70876 -0.22737,-0.74414 -0.64768,-1.24713 -0.42719,-0.49609 -1.03352,-0.75103 -0.60634,-0.25493 -1.36426,-0.25493 -0.75103,0 -1.35737,0.25493 -0.59944,0.25494 -1.01974,0.75103 -0.4272,0.50299 -0.65457,1.24713 -0.22738,0.73725 -0.22738,1.70876 v 2.39779 q 0,0.97151 0.22738,1.71565 0.23426,0.73725 0.66146,1.23335 0.4203,0.50298 1.02663,0.75792 0.60634,0.25493 1.35737,0.25493 0.75792,0 1.36426,-0.25493 0.60633,-0.25494 1.02663,-0.75792 0.42031,-0.4961 0.64079,-1.23335 0.22738,-0.74414 0.22738,-1.71565 z m -4.60265,-0.82682 q 0,-0.2136 0,-0.32384 0,-0.11025 0,-0.44098 v -1.10932 q 0,-0.5581 0.0827,-0.96462 0.0896,-0.40652 0.26871,-0.66146 0.16537,-0.24116 0.40652,-0.35829 0.24805,-0.12402 0.57189,-0.12402 0.28939,0 0.51676,0.0965 0.23427,0.0896 0.39274,0.2825 0.20671,0.24115 0.31006,0.64768 0.11025,0.39963 0.12403,0.96462 z m 2.6734,1.11621 q 0,0.5581 -0.0896,0.97151 -0.0827,0.40652 -0.25493,0.66835 -0.16537,0.24805 -0.41341,0.37207 -0.24805,0.11713 -0.57189,0.11713 -0.3514,0 -0.60634,-0.1378 -0.25493,-0.1378 -0.4203,-0.4203 -0.14469,-0.23427 -0.22737,-0.58567 -0.0758,-0.3514 -0.0896,-0.80615 l 2.6734,-1.98437 q 0,0.19981 0,0.31006 0,0.10335 0,0.33072 z"
         style="font-family:'Roboto Mono';-inkscape-font-specification:'Roboto Mono Bold';fill:#000000;stroke:none"
         id="path504" /></g><g
       aria-label="SCREEN"
       id="text1662-3"
       style="font-weight:bold;font-size:22.5778px;font-family:'Avenir Next';-inkscape-font-specification:'Avenir Next Bold';text-align:center;text-anchor:middle;fill:#ffffff;stroke:#000000;stroke-width:0.972"><path
         d="m 317.44859,246.37044 q 0,0.42995 -0.17639,0.79375 -0.17638,0.35278 -0.50711,0.60633 -0.33073,0.25356 -0.8158,0.39688 -0.47405,0.14332 -1.09141,0.14332 -0.69453,0 -1.27882,-0.15434 -0.57327,-0.15434 -0.98117,-0.48507 -0.41892,-0.33073 -0.65043,-0.84888 -0.23151,-0.51814 -0.25356,-1.24574 h -3.04271 q 0,1.24574 0.47404,2.17179 0.48507,0.92604 1.3119,1.60955 0.87092,0.69453 2.0395,1.05833 1.1796,0.35278 2.38125,0.35278 1.2237,0 2.25998,-0.28663 1.03629,-0.29766 1.78594,-0.87092 0.74966,-0.56224 1.16858,-1.37804 0.42995,-0.82683 0.42995,-1.88516 0,-1.2237 -0.56224,-2.16077 -0.56224,-0.93706 -1.51033,-1.64262 -0.62839,-0.42995 -1.37804,-0.76068 -0.74966,-0.33073 -1.57648,-0.56224 -0.7717,-0.20946 -1.38906,-0.452 -0.60634,-0.24253 -1.03629,-0.54019 -0.42995,-0.28663 -0.66146,-0.65043 -0.22048,-0.3638 -0.22048,-0.8158 0,-0.42995 0.16536,-0.79375 0.17639,-0.37483 0.50712,-0.65044 0.33073,-0.26458 0.80477,-0.4079 0.48507,-0.15434 1.10244,-0.15434 0.67248,0 1.16857,0.18742 0.50712,0.17638 0.84888,0.49609 0.33073,0.33073 0.49609,0.78273 0.17639,0.45199 0.19844,0.99219 h 3.02066 q 0,-1.08039 -0.41892,-1.98438 -0.41893,-0.904 -1.16858,-1.56545 -0.74965,-0.65044 -1.79696,-1.01424 -1.03629,-0.3638 -2.29306,-0.3638 -1.21268,0 -2.24896,0.3197 -1.03629,0.30868 -1.79697,0.89297 -0.76067,0.58429 -1.19062,1.41111 -0.42995,0.82683 -0.42995,1.84106 0,0.88195 0.3197,1.6316 0.33073,0.74966 0.97014,1.36702 0.63941,0.61736 1.64263,1.1355 1.01423,0.51815 2.34818,0.88195 0.85989,0.23151 1.43316,0.50712 0.58429,0.26458 0.94809,0.58429 0.35278,0.33072 0.49609,0.70555 0.15434,0.37483 0.15434,0.80478 z"
         style="font-family:'Roboto Mono';-inkscape-font-specification:'Roboto Mono Bold';fill:#000000;stroke:none"
         id="path481" /><path
         d="m 333.80868,245.53259 h -3.09783 q -0.0441,0.7276 -0.24254,1.24575 -0.19844,0.51814 -0.54019,0.84887 -0.34175,0.33073 -0.82682,0.48507 -0.48507,0.15434 -1.09141,0.15434 -0.452,0 -0.82682,-0.0992 -0.36381,-0.11024 -0.66146,-0.33073 -0.27561,-0.19844 -0.4961,-0.49609 -0.20946,-0.29766 -0.3638,-0.68351 -0.22049,-0.56224 -0.33073,-1.31189 -0.0992,-0.76068 -0.0992,-1.7198 v -2.18281 q 0,-0.70556 0.0661,-1.3119 0.0661,-0.61736 0.20946,-1.12448 0.18741,-0.65043 0.49609,-1.1355 0.31971,-0.4961 0.77171,-0.76068 0.26458,-0.15434 0.57326,-0.23151 0.31971,-0.0772 0.68351,-0.0772 0.68351,0 1.16858,0.18741 0.49609,0.17639 0.82682,0.52917 0.3197,0.3638 0.48507,0.90399 0.17639,0.5402 0.22049,1.25678 h 3.0868 q -0.11024,-1.25678 -0.52916,-2.25999 -0.41893,-1.00321 -1.14653,-1.69774 -0.72761,-0.69454 -1.76389,-1.06936 -1.02526,-0.37483 -2.34818,-0.37483 -0.89297,0 -1.6757,0.23151 -0.7717,0.22049 -1.42213,0.63941 -0.72761,0.4961 -1.30087,1.21268 -0.57327,0.71658 -0.92605,1.6316 -0.30868,0.74965 -0.46302,1.63159 -0.15434,0.87093 -0.15434,1.84107 v 2.16076 q 0,1.03629 0.16537,1.96233 0.17639,0.92604 0.49609,1.69775 0.33073,0.7717 0.80478,1.41111 0.48507,0.63941 1.10243,1.0914 0.67248,0.48507 1.51033,0.74966 0.84887,0.25356 1.84106,0.25356 1.25677,0 2.29306,-0.3638 1.03628,-0.37483 1.78594,-1.05834 0.74965,-0.68351 1.19062,-1.65365 0.452,-0.97014 0.52917,-2.18281 z"
         style="font-family:'Roboto Mono';-inkscape-font-specification:'Roboto Mono Bold';fill:#000000;stroke:none"
         id="path483" /><path
         d="m 341.65799,244.56245 3.02067,5.99723 h 3.31832 v -0.14332 l -3.45062,-6.62561 q 0.66146,-0.29766 1.19063,-0.70556 0.54019,-0.4079 0.92604,-0.95912 0.37483,-0.54019 0.57327,-1.22369 0.20946,-0.69454 0.20946,-1.55443 0,-1.19063 -0.41892,-2.09462 -0.4079,-0.904 -1.16858,-1.51033 -0.7717,-0.60634 -1.85209,-0.91502 -1.08038,-0.31971 -2.41432,-0.31971 h -5.37987 v 16.05141 h 3.09783 v -5.99723 z m -2.34818,-2.51355 v -5.02708 h 2.28204 q 0.63941,0 1.1355,0.15434 0.4961,0.15434 0.83785,0.44097 0.38585,0.3197 0.57326,0.8158 0.19844,0.48507 0.19844,1.12448 0,0.52917 -0.15434,0.95911 -0.14331,0.42995 -0.42995,0.73863 -0.34175,0.38585 -0.89297,0.59532 -0.54019,0.19843 -1.25677,0.19843 z"
         style="font-family:'Roboto Mono';-inkscape-font-specification:'Roboto Mono Bold';fill:#000000;stroke:none"
         id="path485" /><path
         d="m 359.63865,243.52616 v -2.4474 h -6.59254 v -4.04592 h 7.67293 v -2.52457 h -10.78178 v 16.05141 h 10.81485 v -2.50252 h -7.706 v -4.531 z"
         style="font-family:'Roboto Mono';-inkscape-font-specification:'Roboto Mono Bold';fill:#000000;stroke:none"
         id="path487" /><path
         d="m 373.18754,243.52616 v -2.4474 H 366.595 v -4.04592 h 7.67292 v -2.52457 h -10.78178 v 16.05141 H 374.301 v -2.50252 h -7.706 v -4.531 z"
         style="font-family:'Roboto Mono';-inkscape-font-specification:'Roboto Mono Bold';fill:#000000;stroke:none"
         id="path489" /><path
         d="m 387.44199,250.55968 v -16.05141 h -3.10886 l -0.011,10.30774 -4.43177,-10.30774 h -3.11988 v 16.05141 h 3.11988 v -10.35184 l 4.46485,10.35184 z"
         style="font-family:'Roboto Mono';-inkscape-font-specification:'Roboto Mono Bold';fill:#000000;stroke:none"
         id="path491" /></g><path
       style="fill:#000000;fill-opacity:1;stroke:#000000;stroke-width:1.672;stroke-dasharray:none;stroke-opacity:1;marker-end:url(#TriangleStart)"
       d="M 71.416712,133.64118 H 178.18822"
       id="path1897" /><path
       style="fill:#000000;fill-opacity:1;stroke:#000000;stroke-width:1.672;stroke-dasharray:none;stroke-opacity:1"
       d="M 40.655719,2.1212883 V 289.9094"
       id="path2116" /><path
       style="fill:#000000;fill-opacity:1;stroke:#000000;stroke-width:1.672;stroke-dasharray:none;stroke-opacity:1"
       d="M -207.53503,3.5354806 V 291.32359"
       id="path2118" /><path
       style="fill:#000000;fill-opacity:1;stroke:#000000;stroke-width:1.672;stroke-dasharray:none;stroke-opacity:1;marker-end:url(#TriangleStart)"
       d="m -303.90411,233.06711 h 15.5561"
       id="path6539"
       sodipodi:nodetypes="cc" /><path
       id="path7383-2"
       style="fill:#ff0000;stroke:#000000;stroke-width:1.672"
       d="m 377.75845,126.64348 a 27.2232,27.2232 0 0 1 -27.2232,27.2232 27.2232,27.2232 0 0 1 -27.2232,-27.2232 27.2232,27.2232 0 0 1 27.2232,-27.223201 27.2232,27.2232 0 0 1 27.2232,27.223201 z" /><path
       id="rect7385-2"
       style="fill:#13ff00;stroke:#000000;stroke-width:1.672"
       d="m 221.49019,62.651276 h 72.83092 v 20.505785 h -72.83092 z" /><g
       aria-label="0x21C0"
       id="text12720"
       style="font-weight:bold;font-size:14.1111px;font-family:'Avenir Next';-inkscape-font-specification:'Avenir Next Bold';text-align:center;text-anchor:middle;fill:#ffffff;stroke:#000000;stroke-width:0.972"><path
         d="m -259.56353,41.876677 v -2.397784 q 0,-0.971517 -0.22737,-1.708766 -0.22738,-0.744141 -0.64768,-1.247124 -0.42719,-0.496093 -1.03353,-0.75103 -0.60634,-0.254937 -1.36426,-0.254937 -0.75103,0 -1.35736,0.254937 -0.59945,0.254937 -1.01975,0.75103 -0.42719,0.502983 -0.65457,1.247124 -0.22737,0.737249 -0.22737,1.708766 v 2.397784 q 0,0.971516 0.22737,1.715656 0.23427,0.73725 0.66146,1.233344 0.4203,0.502983 1.02664,0.75792 0.60633,0.254937 1.35736,0.254937 0.75792,0 1.36426,-0.254937 0.60634,-0.254937 1.02664,-0.75792 0.4203,-0.496094 0.64079,-1.233344 0.22737,-0.74414 0.22737,-1.715656 z m -4.60264,-0.826822 q 0,-0.213596 0,-0.323839 0,-0.110243 0,-0.440972 v -1.10932 q 0,-0.558105 0.0827,-0.964626 0.0896,-0.406521 0.26872,-0.661457 0.16536,-0.241157 0.40652,-0.35829 0.24804,-0.124023 0.57188,-0.124023 0.28939,0 0.51677,0.09646 0.23426,0.08957 0.39274,0.282498 0.2067,0.241156 0.31006,0.647677 0.11024,0.399631 0.12402,0.964626 z m 2.67339,1.11621 q 0,0.558105 -0.0896,0.971516 -0.0827,0.406521 -0.25494,0.668348 -0.16536,0.248047 -0.41341,0.37207 -0.24805,0.117133 -0.57189,0.117133 -0.3514,0 -0.60633,-0.137803 -0.25494,-0.137804 -0.4203,-0.420302 -0.1447,-0.234266 -0.22738,-0.585665 -0.0758,-0.3514 -0.0896,-0.806152 l 2.67339,-1.984374 q 0,0.199816 0,0.310059 0,0.103352 0,0.330729 z"
         style="font-family:'Roboto Mono';-inkscape-font-specification:'Roboto Mono Bold';fill:#000000;stroke:none"
         id="path466" /><path
         d="m -254.21674,40.567542 -1.61231,-2.328883 h -2.06016 l 2.49424,3.658689 -2.59071,3.796492 h 2.07395 l 1.70188,-2.439126 1.71565,2.439126 h 2.06706 l -2.59071,-3.796492 2.50114,-3.658689 h -2.06017 z"
         style="font-family:'Roboto Mono';-inkscape-font-specification:'Roboto Mono Bold';fill:#000000;stroke:none"
         id="path468" /><path
         d="m -242.59989,45.69384 v -1.536511 h -4.40283 l 1.88791,-1.998154 q 0.4892,-0.502984 0.88884,-0.957736 0.39963,-0.461642 0.68901,-0.902614 0.2825,-0.440972 0.43409,-0.888834 0.15847,-0.454753 0.15847,-0.950846 0,-0.654568 -0.20671,-1.192002 -0.2067,-0.544325 -0.59944,-0.930175 -0.39963,-0.38585 -0.99219,-0.599446 -0.58566,-0.213596 -1.35048,-0.213596 -0.79926,0 -1.46071,0.261827 -0.65457,0.254937 -1.11621,0.702799 -0.46854,0.447862 -0.72347,1.047308 -0.25494,0.592556 -0.25494,1.260904 h 1.92236 q 0,-0.406521 0.10335,-0.723469 0.10336,-0.316949 0.30317,-0.530545 0.19293,-0.206705 0.48231,-0.310058 0.29628,-0.110243 0.68213,-0.110243 0.29628,0 0.53744,0.09646 0.24804,0.09646 0.42719,0.275607 0.17225,0.186035 0.26872,0.447862 0.0965,0.261827 0.0965,0.599446 0,0.227376 -0.0758,0.468533 -0.0689,0.241156 -0.22738,0.516764 -0.16536,0.282497 -0.42719,0.620117 -0.26183,0.337619 -0.64079,0.75103 l -3.24528,3.486434 v 1.309135 z"
         style="font-family:'Roboto Mono';-inkscape-font-specification:'Roboto Mono Bold';fill:#000000;stroke:none"
         id="path470" /><path
         d="M -235.99909,45.69384 V 35.66173 h -0.10336 l -4.36837,1.577852 v 1.667425 l 2.53559,-0.909504 v 7.696337 z"
         style="font-family:'Roboto Mono';-inkscape-font-specification:'Roboto Mono Bold';fill:#000000;stroke:none"
         id="path472" /><path
         d="m -225.32619,42.551915 h -1.93615 q -0.0276,0.454753 -0.15158,0.778591 -0.12402,0.323839 -0.33762,0.530545 -0.2136,0.206705 -0.51676,0.303168 -0.30317,0.09646 -0.68213,0.09646 -0.2825,0 -0.51677,-0.06201 -0.22737,-0.0689 -0.41341,-0.206706 -0.17225,-0.124023 -0.31006,-0.310058 -0.13091,-0.186035 -0.22737,-0.427192 -0.13781,-0.351399 -0.20671,-0.819932 -0.062,-0.475423 -0.062,-1.074869 v -1.364256 q 0,-0.440972 0.0413,-0.819933 0.0413,-0.38585 0.13092,-0.702799 0.11713,-0.40652 0.31005,-0.709689 0.19982,-0.310058 0.48232,-0.475422 0.16536,-0.09646 0.35829,-0.144694 0.19981,-0.04823 0.42719,-0.04823 0.42719,0 0.73036,0.117134 0.31006,0.110242 0.51676,0.330728 0.19982,0.227377 0.30317,0.564996 0.11024,0.337619 0.1378,0.785481 h 1.92926 q -0.0689,-0.785481 -0.33073,-1.412488 -0.26183,-0.627007 -0.71658,-1.061089 -0.45476,-0.434082 -1.10243,-0.668348 -0.64079,-0.234266 -1.46761,-0.234266 -0.55811,0 -1.04731,0.144694 -0.48231,0.137803 -0.88883,0.39963 -0.45476,0.310059 -0.81305,0.757921 -0.35829,0.447862 -0.57877,1.019747 -0.19293,0.468533 -0.28939,1.019748 -0.0965,0.544325 -0.0965,1.150661 v 1.350476 q 0,0.647678 0.10335,1.226453 0.11024,0.578776 0.31006,1.061089 0.2067,0.482313 0.50298,0.881944 0.30317,0.39963 0.68902,0.682128 0.4203,0.303168 0.94396,0.468533 0.53054,0.158474 1.15066,0.158474 0.78548,0 1.43316,-0.227376 0.64767,-0.234267 1.11621,-0.661458 0.46853,-0.427192 0.74414,-1.033528 0.28249,-0.606336 0.33073,-1.364257 z"
         style="font-family:'Roboto Mono';-inkscape-font-specification:'Roboto Mono Bold';fill:#000000;stroke:none"
         id="path474" /><path
         d="m -217.22333,41.876677 v -2.397784 q 0,-0.971517 -0.22738,-1.708766 -0.22738,-0.744141 -0.64768,-1.247124 -0.42719,-0.496093 -1.03353,-0.75103 -0.60633,-0.254937 -1.36425,-0.254937 -0.75103,0 -1.35737,0.254937 -0.59945,0.254937 -1.01975,0.75103 -0.42719,0.502983 -0.65456,1.247124 -0.22738,0.737249 -0.22738,1.708766 v 2.397784 q 0,0.971516 0.22738,1.715656 0.23426,0.73725 0.66145,1.233344 0.42031,0.502983 1.02664,0.75792 0.60634,0.254937 1.35737,0.254937 0.75792,0 1.36425,-0.254937 0.60634,-0.254937 1.02664,-0.75792 0.4203,-0.496094 0.64079,-1.233344 0.22738,-0.74414 0.22738,-1.715656 z m -4.60265,-0.826822 q 0,-0.213596 0,-0.323839 0,-0.110243 0,-0.440972 v -1.10932 q 0,-0.558105 0.0827,-0.964626 0.0896,-0.406521 0.26872,-0.661457 0.16537,-0.241157 0.40652,-0.35829 0.24805,-0.124023 0.57189,-0.124023 0.28939,0 0.51676,0.09646 0.23427,0.08957 0.39274,0.282498 0.20671,0.241156 0.31006,0.647677 0.11024,0.399631 0.12402,0.964626 z m 2.67339,1.11621 q 0,0.558105 -0.0896,0.971516 -0.0827,0.406521 -0.25494,0.668348 -0.16536,0.248047 -0.41341,0.37207 -0.24804,0.117133 -0.57188,0.117133 -0.3514,0 -0.60634,-0.137803 -0.25494,-0.137804 -0.4203,-0.420302 -0.14469,-0.234266 -0.22738,-0.585665 -0.0758,-0.3514 -0.0896,-0.806152 l 2.67339,-1.984374 q 0,0.199816 0,0.310059 0,0.103352 0,0.330729 z"
         style="font-family:'Roboto Mono';-inkscape-font-specification:'Roboto Mono Bold';fill:#000000;stroke:none"
         id="path476" /></g><path
       style="fill:#000000;fill-opacity:1;stroke:#000000;stroke-width:1.672;stroke-dasharray:none;stroke-opacity:1"
       d="m -274.77286,238.5452 0,-56.56767"
       id="path14276"
       sodipodi:nodetypes="cc" /><g
       aria-label="0x0500"
       id="text15137"
       style="font-weight:bold;font-size:14.1111px;font-family:'Avenir Next';-inkscape-font-specification:'Avenir Next Bold';text-align:center;text-anchor:middle;fill:#ffffff;stroke:#000000;stroke-width:0.972"><path
         d="M -257.97848,187.07679 V 184.679 q 0,-0.97151 -0.22737,-1.70876 -0.22738,-0.74414 -0.64768,-1.24713 -0.42719,-0.49609 -1.03353,-0.75103 -0.60633,-0.25493 -1.36425,-0.25493 -0.75103,0 -1.35737,0.25493 -0.59945,0.25494 -1.01975,0.75103 -0.42719,0.50299 -0.65457,1.24713 -0.22737,0.73725 -0.22737,1.70876 v 2.39779 q 0,0.97151 0.22737,1.71565 0.23427,0.73725 0.66146,1.23335 0.4203,0.50298 1.02664,0.75792 0.60634,0.25494 1.35737,0.25494 0.75792,0 1.36425,-0.25494 0.60634,-0.25494 1.02664,-0.75792 0.4203,-0.4961 0.64079,-1.23335 0.22737,-0.74414 0.22737,-1.71565 z m -4.60264,-0.82682 q 0,-0.2136 0,-0.32384 0,-0.11025 0,-0.44097 v -1.10932 q 0,-0.55811 0.0827,-0.96463 0.0896,-0.40652 0.26872,-0.66146 0.16536,-0.24115 0.40652,-0.35829 0.24805,-0.12402 0.57189,-0.12402 0.28938,0 0.51676,0.0965 0.23427,0.0896 0.39274,0.2825 0.20671,0.24116 0.31006,0.64768 0.11024,0.39963 0.12402,0.96462 z m 2.67339,1.11621 q 0,0.5581 -0.0896,0.97151 -0.0827,0.40652 -0.25494,0.66835 -0.16536,0.24805 -0.41341,0.37207 -0.24805,0.11713 -0.57188,0.11713 -0.3514,0 -0.60634,-0.1378 -0.25494,-0.1378 -0.4203,-0.4203 -0.1447,-0.23427 -0.22738,-0.58567 -0.0758,-0.3514 -0.0896,-0.80615 l 2.67339,-1.98437 q 0,0.19981 0,0.31006 0,0.10335 0,0.33072 z"
         style="font-family:'Roboto Mono';-inkscape-font-specification:'Roboto Mono Bold';fill:#000000;stroke:none"
         id="path453" /><path
         d="m -252.63169,185.76765 -1.61231,-2.32888 h -2.06016 l 2.49425,3.65869 -2.59071,3.79649 h 2.07394 l 1.70188,-2.43912 1.71565,2.43912 h 2.06706 l -2.59071,-3.79649 2.50114,-3.65869 h -2.06017 z"
         style="font-family:'Roboto Mono';-inkscape-font-specification:'Roboto Mono Bold';fill:#000000;stroke:none"
         id="path455" /><path
         d="M -241.0424,187.07679 V 184.679 q 0,-0.97151 -0.22738,-1.70876 -0.22737,-0.74414 -0.64767,-1.24713 -0.42719,-0.49609 -1.03353,-0.75103 -0.60634,-0.25493 -1.36426,-0.25493 -0.75103,0 -1.35736,0.25493 -0.59945,0.25494 -1.01975,0.75103 -0.42719,0.50299 -0.65457,1.24713 -0.22738,0.73725 -0.22738,1.70876 v 2.39779 q 0,0.97151 0.22738,1.71565 0.23427,0.73725 0.66146,1.23335 0.4203,0.50298 1.02664,0.75792 0.60633,0.25494 1.35736,0.25494 0.75792,0 1.36426,-0.25494 0.60634,-0.25494 1.02664,-0.75792 0.4203,-0.4961 0.64078,-1.23335 0.22738,-0.74414 0.22738,-1.71565 z m -4.60264,-0.82682 q 0,-0.2136 0,-0.32384 0,-0.11025 0,-0.44097 v -1.10932 q 0,-0.55811 0.0827,-0.96463 0.0896,-0.40652 0.26872,-0.66146 0.16536,-0.24115 0.40652,-0.35829 0.24804,-0.12402 0.57188,-0.12402 0.28939,0 0.51677,0.0965 0.23426,0.0896 0.39274,0.2825 0.2067,0.24116 0.31006,0.64768 0.11024,0.39963 0.12402,0.96462 z m 2.67339,1.11621 q 0,0.5581 -0.0896,0.97151 -0.0827,0.40652 -0.25494,0.66835 -0.16536,0.24805 -0.41341,0.37207 -0.24805,0.11713 -0.57189,0.11713 -0.3514,0 -0.60633,-0.1378 -0.25494,-0.1378 -0.4203,-0.4203 -0.1447,-0.23427 -0.22738,-0.58567 -0.0758,-0.3514 -0.0896,-0.80615 l 2.67339,-1.98437 q 0,0.19981 0,0.31006 0,0.10335 0,0.33072 z"
         style="font-family:'Roboto Mono';-inkscape-font-specification:'Roboto Mono Bold';fill:#000000;stroke:none"
         id="path457" /><path
         d="m -239.00979,185.95369 1.52962,0.37896 q 0.11024,-0.11024 0.23426,-0.20671 0.12403,-0.10335 0.2825,-0.17914 0.15848,-0.0758 0.36518,-0.12403 0.20671,-0.0482 0.4892,-0.0482 0.42031,0 0.73036,0.13092 0.31006,0.13091 0.51677,0.37207 0.2067,0.24115 0.30317,0.57877 0.10335,0.33073 0.10335,0.73036 0,0.40652 -0.0827,0.75792 -0.0758,0.3514 -0.24116,0.60634 -0.17225,0.25494 -0.44786,0.39963 -0.26872,0.14469 -0.65457,0.14469 -0.62701,0 -1.03353,-0.35829 -0.39963,-0.35829 -0.46853,-1.01285 h -1.88791 q 0.0207,0.69591 0.31006,1.24023 0.29628,0.53743 0.76481,0.9095 0.46853,0.37207 1.06798,0.565 0.60633,0.19293 1.25401,0.19293 0.85438,0 1.48139,-0.26872 0.62701,-0.26872 1.04042,-0.73036 0.41341,-0.46164 0.61322,-1.06798 0.19982,-0.60634 0.19982,-1.28158 0,-0.79237 -0.20671,-1.41937 -0.2067,-0.62701 -0.59255,-1.06109 -0.39274,-0.43408 -0.96463,-0.66146 -0.56499,-0.23427 -1.28846,-0.23427 -0.50988,0 -0.90262,0.13092 -0.39274,0.13091 -0.60633,0.25493 l 0.24115,-2.20486 h 3.98942 v -1.62608 h -5.56727 z"
         style="font-family:'Roboto Mono';-inkscape-font-specification:'Roboto Mono Bold';fill:#000000;stroke:none"
         id="path459" /><path
         d="M -224.10632,187.07679 V 184.679 q 0,-0.97151 -0.22738,-1.70876 -0.22737,-0.74414 -0.64768,-1.24713 -0.42719,-0.49609 -1.03352,-0.75103 -0.60634,-0.25493 -1.36426,-0.25493 -0.75103,0 -1.35737,0.25493 -0.59944,0.25494 -1.01974,0.75103 -0.4272,0.50299 -0.65457,1.24713 -0.22738,0.73725 -0.22738,1.70876 v 2.39779 q 0,0.97151 0.22738,1.71565 0.23426,0.73725 0.66146,1.23335 0.4203,0.50298 1.02663,0.75792 0.60634,0.25494 1.35737,0.25494 0.75792,0 1.36426,-0.25494 0.60633,-0.25494 1.02663,-0.75792 0.42031,-0.4961 0.64079,-1.23335 0.22738,-0.74414 0.22738,-1.71565 z m -4.60265,-0.82682 q 0,-0.2136 0,-0.32384 0,-0.11025 0,-0.44097 v -1.10932 q 0,-0.55811 0.0827,-0.96463 0.0896,-0.40652 0.26871,-0.66146 0.16537,-0.24115 0.40652,-0.35829 0.24805,-0.12402 0.57189,-0.12402 0.28939,0 0.51676,0.0965 0.23427,0.0896 0.39274,0.2825 0.20671,0.24116 0.31006,0.64768 0.11025,0.39963 0.12403,0.96462 z m 2.6734,1.11621 q 0,0.5581 -0.0896,0.97151 -0.0827,0.40652 -0.25493,0.66835 -0.16537,0.24805 -0.41341,0.37207 -0.24805,0.11713 -0.57189,0.11713 -0.3514,0 -0.60634,-0.1378 -0.25493,-0.1378 -0.4203,-0.4203 -0.14469,-0.23427 -0.22737,-0.58567 -0.0758,-0.3514 -0.0896,-0.80615 l 2.6734,-1.98437 q 0,0.19981 0,0.31006 0,0.10335 0,0.33072 z"
         style="font-family:'Roboto Mono';-inkscape-font-specification:'Roboto Mono Bold';fill:#000000;stroke:none"
         id="path461" /><path
         d="M -215.63828,187.07679 V 184.679 q 0,-0.97151 -0.22738,-1.70876 -0.22737,-0.74414 -0.64768,-1.24713 -0.42719,-0.49609 -1.03352,-0.75103 -0.60634,-0.25493 -1.36426,-0.25493 -0.75103,0 -1.35737,0.25493 -0.59944,0.25494 -1.01974,0.75103 -0.4272,0.50299 -0.65457,1.24713 -0.22738,0.73725 -0.22738,1.70876 v 2.39779 q 0,0.97151 0.22738,1.71565 0.23426,0.73725 0.66146,1.23335 0.4203,0.50298 1.02663,0.75792 0.60634,0.25494 1.35737,0.25494 0.75792,0 1.36426,-0.25494 0.60633,-0.25494 1.02663,-0.75792 0.42031,-0.4961 0.64079,-1.23335 0.22738,-0.74414 0.22738,-1.71565 z m -4.60265,-0.82682 q 0,-0.2136 0,-0.32384 0,-0.11025 0,-0.44097 v -1.10932 q 0,-0.55811 0.0827,-0.96463 0.0896,-0.40652 0.26871,-0.66146 0.16537,-0.24115 0.40652,-0.35829 0.24805,-0.12402 0.57189,-0.12402 0.28939,0 0.51676,0.0965 0.23427,0.0896 0.39274,0.2825 0.20671,0.24116 0.31006,0.64768 0.11025,0.39963 0.12403,0.96462 z m 2.6734,1.11621 q 0,0.5581 -0.0896,0.97151 -0.0827,0.40652 -0.25493,0.66835 -0.16537,0.24805 -0.41341,0.37207 -0.24805,0.11713 -0.57189,0.11713 -0.3514,0 -0.60634,-0.1378 -0.25493,-0.1378 -0.4203,-0.4203 -0.14469,-0.23427 -0.22737,-0.58567 -0.0758,-0.3514 -0.0896,-0.80615 l 2.6734,-1.98437 q 0,0.19981 0,0.31006 0,0.10335 0,0.33072 z"
         style="font-family:'Roboto Mono';-inkscape-font-specification:'Roboto Mono Bold';fill:#000000;stroke:none"
         id="path463" /></g></g></svg>
