<?xml version="1.0" encoding="UTF-8" standalone="no"?>
<!-- Created with Inkscape (http://www.inkscape.org/) -->

<svg
   width="361.24442mm"
   height="89.605553mm"
   viewBox="0 0 361.24442 89.605553"
   version="1.1"
   id="svg19516"
   xml:space="preserve"
   inkscape:version="1.2.2 (b0a84865, 2022-12-01)"
   sodipodi:docname="ega_arch_sc.svg"
   xmlns:inkscape="http://www.inkscape.org/namespaces/inkscape"
   xmlns:sodipodi="http://sodipodi.sourceforge.net/DTD/sodipodi-0.dtd"
   xmlns="http://www.w3.org/2000/svg"
   xmlns:svg="http://www.w3.org/2000/svg"><sodipodi:namedview
     id="namedview19518"
     pagecolor="#ffffff"
     bordercolor="#000000"
     borderopacity="0.25"
     inkscape:showpageshadow="2"
     inkscape:pageopacity="0.0"
     inkscape:pagecheckerboard="0"
     inkscape:deskcolor="#d1d1d1"
     inkscape:document-units="mm"
     showgrid="false"
     inkscape:zoom="0.7035625"
     inkscape:cx="653.10473"
     inkscape:cy="273.60753"
     inkscape:window-width="1526"
     inkscape:window-height="867"
     inkscape:window-x="69"
     inkscape:window-y="52"
     inkscape:window-maximized="0"
     inkscape:current-layer="layer1" /><defs
     id="defs19513"><marker
       style="overflow:visible"
       id="TriangleStart"
       refX="0"
       refY="0"
       orient="auto-start-reverse"
       inkscape:stockid="TriangleStart"
       markerWidth="5.3244081"
       markerHeight="6.155385"
       viewBox="0 0 5.3244081 6.1553851"
       inkscape:isstock="true"
       inkscape:collect="always"
       preserveAspectRatio="xMidYMid"><path
         transform="scale(0.5)"
         style="fill:context-stroke;fill-rule:evenodd;stroke:context-stroke;stroke-width:1pt"
         d="M 5.77,0 -2.88,5 V -5 Z"
         id="path135" /></marker></defs><g
     inkscape:label="Layer 1"
     inkscape:groupmode="layer"
     id="layer1"
     transform="translate(79.944244,-25.671801)"><path
       style="fill:#000000;fill-opacity:1;stroke:#000000;stroke-width:1.172;stroke-dasharray:none;stroke-dashoffset:0;stroke-opacity:1"
       d="M 106.85471,68.557948 H 51.449536"
       id="path26903"
       sodipodi:nodetypes="cc" /><path
       style="fill:#000000;fill-opacity:1;stroke:#000000;stroke-width:1.172;stroke-dasharray:none;stroke-dashoffset:0;stroke-opacity:1"
       d="M 106.59838,85.475566 H 51.193208"
       id="path26905"
       sodipodi:nodetypes="cc" /><path
       style="fill:#000000;fill-opacity:1;stroke:#000000;stroke-width:1.172;stroke-dasharray:none;stroke-dashoffset:0;stroke-opacity:1"
       d="M 106.72654,102.00869 H 51.321372"
       id="path26907"
       sodipodi:nodetypes="cc" /><path
       style="fill:#000000;fill-opacity:1;stroke:#000000;stroke-width:1.172;stroke-dasharray:none;stroke-dashoffset:0;stroke-opacity:1"
       d="M 106.85471,52.281149 H 51.449536"
       id="path26909"
       sodipodi:nodetypes="cc" /><path
       style="fill:#000000;fill-opacity:1;stroke:#000000;stroke-width:1.172;stroke-dasharray:none;stroke-dashoffset:0;stroke-opacity:1;marker-start:url(#TriangleStart)"
       d="m 121.18796,75.821736 -15.01727,0"
       id="path26911"
       sodipodi:nodetypes="cc" /><path
       style="fill:#000000;fill-opacity:1;stroke:#000000;stroke-width:1.172;stroke-dasharray:none;stroke-dashoffset:0;stroke-opacity:1"
       d="M 106.5127,102.61575 V 51.664262"
       id="path26913"
       sodipodi:nodetypes="cc" /><g
       id="g26901"><path
         style="fill:#000000;fill-opacity:1;stroke:#000000;stroke-width:1.172;stroke-dasharray:none;stroke-dashoffset:0;stroke-opacity:1"
         d="m 35.141174,68.45416 h 55.40517"
         id="path26163"
         sodipodi:nodetypes="cc" /><path
         style="fill:#000000;fill-opacity:1;stroke:#000000;stroke-width:1.172;stroke-dasharray:none;stroke-dashoffset:0;stroke-opacity:1"
         d="m 35.397502,85.371778 h 55.40517"
         id="path26165"
         sodipodi:nodetypes="cc" /><path
         style="fill:#000000;fill-opacity:1;stroke:#000000;stroke-width:1.172;stroke-dasharray:none;stroke-dashoffset:0;stroke-opacity:1"
         d="m 35.269338,101.9049 h 55.40517"
         id="path26167"
         sodipodi:nodetypes="cc" /><path
         style="fill:#000000;fill-opacity:1;stroke:#000000;stroke-width:1.172;stroke-dasharray:none;stroke-dashoffset:0;stroke-opacity:1"
         d="m 35.141174,52.177361 h 55.40517"
         id="path26161"
         sodipodi:nodetypes="cc" /><path
         style="fill:#000000;fill-opacity:1;stroke:#000000;stroke-width:1.172;stroke-dasharray:none;stroke-dashoffset:0;stroke-opacity:1"
         d="m -19.579978,75.717948 h 55.40517"
         id="path26051"
         sodipodi:nodetypes="cc" /><path
         style="fill:#000000;fill-opacity:1;stroke:#000000;stroke-width:1.172;stroke-dasharray:none;stroke-dashoffset:0;stroke-opacity:1"
         d="m 35.483183,102.51196 0,-50.951486"
         id="path26110"
         sodipodi:nodetypes="cc" /></g><path
       id="rect21568-7"
       style="fill:#8b8484;stroke:#000000;stroke-width:0.572"
       d="m 49.847492,46.534241 h 44.802944 v 12.31226 H 49.847492 Z" /><path
       id="rect21568-9"
       style="fill:#b5b5b5;stroke:#000000;stroke-width:0.572"
       d="m 125.43108,65.067253 h 40.69885 v 20.178431 h -40.69885 z" /><path
       id="rect21568-5"
       style="fill:#ffffff;stroke:#000000;stroke-width:0.572"
       d="m 200.96776,51.740463 h 73.18953 v 45.828968 h -73.18953 z" /><g
       aria-label="CRTC"
       id="text23443-23"
       style="font-weight:bold;font-size:9.525px;font-family:'Avenir Next';-inkscape-font-specification:'Avenir Next Bold';text-align:center;text-anchor:middle;fill:#b5b5b5;stroke:#000000;stroke-width:0.572"><path
         d="m 140.11357,76.59251 h -1.30689 q -0.0186,0.306958 -0.10232,0.525549 -0.0837,0.218591 -0.22789,0.358118 -0.14418,0.139526 -0.34882,0.204638 -0.20464,0.06511 -0.46044,0.06511 -0.19068,0 -0.34881,-0.04186 -0.15348,-0.04651 -0.27906,-0.139527 -0.11627,-0.08372 -0.20929,-0.209289 -0.0884,-0.125574 -0.15347,-0.288355 -0.093,-0.237195 -0.13953,-0.553454 -0.0419,-0.320911 -0.0419,-0.725537 v -0.920874 q 0,-0.297657 0.0279,-0.553455 0.0279,-0.260449 0.0884,-0.47439 0.0791,-0.274402 0.20929,-0.47904 0.13488,-0.20929 0.32556,-0.320911 0.11162,-0.06511 0.24185,-0.09767 0.13488,-0.03256 0.28835,-0.03256 0.28836,0 0.493,0.07906 0.20929,0.07441 0.34881,0.223242 0.13488,0.153479 0.20464,0.381372 0.0744,0.227893 0.093,0.5302 h 1.30225 q -0.0465,-0.5302 -0.22325,-0.95343 -0.17673,-0.42323 -0.48369,-0.716236 -0.30696,-0.293005 -0.74414,-0.451135 -0.43253,-0.15813 -0.99064,-0.15813 -0.37672,0 -0.70693,0.09767 -0.32556,0.09302 -0.59996,0.269751 -0.30696,0.209289 -0.54881,0.511596 -0.24184,0.302308 -0.39067,0.688331 -0.13023,0.316259 -0.19534,0.68833 -0.0651,0.367419 -0.0651,0.776696 v 0.911573 q 0,0.437182 0.0698,0.827856 0.0744,0.390674 0.20929,0.716235 0.13953,0.325562 0.33952,0.595313 0.20464,0.269751 0.46509,0.460437 0.2837,0.204638 0.63717,0.316259 0.35811,0.106971 0.77669,0.106971 0.5302,0 0.96739,-0.153479 0.43718,-0.15813 0.75344,-0.446485 0.31626,-0.288354 0.50229,-0.697631 0.19069,-0.409278 0.22324,-0.920874 z"
         style="font-family:'Roboto Mono';-inkscape-font-specification:'Roboto Mono Bold';fill:#000000;stroke:none"
         id="path23265" /><path
         d="m 143.425,76.183232 1.27434,2.530078 h 1.39992 v -0.06046 l -1.45573,-2.795178 q 0.27905,-0.125574 0.5023,-0.297657 0.22789,-0.172082 0.39067,-0.404626 0.15813,-0.227893 0.24184,-0.516248 0.0884,-0.293005 0.0884,-0.655773 0,-0.502295 -0.17673,-0.883667 -0.17208,-0.381372 -0.493,-0.637171 -0.32556,-0.255798 -0.78134,-0.386023 -0.45579,-0.134875 -1.01855,-0.134875 h -2.26962 v 6.771679 h 1.30689 v -2.530078 z m -0.99064,-1.0604 v -2.120801 h 0.96273 q 0.26976,0 0.47905,0.06511 0.20928,0.06511 0.35346,0.186036 0.16278,0.134875 0.24185,0.344165 0.0837,0.204638 0.0837,0.474389 0,0.223242 -0.0651,0.404627 -0.0605,0.181384 -0.18138,0.311609 -0.14418,0.16278 -0.37672,0.251147 -0.2279,0.08372 -0.5302,0.08372 z"
         style="font-family:'Roboto Mono';-inkscape-font-specification:'Roboto Mono Bold';fill:#000000;stroke:none"
         id="path23267" /><path
         d="m 151.81984,73.006682 v -1.065051 h -5.46014 v 1.065051 h 2.06034 v 5.706628 h 1.31155 v -5.706628 z"
         style="font-family:'Roboto Mono';-inkscape-font-specification:'Roboto Mono Bold';fill:#000000;stroke:none"
         id="path23269" /><path
         d="m 157.26136,76.59251 h -1.30689 q -0.0186,0.306958 -0.10232,0.525549 -0.0837,0.218591 -0.2279,0.358118 -0.14417,0.139526 -0.34881,0.204638 -0.20464,0.06511 -0.46044,0.06511 -0.19068,0 -0.34881,-0.04186 -0.15348,-0.04651 -0.27906,-0.139527 -0.11627,-0.08372 -0.20929,-0.209289 -0.0884,-0.125574 -0.15348,-0.288355 -0.093,-0.237195 -0.13952,-0.553454 -0.0419,-0.320911 -0.0419,-0.725537 v -0.920874 q 0,-0.297657 0.0279,-0.553455 0.0279,-0.260449 0.0884,-0.47439 0.0791,-0.274402 0.20929,-0.47904 0.13488,-0.20929 0.32556,-0.320911 0.11162,-0.06511 0.24185,-0.09767 0.13487,-0.03256 0.28835,-0.03256 0.28836,0 0.493,0.07906 0.20929,0.07441 0.34881,0.223242 0.13488,0.153479 0.20464,0.381372 0.0744,0.227893 0.093,0.5302 h 1.30224 q -0.0465,-0.5302 -0.22324,-0.95343 -0.17673,-0.42323 -0.48369,-0.716236 -0.30696,-0.293005 -0.74414,-0.451135 -0.43253,-0.15813 -0.99064,-0.15813 -0.37672,0 -0.70693,0.09767 -0.32556,0.09302 -0.59996,0.269751 -0.30696,0.209289 -0.54881,0.511596 -0.24184,0.302308 -0.39067,0.688331 -0.13023,0.316259 -0.19534,0.68833 -0.0651,0.367419 -0.0651,0.776696 v 0.911573 q 0,0.437182 0.0698,0.827856 0.0744,0.390674 0.20929,0.716235 0.13953,0.325562 0.33952,0.595313 0.20463,0.269751 0.46508,0.460437 0.28371,0.204638 0.63717,0.316259 0.35812,0.106971 0.7767,0.106971 0.5302,0 0.96738,-0.153479 0.43719,-0.15813 0.75345,-0.446485 0.31626,-0.288354 0.50229,-0.697631 0.19069,-0.409278 0.22324,-0.920874 z"
         style="font-family:'Roboto Mono';-inkscape-font-specification:'Roboto Mono Bold';fill:#000000;stroke:none"
         id="path23271" /></g><g
       aria-label="SCREEN"
       id="text23443-7"
       style="font-weight:bold;font-size:9.525px;font-family:'Avenir Next';-inkscape-font-specification:'Avenir Next Bold';text-align:center;text-anchor:middle;fill:#b5b5b5;stroke:#000000;stroke-width:0.572"><path
         d="m 224.90505,75.636368 q 0,0.181384 -0.0744,0.334863 -0.0744,0.148828 -0.21394,0.255798 -0.13953,0.106971 -0.34416,0.167432 -0.19999,0.06046 -0.46044,0.06046 -0.29301,0 -0.5395,-0.06511 -0.24185,-0.06511 -0.41393,-0.204638 -0.17673,-0.139527 -0.2744,-0.358118 -0.0977,-0.218591 -0.10697,-0.525549 h -1.28365 q 0,0.525549 0.19999,0.916223 0.20464,0.390674 0.55346,0.679028 0.36742,0.293005 0.86041,0.446484 0.49764,0.148828 1.00459,0.148828 0.51625,0 0.95343,-0.120922 0.43718,-0.125574 0.75344,-0.36742 0.31626,-0.237195 0.49299,-0.58136 0.18139,-0.348816 0.18139,-0.7953 0,-0.516247 -0.2372,-0.911572 -0.23719,-0.395325 -0.63717,-0.692981 -0.2651,-0.181384 -0.58136,-0.320911 -0.31626,-0.139526 -0.66507,-0.237194 -0.32556,-0.08837 -0.58601,-0.190687 -0.2558,-0.102319 -0.43719,-0.227893 -0.18138,-0.120922 -0.27905,-0.274401 -0.093,-0.153479 -0.093,-0.344165 0,-0.181385 0.0698,-0.334864 0.0744,-0.15813 0.21394,-0.274402 0.13952,-0.111621 0.33951,-0.172082 0.20464,-0.06511 0.46509,-0.06511 0.2837,0 0.49299,0.07906 0.21394,0.07441 0.35812,0.209289 0.13953,0.139526 0.20929,0.330212 0.0744,0.190687 0.0837,0.41858 h 1.27434 q 0,-0.455787 -0.17674,-0.837159 -0.17673,-0.381372 -0.49299,-0.660424 -0.31626,-0.274402 -0.75809,-0.427881 -0.43719,-0.153479 -0.96739,-0.153479 -0.51159,0 -0.94878,0.134875 -0.43718,0.130225 -0.75809,0.376721 -0.32091,0.246497 -0.50229,0.595313 -0.18139,0.348816 -0.18139,0.776697 0,0.37207 0.13488,0.68833 0.13952,0.316259 0.40928,0.576709 0.26975,0.260449 0.69298,0.47904 0.42788,0.218591 0.99063,0.37207 0.36277,0.09767 0.60462,0.213941 0.24649,0.111621 0.39997,0.246496 0.14883,0.139527 0.20929,0.297657 0.0651,0.15813 0.0651,0.339514 z"
         style="font-family:'Roboto Mono';-inkscape-font-specification:'Roboto Mono Bold';fill:#000000;stroke:none"
         id="path23252" /><path
         d="m 231.80695,75.282901 h -1.3069 q -0.0186,0.306958 -0.10232,0.525549 -0.0837,0.218592 -0.22789,0.358118 -0.14418,0.139526 -0.34882,0.204639 -0.20463,0.06511 -0.46043,0.06511 -0.19069,0 -0.34882,-0.04186 -0.15348,-0.04651 -0.27905,-0.139526 -0.11627,-0.08372 -0.20929,-0.20929 -0.0884,-0.125574 -0.15348,-0.288354 -0.093,-0.237195 -0.13953,-0.553455 -0.0419,-0.32091 -0.0419,-0.725537 v -0.920874 q 0,-0.297656 0.0279,-0.553454 0.0279,-0.26045 0.0884,-0.47439 0.0791,-0.274402 0.20929,-0.479041 0.13487,-0.209289 0.32556,-0.32091 0.11162,-0.06511 0.24184,-0.09767 0.13488,-0.03256 0.28836,-0.03256 0.28835,0 0.49299,0.07906 0.20929,0.07441 0.34882,0.223242 0.13487,0.153479 0.20464,0.381372 0.0744,0.227893 0.093,0.5302 h 1.30225 q -0.0465,-0.5302 -0.22324,-0.95343 -0.17674,-0.42323 -0.48369,-0.716235 -0.30696,-0.293005 -0.74414,-0.451135 -0.43254,-0.15813 -0.99064,-0.15813 -0.37672,0 -0.70693,0.09767 -0.32557,0.09302 -0.59997,0.269751 -0.30696,0.20929 -0.5488,0.511597 -0.24185,0.302307 -0.39068,0.68833 -0.13022,0.31626 -0.19533,0.68833 -0.0651,0.36742 -0.0651,0.776697 v 0.911572 q 0,0.437183 0.0698,0.827856 0.0744,0.390674 0.20929,0.716236 0.13952,0.325561 0.33951,0.595312 0.20464,0.269751 0.46509,0.460437 0.2837,0.204639 0.63717,0.31626 0.35812,0.10697 0.7767,0.10697 0.5302,0 0.96738,-0.153479 0.43718,-0.15813 0.75344,-0.446484 0.31626,-0.288355 0.5023,-0.697632 0.19068,-0.409277 0.22324,-0.920874 z"
         style="font-family:'Roboto Mono';-inkscape-font-specification:'Roboto Mono Bold';fill:#000000;stroke:none"
         id="path23254" /><path
         d="m 235.11837,74.873624 1.27435,2.530078 h 1.39991 v -0.06046 l -1.45572,-2.795178 q 0.27905,-0.125573 0.50229,-0.297656 0.22789,-0.172083 0.39067,-0.404626 0.15813,-0.227893 0.24185,-0.516248 0.0884,-0.293005 0.0884,-0.655774 0,-0.502295 -0.17674,-0.883667 -0.17208,-0.381372 -0.49299,-0.63717 -0.32556,-0.255799 -0.78135,-0.386023 -0.45578,-0.134876 -1.01854,-0.134876 h -2.26963 v 6.77168 h 1.3069 v -2.530078 z m -0.99063,-1.060401 v -2.1208 h 0.96273 q 0.26975,0 0.47904,0.06511 0.20929,0.06511 0.35347,0.186035 0.16278,0.134876 0.24184,0.344165 0.0837,0.204639 0.0837,0.47439 0,0.223242 -0.0651,0.404626 -0.0605,0.181385 -0.18139,0.311609 -0.14418,0.162781 -0.37672,0.251148 -0.22789,0.08371 -0.5302,0.08371 z"
         style="font-family:'Roboto Mono';-inkscape-font-specification:'Roboto Mono Bold';fill:#000000;stroke:none"
         id="path23256" /><path
         d="m 242.70396,74.436441 v -1.032495 h -2.78123 v -1.706872 h 3.23701 v -1.065052 h -4.54856 v 6.77168 h 4.56252 v -1.05575 h -3.25097 v -1.911511 z"
         style="font-family:'Roboto Mono';-inkscape-font-specification:'Roboto Mono Bold';fill:#000000;stroke:none"
         id="path23258" /><path
         d="m 248.41989,74.436441 v -1.032495 h -2.78123 v -1.706872 h 3.23701 v -1.065052 h -4.54856 v 6.77168 h 4.56252 v -1.05575 h -3.25097 v -1.911511 z"
         style="font-family:'Roboto Mono';-inkscape-font-specification:'Roboto Mono Bold';fill:#000000;stroke:none"
         id="path23260" /><path
         d="m 254.43348,77.403702 v -6.77168 h -1.31155 l -0.005,4.348572 -1.86966,-4.348572 h -1.3162 v 6.77168 h 1.3162 v -4.367175 l 1.88361,4.367175 z"
         style="font-family:'Roboto Mono';-inkscape-font-specification:'Roboto Mono Bold';fill:#000000;stroke:none"
         id="path23262" /></g><g
       aria-label="EGA CARD"
       id="text23443-2"
       style="font-weight:bold;font-size:9.525px;font-family:'Avenir Next';-inkscape-font-specification:'Avenir Next Bold';text-align:center;text-anchor:middle;fill:#b5b5b5;stroke:#000000;stroke-width:0.572"><path
         d="m 80.879995,33.779299 v -1.032496 h -2.781226 v -1.706872 h 3.237012 V 29.97488 h -4.548559 v 6.771679 h 4.562512 V 35.69081 h -3.250965 v -1.911511 z"
         style="font-family:'Roboto Mono';-inkscape-font-specification:'Roboto Mono Bold';fill:#000000;stroke:none"
         id="path23237" /><path
         d="m 87.084267,35.95591 -0.0047,-2.669605 h -2.423108 v 0.976685 h 1.120862 l -0.0047,1.227832 q -0.05116,0.06046 -0.153479,0.116272 -0.09767,0.05116 -0.227893,0.09302 -0.130224,0.04186 -0.279052,0.06511 -0.148829,0.02325 -0.302308,0.02325 -0.251147,-0.0047 -0.451135,-0.07906 -0.195337,-0.07906 -0.344165,-0.227893 -0.08837,-0.08837 -0.162781,-0.199988 -0.06976,-0.116272 -0.125573,-0.251147 -0.08837,-0.232544 -0.139527,-0.534851 -0.04651,-0.302307 -0.04651,-0.669727 v -0.930175 q 0,-0.293006 0.03256,-0.544153 0.03721,-0.251148 0.102319,-0.455786 0.08372,-0.2651 0.20929,-0.460437 0.130224,-0.195337 0.288354,-0.31626 0.120923,-0.08837 0.260449,-0.134876 0.139527,-0.04651 0.288355,-0.04651 0.274402,0 0.469739,0.07441 0.199987,0.06976 0.330212,0.21394 0.116272,0.130225 0.181384,0.320911 0.06976,0.190686 0.10232,0.437182 h 1.27434 q -0.05116,-0.488342 -0.218591,-0.879016 -0.162781,-0.390674 -0.455786,-0.665075 -0.293005,-0.269751 -0.720886,-0.413929 -0.42323,-0.144177 -0.995288,-0.144177 -0.372071,0 -0.706934,0.102319 -0.334863,0.10232 -0.618567,0.302308 -0.241845,0.176733 -0.446484,0.418579 -0.199988,0.241845 -0.353467,0.544152 -0.162781,0.339515 -0.251147,0.758094 -0.08837,0.413928 -0.08837,0.897619 v 0.920874 q 0,0.506946 0.08837,0.939478 0.09302,0.432532 0.269751,0.776697 0.153479,0.311608 0.37207,0.553454 0.223242,0.241846 0.492993,0.409277 0.274402,0.162781 0.599963,0.246497 0.330213,0.08837 0.702283,0.08837 0.427881,0 0.799951,-0.07906 0.37207,-0.07906 0.674378,-0.20929 0.297656,-0.125573 0.516247,-0.283703 0.218591,-0.15813 0.344165,-0.311609 z"
         style="font-family:'Roboto Mono';-inkscape-font-specification:'Roboto Mono Bold';fill:#000000;stroke:none"
         id="path23239" /><path
         d="m 91.474697,35.332692 0.395324,1.413867 h 1.376661 L 91.07007,29.97488 h -1.185974 l -2.218469,6.771679 h 1.37666 l 0.399976,-1.413867 z m -1.711524,-1.11156 0.711585,-2.492871 0.692981,2.492871 z"
         style="font-family:'Roboto Mono';-inkscape-font-specification:'Roboto Mono Bold';fill:#000000;stroke:none"
         id="path23241" /><path
         d="m 104.27857,34.625758 h -1.3069 q -0.0186,0.306958 -0.10232,0.52555 -0.0837,0.218591 -0.22789,0.358117 -0.14418,0.139527 -0.34882,0.204639 -0.20464,0.06511 -0.46044,0.06511 -0.19068,0 -0.34881,-0.04186 -0.15348,-0.04651 -0.27905,-0.139526 -0.11628,-0.08372 -0.20929,-0.209289 -0.0884,-0.125574 -0.15348,-0.288355 -0.093,-0.237195 -0.13953,-0.553454 -0.0419,-0.320911 -0.0419,-0.725538 v -0.920874 q 0,-0.297656 0.0279,-0.553454 0.0279,-0.260449 0.0884,-0.47439 0.0791,-0.274402 0.20929,-0.47904 0.13488,-0.20929 0.32557,-0.320911 0.11162,-0.06511 0.24184,-0.09767 0.13488,-0.03256 0.28836,-0.03256 0.28835,0 0.49299,0.07906 0.20929,0.07441 0.34881,0.223243 0.13488,0.153479 0.20464,0.381372 0.0744,0.227893 0.093,0.5302 h 1.30225 q -0.0465,-0.5302 -0.22325,-0.95343 -0.17673,-0.42323 -0.48369,-0.716236 -0.30695,-0.293005 -0.74414,-0.451135 -0.43253,-0.15813 -0.99063,-0.15813 -0.37673,0 -0.70694,0.09767 -0.32556,0.09302 -0.59996,0.269751 -0.30696,0.209289 -0.548805,0.511596 -0.241846,0.302307 -0.390674,0.68833 -0.130225,0.31626 -0.195337,0.68833 -0.06511,0.36742 -0.06511,0.776697 v 0.911572 q 0,0.437183 0.06976,0.827857 0.07441,0.390674 0.20929,0.716235 0.139526,0.325562 0.339514,0.595313 0.204641,0.269751 0.465091,0.460437 0.2837,0.204638 0.63717,0.316259 0.35811,0.106971 0.77669,0.106971 0.5302,0 0.96739,-0.153479 0.43718,-0.15813 0.75344,-0.446485 0.31626,-0.288354 0.50229,-0.697632 0.19069,-0.409277 0.22325,-0.920874 z"
         style="font-family:'Roboto Mono';-inkscape-font-specification:'Roboto Mono Bold';fill:#000000;stroke:none"
         id="path23243" /><path
         d="m 108.62249,35.332692 0.39532,1.413867 h 1.37666 l -2.17661,-6.771679 h -1.18597 l -2.21847,6.771679 h 1.37666 l 0.39997,-1.413867 z m -1.71153,-1.11156 0.71159,-2.492871 0.69298,2.492871 z"
         style="font-family:'Roboto Mono';-inkscape-font-specification:'Roboto Mono Bold';fill:#000000;stroke:none"
         id="path23245" /><path
         d="m 113.30592,34.216481 1.27434,2.530078 h 1.39991 v -0.06046 l -1.45572,-2.795178 q 0.27905,-0.125574 0.50229,-0.297657 0.2279,-0.172082 0.39068,-0.404626 0.15813,-0.227893 0.24184,-0.516248 0.0884,-0.293005 0.0884,-0.655774 0,-0.502294 -0.17673,-0.883666 -0.17208,-0.381373 -0.493,-0.637171 -0.32556,-0.255798 -0.78134,-0.386023 -0.45579,-0.134875 -1.01855,-0.134875 h -2.26962 v 6.771679 h 1.30689 v -2.530078 z m -0.99064,-1.0604 V 31.03528 h 0.96273 q 0.26976,0 0.47904,0.06511 0.20929,0.06511 0.35347,0.186036 0.16278,0.134875 0.24185,0.344165 0.0837,0.204638 0.0837,0.474389 0,0.223242 -0.0651,0.404627 -0.0605,0.181384 -0.18138,0.311609 -0.14418,0.16278 -0.37672,0.251147 -0.2279,0.08372 -0.5302,0.08372 z"
         style="font-family:'Roboto Mono';-inkscape-font-specification:'Roboto Mono Bold';fill:#000000;stroke:none"
         id="path23247" /><path
         d="m 116.69641,36.746559 h 1.81849 q 0.45114,0 0.84646,-0.111621 0.39998,-0.111621 0.73019,-0.320911 0.28371,-0.176733 0.5209,-0.437182 0.2372,-0.2651 0.41393,-0.576709 0.18603,-0.348816 0.28835,-0.767395 0.10232,-0.418579 0.10232,-0.888318 v -0.558105 q 0,-0.488343 -0.11162,-0.920874 -0.10697,-0.432532 -0.30696,-0.79065 -0.17208,-0.293005 -0.40462,-0.539502 -0.2279,-0.251147 -0.5209,-0.42323 -0.33486,-0.209289 -0.74414,-0.32091 -0.40928,-0.116272 -0.87902,-0.116272 h -1.75338 z m 1.3162,-5.711279 h 0.43718 q 0.2372,0 0.43719,0.05581 0.20463,0.05116 0.37207,0.148828 0.21859,0.130224 0.38137,0.334863 0.16743,0.204639 0.26975,0.465088 0.0837,0.218591 0.12557,0.483691 0.0465,0.260449 0.0465,0.553455 v 0.567407 q 0,0.311609 -0.0465,0.58136 -0.0419,0.2651 -0.12557,0.483691 -0.10232,0.251148 -0.2465,0.441834 -0.13952,0.186035 -0.31626,0.306958 -0.17208,0.116272 -0.38137,0.176733 -0.20929,0.06046 -0.45114,0.06046 h -0.50229 z"
         style="font-family:'Roboto Mono';-inkscape-font-specification:'Roboto Mono Bold';fill:#000000;stroke:none"
         id="path23249" /></g><g
       aria-label="C0"
       id="text23443-2-09"
       style="font-weight:bold;font-size:7.76111px;font-family:'Avenir Next';-inkscape-font-specification:'Avenir Next Bold';text-align:center;text-anchor:middle;fill:#b5b5b5;stroke:#000000;stroke-width:0.572"><path
         d="m 72.731797,54.030005 h -1.064879 q -0.01516,0.250114 -0.08337,0.428225 -0.06821,0.178111 -0.18569,0.291799 -0.117478,0.113689 -0.284221,0.166743 -0.166742,0.05306 -0.375171,0.05306 -0.155373,0 -0.28422,-0.03411 -0.125057,-0.0379 -0.227376,-0.113688 -0.09474,-0.06821 -0.170532,-0.170532 -0.072,-0.10232 -0.125057,-0.234956 -0.07579,-0.19327 -0.113688,-0.450963 -0.03411,-0.261482 -0.03411,-0.591178 v -0.750342 q 0,-0.242534 0.02274,-0.450963 0.02274,-0.212217 0.072,-0.386539 0.06442,-0.223587 0.170532,-0.390329 0.109899,-0.170533 0.265273,-0.261483 0.09095,-0.05306 0.197059,-0.07958 0.109899,-0.02653 0.234956,-0.02653 0.234955,0 0.401698,0.06442 0.170532,0.06063 0.28422,0.181901 0.109899,0.125057 0.166743,0.310748 0.06063,0.18569 0.07579,0.432015 h 1.061089 q -0.0379,-0.432015 -0.181901,-0.776869 -0.144005,-0.344854 -0.394119,-0.583599 -0.250114,-0.238745 -0.606337,-0.367592 -0.352433,-0.128846 -0.807185,-0.128846 -0.306958,0 -0.57602,0.07958 -0.265273,0.07579 -0.488859,0.219797 -0.250114,0.170533 -0.447174,0.416857 -0.197059,0.246324 -0.318326,0.560861 -0.106109,0.257693 -0.159164,0.560862 -0.05305,0.299378 -0.05305,0.632864 v 0.742762 q 0,0.356223 0.05684,0.67455 0.06063,0.318326 0.170532,0.583599 0.113688,0.265272 0.276641,0.485069 0.166743,0.219797 0.378961,0.375171 0.231166,0.166743 0.519175,0.257693 0.2918,0.08716 0.632864,0.08716 0.432015,0 0.788238,-0.125057 0.356223,-0.128847 0.613916,-0.363802 0.257693,-0.234955 0.409277,-0.568441 0.155374,-0.333485 0.181901,-0.750341 z"
         style="font-family:'Roboto Mono';-inkscape-font-specification:'Roboto Mono Bold';fill:#000000;stroke:none"
         id="path23232" /><path
         d="m 77.188372,53.658623 v -1.318782 q 0,-0.534334 -0.125057,-0.939822 -0.125057,-0.409277 -0.356222,-0.685918 -0.234956,-0.272852 -0.568441,-0.413067 -0.333485,-0.140215 -0.750342,-0.140215 -0.413067,0 -0.746552,0.140215 -0.329695,0.140215 -0.560861,0.413067 -0.234956,0.276641 -0.360013,0.685918 -0.125057,0.405488 -0.125057,0.939822 v 1.318782 q 0,0.534335 0.125057,0.943612 0.128847,0.405488 0.363802,0.678339 0.231166,0.276641 0.564651,0.416857 0.333486,0.140215 0.746552,0.140215 0.416857,0 0.750342,-0.140215 0.333485,-0.140216 0.564651,-0.416857 0.231166,-0.272851 0.352433,-0.678339 0.125057,-0.409277 0.125057,-0.943612 z m -2.531455,-0.454752 q 0,-0.117478 0,-0.178112 0,-0.06063 0,-0.242534 v -0.610127 q 0,-0.306957 0.04547,-0.530544 0.04926,-0.223587 0.147794,-0.363802 0.09095,-0.132636 0.223587,-0.19706 0.136426,-0.06821 0.314537,-0.06821 0.159164,0 0.284221,0.05305 0.128846,0.04927 0.216007,0.155374 0.113688,0.132636 0.170532,0.356223 0.06063,0.219797 0.06821,0.530544 z m 1.470366,0.613916 q 0,0.306958 -0.04927,0.534334 -0.04547,0.223587 -0.140215,0.367592 -0.09095,0.136425 -0.227376,0.204638 -0.136426,0.06442 -0.314538,0.06442 -0.193269,0 -0.333485,-0.07579 -0.140215,-0.07579 -0.231166,-0.231165 -0.07958,-0.128847 -0.125057,-0.322117 -0.04169,-0.19327 -0.04926,-0.443383 l 1.470366,-1.091407 q 0,0.109899 0,0.170533 0,0.05684 0,0.181901 z"
         style="font-family:'Roboto Mono';-inkscape-font-specification:'Roboto Mono Bold';fill:#000000;stroke:none"
         id="path23234" /></g><g
       aria-label="ISA
BUS"
       id="text23443-2-0"
       style="font-weight:bold;font-size:9.525px;font-family:'Avenir Next';-inkscape-font-specification:'Avenir Next Bold';text-align:center;text-anchor:middle;fill:#b5b5b5;stroke:#000000;stroke-width:0.572"><path
         d="m -4.9896527,65.817813 v 1.05575 h 1.2882934 v 4.664831 h -1.2882934 v 1.051099 h 3.9160399 v -1.051099 h -1.3208496 v -4.664831 h 1.3208496 v -1.05575 z"
         style="font-family:'Roboto Mono';-inkscape-font-specification:'Roboto Mono Bold';fill:#000000;stroke:none"
         id="path23219" /><path
         d="m 3.9539871,70.822159 q 0,0.181384 -0.074414,0.334863 -0.074414,0.148828 -0.2139404,0.255798 -0.1395263,0.106971 -0.344165,0.167432 -0.1999878,0.06046 -0.460437,0.06046 -0.2930053,0 -0.5395019,-0.06511 Q 2.079683,71.510489 1.9076005,71.370963 1.7308671,71.231436 1.6331986,71.012845 1.5355302,70.794254 1.5262284,70.487296 H 0.24258589 q 0,0.525549 0.19998779,0.916223 0.20463866,0.390674 0.55345456,0.679028 0.36741946,0.293005 0.86041256,0.446484 0.497644,0.148828 1.0045898,0.148828 0.5162475,0 0.9534301,-0.120922 0.4371826,-0.125574 0.7534424,-0.36742 0.3162598,-0.237195 0.4929931,-0.58136 0.1813843,-0.348816 0.1813843,-0.7953 0,-0.516247 -0.2371948,-0.911572 Q 4.7678909,69.50596 4.3679153,69.208304 4.1028152,69.02692 3.7865555,68.887393 3.4702957,68.747867 3.1214798,68.650199 2.7959183,68.561832 2.5354691,68.459512 2.2796708,68.357193 2.0982865,68.231619 1.9169022,68.110697 1.8192338,67.957218 q -0.093018,-0.153479 -0.093018,-0.344165 0,-0.181385 0.069763,-0.334864 0.074414,-0.15813 0.2139404,-0.274402 0.1395264,-0.111621 0.3395142,-0.172082 0.2046386,-0.06511 0.4650878,-0.06511 0.2837036,0 0.4929932,0.07906 0.2139404,0.07441 0.3581176,0.209289 0.1395264,0.139526 0.2092896,0.330213 0.074414,0.190686 0.083716,0.418579 h 1.2743408 q 0,-0.455787 -0.1767334,-0.837159 Q 4.879512,66.585208 4.5632522,66.306156 4.2469925,66.031754 3.805159,65.878275 3.3679764,65.724796 2.8377762,65.724796 q -0.5115966,0 -0.9487792,0.134875 -0.4371826,0.130225 -0.7580933,0.376721 -0.32091061,0.246497 -0.50229488,0.595313 -0.18138427,0.348816 -0.18138427,0.776697 0,0.37207 0.13487549,0.68833 0.13952636,0.316259 0.40927732,0.576709 0.26975094,0.260449 0.69298094,0.47904 0.4278808,0.218592 0.9906372,0.372071 0.3627685,0.09767 0.6046142,0.21394 0.2464966,0.111621 0.3999756,0.246496 0.1488281,0.139527 0.2092895,0.297657 0.065112,0.15813 0.065112,0.339514 z"
         style="font-family:'Roboto Mono';-inkscape-font-specification:'Roboto Mono Bold';fill:#000000;stroke:none"
         id="path23221" /><path
         d="m 9.4838819,71.175626 0.3953247,1.413867 H 11.255867 L 9.0792555,65.817813 H 7.8932814 l -2.2184691,6.77168 h 1.3766601 l 0.3999755,-1.413867 z m -1.7115233,-1.11156 0.7115844,-2.492871 0.6929809,2.492871 z"
         style="font-family:'Roboto Mono';-inkscape-font-specification:'Roboto Mono Bold';fill:#000000;stroke:none"
         id="path23223" /><path
         d="m -5.2873089,85.090637 h 2.4696166 q 0.5581054,0 1.0045898,-0.125574 0.4464843,-0.125574 0.7580932,-0.376721 0.31160886,-0.251147 0.4790405,-0.623218 0.16743163,-0.37207 0.16743163,-0.860412 0,-0.255799 -0.0697632,-0.492993 -0.0651123,-0.241846 -0.20463866,-0.446485 -0.13487549,-0.190686 -0.33486329,-0.334863 -0.1953369,-0.144177 -0.5302002,-0.237195 v -0.0047 q 0.1720826,-0.06511 0.3116089,-0.15813 0.1441773,-0.09302 0.25579835,-0.204638 0.20463866,-0.204639 0.30695799,-0.47439 0.10697021,-0.274402 0.11162109,-0.58136 0,-0.474389 -0.17673339,-0.823205 Q -0.91083207,78.997986 -1.2317427,78.770093 -1.5526533,78.5422 -2.0084394,78.430579 -2.4595747,78.318957 -3.0130293,78.318957 h -2.2742796 z m 1.3115478,-2.985864 h 1.2185302 q 0.2744018,0.0047 0.4743896,0.07441 0.1999878,0.06976 0.3255615,0.199988 0.1255737,0.125573 0.1813843,0.306958 0.060461,0.181384 0.060461,0.409277 0,0.218591 -0.079065,0.395325 -0.074414,0.176733 -0.2232422,0.302307 -0.1348755,0.111621 -0.3395142,0.176733 -0.1999877,0.06511 -0.4557861,0.06511 h -1.1627196 z m 0,-0.944129 v -1.776635 h 0.9673827 q 0.3162598,0.0047 0.5488037,0.06976 0.2371948,0.06511 0.3767212,0.209289 0.1069702,0.10232 0.1581299,0.255799 0.05581,0.153479 0.05581,0.358117 0,0.195337 -0.065112,0.348816 -0.060461,0.153479 -0.1767334,0.26045 -0.1395263,0.134875 -0.3674194,0.204638 -0.2278931,0.06511 -0.5255493,0.06976 z"
         style="font-family:'Roboto Mono';-inkscape-font-specification:'Roboto Mono Bold';fill:#000000;stroke:none"
         id="path23225" /><path
         d="M 4.9492752,78.318957 H 3.65168 l -0.00465,4.488098 q -0.00465,0.330213 -0.069763,0.58136 -0.065112,0.251148 -0.1953369,0.418579 -0.1209228,0.162781 -0.306958,0.246497 -0.1813842,0.07906 -0.4185791,0.07906 -0.2185913,0 -0.3860229,-0.07441 Q 2.1029374,83.979077 1.9866654,83.825598 1.8610917,83.658166 1.7959794,83.402368 1.735518,83.14657 1.7308671,82.807055 l -0.00465,-4.488098 H 0.41931928 l -0.004651,4.488098 q 0,0.567408 0.15812988,1.013892 0.16278075,0.441833 0.45578612,0.744141 0.2930054,0.302307 0.7022827,0.460437 0.4139282,0.158129 0.9255248,0.158129 0.5441529,0 0.9673828,-0.158129 0.4278809,-0.15813 0.7255371,-0.465088 Q 4.6423172,84.25813 4.7957962,83.816296 4.953926,83.374463 4.953926,82.807055 Z"
         style="font-family:'Roboto Mono';-inkscape-font-specification:'Roboto Mono Bold';fill:#000000;stroke:none"
         id="path23227" /><path
         d="m 9.6699171,83.323303 q 0,0.181384 -0.074414,0.334863 -0.074414,0.148828 -0.2139404,0.255799 -0.1395263,0.10697 -0.344165,0.167431 -0.1999878,0.06046 -0.460437,0.06046 -0.2930054,0 -0.5395019,-0.06511 Q 7.795613,84.011633 7.6235305,83.872107 7.4467971,83.73258 7.3491286,83.513989 7.2514602,83.295398 7.2421584,82.98844 H 5.9585159 q 0,0.525549 0.1999878,0.916223 0.2046386,0.390674 0.5534545,0.679028 0.3674194,0.293005 0.8604126,0.446484 0.497644,0.148829 1.0045898,0.148829 0.5162475,0 0.9534301,-0.120923 0.4371826,-0.125574 0.7534423,-0.36742 0.31626,-0.237194 0.492993,-0.58136 0.181384,-0.348815 0.181384,-0.7953 0,-0.516247 -0.237194,-0.911572 Q 10.483821,82.007104 10.083845,81.709448 9.8187452,81.528064 9.5024855,81.388537 9.1862257,81.249011 8.8374098,81.151343 8.5118483,81.062976 8.2513991,80.960657 7.9956008,80.858337 7.8142165,80.732764 7.6328322,80.611841 7.5351638,80.458362 q -0.093018,-0.153479 -0.093018,-0.344165 0,-0.181385 0.069763,-0.334864 0.074414,-0.158129 0.2139404,-0.274401 0.1395264,-0.111622 0.3395141,-0.172083 0.2046387,-0.06511 0.4650879,-0.06511 0.2837036,0 0.4929932,0.07906 0.2139404,0.07441 0.3581176,0.209289 0.1395264,0.139527 0.2092896,0.330213 0.074414,0.190686 0.083716,0.418579 h 1.274341 q 0,-0.455786 -0.176734,-0.837158 Q 10.595442,79.086352 10.279182,78.8073 9.9629225,78.532898 9.521089,78.379419 9.0839064,78.22594 8.5537062,78.22594 q -0.5115967,0 -0.9487793,0.134875 -0.4371826,0.130225 -0.7580932,0.376722 -0.3209106,0.246496 -0.5022949,0.595312 -0.1813843,0.348816 -0.1813843,0.776697 0,0.37207 0.1348755,0.68833 0.1395264,0.31626 0.4092773,0.576709 0.269751,0.260449 0.692981,0.47904 0.4278808,0.218592 0.9906371,0.372071 0.3627686,0.09767 0.6046143,0.21394 0.2464966,0.111621 0.3999755,0.246497 0.1488282,0.139526 0.2092896,0.297656 0.065112,0.15813 0.065112,0.339514 z"
         style="font-family:'Roboto Mono';-inkscape-font-specification:'Roboto Mono Bold';fill:#000000;stroke:none"
         id="path23229" /></g><path
       style="fill:#ffffff;fill-opacity:1;stroke:#000000;stroke-width:0.972;stroke-dasharray:0.972, 0.972;stroke-dashoffset:0;stroke-opacity:1;opacity:0.66101695"
       d="M 21.973899,28.065851 V 111.1736"
       id="path23601" /><path
       style="fill:#000000;fill-opacity:1;stroke:#000000;stroke-width:0.972;stroke-dasharray:0.972, 0.972;stroke-dashoffset:0;stroke-opacity:1;opacity:0.72457627"
       d="M 185.67954,28.749866 V 111.85762"
       id="path23603" /><path
       id="rect25171"
       style="fill:#8b8484;stroke:#000000;stroke-width:0.572"
       d="M 49.847492,62.938423 H 94.650436 V 75.250684 H 49.847492 Z" /><path
       id="rect21568-7-8"
       style="fill:#8b8484;stroke:#000000;stroke-width:0.572"
       d="M 50.531502,79.399246 H 95.334446 V 91.711507 H 50.531502 Z" /><path
       id="rect21568-7-6"
       style="fill:#8b8484;stroke:#000000;stroke-width:0.572"
       d="m 50.531502,96.12529 h 44.802944 v 12.31226 H 50.531502 Z" /><path
       id="rect21568"
       style="fill:#b5b5b5;stroke:#000000;stroke-width:0.572"
       d="m -66.605965,53.316475 h 48.223011 v 44.460937 h -48.223011 z" /><g
       aria-label="CPU"
       id="text23443"
       style="font-weight:bold;font-size:9.525px;font-family:'Avenir Next';-inkscape-font-specification:'Avenir Next Bold';text-align:center;text-anchor:middle;fill:#b5b5b5;stroke:#000000;stroke-width:0.572"><path
         d="m -47.980098,77.188228 h -1.306897 q -0.0186,0.306958 -0.102319,0.525549 -0.08372,0.218592 -0.227893,0.358118 -0.144177,0.139526 -0.348816,0.204639 -0.204639,0.06511 -0.460437,0.06511 -0.190686,0 -0.348816,-0.04186 -0.153479,-0.04651 -0.279053,-0.139526 -0.116272,-0.08372 -0.209289,-0.20929 -0.08837,-0.125574 -0.153479,-0.288354 -0.09302,-0.237195 -0.139527,-0.553455 -0.04186,-0.320911 -0.04186,-0.725537 v -0.920874 q 0,-0.297656 0.0279,-0.553455 0.02791,-0.260449 0.08837,-0.474389 0.07906,-0.274402 0.20929,-0.479041 0.134876,-0.209289 0.325562,-0.32091 0.111621,-0.06511 0.241845,-0.09767 0.134876,-0.03256 0.288355,-0.03256 0.288354,0 0.492993,0.07906 0.209289,0.07441 0.348816,0.223242 0.134875,0.153479 0.204638,0.381372 0.07441,0.227893 0.09302,0.5302 h 1.302246 q -0.04651,-0.5302 -0.223242,-0.95343 -0.176734,-0.42323 -0.483692,-0.716235 -0.306958,-0.293005 -0.74414,-0.451135 -0.432532,-0.15813 -0.990637,-0.15813 -0.376721,0 -0.706934,0.09767 -0.325561,0.09302 -0.599963,0.269751 -0.306958,0.20929 -0.548804,0.511597 -0.241846,0.302307 -0.390674,0.68833 -0.130224,0.31626 -0.195337,0.68833 -0.06511,0.367419 -0.06511,0.776697 v 0.911572 q 0,0.437183 0.06976,0.827856 0.07441,0.390674 0.20929,0.716236 0.139526,0.325561 0.339514,0.595312 0.204639,0.269751 0.465088,0.460437 0.283703,0.204639 0.63717,0.31626 0.358118,0.10697 0.776697,0.10697 0.5302,0 0.967383,-0.153479 0.437182,-0.15813 0.753442,-0.446484 0.31626,-0.288355 0.502295,-0.697632 0.190686,-0.409277 0.223242,-0.920874 z"
         style="font-family:'Roboto Mono';-inkscape-font-specification:'Roboto Mono Bold';fill:#000000;stroke:none"
         id="path23208" /><path
         d="m -45.575593,76.825459 h 1.00924 q 0.553455,0 0.999939,-0.158129 0.446484,-0.15813 0.762744,-0.441834 0.311609,-0.279053 0.479041,-0.665076 0.172082,-0.386023 0.172082,-0.841809 0,-0.488342 -0.172082,-0.888318 -0.167432,-0.399975 -0.479041,-0.68833 -0.31626,-0.283703 -0.762744,-0.441833 -0.446484,-0.162781 -0.999939,-0.162781 h -2.316137 v 6.77168 h 1.306897 z m 0,-1.0604 V 73.59775 h 1.00924 q 0.279053,0 0.483692,0.08837 0.204638,0.08837 0.344165,0.241846 0.134875,0.153479 0.199987,0.358118 0.06976,0.204638 0.06976,0.441833 0,0.204639 -0.06976,0.395325 -0.06511,0.186035 -0.199987,0.330212 -0.139527,0.144177 -0.344165,0.227893 -0.204639,0.08372 -0.483692,0.08372 z"
         style="font-family:'Roboto Mono';-inkscape-font-specification:'Roboto Mono Bold';fill:#000000;stroke:none"
         id="path23210" /><path
         d="m -36.738924,72.537349 h -1.297595 l -0.0047,4.488098 q -0.0047,0.330213 -0.06976,0.58136 -0.06511,0.251147 -0.195337,0.418579 -0.120923,0.162781 -0.306958,0.246497 -0.181384,0.07906 -0.418579,0.07906 -0.218591,0 -0.386023,-0.07441 -0.167432,-0.07906 -0.283704,-0.232544 -0.125573,-0.167432 -0.190686,-0.42323 -0.06046,-0.255799 -0.06511,-0.595313 l -0.0047,-4.488098 h -1.306897 l -0.0047,4.488098 q 0,0.567407 0.15813,1.013892 0.162781,0.441833 0.455786,0.74414 0.293006,0.302307 0.702283,0.460437 0.413928,0.15813 0.925525,0.15813 0.544153,0 0.967383,-0.15813 0.427881,-0.15813 0.725537,-0.465088 0.293005,-0.302307 0.446484,-0.74414 0.15813,-0.441834 0.15813,-1.009241 z"
         style="font-family:'Roboto Mono';-inkscape-font-specification:'Roboto Mono Bold';fill:#000000;stroke:none"
         id="path23212" /></g><path
       style="fill:#000000;fill-opacity:1;stroke:#000000;stroke-width:1.172;stroke-dasharray:none;stroke-dashoffset:0;stroke-opacity:1;marker-start:url(#TriangleStart)"
       d="m 196.85975,75.445674 -30.81189,0"
       id="path28046"
       sodipodi:nodetypes="cc" /><g
       aria-label="C1"
       id="text31853"
       style="font-weight:bold;font-size:7.76111px;font-family:'Avenir Next';-inkscape-font-specification:'Avenir Next Bold';text-align:center;text-anchor:middle;fill:#b5b5b5;stroke:#000000;stroke-width:0.572"><path
         d="m 72.731797,70.434187 h -1.064879 q -0.01516,0.250114 -0.08337,0.428225 -0.06821,0.178112 -0.18569,0.2918 -0.117478,0.113688 -0.284221,0.166743 -0.166742,0.05305 -0.375171,0.05305 -0.155373,0 -0.28422,-0.03411 -0.125057,-0.0379 -0.227376,-0.113689 -0.09474,-0.06821 -0.170532,-0.170532 -0.072,-0.102319 -0.125057,-0.234955 -0.07579,-0.19327 -0.113688,-0.450963 -0.03411,-0.261483 -0.03411,-0.591178 v -0.750342 q 0,-0.242535 0.02274,-0.450963 0.02274,-0.212218 0.072,-0.38654 0.06442,-0.223586 0.170532,-0.390329 0.109899,-0.170532 0.265273,-0.261483 0.09095,-0.05305 0.197059,-0.07958 0.109899,-0.02653 0.234956,-0.02653 0.234955,0 0.401698,0.06442 0.170532,0.06063 0.28422,0.181901 0.109899,0.125057 0.166743,0.310747 0.06063,0.185691 0.07579,0.432015 h 1.061089 q -0.0379,-0.432015 -0.181901,-0.776869 -0.144005,-0.344854 -0.394119,-0.583599 -0.250114,-0.238745 -0.606337,-0.367591 -0.352433,-0.128847 -0.807185,-0.128847 -0.306958,0 -0.57602,0.07958 -0.265273,0.07579 -0.488859,0.219797 -0.250114,0.170532 -0.447174,0.416856 -0.197059,0.246325 -0.318326,0.560862 -0.106109,0.257693 -0.159164,0.560861 -0.05305,0.299379 -0.05305,0.632864 v 0.742763 q 0,0.356222 0.05684,0.674549 0.06063,0.318327 0.170532,0.583599 0.113688,0.265273 0.276641,0.48507 0.166743,0.219797 0.378961,0.37517 0.231166,0.166743 0.519175,0.257693 0.2918,0.08716 0.632864,0.08716 0.432015,0 0.788238,-0.125057 0.356223,-0.128846 0.613916,-0.363802 0.257693,-0.234955 0.409277,-0.56844 0.155374,-0.333485 0.181901,-0.750342 z"
         style="font-family:'Roboto Mono';-inkscape-font-specification:'Roboto Mono Bold';fill:#000000;stroke:none"
         id="path23203" /><path
         d="m 76.176548,72.162247 v -5.517664 h -0.05684 l -2.402609,0.867819 v 0.917084 l 1.394574,-0.500227 v 4.232988 z"
         style="font-family:'Roboto Mono';-inkscape-font-specification:'Roboto Mono Bold';fill:#000000;stroke:none"
         id="path23205" /></g><g
       aria-label="C2"
       id="text31857"
       style="font-weight:bold;font-size:7.76111px;font-family:'Avenir Next';-inkscape-font-specification:'Avenir Next Bold';text-align:center;text-anchor:middle;fill:#b5b5b5;stroke:#000000;stroke-width:0.572"><path
         d="m 72.731797,86.309202 h -1.064879 q -0.01516,0.250114 -0.08337,0.428226 -0.06821,0.178111 -0.18569,0.291799 -0.117478,0.113688 -0.284221,0.166743 -0.166742,0.05305 -0.375171,0.05305 -0.155373,0 -0.28422,-0.03411 -0.125057,-0.0379 -0.227376,-0.113688 -0.09474,-0.06821 -0.170532,-0.170533 -0.072,-0.102319 -0.125057,-0.234955 -0.07579,-0.19327 -0.113688,-0.450963 -0.03411,-0.261483 -0.03411,-0.591178 v -0.750342 q 0,-0.242535 0.02274,-0.450963 0.02274,-0.212218 0.072,-0.386539 0.06442,-0.223587 0.170532,-0.39033 0.109899,-0.170532 0.265273,-0.261482 0.09095,-0.05306 0.197059,-0.07958 0.109899,-0.02653 0.234956,-0.02653 0.234955,0 0.401698,0.06442 0.170532,0.06063 0.28422,0.181901 0.109899,0.125057 0.166743,0.310748 0.06063,0.18569 0.07579,0.432014 h 1.061089 q -0.0379,-0.432014 -0.181901,-0.776868 -0.144005,-0.344854 -0.394119,-0.5836 -0.250114,-0.238745 -0.606337,-0.367591 -0.352433,-0.128847 -0.807185,-0.128847 -0.306958,0 -0.57602,0.07958 -0.265273,0.07579 -0.488859,0.219797 -0.250114,0.170532 -0.447174,0.416856 -0.197059,0.246325 -0.318326,0.560862 -0.106109,0.257693 -0.159164,0.560861 -0.05305,0.299379 -0.05305,0.632864 v 0.742763 q 0,0.356223 0.05684,0.674549 0.06063,0.318327 0.170532,0.583599 0.113688,0.265273 0.276641,0.48507 0.166743,0.219797 0.378961,0.375171 0.231166,0.166742 0.519175,0.257693 0.2918,0.08716 0.632864,0.08716 0.432015,0 0.788238,-0.125057 0.356223,-0.128847 0.613916,-0.363802 0.257693,-0.234956 0.409277,-0.568441 0.155374,-0.333485 0.181901,-0.750342 z"
         style="font-family:'Roboto Mono';-inkscape-font-specification:'Roboto Mono Bold';fill:#000000;stroke:none"
         id="path23198" /><path
         d="M 77.203531,88.037262 V 87.19218 h -2.421558 l 1.038352,-1.098985 q 0.269062,-0.276641 0.488859,-0.526755 0.219797,-0.253904 0.37896,-0.496438 0.155374,-0.242535 0.238746,-0.488859 0.08716,-0.250114 0.08716,-0.522966 0,-0.360012 -0.113688,-0.655601 -0.113688,-0.299379 -0.329695,-0.511597 -0.219797,-0.212218 -0.545703,-0.329695 -0.322117,-0.117478 -0.742763,-0.117478 -0.439594,0 -0.803396,0.144005 -0.360012,0.140215 -0.613916,0.386539 -0.257693,0.246325 -0.397908,0.57602 -0.140216,0.325906 -0.140216,0.693498 h 1.0573 q 0,-0.223587 0.05684,-0.397909 0.05684,-0.174321 0.166743,-0.291799 0.106109,-0.113688 0.265272,-0.170532 0.162953,-0.06063 0.375171,-0.06063 0.162953,0 0.295589,0.05306 0.136426,0.05305 0.234955,0.151584 0.09474,0.102319 0.147795,0.246324 0.05305,0.144005 0.05305,0.329696 0,0.125057 -0.04169,0.257693 -0.0379,0.132636 -0.125057,0.28422 -0.09095,0.155374 -0.234956,0.341064 -0.144005,0.185691 -0.352433,0.413067 l -1.784903,1.91754 v 0.720025 z"
         style="font-family:'Roboto Mono';-inkscape-font-specification:'Roboto Mono Bold';fill:#000000;stroke:none"
         id="path23200" /></g><g
       aria-label="C3"
       id="text31861"
       style="font-weight:bold;font-size:7.76111px;font-family:'Avenir Next';-inkscape-font-specification:'Avenir Next Bold';text-align:center;text-anchor:middle;fill:#b5b5b5;stroke:#000000;stroke-width:0.572"><path
         d="m 72.731797,103.24254 h -1.064879 q -0.01516,0.25011 -0.08337,0.42822 -0.06821,0.17811 -0.18569,0.2918 -0.117478,0.11369 -0.284221,0.16674 -0.166742,0.0531 -0.375171,0.0531 -0.155373,0 -0.28422,-0.0341 -0.125057,-0.0379 -0.227376,-0.11369 -0.09474,-0.0682 -0.170532,-0.17053 -0.072,-0.10232 -0.125057,-0.23495 -0.07579,-0.19327 -0.113688,-0.45097 -0.03411,-0.26148 -0.03411,-0.59117 v -0.75035 q 0,-0.24253 0.02274,-0.45096 0.02274,-0.21222 0.072,-0.38654 0.06442,-0.22359 0.170532,-0.39033 0.109899,-0.17053 0.265273,-0.26148 0.09095,-0.0531 0.197059,-0.0796 0.109899,-0.0265 0.234956,-0.0265 0.234955,0 0.401698,0.0644 0.170532,0.0606 0.28422,0.1819 0.109899,0.12506 0.166743,0.31075 0.06063,0.18569 0.07579,0.43202 h 1.061089 q -0.0379,-0.43202 -0.181901,-0.77687 -0.144005,-0.34486 -0.394119,-0.583601 -0.250114,-0.238745 -0.606337,-0.367592 -0.352433,-0.128846 -0.807185,-0.128846 -0.306958,0 -0.57602,0.07958 -0.265273,0.07579 -0.488859,0.219797 -0.250114,0.170533 -0.447174,0.416861 -0.197059,0.24632 -0.318326,0.56086 -0.106109,0.25769 -0.159164,0.56086 -0.05305,0.29938 -0.05305,0.63286 v 0.74277 q 0,0.35622 0.05684,0.67454 0.06063,0.31833 0.170532,0.5836 0.113688,0.26528 0.276641,0.48507 0.166743,0.2198 0.378961,0.37517 0.231166,0.16675 0.519175,0.2577 0.2918,0.0872 0.632864,0.0872 0.432015,0 0.788238,-0.12506 0.356223,-0.12885 0.613916,-0.3638 0.257693,-0.23496 0.409277,-0.56844 0.155374,-0.33349 0.181901,-0.75034 z"
         style="font-family:'Roboto Mono';-inkscape-font-specification:'Roboto Mono Bold';fill:#000000;stroke:none"
         id="path23193" /><path
         d="m 74.656917,101.74943 v 0.81856 h 0.57223 q 0.216007,0 0.386539,0.0493 0.174322,0.0493 0.299379,0.15159 0.121268,0.10232 0.185691,0.26148 0.06442,0.15916 0.06442,0.38275 0,0.17811 -0.05684,0.32212 -0.05305,0.144 -0.159163,0.24253 -0.109899,0.1099 -0.272852,0.16674 -0.162953,0.0569 -0.367592,0.0569 -0.181901,0 -0.333485,-0.0531 -0.151584,-0.0568 -0.261482,-0.15537 -0.113689,-0.0947 -0.174322,-0.22738 -0.06063,-0.13642 -0.06063,-0.29559 h -1.05351 q 0,0.4017 0.155374,0.69729 0.159163,0.29559 0.420646,0.48886 0.261483,0.19706 0.594968,0.29559 0.337275,0.0947 0.689708,0.0947 0.409277,0 0.76171,-0.10611 0.356223,-0.1099 0.613916,-0.31833 0.257693,-0.20464 0.405488,-0.5078 0.147795,-0.30317 0.147795,-0.68971 0,-0.2198 -0.05306,-0.41686 -0.05305,-0.19706 -0.162953,-0.3638 -0.109898,-0.16295 -0.280431,-0.2918 -0.166742,-0.12885 -0.397908,-0.21222 0.197059,-0.0947 0.348643,-0.22358 0.151585,-0.13264 0.253904,-0.28801 0.102319,-0.15538 0.155374,-0.32591 0.05305,-0.17432 0.05305,-0.35243 0,-0.38654 -0.136426,-0.67834 -0.132636,-0.295592 -0.37517,-0.496441 -0.242535,-0.19706 -0.583599,-0.295589 -0.341065,-0.10232 -0.750342,-0.10232 -0.378961,0 -0.708656,0.109899 -0.325906,0.109898 -0.568441,0.306958 -0.242535,0.200849 -0.38275,0.477493 -0.136426,0.27664 -0.136426,0.61391 h 1.05351 q 0,-0.15158 0.06063,-0.27285 0.06063,-0.12127 0.166743,-0.20843 0.102319,-0.0834 0.238745,-0.12884 0.140215,-0.0455 0.299378,-0.0455 0.19327,0 0.337275,0.0531 0.147795,0.053 0.242535,0.14779 0.09474,0.0985 0.140215,0.23496 0.04927,0.13263 0.04927,0.29558 0,0.16675 -0.04927,0.31075 -0.04547,0.14022 -0.140215,0.23875 -0.102319,0.11369 -0.269062,0.17811 -0.162953,0.0606 -0.390329,0.0606 z"
         style="font-family:'Roboto Mono';-inkscape-font-specification:'Roboto Mono Bold';fill:#000000;stroke:none"
         id="path23195" /></g></g></svg>
