<?xml version="1.0" encoding="UTF-8" standalone="no"?>
<!-- Created with Inkscape (http://www.inkscape.org/) -->

<svg
   width="262.46667mm"
   height="75.935417mm"
   viewBox="0 0 262.46667 75.935417"
   version="1.1"
   id="svg32206"
   xml:space="preserve"
   inkscape:version="1.2.2 (b0a84865, 2022-12-01)"
   sodipodi:docname="ega_palette_sc.svg"
   xmlns:inkscape="http://www.inkscape.org/namespaces/inkscape"
   xmlns:sodipodi="http://sodipodi.sourceforge.net/DTD/sodipodi-0.dtd"
   xmlns="http://www.w3.org/2000/svg"
   xmlns:svg="http://www.w3.org/2000/svg"><sodipodi:namedview
     id="namedview32208"
     pagecolor="#ffffff"
     bordercolor="#000000"
     borderopacity="0.25"
     inkscape:showpageshadow="2"
     inkscape:pageopacity="0.0"
     inkscape:pagecheckerboard="0"
     inkscape:deskcolor="#d1d1d1"
     inkscape:document-units="mm"
     showgrid="false"
     inkscape:zoom="2.7565964"
     inkscape:cx="668.03396"
     inkscape:cy="115.35965"
     inkscape:window-width="1728"
     inkscape:window-height="904"
     inkscape:window-x="0"
     inkscape:window-y="38"
     inkscape:window-maximized="0"
     inkscape:current-layer="layer1" /><defs
     id="defs32203"><marker
       style="overflow:visible"
       id="marker34476"
       refX="0"
       refY="0"
       orient="auto-start-reverse"
       inkscape:stockid="TriangleStart"
       markerWidth="5.3244081"
       markerHeight="6.155385"
       viewBox="0 0 5.3244081 6.1553851"
       inkscape:isstock="true"
       inkscape:collect="always"
       preserveAspectRatio="xMidYMid"><path
         transform="scale(0.5)"
         style="fill:context-stroke;fill-rule:evenodd;stroke:context-stroke;stroke-width:1pt"
         d="M 5.77,0 -2.88,5 V -5 Z"
         id="path34474" /></marker><marker
       style="overflow:visible"
       id="TriangleStart"
       refX="0"
       refY="0"
       orient="auto-start-reverse"
       inkscape:stockid="TriangleStart"
       markerWidth="5.3244081"
       markerHeight="6.155385"
       viewBox="0 0 5.3244081 6.1553851"
       inkscape:isstock="true"
       inkscape:collect="always"
       preserveAspectRatio="xMidYMid"><path
         transform="scale(0.5)"
         style="fill:context-stroke;fill-rule:evenodd;stroke:context-stroke;stroke-width:1pt"
         d="M 5.77,0 -2.88,5 V -5 Z"
         id="path135" /></marker></defs><g
     inkscape:label="Layer 1"
     inkscape:groupmode="layer"
     id="layer1"
     transform="translate(5.38588,-75.295006)"><path
       id="rect21568-5"
       style="fill:#ffffff;stroke:#000000;stroke-width:0.421152"
       d="m 197.77171,94.93026 h 53.8879 v 33.7429 h -53.8879 z" /><g
       aria-label="SCREEN"
       id="text23443-7"
       style="font-weight:bold;font-size:7.01306px;font-family:'Avenir Next';-inkscape-font-specification:'Avenir Next Bold';text-align:center;text-anchor:middle;fill:#b5b5b5;stroke:#000000;stroke-width:0.421152"><path
         d="m 215.39622,112.52431 q 0,0.13355 -0.0548,0.24655 -0.0548,0.10958 -0.15752,0.18834 -0.10273,0.0788 -0.2534,0.12328 -0.14725,0.0445 -0.33901,0.0445 -0.21573,0 -0.39722,-0.0479 -0.17807,-0.0479 -0.30477,-0.15067 -0.13013,-0.10273 -0.20204,-0.26367 -0.0719,-0.16095 -0.0788,-0.38695 h -0.94512 q 0,0.38695 0.14725,0.67459 0.15067,0.28765 0.4075,0.49996 0.27052,0.21573 0.6335,0.32874 0.36641,0.10957 0.73966,0.10957 0.3801,0 0.70199,-0.089 0.32189,-0.0925 0.55475,-0.27052 0.23285,-0.17464 0.36298,-0.42805 0.13355,-0.25682 0.13355,-0.58556 0,-0.3801 -0.17465,-0.67117 -0.17464,-0.29107 -0.46913,-0.51023 -0.19519,-0.13355 -0.42804,-0.23628 -0.23286,-0.10273 -0.48969,-0.17464 -0.2397,-0.0651 -0.43146,-0.1404 -0.18834,-0.0753 -0.32189,-0.16779 -0.13355,-0.089 -0.20546,-0.20204 -0.0685,-0.113 -0.0685,-0.2534 0,-0.13355 0.0514,-0.24655 0.0548,-0.11643 0.15752,-0.20204 0.10273,-0.0822 0.24997,-0.1267 0.15067,-0.0479 0.34244,-0.0479 0.20888,0 0.36298,0.0582 0.15752,0.0548 0.26367,0.1541 0.10273,0.10273 0.1541,0.24313 0.0548,0.1404 0.0616,0.30819 h 0.93827 q 0,-0.33559 -0.13013,-0.61638 -0.13012,-0.2808 -0.36298,-0.48626 -0.23285,-0.20204 -0.55817,-0.31504 -0.32189,-0.113 -0.71226,-0.113 -0.37668,0 -0.69857,0.0993 -0.32189,0.0959 -0.55817,0.27738 -0.23628,0.18149 -0.36983,0.43831 -0.13354,0.25683 -0.13354,0.57187 0,0.27394 0.0993,0.5068 0.10273,0.23286 0.30134,0.42462 0.19862,0.19176 0.51023,0.35271 0.31504,0.16094 0.72939,0.27394 0.2671,0.0719 0.44516,0.15752 0.18149,0.0822 0.2945,0.18149 0.10957,0.10274 0.15409,0.21916 0.0479,0.11643 0.0479,0.24998 z"
         style="font-family:'Roboto Mono';-inkscape-font-specification:'Roboto Mono Bold';fill:#000000;stroke:none"
         id="path20860" /><path
         d="m 220.47795,112.26406 h -0.96224 q -0.0137,0.22601 -0.0753,0.38695 -0.0616,0.16095 -0.16779,0.26368 -0.10615,0.10273 -0.25682,0.15067 -0.15068,0.0479 -0.33901,0.0479 -0.1404,0 -0.25683,-0.0308 -0.113,-0.0342 -0.20546,-0.10273 -0.0856,-0.0616 -0.1541,-0.1541 -0.0651,-0.0924 -0.113,-0.21231 -0.0685,-0.17464 -0.10273,-0.40749 -0.0308,-0.23628 -0.0308,-0.5342 v -0.67802 q 0,-0.21916 0.0206,-0.4075 0.0205,-0.19176 0.0651,-0.34928 0.0582,-0.20204 0.15409,-0.35271 0.0993,-0.1541 0.23971,-0.23628 0.0822,-0.0479 0.17806,-0.0719 0.0993,-0.024 0.21231,-0.024 0.21231,0 0.36298,0.0582 0.1541,0.0548 0.25683,0.16437 0.0993,0.113 0.15067,0.2808 0.0548,0.16779 0.0685,0.39037 h 0.95882 q -0.0343,-0.39037 -0.16437,-0.70199 -0.13013,-0.31161 -0.35613,-0.52735 -0.22601,-0.21573 -0.5479,-0.33216 -0.31846,-0.11643 -0.72939,-0.11643 -0.27737,0 -0.5205,0.0719 -0.2397,0.0685 -0.44174,0.19862 -0.226,0.15409 -0.40407,0.37667 -0.17807,0.22259 -0.28764,0.50681 -0.0959,0.23285 -0.14383,0.5068 -0.0479,0.27052 -0.0479,0.57187 v 0.67117 q 0,0.32189 0.0514,0.60953 0.0548,0.28765 0.15409,0.52735 0.10273,0.23971 0.24998,0.43832 0.15067,0.19861 0.34243,0.33901 0.20889,0.15067 0.46914,0.23285 0.26367,0.0788 0.57187,0.0788 0.39037,0 0.71226,-0.113 0.32189,-0.11643 0.55474,-0.32874 0.23286,-0.21231 0.36983,-0.51365 0.1404,-0.30134 0.16437,-0.67802 z"
         style="font-family:'Roboto Mono';-inkscape-font-specification:'Roboto Mono Bold';fill:#000000;stroke:none"
         id="path20862" /><path
         d="m 222.91609,111.96272 0.93827,1.86284 h 1.03072 v -0.0445 l -1.07182,-2.05804 q 0.20546,-0.0924 0.36983,-0.21915 0.1678,-0.12671 0.28765,-0.29792 0.11643,-0.1678 0.17806,-0.38011 0.0651,-0.21573 0.0651,-0.48283 0,-0.36983 -0.13013,-0.65062 -0.1267,-0.2808 -0.36298,-0.46914 -0.2397,-0.18834 -0.57529,-0.28422 -0.33558,-0.0993 -0.74993,-0.0993 h -1.67108 v 4.98585 h 0.96224 v -1.86284 z m -0.72939,-0.78075 v -1.56151 h 0.70884 q 0.19861,0 0.35271,0.048 0.15409,0.0479 0.26025,0.13697 0.11985,0.0993 0.17806,0.2534 0.0616,0.15067 0.0616,0.34928 0,0.16437 -0.0479,0.29792 -0.0445,0.13355 -0.13355,0.22943 -0.10615,0.11986 -0.27737,0.18492 -0.16779,0.0616 -0.39038,0.0616 z"
         style="font-family:'Roboto Mono';-inkscape-font-specification:'Roboto Mono Bold';fill:#000000;stroke:none"
         id="path20864" /><path
         d="m 228.50119,111.64083 v -0.76021 h -2.04776 v -1.25673 h 2.38335 v -0.78418 h -3.34901 v 4.98585 h 3.35928 v -0.77732 h -2.39362 v -1.40741 z"
         style="font-family:'Roboto Mono';-inkscape-font-specification:'Roboto Mono Bold';fill:#000000;stroke:none"
         id="path20866" /><path
         d="m 232.70971,111.64083 v -0.76021 h -2.04775 v -1.25673 h 2.38334 v -0.78418 h -3.34901 v 4.98585 h 3.35928 v -0.77732 h -2.39361 v -1.40741 z"
         style="font-family:'Roboto Mono';-inkscape-font-specification:'Roboto Mono Bold';fill:#000000;stroke:none"
         id="path20868" /><path
         d="m 237.13739,113.82556 v -4.98585 h -0.96566 l -0.003,3.20177 -1.37658,-3.20177 h -0.96909 v 4.98585 h 0.96909 v -3.21546 l 1.38686,3.21546 z"
         style="font-family:'Roboto Mono';-inkscape-font-specification:'Roboto Mono Bold';fill:#000000;stroke:none"
         id="path20870" /></g><g
       aria-label="PALETTE "
       id="text23443-7-4"
       style="font-weight:bold;font-size:5.64444px;font-family:'Avenir Next';-inkscape-font-specification:'Avenir Next Bold';text-align:center;text-anchor:middle;fill:#b5b5b5;stroke:#000000;stroke-width:0.421152"><path
         d="m 167.47288,87.178311 h 0.59807 q 0.32797,0 0.59255,-0.09371 0.26459,-0.09371 0.452,-0.261827 0.18466,-0.165365 0.28387,-0.394119 0.10198,-0.228754 0.10198,-0.498849 0,-0.289388 -0.10198,-0.526411 -0.0992,-0.237022 -0.28387,-0.407899 -0.18741,-0.16812 -0.452,-0.261827 -0.26458,-0.09646 -0.59255,-0.09646 h -1.37253 v 4.012844 h 0.77446 z m 0,-0.628385 v -1.28433 h 0.59807 q 0.16536,0 0.28663,0.05236 0.12127,0.05237 0.20395,0.143316 0.0799,0.09095 0.11851,0.212218 0.0413,0.121267 0.0413,0.261827 0,0.121267 -0.0413,0.234266 -0.0386,0.110243 -0.11851,0.195681 -0.0827,0.08544 -0.20395,0.135048 -0.12127,0.04961 -0.28663,0.04961 z"
         style="font-family:'Roboto Mono';-inkscape-font-specification:'Roboto Mono Bold';fill:#000000;stroke:none"
         id="path20845" /><path
         d="m 172.00938,87.812208 0.23426,0.837847 h 0.8158 l -1.28984,-4.012844 h -0.7028 l -1.31465,4.012844 h 0.8158 l 0.23702,-0.837847 z m -1.01424,-0.658701 0.42168,-1.477256 0.41066,1.477256 z"
         style="font-family:'Roboto Mono';-inkscape-font-specification:'Roboto Mono Bold';fill:#000000;stroke:none"
         id="path20847" /><path
         d="m 174.25282,88.024426 v -3.387215 h -0.77721 v 4.012844 h 2.65685 v -0.625629 z"
         style="font-family:'Roboto Mono';-inkscape-font-specification:'Roboto Mono Bold';fill:#000000;stroke:none"
         id="path20849" /><path
         d="m 179.2799,86.89168 v -0.611849 h -1.64813 V 85.268352 H 179.55 v -0.631141 h -2.69544 v 4.012844 h 2.7037 v -0.625629 h -1.92649 V 86.89168 Z"
         style="font-family:'Roboto Mono';-inkscape-font-specification:'Roboto Mono Bold';fill:#000000;stroke:none"
         id="path20851" /><path
         d="m 183.14667,85.268352 v -0.631141 h -3.23563 v 0.631141 h 1.22094 v 3.381703 h 0.77722 v -3.381703 z"
         style="font-family:'Roboto Mono';-inkscape-font-specification:'Roboto Mono Bold';fill:#000000;stroke:none"
         id="path20853" /><path
         d="m 186.53389,85.268352 v -0.631141 h -3.23563 v 0.631141 h 1.22094 v 3.381703 h 0.77721 v -3.381703 z"
         style="font-family:'Roboto Mono';-inkscape-font-specification:'Roboto Mono Bold';fill:#000000;stroke:none"
         id="path20855" /><path
         d="m 189.44155,86.89168 v -0.611849 h -1.64814 v -1.011479 h 1.91823 v -0.631141 h -2.69544 v 4.012844 h 2.70371 v -0.625629 h -1.9265 V 86.89168 Z"
         style="font-family:'Roboto Mono';-inkscape-font-specification:'Roboto Mono Bold';fill:#000000;stroke:none"
         id="path20857" /></g><g
       aria-label="BANKS"
       id="text23443-7-4-7"
       style="font-weight:bold;font-size:5.64444px;font-family:'Avenir Next';-inkscape-font-specification:'Avenir Next Bold';text-align:center;text-anchor:middle;fill:#b5b5b5;stroke:#000000;stroke-width:0.421152"><path
         d="m 5.0838769,84.508118 h 1.4634754 q 0.3307289,0 0.5953121,-0.07441 0.2645831,-0.07441 0.4492401,-0.223242 0.184657,-0.148828 0.2838756,-0.369314 0.099219,-0.220486 0.099219,-0.509874 0,-0.151584 -0.041341,-0.292144 Q 7.8950726,82.895814 7.8123904,82.774547 7.7324643,82.661548 7.6139531,82.57611 7.4981979,82.490671 7.2997606,82.43555 v -0.0028 q 0.1019747,-0.03858 0.184657,-0.09371 0.085438,-0.05512 0.1515841,-0.121267 0.1212672,-0.121267 0.1819009,-0.28112 0.06339,-0.162608 0.066146,-0.344509 0,-0.28112 -0.1047308,-0.487825 Q 7.6773428,80.89766 7.4871736,80.762613 7.2970045,80.627565 7.0269092,80.561419 6.75957,80.495273 6.4315972,80.495273 H 5.0838769 Z m 0.7772129,-1.7694 h 0.7220915 q 0.1626084,0.0028 0.2811196,0.0441 0.1185112,0.04134 0.1929252,0.118511 0.074414,0.07441 0.1074869,0.181901 0.035829,0.107487 0.035829,0.242535 0,0.129535 -0.046853,0.234266 -0.044097,0.104731 -0.1322916,0.179145 -0.079926,0.06615 -0.2011934,0.104731 -0.1185112,0.03859 -0.2700953,0.03859 H 5.8610898 Z m 0,-0.559483 v -1.05282 h 0.5732635 q 0.187413,0.0028 0.3252167,0.04134 0.1405598,0.03858 0.2232421,0.124023 0.06339,0.06063 0.093706,0.151584 0.033073,0.09095 0.033073,0.212218 0,0.115755 -0.038585,0.206705 -0.035829,0.09095 -0.1047308,0.154341 -0.082682,0.07993 -0.2177299,0.121267 -0.1350476,0.03858 -0.3114364,0.04134 z"
         style="font-family:'Roboto Mono';-inkscape-font-specification:'Roboto Mono Bold';fill:#000000;stroke:none"
         id="path20834" /><path
         d="m 10.449954,83.670271 0.234266,0.837847 h 0.815798 L 10.210175,80.495273 H 9.5073762 l -1.3146475,4.012845 h 0.815798 l 0.2370224,-0.837847 z m -1.0142358,-0.658702 0.4216794,-1.477255 0.4106554,1.477255 z"
         style="font-family:'Roboto Mono';-inkscape-font-specification:'Roboto Mono Bold';fill:#000000;stroke:none"
         id="path20836" /><path
         d="m 14.509651,84.508118 v -4.012845 h -0.777213 l -0.0028,2.57693 -1.107942,-2.57693 h -0.779969 v 4.012845 h 0.779969 v -2.587954 l 1.11621,2.587954 z"
         style="font-family:'Roboto Mono';-inkscape-font-specification:'Roboto Mono Bold';fill:#000000;stroke:none"
         id="path20838" /><path
         d="m 16.447171,82.859985 0.992187,1.648133 h 0.920529 l -1.400086,-2.237933 1.350476,-1.774912 h -0.948089 l -0.97565,1.347721 -0.363802,0.490581 v -1.838302 h -0.777213 v 4.012845 h 0.777213 v -1.182356 z"
         style="font-family:'Roboto Mono';-inkscape-font-specification:'Roboto Mono Bold';fill:#000000;stroke:none"
         id="path20840" /><path
         d="m 20.721843,83.460809 q 0,0.107487 -0.0441,0.198438 -0.0441,0.08819 -0.126779,0.151584 -0.08268,0.06339 -0.203949,0.09922 -0.118512,0.03583 -0.272852,0.03583 -0.173632,0 -0.319704,-0.03859 -0.143316,-0.03858 -0.245291,-0.121267 -0.104731,-0.08268 -0.162608,-0.212218 -0.05788,-0.129535 -0.06339,-0.311436 h -0.760677 q 0,0.311436 0.118512,0.542947 0.121267,0.23151 0.327972,0.402387 0.21773,0.173632 0.509874,0.264583 0.2949,0.08819 0.595312,0.08819 0.305924,0 0.564995,-0.07166 0.259071,-0.07441 0.446484,-0.21773 0.187414,-0.14056 0.292144,-0.344509 0.107487,-0.206706 0.107487,-0.471289 0,-0.305924 -0.14056,-0.54019 -0.140559,-0.234267 -0.377582,-0.410655 -0.157096,-0.107487 -0.344509,-0.190169 -0.187413,-0.08268 -0.394119,-0.14056 -0.192925,-0.05237 -0.347265,-0.112999 -0.151584,-0.06063 -0.259071,-0.135048 -0.107487,-0.07166 -0.165364,-0.162608 -0.05512,-0.09095 -0.05512,-0.20395 0,-0.107487 0.04134,-0.198437 0.0441,-0.09371 0.12678,-0.162609 0.08268,-0.06614 0.201193,-0.101974 0.121267,-0.03858 0.275607,-0.03858 0.168121,0 0.292144,0.04685 0.12678,0.0441 0.212218,0.124023 0.08268,0.08268 0.124023,0.195682 0.0441,0.112999 0.04961,0.248046 h 0.755164 q 0,-0.270095 -0.104731,-0.496093 -0.104731,-0.225998 -0.292144,-0.391363 -0.187413,-0.162608 -0.44924,-0.253559 -0.259071,-0.09095 -0.573263,-0.09095 -0.303168,0 -0.562239,0.07993 -0.259071,0.07717 -0.44924,0.223242 -0.19017,0.146072 -0.297656,0.352778 -0.107487,0.206705 -0.107487,0.460264 0,0.220486 0.07993,0.407899 0.08268,0.187413 0.242534,0.341753 0.159853,0.15434 0.410655,0.283876 0.253559,0.129535 0.587044,0.220486 0.214974,0.05788 0.35829,0.126779 0.146072,0.06615 0.237022,0.146072 0.08819,0.08268 0.124024,0.176389 0.03859,0.09371 0.03859,0.201193 z"
         style="font-family:'Roboto Mono';-inkscape-font-specification:'Roboto Mono Bold';fill:#000000;stroke:none"
         id="path20842" /></g><path
       id="rect21568-5-5-4"
       style="fill:#f2f2f2;stroke:#000000;stroke-width:0.421152"
       d="M 26.341013,87.085312 H 86.843161 V 127.19748 H 26.341013 Z" /><path
       id="rect21568-5-5-5"
       style="fill:#f2f2f2;stroke:#000000;stroke-width:0.421152"
       d="M 20.461681,93.699562 H 80.963829 V 133.81173 H 20.461681 Z" /><path
       id="rect21568-5-5-1"
       style="fill:#f2f2f2;stroke:#000000;stroke-width:0.421152"
       d="m 9.437933,100.80375 h 60.502148 v 40.11217 H 9.437933 Z" /><path
       id="rect21568-5-5"
       style="fill:#f2f2f2;stroke:#000000;stroke-width:0.421152"
       d="M 1.4763308,107.17302 H 61.978478 v 40.11217 H 1.4763308 Z" /><path
       style="opacity:1;fill:none;stroke:#000000;stroke-width:0.772;stroke-dasharray:none;marker-end:url(#TriangleStart)"
       d="m 62.47142,84.114005 h 75.45144 v 22.945345"
       id="path32667"
       sodipodi:nodetypes="ccc" /><g
       id="g34364"
       transform="translate(-0.17309836,6.7508361)"><g
         id="g34370"
         transform="translate(-0.69239345,1.2116885)"><path
           id="rect33771"
           style="opacity:1;fill:#a6a6a6;stroke:#000000;stroke-width:0.421"
           d="m 129.19699,102.93122 h 4.89756 v 4.89756 h -4.89756 z" /><path
           id="rect34354"
           style="opacity:1;fill:#a6a6a6;stroke:#000000;stroke-width:0.421"
           d="m 134.09454,102.93122 h 4.89756 v 4.89756 h -4.89756 z" /><path
           id="rect34356"
           style="opacity:1;fill:#a6a6a6;stroke:#000000;stroke-width:0.421"
           d="m 138.99211,102.93122 h 4.89756 v 4.89756 h -4.89756 z" /><path
           id="rect34358"
           style="opacity:1;fill:#a6a6a6;stroke:#000000;stroke-width:0.421"
           d="m 143.88966,102.93122 h 4.89756 v 4.89756 h -4.89756 z" /></g><path
         style="opacity:1;fill:#a6a6a6;fill-opacity:1;stroke:#000000;stroke-width:0.421;stroke-dasharray:none;marker-end:url(#marker34476)"
         d="m 150.05645,106.10652 46.04416,0"
         id="path34426"
         sodipodi:nodetypes="cc" /></g><g
       aria-label="C3"
       id="text23443-7-0-1"
       style="font-weight:bold;font-size:3.52778px;font-family:'Avenir Next';-inkscape-font-specification:'Avenir Next Bold';text-align:center;text-anchor:middle;fill:#b5b5b5;stroke:#000000;stroke-width:0.421152"><path
         d="M 80.900866,91.700792 H 80.41683 q -0.0069,0.113689 -0.0379,0.194648 -0.03101,0.08096 -0.08441,0.132637 -0.0534,0.05168 -0.129191,0.07579 -0.07579,0.02412 -0.170533,0.02412 -0.07062,0 -0.129191,-0.0155 -0.05684,-0.01723 -0.103353,-0.05168 -0.04306,-0.03101 -0.07751,-0.07752 -0.03273,-0.04651 -0.05684,-0.106798 -0.03445,-0.08785 -0.05168,-0.204983 -0.0155,-0.118856 -0.0155,-0.268718 v -0.341064 q 0,-0.110243 0.01033,-0.204983 0.01034,-0.09646 0.03273,-0.1757 0.02928,-0.101631 0.07752,-0.177423 0.04995,-0.07751 0.120578,-0.118856 0.04134,-0.02412 0.08957,-0.03617 0.04995,-0.01206 0.106798,-0.01206 0.106799,0 0.182591,0.02928 0.07751,0.02756 0.129191,0.08268 0.04995,0.05684 0.07579,0.141249 0.02756,0.08441 0.03445,0.196371 h 0.482314 q -0.01723,-0.196371 -0.08268,-0.353123 -0.06546,-0.156751 -0.179145,-0.265272 -0.113688,-0.108521 -0.275608,-0.167087 -0.160197,-0.05857 -0.366903,-0.05857 -0.139526,0 -0.261827,0.03617 -0.120578,0.03445 -0.222209,0.09991 -0.113688,0.07751 -0.20326,0.189481 -0.08957,0.111965 -0.144695,0.254937 -0.04823,0.117133 -0.07235,0.254937 -0.02412,0.136082 -0.02412,0.287666 v 0.337619 q 0,0.16192 0.02584,0.306614 0.02756,0.144694 0.07752,0.265273 0.05168,0.120578 0.125746,0.220486 0.07579,0.09991 0.172255,0.170532 0.105075,0.07579 0.235989,0.117134 0.132636,0.03962 0.287665,0.03962 0.196371,0 0.358291,-0.05684 0.161919,-0.05857 0.279052,-0.165365 0.117134,-0.106798 0.186036,-0.258382 0.07062,-0.151584 0.08268,-0.341065 z"
         style="font-family:'Roboto Mono';-inkscape-font-specification:'Roboto Mono Bold';fill:#000000;stroke:none"
         id="path20821" /><path
         d="m 81.775921,91.022108 v 0.372071 h 0.260105 q 0.09818,0 0.1757,0.02239 0.07924,0.02239 0.136081,0.0689 0.05512,0.04651 0.08441,0.118856 0.02928,0.07235 0.02928,0.173977 0,0.08096 -0.02584,0.146417 -0.02412,0.06546 -0.07235,0.110243 -0.04995,0.04995 -0.124023,0.07579 -0.07407,0.02584 -0.167088,0.02584 -0.08268,0 -0.151584,-0.02411 -0.0689,-0.02584 -0.118856,-0.07063 -0.05168,-0.04306 -0.07924,-0.103353 -0.02756,-0.06201 -0.02756,-0.134359 h -0.478869 q 0,0.182591 0.07062,0.316949 0.07235,0.134359 0.191203,0.222209 0.118856,0.08957 0.27044,0.134359 0.153307,0.04306 0.313504,0.04306 0.186035,0 0.346232,-0.04823 0.16192,-0.04995 0.279053,-0.144694 0.117134,-0.09302 0.184313,-0.230821 0.06718,-0.137804 0.06718,-0.313504 0,-0.09991 -0.02412,-0.189481 -0.02412,-0.08957 -0.07407,-0.165364 -0.04995,-0.07407 -0.127469,-0.132637 -0.07579,-0.05857 -0.180867,-0.09646 0.08957,-0.04306 0.158474,-0.101631 0.0689,-0.06029 0.115411,-0.130913 0.04651,-0.07063 0.07063,-0.14814 0.02411,-0.07924 0.02411,-0.160197 0,-0.1757 -0.06201,-0.308336 -0.06029,-0.134359 -0.170533,-0.225654 -0.110243,-0.08957 -0.265272,-0.134359 -0.15503,-0.04651 -0.341065,-0.04651 -0.172255,0 -0.322117,0.04995 -0.148139,0.04995 -0.258382,0.139526 -0.110243,0.0913 -0.173977,0.217041 -0.06201,0.125746 -0.06201,0.279053 h 0.478868 q 0,-0.0689 0.02756,-0.124023 0.02756,-0.05512 0.07579,-0.09474 0.04651,-0.0379 0.108521,-0.05857 0.06373,-0.02067 0.136081,-0.02067 0.08785,0 0.153307,0.02412 0.06718,0.02412 0.110243,0.06718 0.04306,0.04479 0.06373,0.106798 0.02239,0.06029 0.02239,0.134359 0,0.07579 -0.02239,0.141249 -0.02067,0.06373 -0.06373,0.108521 -0.04651,0.05168 -0.122301,0.08096 -0.07407,0.02756 -0.177422,0.02756 z"
         style="font-family:'Roboto Mono';-inkscape-font-specification:'Roboto Mono Bold';fill:#000000;stroke:none"
         id="path20823" /></g><g
       aria-label="4 bits"
       id="text23443-7-0-1-5"
       style="font-weight:bold;font-size:4.93889px;font-family:'Avenir Next';-inkscape-font-specification:'Avenir Next Bold';text-align:center;text-anchor:middle;fill:#b5b5b5;stroke:#000000;stroke-width:0.421152"><path
         d="m 131.39292,120.87878 v -2.20659 h -0.68006 l -1.47588,2.32958 0.0265,0.41961 h 1.45899 v 0.76205 h 0.67042 v -0.76205 h 0.40755 v -0.5426 z m -1.49758,0 0.76205,-1.18891 0.0651,-0.11575 v 1.30466 z"
         style="font-family:'Roboto Mono';-inkscape-font-specification:'Roboto Mono Bold';fill:#000000;stroke:none"
         id="path20810" /><path
         d="m 137.71364,120.9053 v -0.0506 q 0,-0.23633 -0.0434,-0.44373 -0.041,-0.20739 -0.12781,-0.37379 -0.0555,-0.1037 -0.12782,-0.19052 -0.0723,-0.0892 -0.16157,-0.15192 -0.11093,-0.082 -0.25322,-0.12541 -0.13987,-0.0434 -0.30868,-0.0434 -0.12299,0 -0.2291,0.0265 -0.10369,0.0241 -0.19292,0.0748 -0.0627,0.0338 -0.11817,0.082 -0.0555,0.0458 -0.10369,0.10128 v -1.33118 h -0.67042 v 3.70416 h 0.60289 l 0.0314,-0.27733 q 0.041,0.0531 0.0868,0.0989 0.0458,0.0434 0.0989,0.0796 0.0989,0.0724 0.22187,0.10852 0.1254,0.0386 0.27733,0.0386 0.16639,0 0.30385,-0.0434 0.13988,-0.041 0.25081,-0.12058 0.12299,-0.0844 0.21222,-0.21222 0.0916,-0.12781 0.1471,-0.28456 0.0506,-0.14229 0.0772,-0.30869 0.0265,-0.1688 0.0265,-0.35691 z m -0.67042,-0.0506 v 0.0506 q 0,0.10129 -0.01,0.19534 -0.007,0.094 -0.0265,0.17363 -0.0241,0.10852 -0.0724,0.19534 -0.0458,0.0844 -0.12058,0.13746 -0.0531,0.0386 -0.1254,0.0603 -0.0724,0.0217 -0.16157,0.0217 -0.1037,0 -0.18569,-0.0241 -0.0796,-0.0241 -0.13987,-0.0699 -0.0507,-0.0362 -0.0892,-0.0844 -0.0362,-0.0507 -0.0651,-0.11094 v -1.03938 q 0.0217,-0.0458 0.0482,-0.0844 0.0265,-0.041 0.0579,-0.0723 0.0651,-0.0651 0.15676,-0.0989 0.0916,-0.0338 0.21221,-0.0338 0.0892,0 0.15917,0.0217 0.0699,0.0193 0.1254,0.0603 0.0844,0.0651 0.1254,0.1447 0.0434,0.0772 0.0699,0.17604 0.0217,0.0844 0.0314,0.18087 0.01,0.0965 0.01,0.20016 z"
         style="font-family:'Roboto Mono';-inkscape-font-specification:'Roboto Mono Bold';fill:#000000;stroke:none"
         id="path20812" /><path
         d="m 138.50463,119.57412 v 0.54742 h 0.74276 v 1.51688 h -0.74276 v 0.54501 h 2.127 v -0.54501 h -0.70658 v -2.0643 z m 0.69453,-0.66801 q 0,0.0772 0.0265,0.1447 0.0289,0.0651 0.0796,0.11093 0.0506,0.0482 0.12058,0.0748 0.0724,0.0265 0.15916,0.0265 0.17846,0 0.28216,-0.0989 0.10611,-0.10128 0.10611,-0.25804 0,-0.15675 -0.10611,-0.25562 -0.1037,-0.10129 -0.28216,-0.10129 -0.0868,0 -0.15916,0.0265 -0.0699,0.0265 -0.12058,0.0724 -0.0506,0.0482 -0.0796,0.11575 -0.0265,0.0651 -0.0265,0.14228 z"
         style="font-family:'Roboto Mono';-inkscape-font-specification:'Roboto Mono Bold';fill:#000000;stroke:none"
         id="path20814" /><path
         d="m 142.51989,118.93505 h -0.67041 v 0.63907 h -0.59566 v 0.49437 h 0.59566 v 1.18649 q 0,0.25804 0.0675,0.44373 0.0675,0.18328 0.19293,0.30144 0.12299,0.12058 0.29662,0.17846 0.17604,0.0555 0.39067,0.0555 0.11093,0 0.22428,-0.0121 0.11575,-0.01 0.22186,-0.0289 0.10611,-0.0193 0.20016,-0.0482 0.094,-0.0314 0.16399,-0.0724 l -0.0651,-0.46061 q -0.0458,0.0121 -0.11094,0.0241 -0.0627,0.0121 -0.13504,0.0217 -0.0748,0.0121 -0.15676,0.0193 -0.0796,0.007 -0.15675,0.007 -0.10611,0 -0.19292,-0.0241 -0.0844,-0.0241 -0.1447,-0.082 -0.0603,-0.0555 -0.094,-0.14952 -0.0314,-0.0965 -0.0314,-0.23874 v -1.12138 h 0.97428 v -0.49437 h -0.97428 z"
         style="font-family:'Roboto Mono';-inkscape-font-specification:'Roboto Mono Bold';fill:#000000;stroke:none"
         id="path20816" /><path
         d="m 145.93708,121.4672 q 0,0.0603 -0.0314,0.11093 -0.0289,0.0506 -0.0892,0.0892 -0.0627,0.0386 -0.16158,0.0627 -0.0965,0.0217 -0.22669,0.0217 -0.10852,0 -0.21222,-0.0217 -0.10128,-0.0217 -0.18086,-0.0699 -0.0796,-0.0458 -0.13023,-0.12057 -0.0506,-0.0772 -0.0579,-0.18328 h -0.63906 q 0,0.15916 0.0772,0.31832 0.0796,0.15675 0.23151,0.27974 0.15193,0.12541 0.3762,0.20258 0.22669,0.0772 0.5209,0.0772 0.26769,0 0.48473,-0.0579 0.21704,-0.0603 0.37138,-0.1664 0.15193,-0.10611 0.23392,-0.2508 0.0844,-0.14711 0.0844,-0.32074 0,-0.1881 -0.0844,-0.32315 -0.082,-0.13746 -0.2291,-0.23392 -0.1471,-0.0941 -0.34967,-0.15434 -0.20258,-0.0603 -0.43891,-0.0989 -0.16399,-0.0241 -0.2701,-0.0555 -0.1061,-0.0338 -0.16639,-0.0748 -0.0627,-0.0386 -0.0868,-0.0868 -0.0241,-0.0506 -0.0241,-0.10852 0,-0.0579 0.0265,-0.10852 0.0289,-0.053 0.082,-0.0916 0.0579,-0.0434 0.14951,-0.0675 0.0916,-0.0241 0.21463,-0.0241 0.1447,0 0.24598,0.0362 0.1037,0.0362 0.16399,0.0965 0.0434,0.0458 0.0651,0.10369 0.0217,0.0555 0.0217,0.12058 h 0.67042 q 0,-0.18086 -0.0796,-0.3352 -0.0796,-0.15434 -0.2291,-0.26769 -0.15193,-0.11093 -0.36897,-0.17363 -0.21704,-0.0651 -0.48955,-0.0651 -0.26045,0 -0.46784,0.0651 -0.2074,0.0651 -0.35209,0.17604 -0.1447,0.11094 -0.22187,0.25804 -0.0772,0.14711 -0.0772,0.30868 0,0.1664 0.0748,0.29421 0.0772,0.12782 0.21222,0.22428 0.13505,0.0989 0.32315,0.16881 0.19051,0.0675 0.41961,0.11334 0.18087,0.0338 0.29904,0.0675 0.11816,0.0338 0.19051,0.0723 0.0699,0.041 0.0965,0.0868 0.0289,0.0458 0.0289,0.10611 z"
         style="font-family:'Roboto Mono';-inkscape-font-specification:'Roboto Mono Bold';fill:#000000;stroke:none"
         id="path20818" /></g><g
       aria-label="C2"
       id="text23443-7-0-6"
       style="font-weight:bold;font-size:3.52778px;font-family:'Avenir Next';-inkscape-font-specification:'Avenir Next Bold';text-align:center;text-anchor:middle;fill:#b5b5b5;stroke:#000000;stroke-width:0.421152"><path
         d="m 75.021533,98.315043 h -0.484037 q -0.0069,0.113688 -0.0379,0.194648 -0.03101,0.08096 -0.08441,0.132636 -0.0534,0.05168 -0.129191,0.07579 -0.07579,0.02412 -0.170532,0.02412 -0.07062,0 -0.129191,-0.0155 -0.05684,-0.01723 -0.103353,-0.05168 -0.04306,-0.03101 -0.07752,-0.07751 -0.03273,-0.04651 -0.05684,-0.106798 -0.03445,-0.08785 -0.05168,-0.204984 -0.0155,-0.118856 -0.0155,-0.268717 v -0.341065 q 0,-0.110243 0.01034,-0.204983 0.01033,-0.09646 0.03273,-0.1757 0.02928,-0.101631 0.07752,-0.177423 0.04995,-0.07751 0.120578,-0.118856 0.04134,-0.02411 0.08957,-0.03617 0.04995,-0.01206 0.106798,-0.01206 0.106798,0 0.18259,0.02928 0.07752,0.02756 0.129191,0.08268 0.04995,0.05684 0.07579,0.141249 0.02756,0.08441 0.03445,0.19637 h 0.482314 q -0.01723,-0.19637 -0.08268,-0.353122 -0.06546,-0.156752 -0.179145,-0.265273 -0.113689,-0.10852 -0.275608,-0.167087 -0.160197,-0.05857 -0.366903,-0.05857 -0.139526,0 -0.261827,0.03617 -0.120579,0.03445 -0.222209,0.09991 -0.113688,0.07751 -0.203261,0.18948 -0.08957,0.111966 -0.144694,0.254937 -0.04823,0.117134 -0.07235,0.254937 -0.02412,0.136082 -0.02412,0.287666 v 0.33762 q 0,0.161919 0.02584,0.306613 0.02756,0.144694 0.07752,0.265273 0.05168,0.120578 0.125746,0.220486 0.07579,0.09991 0.172255,0.170532 0.105076,0.07579 0.235989,0.117134 0.132637,0.03962 0.287666,0.03962 0.19637,0 0.35829,-0.05684 0.16192,-0.05857 0.279053,-0.165364 0.117133,-0.106798 0.186035,-0.258383 0.07062,-0.151584 0.08268,-0.341064 z"
         style="font-family:'Roboto Mono';-inkscape-font-specification:'Roboto Mono Bold';fill:#000000;stroke:none"
         id="path20805" /><path
         d="m 77.05414,99.100525 v -0.384128 h -1.100709 l 0.471979,-0.49954 q 0.122301,-0.125746 0.222209,-0.239434 0.09991,-0.115411 0.172255,-0.225654 0.07062,-0.110243 0.10852,-0.222209 0.03962,-0.113688 0.03962,-0.237711 0,-0.163643 -0.05168,-0.298001 -0.05168,-0.136082 -0.149861,-0.232544 -0.09991,-0.09646 -0.248047,-0.149862 -0.146417,-0.0534 -0.33762,-0.0534 -0.199816,0 -0.36518,0.06546 -0.163643,0.06373 -0.279053,0.1757 -0.117134,0.111965 -0.180868,0.261827 -0.06373,0.148139 -0.06373,0.315226 h 0.480591 q 0,-0.10163 0.02584,-0.180867 0.02584,-0.07924 0.07579,-0.132636 0.04823,-0.05168 0.120579,-0.07751 0.07407,-0.02756 0.170532,-0.02756 0.07407,0 0.134359,0.02412 0.06201,0.02411 0.106798,0.0689 0.04306,0.04651 0.06718,0.111965 0.02412,0.06546 0.02412,0.149862 0,0.05684 -0.01895,0.117134 -0.01723,0.06029 -0.05684,0.129191 -0.04134,0.07062 -0.106798,0.155029 -0.06546,0.0844 -0.160197,0.187758 l -0.811321,0.87161 v 0.327284 z"
         style="font-family:'Roboto Mono';-inkscape-font-specification:'Roboto Mono Bold';fill:#000000;stroke:none"
         id="path20807" /></g><g
       aria-label="C1"
       id="text23443-7-0-5"
       style="font-weight:bold;font-size:3.52778px;font-family:'Avenir Next';-inkscape-font-specification:'Avenir Next Bold';text-align:center;text-anchor:middle;fill:#b5b5b5;stroke:#000000;stroke-width:0.421152"><path
         d="m 63.997782,105.41923 h -0.484036 q -0.0069,0.11369 -0.0379,0.19465 -0.03101,0.081 -0.08441,0.13263 -0.0534,0.0517 -0.129191,0.0758 -0.07579,0.0241 -0.170532,0.0241 -0.07062,0 -0.129192,-0.0155 -0.05684,-0.0172 -0.103353,-0.0517 -0.04306,-0.031 -0.07751,-0.0775 -0.03273,-0.0465 -0.05684,-0.1068 -0.03445,-0.0879 -0.05168,-0.20498 -0.0155,-0.11886 -0.0155,-0.26872 v -0.34107 q 0,-0.11024 0.01034,-0.20498 0.01034,-0.0965 0.03273,-0.1757 0.02928,-0.10163 0.07752,-0.17742 0.04995,-0.0775 0.120578,-0.11886 0.04134,-0.0241 0.08957,-0.0362 0.04995,-0.0121 0.106798,-0.0121 0.106798,0 0.18259,0.0293 0.07751,0.0276 0.129191,0.0827 0.04995,0.0568 0.07579,0.14125 0.02756,0.0844 0.03445,0.19637 h 0.482314 q -0.01723,-0.19637 -0.08268,-0.35313 -0.06546,-0.15675 -0.179145,-0.26527 -0.113688,-0.10852 -0.275607,-0.16709 -0.160197,-0.0586 -0.366903,-0.0586 -0.139527,0 -0.261828,0.0362 -0.120578,0.0344 -0.222209,0.0999 -0.113688,0.0775 -0.20326,0.18948 -0.08957,0.11196 -0.144694,0.25494 -0.04823,0.11713 -0.07235,0.25493 -0.02412,0.13608 -0.02412,0.28767 v 0.33762 q 0,0.16192 0.02584,0.30661 0.02756,0.1447 0.07751,0.26527 0.05168,0.12058 0.125746,0.22049 0.07579,0.0999 0.172255,0.17053 0.105075,0.0758 0.235989,0.11714 0.132636,0.0396 0.287666,0.0396 0.19637,0 0.35829,-0.0568 0.161919,-0.0586 0.279053,-0.16536 0.117133,-0.1068 0.186035,-0.25839 0.07062,-0.15158 0.08268,-0.34106 z"
         style="font-family:'Roboto Mono';-inkscape-font-specification:'Roboto Mono Bold';fill:#000000;stroke:none"
         id="path20800" /><path
         d="m 65.563579,106.20471 v -2.50803 h -0.02584 l -1.092096,0.39446 v 0.41686 l 0.633898,-0.22738 v 1.92409 z"
         style="font-family:'Roboto Mono';-inkscape-font-specification:'Roboto Mono Bold';fill:#000000;stroke:none"
         id="path20802" /></g><g
       aria-label="C0"
       id="text23443-7-0"
       style="font-weight:bold;font-size:3.52778px;font-family:'Avenir Next';-inkscape-font-specification:'Avenir Next Bold';text-align:center;text-anchor:middle;fill:#b5b5b5;stroke:#000000;stroke-width:0.421152"><path
         d="m 56.036181,111.7885 h -0.484036 q -0.0069,0.11369 -0.0379,0.19465 -0.03101,0.081 -0.0844,0.13263 -0.0534,0.0517 -0.129191,0.0758 -0.07579,0.0241 -0.170533,0.0241 -0.07062,0 -0.129191,-0.0155 -0.05684,-0.0172 -0.103353,-0.0517 -0.04306,-0.031 -0.07751,-0.0775 -0.03273,-0.0465 -0.05685,-0.1068 -0.03445,-0.0879 -0.05168,-0.20498 -0.0155,-0.11886 -0.0155,-0.26872 v -0.34107 q 0,-0.11024 0.01033,-0.20498 0.01034,-0.0965 0.03273,-0.1757 0.02928,-0.10163 0.07751,-0.17742 0.04995,-0.0775 0.120579,-0.11886 0.04134,-0.0241 0.08957,-0.0362 0.04995,-0.0121 0.106798,-0.0121 0.106798,0 0.182591,0.0293 0.07751,0.0276 0.129191,0.0827 0.04995,0.0568 0.07579,0.14125 0.02756,0.0844 0.03445,0.19637 h 0.482314 q -0.01723,-0.19637 -0.08268,-0.35313 -0.06546,-0.15675 -0.179145,-0.26527 -0.113688,-0.10852 -0.275608,-0.16709 -0.160197,-0.0586 -0.366903,-0.0586 -0.139526,0 -0.261827,0.0362 -0.120578,0.0344 -0.222209,0.0999 -0.113688,0.0775 -0.203261,0.18948 -0.08957,0.11196 -0.144694,0.25494 -0.04823,0.11713 -0.07235,0.25493 -0.02412,0.13609 -0.02412,0.28767 v 0.33762 q 0,0.16192 0.02584,0.30661 0.02756,0.1447 0.07751,0.26528 0.05168,0.12057 0.125746,0.22048 0.07579,0.0999 0.172254,0.17053 0.105076,0.0758 0.23599,0.11714 0.132636,0.0396 0.287665,0.0396 0.196371,0 0.35829,-0.0568 0.16192,-0.0586 0.279053,-0.16536 0.117134,-0.1068 0.186036,-0.25839 0.07062,-0.15158 0.08268,-0.34106 z"
         style="font-family:'Roboto Mono';-inkscape-font-specification:'Roboto Mono Bold';fill:#000000;stroke:none"
         id="path20795" /><path
         d="m 58.061898,111.61969 v -0.59945 q 0,-0.24288 -0.05684,-0.42719 -0.05684,-0.18603 -0.161919,-0.31178 -0.106798,-0.12402 -0.258383,-0.18776 -0.151584,-0.0637 -0.341064,-0.0637 -0.187758,0 -0.339342,0.0637 -0.149862,0.0637 -0.254938,0.18776 -0.106798,0.12575 -0.163642,0.31178 -0.05684,0.18431 -0.05684,0.42719 v 0.59945 q 0,0.24288 0.05684,0.42891 0.05857,0.18432 0.165365,0.30834 0.105075,0.12575 0.25666,0.18948 0.151584,0.0637 0.339342,0.0637 0.18948,0 0.341065,-0.0637 0.151584,-0.0637 0.256659,-0.18948 0.105076,-0.12402 0.160197,-0.30834 0.05684,-0.18603 0.05684,-0.42891 z m -1.150662,-0.20671 q 0,-0.0534 0,-0.081 0,-0.0276 0,-0.11024 v -0.27733 q 0,-0.13953 0.02067,-0.24116 0.02239,-0.10163 0.06718,-0.16536 0.04134,-0.0603 0.10163,-0.0896 0.06201,-0.031 0.142972,-0.031 0.07235,0 0.129191,0.0241 0.05857,0.0224 0.09819,0.0706 0.05168,0.0603 0.07751,0.16192 0.02756,0.0999 0.03101,0.24116 z m 0.668349,0.27906 q 0,0.13952 -0.02239,0.24288 -0.02067,0.10163 -0.06374,0.16708 -0.04134,0.062 -0.103353,0.093 -0.06201,0.0293 -0.142971,0.0293 -0.08785,0 -0.151584,-0.0344 -0.06374,-0.0345 -0.105076,-0.10507 -0.03617,-0.0586 -0.05684,-0.14642 -0.01895,-0.0879 -0.02239,-0.20154 l 0.668349,-0.49609 q 0,0.0499 0,0.0775 0,0.0258 0,0.0827 z"
         style="font-family:'Roboto Mono';-inkscape-font-specification:'Roboto Mono Bold';fill:#000000;stroke:none"
         id="path20797" /></g><path
       id="rect34757"
       style="opacity:1;fill:#ffffff;stroke:#000000;stroke-width:0.421"
       d="m 28.887592,110.26089 h 5.181837 v 3.65084 h -5.181837 z" /><path
       id="rect34757-1"
       style="fill:#ffffff;stroke:#000000;stroke-width:0.421"
       d="m 37.201874,102.20392 h 5.181837 v 3.65084 h -5.181837 z" /><path
       id="rect34757-8"
       style="fill:#ffffff;stroke:#000000;stroke-width:0.421"
       d="m 44.645107,95.799271 h 5.181837 v 3.650841 h -5.181837 z" /><path
       id="rect34757-9"
       style="fill:#ffffff;stroke:#000000;stroke-width:0.421"
       d="m 52.780727,88.529144 h 5.181837 v 3.650841 h -5.181837 z" /><path
       style="opacity:1;fill:#ffffff;fill-opacity:1;stroke:#000000;stroke-width:0.7;stroke-dasharray:none"
       d="M 51.56348,93.643432 57.275726,88.62358"
       id="path35007"
       sodipodi:nodetypes="cc" /><path
       style="opacity:1;fill:#ffffff;fill-opacity:1;stroke:#000000;stroke-width:0.7;stroke-dasharray:none"
       d="m 43.600956,100.91356 5.982009,-5.116514"
       id="path35009"
       sodipodi:nodetypes="cc" /><path
       style="opacity:1;fill:#ffffff;fill-opacity:1;stroke:#000000;stroke-width:0.7;stroke-dasharray:none"
       d="m 24.733236,118.0503 8.828016,-7.78942"
       id="path35011"
       sodipodi:nodetypes="cc" /><path
       style="opacity:1;fill:#ffffff;fill-opacity:1;stroke:#000000;stroke-width:0.7;stroke-dasharray:none"
       d="m 36.503923,107.1451 5.712246,-4.84675"
       id="path35015"
       sodipodi:nodetypes="cc" /><path
       style="fill:#ffffff;fill-opacity:1;stroke:#000000;stroke-width:0.7;stroke-dasharray:none"
       d="m 56.842981,88.796677 5.712246,-4.84675"
       id="path35015-7"
       sodipodi:nodetypes="cc" /><path
       id="rect33058"
       style="fill:#484141;stroke:#000000;stroke-width:0.421"
       d="m 172.95734,92.567436 h 11.02374 v 3.184639 h -11.02374 z" /><path
       id="rect33058-6"
       style="fill:#1136ff;stroke:#000000;stroke-width:0.421"
       d="m 172.95734,95.44178 h 11.02374 v 3.184639 h -11.02374 z" /><path
       id="rect33058-6-8"
       style="fill:#52ff0f;stroke:#000000;stroke-width:0.421"
       d="m 172.95734,98.316124 h 11.02374 v 3.184636 h -11.02374 z" /><path
       id="rect33058-6-9"
       style="fill:#f42222;stroke:#000000;stroke-width:0.421"
       d="m 172.95734,101.19048 h 11.02374 v 3.18464 h -11.02374 z" /><path
       id="rect33058-6-1"
       style="fill:#ed17f9;stroke:#000000;stroke-width:0.421"
       d="m 172.95734,104.06482 h 11.02374 v 3.18464 h -11.02374 z" /><path
       id="rect33058-6-4"
       style="fill:#fefb18;stroke:#000000;stroke-width:0.421"
       d="m 172.95734,106.93916 h 11.02374 v 3.18464 h -11.02374 z" /><path
       id="rect33058-6-88"
       style="fill:#12f5fe;stroke:#000000;stroke-width:0.421"
       d="m 172.95734,109.81351 h 11.02374 v 3.18464 h -11.02374 z" /><path
       id="rect33058-6-7"
       style="fill:#fbc115;stroke:#000000;stroke-width:0.421"
       d="m 172.95734,112.68785 h 11.02374 v 3.18464 h -11.02374 z" /><path
       id="rect33058-6-19"
       style="fill:#c200ff;stroke:#000000;stroke-width:0.421"
       d="m 172.95734,115.5622 h 11.02374 v 3.18464 h -11.02374 z" /><path
       id="rect33058-6-3"
       style="fill:#c4ed13;stroke:#000000;stroke-width:0.421"
       d="m 172.95734,118.43655 h 11.02374 v 3.18463 h -11.02374 z" /><path
       id="rect33058-6-11"
       style="fill:#6a6fa6;stroke:#000000;stroke-width:0.421"
       d="m 172.95734,121.31089 h 11.02374 v 3.18464 h -11.02374 z" /><path
       id="rect33058-6-49"
       style="fill:#63ad6b;stroke:#000000;stroke-width:0.421"
       d="m 172.95734,124.18523 h 11.02374 v 3.18463 h -11.02374 z" /><path
       id="rect33058-6-5"
       style="fill:#b35d5d;stroke:#000000;stroke-width:0.421"
       d="m 172.95734,127.05958 h 11.02374 v 3.18464 h -11.02374 z" /><path
       id="rect33058-6-90"
       style="fill:#af9361;stroke:#000000;stroke-width:0.421"
       d="m 172.95734,129.93393 h 11.02374 v 3.18464 h -11.02374 z" /><path
       id="rect33058-6-93"
       style="fill:#ff11b6;stroke:#000000;stroke-width:0.421"
       d="m 172.95734,132.80827 h 11.02374 v 3.18464 h -11.02374 z" /><path
       id="rect33058-6-40"
       style="fill:#ffffff;stroke:#000000;stroke-width:0.421"
       d="m 172.95734,135.68262 h 11.02374 v 2.6759 h -11.02374 z" /><g
       aria-label="
(16 colors)"
       id="text491"
       style="font-weight:bold;font-size:5.64444px;font-family:'Avenir Next';-inkscape-font-specification:'Avenir Next Bold';text-align:center;text-anchor:middle;fill:#b5b5b5;stroke:#000000;stroke-width:0.421152"><path
         d="m 161.64874,144.02941 v 0.0606 q 0,0.39136 0.0579,0.73311 0.0606,0.34176 0.16261,0.63114 0.10198,0.29215 0.23703,0.53193 0.1378,0.23978 0.28938,0.42168 0.15159,0.18465 0.31144,0.31419 0.16261,0.12953 0.31419,0.19844 l 0.14883,-0.41342 q -0.10749,-0.0827 -0.21773,-0.2067 -0.11024,-0.12402 -0.20946,-0.29214 -0.0937,-0.15435 -0.17639,-0.36105 -0.0799,-0.20671 -0.14056,-0.44924 -0.0441,-0.17363 -0.0827,-0.46578 -0.0358,-0.29214 -0.0358,-0.63665 v -0.0717 q 0,-0.35002 0.0386,-0.64768 0.0386,-0.29765 0.10198,-0.54294 0.0717,-0.25356 0.16536,-0.46854 0.0965,-0.21497 0.20671,-0.37207 0.0854,-0.12126 0.17363,-0.21497 0.0882,-0.0937 0.17639,-0.15985 l -0.14883,-0.41892 q -0.15158,0.0689 -0.31419,0.19843 -0.15985,0.12678 -0.31144,0.31144 -0.15158,0.18466 -0.28938,0.42443 -0.13505,0.23978 -0.23703,0.52917 -0.10197,0.29214 -0.16261,0.63665 -0.0579,0.34176 -0.0579,0.73036 z"
         style="font-family:'Roboto Mono';-inkscape-font-specification:'Roboto Mono Bold';fill:#000000;stroke:none"
         id="path20754" /><path
         d="m 166.3506,145.66101 v -4.01284 h -0.0413 l -1.74735,0.63114 v 0.66697 l 1.01423,-0.36381 v 3.07854 z"
         style="font-family:'Roboto Mono';-inkscape-font-specification:'Roboto Mono Bold';fill:#000000;stroke:none"
         id="path20756" /><path
         d="m 169.89491,141.61509 h -0.10197 q -0.49885,0 -0.87919,0.16812 -0.38034,0.16537 -0.63665,0.46027 -0.25632,0.29765 -0.38585,0.70555 -0.12954,0.40515 -0.12954,0.88195 v 0.2949 q 0,0.34451 0.0965,0.63665 0.0992,0.28939 0.28112,0.50161 0.17915,0.21221 0.43822,0.33348 0.25907,0.11851 0.58153,0.11851 0.30868,0 0.55673,-0.10473 0.24804,-0.10749 0.42168,-0.29214 0.17363,-0.18466 0.26734,-0.43546 0.0937,-0.25081 0.0937,-0.54295 0,-0.27285 -0.0717,-0.51814 -0.0689,-0.24805 -0.21221,-0.43546 -0.14332,-0.18466 -0.35829,-0.29215 -0.21222,-0.11024 -0.49885,-0.11024 -0.14056,0 -0.26183,0.0331 -0.12127,0.0331 -0.22324,0.0854 -0.10473,0.0551 -0.18742,0.12403 -0.0827,0.0661 -0.14607,0.13504 0.0248,-0.2508 0.11851,-0.45475 0.0965,-0.20395 0.26183,-0.35002 0.16261,-0.14607 0.39412,-0.226 0.23427,-0.0799 0.53743,-0.0799 h 0.0441 z m -0.76068,1.98438 q 0.14332,0 0.25356,0.0579 0.113,0.0551 0.19017,0.15434 0.0772,0.10198 0.11851,0.23978 0.0413,0.13781 0.0413,0.30041 0,0.16261 -0.0413,0.30042 -0.0413,0.13504 -0.11851,0.23426 -0.0772,0.0992 -0.18741,0.1571 -0.11024,0.0551 -0.24529,0.0551 -0.13229,0 -0.24529,-0.0551 -0.113,-0.0551 -0.19568,-0.16537 -0.0827,-0.10748 -0.12954,-0.27285 -0.0441,-0.16536 -0.0441,-0.38585 v -0.226 q 0.0386,-0.0827 0.0937,-0.15158 0.0579,-0.0689 0.12678,-0.12127 0.0799,-0.0579 0.17639,-0.0882 0.0965,-0.0331 0.2067,-0.0331 z"
         style="font-family:'Roboto Mono';-inkscape-font-specification:'Roboto Mono Bold';fill:#000000;stroke:none"
         id="path20758" /><path
         d="m 175.95552,145.10428 q -0.18466,0 -0.30593,-0.0744 -0.11851,-0.0744 -0.18741,-0.19844 -0.0717,-0.12127 -0.0992,-0.28112 -0.0276,-0.16261 -0.0276,-0.33624 v -0.0827 q 0,-0.17088 0.0276,-0.33073 0.0303,-0.15985 0.10198,-0.28388 0.0689,-0.12402 0.18741,-0.19843 0.11851,-0.0744 0.30041,-0.0744 0.12403,0 0.22876,0.0441 0.10473,0.0413 0.17914,0.113 0.0744,0.0717 0.113,0.17088 0.0386,0.0992 0.0331,0.20946 h 0.7221 q 0.006,-0.26459 -0.0882,-0.4768 -0.0937,-0.21498 -0.26183,-0.36656 -0.17087,-0.14883 -0.40514,-0.23151 -0.23427,-0.0827 -0.50987,-0.0827 -0.34451,0 -0.60634,0.11851 -0.25907,0.11851 -0.43546,0.32246 -0.17639,0.20395 -0.26458,0.47955 -0.0882,0.27286 -0.0882,0.58705 v 0.0827 q 0,0.31419 0.0882,0.5898 0.0909,0.27285 0.26734,0.4768 0.17363,0.20395 0.43546,0.32246 0.26182,0.11576 0.60909,0.11576 0.25631,0 0.48507,-0.0799 0.23151,-0.0827 0.40514,-0.226 0.17363,-0.14331 0.27285,-0.34175 0.10198,-0.19844 0.0965,-0.42995 h -0.7221 q 0.006,0.10473 -0.0386,0.19017 -0.0413,0.0854 -0.11851,0.14607 -0.0772,0.0606 -0.17915,0.0937 -0.10197,0.0331 -0.21497,0.0331 z"
         style="font-family:'Roboto Mono';-inkscape-font-specification:'Roboto Mono Bold';fill:#000000;stroke:none"
         id="path20760" /><path
         d="m 177.91784,144.14241 v 0.0579 q 0,0.32797 0.0937,0.60634 0.0937,0.2756 0.27561,0.47955 0.17914,0.20395 0.44097,0.31971 0.26458,0.113 0.60082,0.113 0.33349,0 0.59532,-0.113 0.26182,-0.11576 0.44097,-0.31971 0.17914,-0.20395 0.27285,-0.47955 0.0937,-0.27837 0.0937,-0.60634 v -0.0579 q 0,-0.32521 -0.0937,-0.60082 -0.0937,-0.27836 -0.27285,-0.48231 -0.1819,-0.20395 -0.44373,-0.31971 -0.26183,-0.11575 -0.59807,-0.11575 -0.33624,0 -0.59807,0.11575 -0.25907,0.11576 -0.43821,0.31971 -0.1819,0.20395 -0.27561,0.48231 -0.0937,0.27561 -0.0937,0.60082 z m 0.76619,0.0579 v -0.0579 q 0,-0.1819 0.0358,-0.34451 0.0358,-0.1626 0.113,-0.28663 0.0772,-0.12402 0.19844,-0.19568 0.12127,-0.0717 0.29214,-0.0717 0.17363,0 0.2949,0.0717 0.12127,0.0717 0.19844,0.19568 0.0744,0.12403 0.11024,0.28663 0.0358,0.16261 0.0358,0.34451 v 0.0579 q 0,0.18741 -0.0358,0.35278 -0.0358,0.16261 -0.11024,0.28387 -0.0772,0.12403 -0.19844,0.19568 -0.12127,0.0717 -0.28939,0.0717 -0.17363,0 -0.29765,-0.0717 -0.12127,-0.0717 -0.19844,-0.19568 -0.0772,-0.12126 -0.113,-0.28387 -0.0358,-0.16537 -0.0358,-0.35278 z"
         style="font-family:'Roboto Mono';-inkscape-font-specification:'Roboto Mono Bold';fill:#000000;stroke:none"
         id="path20762" /><path
         d="m 181.56964,141.42768 v 0.62563 h 0.89297 v 2.98483 h -0.89297 v 0.62287 h 2.52181 v -0.62287 h -0.85438 v -3.61046 z"
         style="font-family:'Roboto Mono';-inkscape-font-specification:'Roboto Mono Bold';fill:#000000;stroke:none"
         id="path20764" /><path
         d="m 184.69228,144.14241 v 0.0579 q 0,0.32797 0.0937,0.60634 0.0937,0.2756 0.27561,0.47955 0.17914,0.20395 0.44097,0.31971 0.26458,0.113 0.60083,0.113 0.33348,0 0.59531,-0.113 0.26182,-0.11576 0.44097,-0.31971 0.17914,-0.20395 0.27285,-0.47955 0.0937,-0.27837 0.0937,-0.60634 v -0.0579 q 0,-0.32521 -0.0937,-0.60082 -0.0937,-0.27836 -0.27285,-0.48231 -0.1819,-0.20395 -0.44373,-0.31971 -0.26183,-0.11575 -0.59807,-0.11575 -0.33624,0 -0.59806,0.11575 -0.25908,0.11576 -0.43822,0.31971 -0.1819,0.20395 -0.27561,0.48231 -0.0937,0.27561 -0.0937,0.60082 z m 0.76618,0.0579 v -0.0579 q 0,-0.1819 0.0358,-0.34451 0.0358,-0.1626 0.113,-0.28663 0.0772,-0.12402 0.19844,-0.19568 0.12127,-0.0717 0.29214,-0.0717 0.17364,0 0.2949,0.0717 0.12127,0.0717 0.19844,0.19568 0.0744,0.12403 0.11024,0.28663 0.0358,0.16261 0.0358,0.34451 v 0.0579 q 0,0.18741 -0.0358,0.35278 -0.0358,0.16261 -0.11024,0.28387 -0.0772,0.12403 -0.19844,0.19568 -0.12126,0.0717 -0.28938,0.0717 -0.17364,0 -0.29766,-0.0717 -0.12127,-0.0717 -0.19844,-0.19568 -0.0772,-0.12126 -0.113,-0.28387 -0.0358,-0.16537 -0.0358,-0.35278 z"
         style="font-family:'Roboto Mono';-inkscape-font-specification:'Roboto Mono Bold';fill:#000000;stroke:none"
         id="path20766" /><path
         d="m 190.32569,142.62382 q -0.30041,0 -0.55397,0.14607 -0.25356,0.14331 -0.43546,0.39687 l -0.006,-0.0661 -0.0303,-0.42168 h -0.71382 v 2.98207 h 0.76619 v -1.79145 q 0.0524,-0.12678 0.13229,-0.22048 0.0799,-0.0937 0.19292,-0.15434 0.0937,-0.0524 0.21222,-0.0772 0.12127,-0.0276 0.2701,-0.0276 0.14331,0 0.30041,0.0193 0.15985,0.0165 0.31143,0.0524 l 0.113,-0.76343 q -0.0909,-0.0276 -0.23977,-0.0496 -0.14608,-0.0248 -0.31971,-0.0248 z"
         style="font-family:'Roboto Mono';-inkscape-font-specification:'Roboto Mono Bold';fill:#000000;stroke:none"
         id="path20768" /><path
         d="m 193.49518,144.84246 q 0,0.0689 -0.0358,0.12678 -0.0331,0.0579 -0.10198,0.10197 -0.0717,0.0441 -0.18466,0.0717 -0.11024,0.0248 -0.25907,0.0248 -0.12402,0 -0.24253,-0.0248 -0.11576,-0.0248 -0.20671,-0.0799 -0.091,-0.0524 -0.14882,-0.1378 -0.0579,-0.0882 -0.0662,-0.20946 h -0.73036 q 0,0.1819 0.0882,0.3638 0.0909,0.17914 0.26459,0.3197 0.17363,0.14332 0.42995,0.23151 0.25907,0.0882 0.59531,0.0882 0.30592,0 0.55397,-0.0661 0.24804,-0.0689 0.42443,-0.19017 0.17364,-0.12126 0.26734,-0.28663 0.0965,-0.16812 0.0965,-0.36656 0,-0.21497 -0.0965,-0.36931 -0.0937,-0.1571 -0.26182,-0.26734 -0.16812,-0.10749 -0.39963,-0.17639 -0.23152,-0.0689 -0.50161,-0.113 -0.18741,-0.0276 -0.30868,-0.0634 -0.12127,-0.0386 -0.19017,-0.0854 -0.0717,-0.0441 -0.0992,-0.0992 -0.0276,-0.0579 -0.0276,-0.12403 0,-0.0661 0.0303,-0.12402 0.0331,-0.0606 0.0937,-0.10473 0.0661,-0.0496 0.17088,-0.0772 0.10473,-0.0276 0.24529,-0.0276 0.16537,0 0.28112,0.0413 0.11851,0.0413 0.18741,0.11024 0.0496,0.0524 0.0744,0.11851 0.0248,0.0634 0.0248,0.13781 h 0.76619 q 0,-0.20671 -0.0909,-0.3831 -0.0909,-0.17639 -0.26183,-0.30592 -0.17363,-0.12678 -0.42168,-0.19844 -0.24804,-0.0744 -0.55948,-0.0744 -0.29765,0 -0.53468,0.0744 -0.23702,0.0744 -0.40238,0.20119 -0.16537,0.12678 -0.25356,0.2949 -0.0882,0.16812 -0.0882,0.35278 0,0.19017 0.0854,0.33624 0.0882,0.14607 0.24254,0.25632 0.15434,0.113 0.36931,0.19292 0.21773,0.0772 0.47956,0.12954 0.2067,0.0386 0.34175,0.0772 0.13505,0.0386 0.21773,0.0827 0.0799,0.0469 0.11024,0.0992 0.0331,0.0524 0.0331,0.12127 z"
         style="font-family:'Roboto Mono';-inkscape-font-specification:'Roboto Mono Bold';fill:#000000;stroke:none"
         id="path20770" /><path
         d="m 196.99815,144.09005 v -0.0606 q 0,-0.37758 -0.0606,-0.71382 -0.0606,-0.339 -0.16536,-0.63114 -0.10473,-0.29214 -0.24529,-0.53192 -0.13781,-0.24254 -0.2949,-0.43271 -0.1571,-0.18741 -0.32246,-0.3197 -0.16537,-0.13229 -0.32246,-0.20119 l -0.14607,0.41065 q 0.0827,0.0634 0.16536,0.15434 0.0854,0.0882 0.16536,0.20119 0.11852,0.17088 0.22325,0.40515 0.10748,0.23426 0.1819,0.52916 0.0579,0.23703 0.0909,0.51815 0.0358,0.28111 0.0358,0.60633 v 0.0717 q 0,0.33348 -0.0358,0.62012 -0.0331,0.28663 -0.0909,0.52365 -0.0689,0.25907 -0.15986,0.46853 -0.0882,0.20946 -0.19568,0.37483 -0.091,0.14056 -0.18741,0.24529 -0.0965,0.10749 -0.19292,0.17914 l 0.14607,0.41342 q 0.15709,-0.0689 0.32246,-0.2012 0.16536,-0.13229 0.32246,-0.32246 0.15709,-0.18741 0.2949,-0.42995 0.14056,-0.23977 0.24529,-0.53192 0.10473,-0.29214 0.16536,-0.62838 0.0606,-0.339 0.0606,-0.71658 z"
         style="font-family:'Roboto Mono';-inkscape-font-specification:'Roboto Mono Bold';fill:#000000;stroke:none"
         id="path20772" /></g></g></svg>
