<?xml version="1.0" encoding="UTF-8" standalone="no"?>
<!-- Created with Inkscape (http://www.inkscape.org/) -->

<svg
   width="886.88336mm"
   height="304.79999mm"
   viewBox="0 0 886.88336 304.79999"
   version="1.1"
   id="svg5"
   xml:space="preserve"
   inkscape:version="1.2.2 (b0a84865, 2022-12-01)"
   sodipodi:docname="v_scroll_down_sc.svg"
   xmlns:inkscape="http://www.inkscape.org/namespaces/inkscape"
   xmlns:sodipodi="http://sodipodi.sourceforge.net/DTD/sodipodi-0.dtd"
   xmlns="http://www.w3.org/2000/svg"
   xmlns:svg="http://www.w3.org/2000/svg"><sodipodi:namedview
     id="namedview7"
     pagecolor="#ffffff"
     bordercolor="#000000"
     borderopacity="0.25"
     inkscape:showpageshadow="2"
     inkscape:pageopacity="0.0"
     inkscape:pagecheckerboard="0"
     inkscape:deskcolor="#d1d1d1"
     inkscape:document-units="mm"
     showgrid="false"
     inkscape:zoom="0.89589675"
     inkscape:cx="2243.004"
     inkscape:cy="313.65222"
     inkscape:window-width="1728"
     inkscape:window-height="950"
     inkscape:window-x="0"
     inkscape:window-y="38"
     inkscape:window-maximized="0"
     inkscape:current-layer="layer1" /><defs
     id="defs2"><marker
       style="overflow:visible"
       id="marker3716"
       refX="0"
       refY="0"
       orient="auto-start-reverse"
       inkscape:stockid="TriangleStart"
       markerWidth="5.3244081"
       markerHeight="6.155385"
       viewBox="0 0 5.3244081 6.1553851"
       inkscape:isstock="true"
       inkscape:collect="always"
       preserveAspectRatio="xMidYMid"><path
         transform="scale(0.5)"
         style="fill:context-stroke;fill-rule:evenodd;stroke:context-stroke;stroke-width:1pt"
         d="M 5.77,0 -2.88,5 V -5 Z"
         id="path3714" /></marker><marker
       style="overflow:visible"
       id="TriangleStart"
       refX="0"
       refY="0"
       orient="auto-start-reverse"
       inkscape:stockid="TriangleStart"
       markerWidth="5.3244081"
       markerHeight="6.155385"
       viewBox="0 0 5.3244081 6.1553851"
       inkscape:isstock="true"
       inkscape:collect="always"
       preserveAspectRatio="xMidYMid"><path
         transform="scale(0.5)"
         style="fill:context-stroke;fill-rule:evenodd;stroke:context-stroke;stroke-width:1pt"
         d="M 5.77,0 -2.88,5 V -5 Z"
         id="path135" /></marker></defs><g
     inkscape:label="Layer 1"
     inkscape:groupmode="layer"
     id="layer1"
     transform="translate(385.55185,-1.1339045)"><path
       id="rect12529"
       style="fill:#d4d4d4;stroke:#000000;stroke-width:0.972"
       d="M -208.24211,40.30447 H 39.949158 V 234.75593 H -208.24211 Z" /><path
       id="rect4175"
       style="fill:#ffffff;stroke:#000000;stroke-width:1.672"
       d="m -362.2177,206.68839 h 43.13286 c 4.30905,0 7.77806,3.46901 7.77806,7.77805 v 30.40514 c 0,4.30904 -3.46901,7.77806 -7.77806,7.77806 h -43.13286 c -4.30904,0 -7.77806,-3.46902 -7.77806,-7.77806 v -30.40514 c 0,-4.30904 3.46902,-7.77805 7.77806,-7.77805 z" /><path
       id="rect300"
       style="fill:#b9b2b2;stroke:#000000;stroke-width:0.972"
       d="M -208.24211,91.342506 H 39.949158 V 234.17593 H -208.24211 Z" /><path
       id="rect300-7"
       style="fill:#ffffff;stroke:#000000;stroke-width:0.972"
       d="M 220.96263,62.931561 H 469.1539 V 205.76498 H 220.96263 Z" /><g
       aria-label="VRAM"
       id="text1662"
       style="font-weight:bold;font-size:22.5778px;font-family:'Avenir Next';-inkscape-font-specification:'Avenir Next Bold';text-align:center;text-anchor:middle;fill:#ffffff;stroke:#000000;stroke-width:0.972"><path
         d="m -113.12075,265.1427 h 3.15296 l 4.86172,-16.05141 h -3.41754 l -2.73403,10.47311 -0.29766,1.0914 -0.2756,-1.08038 -2.72301,-10.48413 h -3.41754 z"
         style="font-family:'Roboto Mono';-inkscape-font-specification:'Roboto Mono Bold';fill:#000000;stroke:none"
         id="path27636" /><path
         d="m -97.874119,259.14547 3.020663,5.99723 h 3.31832 v -0.14332 l -3.450612,-6.62561 q 0.661459,-0.29766 1.190627,-0.70556 0.540191,-0.4079 0.926042,-0.95911 0.374827,-0.54019 0.573265,-1.2237 0.209462,-0.69453 0.209462,-1.55443 0,-1.19063 -0.418924,-2.09462 -0.4079,-0.90399 -1.168578,-1.51033 -0.771702,-0.60634 -1.852085,-0.91502 -1.080383,-0.31971 -2.414325,-0.31971 h -5.379866 v 16.05141 h 3.09783 v -5.99723 z m -2.348181,-2.51354 v -5.02709 h 2.282036 q 0.63941,0 1.135504,0.15434 0.496094,0.15434 0.837848,0.44097 0.385851,0.31971 0.573265,0.8158 0.198437,0.48507 0.198437,1.12448 0,0.52917 -0.15434,0.95912 -0.143316,0.42995 -0.429948,0.73863 -0.341754,0.38585 -0.89297,0.59531 -0.540192,0.19844 -1.256772,0.19844 z"
         style="font-family:'Roboto Mono';-inkscape-font-specification:'Roboto Mono Bold';fill:#000000;stroke:none"
         id="path27638" /><path
         d="m -81.877835,261.79131 0.937067,3.35139 h 3.263198 l -5.15938,-16.05141 h -2.811201 l -5.258599,16.05141 h 3.263197 l 0.948092,-3.35139 z m -4.056948,-2.63481 1.68672,-5.90904 1.642623,5.90904 z"
         style="font-family:'Roboto Mono';-inkscape-font-specification:'Roboto Mono Bold';fill:#000000;stroke:none"
         id="path27640" /><path
         d="m -72.418971,249.09129 h -3.847487 v 16.05141 h 2.844274 v -4.75148 l -0.132292,-7.2099 1.885159,6.66971 h 1.53238 l 2.105644,-6.96737 -0.132292,7.50756 v 4.75148 h 2.844274 v -16.05141 h -3.847487 l -1.730817,6.03031 z"
         style="font-family:'Roboto Mono';-inkscape-font-specification:'Roboto Mono Bold';fill:#000000;stroke:none"
         id="path27642" /></g><g
       aria-label="CRTC
START"
       id="text1662-5"
       style="font-weight:bold;font-size:14.1111px;font-family:'Avenir Next';-inkscape-font-specification:'Avenir Next Bold';text-align:center;text-anchor:middle;fill:#ffffff;stroke:#000000;stroke-width:0.972"><path
         d="m -351.76365,222.88574 h -1.93614 q -0.0276,0.45475 -0.15159,0.77859 -0.12402,0.32384 -0.33762,0.53054 -0.21359,0.20671 -0.51676,0.30317 -0.30317,0.0965 -0.68213,0.0965 -0.2825,0 -0.51676,-0.062 -0.22738,-0.0689 -0.41341,-0.2067 -0.17226,-0.12403 -0.31006,-0.31006 -0.13092,-0.18604 -0.22738,-0.42719 -0.1378,-0.3514 -0.2067,-0.81993 -0.062,-0.47543 -0.062,-1.07487 v -1.36426 q 0,-0.44097 0.0413,-0.81993 0.0413,-0.38585 0.13091,-0.7028 0.11713,-0.40652 0.31006,-0.70969 0.19981,-0.31006 0.48231,-0.47542 0.16536,-0.0965 0.35829,-0.1447 0.19982,-0.0482 0.42719,-0.0482 0.42719,0 0.73036,0.11714 0.31006,0.11024 0.51677,0.33072 0.19981,0.22738 0.30316,0.565 0.11025,0.33762 0.13781,0.78548 h 1.92925 q -0.0689,-0.78548 -0.33073,-1.41249 -0.26183,-0.627 -0.71658,-1.06109 -0.45475,-0.43408 -1.10243,-0.66834 -0.64079,-0.23427 -1.46761,-0.23427 -0.5581,0 -1.04731,0.14469 -0.48231,0.13781 -0.88883,0.39963 -0.45475,0.31006 -0.81304,0.75793 -0.35829,0.44786 -0.57878,1.01974 -0.19292,0.46854 -0.28939,1.01975 -0.0965,0.54432 -0.0965,1.15066 v 1.35048 q 0,0.64767 0.10335,1.22645 0.11025,0.57878 0.31006,1.06109 0.20671,0.48231 0.50299,0.88194 0.30316,0.39963 0.68901,0.68213 0.42031,0.30317 0.94396,0.46853 0.53054,0.15848 1.15066,0.15848 0.78548,0 1.43316,-0.22738 0.64768,-0.23426 1.11621,-0.66146 0.46853,-0.42719 0.74414,-1.03352 0.2825,-0.60634 0.33073,-1.36426 z"
         style="font-family:'Roboto Mono';-inkscape-font-specification:'Roboto Mono Bold';fill:#000000;stroke:none"
         id="path27617" /><path
         d="m -346.85784,222.2794 1.88791,3.74826 h 2.07395 v -0.0896 l -2.15663,-4.141 q 0.41341,-0.18603 0.74414,-0.44097 0.33762,-0.25494 0.57878,-0.59945 0.23426,-0.33762 0.35829,-0.76481 0.13091,-0.43408 0.13091,-0.97151 0,-0.74414 -0.26183,-1.30914 -0.25494,-0.565 -0.73036,-0.94396 -0.48231,-0.37896 -1.15755,-0.57188 -0.67524,-0.19982 -1.50895,-0.19982 h -3.36241 v 10.03211 h 1.93614 v -3.74826 z m -1.46761,-1.57096 v -3.14192 h 1.42627 q 0.39963,0 0.70969,0.0965 0.31006,0.0965 0.52365,0.27561 0.24116,0.19981 0.35829,0.50987 0.12403,0.30317 0.12403,0.7028 0,0.33073 -0.0965,0.59945 -0.0896,0.26871 -0.26871,0.46164 -0.2136,0.24115 -0.55811,0.37207 -0.33762,0.12402 -0.78548,0.12402 z"
         style="font-family:'Roboto Mono';-inkscape-font-specification:'Roboto Mono Bold';fill:#000000;stroke:none"
         id="path27619" /><path
         d="m -334.42105,217.57341 v -1.57786 h -8.08908 v 1.57786 h 3.05235 v 8.45425 h 1.94303 v -8.45425 z"
         style="font-family:'Roboto Mono';-inkscape-font-specification:'Roboto Mono Bold';fill:#000000;stroke:none"
         id="path27621" /><path
         d="m -326.35954,222.88574 h -1.93614 q -0.0276,0.45475 -0.15158,0.77859 -0.12403,0.32384 -0.33762,0.53054 -0.2136,0.20671 -0.51676,0.30317 -0.30317,0.0965 -0.68213,0.0965 -0.2825,0 -0.51677,-0.062 -0.22737,-0.0689 -0.41341,-0.2067 -0.17225,-0.12403 -0.31006,-0.31006 -0.13091,-0.18604 -0.22737,-0.42719 -0.13781,-0.3514 -0.20671,-0.81993 -0.062,-0.47543 -0.062,-1.07487 v -1.36426 q 0,-0.44097 0.0413,-0.81993 0.0413,-0.38585 0.13091,-0.7028 0.11714,-0.40652 0.31006,-0.70969 0.19982,-0.31006 0.48232,-0.47542 0.16536,-0.0965 0.35829,-0.1447 0.19981,-0.0482 0.42719,-0.0482 0.42719,0 0.73036,0.11714 0.31006,0.11024 0.51676,0.33072 0.19982,0.22738 0.30317,0.565 0.11024,0.33762 0.1378,0.78548 h 1.92925 q -0.0689,-0.78548 -0.33072,-1.41249 -0.26183,-0.627 -0.71658,-1.06109 -0.45476,-0.43408 -1.10243,-0.66834 -0.64079,-0.23427 -1.46761,-0.23427 -0.55811,0 -1.04731,0.14469 -0.48231,0.13781 -0.88884,0.39963 -0.45475,0.31006 -0.81304,0.75793 -0.35829,0.44786 -0.57877,1.01974 -0.19293,0.46854 -0.28939,1.01975 -0.0965,0.54432 -0.0965,1.15066 v 1.35048 q 0,0.64767 0.10335,1.22645 0.11024,0.57878 0.31006,1.06109 0.2067,0.48231 0.50298,0.88194 0.30317,0.39963 0.68902,0.68213 0.4203,0.30317 0.94396,0.46853 0.53054,0.15848 1.15066,0.15848 0.78548,0 1.43316,-0.22738 0.64767,-0.23426 1.11621,-0.66146 0.46853,-0.42719 0.74414,-1.03352 0.28249,-0.60634 0.33072,-1.36426 z"
         style="font-family:'Roboto Mono';-inkscape-font-specification:'Roboto Mono Bold';fill:#000000;stroke:none"
         id="path27623" /><path
         d="m -357.75467,241.92959 q 0,0.26872 -0.11024,0.4961 -0.11024,0.22048 -0.31695,0.37896 -0.2067,0.15847 -0.50987,0.24804 -0.29628,0.0896 -0.68213,0.0896 -0.43408,0 -0.79926,-0.0965 -0.35829,-0.0965 -0.61323,-0.30316 -0.26183,-0.20671 -0.40652,-0.53055 -0.14469,-0.32384 -0.15847,-0.77859 h -1.9017 q 0,0.77859 0.29628,1.35737 0.30317,0.57877 0.81993,1.00596 0.54433,0.43409 1.27469,0.66146 0.73725,0.22049 1.48828,0.22049 0.76481,0 1.41249,-0.17915 0.64767,-0.18603 1.11621,-0.54432 0.46853,-0.3514 0.73036,-0.86128 0.26871,-0.51676 0.26871,-1.17822 0,-0.76481 -0.3514,-1.35047 -0.3514,-0.58567 -0.94395,-1.02664 -0.39274,-0.26872 -0.86127,-0.47542 -0.46854,-0.20671 -0.9853,-0.3514 -0.48231,-0.13092 -0.86816,-0.2825 -0.37896,-0.15158 -0.64768,-0.33762 -0.26872,-0.17914 -0.41341,-0.40652 -0.13781,-0.22738 -0.13781,-0.50987 0,-0.26872 0.10336,-0.4961 0.11024,-0.23426 0.31694,-0.40652 0.20671,-0.16536 0.50299,-0.25494 0.30317,-0.0965 0.68902,-0.0965 0.4203,0 0.73036,0.11713 0.31695,0.11025 0.53054,0.31006 0.20671,0.20671 0.31006,0.48921 0.11024,0.28249 0.12402,0.62011 h 1.88791 q 0,-0.67524 -0.26182,-1.24023 -0.26183,-0.565 -0.73036,-0.97841 -0.46854,-0.40652 -1.1231,-0.63389 -0.64768,-0.22738 -1.43316,-0.22738 -0.75792,0 -1.4056,0.19982 -0.64768,0.19292 -1.1231,0.5581 -0.47542,0.36518 -0.74414,0.88194 -0.26872,0.51677 -0.26872,1.15067 0,0.55121 0.19982,1.01974 0.2067,0.46854 0.60633,0.85439 0.39963,0.38585 1.02664,0.70968 0.6339,0.32384 1.46761,0.55122 0.53744,0.14469 0.89573,0.31695 0.36518,0.16536 0.59255,0.36518 0.22049,0.2067 0.31006,0.44097 0.0965,0.23427 0.0965,0.50298 z"
         style="font-family:'Roboto Mono';-inkscape-font-specification:'Roboto Mono Bold';fill:#000000;stroke:none"
         id="path27625" /><path
         d="m -347.12311,236.09361 v -1.57786 h -8.08908 v 1.57786 h 3.05235 v 8.45425 h 1.94304 v -8.45425 z"
         style="font-family:'Roboto Mono';-inkscape-font-specification:'Roboto Mono Bold';fill:#000000;stroke:none"
         id="path27627" /><path
         d="m -341.0942,242.45325 0.58567,2.09461 h 2.03949 l -3.2246,-10.03211 h -1.757 l -3.28662,10.03211 h 2.03949 l 0.59256,-2.09461 z m -2.53559,-1.64676 1.0542,-3.69314 1.02664,3.69314 z"
         style="font-family:'Roboto Mono';-inkscape-font-specification:'Roboto Mono Bold';fill:#000000;stroke:none"
         id="path27629" /><path
         d="m -334.15578,240.7996 1.88791,3.74826 h 2.07395 v -0.0896 l -2.15663,-4.141 q 0.41341,-0.18603 0.74414,-0.44097 0.33762,-0.25494 0.57877,-0.59945 0.23427,-0.33762 0.35829,-0.76481 0.13092,-0.43408 0.13092,-0.97151 0,-0.74414 -0.26183,-1.30914 -0.25494,-0.565 -0.73036,-0.94396 -0.48231,-0.37896 -1.15755,-0.57188 -0.67524,-0.19982 -1.50895,-0.19982 h -3.36241 v 10.03211 h 1.93614 v -3.74826 z m -1.46761,-1.57096 v -3.14192 h 1.42627 q 0.39963,0 0.70969,0.0965 0.31006,0.0965 0.52365,0.27561 0.24116,0.19981 0.35829,0.50987 0.12402,0.30317 0.12402,0.7028 0,0.33073 -0.0965,0.59944 -0.0896,0.26872 -0.26872,0.46165 -0.21359,0.24115 -0.5581,0.37207 -0.33762,0.12402 -0.78548,0.12402 z"
         style="font-family:'Roboto Mono';-inkscape-font-specification:'Roboto Mono Bold';fill:#000000;stroke:none"
         id="path27631" /><path
         d="m -321.719,236.09361 v -1.57786 h -8.08907 v 1.57786 h 3.05235 v 8.45425 h 1.94303 v -8.45425 z"
         style="font-family:'Roboto Mono';-inkscape-font-specification:'Roboto Mono Bold';fill:#000000;stroke:none"
         id="path27633" /></g><g
       aria-label="200"
       id="text1662-39"
       style="font-weight:bold;font-size:14.1111px;font-family:'Avenir Next';-inkscape-font-specification:'Avenir Next Bold';text-align:center;text-anchor:middle;fill:#ffffff;stroke:#000000;stroke-width:0.972"><path
         d="m 12.580409,143.09505 v -1.53651 H 8.1775805 l 1.8879105,-1.99816 q 0.489204,-0.50298 0.888834,-0.95773 0.399631,-0.46165 0.689019,-0.90262 0.282497,-0.44097 0.434082,-0.88883 0.158474,-0.45475 0.158474,-0.95085 0,-0.65457 -0.206706,-1.192 -0.206705,-0.54432 -0.599446,-0.93018 -0.399631,-0.38585 -0.992187,-0.59944 -0.5856654,-0.2136 -1.350476,-0.2136 -0.7992615,0 -1.4607193,0.26183 -0.6545677,0.25494 -1.1162101,0.7028 -0.4685326,0.44786 -0.7234695,1.04731 -0.2549369,0.59255 -0.2549369,1.2609 H 7.454111 q 0,-0.40652 0.1033528,-0.72347 0.1033528,-0.31695 0.3031682,-0.53054 0.1929252,-0.20671 0.482313,-0.31006 0.2962779,-0.11024 0.6821283,-0.11024 0.296278,0 0.5374345,0.0965 0.2480467,0.0965 0.4271915,0.27561 0.1722547,0.18603 0.2687177,0.44786 0.09646,0.26183 0.09646,0.59944 0,0.22738 -0.07579,0.46854 -0.0689,0.24115 -0.227376,0.51676 -0.1653645,0.2825 -0.4271915,0.62012 -0.2618271,0.33762 -0.6407873,0.75103 l -3.2452774,3.48643 v 1.30914 z"
         style="font-family:'Roboto Mono';-inkscape-font-specification:'Roboto Mono Bold';fill:#000000;stroke:none"
         id="path27610" /><path
         d="m 21.020887,139.27788 v -2.39778 q 0,-0.97152 -0.227376,-1.70877 -0.227376,-0.74414 -0.647678,-1.24712 -0.427191,-0.49609 -1.033527,-0.75103 -0.606337,-0.25494 -1.364257,-0.25494 -0.75103,0 -1.357367,0.25494 -0.599446,0.25494 -1.019747,0.75103 -0.427192,0.50298 -0.654568,1.24712 -0.227376,0.73725 -0.227376,1.70877 v 2.39778 q 0,0.97152 0.227376,1.71566 0.234266,0.73725 0.661458,1.23334 0.420301,0.50299 1.026638,0.75792 0.606336,0.25494 1.357366,0.25494 0.757921,0 1.364257,-0.25494 0.606336,-0.25493 1.026638,-0.75792 0.420301,-0.49609 0.640787,-1.23334 0.227376,-0.74414 0.227376,-1.71566 z m -4.602644,-0.82682 q 0,-0.21359 0,-0.32384 0,-0.11024 0,-0.44097 v -1.10932 q 0,-0.5581 0.08268,-0.96462 0.08957,-0.40653 0.268717,-0.66146 0.165365,-0.24116 0.406521,-0.35829 0.248047,-0.12403 0.571886,-0.12403 0.289388,0 0.516764,0.0965 0.234266,0.0896 0.39274,0.28249 0.206706,0.24116 0.310059,0.64768 0.110243,0.39963 0.124023,0.96463 z m 2.673392,1.11621 q 0,0.55811 -0.08957,0.97152 -0.08268,0.40652 -0.254937,0.66835 -0.165365,0.24804 -0.413411,0.37207 -0.248047,0.11713 -0.571886,0.11713 -0.351399,0 -0.606336,-0.1378 -0.254937,-0.13781 -0.420302,-0.42031 -0.144693,-0.23426 -0.227376,-0.58566 -0.07579,-0.3514 -0.08957,-0.80615 l 2.673392,-1.98438 q 0,0.19982 0,0.31006 0,0.10335 0,0.33073 z"
         style="font-family:'Roboto Mono';-inkscape-font-specification:'Roboto Mono Bold';fill:#000000;stroke:none"
         id="path27612" /><path
         d="m 29.488926,139.27788 v -2.39778 q 0,-0.97152 -0.227377,-1.70877 -0.227376,-0.74414 -0.647677,-1.24712 -0.427192,-0.49609 -1.033528,-0.75103 -0.606336,-0.25494 -1.364257,-0.25494 -0.75103,0 -1.357366,0.25494 -0.599446,0.25494 -1.019748,0.75103 -0.427191,0.50298 -0.654567,1.24712 -0.227376,0.73725 -0.227376,1.70877 v 2.39778 q 0,0.97152 0.227376,1.71566 0.234266,0.73725 0.661457,1.23334 0.420302,0.50299 1.026638,0.75792 0.606336,0.25494 1.357367,0.25494 0.75792,0 1.364256,-0.25494 0.606337,-0.25493 1.026638,-0.75792 0.420301,-0.49609 0.640787,-1.23334 0.227377,-0.74414 0.227377,-1.71566 z m -4.602645,-0.82682 q 0,-0.21359 0,-0.32384 0,-0.11024 0,-0.44097 v -1.10932 q 0,-0.5581 0.08268,-0.96462 0.08957,-0.40653 0.268717,-0.66146 0.165364,-0.24116 0.406521,-0.35829 0.248047,-0.12403 0.571885,-0.12403 0.289388,0 0.516764,0.0965 0.234267,0.0896 0.392741,0.28249 0.206705,0.24116 0.310058,0.64768 0.110243,0.39963 0.124024,0.96463 z m 2.673393,1.11621 q 0,0.55811 -0.08957,0.97152 -0.08268,0.40652 -0.254937,0.66835 -0.165364,0.24804 -0.413411,0.37207 -0.248047,0.11713 -0.571885,0.11713 -0.3514,0 -0.606337,-0.1378 -0.254937,-0.13781 -0.420301,-0.42031 -0.144694,-0.23426 -0.227376,-0.58566 -0.07579,-0.3514 -0.08957,-0.80615 l 2.673393,-1.98438 q 0,0.19982 0,0.31006 0,0.10335 0,0.33073 z"
         style="font-family:'Roboto Mono';-inkscape-font-specification:'Roboto Mono Bold';fill:#000000;stroke:none"
         id="path27614" /></g><g
       aria-label="16"
       id="text1662-39-1"
       style="font-weight:bold;font-size:14.1111px;font-family:'Avenir Next';-inkscape-font-specification:'Avenir Next Bold';text-align:center;text-anchor:middle;fill:#ffffff;stroke:#000000;stroke-width:0.972"><path
         d="M 12.101424,55.64669 V 45.61458 h -0.103353 l -4.3683777,1.577853 v 1.667425 l 2.5355887,-0.909505 v 7.696337 z"
         style="font-family:'Roboto Mono';-inkscape-font-specification:'Roboto Mono Bold';fill:#000000;stroke:none"
         id="path27605" /><path
         d="m 20.962203,45.531898 h -0.254937 q -1.247124,0 -2.197969,0.420301 -0.950846,0.413411 -1.591633,1.150661 -0.640787,0.74414 -0.964626,1.763888 -0.323839,1.012857 -0.323839,2.204859 v 0.73725 q 0,0.861273 0.241157,1.591633 0.248046,0.723469 0.702799,1.254014 0.447862,0.530544 1.095539,0.833712 0.647678,0.296278 1.453829,0.296278 0.771701,0 1.391818,-0.261827 0.620117,-0.268717 1.054198,-0.73036 0.434082,-0.461642 0.668348,-1.088649 0.234267,-0.627007 0.234267,-1.357367 0,-0.682128 -0.179145,-1.295354 -0.172255,-0.620117 -0.530545,-1.08865 -0.358289,-0.461642 -0.895724,-0.730359 -0.530544,-0.275608 -1.247123,-0.275608 -0.3514,0 -0.654568,0.08268 -0.303168,0.08268 -0.558105,0.213596 -0.261827,0.137804 -0.468533,0.310058 -0.206705,0.165365 -0.365179,0.33762 0.06201,-0.627007 0.296278,-1.136881 0.241156,-0.509874 0.654567,-0.875054 0.406521,-0.36518 0.985297,-0.564995 0.585665,-0.199815 1.343586,-0.199815 h 0.110243 z m -1.901691,4.960934 q 0.358289,0 0.633897,0.144693 0.282497,0.137804 0.475423,0.385851 0.192925,0.254937 0.296278,0.599446 0.103352,0.344509 0.103352,0.75103 0,0.406521 -0.103352,0.75103 -0.103353,0.33762 -0.296278,0.585666 -0.192926,0.248047 -0.468533,0.392741 -0.275608,0.137803 -0.613227,0.137803 -0.330729,0 -0.613226,-0.137803 -0.282498,-0.137804 -0.489203,-0.413411 -0.206706,-0.268718 -0.323839,-0.682129 -0.110243,-0.413411 -0.110243,-0.964626 v -0.564995 q 0.09646,-0.206706 0.234266,-0.37896 0.144694,-0.172255 0.316949,-0.303168 0.199815,-0.144694 0.440972,-0.220486 0.241156,-0.08268 0.516764,-0.08268 z"
         style="font-family:'Roboto Mono';-inkscape-font-specification:'Roboto Mono Bold';fill:#000000;stroke:none"
         id="path27607" /></g><g
       aria-label="40 bytes"
       id="text1662-39-2"
       style="font-weight:bold;font-size:14.1111px;font-family:'Avenir Next';-inkscape-font-specification:'Avenir Next Bold';text-align:center;text-anchor:middle;fill:#ffffff;stroke:#000000;stroke-width:0.972"><path
         d="m -110.90149,26.662707 v -6.30452 h -1.94303 l -4.21679,6.655919 0.0758,1.198892 h 4.16856 v 2.177299 h 1.91547 v -2.177299 h 1.16445 v -1.550291 z m -4.2788,0 2.1773,-3.396862 0.18603,-0.330729 v 3.727591 z"
         style="font-family:'Roboto Mono';-inkscape-font-specification:'Roboto Mono Bold';fill:#000000;stroke:none"
         id="path27590" /><path
         d="m -101.49638,26.573134 v -2.397785 q 0,-0.971516 -0.22738,-1.708766 -0.22737,-0.74414 -0.64768,-1.247123 -0.42719,-0.496094 -1.03352,-0.75103 -0.60634,-0.254937 -1.36426,-0.254937 -0.75103,0 -1.35737,0.254937 -0.59944,0.254936 -1.01974,0.75103 -0.4272,0.502983 -0.65457,1.247123 -0.22738,0.73725 -0.22738,1.708766 v 2.397785 q 0,0.971516 0.22738,1.715656 0.23426,0.73725 0.66146,1.233344 0.4203,0.502983 1.02663,0.75792 0.60634,0.254937 1.35737,0.254937 0.75792,0 1.36426,-0.254937 0.60633,-0.254937 1.02663,-0.75792 0.42031,-0.496094 0.64079,-1.233344 0.22738,-0.74414 0.22738,-1.715656 z m -4.60265,-0.826822 q 0,-0.213596 0,-0.323839 0,-0.110243 0,-0.440972 v -1.10932 q 0,-0.558105 0.0827,-0.964626 0.0896,-0.406521 0.26871,-0.661457 0.16537,-0.241157 0.40652,-0.35829 0.24805,-0.124023 0.57189,-0.124023 0.28939,0 0.51676,0.09646 0.23427,0.08957 0.39274,0.282498 0.20671,0.241156 0.31006,0.647677 0.11025,0.399631 0.12403,0.964626 z m 2.6734,1.11621 q 0,0.558105 -0.0896,0.971516 -0.0827,0.406521 -0.25493,0.668348 -0.16537,0.248047 -0.41341,0.37207 -0.24805,0.117133 -0.57189,0.117133 -0.3514,0 -0.60634,-0.137803 -0.25493,-0.137804 -0.4203,-0.420302 -0.14469,-0.234266 -0.22737,-0.585666 -0.0758,-0.351399 -0.0896,-0.806151 l 2.6734,-1.984374 q 0,0.199816 0,0.310059 0,0.103352 0,0.330729 z"
         style="font-family:'Roboto Mono';-inkscape-font-specification:'Roboto Mono Bold';fill:#000000;stroke:none"
         id="path27592" /><path
         d="m -84.37427,26.738499 v -0.144694 q 0,-0.675239 -0.124023,-1.267795 -0.117134,-0.592555 -0.36518,-1.067978 -0.158474,-0.296278 -0.36518,-0.544325 -0.206706,-0.254937 -0.461642,-0.434082 -0.316949,-0.234266 -0.72347,-0.358289 -0.399631,-0.124024 -0.881944,-0.124024 -0.351399,0 -0.654567,0.07579 -0.296278,0.0689 -0.551215,0.213596 -0.179145,0.09646 -0.337619,0.234266 -0.158475,0.130914 -0.296278,0.289388 v -3.803382 h -1.915472 v 10.583325 h 1.722547 l 0.08957,-0.792371 q 0.117133,0.151584 0.248047,0.282497 0.130913,0.124024 0.282497,0.227376 0.282498,0.206706 0.633897,0.310059 0.35829,0.110243 0.792372,0.110243 0.475422,0 0.868163,-0.124024 0.399631,-0.117133 0.716579,-0.344509 0.3514,-0.241156 0.606337,-0.606336 0.261827,-0.36518 0.420301,-0.813042 0.144694,-0.406521 0.220486,-0.881944 0.07579,-0.482313 0.07579,-1.019747 z m -1.915472,-0.144694 v 0.144694 q 0,0.289387 -0.02756,0.558105 -0.02067,0.268717 -0.07579,0.496093 -0.0689,0.310058 -0.206706,0.558105 -0.130913,0.241156 -0.344509,0.392741 -0.151584,0.110243 -0.35829,0.172254 -0.206705,0.06201 -0.461642,0.06201 -0.296278,0 -0.530545,-0.0689 -0.227376,-0.0689 -0.39963,-0.199815 -0.144694,-0.103353 -0.254937,-0.241157 -0.103353,-0.144694 -0.186035,-0.316948 v -2.96967 q 0.06201,-0.130914 0.137803,-0.241157 0.07579,-0.117133 0.165365,-0.206705 0.186035,-0.186035 0.447862,-0.282498 0.261827,-0.09646 0.606336,-0.09646 0.254937,0 0.454753,0.06201 0.199815,0.05512 0.358289,0.172255 0.241157,0.186035 0.35829,0.413411 0.124023,0.220486 0.199815,0.502983 0.06201,0.241157 0.08957,0.516764 0.02756,0.275608 0.02756,0.571886 z"
         style="font-family:'Roboto Mono';-inkscape-font-specification:'Roboto Mono Bold';fill:#000000;stroke:none"
         id="path27594" /><path
         d="m -81.445941,33.401308 q 0.578776,0 0.999077,-0.192925 0.427192,-0.192925 0.72347,-0.475423 0.296278,-0.282498 0.489203,-0.613226 0.199815,-0.330729 0.323839,-0.613227 l 3.782712,-8.571391 h -2.115287 l -1.701876,4.382158 -0.282498,0.74414 -0.206705,-0.75792 -1.708767,-4.368378 h -2.094616 l 3.155705,7.138232 -0.440972,0.819932 q -0.08268,0.151585 -0.144694,0.234267 -0.05512,0.08268 -0.179145,0.248046 -0.124023,0.165365 -0.303168,0.303169 -0.172254,0.144694 -0.39963,0.144694 -0.110243,0 -0.296278,-0.01378 -0.179145,-0.0069 -0.296278,-0.0069 l -0.234267,1.460719 q 0.248047,0.0689 0.447862,0.103353 0.206706,0.03445 0.482313,0.03445 z"
         style="font-family:'Roboto Mono';-inkscape-font-specification:'Roboto Mono Bold';fill:#000000;stroke:none"
         id="path27596" /><path
         d="m -70.642127,21.109217 h -1.915472 v 1.825899 h -1.701876 v 1.412488 h 1.701876 v 3.389971 q 0,0.73725 0.192925,1.267795 0.192925,0.523654 0.551215,0.861273 0.3514,0.344509 0.847493,0.509874 0.502984,0.158474 1.11621,0.158474 0.316949,0 0.640787,-0.03445 0.330729,-0.02756 0.633897,-0.08268 0.303169,-0.05512 0.571886,-0.137804 0.268717,-0.08957 0.468532,-0.206706 l -0.186035,-1.316025 q -0.130913,0.03445 -0.316948,0.0689 -0.179145,0.03445 -0.385851,0.06201 -0.213595,0.03445 -0.447862,0.05512 -0.227376,0.02067 -0.447862,0.02067 -0.303168,0 -0.551215,-0.0689 -0.241156,-0.0689 -0.413411,-0.234267 -0.172254,-0.158474 -0.268717,-0.427191 -0.08957,-0.275608 -0.08957,-0.682129 v -3.203936 h 2.783635 v -1.412488 h -2.783635 z"
         style="font-family:'Roboto Mono';-inkscape-font-specification:'Roboto Mono Bold';fill:#000000;stroke:none"
         id="path27598" /><path
         d="m -62.070738,30.528101 q 1.081759,0 1.874131,-0.420302 0.792371,-0.420301 1.157551,-0.937065 l -0.957736,-1.033528 q -0.330729,0.427192 -0.861273,0.640787 -0.530544,0.213596 -1.09554,0.213596 -0.39963,0 -0.73725,-0.124023 -0.337619,-0.124023 -0.599446,-0.3514 -0.254937,-0.220485 -0.406521,-0.489203 -0.151584,-0.275607 -0.248046,-0.723469 v -0.02067 h 5.057396 v -0.813042 q 0,-0.819932 -0.227376,-1.49517 -0.227376,-0.682128 -0.661458,-1.164441 -0.440972,-0.482313 -1.074869,-0.74414 -0.627007,-0.268718 -1.433159,-0.268718 -0.778591,0 -1.440048,0.282498 -0.661458,0.282498 -1.143771,0.792371 -0.482313,0.509874 -0.75103,1.219563 -0.268718,0.702799 -0.268718,1.557182 v 0.275608 q 0,0.75103 0.268718,1.412488 0.275607,0.654567 0.778591,1.13688 0.502983,0.489203 1.205782,0.771701 0.702799,0.282498 1.564072,0.282498 z m -0.227376,-6.180497 q 0.36518,0 0.640787,0.117133 0.282498,0.110243 0.475423,0.303168 0.192925,0.199816 0.303168,0.468533 0.110243,0.268717 0.110243,0.571885 v 0.151585 h -3.141924 q 0.0689,-0.36518 0.206705,-0.661458 0.137804,-0.296278 0.344509,-0.509874 0.199816,-0.213596 0.468533,-0.323839 0.268717,-0.117133 0.592556,-0.117133 z"
         style="font-family:'Roboto Mono';-inkscape-font-specification:'Roboto Mono Bold';fill:#000000;stroke:none"
         id="path27600" /><path
         d="m -52.410699,28.343912 q 0,0.172254 -0.08957,0.316948 -0.08268,0.144694 -0.254936,0.254937 -0.179145,0.110243 -0.461643,0.179145 -0.275607,0.06201 -0.647677,0.06201 -0.310059,0 -0.606337,-0.06201 -0.289387,-0.06201 -0.516764,-0.199815 -0.227376,-0.130914 -0.37207,-0.34451 -0.144693,-0.220486 -0.165364,-0.523654 h -1.825899 q 0,0.454753 0.220486,0.909505 0.227376,0.447862 0.661458,0.799261 0.434081,0.35829 1.074869,0.578776 0.647677,0.220486 1.48828,0.220486 0.76481,0 1.384927,-0.165365 0.620117,-0.172254 1.061089,-0.475422 0.434081,-0.303169 0.668348,-0.71658 0.241156,-0.420301 0.241156,-0.916394 0,-0.537435 -0.241156,-0.923285 -0.234267,-0.392741 -0.654568,-0.668348 -0.420301,-0.268718 -0.999077,-0.440972 -0.578776,-0.172255 -1.254014,-0.282498 -0.468532,-0.0689 -0.771701,-0.158474 -0.303168,-0.09646 -0.475422,-0.213596 -0.179145,-0.110243 -0.248047,-0.248047 -0.0689,-0.144693 -0.0689,-0.310058 0,-0.165364 0.07579,-0.310058 0.08268,-0.151584 0.234266,-0.261827 0.165365,-0.124024 0.427192,-0.192925 0.261827,-0.0689 0.613226,-0.0689 0.413412,0 0.702799,0.103352 0.296278,0.103353 0.468533,0.275608 0.124023,0.130913 0.186035,0.296278 0.06201,0.158474 0.06201,0.344509 h 1.915471 q 0,-0.516764 -0.227376,-0.957736 -0.227376,-0.440972 -0.654567,-0.76481 -0.434082,-0.316949 -1.054199,-0.496094 -0.620117,-0.186035 -1.398708,-0.186035 -0.74414,0 -1.336696,0.186035 -0.592556,0.186035 -1.005967,0.502984 -0.413411,0.316948 -0.633897,0.73725 -0.220486,0.420301 -0.220486,0.881944 0,0.475422 0.213596,0.840602 0.220486,0.36518 0.606336,0.640787 0.385851,0.282498 0.923285,0.482313 0.544325,0.192926 1.198893,0.323839 0.516763,0.09646 0.854383,0.192925 0.337619,0.09646 0.544324,0.206706 0.199816,0.117133 0.275608,0.248047 0.08268,0.130913 0.08268,0.303168 z"
         style="font-family:'Roboto Mono';-inkscape-font-specification:'Roboto Mono Bold';fill:#000000;stroke:none"
         id="path27602" /></g><g
       aria-label="(320 x 200)"
       id="text1662-39-2-39"
       style="font-weight:bold;font-size:14.1111px;font-family:'Avenir Next';-inkscape-font-specification:'Avenir Next Bold';text-align:center;text-anchor:middle;fill:#ffffff;stroke:#000000;stroke-width:0.972"><path
         d="m 303.71993,267.41634 v 0.15158 q 0,0.97841 0.14469,1.83279 0.15158,0.85439 0.40652,1.57786 0.25494,0.73036 0.59256,1.3298 0.34451,0.59945 0.72347,1.0542 0.37896,0.46164 0.77859,0.78548 0.40652,0.32384 0.78548,0.4961 l 0.37207,-1.03353 q -0.26872,-0.20671 -0.54433,-0.51677 -0.2756,-0.31005 -0.52365,-0.73036 -0.23427,-0.38585 -0.44097,-0.90261 -0.19982,-0.51676 -0.3514,-1.1231 -0.11024,-0.43408 -0.20671,-1.16444 -0.0896,-0.73036 -0.0896,-1.59163 v -0.17915 q 0,-0.87505 0.0965,-1.61919 0.0965,-0.74414 0.25494,-1.35737 0.17915,-0.6339 0.41341,-1.17133 0.24116,-0.53744 0.51677,-0.93018 0.21359,-0.30316 0.43408,-0.53743 0.22048,-0.23427 0.44097,-0.39963 l -0.37207,-1.04731 q -0.37896,0.17225 -0.78548,0.49609 -0.39963,0.31695 -0.77859,0.77859 -0.37896,0.46165 -0.72347,1.06109 -0.33762,0.59945 -0.59256,1.32292 -0.25494,0.73036 -0.40652,1.59163 -0.14469,0.85438 -0.14469,1.8259 z"
         style="font-family:'Roboto Mono';-inkscape-font-specification:'Roboto Mono Bold';fill:#000000;stroke:none"
         id="path27571" /><path
         d="m 312.71162,265.63867 v 1.48828 h 1.04042 q 0.39274,0 0.7028,0.0896 0.31695,0.0896 0.54432,0.2756 0.22049,0.18604 0.33762,0.47543 0.11713,0.28938 0.11713,0.6959 0,0.32384 -0.10335,0.58567 -0.0965,0.26183 -0.28939,0.44097 -0.19981,0.19982 -0.49609,0.30317 -0.29628,0.10335 -0.66835,0.10335 -0.33073,0 -0.60633,-0.0965 -0.27561,-0.10335 -0.47543,-0.2825 -0.2067,-0.17225 -0.31695,-0.41341 -0.11024,-0.24804 -0.11024,-0.53743 h -1.91547 q 0,0.73036 0.2825,1.26779 0.28938,0.53744 0.76481,0.88884 0.47542,0.35829 1.08176,0.53743 0.61322,0.17225 1.25401,0.17225 0.74414,0 1.38493,-0.19292 0.64768,-0.19982 1.11621,-0.57878 0.46853,-0.37207 0.73725,-0.92328 0.26871,-0.55122 0.26871,-1.25401 0,-0.39964 -0.0965,-0.75793 -0.0965,-0.35829 -0.29628,-0.66145 -0.19981,-0.29628 -0.50987,-0.53055 -0.30317,-0.23426 -0.72347,-0.38585 0.35829,-0.17225 0.6339,-0.40652 0.27561,-0.24116 0.46164,-0.52365 0.18604,-0.2825 0.2825,-0.59256 0.0965,-0.31695 0.0965,-0.64079 0,-0.7028 -0.24805,-1.23334 -0.24115,-0.53743 -0.68212,-0.90261 -0.44098,-0.35829 -1.06109,-0.53744 -0.62012,-0.18603 -1.36426,-0.18603 -0.68902,0 -1.28846,0.19981 -0.59256,0.19982 -1.03353,0.55811 -0.44097,0.36518 -0.69591,0.86816 -0.24805,0.50298 -0.24805,1.11621 h 1.91547 q 0,-0.27561 0.11025,-0.49609 0.11024,-0.22049 0.30317,-0.37896 0.18603,-0.15159 0.43408,-0.23427 0.25493,-0.0827 0.54432,-0.0827 0.3514,0 0.61323,0.0965 0.26872,0.0965 0.44097,0.26872 0.17225,0.17914 0.25494,0.42719 0.0896,0.24116 0.0896,0.53743 0,0.30317 -0.0896,0.565 -0.0827,0.25494 -0.25494,0.43408 -0.18604,0.20671 -0.4892,0.32384 -0.29628,0.11024 -0.70969,0.11024 z"
         style="font-family:'Roboto Mono';-inkscape-font-specification:'Roboto Mono Bold';fill:#000000;stroke:none"
         id="path27573" /><path
         d="m 325.80986,271.49533 v -1.53651 h -4.40283 l 1.88792,-1.99815 q 0.4892,-0.50299 0.88883,-0.95774 0.39963,-0.46164 0.68902,-0.90261 0.2825,-0.44098 0.43408,-0.88884 0.15847,-0.45475 0.15847,-0.95084 0,-0.65457 -0.2067,-1.19201 -0.20671,-0.54432 -0.59945,-0.93017 -0.39963,-0.38585 -0.99218,-0.59945 -0.58567,-0.21359 -1.35048,-0.21359 -0.79926,0 -1.46072,0.26182 -0.65457,0.25494 -1.11621,0.7028 -0.46853,0.44786 -0.72347,1.04731 -0.25494,0.59256 -0.25494,1.2609 h 1.92236 q 0,-0.40652 0.10336,-0.72346 0.10335,-0.31695 0.30317,-0.53055 0.19292,-0.2067 0.48231,-0.31006 0.29628,-0.11024 0.68213,-0.11024 0.29628,0 0.53743,0.0965 0.24805,0.0965 0.42719,0.27561 0.17226,0.18603 0.26872,0.44786 0.0965,0.26183 0.0965,0.59945 0,0.22737 -0.0758,0.46853 -0.0689,0.24116 -0.22738,0.51676 -0.16536,0.2825 -0.42719,0.62012 -0.26182,0.33762 -0.64078,0.75103 l -3.24528,3.48644 v 1.30913 z"
         style="font-family:'Roboto Mono';-inkscape-font-specification:'Roboto Mono Bold';fill:#000000;stroke:none"
         id="path27575" /><path
         d="m 334.25034,267.67817 v -2.39779 q 0,-0.97151 -0.22738,-1.70876 -0.22737,-0.74414 -0.64767,-1.24713 -0.42719,-0.49609 -1.03353,-0.75103 -0.60634,-0.25493 -1.36426,-0.25493 -0.75103,0 -1.35736,0.25493 -0.59945,0.25494 -1.01975,0.75103 -0.42719,0.50299 -0.65457,1.24713 -0.22738,0.73725 -0.22738,1.70876 v 2.39779 q 0,0.97151 0.22738,1.71565 0.23427,0.73725 0.66146,1.23335 0.4203,0.50298 1.02664,0.75792 0.60633,0.25493 1.35736,0.25493 0.75792,0 1.36426,-0.25493 0.60634,-0.25494 1.02664,-0.75792 0.4203,-0.4961 0.64078,-1.23335 0.22738,-0.74414 0.22738,-1.71565 z m -4.60264,-0.82682 q 0,-0.2136 0,-0.32384 0,-0.11025 0,-0.44097 v -1.10932 q 0,-0.55811 0.0827,-0.96463 0.0896,-0.40652 0.26872,-0.66146 0.16536,-0.24116 0.40652,-0.35829 0.24804,-0.12402 0.57188,-0.12402 0.28939,0 0.51677,0.0965 0.23426,0.0896 0.39274,0.2825 0.2067,0.24116 0.31006,0.64768 0.11024,0.39963 0.12402,0.96462 z m 2.67339,1.11621 q 0,0.5581 -0.0896,0.97151 -0.0827,0.40652 -0.25494,0.66835 -0.16537,0.24805 -0.41341,0.37207 -0.24805,0.11713 -0.57189,0.11713 -0.3514,0 -0.60633,-0.1378 -0.25494,-0.1378 -0.4203,-0.4203 -0.1447,-0.23427 -0.22738,-0.58567 -0.0758,-0.3514 -0.0896,-0.80615 l 2.67339,-1.98437 q 0,0.19981 0,0.31006 0,0.10335 0,0.33072 z"
         style="font-family:'Roboto Mono';-inkscape-font-specification:'Roboto Mono Bold';fill:#000000;stroke:none"
         id="path27577" /><path
         d="m 348.06517,266.36903 -1.61231,-2.32888 h -2.06016 l 2.49424,3.65869 -2.59071,3.79649 h 2.07395 l 1.70188,-2.43912 1.71565,2.43912 h 2.06706 l -2.59071,-3.79649 2.50114,-3.65869 h -2.06017 z"
         style="font-family:'Roboto Mono';-inkscape-font-specification:'Roboto Mono Bold';fill:#000000;stroke:none"
         id="path27579" /><path
         d="m 368.15005,271.49533 v -1.53651 h -4.40282 l 1.88791,-1.99815 q 0.4892,-0.50299 0.88883,-0.95774 0.39963,-0.46164 0.68902,-0.90261 0.2825,-0.44098 0.43408,-0.88884 0.15847,-0.45475 0.15847,-0.95084 0,-0.65457 -0.2067,-1.19201 -0.20671,-0.54432 -0.59945,-0.93017 -0.39963,-0.38585 -0.99218,-0.59945 -0.58567,-0.21359 -1.35048,-0.21359 -0.79926,0 -1.46072,0.26182 -0.65457,0.25494 -1.11621,0.7028 -0.46853,0.44786 -0.72347,1.04731 -0.25494,0.59256 -0.25494,1.2609 h 1.92237 q 0,-0.40652 0.10335,-0.72346 0.10335,-0.31695 0.30317,-0.53055 0.19292,-0.2067 0.48231,-0.31006 0.29628,-0.11024 0.68213,-0.11024 0.29628,0 0.53743,0.0965 0.24805,0.0965 0.42719,0.27561 0.17226,0.18603 0.26872,0.44786 0.0965,0.26183 0.0965,0.59945 0,0.22737 -0.0758,0.46853 -0.0689,0.24116 -0.22737,0.51676 -0.16537,0.2825 -0.4272,0.62012 -0.26182,0.33762 -0.64078,0.75103 l -3.24528,3.48644 v 1.30913 z"
         style="font-family:'Roboto Mono';-inkscape-font-specification:'Roboto Mono Bold';fill:#000000;stroke:none"
         id="path27581" /><path
         d="m 376.59053,267.67817 v -2.39779 q 0,-0.97151 -0.22737,-1.70876 -0.22738,-0.74414 -0.64768,-1.24713 -0.42719,-0.49609 -1.03353,-0.75103 -0.60633,-0.25493 -1.36425,-0.25493 -0.75103,0 -1.35737,0.25493 -0.59945,0.25494 -1.01975,0.75103 -0.42719,0.50299 -0.65457,1.24713 -0.22737,0.73725 -0.22737,1.70876 v 2.39779 q 0,0.97151 0.22737,1.71565 0.23427,0.73725 0.66146,1.23335 0.4203,0.50298 1.02664,0.75792 0.60634,0.25493 1.35737,0.25493 0.75792,0 1.36425,-0.25493 0.60634,-0.25494 1.02664,-0.75792 0.4203,-0.4961 0.64079,-1.23335 0.22737,-0.74414 0.22737,-1.71565 z m -4.60264,-0.82682 q 0,-0.2136 0,-0.32384 0,-0.11025 0,-0.44097 v -1.10932 q 0,-0.55811 0.0827,-0.96463 0.0896,-0.40652 0.26872,-0.66146 0.16536,-0.24116 0.40652,-0.35829 0.24805,-0.12402 0.57189,-0.12402 0.28938,0 0.51676,0.0965 0.23427,0.0896 0.39274,0.2825 0.20671,0.24116 0.31006,0.64768 0.11024,0.39963 0.12402,0.96462 z m 2.67339,1.11621 q 0,0.5581 -0.0896,0.97151 -0.0827,0.40652 -0.25494,0.66835 -0.16536,0.24805 -0.41341,0.37207 -0.24805,0.11713 -0.57188,0.11713 -0.3514,0 -0.60634,-0.1378 -0.25494,-0.1378 -0.4203,-0.4203 -0.1447,-0.23427 -0.22738,-0.58567 -0.0758,-0.3514 -0.0896,-0.80615 l 2.67339,-1.98437 q 0,0.19981 0,0.31006 0,0.10335 0,0.33072 z"
         style="font-family:'Roboto Mono';-inkscape-font-specification:'Roboto Mono Bold';fill:#000000;stroke:none"
         id="path27583" /><path
         d="m 385.05857,267.67817 v -2.39779 q 0,-0.97151 -0.22737,-1.70876 -0.22738,-0.74414 -0.64768,-1.24713 -0.42719,-0.49609 -1.03353,-0.75103 -0.60633,-0.25493 -1.36425,-0.25493 -0.75103,0 -1.35737,0.25493 -0.59945,0.25494 -1.01975,0.75103 -0.42719,0.50299 -0.65457,1.24713 -0.22737,0.73725 -0.22737,1.70876 v 2.39779 q 0,0.97151 0.22737,1.71565 0.23427,0.73725 0.66146,1.23335 0.4203,0.50298 1.02664,0.75792 0.60634,0.25493 1.35737,0.25493 0.75792,0 1.36425,-0.25493 0.60634,-0.25494 1.02664,-0.75792 0.4203,-0.4961 0.64079,-1.23335 0.22737,-0.74414 0.22737,-1.71565 z m -4.60264,-0.82682 q 0,-0.2136 0,-0.32384 0,-0.11025 0,-0.44097 v -1.10932 q 0,-0.55811 0.0827,-0.96463 0.0896,-0.40652 0.26872,-0.66146 0.16536,-0.24116 0.40652,-0.35829 0.24805,-0.12402 0.57189,-0.12402 0.28938,0 0.51676,0.0965 0.23427,0.0896 0.39274,0.2825 0.20671,0.24116 0.31006,0.64768 0.11024,0.39963 0.12402,0.96462 z m 2.67339,1.11621 q 0,0.5581 -0.0896,0.97151 -0.0827,0.40652 -0.25494,0.66835 -0.16536,0.24805 -0.41341,0.37207 -0.24805,0.11713 -0.57188,0.11713 -0.3514,0 -0.60634,-0.1378 -0.25494,-0.1378 -0.4203,-0.4203 -0.1447,-0.23427 -0.22738,-0.58567 -0.0758,-0.3514 -0.0896,-0.80615 l 2.67339,-1.98437 q 0,0.19981 0,0.31006 0,0.10335 0,0.33072 z"
         style="font-family:'Roboto Mono';-inkscape-font-specification:'Roboto Mono Bold';fill:#000000;stroke:none"
         id="path27585" /><path
         d="m 392.09346,267.56792 v -0.15158 q 0,-0.94395 -0.15159,-1.78456 -0.15158,-0.84749 -0.41341,-1.57785 -0.26183,-0.73036 -0.61323,-1.32981 -0.34451,-0.60633 -0.73725,-1.08175 -0.39274,-0.46854 -0.80615,-0.79927 -0.41341,-0.33073 -0.80615,-0.50298 l -0.36518,1.02664 q 0.20671,0.15847 0.41341,0.38585 0.2136,0.22048 0.41341,0.50298 0.29628,0.42719 0.55811,1.01286 0.26872,0.58566 0.45475,1.32291 0.14469,0.59256 0.22738,1.29536 0.0896,0.7028 0.0896,1.51584 v 0.17915 q 0,0.83371 -0.0896,1.55029 -0.0827,0.71658 -0.22738,1.30913 -0.17225,0.64768 -0.39963,1.17133 -0.22049,0.52366 -0.4892,0.93707 -0.22738,0.3514 -0.46854,0.61323 -0.24115,0.26871 -0.48231,0.44786 l 0.36518,1.03353 q 0.39274,-0.17226 0.80615,-0.50299 0.41341,-0.33073 0.80615,-0.80615 0.39274,-0.46853 0.73725,-1.07487 0.3514,-0.59944 0.61323,-1.3298 0.26183,-0.73036 0.41341,-1.57097 0.15159,-0.84749 0.15159,-1.79145 z"
         style="font-family:'Roboto Mono';-inkscape-font-specification:'Roboto Mono Bold';fill:#000000;stroke:none"
         id="path27587" /></g><g
       aria-label="0x0000"
       id="text1662-39-2-3"
       style="font-weight:bold;font-size:14.1111px;font-family:'Avenir Next';-inkscape-font-specification:'Avenir Next Bold';text-align:center;text-anchor:middle;fill:#ffffff;stroke:#000000;stroke-width:0.972"><path
         d="m -257.97848,234.69457 v -2.39778 q 0,-0.97152 -0.22737,-1.70877 -0.22738,-0.74414 -0.64768,-1.24712 -0.42719,-0.4961 -1.03353,-0.75103 -0.60633,-0.25494 -1.36425,-0.25494 -0.75103,0 -1.35737,0.25494 -0.59945,0.25493 -1.01975,0.75103 -0.42719,0.50298 -0.65457,1.24712 -0.22737,0.73725 -0.22737,1.70877 v 2.39778 q 0,0.97152 0.22737,1.71566 0.23427,0.73725 0.66146,1.23334 0.4203,0.50298 1.02664,0.75792 0.60634,0.25494 1.35737,0.25494 0.75792,0 1.36425,-0.25494 0.60634,-0.25494 1.02664,-0.75792 0.4203,-0.49609 0.64079,-1.23334 0.22737,-0.74414 0.22737,-1.71566 z m -4.60264,-0.82682 q 0,-0.2136 0,-0.32384 0,-0.11024 0,-0.44097 v -1.10932 q 0,-0.55811 0.0827,-0.96463 0.0896,-0.40652 0.26872,-0.66146 0.16536,-0.24115 0.40652,-0.35829 0.24805,-0.12402 0.57189,-0.12402 0.28938,0 0.51676,0.0965 0.23427,0.0896 0.39274,0.2825 0.20671,0.24116 0.31006,0.64768 0.11024,0.39963 0.12402,0.96463 z m 2.67339,1.11621 q 0,0.5581 -0.0896,0.97152 -0.0827,0.40652 -0.25494,0.66834 -0.16536,0.24805 -0.41341,0.37207 -0.24805,0.11714 -0.57188,0.11714 -0.3514,0 -0.60634,-0.13781 -0.25494,-0.1378 -0.4203,-0.4203 -0.1447,-0.23427 -0.22738,-0.58566 -0.0758,-0.3514 -0.0896,-0.80616 l 2.67339,-1.98437 q 0,0.19982 0,0.31006 0,0.10335 0,0.33073 z"
         style="font-family:'Roboto Mono';-inkscape-font-specification:'Roboto Mono Bold';fill:#000000;stroke:none"
         id="path27558" /><path
         d="m -252.63169,233.38544 -1.61231,-2.32889 h -2.06016 l 2.49425,3.65869 -2.59071,3.79649 h 2.07394 l 1.70188,-2.43912 1.71565,2.43912 h 2.06706 l -2.59071,-3.79649 2.50114,-3.65869 h -2.06017 z"
         style="font-family:'Roboto Mono';-inkscape-font-specification:'Roboto Mono Bold';fill:#000000;stroke:none"
         id="path27560" /><path
         d="m -241.0424,234.69457 v -2.39778 q 0,-0.97152 -0.22738,-1.70877 -0.22737,-0.74414 -0.64767,-1.24712 -0.42719,-0.4961 -1.03353,-0.75103 -0.60634,-0.25494 -1.36426,-0.25494 -0.75103,0 -1.35736,0.25494 -0.59945,0.25493 -1.01975,0.75103 -0.42719,0.50298 -0.65457,1.24712 -0.22738,0.73725 -0.22738,1.70877 v 2.39778 q 0,0.97152 0.22738,1.71566 0.23427,0.73725 0.66146,1.23334 0.4203,0.50298 1.02664,0.75792 0.60633,0.25494 1.35736,0.25494 0.75792,0 1.36426,-0.25494 0.60634,-0.25494 1.02664,-0.75792 0.4203,-0.49609 0.64078,-1.23334 0.22738,-0.74414 0.22738,-1.71566 z m -4.60264,-0.82682 q 0,-0.2136 0,-0.32384 0,-0.11024 0,-0.44097 v -1.10932 q 0,-0.55811 0.0827,-0.96463 0.0896,-0.40652 0.26872,-0.66146 0.16536,-0.24115 0.40652,-0.35829 0.24804,-0.12402 0.57188,-0.12402 0.28939,0 0.51677,0.0965 0.23426,0.0896 0.39274,0.2825 0.2067,0.24116 0.31006,0.64768 0.11024,0.39963 0.12402,0.96463 z m 2.67339,1.11621 q 0,0.5581 -0.0896,0.97152 -0.0827,0.40652 -0.25494,0.66834 -0.16536,0.24805 -0.41341,0.37207 -0.24805,0.11714 -0.57189,0.11714 -0.3514,0 -0.60633,-0.13781 -0.25494,-0.1378 -0.4203,-0.4203 -0.1447,-0.23427 -0.22738,-0.58566 -0.0758,-0.3514 -0.0896,-0.80616 l 2.67339,-1.98437 q 0,0.19982 0,0.31006 0,0.10335 0,0.33073 z"
         style="font-family:'Roboto Mono';-inkscape-font-specification:'Roboto Mono Bold';fill:#000000;stroke:none"
         id="path27562" /><path
         d="m -232.57436,234.69457 v -2.39778 q 0,-0.97152 -0.22738,-1.70877 -0.22737,-0.74414 -0.64767,-1.24712 -0.4272,-0.4961 -1.03353,-0.75103 -0.60634,-0.25494 -1.36426,-0.25494 -0.75103,0 -1.35737,0.25494 -0.59944,0.25493 -1.01974,0.75103 -0.42719,0.50298 -0.65457,1.24712 -0.22738,0.73725 -0.22738,1.70877 v 2.39778 q 0,0.97152 0.22738,1.71566 0.23427,0.73725 0.66146,1.23334 0.4203,0.50298 1.02663,0.75792 0.60634,0.25494 1.35737,0.25494 0.75792,0 1.36426,-0.25494 0.60633,-0.25494 1.02664,-0.75792 0.4203,-0.49609 0.64078,-1.23334 0.22738,-0.74414 0.22738,-1.71566 z m -4.60264,-0.82682 q 0,-0.2136 0,-0.32384 0,-0.11024 0,-0.44097 v -1.10932 q 0,-0.55811 0.0827,-0.96463 0.0896,-0.40652 0.26871,-0.66146 0.16537,-0.24115 0.40653,-0.35829 0.24804,-0.12402 0.57188,-0.12402 0.28939,0 0.51677,0.0965 0.23426,0.0896 0.39274,0.2825 0.2067,0.24116 0.31005,0.64768 0.11025,0.39963 0.12403,0.96463 z m 2.67339,1.11621 q 0,0.5581 -0.0896,0.97152 -0.0827,0.40652 -0.25493,0.66834 -0.16537,0.24805 -0.41341,0.37207 -0.24805,0.11714 -0.57189,0.11714 -0.3514,0 -0.60633,-0.13781 -0.25494,-0.1378 -0.42031,-0.4203 -0.14469,-0.23427 -0.22737,-0.58566 -0.0758,-0.3514 -0.0896,-0.80616 l 2.67339,-1.98437 q 0,0.19982 0,0.31006 0,0.10335 0,0.33073 z"
         style="font-family:'Roboto Mono';-inkscape-font-specification:'Roboto Mono Bold';fill:#000000;stroke:none"
         id="path27564" /><path
         d="m -224.10632,234.69457 v -2.39778 q 0,-0.97152 -0.22738,-1.70877 -0.22737,-0.74414 -0.64768,-1.24712 -0.42719,-0.4961 -1.03352,-0.75103 -0.60634,-0.25494 -1.36426,-0.25494 -0.75103,0 -1.35737,0.25494 -0.59944,0.25493 -1.01974,0.75103 -0.4272,0.50298 -0.65457,1.24712 -0.22738,0.73725 -0.22738,1.70877 v 2.39778 q 0,0.97152 0.22738,1.71566 0.23426,0.73725 0.66146,1.23334 0.4203,0.50298 1.02663,0.75792 0.60634,0.25494 1.35737,0.25494 0.75792,0 1.36426,-0.25494 0.60633,-0.25494 1.02663,-0.75792 0.42031,-0.49609 0.64079,-1.23334 0.22738,-0.74414 0.22738,-1.71566 z m -4.60265,-0.82682 q 0,-0.2136 0,-0.32384 0,-0.11024 0,-0.44097 v -1.10932 q 0,-0.55811 0.0827,-0.96463 0.0896,-0.40652 0.26871,-0.66146 0.16537,-0.24115 0.40652,-0.35829 0.24805,-0.12402 0.57189,-0.12402 0.28939,0 0.51676,0.0965 0.23427,0.0896 0.39274,0.2825 0.20671,0.24116 0.31006,0.64768 0.11025,0.39963 0.12403,0.96463 z m 2.6734,1.11621 q 0,0.5581 -0.0896,0.97152 -0.0827,0.40652 -0.25493,0.66834 -0.16537,0.24805 -0.41341,0.37207 -0.24805,0.11714 -0.57189,0.11714 -0.3514,0 -0.60634,-0.13781 -0.25493,-0.1378 -0.4203,-0.4203 -0.14469,-0.23427 -0.22737,-0.58566 -0.0758,-0.3514 -0.0896,-0.80616 l 2.6734,-1.98437 q 0,0.19982 0,0.31006 0,0.10335 0,0.33073 z"
         style="font-family:'Roboto Mono';-inkscape-font-specification:'Roboto Mono Bold';fill:#000000;stroke:none"
         id="path27566" /><path
         d="m -215.63828,234.69457 v -2.39778 q 0,-0.97152 -0.22738,-1.70877 -0.22737,-0.74414 -0.64768,-1.24712 -0.42719,-0.4961 -1.03352,-0.75103 -0.60634,-0.25494 -1.36426,-0.25494 -0.75103,0 -1.35737,0.25494 -0.59944,0.25493 -1.01974,0.75103 -0.4272,0.50298 -0.65457,1.24712 -0.22738,0.73725 -0.22738,1.70877 v 2.39778 q 0,0.97152 0.22738,1.71566 0.23426,0.73725 0.66146,1.23334 0.4203,0.50298 1.02663,0.75792 0.60634,0.25494 1.35737,0.25494 0.75792,0 1.36426,-0.25494 0.60633,-0.25494 1.02663,-0.75792 0.42031,-0.49609 0.64079,-1.23334 0.22738,-0.74414 0.22738,-1.71566 z m -4.60265,-0.82682 q 0,-0.2136 0,-0.32384 0,-0.11024 0,-0.44097 v -1.10932 q 0,-0.55811 0.0827,-0.96463 0.0896,-0.40652 0.26871,-0.66146 0.16537,-0.24115 0.40652,-0.35829 0.24805,-0.12402 0.57189,-0.12402 0.28939,0 0.51676,0.0965 0.23427,0.0896 0.39274,0.2825 0.20671,0.24116 0.31006,0.64768 0.11025,0.39963 0.12403,0.96463 z m 2.6734,1.11621 q 0,0.5581 -0.0896,0.97152 -0.0827,0.40652 -0.25493,0.66834 -0.16537,0.24805 -0.41341,0.37207 -0.24805,0.11714 -0.57189,0.11714 -0.3514,0 -0.60634,-0.13781 -0.25493,-0.1378 -0.4203,-0.4203 -0.14469,-0.23427 -0.22737,-0.58566 -0.0758,-0.3514 -0.0896,-0.80616 l 2.6734,-1.98437 q 0,0.19982 0,0.31006 0,0.10335 0,0.33073 z"
         style="font-family:'Roboto Mono';-inkscape-font-specification:'Roboto Mono Bold';fill:#000000;stroke:none"
         id="path27568" /></g><g
       aria-label="0x0280"
       id="text1662-39-2-3-5"
       style="font-weight:bold;font-size:14.1111px;font-family:'Avenir Next';-inkscape-font-specification:'Avenir Next Bold';text-align:center;text-anchor:middle;fill:#ffffff;stroke:#000000;stroke-width:0.972"><path
         d="m -257.97848,210.88569 v -2.39779 q 0,-0.97151 -0.22737,-1.70876 -0.22738,-0.74414 -0.64768,-1.24713 -0.42719,-0.49609 -1.03353,-0.75103 -0.60633,-0.25493 -1.36425,-0.25493 -0.75103,0 -1.35737,0.25493 -0.59945,0.25494 -1.01975,0.75103 -0.42719,0.50299 -0.65457,1.24713 -0.22737,0.73725 -0.22737,1.70876 v 2.39779 q 0,0.97151 0.22737,1.71565 0.23427,0.73725 0.66146,1.23335 0.4203,0.50298 1.02664,0.75792 0.60634,0.25493 1.35737,0.25493 0.75792,0 1.36425,-0.25493 0.60634,-0.25494 1.02664,-0.75792 0.4203,-0.4961 0.64079,-1.23335 0.22737,-0.74414 0.22737,-1.71565 z m -4.60264,-0.82682 q 0,-0.2136 0,-0.32384 0,-0.11025 0,-0.44098 v -1.10932 q 0,-0.5581 0.0827,-0.96462 0.0896,-0.40652 0.26872,-0.66146 0.16536,-0.24116 0.40652,-0.35829 0.24805,-0.12402 0.57189,-0.12402 0.28938,0 0.51676,0.0965 0.23427,0.0896 0.39274,0.2825 0.20671,0.24115 0.31006,0.64768 0.11024,0.39963 0.12402,0.96462 z m 2.67339,1.11621 q 0,0.5581 -0.0896,0.97151 -0.0827,0.40652 -0.25494,0.66835 -0.16536,0.24805 -0.41341,0.37207 -0.24805,0.11713 -0.57188,0.11713 -0.3514,0 -0.60634,-0.1378 -0.25494,-0.1378 -0.4203,-0.4203 -0.1447,-0.23427 -0.22738,-0.58567 -0.0758,-0.3514 -0.0896,-0.80615 l 2.67339,-1.98437 q 0,0.19981 0,0.31006 0,0.10335 0,0.33072 z"
         style="font-family:'Roboto Mono';-inkscape-font-specification:'Roboto Mono Bold';fill:#000000;stroke:none"
         id="path27545" /><path
         d="m -252.63169,209.57655 -1.61231,-2.32888 h -2.06016 l 2.49425,3.65869 -2.59071,3.79649 h 2.07394 l 1.70188,-2.43913 1.71565,2.43913 h 2.06706 l -2.59071,-3.79649 2.50114,-3.65869 h -2.06017 z"
         style="font-family:'Roboto Mono';-inkscape-font-specification:'Roboto Mono Bold';fill:#000000;stroke:none"
         id="path27547" /><path
         d="m -241.0424,210.88569 v -2.39779 q 0,-0.97151 -0.22738,-1.70876 -0.22737,-0.74414 -0.64767,-1.24713 -0.42719,-0.49609 -1.03353,-0.75103 -0.60634,-0.25493 -1.36426,-0.25493 -0.75103,0 -1.35736,0.25493 -0.59945,0.25494 -1.01975,0.75103 -0.42719,0.50299 -0.65457,1.24713 -0.22738,0.73725 -0.22738,1.70876 v 2.39779 q 0,0.97151 0.22738,1.71565 0.23427,0.73725 0.66146,1.23335 0.4203,0.50298 1.02664,0.75792 0.60633,0.25493 1.35736,0.25493 0.75792,0 1.36426,-0.25493 0.60634,-0.25494 1.02664,-0.75792 0.4203,-0.4961 0.64078,-1.23335 0.22738,-0.74414 0.22738,-1.71565 z m -4.60264,-0.82682 q 0,-0.2136 0,-0.32384 0,-0.11025 0,-0.44098 v -1.10932 q 0,-0.5581 0.0827,-0.96462 0.0896,-0.40652 0.26872,-0.66146 0.16536,-0.24116 0.40652,-0.35829 0.24804,-0.12402 0.57188,-0.12402 0.28939,0 0.51677,0.0965 0.23426,0.0896 0.39274,0.2825 0.2067,0.24115 0.31006,0.64768 0.11024,0.39963 0.12402,0.96462 z m 2.67339,1.11621 q 0,0.5581 -0.0896,0.97151 -0.0827,0.40652 -0.25494,0.66835 -0.16536,0.24805 -0.41341,0.37207 -0.24805,0.11713 -0.57189,0.11713 -0.3514,0 -0.60633,-0.1378 -0.25494,-0.1378 -0.4203,-0.4203 -0.1447,-0.23427 -0.22738,-0.58567 -0.0758,-0.3514 -0.0896,-0.80615 l 2.67339,-1.98437 q 0,0.19981 0,0.31006 0,0.10335 0,0.33072 z"
         style="font-family:'Roboto Mono';-inkscape-font-specification:'Roboto Mono Bold';fill:#000000;stroke:none"
         id="path27549" /><path
         d="m -232.5468,214.70285 v -1.53651 h -4.40283 l 1.88791,-1.99815 q 0.48921,-0.50299 0.88884,-0.95774 0.39963,-0.46164 0.68901,-0.90262 0.2825,-0.44097 0.43409,-0.88883 0.15847,-0.45475 0.15847,-0.95084 0,-0.65457 -0.2067,-1.19201 -0.20671,-0.54432 -0.59945,-0.93017 -0.39963,-0.38585 -0.99219,-0.59945 -0.58566,-0.21359 -1.35047,-0.21359 -0.79927,0 -1.46072,0.26182 -0.65457,0.25494 -1.11621,0.7028 -0.46854,0.44786 -0.72347,1.04731 -0.25494,0.59256 -0.25494,1.2609 h 1.92236 q 0,-0.40652 0.10335,-0.72346 0.10336,-0.31695 0.30317,-0.53055 0.19293,-0.2067 0.48232,-0.31006 0.29627,-0.11024 0.68212,-0.11024 0.29628,0 0.53744,0.0965 0.24805,0.0965 0.42719,0.27561 0.17225,0.18603 0.26872,0.44786 0.0965,0.26183 0.0965,0.59945 0,0.22737 -0.0758,0.46853 -0.0689,0.24116 -0.22738,0.51676 -0.16536,0.2825 -0.42719,0.62012 -0.26183,0.33762 -0.64079,0.75103 l -3.24527,3.48644 v 1.30913 z"
         style="font-family:'Roboto Mono';-inkscape-font-specification:'Roboto Mono Bold';fill:#000000;stroke:none"
         id="path27551" /><path
         d="m -224.34059,207.33724 q 0,-0.68213 -0.24115,-1.19889 -0.23427,-0.52365 -0.65457,-0.88194 -0.42719,-0.35829 -1.00597,-0.53744 -0.57878,-0.18603 -1.2609,-0.18603 -0.68213,0 -1.26091,0.18603 -0.57188,0.17915 -0.98529,0.53744 -0.42031,0.35829 -0.65457,0.88194 -0.23427,0.51676 -0.23427,1.19889 0,0.37207 0.0965,0.70969 0.10336,0.33762 0.28939,0.62012 0.17226,0.26871 0.4203,0.4892 0.25494,0.22049 0.565,0.37896 -0.36518,0.17226 -0.66146,0.4203 -0.28939,0.24116 -0.49609,0.54433 -0.20671,0.31006 -0.32384,0.68213 -0.11024,0.36518 -0.11024,0.77859 0,0.70969 0.25493,1.24712 0.26183,0.53743 0.71658,0.89572 0.45475,0.36518 1.06798,0.55122 0.62012,0.18603 1.3367,0.18603 0.70969,0 1.32291,-0.18603 0.61323,-0.18604 1.06798,-0.55122 0.44786,-0.35829 0.7028,-0.89572 0.26183,-0.53743 0.26183,-1.24712 0,-0.53744 -0.18604,-0.99219 -0.18603,-0.45475 -0.51676,-0.79926 -0.17915,-0.19293 -0.40652,-0.34451 -0.22738,-0.15848 -0.48232,-0.2825 0.2825,-0.14469 0.50988,-0.33762 0.23426,-0.19981 0.40652,-0.42719 0.22049,-0.30317 0.33762,-0.66146 0.12402,-0.36518 0.12402,-0.77859 z m -1.70876,4.4924 q 0,0.34451 -0.11025,0.62012 -0.10335,0.26872 -0.28939,0.46164 -0.19292,0.19293 -0.45475,0.29628 -0.26182,0.0965 -0.57877,0.0965 -0.32384,0 -0.58567,-0.0896 -0.26183,-0.0965 -0.44786,-0.27561 -0.19982,-0.18603 -0.31006,-0.46853 -0.11024,-0.2825 -0.11024,-0.64079 0,-0.34451 0.10335,-0.62011 0.10335,-0.27561 0.28939,-0.47543 0.18603,-0.19292 0.44786,-0.29627 0.26872,-0.10336 0.59945,-0.10336 0.33073,0 0.59255,0.10336 0.26872,0.10335 0.46164,0.29627 0.18604,0.19982 0.28939,0.47543 0.10336,0.2756 0.10336,0.62011 z m -0.19982,-4.40283 q 0,0.30317 -0.0896,0.55811 -0.0827,0.24805 -0.24116,0.42719 -0.15847,0.17915 -0.38585,0.2825 -0.22738,0.0965 -0.51676,0.0965 -0.28939,0 -0.52366,-0.0965 -0.22737,-0.10335 -0.38585,-0.2825 -0.16536,-0.17914 -0.24804,-0.42719 -0.0827,-0.25494 -0.0827,-0.565 0,-0.30316 0.0758,-0.55121 0.0827,-0.25494 0.24115,-0.42719 0.15159,-0.17226 0.37896,-0.26183 0.22738,-0.0965 0.52366,-0.0965 0.28938,0 0.51676,0.0965 0.23427,0.0965 0.39963,0.26872 0.15848,0.17914 0.24805,0.42719 0.0896,0.24805 0.0896,0.55121 z"
         style="font-family:'Roboto Mono';-inkscape-font-specification:'Roboto Mono Bold';fill:#000000;stroke:none"
         id="path27553" /><path
         d="m -215.63828,210.88569 v -2.39779 q 0,-0.97151 -0.22738,-1.70876 -0.22737,-0.74414 -0.64768,-1.24713 -0.42719,-0.49609 -1.03352,-0.75103 -0.60634,-0.25493 -1.36426,-0.25493 -0.75103,0 -1.35737,0.25493 -0.59944,0.25494 -1.01974,0.75103 -0.4272,0.50299 -0.65457,1.24713 -0.22738,0.73725 -0.22738,1.70876 v 2.39779 q 0,0.97151 0.22738,1.71565 0.23426,0.73725 0.66146,1.23335 0.4203,0.50298 1.02663,0.75792 0.60634,0.25493 1.35737,0.25493 0.75792,0 1.36426,-0.25493 0.60633,-0.25494 1.02663,-0.75792 0.42031,-0.4961 0.64079,-1.23335 0.22738,-0.74414 0.22738,-1.71565 z m -4.60265,-0.82682 q 0,-0.2136 0,-0.32384 0,-0.11025 0,-0.44098 v -1.10932 q 0,-0.5581 0.0827,-0.96462 0.0896,-0.40652 0.26871,-0.66146 0.16537,-0.24116 0.40652,-0.35829 0.24805,-0.12402 0.57189,-0.12402 0.28939,0 0.51676,0.0965 0.23427,0.0896 0.39274,0.2825 0.20671,0.24115 0.31006,0.64768 0.11025,0.39963 0.12403,0.96462 z m 2.6734,1.11621 q 0,0.5581 -0.0896,0.97151 -0.0827,0.40652 -0.25493,0.66835 -0.16537,0.24805 -0.41341,0.37207 -0.24805,0.11713 -0.57189,0.11713 -0.3514,0 -0.60634,-0.1378 -0.25493,-0.1378 -0.4203,-0.4203 -0.14469,-0.23427 -0.22737,-0.58567 -0.0758,-0.3514 -0.0896,-0.80615 l 2.6734,-1.98437 q 0,0.19981 0,0.31006 0,0.10335 0,0.33072 z"
         style="font-family:'Roboto Mono';-inkscape-font-specification:'Roboto Mono Bold';fill:#000000;stroke:none"
         id="path27555" /></g><g
       aria-label="0x1F40"
       id="text1662-39-2-3-1"
       style="font-weight:bold;font-size:14.1111px;font-family:'Avenir Next';-inkscape-font-specification:'Avenir Next Bold';text-align:center;text-anchor:middle;fill:#ffffff;stroke:#000000;stroke-width:0.972"><path
         d="m -259.56353,66.218367 v -2.397784 q 0,-0.971517 -0.22737,-1.708766 -0.22738,-0.74414 -0.64768,-1.247124 -0.42719,-0.496093 -1.03353,-0.75103 -0.60634,-0.254937 -1.36426,-0.254937 -0.75103,0 -1.35736,0.254937 -0.59945,0.254937 -1.01975,0.75103 -0.42719,0.502984 -0.65457,1.247124 -0.22737,0.737249 -0.22737,1.708766 v 2.397784 q 0,0.971516 0.22737,1.715656 0.23427,0.73725 0.66146,1.233344 0.4203,0.502983 1.02664,0.75792 0.60633,0.254937 1.35736,0.254937 0.75792,0 1.36426,-0.254937 0.60634,-0.254937 1.02664,-0.75792 0.4203,-0.496094 0.64079,-1.233344 0.22737,-0.74414 0.22737,-1.715656 z m -4.60264,-0.826822 q 0,-0.213596 0,-0.323839 0,-0.110243 0,-0.440972 v -1.10932 q 0,-0.558105 0.0827,-0.964626 0.0896,-0.40652 0.26872,-0.661457 0.16536,-0.241157 0.40652,-0.35829 0.24804,-0.124023 0.57188,-0.124023 0.28939,0 0.51677,0.09646 0.23426,0.08957 0.39274,0.282498 0.2067,0.241156 0.31006,0.647677 0.11024,0.399631 0.12402,0.964626 z m 2.67339,1.11621 q 0,0.558105 -0.0896,0.971516 -0.0827,0.406521 -0.25494,0.668348 -0.16536,0.248047 -0.41341,0.37207 -0.24805,0.117133 -0.57189,0.117133 -0.3514,0 -0.60633,-0.137803 -0.25494,-0.137804 -0.4203,-0.420302 -0.1447,-0.234266 -0.22738,-0.585665 -0.0758,-0.3514 -0.0896,-0.806152 l 2.67339,-1.984374 q 0,0.199816 0,0.310059 0,0.103353 0,0.330729 z"
         style="font-family:'Roboto Mono';-inkscape-font-specification:'Roboto Mono Bold';fill:#000000;stroke:none"
         id="path27532" /><path
         d="m -254.21674,64.909232 -1.61231,-2.328883 h -2.06016 l 2.49424,3.658689 -2.59071,3.796492 h 2.07395 l 1.70188,-2.439126 1.71565,2.439126 h 2.06706 l -2.59071,-3.796492 2.50114,-3.658689 h -2.06017 z"
         style="font-family:'Roboto Mono';-inkscape-font-specification:'Roboto Mono Bold';fill:#000000;stroke:none"
         id="path27534" /><path
         d="M -244.46713,70.03553 V 60.00342 h -0.10335 l -4.36838,1.577852 v 1.667425 l 2.53559,-0.909504 v 7.696337 z"
         style="font-family:'Roboto Mono';-inkscape-font-specification:'Roboto Mono Bold';fill:#000000;stroke:none"
         id="path27536" /><path
         d="m -234.39368,65.880748 v -1.570962 h -4.29948 v -2.728514 h 4.83692 V 60.00342 h -6.77995 v 10.03211 h 1.94303 v -4.154782 z"
         style="font-family:'Roboto Mono';-inkscape-font-specification:'Roboto Mono Bold';fill:#000000;stroke:none"
         id="path27538" /><path
         d="m -226.62844,66.30794 v -6.30452 h -1.94303 l -4.2168,6.655919 0.0758,1.198892 h 4.16856 v 2.177299 h 1.91547 v -2.177299 h 1.16444 V 66.30794 Z m -4.27881,0 2.1773,-3.396862 0.18604,-0.330729 v 3.727591 z"
         style="font-family:'Roboto Mono';-inkscape-font-specification:'Roboto Mono Bold';fill:#000000;stroke:none"
         id="path27540" /><path
         d="m -217.22333,66.218367 v -2.397784 q 0,-0.971517 -0.22738,-1.708766 -0.22738,-0.74414 -0.64768,-1.247124 -0.42719,-0.496093 -1.03353,-0.75103 -0.60633,-0.254937 -1.36425,-0.254937 -0.75103,0 -1.35737,0.254937 -0.59945,0.254937 -1.01975,0.75103 -0.42719,0.502984 -0.65456,1.247124 -0.22738,0.737249 -0.22738,1.708766 v 2.397784 q 0,0.971516 0.22738,1.715656 0.23426,0.73725 0.66145,1.233344 0.42031,0.502983 1.02664,0.75792 0.60634,0.254937 1.35737,0.254937 0.75792,0 1.36425,-0.254937 0.60634,-0.254937 1.02664,-0.75792 0.4203,-0.496094 0.64079,-1.233344 0.22738,-0.74414 0.22738,-1.715656 z m -4.60265,-0.826822 q 0,-0.213596 0,-0.323839 0,-0.110243 0,-0.440972 v -1.10932 q 0,-0.558105 0.0827,-0.964626 0.0896,-0.40652 0.26872,-0.661457 0.16537,-0.241157 0.40652,-0.35829 0.24805,-0.124023 0.57189,-0.124023 0.28939,0 0.51676,0.09646 0.23427,0.08957 0.39274,0.282498 0.20671,0.241156 0.31006,0.647677 0.11024,0.399631 0.12402,0.964626 z m 2.67339,1.11621 q 0,0.558105 -0.0896,0.971516 -0.0827,0.406521 -0.25494,0.668348 -0.16536,0.248047 -0.41341,0.37207 -0.24804,0.117133 -0.57188,0.117133 -0.3514,0 -0.60634,-0.137803 -0.25494,-0.137804 -0.4203,-0.420302 -0.14469,-0.234266 -0.22738,-0.585665 -0.0758,-0.3514 -0.0896,-0.806152 l 2.67339,-1.984374 q 0,0.199816 0,0.310059 0,0.103353 0,0.330729 z"
         style="font-family:'Roboto Mono';-inkscape-font-specification:'Roboto Mono Bold';fill:#000000;stroke:none"
         id="path27542" /></g><g
       aria-label="SCREEN"
       id="text1662-3"
       style="font-weight:bold;font-size:22.5778px;font-family:'Avenir Next';-inkscape-font-specification:'Avenir Next Bold';text-align:center;text-anchor:middle;fill:#ffffff;stroke:#000000;stroke-width:0.972"><path
         d="m 317.44859,246.37044 q 0,0.42995 -0.17639,0.79375 -0.17638,0.35278 -0.50711,0.60633 -0.33073,0.25356 -0.8158,0.39688 -0.47405,0.14332 -1.09141,0.14332 -0.69453,0 -1.27882,-0.15434 -0.57327,-0.15434 -0.98117,-0.48507 -0.41892,-0.33073 -0.65043,-0.84888 -0.23151,-0.51814 -0.25356,-1.24574 h -3.04271 q 0,1.24574 0.47404,2.17179 0.48507,0.92604 1.3119,1.60955 0.87092,0.69453 2.0395,1.05833 1.1796,0.35278 2.38125,0.35278 1.2237,0 2.25998,-0.28663 1.03629,-0.29766 1.78594,-0.87092 0.74966,-0.56224 1.16858,-1.37804 0.42995,-0.82683 0.42995,-1.88516 0,-1.2237 -0.56224,-2.16077 -0.56224,-0.93706 -1.51033,-1.64262 -0.62839,-0.42995 -1.37804,-0.76068 -0.74966,-0.33073 -1.57648,-0.56224 -0.7717,-0.20946 -1.38906,-0.452 -0.60634,-0.24253 -1.03629,-0.54019 -0.42995,-0.28663 -0.66146,-0.65043 -0.22048,-0.3638 -0.22048,-0.8158 0,-0.42995 0.16536,-0.79375 0.17639,-0.37483 0.50712,-0.65044 0.33073,-0.26458 0.80477,-0.4079 0.48507,-0.15434 1.10244,-0.15434 0.67248,0 1.16857,0.18742 0.50712,0.17638 0.84888,0.49609 0.33073,0.33073 0.49609,0.78273 0.17639,0.45199 0.19844,0.99219 h 3.02066 q 0,-1.08039 -0.41892,-1.98438 -0.41893,-0.904 -1.16858,-1.56545 -0.74965,-0.65044 -1.79696,-1.01424 -1.03629,-0.3638 -2.29306,-0.3638 -1.21268,0 -2.24896,0.3197 -1.03629,0.30868 -1.79697,0.89297 -0.76067,0.58429 -1.19062,1.41111 -0.42995,0.82683 -0.42995,1.84106 0,0.88195 0.3197,1.6316 0.33073,0.74966 0.97014,1.36702 0.63941,0.61736 1.64263,1.1355 1.01423,0.51815 2.34818,0.88195 0.85989,0.23151 1.43316,0.50712 0.58429,0.26458 0.94809,0.58429 0.35278,0.33072 0.49609,0.70555 0.15434,0.37483 0.15434,0.80478 z"
         style="font-family:'Roboto Mono';-inkscape-font-specification:'Roboto Mono Bold';fill:#000000;stroke:none"
         id="path27519" /><path
         d="m 333.80868,245.53259 h -3.09783 q -0.0441,0.7276 -0.24254,1.24575 -0.19844,0.51814 -0.54019,0.84887 -0.34175,0.33073 -0.82682,0.48507 -0.48507,0.15434 -1.09141,0.15434 -0.452,0 -0.82682,-0.0992 -0.36381,-0.11024 -0.66146,-0.33073 -0.27561,-0.19844 -0.4961,-0.49609 -0.20946,-0.29766 -0.3638,-0.68351 -0.22049,-0.56224 -0.33073,-1.31189 -0.0992,-0.76068 -0.0992,-1.7198 v -2.18281 q 0,-0.70556 0.0661,-1.3119 0.0661,-0.61736 0.20946,-1.12448 0.18741,-0.65043 0.49609,-1.1355 0.31971,-0.4961 0.77171,-0.76068 0.26458,-0.15434 0.57326,-0.23151 0.31971,-0.0772 0.68351,-0.0772 0.68351,0 1.16858,0.18741 0.49609,0.17639 0.82682,0.52917 0.3197,0.3638 0.48507,0.90399 0.17639,0.5402 0.22049,1.25678 h 3.0868 q -0.11024,-1.25678 -0.52916,-2.25999 -0.41893,-1.00321 -1.14653,-1.69774 -0.72761,-0.69454 -1.76389,-1.06936 -1.02526,-0.37483 -2.34818,-0.37483 -0.89297,0 -1.6757,0.23151 -0.7717,0.22049 -1.42213,0.63941 -0.72761,0.4961 -1.30087,1.21268 -0.57327,0.71658 -0.92605,1.6316 -0.30868,0.74965 -0.46302,1.63159 -0.15434,0.87093 -0.15434,1.84107 v 2.16076 q 0,1.03629 0.16537,1.96233 0.17639,0.92604 0.49609,1.69775 0.33073,0.7717 0.80478,1.41111 0.48507,0.63941 1.10243,1.0914 0.67248,0.48507 1.51033,0.74966 0.84887,0.25356 1.84106,0.25356 1.25677,0 2.29306,-0.3638 1.03628,-0.37483 1.78594,-1.05834 0.74965,-0.68351 1.19062,-1.65365 0.452,-0.97014 0.52917,-2.18281 z"
         style="font-family:'Roboto Mono';-inkscape-font-specification:'Roboto Mono Bold';fill:#000000;stroke:none"
         id="path27521" /><path
         d="m 341.65799,244.56245 3.02067,5.99723 h 3.31832 v -0.14332 l -3.45062,-6.62561 q 0.66146,-0.29766 1.19063,-0.70556 0.54019,-0.4079 0.92604,-0.95912 0.37483,-0.54019 0.57327,-1.22369 0.20946,-0.69454 0.20946,-1.55443 0,-1.19063 -0.41892,-2.09462 -0.4079,-0.904 -1.16858,-1.51033 -0.7717,-0.60634 -1.85209,-0.91502 -1.08038,-0.31971 -2.41432,-0.31971 h -5.37987 v 16.05141 h 3.09783 v -5.99723 z m -2.34818,-2.51355 v -5.02708 h 2.28204 q 0.63941,0 1.1355,0.15434 0.4961,0.15434 0.83785,0.44097 0.38585,0.3197 0.57326,0.8158 0.19844,0.48507 0.19844,1.12448 0,0.52917 -0.15434,0.95911 -0.14331,0.42995 -0.42995,0.73863 -0.34175,0.38585 -0.89297,0.59532 -0.54019,0.19843 -1.25677,0.19843 z"
         style="font-family:'Roboto Mono';-inkscape-font-specification:'Roboto Mono Bold';fill:#000000;stroke:none"
         id="path27523" /><path
         d="m 359.63865,243.52616 v -2.4474 h -6.59254 v -4.04592 h 7.67293 v -2.52457 h -10.78178 v 16.05141 h 10.81485 v -2.50252 h -7.706 v -4.531 z"
         style="font-family:'Roboto Mono';-inkscape-font-specification:'Roboto Mono Bold';fill:#000000;stroke:none"
         id="path27525" /><path
         d="m 373.18754,243.52616 v -2.4474 H 366.595 v -4.04592 h 7.67292 v -2.52457 h -10.78178 v 16.05141 H 374.301 v -2.50252 h -7.706 v -4.531 z"
         style="font-family:'Roboto Mono';-inkscape-font-specification:'Roboto Mono Bold';fill:#000000;stroke:none"
         id="path27527" /><path
         d="m 387.44199,250.55968 v -16.05141 h -3.10886 l -0.011,10.30774 -4.43177,-10.30774 h -3.11988 v 16.05141 h 3.11988 v -10.35184 l 4.46485,10.35184 z"
         style="font-family:'Roboto Mono';-inkscape-font-specification:'Roboto Mono Bold';fill:#000000;stroke:none"
         id="path27529" /></g><path
       style="fill:#000000;fill-opacity:1;stroke:#000000;stroke-width:1.672;stroke-dasharray:none;stroke-opacity:1;marker-end:url(#TriangleStart)"
       d="M 71.416712,133.64118 H 178.18822"
       id="path1897" /><path
       style="fill:#000000;fill-opacity:1;stroke:#000000;stroke-width:1.672;stroke-dasharray:none;stroke-opacity:1"
       d="M 40.655719,2.1212883 V 289.9094"
       id="path2116" /><path
       style="fill:#000000;fill-opacity:1;stroke:#000000;stroke-width:1.672;stroke-dasharray:none;stroke-opacity:1"
       d="M -207.53503,3.5354806 V 291.32359"
       id="path2118" /><path
       style="fill:#000000;fill-opacity:1;stroke:#000000;stroke-width:1.672;stroke-dasharray:none;stroke-opacity:1;marker-end:url(#marker3716)"
       d="M -42.432285,26.45302 H 33.226999"
       id="path3712"
       sodipodi:nodetypes="cc" /><path
       style="fill:#000000;fill-opacity:1;stroke:#000000;stroke-width:1.672;stroke-dasharray:none;stroke-opacity:1;marker-end:url(#marker3716)"
       d="m -126.12279,26.275091 h -70.00252"
       id="path3760"
       sodipodi:nodetypes="cc" /><path
       style="fill:#000000;fill-opacity:1;stroke:#000000;stroke-width:1.672;stroke-dasharray:none;stroke-opacity:1;marker-end:url(#marker3716)"
       d="M 17.630958,124.34812 V 74.851491"
       id="path3864"
       sodipodi:nodetypes="cc" /><path
       style="fill:#000000;fill-opacity:1;stroke:#000000;stroke-width:1.672;stroke-dasharray:none;stroke-opacity:1;marker-end:url(#marker3716)"
       d="m 16.923862,155.17972 v 43.13286"
       id="path3868"
       sodipodi:nodetypes="cc" /><path
       style="fill:#000000;fill-opacity:1;stroke:#000000;stroke-width:1.672;stroke-dasharray:none;stroke-opacity:1;marker-end:url(#TriangleStart)"
       d="m -303.90411,232.53794 h 15.5561"
       id="path6539"
       sodipodi:nodetypes="cc" /><path
       id="path7383"
       style="fill:#ff0000;stroke:#000000;stroke-width:1.672"
       d="m -9.0254383,164.84526 a 27.2232,27.2232 0 0 1 -27.2231997,27.2232 27.2232,27.2232 0 0 1 -27.2232,-27.2232 27.2232,27.2232 0 0 1 27.2232,-27.2232 27.2232,27.2232 0 0 1 27.2231997,27.2232 z" /><path
       id="rect7385"
       style="fill:#13ff00;stroke:#000000;stroke-width:1.672"
       d="m -199.2343,71.862 h 94.75089 v 57.27479 h -94.75089 z" /><path
       id="path7383-2"
       style="fill:#ff0000;stroke:#000000;stroke-width:1.672"
       d="m 420.18423,139.37122 a 27.2232,27.2232 0 0 1 -27.2232,27.2232 27.2232,27.2232 0 0 1 -27.2232,-27.2232 27.2232,27.2232 0 0 1 27.2232,-27.2232 27.2232,27.2232 0 0 1 27.2232,27.2232 z" /><path
       id="rect7385-2"
       style="fill:#13ff00;stroke:#000000;stroke-width:1.672"
       d="m 229.97534,63.358368 h 94.75089 v 40.304482 h -94.75089 z" /><g
       aria-label="0x21C0"
       id="text12720"
       style="font-weight:bold;font-size:14.1111px;font-family:'Avenir Next';-inkscape-font-specification:'Avenir Next Bold';text-align:center;text-anchor:middle;fill:#ffffff;stroke:#000000;stroke-width:0.972"><path
         d="m -259.56353,41.876677 v -2.397784 q 0,-0.971517 -0.22737,-1.708766 -0.22738,-0.744141 -0.64768,-1.247124 -0.42719,-0.496093 -1.03353,-0.75103 -0.60634,-0.254937 -1.36426,-0.254937 -0.75103,0 -1.35736,0.254937 -0.59945,0.254937 -1.01975,0.75103 -0.42719,0.502983 -0.65457,1.247124 -0.22737,0.737249 -0.22737,1.708766 v 2.397784 q 0,0.971516 0.22737,1.715656 0.23427,0.73725 0.66146,1.233344 0.4203,0.502983 1.02664,0.75792 0.60633,0.254937 1.35736,0.254937 0.75792,0 1.36426,-0.254937 0.60634,-0.254937 1.02664,-0.75792 0.4203,-0.496094 0.64079,-1.233344 0.22737,-0.74414 0.22737,-1.715656 z m -4.60264,-0.826822 q 0,-0.213596 0,-0.323839 0,-0.110243 0,-0.440972 v -1.10932 q 0,-0.558105 0.0827,-0.964626 0.0896,-0.406521 0.26872,-0.661457 0.16536,-0.241157 0.40652,-0.35829 0.24804,-0.124023 0.57188,-0.124023 0.28939,0 0.51677,0.09646 0.23426,0.08957 0.39274,0.282498 0.2067,0.241156 0.31006,0.647677 0.11024,0.399631 0.12402,0.964626 z m 2.67339,1.11621 q 0,0.558105 -0.0896,0.971516 -0.0827,0.406521 -0.25494,0.668348 -0.16536,0.248047 -0.41341,0.37207 -0.24805,0.117133 -0.57189,0.117133 -0.3514,0 -0.60633,-0.137803 -0.25494,-0.137804 -0.4203,-0.420302 -0.1447,-0.234266 -0.22738,-0.585665 -0.0758,-0.3514 -0.0896,-0.806152 l 2.67339,-1.984374 q 0,0.199816 0,0.310059 0,0.103352 0,0.330729 z"
         style="font-family:'Roboto Mono';-inkscape-font-specification:'Roboto Mono Bold';fill:#000000;stroke:none"
         id="path27502" /><path
         d="m -254.21674,40.567542 -1.61231,-2.328883 h -2.06016 l 2.49424,3.658689 -2.59071,3.796492 h 2.07395 l 1.70188,-2.439126 1.71565,2.439126 h 2.06706 l -2.59071,-3.796492 2.50114,-3.658689 h -2.06017 z"
         style="font-family:'Roboto Mono';-inkscape-font-specification:'Roboto Mono Bold';fill:#000000;stroke:none"
         id="path27504" /><path
         d="m -242.59989,45.69384 v -1.536511 h -4.40283 l 1.88791,-1.998154 q 0.4892,-0.502984 0.88884,-0.957736 0.39963,-0.461642 0.68901,-0.902614 0.2825,-0.440972 0.43409,-0.888834 0.15847,-0.454753 0.15847,-0.950846 0,-0.654568 -0.20671,-1.192002 -0.2067,-0.544325 -0.59944,-0.930175 -0.39963,-0.38585 -0.99219,-0.599446 -0.58566,-0.213596 -1.35048,-0.213596 -0.79926,0 -1.46071,0.261827 -0.65457,0.254937 -1.11621,0.702799 -0.46854,0.447862 -0.72347,1.047308 -0.25494,0.592556 -0.25494,1.260904 h 1.92236 q 0,-0.406521 0.10335,-0.723469 0.10336,-0.316949 0.30317,-0.530545 0.19293,-0.206705 0.48231,-0.310058 0.29628,-0.110243 0.68213,-0.110243 0.29628,0 0.53744,0.09646 0.24804,0.09646 0.42719,0.275607 0.17225,0.186035 0.26872,0.447862 0.0965,0.261827 0.0965,0.599446 0,0.227376 -0.0758,0.468533 -0.0689,0.241156 -0.22738,0.516764 -0.16536,0.282497 -0.42719,0.620117 -0.26183,0.337619 -0.64079,0.75103 l -3.24528,3.486434 v 1.309135 z"
         style="font-family:'Roboto Mono';-inkscape-font-specification:'Roboto Mono Bold';fill:#000000;stroke:none"
         id="path27506" /><path
         d="M -235.99909,45.69384 V 35.66173 h -0.10336 l -4.36837,1.577852 v 1.667425 l 2.53559,-0.909504 v 7.696337 z"
         style="font-family:'Roboto Mono';-inkscape-font-specification:'Roboto Mono Bold';fill:#000000;stroke:none"
         id="path27508" /><path
         d="m -225.32619,42.551915 h -1.93615 q -0.0276,0.454753 -0.15158,0.778591 -0.12402,0.323839 -0.33762,0.530545 -0.2136,0.206705 -0.51676,0.303168 -0.30317,0.09646 -0.68213,0.09646 -0.2825,0 -0.51677,-0.06201 -0.22737,-0.0689 -0.41341,-0.206706 -0.17225,-0.124023 -0.31006,-0.310058 -0.13091,-0.186035 -0.22737,-0.427192 -0.13781,-0.351399 -0.20671,-0.819932 -0.062,-0.475423 -0.062,-1.074869 v -1.364256 q 0,-0.440972 0.0413,-0.819933 0.0413,-0.38585 0.13092,-0.702799 0.11713,-0.40652 0.31005,-0.709689 0.19982,-0.310058 0.48232,-0.475422 0.16536,-0.09646 0.35829,-0.144694 0.19981,-0.04823 0.42719,-0.04823 0.42719,0 0.73036,0.117134 0.31006,0.110242 0.51676,0.330728 0.19982,0.227377 0.30317,0.564996 0.11024,0.337619 0.1378,0.785481 h 1.92926 q -0.0689,-0.785481 -0.33073,-1.412488 -0.26183,-0.627007 -0.71658,-1.061089 -0.45476,-0.434082 -1.10243,-0.668348 -0.64079,-0.234266 -1.46761,-0.234266 -0.55811,0 -1.04731,0.144694 -0.48231,0.137803 -0.88883,0.39963 -0.45476,0.310059 -0.81305,0.757921 -0.35829,0.447862 -0.57877,1.019747 -0.19293,0.468533 -0.28939,1.019748 -0.0965,0.544325 -0.0965,1.150661 v 1.350476 q 0,0.647678 0.10335,1.226453 0.11024,0.578776 0.31006,1.061089 0.2067,0.482313 0.50298,0.881944 0.30317,0.39963 0.68902,0.682128 0.4203,0.303168 0.94396,0.468533 0.53054,0.158474 1.15066,0.158474 0.78548,0 1.43316,-0.227376 0.64767,-0.234267 1.11621,-0.661458 0.46853,-0.427192 0.74414,-1.033528 0.28249,-0.606336 0.33073,-1.364257 z"
         style="font-family:'Roboto Mono';-inkscape-font-specification:'Roboto Mono Bold';fill:#000000;stroke:none"
         id="path27510" /><path
         d="m -217.22333,41.876677 v -2.397784 q 0,-0.971517 -0.22738,-1.708766 -0.22738,-0.744141 -0.64768,-1.247124 -0.42719,-0.496093 -1.03353,-0.75103 -0.60633,-0.254937 -1.36425,-0.254937 -0.75103,0 -1.35737,0.254937 -0.59945,0.254937 -1.01975,0.75103 -0.42719,0.502983 -0.65456,1.247124 -0.22738,0.737249 -0.22738,1.708766 v 2.397784 q 0,0.971516 0.22738,1.715656 0.23426,0.73725 0.66145,1.233344 0.42031,0.502983 1.02664,0.75792 0.60634,0.254937 1.35737,0.254937 0.75792,0 1.36425,-0.254937 0.60634,-0.254937 1.02664,-0.75792 0.4203,-0.496094 0.64079,-1.233344 0.22738,-0.74414 0.22738,-1.715656 z m -4.60265,-0.826822 q 0,-0.213596 0,-0.323839 0,-0.110243 0,-0.440972 v -1.10932 q 0,-0.558105 0.0827,-0.964626 0.0896,-0.406521 0.26872,-0.661457 0.16537,-0.241157 0.40652,-0.35829 0.24805,-0.124023 0.57189,-0.124023 0.28939,0 0.51676,0.09646 0.23427,0.08957 0.39274,0.282498 0.20671,0.241156 0.31006,0.647677 0.11024,0.399631 0.12402,0.964626 z m 2.67339,1.11621 q 0,0.558105 -0.0896,0.971516 -0.0827,0.406521 -0.25494,0.668348 -0.16536,0.248047 -0.41341,0.37207 -0.24804,0.117133 -0.57188,0.117133 -0.3514,0 -0.60634,-0.137803 -0.25494,-0.137804 -0.4203,-0.420302 -0.14469,-0.234266 -0.22738,-0.585665 -0.0758,-0.3514 -0.0896,-0.806152 l 2.67339,-1.984374 q 0,0.199816 0,0.310059 0,0.103352 0,0.330729 z"
         style="font-family:'Roboto Mono';-inkscape-font-specification:'Roboto Mono Bold';fill:#000000;stroke:none"
         id="path27512" /></g><path
       style="fill:#000000;fill-opacity:1;stroke:#000000;stroke-width:1.672;stroke-dasharray:none;stroke-opacity:1"
       d="m -274.77286,238.5452 0,-56.56767"
       id="path14276"
       sodipodi:nodetypes="cc" /><g
       aria-label="16"
       id="text14319"
       style="font-weight:bold;font-size:14.1111px;font-family:'Avenir Next';-inkscape-font-specification:'Avenir Next Bold';text-align:center;text-anchor:middle;fill:#ffffff;stroke:#000000;stroke-width:0.972"><path
         d="m 12.80852,227.47105 v -10.03211 h -0.103353 l -4.3683776,1.57786 v 1.66742 l 2.5355886,-0.9095 v 7.69633 z"
         style="font-family:'Roboto Mono';-inkscape-font-specification:'Roboto Mono Bold';fill:#000000;stroke:none"
         id="path27497" /><path
         d="m 21.669299,217.35626 h -0.254937 q -1.247123,0 -2.197969,0.4203 -0.950846,0.41341 -1.591633,1.15066 -0.640787,0.74414 -0.964626,1.76389 -0.323839,1.01286 -0.323839,2.20486 v 0.73725 q 0,0.86127 0.241157,1.59163 0.248046,0.72347 0.702799,1.25402 0.447862,0.53054 1.095539,0.83371 0.647678,0.29628 1.453829,0.29628 0.771701,0 1.391818,-0.26183 0.620117,-0.26872 1.054198,-0.73036 0.434082,-0.46164 0.668348,-1.08865 0.234267,-0.62701 0.234267,-1.35736 0,-0.68213 -0.179145,-1.29536 -0.172255,-0.62012 -0.530544,-1.08865 -0.35829,-0.46164 -0.895725,-0.73036 -0.530544,-0.27561 -1.247123,-0.27561 -0.3514,0 -0.654568,0.0827 -0.303168,0.0827 -0.558105,0.21359 -0.261827,0.13781 -0.468533,0.31006 -0.206705,0.16536 -0.365179,0.33762 0.06201,-0.62701 0.296278,-1.13688 0.241156,-0.50988 0.654567,-0.87505 0.406521,-0.36518 0.985297,-0.565 0.585666,-0.19982 1.343586,-0.19982 h 0.110243 z m -1.901691,4.96094 q 0.358289,0 0.633897,0.14469 0.282497,0.1378 0.475423,0.38585 0.192925,0.25494 0.296278,0.59945 0.103352,0.3445 0.103352,0.75103 0,0.40652 -0.103352,0.75103 -0.103353,0.33762 -0.296278,0.58566 -0.192926,0.24805 -0.468533,0.39274 -0.275607,0.13781 -0.613227,0.13781 -0.330728,0 -0.613226,-0.13781 -0.282498,-0.1378 -0.489203,-0.41341 -0.206706,-0.26872 -0.323839,-0.68213 -0.110243,-0.41341 -0.110243,-0.96462 v -0.565 q 0.09646,-0.2067 0.234266,-0.37896 0.144694,-0.17225 0.316949,-0.30317 0.199815,-0.14469 0.440972,-0.22048 0.241156,-0.0827 0.516764,-0.0827 z"
         style="font-family:'Roboto Mono';-inkscape-font-specification:'Roboto Mono Bold';fill:#000000;stroke:none"
         id="path27499" /></g><g
       aria-label="0x0500"
       id="text15137"
       style="font-weight:bold;font-size:14.1111px;font-family:'Avenir Next';-inkscape-font-specification:'Avenir Next Bold';text-align:center;text-anchor:middle;fill:#ffffff;stroke:#000000;stroke-width:0.972"><path
         d="M -257.97848,187.07679 V 184.679 q 0,-0.97151 -0.22737,-1.70876 -0.22738,-0.74414 -0.64768,-1.24713 -0.42719,-0.49609 -1.03353,-0.75103 -0.60633,-0.25493 -1.36425,-0.25493 -0.75103,0 -1.35737,0.25493 -0.59945,0.25494 -1.01975,0.75103 -0.42719,0.50299 -0.65457,1.24713 -0.22737,0.73725 -0.22737,1.70876 v 2.39779 q 0,0.97151 0.22737,1.71565 0.23427,0.73725 0.66146,1.23335 0.4203,0.50298 1.02664,0.75792 0.60634,0.25494 1.35737,0.25494 0.75792,0 1.36425,-0.25494 0.60634,-0.25494 1.02664,-0.75792 0.4203,-0.4961 0.64079,-1.23335 0.22737,-0.74414 0.22737,-1.71565 z m -4.60264,-0.82682 q 0,-0.2136 0,-0.32384 0,-0.11025 0,-0.44097 v -1.10932 q 0,-0.55811 0.0827,-0.96463 0.0896,-0.40652 0.26872,-0.66146 0.16536,-0.24115 0.40652,-0.35829 0.24805,-0.12402 0.57189,-0.12402 0.28938,0 0.51676,0.0965 0.23427,0.0896 0.39274,0.2825 0.20671,0.24116 0.31006,0.64768 0.11024,0.39963 0.12402,0.96462 z m 2.67339,1.11621 q 0,0.5581 -0.0896,0.97151 -0.0827,0.40652 -0.25494,0.66835 -0.16536,0.24805 -0.41341,0.37207 -0.24805,0.11713 -0.57188,0.11713 -0.3514,0 -0.60634,-0.1378 -0.25494,-0.1378 -0.4203,-0.4203 -0.1447,-0.23427 -0.22738,-0.58567 -0.0758,-0.3514 -0.0896,-0.80615 l 2.67339,-1.98437 q 0,0.19981 0,0.31006 0,0.10335 0,0.33072 z"
         style="font-family:'Roboto Mono';-inkscape-font-specification:'Roboto Mono Bold';fill:#000000;stroke:none"
         id="path27484" /><path
         d="m -252.63169,185.76765 -1.61231,-2.32888 h -2.06016 l 2.49425,3.65869 -2.59071,3.79649 h 2.07394 l 1.70188,-2.43912 1.71565,2.43912 h 2.06706 l -2.59071,-3.79649 2.50114,-3.65869 h -2.06017 z"
         style="font-family:'Roboto Mono';-inkscape-font-specification:'Roboto Mono Bold';fill:#000000;stroke:none"
         id="path27486" /><path
         d="M -241.0424,187.07679 V 184.679 q 0,-0.97151 -0.22738,-1.70876 -0.22737,-0.74414 -0.64767,-1.24713 -0.42719,-0.49609 -1.03353,-0.75103 -0.60634,-0.25493 -1.36426,-0.25493 -0.75103,0 -1.35736,0.25493 -0.59945,0.25494 -1.01975,0.75103 -0.42719,0.50299 -0.65457,1.24713 -0.22738,0.73725 -0.22738,1.70876 v 2.39779 q 0,0.97151 0.22738,1.71565 0.23427,0.73725 0.66146,1.23335 0.4203,0.50298 1.02664,0.75792 0.60633,0.25494 1.35736,0.25494 0.75792,0 1.36426,-0.25494 0.60634,-0.25494 1.02664,-0.75792 0.4203,-0.4961 0.64078,-1.23335 0.22738,-0.74414 0.22738,-1.71565 z m -4.60264,-0.82682 q 0,-0.2136 0,-0.32384 0,-0.11025 0,-0.44097 v -1.10932 q 0,-0.55811 0.0827,-0.96463 0.0896,-0.40652 0.26872,-0.66146 0.16536,-0.24115 0.40652,-0.35829 0.24804,-0.12402 0.57188,-0.12402 0.28939,0 0.51677,0.0965 0.23426,0.0896 0.39274,0.2825 0.2067,0.24116 0.31006,0.64768 0.11024,0.39963 0.12402,0.96462 z m 2.67339,1.11621 q 0,0.5581 -0.0896,0.97151 -0.0827,0.40652 -0.25494,0.66835 -0.16536,0.24805 -0.41341,0.37207 -0.24805,0.11713 -0.57189,0.11713 -0.3514,0 -0.60633,-0.1378 -0.25494,-0.1378 -0.4203,-0.4203 -0.1447,-0.23427 -0.22738,-0.58567 -0.0758,-0.3514 -0.0896,-0.80615 l 2.67339,-1.98437 q 0,0.19981 0,0.31006 0,0.10335 0,0.33072 z"
         style="font-family:'Roboto Mono';-inkscape-font-specification:'Roboto Mono Bold';fill:#000000;stroke:none"
         id="path27488" /><path
         d="m -239.00979,185.95369 1.52962,0.37896 q 0.11024,-0.11024 0.23426,-0.20671 0.12403,-0.10335 0.2825,-0.17914 0.15848,-0.0758 0.36518,-0.12403 0.20671,-0.0482 0.4892,-0.0482 0.42031,0 0.73036,0.13092 0.31006,0.13091 0.51677,0.37207 0.2067,0.24115 0.30317,0.57877 0.10335,0.33073 0.10335,0.73036 0,0.40652 -0.0827,0.75792 -0.0758,0.3514 -0.24116,0.60634 -0.17225,0.25494 -0.44786,0.39963 -0.26872,0.14469 -0.65457,0.14469 -0.62701,0 -1.03353,-0.35829 -0.39963,-0.35829 -0.46853,-1.01285 h -1.88791 q 0.0207,0.69591 0.31006,1.24023 0.29628,0.53743 0.76481,0.9095 0.46853,0.37207 1.06798,0.565 0.60633,0.19293 1.25401,0.19293 0.85438,0 1.48139,-0.26872 0.62701,-0.26872 1.04042,-0.73036 0.41341,-0.46164 0.61322,-1.06798 0.19982,-0.60634 0.19982,-1.28158 0,-0.79237 -0.20671,-1.41937 -0.2067,-0.62701 -0.59255,-1.06109 -0.39274,-0.43408 -0.96463,-0.66146 -0.56499,-0.23427 -1.28846,-0.23427 -0.50988,0 -0.90262,0.13092 -0.39274,0.13091 -0.60633,0.25493 l 0.24115,-2.20486 h 3.98942 v -1.62608 h -5.56727 z"
         style="font-family:'Roboto Mono';-inkscape-font-specification:'Roboto Mono Bold';fill:#000000;stroke:none"
         id="path27490" /><path
         d="M -224.10632,187.07679 V 184.679 q 0,-0.97151 -0.22738,-1.70876 -0.22737,-0.74414 -0.64768,-1.24713 -0.42719,-0.49609 -1.03352,-0.75103 -0.60634,-0.25493 -1.36426,-0.25493 -0.75103,0 -1.35737,0.25493 -0.59944,0.25494 -1.01974,0.75103 -0.4272,0.50299 -0.65457,1.24713 -0.22738,0.73725 -0.22738,1.70876 v 2.39779 q 0,0.97151 0.22738,1.71565 0.23426,0.73725 0.66146,1.23335 0.4203,0.50298 1.02663,0.75792 0.60634,0.25494 1.35737,0.25494 0.75792,0 1.36426,-0.25494 0.60633,-0.25494 1.02663,-0.75792 0.42031,-0.4961 0.64079,-1.23335 0.22738,-0.74414 0.22738,-1.71565 z m -4.60265,-0.82682 q 0,-0.2136 0,-0.32384 0,-0.11025 0,-0.44097 v -1.10932 q 0,-0.55811 0.0827,-0.96463 0.0896,-0.40652 0.26871,-0.66146 0.16537,-0.24115 0.40652,-0.35829 0.24805,-0.12402 0.57189,-0.12402 0.28939,0 0.51676,0.0965 0.23427,0.0896 0.39274,0.2825 0.20671,0.24116 0.31006,0.64768 0.11025,0.39963 0.12403,0.96462 z m 2.6734,1.11621 q 0,0.5581 -0.0896,0.97151 -0.0827,0.40652 -0.25493,0.66835 -0.16537,0.24805 -0.41341,0.37207 -0.24805,0.11713 -0.57189,0.11713 -0.3514,0 -0.60634,-0.1378 -0.25493,-0.1378 -0.4203,-0.4203 -0.14469,-0.23427 -0.22737,-0.58567 -0.0758,-0.3514 -0.0896,-0.80615 l 2.6734,-1.98437 q 0,0.19981 0,0.31006 0,0.10335 0,0.33072 z"
         style="font-family:'Roboto Mono';-inkscape-font-specification:'Roboto Mono Bold';fill:#000000;stroke:none"
         id="path27492" /><path
         d="M -215.63828,187.07679 V 184.679 q 0,-0.97151 -0.22738,-1.70876 -0.22737,-0.74414 -0.64768,-1.24713 -0.42719,-0.49609 -1.03352,-0.75103 -0.60634,-0.25493 -1.36426,-0.25493 -0.75103,0 -1.35737,0.25493 -0.59944,0.25494 -1.01974,0.75103 -0.4272,0.50299 -0.65457,1.24713 -0.22738,0.73725 -0.22738,1.70876 v 2.39779 q 0,0.97151 0.22738,1.71565 0.23426,0.73725 0.66146,1.23335 0.4203,0.50298 1.02663,0.75792 0.60634,0.25494 1.35737,0.25494 0.75792,0 1.36426,-0.25494 0.60633,-0.25494 1.02663,-0.75792 0.42031,-0.4961 0.64079,-1.23335 0.22738,-0.74414 0.22738,-1.71565 z m -4.60265,-0.82682 q 0,-0.2136 0,-0.32384 0,-0.11025 0,-0.44097 v -1.10932 q 0,-0.55811 0.0827,-0.96463 0.0896,-0.40652 0.26871,-0.66146 0.16537,-0.24115 0.40652,-0.35829 0.24805,-0.12402 0.57189,-0.12402 0.28939,0 0.51676,0.0965 0.23427,0.0896 0.39274,0.2825 0.20671,0.24116 0.31006,0.64768 0.11025,0.39963 0.12403,0.96462 z m 2.6734,1.11621 q 0,0.5581 -0.0896,0.97151 -0.0827,0.40652 -0.25493,0.66835 -0.16537,0.24805 -0.41341,0.37207 -0.24805,0.11713 -0.57189,0.11713 -0.3514,0 -0.60634,-0.1378 -0.25493,-0.1378 -0.4203,-0.4203 -0.14469,-0.23427 -0.22737,-0.58567 -0.0758,-0.3514 -0.0896,-0.80615 l 2.6734,-1.98437 q 0,0.19981 0,0.31006 0,0.10335 0,0.33072 z"
         style="font-family:'Roboto Mono';-inkscape-font-specification:'Roboto Mono Bold';fill:#000000;stroke:none"
         id="path27494" /></g></g></svg>
