<?xml version="1.0" encoding="UTF-8" standalone="no"?>
<svg
   xmlns:dc="http://purl.org/dc/elements/1.1/"
   xmlns:cc="http://creativecommons.org/ns#"
   xmlns:rdf="http://www.w3.org/1999/02/22-rdf-syntax-ns#"
   xmlns:svg="http://www.w3.org/2000/svg"
   xmlns="http://www.w3.org/2000/svg"
   xmlns:sodipodi="http://sodipodi.sourceforge.net/DTD/sodipodi-0.dtd"
   xmlns:inkscape="http://www.inkscape.org/namespaces/inkscape"
   width="1770.4646"
   height="1171.5273"
   viewBox="35.188 31.512 248.899 164.67882"
   version="1.1"
   id="svg8"
   sodipodi:docname="nvidia.svg"
   inkscape:version="0.92.4 (5da689c313, 2019-01-14)">
  <metadata
     id="metadata14">
    <rdf:RDF>
      <cc:Work
         rdf:about="">
        <dc:format>image/svg+xml</dc:format>
        <dc:type
           rdf:resource="http://purl.org/dc/dcmitype/StillImage" />
        <dc:title>generated by pstoedit version:3.44 from NVBadge_2D.eps</dc:title>
      </cc:Work>
    </rdf:RDF>
  </metadata>
  <defs
     id="defs12" />
  <sodipodi:namedview
     pagecolor="#ffffff"
     bordercolor="#666666"
     borderopacity="1"
     objecttolerance="10"
     gridtolerance="10"
     guidetolerance="10"
     inkscape:pageopacity="0"
     inkscape:pageshadow="2"
     inkscape:window-width="2266"
     inkscape:window-height="1502"
     id="namedview10"
     showgrid="false"
     fit-margin-top="0"
     fit-margin-left="0"
     fit-margin-right="0"
     fit-margin-bottom="0"
     inkscape:zoom="0.5127648"
     inkscape:cx="1410.3364"
     inkscape:cy="51.904509"
     inkscape:window-x="0"
     inkscape:window-y="0"
     inkscape:window-maximized="0"
     inkscape:current-layer="svg8" />
  <title
     id="title2">generated by pstoedit version:3.44 from NVBadge_2D.eps</title>
  <path
     d="m 60.618,102.39893 c 0,0 22.504,-33.203002 67.437,-36.638002 v -12.046 c -49.769,3.997 -92.867,46.149 -92.867,46.149 0,0 24.41,70.564002 92.867,77.026002 v -12.804 c -50.237,-6.32 -67.437,-61.687 -67.437,-61.687 z m 67.437,36.223 v 11.727 c -37.968,-6.77 -48.507,-46.237 -48.507,-46.237 0,0 18.23,-20.195002 48.507,-23.470002 v 12.867 c -0.023,0 -0.039,-0.007 -0.058,-0.007 -15.891,-1.907 -28.305,12.938002 -28.305,12.938002 0,0 6.958,24.99 28.363,32.182 m 0,-107.125002 v 22.218 c 1.461,-0.112 2.922,-0.207 4.391,-0.257 56.582,-1.907 93.449,46.406 93.449,46.406 0,0 -42.343,51.488002 -86.457,51.488002 -4.043,0 -7.828,-0.375 -11.383,-1.005 v 13.739 a 75.04,75.04 0 0 0 9.481,0.612 c 41.051,0 70.738,-20.965 99.484,-45.778 4.766,3.817 24.278,13.103 28.289,17.167 -27.332,22.884 -91.031,41.33 -127.144,41.33 -3.481,0 -6.824,-0.211 -10.11,-0.528 v 19.306 H 284.087 V 31.496928 Z m 0,49.144 v -14.879 c 1.446,-0.101 2.903,-0.179 4.391,-0.226 40.688,-1.278 67.382,34.965002 67.382,34.965002 0,0 -28.832,40.042 -59.746,40.042 -4.449,0 -8.438,-0.715 -12.028,-1.922 V 93.507928 c 15.84,1.914 19.028,8.911002 28.551,24.786002 l 21.181,-17.859 c 0,0 -15.461,-20.277002 -41.524,-20.277002 -2.834,-0.001 -5.545,0.198 -8.207,0.483"
     id="path6"
     inkscape:connector-curvature="0"
     style="fill:#77b900" />
</svg>
