<svg xmlns="http://www.w3.org/2000/svg" width="387.859" height="138.89" viewBox="-5 -5 73.301 26.249"><defs><marker id="a" markerHeight="6.707" markerWidth="4.061" orient="auto-start-reverse" overflow="visible" preserveAspectRatio="xMidYMid" refX="0" refY="0" viewBox="0 0 4.061 6.707"><path fill="none" stroke="context-stroke" d="M3-3 0 0l3 3" transform="rotate(180 .125 0)"/></marker></defs><path fill="none" stroke="#595959" stroke-linejoin="round" stroke-width=".42" marker-end="url(#a)" d="M6.901 21.295h61.244" transform="translate(-6.68 -6.494)"/><path fill="#f0e35f" d="M1.987 5.183h12.927v9.443H1.987z"/><text xml:space="preserve" x="38.066" y="6.054" fill="#666" stroke="#000" stroke-linejoin="round" stroke-width=".416" font-family="sans-serif" font-size="3.175" style="line-height:1;-inkscape-font-specification:sans-serif;text-align:center" text-anchor="middle" transform="translate(-6.68 -6.494)"><tspan x="38.066" y="6.054" fill="#020202" stroke="none" style="line-height:1">Key</tspan><tspan x="38.066" y="9.229" fill="#020202" stroke="none" style="line-height:1">up</tspan></text><path fill="#60ccf9" d="M14.75 5.175h14.356v9.443H14.75z"/><text xml:space="preserve" x="7.789" y="6.314" fill="#666" stroke="#000" stroke-linejoin="round" stroke-width=".416" font-family="sans-serif" font-size="3.175" style="line-height:1;-inkscape-font-specification:sans-serif;text-align:center" text-anchor="middle" transform="translate(-6.68 -6.494)"><tspan x="7.789" y="6.314" fill="#020202" stroke="none" style="line-height:1">Key</tspan><tspan x="7.789" y="9.489" fill="#020202" stroke="none" style="line-height:1">down</tspan></text><text xml:space="preserve" x="28.494" y="17.848" fill="#666" stroke="#000" stroke-linejoin="round" stroke-width=".416" font-family="sans-serif" font-size="4.233" style="line-height:1;-inkscape-font-specification:sans-serif;text-align:center" text-anchor="middle" transform="translate(-6.68 -6.494)"><tspan x="28.494" y="17.848" fill="#020202" stroke="none" style="line-height:1">Esc</tspan></text><text xml:space="preserve" x="15.134" y="17.836" fill="#666" stroke="#000" stroke-linejoin="round" stroke-width=".416" font-family="sans-serif" font-size="4.233" style="line-height:1;-inkscape-font-specification:sans-serif;text-align:center" text-anchor="middle" transform="translate(-6.68 -6.494)"><tspan x="15.134" y="17.836" fill="#020202" stroke="none" style="line-height:1">Ctrl</tspan></text><text xml:space="preserve" x="23.044" y="5.907" fill="#666" stroke="#000" stroke-linejoin="round" stroke-width=".416" font-family="sans-serif" font-size="3.175" style="line-height:1;-inkscape-font-specification:sans-serif;text-align:center" text-anchor="middle" transform="translate(-6.68 -6.494)"><tspan x="23.044" y="5.907" fill="#020202" stroke="none" style="line-height:1">Settled</tspan><tspan x="23.044" y="9.082" fill="#020202" stroke="none" style="line-height:1">as tapped</tspan></text><path fill="none" stroke="#000" stroke-linecap="round" stroke-linejoin="round" stroke-width=".591" d="M29.161 4.635v10.993M1.977 4.708V15.7M14.776 4.492v10.993" paint-order="markers stroke fill"/><text xml:space="preserve" x="69.169" y="26.826" fill="#595959" stroke-linejoin="round" stroke-width=".416" font-family="sans-serif" font-size="4.233" style="-inkscape-font-specification:sans-serif;text-align:center" text-anchor="middle" transform="translate(-6.68 -6.494)"><tspan x="69.169" y="26.826">Time</tspan></text><path fill="#f0e35f" stroke="#825300" stroke-linecap="round" stroke-linejoin="round" stroke-width=".538" d="m3.89 11.136-1.628-.322-1.19 1.158-.196-1.648-1.469-.773 1.507-.696.281-1.637 1.128 1.219 1.643-.239-.81 1.45z" paint-order="markers stroke fill"/><path fill="#c2f5ee" stroke="#d18300" stroke-linecap="round" stroke-linejoin="round" stroke-width=".324" d="m.055 8.16-1.786-1.323m1.68 4.397-1.25 1.133" paint-order="markers stroke fill"/></svg>