<svg xmlns="http://www.w3.org/2000/svg" xmlns:xlink="http://www.w3.org/1999/xlink" width="382.401" height="146.733" viewBox="-8 -8 72.269 27.731"><defs><path id="a" fill="none" stroke="context-stroke" d="M3-3 0 0l3 3"/></defs><defs><marker id="b" markerHeight="6.707" markerWidth="4.061" orient="auto-start-reverse" overflow="visible" preserveAspectRatio="xMidYMid" refX="0" refY="0" viewBox="0 0 4.061 6.707"><use xlink:href="#a" transform="rotate(180 .125 0)"/></marker><marker id="c" markerHeight="1" markerWidth="1" orient="auto-start-reverse" overflow="visible" preserveAspectRatio="xMidYMid" refX="0" refY="0" viewBox="0 0 1 1"><use xlink:href="#a" transform="rotate(180 .125 0)"/></marker></defs><path fill="#e2c82e" d="M29.336 2.04h17.821v9.442h-17.82z"/><path fill="#f0e35f" d="M-2.039 2.14H29.48v9.442H-2.039z"/><text xml:space="preserve" x="24.147" y="20.524" stroke="#000" stroke-linejoin="round" stroke-width=".416" font-family="sans-serif" font-size="4.233" style="line-height:1;-inkscape-font-specification:sans-serif;text-align:center" text-anchor="middle" transform="translate(-10.94 -11.963)"><tspan x="24.147" y="20.524" stroke="none" style="line-height:1">Ctrl</tspan></text><text xml:space="preserve" x="69.398" y="29.099" fill="#595959" stroke-linejoin="round" stroke-width=".416" font-family="sans-serif" font-size="4.233" style="-inkscape-font-specification:sans-serif;text-align:center" text-anchor="middle" transform="translate(-10.94 -11.963)"><tspan x="69.398" y="29.099">Time</tspan></text><text xml:space="preserve" x="9.049" y="8.803" fill="#666" stroke="#000" stroke-linejoin="round" stroke-width=".416" font-family="sans-serif" font-size="3.175" style="line-height:1;-inkscape-font-specification:sans-serif;text-align:center" text-anchor="middle" transform="translate(-10.94 -11.963)"><tspan x="9.049" y="8.803" fill="#020202" stroke="none" style="line-height:1">Key</tspan><tspan x="9.049" y="11.978" fill="#020202" stroke="none" style="line-height:1">down</tspan></text><text xml:space="preserve" x="58.508" y="8.277" fill="#666" stroke="#000" stroke-linejoin="round" stroke-width=".416" font-family="sans-serif" font-size="3.175" style="line-height:1;-inkscape-font-specification:sans-serif;text-align:center" text-anchor="middle" transform="translate(-10.94 -11.963)"><tspan x="58.508" y="8.277" fill="#020202" stroke="none" style="line-height:1">Key</tspan><tspan x="58.508" y="11.452" fill="#020202" stroke="none" style="line-height:1">up</tspan></text><text xml:space="preserve" x="48.888" y="20.48" fill="#666" stroke="#000" stroke-linejoin="round" stroke-width=".416" font-family="sans-serif" font-size="4.233" style="line-height:1;-inkscape-font-specification:sans-serif;text-align:center" text-anchor="middle" transform="translate(-10.94 -11.963)"><tspan x="48.888" y="20.48" fill="#020202" stroke="none" style="line-height:1">Ctrl</tspan></text><text xml:space="preserve" x="40.364" y="8.599" fill="#666" stroke="#000" stroke-linejoin="round" stroke-width=".416" font-family="sans-serif" font-size="3.175" style="line-height:1;-inkscape-font-specification:sans-serif;text-align:center" text-anchor="middle" transform="translate(-10.94 -11.963)"><tspan x="40.364" y="8.599" fill="#020202" stroke="none" style="line-height:1">Settled</tspan><tspan x="40.364" y="11.774" fill="#020202" stroke="none" style="line-height:1">as held</tspan></text><text xml:space="preserve" x="24.862" y="27.598" fill="#595959" stroke="#000" stroke-linejoin="round" stroke-width=".416" font-family="sans-serif" font-size="3.175" style="line-height:1;-inkscape-font-specification:sans-serif;text-align:center" text-anchor="middle" transform="translate(-10.94 -11.963)"><tspan x="24.862" y="27.598" stroke="none" style="line-height:1">Tapping term</tspan></text><path fill="none" stroke="#595959" stroke-linejoin="round" stroke-width=".42" marker-end="url(#b)" d="M7.13 23.567h61.244" transform="translate(-10.94 -11.963)"/><path fill="none" stroke="#000" stroke-linecap="round" stroke-linejoin="round" stroke-width=".591" d="M-2.084 1.728v10.993M47.206 1.63v10.992M29.468 1.565V12.56" paint-order="markers stroke fill"/><path fill="none" stroke="#595959" stroke-linecap="round" stroke-linejoin="round" stroke-width=".365" marker-end="url(#c)" marker-start="url(#c)" d="M9.339 28.843h30.709" paint-order="markers stroke fill" transform="translate(-10.94 -11.963)"/><path fill="none" stroke="#595959" stroke-linejoin="round" stroke-width=".365" d="M-1.986 15.016v3.79m31.441-3.722v3.79" paint-order="markers stroke fill"/><path fill="#f0e35f" stroke="#825300" stroke-linecap="round" stroke-linejoin="round" stroke-width=".538" d="m-.196 8.204-1.628-.323-1.19 1.159-.196-1.649-1.47-.773 1.508-.696.281-1.636 1.128 1.218 1.643-.238-.81 1.449z" paint-order="markers stroke fill"/><path fill="#c2f5ee" stroke="#d18300" stroke-linecap="round" stroke-linejoin="round" stroke-width=".324" d="m-4.032 5.227-1.785-1.322m1.68 4.395-1.25 1.135" paint-order="markers stroke fill"/></svg>