#define image_width 60
#define image_height 80
static char image_bits[] = {
   0xff, 0xff, 0xff, 0xff, 0xff, 0xff, 0xff, 0x0f, 0x01, 0x00, 0x00, 0x00,
   0x00, 0x00, 0x00, 0x08, 0x01, 0x00, 0x00, 0x10, 0x00, 0x00, 0x00, 0x08,
   0x01, 0x00, 0x00, 0x10, 0x08, 0x00, 0x00, 0x08, 0x01, 0x00, 0x00, 0x10,
   0x16, 0x00, 0x00, 0x08, 0x01, 0x00, 0x00, 0x13, 0xf1, 0x00, 0x00, 0x08,
   0x01, 0x00, 0xe0, 0xac, 0x00, 0x00, 0x00, 0x08, 0x01, 0x00, 0x10, 0x40,
   0x18, 0x00, 0x00, 0x08, 0x01, 0x00, 0x18, 0x2f, 0xa4, 0x03, 0x00, 0x08,
   0x01, 0x00, 0x8c, 0x00, 0x62, 0x00, 0x00, 0x08, 0x01, 0x00, 0x44, 0x00,
   0x02, 0x00, 0x00, 0x08, 0x01, 0x00, 0x44, 0x80, 0xe1, 0x01, 0x00, 0x08,
   0x01, 0x00, 0x44, 0x00, 0x10, 0x02, 0x00, 0x08, 0x01, 0x00, 0x24, 0x00,
   0x08, 0x04, 0x00, 0x08, 0x01, 0x00, 0x28, 0x00, 0x80, 0x01, 0x00, 0x08,
   0x01, 0x00, 0x24, 0x00, 0x00, 0x03, 0x00, 0x08, 0x01, 0x00, 0x24, 0x00,
   0x00, 0x03, 0x00, 0x08, 0x01, 0x00, 0x46, 0x00, 0x00, 0x01, 0x00, 0x08,
   0x01, 0x00, 0x05, 0x18, 0x03, 0x03, 0x00, 0x08, 0x01, 0x00, 0x05, 0x18,
   0x03, 0x01, 0x00, 0x08, 0x01, 0x00, 0x05, 0x18, 0x03, 0x01, 0x00, 0x08,
   0x01, 0x00, 0x05, 0x08, 0x01, 0x01, 0x00, 0x08, 0x01, 0x00, 0x05, 0x08,
   0x01, 0x01, 0x00, 0x08, 0x01, 0x00, 0x05, 0x00, 0x00, 0x01, 0x00, 0x08,
   0x01, 0x00, 0x06, 0x00, 0x00, 0x03, 0x00, 0x08, 0x01, 0x00, 0x04, 0x00,
   0x00, 0x05, 0x00, 0x08, 0x01, 0x00, 0x04, 0x00, 0x00, 0x09, 0x00, 0x08,
   0x01, 0x00, 0x04, 0x00, 0x80, 0x12, 0x00, 0x08, 0x01, 0x00, 0x04, 0x00,
   0x80, 0x24, 0x00, 0x08, 0x01, 0x00, 0x08, 0x00, 0x80, 0x48, 0x00, 0x08,
   0x01, 0x00, 0x08, 0x04, 0x82, 0x91, 0x00, 0x08, 0x01, 0x00, 0x08, 0x0e,
   0x81, 0xa2, 0x00, 0x08, 0x01, 0x00, 0x08, 0xfc, 0x41, 0x24, 0x01, 0x08,
   0x01, 0x00, 0x10, 0x78, 0x40, 0x44, 0x01, 0x08, 0x01, 0x00, 0x10, 0x00,
   0x60, 0x83, 0x00, 0x08, 0x01, 0x00, 0x10, 0x00, 0xe1, 0x40, 0x00, 0x08,
   0x01, 0x00, 0x20, 0xf0, 0x20, 0x40, 0x00, 0x08, 0x01, 0x00, 0x20, 0x60,
   0x30, 0x20, 0x00, 0x08, 0x01, 0x00, 0x40, 0x00, 0x30, 0x10, 0x00, 0x08,
   0x01, 0x00, 0x40, 0x00, 0x28, 0x08, 0x00, 0x08, 0x01, 0x00, 0x80, 0x00,
   0x2c, 0x08, 0x00, 0x08, 0x01, 0x00, 0x80, 0x03, 0x4e, 0x10, 0x00, 0x08,
   0x01, 0x00, 0xc0, 0x87, 0x5f, 0x20, 0x00, 0x08, 0x01, 0x00, 0xf0, 0xff,
   0xff, 0xe0, 0x03, 0x08, 0x01, 0xf8, 0xff, 0xff, 0xff, 0xc1, 0x07, 0x08,
   0x01, 0xfe, 0xff, 0xff, 0xff, 0xc1, 0x0f, 0x08, 0x01, 0xff, 0xff, 0xff,
   0xff, 0xbf, 0x1f, 0x08, 0x81, 0x7f, 0x00, 0x00, 0x00, 0x60, 0x1f, 0x08,
   0xc1, 0x7f, 0x00, 0x00, 0x00, 0x58, 0x3e, 0x08, 0xc1, 0xbf, 0x01, 0x00,
   0x00, 0x44, 0x3c, 0x08, 0xe1, 0x3f, 0x02, 0x00, 0x00, 0x42, 0x38, 0x08,
   0xe1, 0x3f, 0x0c, 0x00, 0x00, 0x41, 0x30, 0x08, 0xe1, 0x3f, 0x10, 0x00,
   0x80, 0x40, 0x60, 0x08, 0xe1, 0x3f, 0x20, 0x00, 0x40, 0x40, 0x60, 0x08,
   0xf1, 0x3f, 0xc0, 0xff, 0x7f, 0x40, 0xc0, 0x08, 0xf9, 0x3f, 0x40, 0x00,
   0x40, 0x40, 0x80, 0x09, 0xf9, 0x3f, 0x40, 0x00, 0x40, 0x40, 0x00, 0x09,
   0xfd, 0x3f, 0x40, 0x00, 0x40, 0x40, 0x00, 0x0b, 0xfd, 0x3f, 0x40, 0x00,
   0x40, 0xc0, 0x00, 0x0a, 0xff, 0x3f, 0x40, 0x00, 0x40, 0xc0, 0x00, 0x0c,
   0xff, 0x3f, 0x40, 0x00, 0x40, 0xc0, 0x01, 0x0c, 0xff, 0x3f, 0x40, 0x00,
   0x40, 0xc0, 0x01, 0x08, 0xff, 0x3f, 0x40, 0x00, 0x40, 0xc0, 0x03, 0x08,
   0xff, 0x3f, 0x40, 0x00, 0x40, 0xc0, 0x03, 0x08, 0xf9, 0x3f, 0x40, 0x00,
   0x40, 0xc0, 0x07, 0x08, 0xc1, 0x3f, 0x40, 0x00, 0x40, 0xc0, 0x07, 0x08,
   0x01, 0x3e, 0x40, 0x00, 0x40, 0xe0, 0x0f, 0x08, 0x01, 0x78, 0x40, 0x00,
   0x40, 0xd0, 0x1f, 0x08, 0x01, 0xf0, 0x40, 0x00, 0x40, 0x88, 0x1f, 0x08,
   0x01, 0x40, 0x41, 0x00, 0x40, 0x04, 0x3f, 0x08, 0x01, 0x20, 0x42, 0x00,
   0x40, 0x02, 0x7e, 0x08, 0x01, 0x10, 0x4c, 0x00, 0x40, 0x01, 0xfc, 0x08,
   0x01, 0x08, 0x50, 0x00, 0xc0, 0x00, 0xf8, 0x09, 0x01, 0x06, 0xe0, 0xff,
   0x7f, 0x00, 0xf0, 0x0b, 0xff, 0x03, 0x00, 0x00, 0x00, 0x00, 0xe0, 0x0f,
   0xff, 0xff, 0xff, 0xff, 0xff, 0xff, 0xff, 0x0f, 0xff, 0x01, 0x00, 0x00,
   0x00, 0x00, 0xc0, 0x0f, 0xff, 0x55, 0x01, 0x00, 0x00, 0x00, 0xc0, 0x0f,
   0xff, 0x55, 0x01, 0x00, 0x00, 0x00, 0xc0, 0x0f, 0xff, 0xff, 0xff, 0xff,
   0xff, 0xff, 0xff, 0x0f};
