#define next_width 20
#define next_height 20
static char next_bits[] = {
   0x00, 0x00, 0x00, 0x00, 0x00, 0x00, 0x00, 0x04, 0x00, 0x00, 0x0c, 0x00,
   0x00, 0x1c, 0x00, 0x00, 0x34, 0x00, 0xfc, 0x67, 0x00, 0x04, 0xc0, 0x00,
   0x04, 0x80, 0x01, 0x04, 0x00, 0x03, 0x04, 0x00, 0x03, 0x04, 0x80, 0x01,
   0x04, 0xc0, 0x00, 0xfc, 0x67, 0x00, 0x00, 0x34, 0x00, 0x00, 0x1c, 0x00,
   0x00, 0x0c, 0x00, 0x00, 0x04, 0x00, 0x00, 0x00, 0x00, 0x00, 0x00, 0x00};
