<?xml version="1.0" encoding="UTF-8" standalone="no"?>
<svg
   xmlns:dc="http://purl.org/dc/elements/1.1/"
   xmlns:cc="http://creativecommons.org/ns#"
   xmlns:rdf="http://www.w3.org/1999/02/22-rdf-syntax-ns#"
   xmlns:svg="http://www.w3.org/2000/svg"
   xmlns="http://www.w3.org/2000/svg"
   xmlns:sodipodi="http://sodipodi.sourceforge.net/DTD/sodipodi-0.dtd"
   xmlns:inkscape="http://www.inkscape.org/namespaces/inkscape"
   width="601"
   height="751"
   id="svg2"
   sodipodi:version="0.32"
   inkscape:version="0.91 r13725"
   version="1.0"
   sodipodi:docname="sl55.svg">
  <defs
     id="defs4" />
  <sodipodi:namedview
     id="base"
     pagecolor="#ffffff"
     bordercolor="#666666"
     borderopacity="1.0"
     gridtolerance="10000"
     guidetolerance="10"
     objecttolerance="10"
     inkscape:pageopacity="0.0"
     inkscape:pageshadow="2"
     inkscape:zoom="0.51466665"
     inkscape:cx="330.99699"
     inkscape:cy="430.7271"
     inkscape:document-units="px"
     inkscape:current-layer="layer1"
     width="601px"
     height="751px"
     inkscape:window-width="1280"
     inkscape:window-height="968"
     inkscape:window-x="-4"
     inkscape:window-y="0"
     showgrid="false"
     inkscape:window-maximized="0" />
  <metadata
     id="metadata7">
    <rdf:RDF>
      <cc:Work
         rdf:about="">
        <dc:format>image/svg+xml</dc:format>
        <dc:type
           rdf:resource="http://purl.org/dc/dcmitype/StillImage" />
      </cc:Work>
    </rdf:RDF>
  </metadata>
  <g
     inkscape:label="Layer 1"
     inkscape:groupmode="layer"
     id="layer1">
    <path
       inkscape:connector-curvature="0"
       style="color:#000000;display:inline;overflow:visible;visibility:visible;fill:#ffffff;fill-opacity:1;fill-rule:nonzero;stroke:#000000;stroke-width:1;stroke-linecap:butt;stroke-linejoin:miter;stroke-miterlimit:4;stroke-dashoffset:0;stroke-opacity:1;marker:none;marker-start:none;marker-mid:none;marker-end:none"
       d="m 38,0.5 525,0 c 20.775,0 37.5,16.725 37.5,37.5 l 0,675 c 0,20.775 -16.725,37.5 -37.5,37.5 l -525,0 C 17.225,750.5 0.5,733.775 0.5,713 L 0.5,38 C 0.5,17.225 17.225,0.5 38,0.5 Z"
       id="rect1872" />
    <path
       inkscape:connector-curvature="0"
       style="color:#000000;display:inline;overflow:visible;visibility:visible;fill:#000000;fill-opacity:1;fill-rule:nonzero;stroke:none;stroke-width:0.8735441;stroke-linecap:butt;stroke-linejoin:miter;stroke-miterlimit:4;stroke-dashoffset:0;stroke-opacity:1;marker:none;marker-start:none;marker-mid:none;marker-end:none"
       d="m 38,9.875 525,0 c 15.58125,0 28.125,12.54375 28.125,28.125 l 0,675 c 0,15.58125 -12.54375,28.125 -28.125,28.125 l -525,0 C 22.41875,741.125 9.875,728.58125 9.875,713 l 0,-675 C 9.875,22.41875 22.41875,9.875 38,9.875 Z"
       id="rect2760" />
    <path
       inkscape:connector-curvature="0"
       style="color:#000000;display:inline;overflow:visible;visibility:visible;fill:#ffffff;fill-opacity:1;fill-rule:nonzero;stroke:none;stroke-width:0.8735441;stroke-linecap:butt;stroke-linejoin:miter;stroke-miterlimit:4;stroke-dashoffset:0;stroke-opacity:1;marker:none;marker-start:none;marker-mid:none;marker-end:none"
       d="m 38,25.5 525,0 c 6.925,0 12.5,5.575 12.5,12.5 l 0,675 c 0,6.925 -5.575,12.5 -12.5,12.5 l -525,0 c -6.925,0 -12.5,-5.575 -12.5,-12.5 l 0,-675 c 0,-6.925 5.575,-12.5 12.5,-12.5 z"
       id="rect2762" />
    <g
       id="text4139"
       style="font-style:normal;font-weight:normal;font-size:52.8571701px;line-height:125%;font-family:sans-serif;letter-spacing:0px;word-spacing:0px;fill:#000000;fill-opacity:1;stroke:none;stroke-width:1px;stroke-linecap:butt;stroke-linejoin:miter;stroke-opacity:1"
       transform="scale(0.98831641,1.0118217)">
      <path
         inkscape:connector-curvature="0"
         id="path4177"
         style="font-weight:bold;font-size:135.91844177px"
         d="m 180.21001,99.989556 68.95472,0 0,19.312634 -43.40364,0 0,18.44986 40.81535,0 0,19.31263 -40.81535,0 0,42.00995 -25.55108,0 0,-99.085074 z" />
      <path
         inkscape:connector-curvature="0"
         id="path4179"
         style="font-weight:bold;font-size:135.91844177px"
         d="m 273.12301,99.989556 42.40814,0 q 18.91443,0 29.00213,8.428534 10.15406,8.36217 10.15406,23.89192 0,15.59611 -10.15406,24.02464 -10.0877,8.36217 -29.00213,8.36217 l -16.85707,0 0,34.37781 -25.55107,0 0,-99.085074 z m 25.55107,18.516234 0,27.6748 14.13605,0 q 7.43304,0 11.48139,-3.58379 4.04835,-3.65015 4.04835,-10.28679 0,-6.63665 -4.04835,-10.22043 -4.04835,-3.58379 -11.48139,-3.58379 l -14.13605,0 z" />
      <path
         inkscape:connector-curvature="0"
         id="path4181"
         style="font-weight:bold;font-size:135.91844177px"
         d="m 441.62736,103.10878 0,20.97179 q -8.16307,-3.65015 -15.92794,-5.50841 -7.76487,-1.85826 -14.66698,-1.85826 -9.15857,0 -13.53875,2.52192 -4.38019,2.52192 -4.38019,7.83124 0,3.98198 2.92013,6.23844 2.98648,2.19009 10.75136,3.78289 l 10.88409,2.19009 q 16.52524,3.31832 23.49372,10.0877 6.96847,6.76937 6.96847,19.24626 0,16.39251 -9.75586,24.42285 -9.6895,7.96397 -29.6658,7.96397 -9.42403,0 -18.91443,-1.7919 -9.4904,-1.79189 -18.9808,-5.30931 l 0,-21.56909 q 9.4904,5.04385 18.31714,7.63214 8.8931,2.52192 17.12254,2.52192 8.36216,0 12.80872,-2.78739 4.44655,-2.78739 4.44655,-7.96397 0,-4.64565 -3.05286,-7.16757 -2.98649,-2.52193 -12.01232,-4.51292 l -9.8886,-2.19009 q -14.86608,-3.18559 -21.76819,-10.15406 -6.83574,-6.96848 -6.83574,-18.7817 0,-14.79972 9.55677,-22.76369 9.55676,-7.963968 27.4757,-7.963968 8.16307,0 16.7907,1.260962 8.62764,1.194596 17.85257,3.650156 z" />
    </g>
    <g
       id="text4143"
       style="font-style:normal;font-weight:normal;font-size:131.75228882px;line-height:125%;font-family:sans-serif;letter-spacing:0px;word-spacing:0px;fill:#000000;fill-opacity:1;stroke:none;stroke-width:1px;stroke-linecap:butt;stroke-linejoin:miter;stroke-opacity:1"
       transform="scale(0.94822502,1.054602)">
      <path
         inkscape:connector-curvature="0"
         id="path4184"
         style="font-weight:bold"
         d="m 132.4631,236.5334 24.76789,0 0,77.32727 43.48855,0 0,18.72066 -68.25644,0 0,-96.04793 z" />
      <path
         inkscape:connector-curvature="0"
         id="path4186"
         style="font-weight:bold"
         d="m 216.60959,236.5334 24.76788,0 0,96.04793 -24.76788,0 0,-96.04793 z" />
      <path
         inkscape:connector-curvature="0"
         id="path4188"
         style="font-weight:bold"
         d="m 265.50204,236.5334 31.52277,0 21.87293,51.4014 22.00161,-51.4014 31.45843,0 0,96.04793 -23.41691,0 0,-70.25073 -22.13027,51.7874 -15.69705,0 -22.13027,-51.7874 0,70.25073 -23.48124,0 0,-96.04793 z" />
      <path
         inkscape:connector-curvature="0"
         id="path4190"
         style="font-weight:bold"
         d="m 396.48233,236.5334 24.76788,0 0,96.04793 -24.76788,0 0,-96.04793 z" />
      <path
         inkscape:connector-curvature="0"
         id="path4192"
         style="font-weight:bold"
         d="m 433.92366,236.5334 88.52107,0 0,18.72066 -31.84443,0 0,77.32727 -24.76789,0 0,-77.32727 -31.90875,0 0,-18.72066 z" />
    </g>
    <g
       id="text4147"
       style="font-style:normal;font-weight:normal;font-size:351.8710022px;line-height:125%;font-family:sans-serif;letter-spacing:0px;word-spacing:0px;fill:#000000;fill-opacity:1;stroke:none;stroke-width:1px;stroke-linecap:butt;stroke-linejoin:miter;stroke-opacity:1"
       transform="matrix(1.0361652,0,0,0.96509708,0,14)">
      <path
         inkscape:connector-curvature="0"
         id="path4195"
         style="font-weight:bold"
         d="m 88.59158,624.30545 58.41608,0 0,-165.79859 -59.962388,12.37046 0,-45.01474 59.618768,-12.37047 62.8832,0 0,210.81334 58.41608,0 0,45.702 -179.37174,0 0,-45.702 z" />
      <path
         inkscape:connector-curvature="0"
         id="path4197"
         style="font-weight:bold"
         d="m 329.30021,413.49211 164.4241,0 0,48.6228 -111.67781,0 0,39.68858 q 7.55973,-2.06175 15.11946,-3.09262 7.73154,-1.20268 15.97851,-1.20268 46.90468,0 73.02011,23.53824 26.11543,23.36643 26.11543,65.28857 0,41.5785 -28.5208,65.11675 -28.34898,23.53824 -78.86171,23.53824 -21.82013,0 -43.29663,-4.2953 -21.30469,-4.12348 -42.43757,-12.71408 l 0,-52.05904 q 20.96107,12.02684 39.68858,18.04026 18.89932,6.01342 35.56509,6.01342 24.05368,0 37.79864,-11.68322 13.91677,-11.85503 13.91677,-31.95703 0,-20.27382 -13.91677,-31.95704 -13.74496,-11.68322 -37.79864,-11.68322 -14.2604,0 -30.41073,3.77987 -16.15033,3.60805 -34.70603,11.33959 l 0,-144.32209 z" />
    </g>
  </g>
</svg>
