<svg xmlns="http://www.w3.org/2000/svg" width="803.866" height="197.615" viewBox="-1 -1 212.689 52.286"><defs><marker id="a" markerHeight="5.155" markerWidth="4.459" orient="auto-start-reverse" overflow="visible" preserveAspectRatio="xMidYMid" refX="0" refY="0" viewBox="0 0 5.324 6.155"><path fill="context-stroke" fill-rule="evenodd" stroke="context-stroke" stroke-width="1pt" d="M 5.77,0 -2.88,5 V -5 Z" transform="scale(.5)"/></marker><marker id="b" markerHeight="5.155" markerWidth="4.459" orient="auto-start-reverse" overflow="visible" preserveAspectRatio="xMidYMid" refX="0" refY="0" viewBox="0 0 5.324 6.155"><path fill="context-stroke" fill-rule="evenodd" stroke="context-stroke" stroke-width="1pt" d="M 5.77,0 -2.88,5 V -5 Z" transform="scale(.5)"/></marker><marker id="c" markerHeight="5.155" markerWidth="4.459" orient="auto-start-reverse" overflow="visible" preserveAspectRatio="xMidYMid" refX="0" refY="0" viewBox="0 0 5.324 6.155"><path fill="context-stroke" fill-rule="evenodd" stroke="context-stroke" stroke-width="1pt" d="M 5.77,0 -2.88,5 V -5 Z" transform="scale(.5)"/></marker></defs><path fill="#b9cdcd" stroke="#000" stroke-linecap="round" stroke-linejoin="round" stroke-width=".183" d="m 23.042667,32.716227 c -0.88518,2.45856 -1.543907,2.978763 -2.63589,3.115813 -0.934794,0.112982 -8.560015,-0.360556 -9.048288,-0.344837 -0.487782,0.01572 -9.6829446,-0.560974 -10.0611846,-0.584061 -0.37725805,-0.0226 -0.85963705,-0.04421 -1.01977505,-0.516273 -0.160138,-0.471572 -0.184699,-2.979745 -0.184699,-2.979745 z"/><path fill="#eaf0f0" stroke="#000" stroke-linecap="round" stroke-linejoin="round" stroke-width=".246" d="m 21.105292,17.856306 c 0,0 0.334031,-1.489873 0.879286,-1.949164 1.155351,-0.9736 2.964026,-1.038932 4.387584,-1.136195 l 0.891075,0.437678 c -1.0743,0.101683 -2.276809,-0.09284 -3.342267,0.243646 -0.651359,0.20533 -1.355769,0.499572 -1.75857,1.051213 -0.312908,0.428344 -0.362521,1.549801 -0.362521,1.549801 m 6.317773,1.5406 c 0.06386,-0.848338 -0.498098,-1.437803 -1.084616,-1.843551 -1.595486,-1.104265 1.420443,-1.680074 0.891571,-2.154653 -1.105739,-0.626306 -2.396362,-1.461356 -2.195944,-2.716916 0.147366,-0.929881 1.478083,-1.413733 2.41828,-1.459908 1.131773,-0.05551 2.630979,0.417537 3.067674,1.462855 0.225962,0.540343 -0.137542,1.272754 -0.576693,1.660818 -0.626307,0.552623 -2.45021,0.522168 -2.45021,0.522168 l -0.724551,-0.440625 c 0,0 1.829307,0.156699 2.544033,-0.311434 0.389538,-0.254944 0.925461,-0.789883 0.710306,-1.203491 -0.67985,-1.306157 -3.751454,-1.663274 -4.404777,-0.343363 -0.496134,1.003564 1.264402,1.952602 2.238984,2.502769 1.028159,1.053747 -1.764382,1.011442 -1.023031,2.108943 0.74076,0.499572 1.450575,2.254704 1.450575,2.254704"/><path fill="#eaf0f0" stroke="#000" stroke-linecap="round" stroke-linejoin="round" stroke-width=".183" d="m 20.88719,34.825529 c 0,0 -18.9699646,-0.801672 -19.3693276,-0.921039 -0.399363,-0.119858 -1.30173505,-0.217611 -1.37885705,-1.346436 -0.07663,-1.128826 -0.07221,-4.314884 0.09972,-6.903618 0.171927,-2.588733 0.529536,-6.808812 1.15879005,-7.580028 0.494659,-0.607149 1.6505016,-0.638588 2.4772266,-0.584553 2.923746,0.191085 7.933707,0.358591 8.620925,0.30161 0.687709,-0.05698 8.090407,-0.08007 9.113129,0.320276 1.021739,0.400344 1.56945,0.750585 1.710431,1.882358 0.14098,1.131281 0.165541,4.790876 0.137542,7.038212 -0.02947,2.247335 -0.17684,4.644984 -0.335996,5.324833 -0.158664,0.681323 -0.474028,1.667695 -1.271279,2.148109 -0.534448,0.322241 -0.962302,0.320276 -0.962302,0.320276 z"/><path fill="none" stroke="#000" stroke-linecap="round" stroke-linejoin="round" stroke-width=".246" d="M 20.594914,21.027136 2.5494264,20.410163 M 20.623405,23.267103 2.5784084,22.587254 M 20.589019,25.814574 2.5764434,25.103778 M 20.639615,28.40822 2.5813554,27.65567 M 20.682351,30.997937 2.5710404,30.397664 m 0,0 -0.02161,-9.987501 m 18.1329226,10.587774 -0.08744,-9.970801 m -2.500314,9.879434 -0.04814,-9.964415 m -2.692873,9.894661 0.04666,-9.986519 m -2.865291,10.003221 -0.02161,-9.987503 m -3.005289,9.929047 -0.02211,-9.988484 m -3.192935,9.844065 -0.02161,-9.98701"/><path fill="#b9cdcd" stroke="#000" stroke-linecap="round" stroke-linejoin="round" stroke-width=".183" d="m 26.615855,32.783029 c 0.799216,2.487543 1.439276,3.030833 2.525857,3.205216 0.930372,0.145402 8.567383,-0.06337 9.054673,-0.03045 0.487291,0.03242 9.6967,-0.22547 10.075432,-0.234803 0.37824,-0.0098 0.86111,-0.01474 1.037458,-0.480906 0.17684,-0.465677 0.287856,-2.971885 0.287856,-2.971885 z"/><path fill="#eaf0f0" stroke="#000" stroke-linecap="round" stroke-linejoin="round" stroke-width=".183" d="m 28.696666,34.966506 c 0,0 18.986177,-0.144419 19.38947,-0.24954 0.403292,-0.106104 1.309103,-0.172419 1.42454,-1.297806 0.115928,-1.125387 0.222032,-4.30948 0.139998,-6.902635 -0.08203,-2.593646 -0.293259,-6.823057 -0.895005,-7.615888 -0.473536,-0.62385 -1.627414,-0.695569 -2.455612,-0.670025 -2.92866,0.0894 -7.941569,0.08351 -8.62633,0.0025 -0.684762,-0.08056 -8.083039,-0.360557 -9.118533,0.0039 -1.035493,0.364485 -1.594502,0.69606 -1.774781,1.822429 -0.180277,1.125386 -0.331574,4.782034 -0.381187,7.028879 -0.04912,2.247335 0.01572,4.648422 0.150805,5.333675 0.134594,0.685745 0.416064,1.682432 1.195631,2.190845 0.523642,0.339925 0.951004,0.352697 0.951004,0.352697 z"/><path fill="none" stroke="#000" stroke-linecap="round" stroke-linejoin="round" stroke-width=".246" d="m 29.4669,21.185797 18.056296,0.0093 m -18.1624,2.228669 18.05777,-0.05404 m -18.111313,2.601013 18.025841,-0.08596 m -18.16633,2.676171 18.073489,-0.125752 m -18.206118,2.712521 18.121137,0.028 m 0,0 0.368416,-9.980625 m -18.489553,9.95217 0.432765,-9.961467 m 2.15646,9.960485 0.393468,-9.957047 m 2.348035,9.982098 0.299645,-9.981606 m 2.517015,10.096061 0.367925,-9.980625 m 2.659469,10.0268 0.368416,-9.981607 m 2.849081,9.949186 0.368416,-9.980625"/><path fill="#b9cdcd" stroke="#000" stroke-linecap="round" stroke-linejoin="round" stroke-width=".183" d="m 99.051111,32.558041 c -0.88518,2.45856 -1.54391,2.978763 -2.63589,3.115813 -0.9348,0.112982 -8.560028,-0.360556 -9.048301,-0.344837 -0.487782,0.01572 -9.682945,-0.560974 -10.061185,-0.584061 -0.377258,-0.0226 -0.859637,-0.04421 -1.019775,-0.516273 -0.160138,-0.471572 -0.184699,-2.979745 -0.184699,-2.979745 z"/><path fill="#eaf0f0" stroke="#000" stroke-linecap="round" stroke-linejoin="round" stroke-width=".246" d="m 97.113741,17.69812 c 0,0 0.33403,-1.489873 0.87928,-1.949164 1.15535,-0.9736 2.964019,-1.038932 4.387579,-1.136195 l 0.89108,0.437678 c -1.0743,0.101683 -2.27681,-0.09284 -3.342269,0.243646 -0.65136,0.20533 -1.35577,0.499572 -1.75857,1.051213 -0.3129,0.428344 -0.36252,1.549801 -0.36252,1.549801 m 6.317769,1.5406 c 0.0639,-0.848338 -0.4981,-1.437803 -1.08461,-1.843551 -1.59549,-1.104265 1.42044,-1.680074 0.89157,-2.154653 -1.10574,-0.626306 -2.39636,-1.461356 -2.19595,-2.716916 0.14737,-0.929881 1.47809,-1.413733 2.41828,-1.459908 1.13178,-0.05551 2.63098,0.417537 3.06768,1.462855 0.22596,0.540343 -0.13754,1.272754 -0.5767,1.660818 -0.6263,0.552623 -2.45021,0.522168 -2.45021,0.522168 l -0.72455,-0.440625 c 0,0 1.82931,0.156699 2.54404,-0.311434 0.38953,-0.254944 0.92546,-0.789883 0.7103,-1.203491 -0.67985,-1.306157 -3.75145,-1.663274 -4.40477,-0.343363 -0.49614,1.003564 1.2644,1.952602 2.23898,2.502769 1.02816,1.053747 -1.76438,1.011442 -1.02303,2.108943 0.74076,0.499572 1.45057,2.254704 1.45057,2.254704"/><path fill="#eaf0f0" stroke="#000" stroke-linecap="round" stroke-linejoin="round" stroke-width=".183" d="m 96.895631,34.667343 c 0,0 -18.969975,-0.801672 -19.369338,-0.921039 -0.399363,-0.119858 -1.301735,-0.217611 -1.378857,-1.346436 -0.07663,-1.128826 -0.07221,-4.314884 0.09972,-6.903618 0.171927,-2.588733 0.529536,-6.808812 1.15879,-7.580028 0.494659,-0.607149 1.650502,-0.638588 2.477227,-0.584553 2.923746,0.191085 7.933707,0.358591 8.620925,0.30161 0.687709,-0.05698 8.090423,-0.08007 9.113143,0.320276 1.02174,0.400344 1.56945,0.750585 1.71043,1.882358 0.14098,1.131281 0.16554,4.790876 0.13754,7.038212 -0.0295,2.247335 -0.17684,4.644984 -0.336,5.324833 -0.15866,0.681323 -0.47402,1.667695 -1.27127,2.148109 -0.53445,0.322241 -0.9623,0.320276 -0.9623,0.320276 z"/><path fill="none" stroke="#0f98ca" stroke-linecap="round" stroke-linejoin="round" stroke-width=".298" d="M 96.603361,20.86895 78.557857,20.251977 m 18.073994,2.85694 -18.045012,-0.679849 m 18.010622,3.22732 -18.012587,-0.710796 m 18.063187,3.304442 -18.058275,-0.75255 m 18.101015,3.342267 -18.11133,-0.600273 m 0,0 -0.02161,-9.987501 m 18.13294,10.587774 -0.0874,-9.970801 m -2.50033,9.879434 -0.0481,-9.964415 m -2.692874,9.894661 0.04666,-9.986519 m -2.865331,10.003221 -0.02161,-9.987503 m -3.005289,9.929047 -0.02211,-9.988484 m -3.192935,9.844065 -0.02161,-9.98701"/><path fill="#b9cdcd" stroke="#000" stroke-linecap="round" stroke-linejoin="round" stroke-width=".183" d="m 102.6243,32.624843 c 0.79921,2.487543 1.43927,3.030833 2.52585,3.205216 0.93037,0.145402 8.56739,-0.06337 9.05468,-0.03045 0.48729,0.03242 9.6967,-0.22547 10.07543,-0.234803 0.37824,-0.0098 0.86111,-0.01474 1.03746,-0.480906 0.17684,-0.465677 0.28785,-2.971885 0.28785,-2.971885 z"/><path fill="#eaf0f0" stroke="#000" stroke-linecap="round" stroke-linejoin="round" stroke-width=".183" d="m 104.70511,34.80832 c 0,0 18.98617,-0.144419 19.38947,-0.24954 0.40329,-0.106104 1.3091,-0.172419 1.42454,-1.297806 0.11592,-1.125387 0.22203,-4.30948 0.13999,-6.902635 -0.082,-2.593646 -0.29325,-6.823057 -0.895,-7.615888 -0.47354,-0.62385 -1.62741,-0.695569 -2.45561,-0.670025 -2.92866,0.0894 -7.94157,0.08351 -8.62633,0.0025 -0.68476,-0.08056 -8.08304,-0.360557 -9.11854,0.0039 -1.03549,0.364485 -1.5945,0.69606 -1.77478,1.822429 -0.18027,1.125386 -0.33157,4.782034 -0.38118,7.028879 -0.0491,2.247335 0.0157,4.648422 0.1508,5.333675 0.1346,0.685745 0.41607,1.682432 1.19563,2.190845 0.52364,0.339925 0.95101,0.352697 0.95101,0.352697 z"/><path fill="none" stroke="#0f98ca" stroke-linecap="round" stroke-linejoin="round" stroke-width=".298" d="m 105.47534,21.027611 18.0563,0.0093 m -18.1624,2.228669 18.05777,-0.05404 m -18.11132,2.601013 18.02584,-0.08596 m -18.16633,2.676171 18.07349,-0.125752 m -18.20611,2.712521 18.12113,0.028 m 0,0 0.36842,-9.980625 m -18.48955,9.95217 0.43276,-9.961467 m 2.15646,9.960485 0.39347,-9.957047 m 2.34803,9.982098 0.29965,-9.981606 m 2.51701,10.096061 0.36793,-9.980625 m 2.65947,10.0268 0.36841,-9.981607 m 2.84908,9.949186 0.36842,-9.980625"/><path fill="#b9cdcd" stroke="#000" stroke-linecap="round" stroke-linejoin="round" stroke-width=".183" d="m 178.21816,32.865739 c -0.88518,2.45856 -1.54391,2.978763 -2.63589,3.115813 -0.9348,0.112982 -8.56002,-0.360556 -9.04829,-0.344837 -0.48778,0.01572 -9.68294,-0.560974 -10.06118,-0.584061 -0.37726,-0.0226 -0.85964,-0.04421 -1.01978,-0.516273 -0.16014,-0.471572 -0.1847,-2.979745 -0.1847,-2.979745 z"/><path fill="#eaf0f0" stroke="#000" stroke-linecap="round" stroke-linejoin="round" stroke-width=".246" d="m 176.28078,18.005818 c 0,0 0.33403,-1.489873 0.87929,-1.949164 1.15535,-0.9736 2.96402,-1.038932 4.38758,-1.136195 l 0.89108,0.437678 c -1.0743,0.101683 -2.27681,-0.09284 -3.34227,0.243646 -0.65136,0.20533 -1.35577,0.499572 -1.75857,1.051213 -0.31291,0.428344 -0.36252,1.549801 -0.36252,1.549801 m 6.31777,1.5406 c 0.0639,-0.848338 -0.4981,-1.437803 -1.08461,-1.843551 -1.59549,-1.104265 1.42044,-1.680074 0.89157,-2.154653 -1.10574,-0.626306 -2.39637,-1.461356 -2.19595,-2.716916 0.14737,-0.929881 1.47809,-1.413733 2.41828,-1.459908 1.13178,-0.05551 2.63098,0.417537 3.06768,1.462855 0.22596,0.540343 -0.13755,1.272754 -0.5767,1.660818 -0.6263,0.552623 -2.45021,0.522168 -2.45021,0.522168 l -0.72455,-0.440625 c 0,0 1.82931,0.156699 2.54404,-0.311434 0.38953,-0.254944 0.92546,-0.789883 0.7103,-1.203491 -0.67985,-1.306157 -3.75145,-1.663274 -4.40478,-0.343363 -0.49613,1.003564 1.26441,1.952602 2.23899,2.502769 1.02816,1.053747 -1.76438,1.011442 -1.02303,2.108943 0.74076,0.499572 1.45057,2.254704 1.45057,2.254704"/><path fill="#e3f7f7" stroke="#000" stroke-linecap="round" stroke-linejoin="round" stroke-width=".183" d="m 176.06268,34.975041 c 0,0 -18.96996,-0.801672 -19.36933,-0.921039 -0.39936,-0.119858 -1.30173,-0.217611 -1.37885,-1.346436 -0.0766,-1.128826 -0.0722,-4.314884 0.0997,-6.903618 0.17192,-2.588733 0.52953,-6.808812 1.15879,-7.580028 0.49466,-0.607149 1.6505,-0.638588 2.47722,-0.584553 2.92375,0.191085 7.93371,0.358591 8.62093,0.30161 0.68771,-0.05698 8.0904,-0.08007 9.11313,0.320276 1.02173,0.400344 1.56945,0.750585 1.71043,1.882358 0.14098,1.131281 0.16554,4.790876 0.13754,7.038212 -0.0295,2.247335 -0.17684,4.644984 -0.336,5.324833 -0.15866,0.681323 -0.47403,1.667695 -1.27128,2.148109 -0.53444,0.322241 -0.9623,0.320276 -0.9623,0.320276 z"/><path fill="none" stroke="#0cb2ee" stroke-linecap="round" stroke-linejoin="round" stroke-width=".404" d="m 175.7704,21.176648 -18.04548,-0.616973 m 18.07397,2.85694 -18.04499,-0.679849 m 18.01061,3.22732 -18.01258,-0.710796 m 18.06317,3.304442 -18.05826,-0.75255 m 18.101,3.342267 -18.11131,-0.600273 m 0,0 -0.0216,-9.987501 m 18.13292,10.587774 -0.0874,-9.970801 m -2.50031,9.879434 -0.0481,-9.964415 m -2.69287,9.894661 0.0467,-9.986519 m -2.8653,10.003221 -0.0216,-9.987503 m -3.00528,9.929047 -0.0221,-9.988484 m -3.19294,9.844065 -0.0216,-9.98701"/><path fill="#b9cdcd" stroke="#000" stroke-linecap="round" stroke-linejoin="round" stroke-width=".183" d="m 181.79134,32.932541 c 0.79922,2.487543 1.43928,3.030833 2.52586,3.205216 0.93037,0.145402 8.56738,-0.06337 9.05467,-0.03045 0.48729,0.03242 9.6967,-0.22547 10.07544,-0.234803 0.37824,-0.0098 0.86111,-0.01474 1.03745,-0.480906 0.17684,-0.465677 0.28786,-2.971885 0.28786,-2.971885 z"/><path fill="#e3f7f7" stroke="#000" stroke-linecap="round" stroke-linejoin="round" stroke-width=".183" d="m 183.87216,35.116018 c 0,0 18.98617,-0.144419 19.38946,-0.24954 0.4033,-0.106104 1.30911,-0.172419 1.42454,-1.297806 0.11593,-1.125387 0.22204,-4.30948 0.14,-6.902635 -0.082,-2.593646 -0.29326,-6.823057 -0.895,-7.615888 -0.47354,-0.62385 -1.62742,-0.695569 -2.45561,-0.670025 -2.92866,0.0894 -7.94157,0.08351 -8.62633,0.0025 -0.68477,-0.08056 -8.08304,-0.360557 -9.11854,0.0039 -1.03549,0.364485 -1.5945,0.69606 -1.77478,1.822429 -0.18027,1.125386 -0.33157,4.782034 -0.38118,7.028879 -0.0491,2.247335 0.0157,4.648422 0.1508,5.333675 0.13459,0.685745 0.41606,1.682432 1.19563,2.190845 0.52364,0.339925 0.95101,0.352697 0.95101,0.352697 z"/><path fill="none" stroke="#0cb2ee" stroke-linecap="round" stroke-linejoin="round" stroke-width=".404" d="m 184.64239,21.335309 18.05629,0.0093 m -18.1624,2.228669 18.05777,-0.05404 m -18.11131,2.601013 18.02584,-0.08596 m -18.16633,2.676171 18.07349,-0.125752 m -18.20612,2.712521 18.12114,0.028 m 0,0 0.36842,-9.980625 m -18.48956,9.95217 0.43277,-9.961467 m 2.15646,9.960485 0.39347,-9.957047 m 2.34803,9.982098 0.29965,-9.981606 m 2.51701,10.096061 0.36793,-9.980625 m 2.65947,10.0268 0.36841,-9.981607 m 2.84908,9.949186 0.36842,-9.980625"/><path fill="navy" stroke="#0f87b3" stroke-linecap="round" stroke-linejoin="round" stroke-width=".349" d="M74.977 19.111 73.613 17.891M74.047 22.532 72.272 22.087M74.767 30.846 73.258 31.882M74.07 26.433l-1.785.403M127.047 19.304l1.364-1.22M127.977 22.724l1.775-.445M127.257 31.038l1.509 1.036M127.954 26.625l1.785.403" paint-order="markers stroke fill"/><path fill="navy" stroke="#41cafd" stroke-linecap="round" stroke-linejoin="round" stroke-width=".472" d="M153.25 18.761 151.391 17.19M151.958 22.602l-2.592-.511M152.888 31.962l-1.96 1.557M151.992 27.08l-2.606.462" paint-order="markers stroke fill"/><path fill="navy" stroke="#41cafd" stroke-linecap="round" stroke-linejoin="round" stroke-width=".473" d="m206.964 19.982 1.867-1.573M208.262 23.822l2.604-.511M207.381 33.117l1.863 1.685M208.228 28.299l2.618.462" paint-order="markers stroke fill"/><path fill="none" stroke="#000" stroke-linecap="round" stroke-linejoin="round" stroke-width=".42" marker-end="url(#a)" d="m 56.373257,25.644043 h 8.162434 v 0.101397 0 0" paint-order="markers stroke fill"/><path fill="none" stroke="#000" stroke-linecap="round" stroke-linejoin="round" stroke-width=".42" marker-end="url(#b)" d="m 132.68208,25.646972 h 8.16243 v 0.101397 0 0" paint-order="markers stroke fill"/><path fill="none" stroke="#000" stroke-linecap="round" stroke-linejoin="round" stroke-width=".43" marker-end="url(#c)" d="m 180.25983,40.250207 v 9.968288 H 26.264345 l -0.0012,-8.344051" paint-order="markers stroke fill"/><text xml:space="preserve" x="28.195" y="23.427" fill="none" stroke="#000" stroke-linecap="round" stroke-linejoin="round" stroke-width=".42" font-family="Arial" font-size="6.35" font-style="italic" paint-order="markers stroke fill" style="-inkscape-font-specification:'Arial Italic';white-space:pre;inline-size:0" transform="translate(-7.04 -18.603)"><tspan x="28.195" y="23.427" fill="#000" stroke="none" font-family="sans-serif" font-style="normal" font-weight="400" style="-inkscape-font-specification:sans-serif">off</tspan></text><text xml:space="preserve" x="28.195" y="23.427" fill="none" stroke="#000" stroke-linecap="round" stroke-linejoin="round" stroke-width=".42" font-family="Arial" font-size="6.35" font-style="italic" paint-order="markers stroke fill" style="-inkscape-font-specification:'Arial Italic';white-space:pre;inline-size:0" transform="translate(69.23 -18.681)"><tspan x="28.195" y="23.427" fill="#000" stroke="none" font-family="sans-serif" font-style="normal" font-weight="400" style="-inkscape-font-specification:sans-serif">40%</tspan></text><text xml:space="preserve" x="28.195" y="23.427" fill="none" stroke="#000" stroke-linecap="round" stroke-linejoin="round" stroke-width=".42" font-family="Arial" font-size="6.35" font-style="italic" paint-order="markers stroke fill" style="-inkscape-font-specification:'Arial Italic';white-space:pre;inline-size:0" transform="translate(145.69 -18.392)"><tspan x="28.195" y="23.427" fill="#000" stroke="none" font-family="sans-serif" font-style="normal" font-weight="400" style="-inkscape-font-specification:sans-serif">100%</tspan></text></svg>