<?xml version="1.0" encoding="UTF-8" standalone="no"?>
<svg
   xmlns:dc="http://purl.org/dc/elements/1.1/"
   xmlns:cc="http://creativecommons.org/ns#"
   xmlns:rdf="http://www.w3.org/1999/02/22-rdf-syntax-ns#"
   xmlns:svg="http://www.w3.org/2000/svg"
   xmlns="http://www.w3.org/2000/svg"
   xmlns:sodipodi="http://sodipodi.sourceforge.net/DTD/sodipodi-0.dtd"
   xmlns:inkscape="http://www.inkscape.org/namespaces/inkscape"
   width="285.92471mm"
   height="91.520851mm"
   viewBox="0 0 285.92471 91.520851"
   version="1.1"
   id="svg8"
   inkscape:version="1.0.1 (3bc2e813f5, 2020-09-07)"
   sodipodi:docname="speed_path.svg">
  <defs
     id="defs2" />
  <sodipodi:namedview
     id="base"
     pagecolor="#ffffff"
     bordercolor="#666666"
     borderopacity="1.0"
     inkscape:pageopacity="0.0"
     inkscape:pageshadow="2"
     inkscape:zoom="2.3272807"
     inkscape:cx="479.68588"
     inkscape:cy="223.58607"
     inkscape:document-units="mm"
     inkscape:current-layer="layer1"
     inkscape:document-rotation="0"
     showgrid="false"
     inkscape:window-width="3576"
     inkscape:window-height="1693"
     inkscape:window-x="115"
     inkscape:window-y="334"
     inkscape:window-maximized="0"
     fit-margin-top="0"
     fit-margin-left="0"
     fit-margin-right="0"
     fit-margin-bottom="0" />
  <metadata
     id="metadata5">
    <rdf:RDF>
      <cc:Work
         rdf:about="">
        <dc:format>image/svg+xml</dc:format>
        <dc:type
           rdf:resource="http://purl.org/dc/dcmitype/StillImage" />
        <dc:title></dc:title>
      </cc:Work>
    </rdf:RDF>
  </metadata>
  <g
     inkscape:label="Layer 1"
     inkscape:groupmode="layer"
     id="layer1"
     transform="translate(18.570377,-126.03191)">
    <g
       id="g905">
      <path
         id="rect847"
         style="fill:#0c457b;fill-opacity:1;stroke:none;stroke-width:0.499999"
         d="m 231.9355,136.26405 h 21.14592 v 68.55372 H 231.9355 Z" />
      <g
         aria-label="TB 3"
         id="text969-7-9-3-0"
         style="font-style:normal;font-weight:normal;font-size:4.93889px;line-height:1.25;font-family:sans-serif;fill:#000000;fill-opacity:1;stroke:none;stroke-width:0.264583">
        <path
           d="m 239.73275,208.62293 h -1.12138 v 2.8963 h -0.92604 v -2.8963 h -1.12138 v -0.69453 h 3.1688 z"
           style="font-style:normal;font-variant:normal;font-weight:bold;font-stretch:normal;font-size:4.93889px;font-family:Verdana;-inkscape-font-specification:Verdana;stroke-width:0.264583"
           id="path1068" />
        <path
           d="m 243.36216,210.41955 q 0,0.26045 -0.10611,0.46543 -0.1037,0.20499 -0.28698,0.34003 -0.21222,0.15917 -0.46784,0.22669 -0.25322,0.0675 -0.64389,0.0675 h -1.56752 v -3.59083 h 1.39388 q 0.43409,0 0.63425,0.0289 0.20257,0.0289 0.40032,0.12781 0.20498,0.1037 0.30385,0.27975 0.10129,0.17363 0.10129,0.3979 0,0.26045 -0.13746,0.46061 -0.13746,0.19775 -0.38826,0.30868 v 0.0193 q 0.35209,0.0699 0.55707,0.28939 0.2074,0.21945 0.2074,0.57877 z m -1.1865,-1.47588 q 0,-0.0892 -0.0458,-0.17845 -0.0434,-0.0892 -0.15675,-0.13264 -0.10128,-0.0386 -0.25321,-0.041 -0.14952,-0.005 -0.42203,-0.005 h -0.0868 v 0.75964 h 0.14469 q 0.21945,0 0.37379,-0.007 0.15434,-0.007 0.24357,-0.0482 0.1254,-0.0555 0.16399,-0.14228 0.0386,-0.0892 0.0386,-0.20499 z m 0.22669,1.46141 q 0,-0.17122 -0.0675,-0.26286 -0.0651,-0.0941 -0.22428,-0.13987 -0.10852,-0.0314 -0.29903,-0.0338 -0.19052,-0.002 -0.39791,-0.002 h -0.20257 v 0.89469 h 0.0675 q 0.39068,0 0.55948,-0.002 0.16881,-0.002 0.3111,-0.0627 0.14469,-0.0603 0.19775,-0.15917 0.0555,-0.10128 0.0555,-0.23151 z"
           style="font-style:normal;font-variant:normal;font-weight:bold;font-stretch:normal;font-size:4.93889px;font-family:Verdana;-inkscape-font-specification:Verdana;stroke-width:0.264583"
           id="path1070" />
        <path
           d="m 248.19494,209.83595 q 0.11816,0.10129 0.1881,0.23634 0.0699,0.13504 0.0699,0.35932 0,0.25321 -0.10128,0.47267 -0.0989,0.21945 -0.30627,0.3762 -0.20257,0.15193 -0.47749,0.23392 -0.27251,0.0796 -0.66318,0.0796 -0.44614,0 -0.76688,-0.0699 -0.31833,-0.0699 -0.51849,-0.15675 v -0.78859 h 0.094 q 0.2074,0.12541 0.49437,0.21705 0.28939,0.0916 0.52814,0.0916 0.13987,0 0.30386,-0.0217 0.16398,-0.0241 0.27733,-0.10128 0.0892,-0.0603 0.14228,-0.1447 0.0531,-0.0868 0.0531,-0.24839 0,-0.15675 -0.0723,-0.24116 -0.0724,-0.0868 -0.19052,-0.12299 -0.11816,-0.0386 -0.28456,-0.041 -0.1664,-0.005 -0.30868,-0.005 h -0.19775 v -0.64147 h 0.20498 q 0.1881,0 0.3328,-0.0121 0.14469,-0.0121 0.24598,-0.0555 0.10611,-0.0458 0.15916,-0.12058 0.0531,-0.0772 0.0531,-0.22427 0,-0.10852 -0.0555,-0.17363 -0.0555,-0.0675 -0.13987,-0.10611 -0.0941,-0.0434 -0.22187,-0.0579 -0.12781,-0.0145 -0.21945,-0.0145 -0.22669,0 -0.49196,0.0796 -0.26527,0.0772 -0.51366,0.22428 h -0.0892 v -0.77894 q 0.19775,-0.0796 0.53778,-0.15193 0.34003,-0.0748 0.68971,-0.0748 0.34003,0 0.59565,0.0603 0.25563,0.0579 0.42203,0.15675 0.19775,0.11817 0.29421,0.28698 0.0965,0.16881 0.0965,0.3955 0,0.29903 -0.18569,0.53537 -0.18569,0.23392 -0.48955,0.29903 v 0.0338 q 0.12299,0.0169 0.26045,0.0675 0.13746,0.0506 0.25081,0.1471 z"
           style="font-style:normal;font-variant:normal;font-weight:bold;font-stretch:normal;font-size:4.93889px;font-family:Verdana;-inkscape-font-specification:Verdana;stroke-width:0.264583"
           id="path1072" />
      </g>
      <g
         aria-label="40 Gbps"
         id="text969-7-9-3-6"
         style="font-style:normal;font-weight:normal;font-size:4.58611px;line-height:1.25;font-family:sans-serif;fill:#000000;fill-opacity:1;stroke:none;stroke-width:0.264583">
        <path
           d="m 235.0997,132.45231 h -0.45458 v 0.77705 h -0.82183 v -0.77705 h -1.61454 v -0.63148 l 1.5608,-1.93477 h 0.87557 v 1.95716 h 0.45458 z m -1.27641,-0.60909 v -1.20475 l -0.96962,1.20475 z"
           style="font-style:normal;font-variant:normal;font-weight:bold;font-stretch:normal;font-size:4.58611px;font-family:Verdana;-inkscape-font-specification:Verdana;stroke-width:0.264583"
           id="path1075" />
        <path
           d="m 238.29072,131.55211 q 0,0.42099 -0.0761,0.75465 -0.0761,0.33142 -0.23737,0.54415 -0.16571,0.21721 -0.42547,0.32918 -0.25976,0.10973 -0.64044,0.10973 -0.37396,0 -0.6382,-0.11197 -0.26424,-0.11196 -0.42771,-0.33142 -0.16571,-0.21945 -0.23961,-0.54415 -0.0739,-0.32694 -0.0739,-0.74793 0,-0.43443 0.0761,-0.75465 0.0761,-0.32022 0.24185,-0.54191 0.16571,-0.21945 0.42995,-0.32918 0.26423,-0.10973 0.63148,-0.10973 0.38292,0 0.64268,0.11421 0.25976,0.11196 0.42547,0.3359 0.16347,0.21945 0.23737,0.54191 0.0739,0.32022 0.0739,0.74121 z m -0.86662,0 q 0,-0.60461 -0.11868,-0.85989 -0.11868,-0.25753 -0.39412,-0.25753 -0.27543,0 -0.39412,0.25753 -0.11868,0.25528 -0.11868,0.86437 0,0.59342 0.12092,0.85542 0.12092,0.262 0.39188,0.262 0.27096,0 0.39188,-0.262 0.12092,-0.262 0.12092,-0.8599 z"
           style="font-style:normal;font-variant:normal;font-weight:bold;font-stretch:normal;font-size:4.58611px;font-family:Verdana;-inkscape-font-specification:Verdana;stroke-width:0.264583"
           id="path1077" />
        <path
           d="m 243.48368,133.03006 q -0.22393,0.0873 -0.59342,0.17466 -0.36948,0.0851 -0.73673,0.0851 -0.85094,0 -1.33239,-0.4613 -0.48145,-0.46354 -0.48145,-1.27865 0,-0.77704 0.48593,-1.25177 0.48593,-0.47698 1.35478,-0.47698 0.32918,0 0.62701,0.0605 0.29783,0.0582 0.66284,0.23513 v 0.78152 h -0.0963 q -0.0627,-0.047 -0.18362,-0.13212 -0.12092,-0.0873 -0.23289,-0.14779 -0.12988,-0.0717 -0.30454,-0.12316 -0.17243,-0.0515 -0.36725,-0.0515 -0.22841,0 -0.41427,0.0672 -0.18587,0.0672 -0.33366,0.20602 -0.14108,0.13436 -0.22393,0.34261 -0.0806,0.20602 -0.0806,0.47698 0,0.55311 0.29335,0.84646 0.29335,0.29335 0.86662,0.29335 0.0493,0 0.10748,-0.002 0.0605,-0.002 0.10973,-0.007 v -0.65388 h -0.66508 v -0.62925 h 1.53841 z"
           style="font-style:normal;font-variant:normal;font-weight:bold;font-stretch:normal;font-size:4.58611px;font-family:Verdana;-inkscape-font-specification:Verdana;stroke-width:0.264583"
           id="path1079" />
        <path
           d="m 246.83369,131.92832 q 0,0.59341 -0.32918,0.96738 -0.32694,0.37396 -0.81735,0.37396 -0.21049,0 -0.36948,-0.0448 -0.15899,-0.0448 -0.30231,-0.12988 l -0.0336,0.1254 h -0.77256 v -3.48437 h 0.80615 v 1.23162 q 0.18586,-0.14779 0.37844,-0.23961 0.19482,-0.0918 0.44787,-0.0918 0.47697,0 0.73449,0.34486 0.25752,0.34261 0.25752,0.94723 z m -0.83078,0.0157 q 0,-0.3359 -0.11421,-0.51728 -0.1142,-0.18138 -0.40755,-0.18138 -0.11421,0 -0.23513,0.0358 -0.12092,0.0336 -0.23065,0.0985 v 1.26298 q 0.0873,0.0314 0.16571,0.0425 0.0784,0.0112 0.1881,0.0112 0.32022,0 0.47697,-0.1881 0.15676,-0.18811 0.15676,-0.56431 z"
           style="font-style:normal;font-variant:normal;font-weight:bold;font-stretch:normal;font-size:4.58611px;font-family:Verdana;-inkscape-font-specification:Verdana;stroke-width:0.264583"
           id="path1081" />
        <path
           d="m 250.04039,131.92832 q 0,0.31126 -0.0963,0.56654 -0.0941,0.25528 -0.24857,0.42099 -0.16123,0.17467 -0.36501,0.26424 -0.20377,0.0896 -0.43666,0.0896 -0.21498,0 -0.36501,-0.047 -0.15003,-0.0448 -0.30679,-0.12764 v 1.04799 h -0.80615 v -3.43734 h 0.80615 v 0.262 q 0.18587,-0.14779 0.37845,-0.23961 0.19482,-0.0918 0.44786,-0.0918 0.47026,0 0.73002,0.34486 0.262,0.34485 0.262,0.94723 z m -0.83079,0.0157 q 0,-0.36725 -0.1254,-0.53296 -0.1254,-0.1657 -0.39636,-0.1657 -0.1142,0 -0.23513,0.0358 -0.12092,0.0336 -0.23065,0.0985 v 1.26521 q 0.0806,0.0314 0.17243,0.0403 0.0918,0.009 0.18139,0.009 0.32022,0 0.47697,-0.18586 0.15675,-0.18811 0.15675,-0.56431 z"
           style="font-style:normal;font-variant:normal;font-weight:bold;font-stretch:normal;font-size:4.58611px;font-family:Verdana;-inkscape-font-specification:Verdana;stroke-width:0.264583"
           id="path1083" />
        <path
           d="m 252.80818,132.4232 q 0,0.38964 -0.34934,0.62925 -0.34933,0.23737 -0.95618,0.23737 -0.3359,0 -0.6091,-0.0627 -0.27319,-0.0627 -0.4389,-0.13884 v -0.66284 h 0.0739 q 0.0605,0.0425 0.13883,0.094 0.0806,0.0493 0.22617,0.10749 0.12541,0.0515 0.2844,0.0896 0.15899,0.0358 0.34037,0.0358 0.23737,0 0.35157,-0.0515 0.11421,-0.0538 0.11421,-0.15675 0,-0.0918 -0.0672,-0.13212 -0.0672,-0.0426 -0.25528,-0.0806 -0.0896,-0.0202 -0.24409,-0.0426 -0.15227,-0.0246 -0.27767,-0.0582 -0.34262,-0.0896 -0.50833,-0.27767 -0.1657,-0.19034 -0.1657,-0.4725 0,-0.36277 0.34261,-0.60237 0.34485,-0.24185 0.94051,-0.24185 0.28215,0 0.53968,0.0582 0.25976,0.056 0.40531,0.12093 v 0.63596 h -0.0694 q -0.17914,-0.12316 -0.40979,-0.1993 -0.22841,-0.0784 -0.46354,-0.0784 -0.19482,0 -0.32918,0.0537 -0.13212,0.0537 -0.13212,0.15227 0,0.0896 0.0605,0.1366 0.0605,0.047 0.2844,0.0941 0.12316,0.0246 0.26423,0.0493 0.14332,0.0224 0.28664,0.0582 0.31798,0.0829 0.47025,0.262 0.15228,0.1769 0.15228,0.44338 z"
           style="font-style:normal;font-variant:normal;font-weight:bold;font-stretch:normal;font-size:4.58611px;font-family:Verdana;-inkscape-font-specification:Verdana;stroke-width:0.264583"
           id="path1085" />
      </g>
    </g>
    <g
       id="g898"
       transform="translate(-1.1730021e-5)">
      <path
         id="rect847-5-9"
         style="fill:#0c457b;fill-opacity:1;stroke:none;stroke-width:0.351806"
         d="M 191.98308,171.70453 H 213.129 v 33.93914 h -21.14592 z" />
      <g
         aria-label="TB 2"
         id="text969-7-9-3-4"
         style="font-style:normal;font-weight:normal;font-size:4.93889px;line-height:1.25;font-family:sans-serif;fill:#000000;fill-opacity:1;stroke:none;stroke-width:0.264583">
        <path
           d="m 199.7333,208.61811 h -1.12138 v 2.89629 h -0.92604 v -2.89629 h -1.12138 v -0.69453 h 3.1688 z"
           style="font-style:normal;font-variant:normal;font-weight:bold;font-stretch:normal;font-size:4.93889px;font-family:Verdana;-inkscape-font-specification:Verdana;stroke-width:0.264583"
           id="path1047" />
        <path
           d="m 203.3627,210.41473 q 0,0.26045 -0.1061,0.46543 -0.1037,0.20499 -0.28698,0.34003 -0.21222,0.15917 -0.46784,0.22669 -0.25322,0.0675 -0.64389,0.0675 h -1.56752 v -3.59082 h 1.39388 q 0.43409,0 0.63425,0.0289 0.20257,0.0289 0.40032,0.12781 0.20498,0.1037 0.30385,0.27974 0.10129,0.17364 0.10129,0.39791 0,0.26045 -0.13746,0.46061 -0.13746,0.19775 -0.38826,0.30868 v 0.0193 q 0.35209,0.0699 0.55707,0.28938 0.20739,0.21946 0.20739,0.57878 z m -1.18649,-1.47588 q 0,-0.0892 -0.0458,-0.17846 -0.0434,-0.0892 -0.15675,-0.13263 -0.10128,-0.0386 -0.25321,-0.041 -0.14952,-0.005 -0.42203,-0.005 h -0.0868 v 0.75964 h 0.14469 q 0.21945,0 0.37379,-0.007 0.15434,-0.007 0.24357,-0.0482 0.1254,-0.0555 0.16399,-0.14229 0.0386,-0.0892 0.0386,-0.20498 z m 0.22669,1.46141 q 0,-0.17122 -0.0675,-0.26286 -0.0651,-0.0941 -0.22428,-0.13987 -0.10852,-0.0314 -0.29903,-0.0338 -0.19052,-0.002 -0.39791,-0.002 h -0.20257 v 0.8947 h 0.0675 q 0.39067,0 0.55948,-0.002 0.16881,-0.002 0.3111,-0.0627 0.14469,-0.0603 0.19774,-0.15916 0.0555,-0.10129 0.0555,-0.23151 z"
           style="font-style:normal;font-variant:normal;font-weight:bold;font-stretch:normal;font-size:4.93889px;font-family:Verdana;-inkscape-font-specification:Verdana;stroke-width:0.264583"
           id="path1049" />
        <path
           d="m 208.54757,211.5144 h -2.81912 v -0.59324 q 0.32315,-0.23392 0.6463,-0.49678 0.32556,-0.26286 0.5209,-0.45338 0.2918,-0.28215 0.41479,-0.49196 0.12299,-0.2098 0.12299,-0.41479 0,-0.24598 -0.15916,-0.37861 -0.15675,-0.13505 -0.45338,-0.13505 -0.22186,0 -0.46784,0.0916 -0.24357,0.0916 -0.45338,0.23392 h -0.0772 v -0.79823 q 0.17122,-0.0748 0.50402,-0.14952 0.33521,-0.0748 0.67042,-0.0748 0.67524,0 1.02974,0.28456 0.3545,0.28215 0.3545,0.80064 0,0.34003 -0.17122,0.6463 -0.16881,0.30627 -0.51849,0.63183 -0.21945,0.20257 -0.44132,0.37379 -0.22186,0.16881 -0.31591,0.23634 h 1.61333 z"
           style="font-style:normal;font-variant:normal;font-weight:bold;font-stretch:normal;font-size:4.93889px;font-family:Verdana;-inkscape-font-specification:Verdana;stroke-width:0.264583"
           id="path1051" />
      </g>
      <g
         aria-label="20 Gbps"
         id="text969-7-9-3-6-6"
         style="font-style:normal;font-weight:normal;font-size:4.5861px;line-height:1.25;font-family:sans-serif;fill:#000000;fill-opacity:1;stroke:none;stroke-width:0.264583">
        <path
           d="m 194.98718,168.12694 h -2.61775 v -0.55087 q 0.30006,-0.21721 0.60013,-0.4613 0.30231,-0.24408 0.48369,-0.42099 0.27096,-0.262 0.38516,-0.45682 0.11421,-0.19482 0.11421,-0.38516 0,-0.22841 -0.1478,-0.35157 -0.14555,-0.1254 -0.42099,-0.1254 -0.20601,0 -0.43442,0.0851 -0.22617,0.0851 -0.42099,0.21722 h -0.0717 v -0.74121 q 0.15899,-0.0694 0.46801,-0.13884 0.31127,-0.0694 0.62253,-0.0694 0.62701,0 0.95619,0.26424 0.32917,0.262 0.32917,0.74345 0,0.31574 -0.15899,0.60013 -0.15675,0.28439 -0.48145,0.5867 -0.20378,0.1881 -0.40979,0.34709 -0.20602,0.15675 -0.29335,0.21946 h 1.4981 z"
           style="font-style:normal;font-variant:normal;font-weight:bold;font-stretch:normal;font-size:4.5861px;font-family:Verdana;-inkscape-font-specification:Verdana;stroke-width:0.264583"
           id="path1054" />
        <path
           d="m 198.22521,166.45865 q 0,0.42099 -0.0761,0.75465 -0.0761,0.33142 -0.23737,0.54415 -0.16571,0.21722 -0.42547,0.32918 -0.25976,0.10973 -0.64044,0.10973 -0.37396,0 -0.6382,-0.11197 -0.26424,-0.11196 -0.42771,-0.33142 -0.16571,-0.21945 -0.23961,-0.54415 -0.0739,-0.32694 -0.0739,-0.74793 0,-0.43442 0.0761,-0.75464 0.0761,-0.32022 0.24185,-0.54191 0.16571,-0.21946 0.42995,-0.32918 0.26423,-0.10973 0.63148,-0.10973 0.38292,0 0.64268,0.11421 0.25976,0.11196 0.42547,0.33589 0.16347,0.21945 0.23737,0.54191 0.0739,0.32022 0.0739,0.74121 z m -0.86661,0 q 0,-0.60461 -0.11868,-0.85989 -0.11869,-0.25752 -0.39412,-0.25752 -0.27543,0 -0.39412,0.25752 -0.11868,0.25528 -0.11868,0.86437 0,0.59342 0.12092,0.85542 0.12092,0.262 0.39188,0.262 0.27096,0 0.39188,-0.262 0.12092,-0.262 0.12092,-0.8599 z"
           style="font-style:normal;font-variant:normal;font-weight:bold;font-stretch:normal;font-size:4.5861px;font-family:Verdana;-inkscape-font-specification:Verdana;stroke-width:0.264583"
           id="path1056" />
        <path
           d="m 203.41817,167.9366 q -0.22394,0.0873 -0.59342,0.17466 -0.36949,0.0851 -0.73673,0.0851 -0.85094,0 -1.33239,-0.4613 -0.48145,-0.46354 -0.48145,-1.27864 0,-0.77704 0.48593,-1.25178 0.48593,-0.47697 1.35478,-0.47697 0.32918,0 0.62701,0.0605 0.29782,0.0582 0.66283,0.23513 v 0.78152 h -0.0963 q -0.0627,-0.047 -0.18362,-0.13212 -0.12093,-0.0873 -0.23289,-0.1478 -0.12988,-0.0716 -0.30455,-0.12316 -0.17242,-0.0515 -0.36724,-0.0515 -0.22841,0 -0.41428,0.0672 -0.18586,0.0672 -0.33365,0.20601 -0.14108,0.13436 -0.22393,0.34262 -0.0806,0.20601 -0.0806,0.47697 0,0.55311 0.29335,0.84646 0.29335,0.29335 0.86661,0.29335 0.0493,0 0.10749,-0.002 0.0605,-0.002 0.10973,-0.007 v -0.65388 h -0.66508 v -0.62924 h 1.53841 z"
           style="font-style:normal;font-variant:normal;font-weight:bold;font-stretch:normal;font-size:4.5861px;font-family:Verdana;-inkscape-font-specification:Verdana;stroke-width:0.264583"
           id="path1058" />
        <path
           d="m 206.76817,166.83486 q 0,0.59341 -0.32918,0.96738 -0.32694,0.37396 -0.81735,0.37396 -0.21049,0 -0.36948,-0.0448 -0.15899,-0.0448 -0.30231,-0.12988 l -0.0336,0.1254 h -0.77256 v -3.48436 h 0.80615 v 1.23162 q 0.18586,-0.1478 0.37844,-0.23961 0.19482,-0.0918 0.44787,-0.0918 0.47697,0 0.73449,0.34485 0.25752,0.34262 0.25752,0.94723 z m -0.83078,0.0157 q 0,-0.33589 -0.11421,-0.51728 -0.1142,-0.18138 -0.40755,-0.18138 -0.11421,0 -0.23513,0.0358 -0.12092,0.0336 -0.23065,0.0985 v 1.26297 q 0.0873,0.0313 0.16571,0.0425 0.0784,0.0112 0.1881,0.0112 0.32022,0 0.47697,-0.1881 0.15676,-0.1881 0.15676,-0.56431 z"
           style="font-style:normal;font-variant:normal;font-weight:bold;font-stretch:normal;font-size:4.5861px;font-family:Verdana;-inkscape-font-specification:Verdana;stroke-width:0.264583"
           id="path1060" />
        <path
           d="m 209.97486,166.83486 q 0,0.31126 -0.0963,0.56654 -0.094,0.25528 -0.24856,0.42099 -0.16123,0.17467 -0.36501,0.26424 -0.20377,0.0896 -0.43666,0.0896 -0.21497,0 -0.36501,-0.047 -0.15003,-0.0448 -0.30678,-0.12764 v 1.04799 h -0.80615 v -3.43733 h 0.80615 v 0.262 q 0.18586,-0.1478 0.37844,-0.23961 0.19482,-0.0918 0.44786,-0.0918 0.47026,0 0.73002,0.34485 0.262,0.34485 0.262,0.94723 z m -0.83079,0.0157 q 0,-0.36724 -0.1254,-0.53295 -0.1254,-0.16571 -0.39636,-0.16571 -0.1142,0 -0.23512,0.0358 -0.12093,0.0336 -0.23065,0.0985 v 1.26521 q 0.0806,0.0313 0.17242,0.0403 0.0918,0.009 0.18139,0.009 0.32022,0 0.47697,-0.18586 0.15675,-0.1881 0.15675,-0.56431 z"
           style="font-style:normal;font-variant:normal;font-weight:bold;font-stretch:normal;font-size:4.5861px;font-family:Verdana;-inkscape-font-specification:Verdana;stroke-width:0.264583"
           id="path1062" />
        <path
           d="m 212.74264,167.32974 q 0,0.38964 -0.34933,0.62925 -0.34933,0.23737 -0.95619,0.23737 -0.33589,0 -0.60909,-0.0627 -0.27319,-0.0627 -0.4389,-0.13884 v -0.66284 h 0.0739 q 0.0605,0.0426 0.13884,0.0941 0.0806,0.0493 0.22617,0.10749 0.1254,0.0515 0.28439,0.0896 0.15899,0.0358 0.34038,0.0358 0.23736,0 0.35157,-0.0515 0.1142,-0.0537 0.1142,-0.15675 0,-0.0918 -0.0672,-0.13212 -0.0672,-0.0425 -0.25528,-0.0806 -0.0896,-0.0202 -0.24408,-0.0425 -0.15227,-0.0246 -0.27767,-0.0582 -0.34262,-0.0896 -0.50833,-0.27767 -0.16571,-0.19034 -0.16571,-0.47249 0,-0.36277 0.34262,-0.60238 0.34485,-0.24184 0.94051,-0.24184 0.28215,0 0.53967,0.0582 0.25976,0.056 0.40531,0.12092 v 0.63597 h -0.0694 q -0.17915,-0.12317 -0.4098,-0.1993 -0.22841,-0.0784 -0.46353,-0.0784 -0.19482,0 -0.32918,0.0537 -0.13212,0.0538 -0.13212,0.15228 0,0.0896 0.0605,0.1366 0.0605,0.047 0.28439,0.094 0.12316,0.0246 0.26424,0.0493 0.14332,0.0224 0.28663,0.0582 0.31798,0.0829 0.47026,0.262 0.15227,0.17691 0.15227,0.44338 z"
           style="font-style:normal;font-variant:normal;font-weight:bold;font-stretch:normal;font-size:4.5861px;font-family:Verdana;-inkscape-font-specification:Verdana;stroke-width:0.264583"
           id="path1064" />
      </g>
    </g>
    <g
       id="g891"
       transform="translate(-2.7243123e-5)">
      <path
         id="rect847-5-8"
         style="fill:#0c457b;fill-opacity:1;stroke:none;stroke-width:0.254955"
         d="m 152.03065,187.49257 h 21.14593 v 17.82462 h -21.14593 z" />
      <g
         aria-label="TB 1"
         id="text969-7-9-3"
         style="font-style:normal;font-weight:normal;font-size:4.93889px;line-height:1.25;font-family:sans-serif;fill:#000000;fill-opacity:1;stroke:none;stroke-width:0.264583">
        <path
           d="m 159.89421,208.55782 h -1.12137 v 2.8963 h -0.92605 v -2.8963 h -1.12137 v -0.69453 h 3.16879 z"
           style="font-style:normal;font-variant:normal;font-weight:bold;font-stretch:normal;font-size:4.93889px;font-family:Verdana;-inkscape-font-specification:Verdana;stroke-width:0.264583"
           id="path1026" />
        <path
           d="m 163.52362,210.35444 q 0,0.26045 -0.10611,0.46543 -0.10369,0.20499 -0.28697,0.34004 -0.21222,0.15916 -0.46785,0.22668 -0.25321,0.0675 -0.64388,0.0675 h -1.56752 v -3.59083 h 1.39388 q 0.43409,0 0.63425,0.0289 0.20257,0.0289 0.40032,0.12781 0.20498,0.1037 0.30385,0.27975 0.10129,0.17363 0.10129,0.39791 0,0.26044 -0.13746,0.4606 -0.13746,0.19775 -0.38826,0.30869 v 0.0193 q 0.35209,0.0699 0.55707,0.28939 0.20739,0.21945 0.20739,0.57877 z m -1.18649,-1.47588 q 0,-0.0892 -0.0458,-0.17845 -0.0434,-0.0892 -0.15675,-0.13264 -0.10128,-0.0386 -0.25321,-0.041 -0.14952,-0.005 -0.42203,-0.005 h -0.0868 v 0.75964 h 0.14469 q 0.21945,0 0.37379,-0.007 0.15434,-0.007 0.24357,-0.0482 0.1254,-0.0555 0.16399,-0.14228 0.0386,-0.0892 0.0386,-0.20499 z m 0.22669,1.46141 q 0,-0.17122 -0.0675,-0.26286 -0.0651,-0.0941 -0.22428,-0.13987 -0.10852,-0.0314 -0.29903,-0.0338 -0.19052,-0.002 -0.39791,-0.002 h -0.20257 v 0.89469 h 0.0675 q 0.39067,0 0.55948,-0.002 0.16881,-0.002 0.3111,-0.0627 0.14469,-0.0603 0.19774,-0.15917 0.0555,-0.10128 0.0555,-0.23151 z"
           style="font-style:normal;font-variant:normal;font-weight:bold;font-stretch:normal;font-size:4.93889px;font-family:Verdana;-inkscape-font-specification:Verdana;stroke-width:0.264583"
           id="path1028" />
        <path
           d="m 168.48181,211.45412 h -2.3971 v -0.62701 h 0.75723 v -1.8979 h -0.75723 v -0.58602 q 0.17363,0 0.33279,-0.0193 0.15917,-0.0217 0.26528,-0.0723 0.1254,-0.0603 0.1881,-0.15676 0.0627,-0.0965 0.0724,-0.24115 h 0.79823 v 2.97346 h 0.74035 z"
           style="font-style:normal;font-variant:normal;font-weight:bold;font-stretch:normal;font-size:4.93889px;font-family:Verdana;-inkscape-font-specification:Verdana;stroke-width:0.264583"
           id="path1030" />
      </g>
      <g
         aria-label="10 Gbps"
         id="text969-7-9-3-6-6-0"
         style="font-style:normal;font-weight:normal;font-size:4.5861px;line-height:1.25;font-family:sans-serif;fill:#000000;fill-opacity:1;stroke:none;stroke-width:0.264583">
        <path
           d="m 154.73357,184.72536 h -2.22587 v -0.58222 h 0.70315 v -1.76234 h -0.70315 v -0.54415 q 0.16123,0 0.30903,-0.0179 0.14779,-0.0202 0.24632,-0.0672 0.11645,-0.056 0.17467,-0.14556 0.0582,-0.0896 0.0672,-0.22393 h 0.74121 v 2.76107 h 0.68746 z"
           style="font-style:normal;font-variant:normal;font-weight:bold;font-stretch:normal;font-size:4.5861px;font-family:Verdana;-inkscape-font-specification:Verdana;stroke-width:0.264583"
           id="path1033" />
        <path
           d="m 158.18211,183.05707 q 0,0.42099 -0.0761,0.75465 -0.0761,0.33142 -0.23737,0.54415 -0.1657,0.21721 -0.42546,0.32918 -0.25976,0.10973 -0.64045,0.10973 -0.37396,0 -0.6382,-0.11197 -0.26424,-0.11197 -0.42771,-0.33142 -0.1657,-0.21945 -0.2396,-0.54415 -0.0739,-0.32694 -0.0739,-0.74793 0,-0.43442 0.0761,-0.75464 0.0761,-0.32022 0.24184,-0.54192 0.16571,-0.21945 0.42995,-0.32917 0.26424,-0.10973 0.63148,-0.10973 0.38293,0 0.64269,0.1142 0.25975,0.11197 0.42546,0.3359 0.16347,0.21945 0.23737,0.54191 0.0739,0.32022 0.0739,0.74121 z m -0.86661,0 q 0,-0.60461 -0.11869,-0.85989 -0.11868,-0.25752 -0.39412,-0.25752 -0.27543,0 -0.39411,0.25752 -0.11869,0.25528 -0.11869,0.86437 0,0.59342 0.12093,0.85542 0.12092,0.262 0.39187,0.262 0.27096,0 0.39188,-0.262 0.12093,-0.262 0.12093,-0.8599 z"
           style="font-style:normal;font-variant:normal;font-weight:bold;font-stretch:normal;font-size:4.5861px;font-family:Verdana;-inkscape-font-specification:Verdana;stroke-width:0.264583"
           id="path1035" />
        <path
           d="m 163.37506,184.53502 q -0.22393,0.0873 -0.59342,0.17466 -0.36948,0.0851 -0.73673,0.0851 -0.85094,0 -1.33239,-0.4613 -0.48145,-0.46354 -0.48145,-1.27865 0,-0.77704 0.48593,-1.25177 0.48593,-0.47697 1.35478,-0.47697 0.32918,0 0.62701,0.0605 0.29783,0.0582 0.66283,0.23513 v 0.78152 h -0.0963 q -0.0627,-0.047 -0.18362,-0.13212 -0.12092,-0.0873 -0.23289,-0.1478 -0.12988,-0.0717 -0.30454,-0.12316 -0.17243,-0.0515 -0.36725,-0.0515 -0.22841,0 -0.41427,0.0672 -0.18586,0.0672 -0.33366,0.20601 -0.14107,0.13436 -0.22393,0.34262 -0.0806,0.20601 -0.0806,0.47697 0,0.55311 0.29335,0.84646 0.29334,0.29335 0.86661,0.29335 0.0493,0 0.10748,-0.002 0.0605,-0.002 0.10973,-0.007 v -0.65388 h -0.66507 v -0.62924 h 1.5384 z"
           style="font-style:normal;font-variant:normal;font-weight:bold;font-stretch:normal;font-size:4.5861px;font-family:Verdana;-inkscape-font-specification:Verdana;stroke-width:0.264583"
           id="path1037" />
        <path
           d="m 166.72506,183.43328 q 0,0.59341 -0.32918,0.96738 -0.32693,0.37396 -0.81734,0.37396 -0.2105,0 -0.36949,-0.0448 -0.15899,-0.0448 -0.3023,-0.12988 l -0.0336,0.1254 h -0.77257 V 181.241 h 0.80616 v 1.23161 q 0.18586,-0.14779 0.37844,-0.2396 0.19482,-0.0918 0.44786,-0.0918 0.47697,0 0.73449,0.34485 0.25752,0.34261 0.25752,0.94723 z m -0.83078,0.0157 q 0,-0.33589 -0.11421,-0.51728 -0.1142,-0.18138 -0.40755,-0.18138 -0.1142,0 -0.23513,0.0358 -0.12092,0.0336 -0.23064,0.0985 v 1.26297 q 0.0873,0.0314 0.1657,0.0425 0.0784,0.0112 0.18811,0.0112 0.32022,0 0.47697,-0.1881 0.15675,-0.1881 0.15675,-0.56431 z"
           style="font-style:normal;font-variant:normal;font-weight:bold;font-stretch:normal;font-size:4.5861px;font-family:Verdana;-inkscape-font-specification:Verdana;stroke-width:0.264583"
           id="path1039" />
        <path
           d="m 169.93175,183.43328 q 0,0.31126 -0.0963,0.56654 -0.0941,0.25528 -0.24856,0.42099 -0.16123,0.17467 -0.36501,0.26424 -0.20378,0.0896 -0.43667,0.0896 -0.21497,0 -0.365,-0.047 -0.15004,-0.0448 -0.30679,-0.12764 v 1.04799 h -0.80615 v -3.43733 h 0.80615 v 0.26199 q 0.18586,-0.14779 0.37844,-0.2396 0.19482,-0.0918 0.44787,-0.0918 0.47025,0 0.73001,0.34485 0.262,0.34485 0.262,0.94723 z m -0.83078,0.0157 q 0,-0.36724 -0.1254,-0.53295 -0.12541,-0.16571 -0.39636,-0.16571 -0.11421,0 -0.23513,0.0358 -0.12092,0.0336 -0.23065,0.0985 v 1.26521 q 0.0806,0.0314 0.17243,0.0403 0.0918,0.009 0.18138,0.009 0.32022,0 0.47697,-0.18586 0.15676,-0.1881 0.15676,-0.56431 z"
           style="font-style:normal;font-variant:normal;font-weight:bold;font-stretch:normal;font-size:4.5861px;font-family:Verdana;-inkscape-font-specification:Verdana;stroke-width:0.264583"
           id="path1041" />
        <path
           d="m 172.69953,183.92816 q 0,0.38964 -0.34933,0.62925 -0.34933,0.23737 -0.95618,0.23737 -0.3359,0 -0.60909,-0.0627 -0.2732,-0.0627 -0.43891,-0.13883 v -0.66284 h 0.0739 q 0.0605,0.0426 0.13884,0.0941 0.0806,0.0493 0.22617,0.10749 0.1254,0.0515 0.28439,0.0896 0.15899,0.0358 0.34037,0.0358 0.23737,0 0.35157,-0.0515 0.11421,-0.0538 0.11421,-0.15675 0,-0.0918 -0.0672,-0.13212 -0.0672,-0.0426 -0.25528,-0.0806 -0.0896,-0.0202 -0.24409,-0.0425 -0.15227,-0.0246 -0.27767,-0.0582 -0.34261,-0.0896 -0.50832,-0.27767 -0.16571,-0.19034 -0.16571,-0.47249 0,-0.36277 0.34261,-0.60238 0.34486,-0.24184 0.94051,-0.24184 0.28215,0 0.53967,0.0582 0.25976,0.056 0.40532,0.12092 v 0.63596 h -0.0694 q -0.17914,-0.12316 -0.40979,-0.19929 -0.22841,-0.0784 -0.46354,-0.0784 -0.19482,0 -0.32918,0.0537 -0.13212,0.0538 -0.13212,0.15228 0,0.0896 0.0605,0.13659 0.0605,0.047 0.2844,0.0941 0.12316,0.0246 0.26423,0.0493 0.14332,0.0224 0.28664,0.0582 0.31798,0.0829 0.47025,0.262 0.15227,0.17691 0.15227,0.44338 z"
           style="font-style:normal;font-variant:normal;font-weight:bold;font-stretch:normal;font-size:4.5861px;font-family:Verdana;-inkscape-font-specification:Verdana;stroke-width:0.264583"
           id="path1043" />
      </g>
    </g>
    <g
       id="g884"
       transform="translate(0.33605541)">
      <path
         id="rect847-5-9-6"
         style="fill:#0c457b;fill-opacity:1;stroke:none;stroke-width:0.351806"
         d="m 111.74214,171.59085 h 21.14593 v 33.93914 h -21.14593 z" />
      <g
         aria-label="
USB 3.2"
         id="text969-7-9"
         style="font-style:normal;font-weight:normal;font-size:4.93889px;line-height:1.25;font-family:sans-serif;fill:#000000;fill-opacity:1;stroke:none;stroke-width:0.264583">
        <path
           d="m 114.94899,210.33308 q 0,0.6656 -0.40514,1.0201 -0.40515,0.3545 -1.19373,0.3545 -0.78858,0 -1.19373,-0.3545 -0.40273,-0.3545 -0.40273,-1.01769 v -2.2934 h 0.93087 v 2.24035 q 0,0.37379 0.15675,0.55707 0.15675,0.18328 0.50884,0.18328 0.34727,0 0.50643,-0.17604 0.16157,-0.17605 0.16157,-0.56431 v -2.24035 h 0.93087 z"
           style="font-style:normal;font-variant:normal;font-weight:normal;font-stretch:normal;font-size:4.93889px;font-family:Verdana;-inkscape-font-specification:Verdana;stroke-width:0.264583"
           id="path999" />
        <path
           d="m 118.68933,210.5043 q 0,0.53055 -0.45096,0.86334 -0.44855,0.33039 -1.22026,0.33039 -0.44614,0 -0.77893,-0.0772 -0.33039,-0.0796 -0.61978,-0.20016 v -0.86093 h 0.10129 q 0.28698,0.2291 0.64148,0.35209 0.35691,0.12299 0.68488,0.12299 0.0844,0 0.22187,-0.0145 0.13746,-0.0145 0.22427,-0.0482 0.10611,-0.0434 0.17364,-0.10852 0.0699,-0.0651 0.0699,-0.19293 0,-0.11816 -0.10128,-0.20257 -0.0989,-0.0868 -0.2918,-0.13264 -0.20258,-0.0482 -0.42926,-0.0892 -0.22428,-0.0434 -0.42203,-0.10852 -0.45337,-0.14711 -0.65353,-0.39791 -0.19775,-0.25322 -0.19775,-0.62701 0,-0.50161 0.44855,-0.81752 0.45096,-0.31833 1.15755,-0.31833 0.3545,0 0.69936,0.0699 0.34726,0.0675 0.60048,0.17122 v 0.82717 h -0.0989 q -0.21704,-0.17364 -0.53295,-0.28939 -0.31351,-0.11817 -0.64148,-0.11817 -0.11576,0 -0.23151,0.0169 -0.11334,0.0145 -0.21945,0.0579 -0.094,0.0362 -0.16158,0.11093 -0.0675,0.0724 -0.0675,0.1664 0,0.14228 0.10852,0.21945 0.10852,0.0748 0.40997,0.13746 0.19774,0.041 0.37861,0.0796 0.18328,0.0386 0.39309,0.10611 0.41237,0.13505 0.60771,0.36897 0.19775,0.23151 0.19775,0.60289 z"
           style="font-style:normal;font-variant:normal;font-weight:bold;font-stretch:normal;font-size:4.93889px;font-family:Verdana;-inkscape-font-specification:Verdana;stroke-width:0.264583"
           id="path1001" />
        <path
           d="m 122.39591,210.53324 q 0,0.26045 -0.10611,0.46544 -0.1037,0.20498 -0.28698,0.34003 -0.21221,0.15916 -0.46784,0.22668 -0.25321,0.0675 -0.64389,0.0675 h -1.56752 v -3.59083 h 1.39389 q 0.43408,0 0.63424,0.0289 0.20257,0.0289 0.40032,0.12782 0.20498,0.10369 0.30386,0.27974 0.10128,0.17363 0.10128,0.39791 0,0.26045 -0.13746,0.46061 -0.13745,0.19774 -0.38826,0.30868 v 0.0193 q 0.35209,0.0699 0.55707,0.28939 0.2074,0.21945 0.2074,0.57877 z m -1.18649,-1.47588 q 0,-0.0892 -0.0458,-0.17845 -0.0434,-0.0892 -0.15675,-0.13264 -0.10129,-0.0386 -0.25322,-0.041 -0.14952,-0.005 -0.42202,-0.005 h -0.0868 v 0.75965 h 0.1447 q 0.21945,0 0.37379,-0.007 0.15434,-0.007 0.24357,-0.0482 0.1254,-0.0555 0.16398,-0.14228 0.0386,-0.0892 0.0386,-0.20499 z m 0.22669,1.46141 q 0,-0.17122 -0.0675,-0.26286 -0.0651,-0.0941 -0.22427,-0.13987 -0.10852,-0.0314 -0.29904,-0.0338 -0.19051,-0.002 -0.39791,-0.002 h -0.20257 v 0.89469 h 0.0675 q 0.39068,0 0.55949,-0.002 0.16881,-0.002 0.31109,-0.0627 0.14469,-0.0603 0.19775,-0.15917 0.0555,-0.10128 0.0555,-0.23151 z"
           style="font-style:normal;font-variant:normal;font-weight:bold;font-stretch:normal;font-size:4.93889px;font-family:Verdana;-inkscape-font-specification:Verdana;stroke-width:0.264583"
           id="path1003" />
        <path
           d="m 127.22869,209.94964 q 0.11817,0.10129 0.1881,0.23634 0.0699,0.13504 0.0699,0.35932 0,0.25321 -0.10129,0.47267 -0.0989,0.21945 -0.30627,0.3762 -0.20257,0.15193 -0.47749,0.23392 -0.2725,0.0796 -0.66318,0.0796 -0.44614,0 -0.76688,-0.0699 -0.31832,-0.0699 -0.51848,-0.15675 v -0.78858 h 0.0941 q 0.20739,0.1254 0.49437,0.21704 0.28939,0.0916 0.52813,0.0916 0.13987,0 0.30386,-0.0217 0.16399,-0.0241 0.27733,-0.10128 0.0892,-0.0603 0.14228,-0.1447 0.0531,-0.0868 0.0531,-0.24839 0,-0.15675 -0.0724,-0.24116 -0.0724,-0.0868 -0.19051,-0.12299 -0.11817,-0.0386 -0.28457,-0.041 -0.1664,-0.005 -0.30868,-0.005 h -0.19775 v -0.64147 h 0.20498 q 0.18811,0 0.3328,-0.0121 0.14469,-0.0121 0.24598,-0.0555 0.10611,-0.0458 0.15916,-0.12057 0.0531,-0.0772 0.0531,-0.22428 0,-0.10852 -0.0555,-0.17363 -0.0555,-0.0675 -0.13987,-0.10611 -0.0941,-0.0434 -0.22186,-0.0579 -0.12782,-0.0145 -0.21946,-0.0145 -0.22668,0 -0.49195,0.0796 -0.26528,0.0772 -0.51367,0.22428 h -0.0892 v -0.77894 q 0.19775,-0.0796 0.53778,-0.15193 0.34003,-0.0748 0.68971,-0.0748 0.34003,0 0.59566,0.0603 0.25562,0.0579 0.42202,0.15676 0.19775,0.11816 0.29421,0.28697 0.0965,0.16881 0.0965,0.3955 0,0.29903 -0.18569,0.53537 -0.18569,0.23392 -0.48955,0.29903 v 0.0338 q 0.12299,0.0169 0.26045,0.0675 0.13746,0.0506 0.2508,0.1471 z"
           style="font-style:normal;font-variant:normal;font-weight:bold;font-stretch:normal;font-size:4.93889px;font-family:Verdana;-inkscape-font-specification:Verdana;stroke-width:0.264583"
           id="path1005" />
        <path
           d="m 129.17,211.63292 h -0.90192 v -0.94775 H 129.17 Z"
           style="font-style:normal;font-variant:normal;font-weight:bold;font-stretch:normal;font-size:4.93889px;font-family:Verdana;-inkscape-font-specification:Verdana;stroke-width:0.264583"
           id="path1007" />
        <path
           d="m 132.87658,211.63292 h -2.81912 v -0.59325 q 0.32315,-0.23392 0.6463,-0.49678 0.32556,-0.26286 0.5209,-0.45338 0.2918,-0.28215 0.41479,-0.49196 0.12299,-0.2098 0.12299,-0.41479 0,-0.24598 -0.15917,-0.37861 -0.15675,-0.13505 -0.45337,-0.13505 -0.22187,0 -0.46785,0.0916 -0.24356,0.0916 -0.45337,0.23392 h -0.0772 v -0.79823 q 0.17122,-0.0747 0.50402,-0.14951 0.33521,-0.0748 0.67041,-0.0748 0.67524,0 1.02974,0.28456 0.3545,0.28216 0.3545,0.80064 0,0.34003 -0.17122,0.6463 -0.16881,0.30627 -0.51849,0.63183 -0.21945,0.20258 -0.44131,0.3738 -0.22187,0.16881 -0.31592,0.23633 h 1.61334 z"
           style="font-style:normal;font-variant:normal;font-weight:bold;font-stretch:normal;font-size:4.93889px;font-family:Verdana;-inkscape-font-specification:Verdana;stroke-width:0.264583"
           id="path1009" />
      </g>
      <g
         aria-label="20 Gbps"
         id="text969-7-9-3-6-6-5"
         style="font-style:normal;font-weight:normal;font-size:4.5861px;line-height:1.25;font-family:sans-serif;fill:#000000;fill-opacity:1;stroke:none;stroke-width:0.264583">
        <path
           d="m 114.74625,168.5817 h -2.61774 v -0.55087 q 0.30006,-0.21722 0.60013,-0.4613 0.30231,-0.24409 0.48369,-0.42099 0.27096,-0.262 0.38516,-0.45682 0.1142,-0.19482 0.1142,-0.38516 0,-0.22841 -0.14779,-0.35157 -0.14555,-0.1254 -0.42099,-0.1254 -0.20602,0 -0.43442,0.0851 -0.22617,0.0851 -0.42099,0.21721 h -0.0717 v -0.74121 q 0.15899,-0.0694 0.46801,-0.13883 0.31127,-0.0694 0.62253,-0.0694 0.62701,0 0.95618,0.26424 0.32918,0.262 0.32918,0.74345 0,0.31574 -0.15899,0.60013 -0.15675,0.28439 -0.48145,0.5867 -0.20378,0.1881 -0.40979,0.34709 -0.20602,0.15675 -0.29335,0.21945 h 1.49809 z"
           style="font-style:normal;font-variant:normal;font-weight:bold;font-stretch:normal;font-size:4.5861px;font-family:Verdana;-inkscape-font-specification:Verdana;stroke-width:0.264583"
           id="path1012" />
        <path
           d="m 117.98429,166.91341 q 0,0.42099 -0.0761,0.75465 -0.0761,0.33142 -0.23737,0.54415 -0.16571,0.21721 -0.42547,0.32918 -0.25976,0.10972 -0.64044,0.10972 -0.37396,0 -0.6382,-0.11196 -0.26424,-0.11197 -0.42771,-0.33142 -0.16571,-0.21945 -0.23961,-0.54415 -0.0739,-0.32694 -0.0739,-0.74793 0,-0.43442 0.0761,-0.75464 0.0761,-0.32023 0.24185,-0.54192 0.16571,-0.21945 0.42994,-0.32918 0.26424,-0.10972 0.63149,-0.10972 0.38292,0 0.64268,0.1142 0.25976,0.11197 0.42547,0.3359 0.16347,0.21945 0.23737,0.54191 0.0739,0.32022 0.0739,0.74121 z m -0.86661,0 q 0,-0.60461 -0.11868,-0.85989 -0.11869,-0.25752 -0.39412,-0.25752 -0.27544,0 -0.39412,0.25752 -0.11868,0.25528 -0.11868,0.86437 0,0.59342 0.12092,0.85542 0.12092,0.26199 0.39188,0.26199 0.27096,0 0.39188,-0.26199 0.12092,-0.262 0.12092,-0.8599 z"
           style="font-style:normal;font-variant:normal;font-weight:bold;font-stretch:normal;font-size:4.5861px;font-family:Verdana;-inkscape-font-specification:Verdana;stroke-width:0.264583"
           id="path1014" />
        <path
           d="m 123.17724,168.39135 q -0.22393,0.0873 -0.59341,0.17467 -0.36949,0.0851 -0.73673,0.0851 -0.85094,0 -1.33239,-0.46129 -0.48145,-0.46354 -0.48145,-1.27865 0,-0.77704 0.48593,-1.25177 0.48593,-0.47697 1.35478,-0.47697 0.32918,0 0.627,0.0605 0.29783,0.0582 0.66284,0.23513 v 0.78151 h -0.0963 q -0.0627,-0.047 -0.18362,-0.13211 -0.12093,-0.0873 -0.23289,-0.1478 -0.12988,-0.0717 -0.30455,-0.12316 -0.17242,-0.0515 -0.36724,-0.0515 -0.22841,0 -0.41428,0.0672 -0.18586,0.0672 -0.33365,0.20602 -0.14108,0.13436 -0.22393,0.34261 -0.0806,0.20602 -0.0806,0.47698 0,0.55311 0.29335,0.84645 0.29335,0.29335 0.86661,0.29335 0.0493,0 0.10749,-0.002 0.0605,-0.002 0.10973,-0.007 v -0.65388 h -0.66508 v -0.62925 h 1.5384 z"
           style="font-style:normal;font-variant:normal;font-weight:bold;font-stretch:normal;font-size:4.5861px;font-family:Verdana;-inkscape-font-specification:Verdana;stroke-width:0.264583"
           id="path1016" />
        <path
           d="m 126.52725,167.28962 q 0,0.59341 -0.32918,0.96738 -0.32694,0.37396 -0.81735,0.37396 -0.21049,0 -0.36948,-0.0448 -0.15899,-0.0448 -0.30231,-0.12988 l -0.0336,0.12541 h -0.77256 v -3.48437 h 0.80615 v 1.23162 q 0.18586,-0.14779 0.37844,-0.2396 0.19482,-0.0918 0.44786,-0.0918 0.47698,0 0.7345,0.34485 0.25752,0.34261 0.25752,0.94723 z m -0.83079,0.0157 q 0,-0.3359 -0.1142,-0.51728 -0.1142,-0.18138 -0.40755,-0.18138 -0.11421,0 -0.23513,0.0358 -0.12092,0.0336 -0.23065,0.0985 v 1.26296 q 0.0873,0.0314 0.16571,0.0426 0.0784,0.0112 0.1881,0.0112 0.32022,0 0.47697,-0.1881 0.15675,-0.18811 0.15675,-0.56431 z"
           style="font-style:normal;font-variant:normal;font-weight:bold;font-stretch:normal;font-size:4.5861px;font-family:Verdana;-inkscape-font-specification:Verdana;stroke-width:0.264583"
           id="path1018" />
        <path
           d="m 129.73393,167.28962 q 0,0.31126 -0.0963,0.56654 -0.0941,0.25528 -0.24856,0.42099 -0.16123,0.17467 -0.36501,0.26424 -0.20377,0.0896 -0.43666,0.0896 -0.21497,0 -0.36501,-0.047 -0.15003,-0.0448 -0.30678,-0.12764 v 1.048 h -0.80615 v -3.43734 h 0.80615 v 0.262 q 0.18586,-0.14779 0.37844,-0.2396 0.19482,-0.0918 0.44786,-0.0918 0.47026,0 0.73002,0.34485 0.26199,0.34485 0.26199,0.94723 z m -0.83078,0.0157 q 0,-0.36725 -0.1254,-0.53295 -0.1254,-0.16571 -0.39636,-0.16571 -0.1142,0 -0.23512,0.0358 -0.12093,0.0336 -0.23065,0.0985 v 1.2652 q 0.0806,0.0314 0.17242,0.0403 0.0918,0.009 0.18139,0.009 0.32022,0 0.47697,-0.18586 0.15675,-0.18811 0.15675,-0.56431 z"
           style="font-style:normal;font-variant:normal;font-weight:bold;font-stretch:normal;font-size:4.5861px;font-family:Verdana;-inkscape-font-specification:Verdana;stroke-width:0.264583"
           id="path1020" />
        <path
           d="m 132.50172,167.7845 q 0,0.38964 -0.34933,0.62925 -0.34934,0.23736 -0.95619,0.23736 -0.33589,0 -0.60909,-0.0627 -0.27319,-0.0627 -0.4389,-0.13883 v -0.66284 h 0.0739 q 0.0605,0.0425 0.13884,0.094 0.0806,0.0493 0.22617,0.10749 0.1254,0.0515 0.28439,0.0896 0.15899,0.0358 0.34038,0.0358 0.23736,0 0.35157,-0.0515 0.1142,-0.0538 0.1142,-0.15676 0,-0.0918 -0.0672,-0.13211 -0.0672,-0.0426 -0.25528,-0.0806 -0.0896,-0.0202 -0.24408,-0.0426 -0.15227,-0.0246 -0.27768,-0.0582 -0.34261,-0.0896 -0.50832,-0.27767 -0.16571,-0.19034 -0.16571,-0.4725 0,-0.36276 0.34262,-0.60237 0.34485,-0.24184 0.94051,-0.24184 0.28215,0 0.53967,0.0582 0.25976,0.056 0.40531,0.12092 v 0.63596 h -0.0694 q -0.17914,-0.12316 -0.40979,-0.1993 -0.22841,-0.0784 -0.46353,-0.0784 -0.19482,0 -0.32918,0.0537 -0.13212,0.0538 -0.13212,0.15228 0,0.0896 0.0605,0.13659 0.0605,0.047 0.28439,0.0941 0.12316,0.0246 0.26424,0.0493 0.14332,0.0224 0.28663,0.0582 0.31798,0.0829 0.47026,0.262 0.15227,0.1769 0.15227,0.44338 z"
           style="font-style:normal;font-variant:normal;font-weight:bold;font-stretch:normal;font-size:4.5861px;font-family:Verdana;-inkscape-font-specification:Verdana;stroke-width:0.264583"
           id="path1022" />
      </g>
    </g>
    <g
       id="g876"
       transform="translate(1.9933432)">
      <path
         id="rect847-5"
         style="fill:#0c457b;fill-opacity:1;stroke:none;stroke-width:0.254955"
         d="m 70.132423,187.39105 h 21.145924 v 17.82462 H 70.132423 Z" />
      <g
         aria-label="
USB 3.1"
         id="text969-7-8"
         style="font-style:normal;font-weight:normal;font-size:4.93889px;line-height:1.25;font-family:sans-serif;fill:#000000;fill-opacity:1;stroke:none;stroke-width:0.264583">
        <path
           d="m 73.452598,210.21939 q 0,0.66559 -0.405143,1.02009 -0.405144,0.3545 -1.193726,0.3545 -0.788583,0 -1.193726,-0.3545 -0.402732,-0.3545 -0.402732,-1.01768 v -2.2934 h 0.930865 v 2.24035 q 0,0.37379 0.156752,0.55707 0.156752,0.18328 0.508841,0.18328 0.347265,0 0.506429,-0.17605 0.161575,-0.17604 0.161575,-0.5643 v -2.24035 h 0.930865 z"
           style="font-style:normal;font-variant:normal;font-weight:normal;font-stretch:normal;font-size:4.93889px;font-family:Verdana;-inkscape-font-specification:Verdana;stroke-width:0.264583"
           id="path972" />
        <path
           d="m 77.192939,210.39061 q 0,0.53055 -0.450963,0.86334 -0.448552,0.33039 -1.220253,0.33039 -0.44614,0 -0.778937,-0.0772 -0.330384,-0.0796 -0.619772,-0.20016 v -0.86093 h 0.101285 q 0.286977,0.2291 0.641477,0.35209 0.356912,0.12299 0.684885,0.12299 0.0844,0 0.221865,-0.0145 0.137459,-0.0145 0.224275,-0.0482 0.106109,-0.0434 0.173633,-0.10852 0.06994,-0.0651 0.06994,-0.19292 0,-0.11817 -0.101286,-0.20257 -0.09887,-0.0868 -0.2918,-0.13264 -0.202571,-0.0482 -0.429259,-0.0892 -0.224276,-0.0434 -0.422024,-0.10852 -0.453375,-0.1471 -0.653535,-0.39791 -0.197748,-0.25321 -0.197748,-0.627 0,-0.50161 0.448551,-0.81753 0.450963,-0.31832 1.157553,-0.31832 0.3545,0 0.699354,0.0699 0.347266,0.0675 0.60048,0.17122 v 0.82717 h -0.09887 q -0.217041,-0.17363 -0.532956,-0.28939 -0.313504,-0.11816 -0.641477,-0.11816 -0.115755,0 -0.231511,0.0169 -0.113343,0.0145 -0.219452,0.0579 -0.09405,0.0362 -0.161575,0.11093 -0.06752,0.0724 -0.06752,0.1664 0,0.14228 0.10852,0.21945 0.108521,0.0748 0.409967,0.13746 0.197748,0.041 0.378616,0.0796 0.183279,0.0386 0.393085,0.10611 0.412378,0.13505 0.607715,0.36897 0.197749,0.23151 0.197749,0.60289 z"
           style="font-style:normal;font-variant:normal;font-weight:bold;font-stretch:normal;font-size:4.93889px;font-family:Verdana;-inkscape-font-specification:Verdana;stroke-width:0.264583"
           id="path974" />
        <path
           d="m 80.899518,210.41955 q 0,0.26045 -0.106109,0.46543 -0.103697,0.20499 -0.286977,0.34003 -0.212218,0.15917 -0.467844,0.22669 -0.253214,0.0675 -0.643888,0.0675 h -1.567519 v -3.59082 h 1.393886 q 0.434082,0 0.634242,0.0289 0.202572,0.0289 0.40032,0.12781 0.204984,0.1037 0.303858,0.27974 0.101286,0.17364 0.101286,0.39791 0,0.26045 -0.13746,0.46061 -0.137459,0.19775 -0.388262,0.30868 v 0.0193 q 0.352089,0.0699 0.557072,0.28938 0.207395,0.21946 0.207395,0.57878 z m -1.186491,-1.47588 q 0,-0.0892 -0.04582,-0.17846 -0.04341,-0.0892 -0.156752,-0.13263 -0.101286,-0.0386 -0.253214,-0.041 -0.149518,-0.005 -0.422025,-0.005 H 78.7484 v 0.75964 h 0.144694 q 0.219452,0 0.373793,-0.007 0.15434,-0.007 0.243568,-0.0482 0.125402,-0.0555 0.163987,-0.14229 0.03858,-0.0892 0.03858,-0.20498 z m 0.226687,1.46141 q 0,-0.17122 -0.06752,-0.26286 -0.06511,-0.0941 -0.224276,-0.13987 -0.10852,-0.0314 -0.299034,-0.0338 -0.190514,-0.002 -0.397909,-0.002 H 78.7484 v 0.8947 h 0.06752 q 0.390674,0 0.559483,-0.002 0.16881,-0.002 0.311093,-0.0627 0.144694,-0.0603 0.197748,-0.15916 0.05547,-0.10129 0.05547,-0.23151 z"
           style="font-style:normal;font-variant:normal;font-weight:bold;font-stretch:normal;font-size:4.93889px;font-family:Verdana;-inkscape-font-specification:Verdana;stroke-width:0.264583"
           id="path976" />
        <path
           d="m 85.732299,209.83595 q 0.118166,0.10129 0.188102,0.23633 0.06994,0.13505 0.06994,0.35933 0,0.25321 -0.101286,0.47266 -0.09887,0.21946 -0.306269,0.37621 -0.202571,0.15193 -0.47749,0.23392 -0.272507,0.0796 -0.663181,0.0796 -0.44614,0 -0.766878,-0.0699 -0.318327,-0.0699 -0.518487,-0.15675 v -0.78859 h 0.09405 q 0.207395,0.1254 0.494371,0.21704 0.289388,0.0916 0.528133,0.0916 0.139871,0 0.303858,-0.0217 0.163986,-0.0241 0.27733,-0.10129 0.08923,-0.0603 0.142283,-0.14469 0.05305,-0.0868 0.05305,-0.24839 0,-0.15675 -0.07235,-0.24116 -0.07235,-0.0868 -0.190514,-0.12299 -0.118167,-0.0386 -0.284565,-0.041 -0.166398,-0.005 -0.30868,-0.005 H 83.99597 v -0.64148 h 0.204983 q 0.188103,0 0.332797,-0.0121 0.144694,-0.0121 0.245979,-0.0555 0.106109,-0.0458 0.159164,-0.12058 0.05305,-0.0772 0.05305,-0.22427 0,-0.10852 -0.05547,-0.17364 -0.05547,-0.0675 -0.139871,-0.10611 -0.09405,-0.0434 -0.221864,-0.0579 -0.127813,-0.0145 -0.219452,-0.0145 -0.226688,0 -0.49196,0.0796 -0.265273,0.0772 -0.513664,0.22428 h -0.08923 v -0.77894 q 0.197749,-0.0796 0.53778,-0.15193 0.340031,-0.0748 0.689708,-0.0748 0.340031,0 0.595657,0.0603 0.255626,0.0579 0.422024,0.15675 0.197749,0.11817 0.294211,0.28698 0.09646,0.16881 0.09646,0.3955 0,0.29903 -0.185691,0.53536 -0.18569,0.23393 -0.489548,0.29904 v 0.0338 q 0.12299,0.0169 0.26045,0.0675 0.137459,0.0506 0.250803,0.14711 z"
           style="font-style:normal;font-variant:normal;font-weight:bold;font-stretch:normal;font-size:4.93889px;font-family:Verdana;-inkscape-font-specification:Verdana;stroke-width:0.264583"
           id="path978" />
        <path
           d="m 87.673611,211.51922 h -0.901926 v -0.94774 h 0.901926 z"
           style="font-style:normal;font-variant:normal;font-weight:bold;font-stretch:normal;font-size:4.93889px;font-family:Verdana;-inkscape-font-specification:Verdana;stroke-width:0.264583"
           id="path980" />
        <path
           d="m 91.153502,211.51922 h -2.397098 v -0.627 h 0.757232 v -1.89791 h -0.757232 v -0.58601 q 0.173633,0 0.332797,-0.0193 0.159163,-0.0217 0.265272,-0.0724 0.125401,-0.0603 0.188102,-0.15675 0.0627,-0.0965 0.07235,-0.24116 h 0.798229 v 2.97347 h 0.740351 z"
           style="font-style:normal;font-variant:normal;font-weight:bold;font-stretch:normal;font-size:4.93889px;font-family:Verdana;-inkscape-font-specification:Verdana;stroke-width:0.264583"
           id="path982" />
      </g>
      <g
         aria-label="10 Gbps"
         id="text969-7-9-3-6-6-7"
         style="font-style:normal;font-weight:normal;font-size:4.5861px;line-height:1.25;font-family:sans-serif;fill:#000000;fill-opacity:1;stroke:none;stroke-width:0.264583">
        <path
           d="m 72.835343,184.49797 h -2.225871 v -0.58222 h 0.703143 v -1.76233 h -0.703143 v -0.54416 q 0.16123,0 0.309025,-0.0179 0.147794,-0.0202 0.246323,-0.0672 0.116444,-0.056 0.174666,-0.14555 0.05822,-0.0896 0.06718,-0.22393 h 0.74121 v 2.76106 h 0.687467 z"
           style="font-style:normal;font-variant:normal;font-weight:bold;font-stretch:normal;font-size:4.5861px;font-family:Verdana;-inkscape-font-specification:Verdana;stroke-width:0.264583"
           id="path985" />
        <path
           d="m 76.283876,182.82969 q 0,0.42099 -0.07614,0.75464 -0.07614,0.33142 -0.237366,0.54415 -0.165709,0.21722 -0.425469,0.32918 -0.259759,0.10973 -0.640441,0.10973 -0.373965,0 -0.638203,-0.11197 -0.264238,-0.11196 -0.427707,-0.33141 -0.165709,-0.21946 -0.239606,-0.54416 -0.0739,-0.32693 -0.0739,-0.74792 0,-0.43443 0.07614,-0.75465 0.07614,-0.32022 0.241845,-0.54191 0.165709,-0.21945 0.429947,-0.32918 0.264238,-0.10973 0.631485,-0.10973 0.382921,0 0.642681,0.11421 0.259759,0.11196 0.425468,0.33589 0.163469,0.21946 0.237366,0.54192 0.0739,0.32022 0.0739,0.74121 z m -0.866612,0 q 0,-0.60462 -0.118683,-0.8599 -0.118684,-0.25752 -0.394118,-0.25752 -0.275435,0 -0.394118,0.25752 -0.118684,0.25528 -0.118684,0.86438 0,0.59341 0.120923,0.85541 0.120923,0.262 0.391879,0.262 0.270956,0 0.391878,-0.262 0.120923,-0.262 0.120923,-0.85989 z"
           style="font-style:normal;font-variant:normal;font-weight:bold;font-stretch:normal;font-size:4.5861px;font-family:Verdana;-inkscape-font-specification:Verdana;stroke-width:0.264583"
           id="path987" />
        <path
           d="m 81.476828,184.30763 q -0.223931,0.0873 -0.593416,0.17467 -0.369486,0.0851 -0.736732,0.0851 -0.850937,0 -1.332388,-0.4613 -0.481451,-0.46353 -0.481451,-1.27864 0,-0.77704 0.48593,-1.25177 0.48593,-0.47698 1.354781,-0.47698 0.329178,0 0.627005,0.0605 0.297828,0.0582 0.662835,0.23513 v 0.78152 h -0.09629 q -0.0627,-0.047 -0.183623,-0.13212 -0.120923,-0.0873 -0.232888,-0.14779 -0.12988,-0.0717 -0.304546,-0.12317 -0.172426,-0.0515 -0.367246,-0.0515 -0.228409,0 -0.414272,0.0672 -0.185862,0.0672 -0.333656,0.20602 -0.141077,0.13435 -0.223931,0.34261 -0.08061,0.20602 -0.08061,0.47697 0,0.55311 0.293349,0.84646 0.293349,0.29335 0.866612,0.29335 0.04926,0 0.107486,-0.002 0.06046,-0.002 0.109726,-0.007 v -0.65388 h -0.665074 v -0.62924 h 1.538404 z"
           style="font-style:normal;font-variant:normal;font-weight:bold;font-stretch:normal;font-size:4.5861px;font-family:Verdana;-inkscape-font-specification:Verdana;stroke-width:0.264583"
           id="path989" />
        <path
           d="m 84.826831,183.20589 q 0,0.59342 -0.329178,0.96738 -0.326939,0.37397 -0.817347,0.37397 -0.210495,0 -0.369486,-0.0448 -0.158991,-0.0448 -0.302306,-0.12988 l -0.03359,0.1254 h -0.772561 v -3.48436 h 0.806151 v 1.23162 q 0.185862,-0.1478 0.378442,-0.23961 0.19482,-0.0918 0.447862,-0.0918 0.476972,0 0.734492,0.34485 0.257521,0.34262 0.257521,0.94723 z m -0.830783,0.0157 q 0,-0.3359 -0.114205,-0.51728 -0.114204,-0.18139 -0.407554,-0.18139 -0.114204,0 -0.235127,0.0358 -0.120922,0.0336 -0.230648,0.0985 v 1.26297 q 0.08733,0.0314 0.165708,0.0426 0.07838,0.0112 0.188102,0.0112 0.320221,0 0.476972,-0.1881 0.156752,-0.1881 0.156752,-0.5643 z"
           style="font-style:normal;font-variant:normal;font-weight:bold;font-stretch:normal;font-size:4.5861px;font-family:Verdana;-inkscape-font-specification:Verdana;stroke-width:0.264583"
           id="path991" />
        <path
           d="m 88.033518,183.20589 q 0,0.31126 -0.09629,0.56655 -0.09405,0.25528 -0.248563,0.42098 -0.16123,0.17467 -0.365007,0.26424 -0.203777,0.0896 -0.436664,0.0896 -0.214974,0 -0.365007,-0.047 -0.150034,-0.0448 -0.306785,-0.12764 v 1.04799 H 85.40905 v -3.43733 h 0.806151 v 0.262 q 0.185862,-0.1478 0.378442,-0.23961 0.19482,-0.0918 0.447862,-0.0918 0.470254,0 0.730014,0.34485 0.261999,0.34486 0.261999,0.94723 z m -0.830783,0.0157 q 0,-0.36725 -0.125401,-0.53296 -0.125402,-0.16571 -0.396358,-0.16571 -0.114204,0 -0.235127,0.0358 -0.120922,0.0336 -0.230648,0.0985 v 1.26521 q 0.08062,0.0314 0.172426,0.0403 0.09181,0.009 0.181384,0.009 0.320221,0 0.476972,-0.18586 0.156752,-0.1881 0.156752,-0.5643 z"
           style="font-style:normal;font-variant:normal;font-weight:bold;font-stretch:normal;font-size:4.5861px;font-family:Verdana;-inkscape-font-specification:Verdana;stroke-width:0.264583"
           id="path993" />
        <path
           d="m 90.801301,183.70078 q 0,0.38964 -0.349331,0.62924 -0.349332,0.23737 -0.956184,0.23737 -0.335896,0 -0.609092,-0.0627 -0.273195,-0.0627 -0.438904,-0.13884 v -0.66283 h 0.0739 q 0.06046,0.0425 0.138837,0.094 0.08062,0.0493 0.22617,0.10748 0.125401,0.0515 0.284392,0.0896 0.158991,0.0358 0.340375,0.0358 0.237366,0 0.351571,-0.0515 0.114205,-0.0537 0.114205,-0.15675 0,-0.0918 -0.06718,-0.13212 -0.06718,-0.0426 -0.255281,-0.0806 -0.08957,-0.0202 -0.244084,-0.0426 -0.152273,-0.0246 -0.277674,-0.0582 -0.342614,-0.0896 -0.508323,-0.27768 -0.165708,-0.19034 -0.165708,-0.47249 0,-0.36277 0.342614,-0.60237 0.344853,-0.24185 0.940508,-0.24185 0.282153,0 0.539673,0.0582 0.25976,0.056 0.405315,0.12093 v 0.63596 h -0.06942 q -0.179144,-0.12316 -0.409793,-0.1993 -0.228409,-0.0784 -0.463536,-0.0784 -0.19482,0 -0.329178,0.0537 -0.13212,0.0537 -0.13212,0.15227 0,0.0896 0.06046,0.1366 0.06046,0.047 0.284392,0.0941 0.123162,0.0246 0.264238,0.0493 0.143316,0.0224 0.286631,0.0582 0.317982,0.0829 0.470255,0.26199 0.152272,0.17691 0.152272,0.44339 z"
           style="font-style:normal;font-variant:normal;font-weight:bold;font-stretch:normal;font-size:4.5861px;font-family:Verdana;-inkscape-font-specification:Verdana;stroke-width:0.264583"
           id="path995" />
      </g>
    </g>
    <g
       id="g913"
       transform="translate(1.6570423)">
      <path
         id="rect847-5-4-5"
         style="fill:#0c457b;fill-opacity:1;stroke:none;stroke-width:0.185135"
         d="M 30.446474,195.57657 H 51.66222 v 9.36786 H 30.446474 Z" />
      <g
         aria-label="
USB 3.0"
         id="text969-7"
         style="font-style:normal;font-weight:normal;font-size:4.93889px;line-height:1.25;font-family:sans-serif;fill:#000000;fill-opacity:1;stroke:none;stroke-width:0.264583">
        <path
           d="m 33.700273,210.21939 q 0,0.66559 -0.405144,1.02009 -0.405143,0.3545 -1.193725,0.3545 -0.788583,0 -1.193726,-0.3545 -0.402732,-0.3545 -0.402732,-1.01768 v -2.2934 h 0.930865 v 2.24035 q 0,0.37379 0.156752,0.55707 0.156752,0.18328 0.508841,0.18328 0.347265,0 0.506429,-0.17605 0.161575,-0.17604 0.161575,-0.5643 v -2.24035 h 0.930865 z"
           style="font-style:normal;font-variant:normal;font-weight:normal;font-stretch:normal;font-size:4.93889px;font-family:Verdana;-inkscape-font-specification:Verdana;stroke-width:0.264583"
           id="path947" />
        <path
           d="m 37.440614,210.39061 q 0,0.53055 -0.450963,0.86334 -0.448552,0.33039 -1.220253,0.33039 -0.44614,0 -0.778937,-0.0772 -0.330384,-0.0796 -0.619772,-0.20016 v -0.86093 h 0.101285 q 0.286977,0.2291 0.641477,0.35209 0.356912,0.12299 0.684885,0.12299 0.08441,0 0.221865,-0.0145 0.137459,-0.0145 0.224275,-0.0482 0.106109,-0.0434 0.173633,-0.10852 0.06994,-0.0651 0.06994,-0.19292 0,-0.11817 -0.101286,-0.20257 -0.09887,-0.0868 -0.2918,-0.13264 -0.202571,-0.0482 -0.429259,-0.0892 -0.224276,-0.0434 -0.422024,-0.10852 -0.453375,-0.1471 -0.653535,-0.39791 -0.197748,-0.25321 -0.197748,-0.627 0,-0.50161 0.448551,-0.81753 0.450963,-0.31832 1.157552,-0.31832 0.354501,0 0.699355,0.0699 0.347266,0.0675 0.60048,0.17122 v 0.82717 h -0.09887 q -0.217041,-0.17363 -0.532956,-0.28939 -0.313504,-0.11816 -0.641477,-0.11816 -0.115756,0 -0.231511,0.0169 -0.113343,0.0145 -0.219452,0.0579 -0.09405,0.0362 -0.161575,0.11093 -0.06752,0.0724 -0.06752,0.1664 0,0.14228 0.10852,0.21945 0.108521,0.0748 0.409967,0.13746 0.197748,0.041 0.378616,0.0796 0.183279,0.0386 0.393085,0.10611 0.412378,0.13505 0.607715,0.36897 0.197749,0.23151 0.197749,0.60289 z"
           style="font-style:normal;font-variant:normal;font-weight:bold;font-stretch:normal;font-size:4.93889px;font-family:Verdana;-inkscape-font-specification:Verdana;stroke-width:0.264583"
           id="path949" />
        <path
           d="m 41.147193,210.41955 q 0,0.26045 -0.106109,0.46543 -0.103698,0.20499 -0.286977,0.34003 -0.212218,0.15917 -0.467844,0.22669 -0.253214,0.0675 -0.643888,0.0675 h -1.567519 v -3.59082 h 1.393886 q 0.434082,0 0.634242,0.0289 0.202572,0.0289 0.40032,0.12781 0.204984,0.1037 0.303858,0.27974 0.101286,0.17364 0.101286,0.39791 0,0.26045 -0.13746,0.46061 -0.137459,0.19775 -0.388262,0.30868 v 0.0193 q 0.352089,0.0699 0.557072,0.28938 0.207395,0.21946 0.207395,0.57878 z m -1.186491,-1.47588 q 0,-0.0892 -0.04582,-0.17846 -0.04341,-0.0892 -0.156752,-0.13263 -0.101286,-0.0386 -0.253215,-0.041 -0.149517,-0.005 -0.422024,-0.005 h -0.08682 v 0.75964 h 0.144694 q 0.219452,0 0.373793,-0.007 0.15434,-0.007 0.243568,-0.0482 0.125402,-0.0555 0.163987,-0.14229 0.03858,-0.0892 0.03858,-0.20498 z m 0.226687,1.46141 q 0,-0.17122 -0.06752,-0.26286 -0.06511,-0.0941 -0.224276,-0.13987 -0.10852,-0.0314 -0.299034,-0.0338 -0.190514,-0.002 -0.397909,-0.002 h -0.202571 v 0.8947 h 0.06752 q 0.390674,0 0.559483,-0.002 0.16881,-0.002 0.311092,-0.0627 0.144694,-0.0603 0.197749,-0.15916 0.05547,-0.10129 0.05547,-0.23151 z"
           style="font-style:normal;font-variant:normal;font-weight:bold;font-stretch:normal;font-size:4.93889px;font-family:Verdana;-inkscape-font-specification:Verdana;stroke-width:0.264583"
           id="path951" />
        <path
           d="m 45.979974,209.83595 q 0.118166,0.10129 0.188102,0.23633 0.06994,0.13505 0.06994,0.35933 0,0.25321 -0.101286,0.47266 -0.09887,0.21946 -0.306269,0.37621 -0.202571,0.15193 -0.47749,0.23392 -0.272507,0.0796 -0.663181,0.0796 -0.44614,0 -0.766878,-0.0699 -0.318327,-0.0699 -0.518487,-0.15675 v -0.78859 h 0.09405 q 0.207394,0.1254 0.494371,0.21704 0.289388,0.0916 0.528133,0.0916 0.139871,0 0.303858,-0.0217 0.163986,-0.0241 0.27733,-0.10129 0.08923,-0.0603 0.142282,-0.14469 0.05306,-0.0868 0.05306,-0.24839 0,-0.15675 -0.07235,-0.24116 -0.07235,-0.0868 -0.190514,-0.12299 -0.118167,-0.0386 -0.284565,-0.041 -0.166398,-0.005 -0.30868,-0.005 h -0.197749 v -0.64148 h 0.204983 q 0.188102,0 0.332797,-0.0121 0.144694,-0.0121 0.245979,-0.0555 0.106109,-0.0458 0.159164,-0.12058 0.05305,-0.0772 0.05305,-0.22427 0,-0.10852 -0.05547,-0.17364 -0.05547,-0.0675 -0.139871,-0.10611 -0.09405,-0.0434 -0.221864,-0.0579 -0.127813,-0.0145 -0.219452,-0.0145 -0.226688,0 -0.49196,0.0796 -0.265273,0.0772 -0.513664,0.22428 h -0.08923 v -0.77894 q 0.197748,-0.0796 0.537779,-0.15193 0.340031,-0.0748 0.689709,-0.0748 0.340031,0 0.595657,0.0603 0.255626,0.0579 0.422024,0.15675 0.197749,0.11817 0.294211,0.28698 0.09646,0.16881 0.09646,0.3955 0,0.29903 -0.185691,0.53536 -0.18569,0.23393 -0.489548,0.29904 v 0.0338 q 0.12299,0.0169 0.260449,0.0675 0.13746,0.0506 0.250804,0.14711 z"
           style="font-style:normal;font-variant:normal;font-weight:bold;font-stretch:normal;font-size:4.93889px;font-family:Verdana;-inkscape-font-specification:Verdana;stroke-width:0.264583"
           id="path953" />
        <path
           d="M 47.921286,211.51922 H 47.01936 v -0.94774 h 0.901926 z"
           style="font-style:normal;font-variant:normal;font-weight:bold;font-stretch:normal;font-size:4.93889px;font-family:Verdana;-inkscape-font-specification:Verdana;stroke-width:0.264583"
           id="path955" />
        <path
           d="m 51.603749,209.72261 q 0,0.45337 -0.08199,0.81269 -0.08199,0.35692 -0.255626,0.58602 -0.178456,0.23392 -0.458197,0.3545 -0.279742,0.11816 -0.689709,0.11816 -0.402731,0 -0.687296,-0.12058 -0.284565,-0.12057 -0.46061,-0.35691 -0.178456,-0.23633 -0.258037,-0.58601 -0.07958,-0.35209 -0.07958,-0.80546 0,-0.46785 0.08199,-0.8127 0.08199,-0.34485 0.260449,-0.5836 0.178456,-0.23633 0.463021,-0.3545 0.284565,-0.11817 0.680062,-0.11817 0.412378,0 0.69212,0.12299 0.279742,0.12058 0.458198,0.36174 0.176044,0.23633 0.255626,0.5836 0.07958,0.34485 0.07958,0.79823 z m -0.933277,0 q 0,-0.65113 -0.127813,-0.92605 -0.127813,-0.27733 -0.424436,-0.27733 -0.296623,0 -0.424436,0.27733 -0.127813,0.27492 -0.127813,0.93087 0,0.63906 0.130225,0.92122 0.130225,0.28215 0.422024,0.28215 0.2918,0 0.422025,-0.28215 0.130224,-0.28216 0.130224,-0.92604 z"
           style="font-style:normal;font-variant:normal;font-weight:bold;font-stretch:normal;font-size:4.93889px;font-family:Verdana;-inkscape-font-specification:Verdana;stroke-width:0.264583"
           id="path957" />
      </g>
      <g
         aria-label="5 Gbps"
         id="text969-7-9-3-6-6-1"
         style="font-style:normal;font-weight:normal;font-size:4.5861px;line-height:1.25;font-family:sans-serif;fill:#000000;fill-opacity:1;stroke:none;stroke-width:0.264583">
        <path
           d="m 35.06756,191.78226 q 0,0.25976 -0.09853,0.48369 -0.09629,0.22169 -0.282153,0.38069 -0.206016,0.17018 -0.474733,0.25304 -0.266477,0.0806 -0.609091,0.0806 -0.400836,-0.002 -0.67851,-0.0649 -0.275435,-0.0605 -0.450101,-0.1366 v -0.73673 h 0.09405 q 0.203777,0.12092 0.438904,0.20154 0.235127,0.0806 0.468015,0.0806 0.141077,0 0.304546,-0.0314 0.165709,-0.0336 0.261999,-0.11868 0.07614,-0.0694 0.114204,-0.14107 0.04031,-0.0717 0.04031,-0.2217 0,-0.11644 -0.05374,-0.19929 -0.0515,-0.0851 -0.134359,-0.1366 -0.120922,-0.0739 -0.29111,-0.0963 -0.170187,-0.0246 -0.309024,-0.0246 -0.201538,0 -0.3874,0.0358 -0.183623,0.0336 -0.32246,0.0672 h -0.09853 v -1.88101 h 2.371426 v 0.6382 h -1.563036 v 0.54415 q 0.06942,-0.004 0.174666,-0.007 0.107487,-0.004 0.188102,-0.004 0.275434,0 0.490408,0.0537 0.217213,0.0515 0.373964,0.14555 0.203777,0.12316 0.317982,0.32694 0.114204,0.20154 0.114204,0.50832 z"
           style="font-style:normal;font-variant:normal;font-weight:bold;font-stretch:normal;font-size:4.5861px;font-family:Verdana;-inkscape-font-specification:Verdana;stroke-width:0.264583"
           id="path960" />
        <path
           d="m 40.309777,192.72053 q -0.22393,0.0873 -0.593416,0.17467 -0.369486,0.0851 -0.736732,0.0851 -0.850936,0 -1.332387,-0.4613 -0.481451,-0.46353 -0.481451,-1.27864 0,-0.77704 0.485929,-1.25177 0.48593,-0.47697 1.354781,-0.47697 0.329178,0 0.627006,0.0605 0.297827,0.0582 0.662834,0.23512 v 0.78152 h -0.09629 q -0.0627,-0.047 -0.183623,-0.13212 -0.120923,-0.0873 -0.232888,-0.14779 -0.12988,-0.0717 -0.304546,-0.12316 -0.172426,-0.0515 -0.367246,-0.0515 -0.228409,0 -0.414272,0.0672 -0.185862,0.0672 -0.333656,0.20602 -0.141077,0.13436 -0.223931,0.34261 -0.08061,0.20602 -0.08061,0.47697 0,0.55311 0.293349,0.84646 0.293349,0.29335 0.866612,0.29335 0.04927,0 0.107487,-0.002 0.06046,-0.002 0.109726,-0.007 v -0.65387 h -0.665074 v -0.62925 h 1.538403 z"
           style="font-style:normal;font-variant:normal;font-weight:bold;font-stretch:normal;font-size:4.5861px;font-family:Verdana;-inkscape-font-specification:Verdana;stroke-width:0.264583"
           id="path962" />
        <path
           d="m 43.65978,191.61879 q 0,0.59342 -0.329178,0.96738 -0.326939,0.37397 -0.817347,0.37397 -0.210495,0 -0.369485,-0.0448 -0.158991,-0.0448 -0.302307,-0.12988 l -0.03359,0.1254 h -0.772561 v -3.48436 h 0.80615 v 1.23162 q 0.185863,-0.14779 0.378443,-0.2396 0.19482,-0.0918 0.447861,-0.0918 0.476973,0 0.734493,0.34486 0.25752,0.34261 0.25752,0.94722 z m -0.830783,0.0157 q 0,-0.3359 -0.114204,-0.51728 -0.114205,-0.18139 -0.407554,-0.18139 -0.114205,0 -0.235127,0.0358 -0.120923,0.0336 -0.230649,0.0985 v 1.26297 q 0.08733,0.0313 0.165709,0.0425 0.07838,0.0112 0.188102,0.0112 0.320221,0 0.476972,-0.18811 0.156751,-0.1881 0.156751,-0.5643 z"
           style="font-style:normal;font-variant:normal;font-weight:bold;font-stretch:normal;font-size:4.5861px;font-family:Verdana;-inkscape-font-specification:Verdana;stroke-width:0.264583"
           id="path964" />
        <path
           d="m 46.866467,191.61879 q 0,0.31127 -0.09629,0.56655 -0.09405,0.25528 -0.248563,0.42099 -0.16123,0.17466 -0.365007,0.26424 -0.203777,0.0896 -0.436665,0.0896 -0.214973,0 -0.365007,-0.047 -0.150033,-0.0448 -0.306785,-0.12764 v 1.048 H 44.242 v -3.43734 h 0.80615 v 0.262 q 0.185863,-0.14779 0.378443,-0.2396 0.19482,-0.0918 0.447861,-0.0918 0.470255,0 0.730014,0.34486 0.261999,0.34485 0.261999,0.94722 z m -0.830783,0.0157 q 0,-0.36725 -0.125401,-0.53296 -0.125401,-0.16571 -0.396357,-0.16571 -0.114205,0 -0.235127,0.0358 -0.120923,0.0336 -0.230649,0.0985 v 1.26521 q 0.08062,0.0313 0.172427,0.0403 0.09181,0.009 0.181384,0.009 0.32022,0 0.476972,-0.18587 0.156751,-0.1881 0.156751,-0.5643 z"
           style="font-style:normal;font-variant:normal;font-weight:bold;font-stretch:normal;font-size:4.5861px;font-family:Verdana;-inkscape-font-specification:Verdana;stroke-width:0.264583"
           id="path966" />
        <path
           d="m 49.63425,192.11368 q 0,0.38964 -0.349332,0.62925 -0.349332,0.23736 -0.956184,0.23736 -0.335896,0 -0.609091,-0.0627 -0.273196,-0.0627 -0.438904,-0.13884 v -0.66283 h 0.0739 q 0.06046,0.0426 0.138837,0.0941 0.08062,0.0493 0.22617,0.10749 0.125401,0.0515 0.284392,0.0896 0.158991,0.0358 0.340374,0.0358 0.237367,0 0.351572,-0.0515 0.114204,-0.0537 0.114204,-0.15675 0,-0.0918 -0.06718,-0.13212 -0.06718,-0.0425 -0.255281,-0.0806 -0.08957,-0.0202 -0.244084,-0.0426 -0.152273,-0.0246 -0.277674,-0.0582 -0.342614,-0.0896 -0.508323,-0.27767 -0.165709,-0.19035 -0.165709,-0.4725 0,-0.36277 0.342614,-0.60237 0.344853,-0.24185 0.940509,-0.24185 0.282153,0 0.539673,0.0582 0.259759,0.056 0.405314,0.12092 v 0.63596 h -0.06942 q -0.179145,-0.12316 -0.409793,-0.1993 -0.228409,-0.0784 -0.463537,-0.0784 -0.194819,0 -0.329178,0.0537 -0.132119,0.0537 -0.132119,0.15227 0,0.0896 0.06046,0.1366 0.06046,0.047 0.284392,0.0941 0.123162,0.0246 0.264239,0.0493 0.143315,0.0224 0.286631,0.0582 0.317981,0.0829 0.470254,0.262 0.152273,0.1769 0.152273,0.44338 z"
           style="font-style:normal;font-variant:normal;font-weight:bold;font-stretch:normal;font-size:4.5861px;font-family:Verdana;-inkscape-font-specification:Verdana;stroke-width:0.264583"
           id="path968" />
      </g>
    </g>
    <g
       id="g921">
      <path
         id="rect847-5-4-5-9"
         style="fill:#0c457b;fill-opacity:1;stroke:none;stroke-width:0.0767128"
         d="M -7.9187374,203.34578 H 13.297009 v 1.60842 H -7.9187374 Z" />
      <g
         aria-label="
USB 2"
         id="text969-7-4"
         style="font-style:normal;font-weight:normal;font-size:4.93889px;line-height:1.25;font-family:sans-serif;fill:#000000;fill-opacity:1;stroke:none;stroke-width:0.264583">
        <path
           d="m -2.0290959,210.21457 q 0,0.66559 -0.4051433,1.02009 -0.4051433,0.3545 -1.1937259,0.3545 -0.7885825,0 -1.1937258,-0.3545 -0.4027318,-0.3545 -0.4027318,-1.01768 v -2.2934 h 0.930865 v 2.24034 q 0,0.3738 0.1567519,0.55708 0.1567519,0.18328 0.5088407,0.18328 0.3472657,0 0.5064292,-0.17605 0.161575,-0.17604 0.161575,-0.56431 v -2.24034 h 0.930865 z"
           style="font-style:normal;font-variant:normal;font-weight:normal;font-stretch:normal;font-size:4.93889px;font-family:Verdana;-inkscape-font-specification:Verdana;stroke-width:0.264583"
           id="path924" />
        <path
           d="m 1.7112451,210.38579 q 0,0.53054 -0.4509631,0.86334 -0.44855154,0.33038 -1.2202531,0.33038 -0.44613997,0 -0.77893626,-0.0772 -0.33038474,-0.0796 -0.61977284,-0.20016 v -0.86093 h 0.1012859 q 0.28697647,0.2291 0.64147687,0.35209 0.35691197,0.12299 0.68488514,0.12299 0.08440485,0 0.22186419,-0.0145 0.13745934,-0.0145 0.22427577,-0.0482 0.10610896,-0.0434 0.17363285,-0.10852 0.0699355,-0.0651 0.0699355,-0.19292 0,-0.11817 -0.10128583,-0.20257 -0.0988743,-0.0868 -0.29179965,-0.13264 -0.20257166,-0.0482 -0.42925899,-0.0892 -0.22427577,-0.0434 -0.42202429,-0.10852 -0.45337467,-0.14711 -0.65353476,-0.39791 -0.1977486,-0.25321 -0.1977486,-0.62701 0,-0.5016 0.44855161,-0.81752 0.4509631,-0.31832 1.15755234,-0.31832 0.3545004,0 0.69935454,0.0699 0.34726561,0.0675 0.60048021,0.17122 v 0.82717 h -0.098874 q -0.217041,-0.17363 -0.53295629,-0.28939 -0.31350376,-0.11816 -0.64147692,-0.11816 -0.11575524,0 -0.23151047,0.0169 -0.11334367,0.0145 -0.21945263,0.0579 -0.0940511,0.0362 -0.16157501,0.11094 -0.0675239,0.0723 -0.0675239,0.16639 0,0.14229 0.10852053,0.21946 0.10852053,0.0748 0.40996645,0.13746 0.19774853,0.041 0.37861608,0.0796 0.18327912,0.0386 0.39308548,0.10611 0.41237798,0.13504 0.60771498,0.36897 0.1977485,0.23151 0.1977485,0.60289 z"
           style="font-style:normal;font-variant:normal;font-weight:bold;font-stretch:normal;font-size:4.93889px;font-family:Verdana;-inkscape-font-specification:Verdana;stroke-width:0.264583"
           id="path926" />
        <path
           d="m 5.4178242,210.41473 q 0,0.26045 -0.106109,0.46543 -0.1036974,0.20498 -0.2869765,0.34003 -0.212218,0.15916 -0.4678441,0.22669 -0.2532146,0.0675 -0.6438885,0.0675 H 2.3454873 v -3.59082 h 1.393886 q 0.4340821,0 0.6342422,0.0289 0.2025716,0.0289 0.4003202,0.12781 0.2049832,0.1037 0.3038575,0.27974 0.1012858,0.17363 0.1012858,0.39791 0,0.26045 -0.1374594,0.46061 -0.1374593,0.19775 -0.3882623,0.30868 v 0.0193 q 0.3520888,0.0699 0.5570721,0.28939 0.2073948,0.21945 0.2073948,0.57878 z M 4.231333,208.93885 q 0,-0.0892 -0.04582,-0.17846 -0.043408,-0.0892 -0.1567518,-0.13263 -0.1012859,-0.0386 -0.2532146,-0.041 -0.1495172,-0.005 -0.4220243,-0.005 h -0.086816 v 0.75964 h 0.144694 q 0.2194526,0 0.3737929,-0.007 0.1543404,-0.007 0.2435684,-0.0482 0.1254015,-0.0555 0.1639865,-0.14228 0.038585,-0.0892 0.038585,-0.20498 z m 0.2266873,1.46141 q 0,-0.17122 -0.067524,-0.26286 -0.065112,-0.0941 -0.2242758,-0.13987 -0.1085205,-0.0314 -0.2990344,-0.0338 -0.1905138,-0.002 -0.3979086,-0.002 H 3.2667061 v 0.89469 h 0.067524 q 0.390674,0 0.5594837,-0.002 0.1688097,-0.002 0.3110922,-0.0627 0.144694,-0.0603 0.1977485,-0.15916 0.055466,-0.10129 0.055466,-0.23151 z"
           style="font-style:normal;font-variant:normal;font-weight:bold;font-stretch:normal;font-size:4.93889px;font-family:Verdana;-inkscape-font-specification:Verdana;stroke-width:0.264583"
           id="path928" />
        <path
           d="M 10.602694,211.5144 H 7.7835714 v -0.59324 q 0.32315,-0.23393 0.6463001,-0.49679 0.3255615,-0.26286 0.5208985,-0.45337 0.2917997,-0.28215 0.4147896,-0.49196 0.1229899,-0.20981 0.1229899,-0.41479 0,-0.24598 -0.1591634,-0.37862 -0.1567519,-0.13504 -0.4533747,-0.13504 -0.2218642,0 -0.4678441,0.0916 -0.2435683,0.0916 -0.4533746,0.23392 h -0.07717 v -0.79823 q 0.1712213,-0.0748 0.5040176,-0.14952 0.3352079,-0.0748 0.6704157,-0.0748 0.6752389,0 1.029739,0.28457 0.354501,0.28215 0.354501,0.80064 0,0.34003 -0.171222,0.6463 -0.168809,0.30627 -0.5184866,0.63183 -0.2194526,0.20257 -0.4413168,0.37379 -0.2218642,0.16881 -0.3159153,0.23634 h 1.6133387 z"
           style="font-style:normal;font-variant:normal;font-weight:bold;font-stretch:normal;font-size:4.93889px;font-family:Verdana;-inkscape-font-specification:Verdana;stroke-width:0.264583"
           id="path930" />
      </g>
      <g
         aria-label=".5 Gbps"
         id="text969-7-9-3-6-6-3"
         style="font-style:normal;font-weight:normal;font-size:4.5861px;line-height:1.25;font-family:sans-serif;fill:#000000;fill-opacity:1;stroke:none;stroke-width:0.264583">
        <path
           d="m -5.8605377,200.52795 h -0.8375007 v -0.88004 h 0.8375007 z"
           style="font-style:normal;font-variant:normal;font-weight:bold;font-stretch:normal;font-size:4.5861px;font-family:Verdana;-inkscape-font-specification:Verdana;stroke-width:0.264583"
           id="path933" />
        <path
           d="m -2.4903811,199.39934 q 0,0.25976 -0.09853,0.48369 -0.09629,0.2217 -0.2821526,0.38069 -0.2060162,0.17018 -0.474733,0.25304 -0.2664775,0.0806 -0.6090914,0.0806 -0.4008359,-0.002 -0.67851,-0.0649 -0.2754347,-0.0605 -0.4501006,-0.13659 v -0.73674 h 0.094051 q 0.2037769,0.12093 0.4389041,0.20154 0.2351272,0.0806 0.4680151,0.0806 0.1410763,0 0.3045457,-0.0314 0.1657087,-0.0336 0.2619989,-0.11869 0.076136,-0.0694 0.1142046,-0.14107 0.040307,-0.0717 0.040307,-0.2217 0,-0.11644 -0.053743,-0.19929 -0.051504,-0.0851 -0.1343584,-0.1366 -0.1209226,-0.0739 -0.2911099,-0.0963 -0.1701873,-0.0246 -0.3090243,-0.0246 -0.2015376,0 -0.3874001,0.0358 -0.1836231,0.0336 -0.3224601,0.0672 h -0.09853 v -1.88101 h 2.3714257 v 0.6382 h -1.563036 v 0.54415 q 0.069419,-0.004 0.1746659,-0.007 0.1074867,-0.004 0.1881018,-0.004 0.2754347,0 0.4904081,0.0538 0.2172128,0.0515 0.3739642,0.14555 0.203777,0.12316 0.3179816,0.32694 0.1142046,0.20154 0.1142046,0.50832 z"
           style="font-style:normal;font-variant:normal;font-weight:bold;font-stretch:normal;font-size:4.5861px;font-family:Verdana;-inkscape-font-specification:Verdana;stroke-width:0.264583"
           id="path935" />
        <path
           d="m 2.7518358,200.33761 q -0.2239307,0.0873 -0.5934163,0.17467 -0.3694856,0.0851 -0.7367319,0.0851 -0.85093653,0 -1.33238747,-0.46129 -0.48145094,-0.46354 -0.48145094,-1.27865 0,-0.77704 0.48592955,-1.25177 0.48592956,-0.47697 1.35478056,-0.47697 0.3291781,0 0.6270059,0.0605 0.2978278,0.0582 0.6628347,0.23513 v 0.78151 h -0.09629 q -0.062701,-0.047 -0.1836232,-0.13212 -0.1209226,-0.0873 -0.2328879,-0.14779 -0.1298798,-0.0717 -0.3045457,-0.12316 -0.1724266,-0.0515 -0.3672463,-0.0515 -0.2284093,0 -0.4142717,0.0672 -0.18586249,0.0672 -0.33365673,0.20602 -0.14107632,0.13436 -0.22393067,0.34261 -0.080615,0.20602 -0.080615,0.47698 0,0.5531 0.29334918,0.84645 0.29334912,0.29335 0.86661162,0.29335 0.049265,0 0.1074867,-0.002 0.060461,-0.002 0.1097261,-0.007 V 199.321 H 1.2134321 v -0.62925 h 1.5384037 z"
           style="font-style:normal;font-variant:normal;font-weight:bold;font-stretch:normal;font-size:4.5861px;font-family:Verdana;-inkscape-font-specification:Verdana;stroke-width:0.264583"
           id="path937" />
        <path
           d="m 6.1018383,199.23587 q 0,0.59342 -0.3291781,0.96738 -0.3269387,0.37397 -0.8173469,0.37397 -0.2104948,0 -0.3694856,-0.0448 -0.1589908,-0.0448 -0.3023064,-0.12988 l -0.03359,0.1254 H 3.4773709 v -3.48436 h 0.8061504 v 1.23162 q 0.1858624,-0.14779 0.3784428,-0.2396 0.1948197,-0.0918 0.4478614,-0.0918 0.4769723,0 0.7344926,0.34486 0.2575202,0.34261 0.2575202,0.94722 z m -0.8307828,0.0157 q 0,-0.3359 -0.1142046,-0.51728 -0.1142046,-0.18138 -0.4075538,-0.18138 -0.1142047,0 -0.2351272,0.0358 -0.1209226,0.0336 -0.2306486,0.0985 v 1.26297 q 0.087333,0.0314 0.1657087,0.0426 0.078376,0.0112 0.1881018,0.0112 0.3202208,0 0.4769723,-0.18811 0.1567514,-0.1881 0.1567514,-0.5643 z"
           style="font-style:normal;font-variant:normal;font-weight:bold;font-stretch:normal;font-size:4.5861px;font-family:Verdana;-inkscape-font-specification:Verdana;stroke-width:0.264583"
           id="path939" />
        <path
           d="m 9.3085263,199.23587 q 0,0.31127 -0.09629,0.56655 -0.094051,0.25528 -0.2485631,0.42099 -0.1612301,0.17466 -0.365007,0.26424 -0.2037769,0.0896 -0.4366648,0.0896 -0.2149734,0 -0.365007,-0.047 -0.1500335,-0.0448 -0.306785,-0.12764 v 1.048 H 6.6840588 v -3.43734 h 0.8061504 v 0.262 q 0.1858625,-0.14779 0.3784429,-0.2396 0.1948196,-0.0918 0.4478613,-0.0918 0.4702544,0 0.730014,0.34486 0.2619989,0.34485 0.2619989,0.94722 z m -0.8307828,0.0157 q 0,-0.36725 -0.1254012,-0.53296 -0.1254012,-0.1657 -0.3963573,-0.1657 -0.1142046,0 -0.2351272,0.0358 -0.1209226,0.0336 -0.2306486,0.0985 v 1.26521 q 0.080615,0.0314 0.1724266,0.0403 0.091812,0.009 0.1813839,0.009 0.3202208,0 0.4769723,-0.18587 0.1567515,-0.1881 0.1567515,-0.5643 z"
           style="font-style:normal;font-variant:normal;font-weight:bold;font-stretch:normal;font-size:4.5861px;font-family:Verdana;-inkscape-font-specification:Verdana;stroke-width:0.264583"
           id="path941" />
        <path
           d="m 12.076309,199.73076 q 0,0.38964 -0.349332,0.62925 -0.349332,0.23736 -0.956184,0.23736 -0.335896,0 -0.609091,-0.0627 -0.2731955,-0.0627 -0.4389042,-0.13883 V 199.733 h 0.073897 q 0.060461,0.0426 0.138837,0.0941 0.080615,0.0493 0.2261702,0.10749 0.125401,0.0515 0.284392,0.0896 0.158991,0.0358 0.340374,0.0358 0.237367,0 0.351572,-0.0515 0.114204,-0.0537 0.114204,-0.15675 0,-0.0918 -0.06718,-0.13212 -0.06718,-0.0425 -0.255281,-0.0806 -0.08957,-0.0202 -0.244084,-0.0426 -0.152273,-0.0246 -0.277674,-0.0582 -0.342614,-0.0896 -0.5083231,-0.27767 -0.1657087,-0.19034 -0.1657087,-0.4725 0,-0.36276 0.3426138,-0.60237 0.344853,-0.24185 0.940509,-0.24185 0.282153,0 0.539673,0.0582 0.25976,0.056 0.405314,0.12092 v 0.63596 h -0.06942 q -0.179145,-0.12316 -0.409793,-0.1993 -0.228409,-0.0784 -0.463537,-0.0784 -0.194819,0 -0.329178,0.0537 -0.132119,0.0537 -0.132119,0.15227 0,0.0896 0.06046,0.1366 0.06046,0.047 0.284392,0.0941 0.123162,0.0246 0.264239,0.0493 0.143315,0.0224 0.286631,0.0582 0.317981,0.0828 0.470254,0.262 0.152273,0.1769 0.152273,0.44338 z"
           style="font-style:normal;font-variant:normal;font-weight:bold;font-stretch:normal;font-size:4.5861px;font-family:Verdana;-inkscape-font-specification:Verdana;stroke-width:0.264583"
           id="path943" />
      </g>
    </g>
    <path
       style="fill:none;stroke:#c1c1c1;stroke-width:1.00503;stroke-linecap:butt;stroke-linejoin:miter;stroke-miterlimit:4;stroke-dasharray:none;stroke-opacity:1"
       d="M -14.136554,205.27259 H 258.94144"
       id="path948" />
  </g>
</svg>
