<svg xmlns="http://www.w3.org/2000/svg" xmlns:svg="http://www.w3.org/2000/svg" id="svg8" width="2315" height="1103" version="1.1" viewBox="0 0 612.51 291.835"><metadata id="metadata5"/><g id="layer1" transform="translate(207.98141,9.8462811)"><path id="rect2521-3" style="fill:#b40f0f;fill-opacity:1;stroke:#000;stroke-width:.493725;stroke-miterlimit:4;stroke-dasharray:none" d="m 92.951607,241.78119 v 5.52459 4.43819 h 4.875965 170.145748 v -4.43819 H 97.827572 v -5.52459 z"/><path id="rect2521-3-2" style="fill:#b40f0f;fill-opacity:1;stroke:#000;stroke-width:.490405;stroke-miterlimit:4;stroke-dasharray:none" d="m 46.315391,241.77953 v 5.52642 H -121.49334 v 4.43967 h 167.808731 4.80949 v -4.43967 -5.52642 z"/><rect style="fill:#000;fill-opacity:1;stroke:#000;stroke-width:.499999;stroke-miterlimit:4;stroke-dasharray:none" id="rect2747" width="32.827" height="37.423" x="60.498" y="114.678"/><rect style="fill:#000;fill-opacity:1;stroke:#000;stroke-width:.399131;stroke-miterlimit:4;stroke-dasharray:none" id="rect2749" width="91.579" height="5.572" x="31.122" y="148.112"/><g id="g2688" style="fill:#0091da;fill-opacity:1"><rect style="fill:#0091da;fill-opacity:1;stroke:#000;stroke-width:.5;stroke-miterlimit:4;stroke-dasharray:none" id="rect2521-0" width="4.985" height="12.104" x="158.139" y="200.132" ry="0"/><rect style="fill:#0091da;fill-opacity:1;stroke:#000;stroke-width:.499999;stroke-miterlimit:4;stroke-dasharray:none" id="rect2521-0-6" width="4.985" height="12.104" x="117.594" y="200.132" ry="0"/><rect style="fill:#0091da;fill-opacity:1;stroke:#000;stroke-width:.499999;stroke-miterlimit:4;stroke-dasharray:none" id="rect2521-0-6-5" width="4.985" height="12.104" x="86.954" y="200.132" ry="0"/><rect style="fill:#0091da;fill-opacity:1;stroke:#000;stroke-width:.499999;stroke-miterlimit:4;stroke-dasharray:none" id="rect2521-0-6-5-0" width="4.985" height="12.104" x="56.933" y="200.132" ry="0"/><rect style="fill:#0091da;fill-opacity:1;stroke:#000;stroke-width:.499999;stroke-miterlimit:4;stroke-dasharray:none" id="rect2521-0-6-5-0-4" width="4.985" height="12.104" x="-2.491" y="200.132" ry="0"/></g><rect style="fill:#3da23d;fill-opacity:1;stroke:#000;stroke-width:.4828;stroke-miterlimit:4;stroke-dasharray:none" id="rect2521" width="4.711" height="68.477" x="190.309" y="143.312" ry="0"/><rect style="fill:#c7c7c7;fill-opacity:1;stroke:#000;stroke-width:2;stroke-miterlimit:10;stroke-dasharray:none" id="rect840" width="254.098" height="141.441" x="-50.137" y="-3.347"/><g id="g941" transform="matrix(1.4975567,0,0,1.4975567,40.683386,278.6382)"><rect style="fill:#797979;fill-opacity:1;stroke:#000;stroke-width:.754925;stroke-miterlimit:10;stroke-dasharray:none" id="rect929" width="35.81" height="43.347" x="-151.316" y="-51.911"/><g id="g927"><rect style="fill:#797979;fill-opacity:1;stroke:#000;stroke-width:.7;stroke-miterlimit:10;stroke-dasharray:none" id="rect842" width="4.477" height="42.545" x="-155.439" y="-53.867"/><rect style="fill:#797979;fill-opacity:1;stroke:#000;stroke-width:.7;stroke-miterlimit:10;stroke-dasharray:none" id="rect842-8" width="4.477" height="42.545" x="-149.863" y="-53.867"/><rect style="fill:#797979;fill-opacity:1;stroke:#000;stroke-width:.7;stroke-miterlimit:10;stroke-dasharray:none" id="rect842-9" width="4.477" height="42.545" x="-144.287" y="-53.867"/><rect style="fill:#797979;fill-opacity:1;stroke:#000;stroke-width:.7;stroke-miterlimit:10;stroke-dasharray:none" id="rect842-7" width="4.477" height="42.545" x="-138.711" y="-53.867"/><rect style="fill:#797979;fill-opacity:1;stroke:#000;stroke-width:.7;stroke-miterlimit:10;stroke-dasharray:none" id="rect842-8-8" width="4.477" height="42.545" x="-133.135" y="-53.867"/><rect style="fill:#797979;fill-opacity:1;stroke:#000;stroke-width:.7;stroke-miterlimit:10;stroke-dasharray:none" id="rect842-9-8" width="4.477" height="42.545" x="-127.559" y="-53.867"/><rect style="fill:#797979;fill-opacity:1;stroke:#000;stroke-width:.7;stroke-miterlimit:10;stroke-dasharray:none" id="rect842-8-8-0" width="4.477" height="42.545" x="-121.983" y="-53.867"/><rect style="fill:#797979;fill-opacity:1;stroke:#000;stroke-width:.7;stroke-miterlimit:10;stroke-dasharray:none" id="rect842-9-8-5" width="4.477" height="42.545" x="-116.406" y="-53.867"/></g></g><g id="g955" transform="translate(-12.379933,8.0869651)"><rect style="fill:#909090;fill-opacity:1;stroke:#000;stroke-width:.7;stroke-miterlimit:10;stroke-dasharray:none" id="rect943" width="109.872" height="73.97" x="285.049" y="183.59" ry="4.642"/><path id="path4" d="m 346.05027,224.77328 c -0.22731,0.52512 -0.49636,1.00849 -0.80809,1.4529 -0.42492,0.60583 -0.77284,1.02519 -1.04097,1.25806 -0.41564,0.38224 -0.86097,0.578 -1.33785,0.58914 -0.34235,0 -0.75521,-0.0974 -1.2358,-0.29503 -0.48216,-0.19669 -0.92527,-0.29411 -1.33042,-0.29411 -0.42493,0 -0.88065,0.0974 -1.3681,0.29411 -0.4882,0.19761 -0.88148,0.30059 -1.18218,0.3108 -0.4573,0.0195 -0.91311,-0.18185 -1.36809,-0.60491 -0.2904,-0.25328 -0.65362,-0.68748 -1.08875,-1.3026 -0.46685,-0.65686 -0.85068,-1.41857 -1.15137,-2.28696 -0.32203,-0.93798 -0.48346,-1.84628 -0.48346,-2.72562 0,-1.00729 0.21766,-1.87606 0.65362,-2.60408 0.34263,-0.58478 0.79844,-1.04607 1.36893,-1.38471 0.57049,-0.33863 1.1869,-0.5112 1.85073,-0.52224 0.36322,0 0.83954,0.11235 1.43146,0.33316 0.59025,0.22156 0.96925,0.33391 1.13541,0.33391 0.12423,0 0.54526,-0.13137 1.25899,-0.39328 0.67496,-0.2429 1.24461,-0.34347 1.71129,-0.30385 1.26455,0.10205 2.2146,0.60055 2.84641,1.49863 -1.13096,0.68526 -1.69041,1.64504 -1.67927,2.87629 0.0102,0.95904 0.35812,1.75712 1.04189,2.39079 0.30988,0.2941 0.65594,0.52141 1.04096,0.68284 -0.0835,0.24215 -0.17164,0.47409 -0.26534,0.69676 z m -2.90023,-11.41257 c 0,0.7517 -0.27462,1.45355 -0.822,2.10318 -0.66058,0.77228 -1.45958,1.21854 -2.32603,1.14812 -0.011,-0.0902 -0.0174,-0.18509 -0.0174,-0.28482 0,-0.72163 0.31415,-1.49391 0.87202,-2.12536 0.27852,-0.31971 0.63274,-0.58554 1.0623,-0.7976 0.42864,-0.2089 0.83407,-0.32443 1.21539,-0.34421 0.0111,0.10049 0.0158,0.20099 0.0158,0.30068 z" style="stroke-width:.0126604"/></g><path id="path957" d="m 126.14203,188.77982 4.45037,6.67494 h -22.17178 l 4.45037,-6.67494 c 1.96345,1.10735 4.22374,1.74787 6.63552,1.74787 2.41178,0 4.67206,-0.64052 6.63552,-1.74787 z m -6.63552,-14.26508 c -1.35866,0 -2.46355,1.1049 -2.46355,2.46353 0,1.35864 1.10489,2.46353 2.46355,2.46353 1.35866,0 2.46355,-1.10489 2.46355,-2.46353 0,-1.35863 -1.10489,-2.46353 -2.46355,-2.46353 z m 11.08589,2.46353 c 0,6.12311 -4.96281,11.0859 -11.08589,11.0859 -6.12309,0 -11.08589,-4.96402 -11.08589,-11.0859 0,-6.12187 4.9628,-11.08589 11.08589,-11.08589 6.12308,0 11.08589,4.96402 11.08589,11.08589 z m -6.15884,0 c 0,-2.72097 -2.20611,-4.92706 -4.92705,-4.92706 -2.72095,0 -4.92705,2.20609 -4.92705,4.92706 0,2.72098 2.2061,4.92707 4.92705,4.92707 2.72094,0 4.92705,-2.20609 4.92705,-4.92707 z" style="stroke-width:1.23177"/><path id="path968" d="m 89.60124,185.90011 c 3.166166,0 5.732785,-2.56662 5.732785,-5.73278 v -9.55465 c 0,-3.16616 -2.566619,-5.73278 -5.732785,-5.73278 -3.166175,0 -5.732793,2.56662 -5.732793,5.73278 v 9.55465 c 0,3.16616 2.566618,5.73278 5.732793,5.73278 z m 9.554649,-9.55463 h -0.955468 c -0.527901,0 -0.955465,0.42756 -0.955465,0.95545 v 2.8664 c 0,4.46679 -3.85113,8.05098 -8.407498,7.60669 -3.971149,-0.38756 -6.879943,-3.95741 -6.879943,-7.94708 v -2.52601 c 0,-0.52789 -0.427573,-0.95545 -0.955456,-0.95545 h -0.955465 c -0.527893,0 -0.955466,0.42756 -0.955466,0.95545 v 2.39822 c 0,5.35299 3.820062,10.12494 9.076909,10.84989 v 2.03933 h -3.344125 c -0.527902,0 -0.955465,0.42757 -0.955465,0.95546 v 0.95546 c 0,0.52791 0.427563,0.95547 0.955465,0.95547 h 9.554647 c 0.527892,0 0.955466,-0.42756 0.955466,-0.95547 v -0.95546 c 0,-0.52789 -0.427574,-0.95546 -0.955466,-0.95546 h -3.344125 v -2.01663 c 5.118297,-0.70227 9.076906,-5.09561 9.076906,-10.40441 v -2.8664 c 0,-0.52789 -0.427559,-0.95545 -0.955451,-0.95545 z" style="stroke-width:.0597165"/><g id="g2404" transform="matrix(0.25673964,0,0,0.25673964,-22.818962,125.8921)"><rect id="rect979" width="343.354" height="107.298" x="-97.86" y="162.933" fill="#fff" stroke="#000" stroke-width="1.431" style="fill:#474747;fill-opacity:1"/><g id="g1195" fill="none" stroke="#000" transform="matrix(0.35766022,0,0,0.35766022,-104.4861,155.5347)" style="fill:#fff;fill-opacity:1"><g id="g1097" stroke-width="4" style="fill:#fff;fill-opacity:1"><rect id="rect981" width="40" height="40" x="118.53" y="40.685" style="fill:#fff;fill-opacity:1"/><rect id="rect983" width="40" height="40" x="158.53" y="40.685" style="fill:#fff;fill-opacity:1"/><rect id="rect985" width="40" height="40" x="198.53" y="40.685" style="fill:#fff;fill-opacity:1"/><rect id="rect987" width="40" height="40" x="238.53" y="40.685" style="fill:#fff;fill-opacity:1"/><rect id="rect989" width="40" height="40" x="298.53" y="40.685" style="fill:#fff;fill-opacity:1"/><rect id="rect991" width="40" height="40" x="378.53" y="40.685" style="fill:#fff;fill-opacity:1"/><rect id="rect993" width="40" height="40" x="418.53" y="40.685" style="fill:#fff;fill-opacity:1"/><rect id="rect995" width="40" height="40" x="478.53" y="40.685" style="fill:#fff;fill-opacity:1"/><rect id="rect997" width="40" height="40" x="558.53" y="40.685" style="fill:#fff;fill-opacity:1"/><rect id="rect999" width="40" height="40" x="598.53" y="40.685" style="fill:#fff;fill-opacity:1"/><rect id="rect1001" width="40" height="40" x="658.53" y="40.685" style="fill:#fff;fill-opacity:1"/><rect id="rect1003" width="40" height="40" x="738.53" y="40.685" style="fill:#fff;fill-opacity:1"/><rect id="rect1005" width="40" height="40" x="658.53" y="100.69" style="fill:#fff;fill-opacity:1"/><rect id="rect1007" width="40" height="40" x="738.53" y="100.69" style="fill:#fff;fill-opacity:1"/><rect id="rect1009" width="40" height="40" x="658.53" y="140.69" style="fill:#fff;fill-opacity:1"/><rect id="rect1011" width="40" height="40" x="738.53" y="140.69" style="fill:#fff;fill-opacity:1"/><rect id="rect1013" width="40" height="40" x="658.53" y="260.69" style="fill:#fff;fill-opacity:1"/><rect id="rect1015" width="40" height="40" x="738.53" y="260.69" style="fill:#fff;fill-opacity:1"/><rect id="rect1017" width="40" height="40" x="878.53" y="100.69" style="fill:#fff;fill-opacity:1"/><rect id="rect1019" width="40" height="40" x="918.53" y="100.69" style="fill:#fff;fill-opacity:1"/><rect id="rect1021" width="40" height="40" x="798.53" y="140.69" style="fill:#fff;fill-opacity:1"/><rect id="rect1023" width="40" height="40" x="878.53" y="140.69" style="fill:#fff;fill-opacity:1"/><rect id="rect1025" width="40" height="80" x="918.53" y="140.69" style="fill:#fff;fill-opacity:1"/><rect id="rect1027" width="40" height="40" x="798.53" y="180.69" style="fill:#fff;fill-opacity:1"/><rect id="rect1029" width="40" height="40" x="878.53" y="180.69" style="fill:#fff;fill-opacity:1"/><rect id="rect1031" width="40" height="40" x="798.53" y="220.69" style="fill:#fff;fill-opacity:1"/><rect id="rect1033" width="40" height="40" x="878.53" y="220.69" style="fill:#fff;fill-opacity:1"/><rect id="rect1035" width="80" height="40" x="798.53" y="260.69" style="fill:#fff;fill-opacity:1"/><rect id="rect1037" width="40" height="40" x="878.53" y="260.69" style="fill:#fff;fill-opacity:1"/><rect id="rect1039" width="40" height="80" x="918.53" y="220.69" style="fill:#fff;fill-opacity:1"/><rect id="rect1041" width="40" height="40" x="38.526" y="100.69" style="fill:#fff;fill-opacity:1"/><rect id="rect1043" width="40" height="40" x="78.526" y="100.69" style="fill:#fff;fill-opacity:1"/><rect id="rect1045" width="40" height="40" x="118.53" y="100.69" style="fill:#fff;fill-opacity:1"/><rect id="rect1047" width="40" height="40" x="158.53" y="100.69" style="fill:#fff;fill-opacity:1"/><rect id="rect1049" width="40" height="40" x="198.53" y="100.69" style="fill:#fff;fill-opacity:1"/><rect id="rect1051" width="40" height="40" x="238.53" y="100.69" style="fill:#fff;fill-opacity:1"/><rect id="rect1053" width="40" height="40" x="278.53" y="100.69" style="fill:#fff;fill-opacity:1"/><rect id="rect1055" width="40" height="40" x="318.53" y="100.69" style="fill:#fff;fill-opacity:1"/><rect id="rect1057" width="40" height="40" x="358.53" y="100.69" style="fill:#fff;fill-opacity:1"/><rect id="rect1059" width="40" height="40" x="398.53" y="100.69" style="fill:#fff;fill-opacity:1"/><rect id="rect1061" width="40" height="40" x="438.53" y="100.69" style="fill:#fff;fill-opacity:1"/><rect id="rect1063" width="40" height="40" x="478.53" y="100.69" style="fill:#fff;fill-opacity:1"/><rect id="rect1065" width="40" height="40" x="518.53" y="100.69" style="fill:#fff;fill-opacity:1"/><rect id="rect1067" width="40" height="40" x="558.53" y="100.69" style="fill:#fff;fill-opacity:1"/><rect id="rect1069" width="40" height="40" x="598.53" y="100.69" style="fill:#fff;fill-opacity:1"/><rect id="rect1071" width="60" height="40" x="38.526" y="140.69" style="fill:#fff;fill-opacity:1"/><rect id="rect1073" width="40" height="40" x="98.526" y="140.69" style="fill:#fff;fill-opacity:1"/><rect id="rect1075" width="40" height="40" x="138.53" y="140.69" style="fill:#fff;fill-opacity:1"/><rect id="rect1077" width="40" height="40" x="178.53" y="140.69" style="fill:#fff;fill-opacity:1"/><rect id="rect1079" width="40" height="40" x="218.53" y="140.69" style="fill:#fff;fill-opacity:1"/><rect id="rect1081" width="40" height="40" x="258.53" y="140.69" style="fill:#fff;fill-opacity:1"/><rect id="rect1083" width="40" height="40" x="298.53" y="140.69" style="fill:#fff;fill-opacity:1"/><rect id="rect1085" width="40" height="40" x="338.53" y="140.69" style="fill:#fff;fill-opacity:1"/><rect id="rect1087" width="40" height="40" x="378.53" y="140.69" style="fill:#fff;fill-opacity:1"/><rect id="rect1089" width="40" height="40" x="418.53" y="140.69" style="fill:#fff;fill-opacity:1"/><rect id="rect1091" width="40" height="40" x="458.53" y="140.69" style="fill:#fff;fill-opacity:1"/><rect id="rect1093" width="40" height="40" x="498.53" y="140.69" style="fill:#fff;fill-opacity:1"/><rect id="rect1095" width="40" height="40" x="538.53" y="140.69" style="fill:#fff;fill-opacity:1"/></g><path id="path1099" stroke-width="7.12" d="m 1003.4,220.18 v 71.2 h -35.56 v 71.21 h 142.36 v -71.21 -71.2 z" transform="matrix(0.56176,0,0,0.56176,14.838,17)" style="fill:#fff;fill-opacity:1"/><g id="g1193" stroke-width="4" style="fill:#fff;fill-opacity:1"><rect id="rect1101" width="60" height="40" x="38.526" y="180.69" style="fill:#fff;fill-opacity:1"/><rect id="rect1103" width="40" height="40" x="118.53" y="180.69" style="fill:#fff;fill-opacity:1"/><rect id="rect1105" width="40" height="40" x="158.53" y="180.69" style="fill:#fff;fill-opacity:1"/><rect id="rect1107" width="40" height="40" x="198.53" y="180.69" style="fill:#fff;fill-opacity:1"/><rect id="rect1109" width="40" height="40" x="238.53" y="180.69" style="fill:#fff;fill-opacity:1"/><rect id="rect1111" width="40" height="40" x="278.53" y="180.69" style="fill:#fff;fill-opacity:1"/><rect id="rect1113" width="40" height="40" x="318.53" y="180.69" style="fill:#fff;fill-opacity:1"/><rect id="rect1115" width="40" height="40" x="358.53" y="180.69" style="fill:#fff;fill-opacity:1"/><rect id="rect1117" width="40" height="40" x="398.53" y="180.69" style="fill:#fff;fill-opacity:1"/><rect id="rect1119" width="40" height="40" x="438.53" y="180.69" style="fill:#fff;fill-opacity:1"/><rect id="rect1121" width="40" height="40" x="478.53" y="180.69" style="fill:#fff;fill-opacity:1"/><rect id="rect1123" width="40" height="40" x="518.53" y="180.69" style="fill:#fff;fill-opacity:1"/><rect id="rect1125" width="20" height="40" x="98.526" y="180.69" style="fill:#fff;fill-opacity:1"/><rect id="rect1127" width="40" height="40" x="138.53" y="220.69" style="fill:#fff;fill-opacity:1"/><rect id="rect1129" width="40" height="40" x="178.53" y="220.69" style="fill:#fff;fill-opacity:1"/><rect id="rect1131" width="40" height="40" x="218.53" y="220.69" style="fill:#fff;fill-opacity:1"/><rect id="rect1133" width="40" height="40" x="258.53" y="220.69" style="fill:#fff;fill-opacity:1"/><rect id="rect1135" width="40" height="40" x="298.53" y="220.69" style="fill:#fff;fill-opacity:1"/><rect id="rect1137" width="40" height="40" x="338.53" y="220.69" style="fill:#fff;fill-opacity:1"/><rect id="rect1139" width="40" height="40" x="378.53" y="220.69" style="fill:#fff;fill-opacity:1"/><rect id="rect1141" width="40" height="40" x="418.53" y="220.69" style="fill:#fff;fill-opacity:1"/><rect id="rect1143" width="40" height="40" x="458.53" y="220.69" style="fill:#fff;fill-opacity:1"/><rect id="rect1145" width="40" height="40" x="498.53" y="220.69" style="fill:#fff;fill-opacity:1"/><rect id="rect1147" width="100" height="40" x="538.53" y="220.69" style="fill:#fff;fill-opacity:1"/><rect id="rect1149" width="100" height="40" x="38.526" y="220.69" style="fill:#fff;fill-opacity:1"/><rect id="rect1151" width="40" height="40" x="38.526" y="260.69" style="fill:#fff;fill-opacity:1"/><rect id="rect1153" width="60" height="40" x="78.526" y="260.69" style="fill:#fff;fill-opacity:1"/><rect id="rect1155" width="60" height="40" x="138.53" y="260.69" style="fill:#fff;fill-opacity:1"/><rect id="rect1157" width="240" height="40" x="198.53" y="260.69" style="fill:#fff;fill-opacity:1"/><rect id="rect1159" width="60" height="40" x="438.53" y="260.69" style="fill:#fff;fill-opacity:1"/><rect id="rect1161" width="60" height="40" x="498.53" y="260.69" style="fill:#fff;fill-opacity:1"/><rect id="rect1163" width="40" height="40" x="558.53" y="260.69" style="fill:#fff;fill-opacity:1"/><rect id="rect1165" width="40" height="40" x="598.53" y="260.69" style="fill:#fff;fill-opacity:1"/><rect id="rect1167" width="40" height="40" x="38.526" y="40.685" style="fill:#fff;fill-opacity:1"/><rect id="rect1169" width="40" height="40" x="698.53" y="40.685" style="fill:#fff;fill-opacity:1"/><rect id="rect1171" width="40" height="40" x="698.53" y="140.69" style="fill:#fff;fill-opacity:1"/><rect id="rect1173" width="40" height="40" x="338.53" y="40.685" style="fill:#fff;fill-opacity:1"/><rect id="rect1175" width="40" height="40" x="518.53" y="40.685" style="fill:#fff;fill-opacity:1"/><rect id="rect1177" width="40" height="40" x="698.53" y="260.69" style="fill:#fff;fill-opacity:1"/><rect id="rect1179" width="40" height="40" x="698.53" y="220.69" style="fill:#fff;fill-opacity:1"/><rect id="rect1181" width="40" height="40" x="838.53" y="220.69" style="fill:#fff;fill-opacity:1"/><rect id="rect1183" width="40" height="40" x="838.53" y="180.69" style="fill:#fff;fill-opacity:1"/><rect id="rect1185" width="40" height="40" x="838.53" y="140.69" style="fill:#fff;fill-opacity:1"/><rect id="rect1187" width="40" height="40" x="838.53" y="100.69" style="fill:#fff;fill-opacity:1"/><rect id="rect1189" width="40" height="40" x="798.53" y="100.69" style="fill:#fff;fill-opacity:1"/><rect id="rect1191" width="40" height="40" x="698.53" y="100.69" style="fill:#fff;fill-opacity:1"/></g></g><g id="g1205" fill="none" stroke="#000" stroke-width="4" transform="matrix(0.35766022,0,0,0.35766022,-104.4861,155.5347)" style="fill:#fff;fill-opacity:1"><rect id="rect1197" width="160" height="40" x="798.53" y="40.685" style="fill:#fff;fill-opacity:1"/><rect id="rect1199" width="16" height="8" x="826.71" y="56.685" style="fill:#fff;fill-opacity:1"/><rect id="rect1201" width="16" height="8" x="870.53" y="56.685" style="fill:#fff;fill-opacity:1"/><rect id="rect1203" width="16" height="8" x="914.34" y="56.685" style="fill:#fff;fill-opacity:1"/></g><g id="g1543" font-family="sans-serif" font-weight="700" transform="matrix(0.35766022,0,0,0.35766022,-104.4861,155.5347)" style="fill:#fff;fill-opacity:1"><g id="g1267" fill="#000" font-size="14.111" style="fill:#fff;fill-opacity:1"><text style="text-anchor:middle;fill:#fff;fill-opacity:1" id="text1265"><tspan id="tspan1207" x="58.526" y="116.146" style="fill:#fff;fill-opacity:1">~</tspan><tspan id="tspan1209" x="58.526" y="133.785" style="fill:#fff;fill-opacity:1">`</tspan><tspan id="tspan1211" x="98.526" y="116.146" style="fill:#fff;fill-opacity:1">!</tspan><tspan id="tspan1213" x="98.526" y="133.785" style="fill:#fff;fill-opacity:1">1</tspan><tspan id="tspan1215" x="138.526" y="116.146" style="fill:#fff;fill-opacity:1">@</tspan><tspan id="tspan1217" x="138.526" y="133.785" style="fill:#fff;fill-opacity:1">2</tspan><tspan id="tspan1219" x="178.526" y="116.146" style="fill:#fff;fill-opacity:1">#</tspan><tspan id="tspan1221" x="178.526" y="133.785" style="fill:#fff;fill-opacity:1">3</tspan><tspan id="tspan1223" x="218.526" y="116.146" style="fill:#fff;fill-opacity:1">$</tspan><tspan id="tspan1225" x="218.526" y="133.785" style="fill:#fff;fill-opacity:1">4</tspan><tspan id="tspan1227" x="258.526" y="116.146" style="fill:#fff;fill-opacity:1">%</tspan><tspan id="tspan1229" x="258.526" y="133.785" style="fill:#fff;fill-opacity:1">5</tspan><tspan id="tspan1231" x="298.526" y="116.146" style="fill:#fff;fill-opacity:1">^</tspan><tspan id="tspan1233" x="298.526" y="133.785" style="fill:#fff;fill-opacity:1">6</tspan><tspan id="tspan1235" x="338.526" y="116.146" style="fill:#fff;fill-opacity:1">&amp;</tspan><tspan id="tspan1237" x="338.526" y="133.785" style="fill:#fff;fill-opacity:1">7</tspan><tspan id="tspan1239" x="378.526" y="116.146" style="fill:#fff;fill-opacity:1">*</tspan><tspan id="tspan1241" x="378.526" y="133.785" style="fill:#fff;fill-opacity:1">8</tspan><tspan id="tspan1243" x="418.526" y="116.146" style="fill:#fff;fill-opacity:1">(</tspan><tspan id="tspan1245" x="418.526" y="133.785" style="fill:#fff;fill-opacity:1">9</tspan><tspan id="tspan1247" x="458.526" y="116.146" style="fill:#fff;fill-opacity:1">)</tspan><tspan id="tspan1249" x="458.526" y="133.785" style="fill:#fff;fill-opacity:1">0</tspan><tspan id="tspan1251" x="498.526" y="116.146" style="fill:#fff;fill-opacity:1">_</tspan><tspan id="tspan1253" x="498.526" y="133.785" style="fill:#fff;fill-opacity:1">-</tspan><tspan id="tspan1255" x="538.526" y="116.146" style="fill:#fff;fill-opacity:1">+</tspan><tspan id="tspan1257" x="538.526" y="133.785" style="fill:#fff;fill-opacity:1">=</tspan><tspan id="tspan1259" x="578.526" y="116.146" style="fill:#fff;fill-opacity:1">|</tspan><tspan id="tspan1261" x="578.526" y="133.785" style="fill:#fff;fill-opacity:1">\</tspan><tspan id="tspan1263" x="618.526" y="124.966" style="fill:#fff;fill-opacity:1">←</tspan></text></g><g id="g1301" fill="#000" font-size="14.111" style="fill:#fff;fill-opacity:1"><text style="text-anchor:middle;fill:#fff;fill-opacity:1" id="text1299"><tspan id="tspan1269" x="68.526" y="164.966" style="fill:#fff;fill-opacity:1">Tab</tspan><tspan id="tspan1271" x="118.526" y="164.966" style="fill:#fff;fill-opacity:1">Q</tspan><tspan id="tspan1273" x="158.526" y="164.966" style="fill:#fff;fill-opacity:1">W</tspan><tspan id="tspan1275" x="198.526" y="164.966" style="fill:#fff;fill-opacity:1">E</tspan><tspan id="tspan1277" x="238.526" y="164.966" style="fill:#fff;fill-opacity:1">R</tspan><tspan id="tspan1279" x="278.526" y="164.966" style="fill:#fff;fill-opacity:1">T</tspan><tspan id="tspan1281" x="318.526" y="164.966" style="fill:#fff;fill-opacity:1">Y</tspan><tspan id="tspan1283" x="358.526" y="164.966" style="fill:#fff;fill-opacity:1">U</tspan><tspan id="tspan1285" x="398.526" y="164.966" style="fill:#fff;fill-opacity:1">I</tspan><tspan id="tspan1287" x="438.526" y="164.966" style="fill:#fff;fill-opacity:1">O</tspan><tspan id="tspan1289" x="478.526" y="164.966" style="fill:#fff;fill-opacity:1">P</tspan><tspan id="tspan1291" x="518.526" y="156.146" style="fill:#fff;fill-opacity:1">{</tspan><tspan id="tspan1293" x="518.526" y="173.785" style="fill:#fff;fill-opacity:1">[</tspan><tspan id="tspan1295" x="558.526" y="156.146" style="fill:#fff;fill-opacity:1">}</tspan><tspan id="tspan1297" x="558.526" y="173.785" style="fill:#fff;fill-opacity:1">]</tspan></text></g><g id="g1335" fill="#000" font-size="14.111" style="fill:#fff;fill-opacity:1"><text style="text-anchor:middle;fill:#fff;fill-opacity:1" id="text1333"><tspan id="tspan1303" x="598.526" y="204.966" style="fill:#fff;fill-opacity:1">Enter</tspan><tspan id="tspan1305" x="68.526" y="204.966" style="fill:#fff;fill-opacity:1">Caps</tspan><tspan id="tspan1307" x="138.526" y="204.966" style="fill:#fff;fill-opacity:1">A</tspan><tspan id="tspan1309" x="178.526" y="204.966" style="fill:#fff;fill-opacity:1">S</tspan><tspan id="tspan1311" x="218.526" y="204.966" style="fill:#fff;fill-opacity:1">D</tspan><tspan id="tspan1313" x="258.526" y="204.966" style="fill:#fff;fill-opacity:1">F</tspan><tspan id="tspan1315" x="298.526" y="204.966" style="fill:#fff;fill-opacity:1">G</tspan><tspan id="tspan1317" x="338.526" y="204.966" style="fill:#fff;fill-opacity:1">H</tspan><tspan id="tspan1319" x="378.526" y="204.966" style="fill:#fff;fill-opacity:1">J</tspan><tspan id="tspan1321" x="418.526" y="204.966" style="fill:#fff;fill-opacity:1">K</tspan><tspan id="tspan1323" x="458.526" y="204.966" style="fill:#fff;fill-opacity:1">L</tspan><tspan id="tspan1325" x="498.526" y="196.146" style="fill:#fff;fill-opacity:1">:</tspan><tspan id="tspan1327" x="498.526" y="213.785" style="fill:#fff;fill-opacity:1">;</tspan><tspan id="tspan1329" x="538.526" y="196.146" style="fill:#fff;fill-opacity:1">&quot;</tspan><tspan id="tspan1331" x="538.526" y="213.785" style="fill:#fff;fill-opacity:1">&apos;</tspan></text></g><g id="g1369" fill="#000" font-size="14.111" style="fill:#fff;fill-opacity:1"><text style="text-anchor:middle;fill:#fff;fill-opacity:1" id="text1367"><tspan id="tspan1337" x="158.526" y="244.966" style="fill:#fff;fill-opacity:1">Z</tspan><tspan id="tspan1339" x="198.526" y="244.966" style="fill:#fff;fill-opacity:1">X</tspan><tspan id="tspan1341" x="238.526" y="244.966" style="fill:#fff;fill-opacity:1">C</tspan><tspan id="tspan1343" x="278.526" y="244.966" style="fill:#fff;fill-opacity:1">V</tspan><tspan id="tspan1345" x="318.526" y="244.966" style="fill:#fff;fill-opacity:1">B</tspan><tspan id="tspan1347" x="358.526" y="244.966" style="fill:#fff;fill-opacity:1">N</tspan><tspan id="tspan1349" x="398.526" y="244.966" style="fill:#fff;fill-opacity:1">M</tspan><tspan id="tspan1351" x="438.526" y="236.146" style="fill:#fff;fill-opacity:1">&lt;</tspan><tspan id="tspan1353" x="438.526" y="253.785" style="fill:#fff;fill-opacity:1">,</tspan><tspan id="tspan1355" x="478.526" y="236.146" style="fill:#fff;fill-opacity:1">&gt;</tspan><tspan id="tspan1357" x="478.526" y="253.785" style="fill:#fff;fill-opacity:1">.</tspan><tspan id="tspan1359" x="518.526" y="236.146" style="fill:#fff;fill-opacity:1">?</tspan><tspan id="tspan1361" x="518.526" y="253.785" style="fill:#fff;fill-opacity:1">/</tspan><tspan id="tspan1363" x="588.526" y="244.966" style="fill:#fff;fill-opacity:1">Shift</tspan><tspan id="tspan1365" x="88.526" y="244.966" style="fill:#fff;fill-opacity:1">Shift</tspan></text></g><g id="g1379" font-size="14.111" style="fill:#fff;fill-opacity:1"><text opacity="0" style="text-anchor:middle;fill:#fff;fill-opacity:1" id="text1377"><tspan id="tspan1371" x="108.526" y="284.966" style="fill:#fff;fill-opacity:1">1</tspan><tspan id="tspan1373" x="528.526" y="284.966" style="fill:#fff;fill-opacity:1">1</tspan><tspan id="tspan1375" x="578.526" y="284.966" style="fill:#fff;fill-opacity:1">1</tspan></text></g><g id="g1391" fill="#000" font-size="14.111" style="fill:#fff;fill-opacity:1"><text style="text-anchor:middle;fill:#fff;fill-opacity:1" id="text1389"><tspan id="tspan1381" x="58.526" y="284.966" style="fill:#fff;fill-opacity:1">Ctrl</tspan><tspan id="tspan1383" x="168.526" y="284.966" style="fill:#fff;fill-opacity:1">Alt</tspan><tspan id="tspan1385" x="468.526" y="284.966" style="fill:#fff;fill-opacity:1">Alt</tspan><tspan id="tspan1387" x="618.526" y="284.966" style="fill:#fff;fill-opacity:1">Ctrl</tspan></text></g><g id="g1409" fill="#000" font-size="8.467" style="fill:#fff;fill-opacity:1"><text style="text-anchor:middle;fill:#fff;fill-opacity:1" id="text1407"><tspan id="tspan1393" x="678.526" y="52.66" style="fill:#fff;fill-opacity:1">Print</tspan><tspan id="tspan1395" x="678.526" y="63.244" style="fill:#fff;fill-opacity:1">Scrn</tspan><tspan id="tspan1397" x="678.526" y="73.827" style="fill:#fff;fill-opacity:1">SysRq</tspan><tspan id="tspan1399" x="758.526" y="57.952" style="fill:#fff;fill-opacity:1">Pause</tspan><tspan id="tspan1401" x="758.526" y="68.535" style="fill:#fff;fill-opacity:1">Break</tspan><tspan id="tspan1403" x="718.526" y="57.952" style="fill:#fff;fill-opacity:1">Scroll</tspan><tspan id="tspan1405" x="718.526" y="68.535" style="fill:#fff;fill-opacity:1">Lock</tspan></text></g><g id="g1439" fill="#000" font-size="14.111" style="fill:#fff;fill-opacity:1"><text style="text-anchor:middle;fill:#fff;fill-opacity:1" id="text1437"><tspan id="tspan1411" x="58.526" y="64.966" style="fill:#fff;fill-opacity:1">Esc</tspan><tspan id="tspan1413" x="138.526" y="64.966" style="fill:#fff;fill-opacity:1">F1</tspan><tspan id="tspan1415" x="178.526" y="64.966" style="fill:#fff;fill-opacity:1">F2</tspan><tspan id="tspan1417" x="218.526" y="64.966" style="fill:#fff;fill-opacity:1">F3</tspan><tspan id="tspan1419" x="258.526" y="64.966" style="fill:#fff;fill-opacity:1">F4</tspan><tspan id="tspan1421" x="318.526" y="64.966" style="fill:#fff;fill-opacity:1">F5</tspan><tspan id="tspan1423" x="358.526" y="64.966" style="fill:#fff;fill-opacity:1">F6</tspan><tspan id="tspan1425" x="398.526" y="64.966" style="fill:#fff;fill-opacity:1">F7</tspan><tspan id="tspan1427" x="438.526" y="64.966" style="fill:#fff;fill-opacity:1">F8</tspan><tspan id="tspan1429" x="498.526" y="64.966" style="fill:#fff;fill-opacity:1">F9</tspan><tspan id="tspan1431" x="538.526" y="64.966" style="fill:#fff;fill-opacity:1">F10</tspan><tspan id="tspan1433" x="578.526" y="64.966" style="fill:#fff;fill-opacity:1">F11</tspan><tspan id="tspan1435" x="618.526" y="64.966" style="fill:#fff;fill-opacity:1">F12</tspan></text></g><g id="g1451" fill="#000" font-size="14.111" style="fill:#fff;fill-opacity:1"><text style="text-anchor:middle;fill:#fff;fill-opacity:1" id="text1449"><tspan id="tspan1441" x="678.526" y="284.966" style="fill:#fff;fill-opacity:1">←</tspan><tspan id="tspan1443" x="758.526" y="284.966" style="fill:#fff;fill-opacity:1">→</tspan><tspan id="tspan1445" x="718.526" y="284.966" style="fill:#fff;fill-opacity:1">↓</tspan><tspan id="tspan1447" x="718.526" y="244.966" style="fill:#fff;fill-opacity:1">↑</tspan></text></g><g id="g1485" fill="#000" font-size="14.111" style="fill:#fff;fill-opacity:1"><text style="text-anchor:middle;fill:#fff;fill-opacity:1" id="text1483"><tspan id="tspan1453" x="898.526" y="124.966" style="fill:#fff;fill-opacity:1">*</tspan><tspan id="tspan1455" x="938.526" y="124.966" style="fill:#fff;fill-opacity:1">-</tspan><tspan id="tspan1457" x="818.526" y="164.966" style="fill:#fff;fill-opacity:1">7</tspan><tspan id="tspan1459" x="898.526" y="164.966" style="fill:#fff;fill-opacity:1">9</tspan><tspan id="tspan1461" x="938.526" y="184.966" style="fill:#fff;fill-opacity:1">+</tspan><tspan id="tspan1463" x="818.526" y="204.966" style="fill:#fff;fill-opacity:1">4</tspan><tspan id="tspan1465" x="898.526" y="204.966" style="fill:#fff;fill-opacity:1">6</tspan><tspan id="tspan1467" x="818.526" y="244.966" style="fill:#fff;fill-opacity:1">1</tspan><tspan id="tspan1469" x="898.526" y="244.966" style="fill:#fff;fill-opacity:1">3</tspan><tspan id="tspan1471" x="838.526" y="284.966" style="fill:#fff;fill-opacity:1">0</tspan><tspan id="tspan1473" x="898.526" y="284.966" style="fill:#fff;fill-opacity:1">.</tspan><tspan id="tspan1475" x="858.526" y="244.966" style="fill:#fff;fill-opacity:1">2</tspan><tspan id="tspan1477" x="858.526" y="204.966" style="fill:#fff;fill-opacity:1">5</tspan><tspan id="tspan1479" x="858.526" y="164.966" style="fill:#fff;fill-opacity:1">8</tspan><tspan id="tspan1481" x="858.526" y="124.966" style="fill:#fff;fill-opacity:1">/</tspan></text></g><g id="g1505" fill="#000" font-size="8.467" style="fill:#fff;fill-opacity:1"><text style="text-anchor:middle;fill:#fff;fill-opacity:1" id="text1503"><tspan id="tspan1487" x="678.526" y="123.243" style="fill:#fff;fill-opacity:1">Insert</tspan><tspan id="tspan1489" x="758.526" y="117.952" style="fill:#fff;fill-opacity:1">Page</tspan><tspan id="tspan1491" x="758.526" y="128.535" style="fill:#fff;fill-opacity:1">Up</tspan><tspan id="tspan1493" x="678.526" y="163.243" style="fill:#fff;fill-opacity:1">Delete</tspan><tspan id="tspan1495" x="758.526" y="157.952" style="fill:#fff;fill-opacity:1">Page</tspan><tspan id="tspan1497" x="758.526" y="168.535" style="fill:#fff;fill-opacity:1">Down</tspan><tspan id="tspan1499" x="718.526" y="163.243" style="fill:#fff;fill-opacity:1">End</tspan><tspan id="tspan1501" x="718.526" y="123.243" style="fill:#fff;fill-opacity:1">Home</tspan></text></g><g id="g1541" fill="#000" style="fill:#fff;fill-opacity:1"><g id="g1527" font-size="8.467" style="fill:#fff;fill-opacity:1"><text style="text-anchor:middle;fill:#fff;fill-opacity:1" id="text1525"><tspan id="tspan1507" x="938.526" y="263.243" style="fill:#fff;fill-opacity:1">Enter</tspan><tspan id="tspan1509" x="818.526" y="117.952" style="fill:#fff;fill-opacity:1">Num</tspan><tspan id="tspan1511" x="818.526" y="128.535" style="fill:#fff;fill-opacity:1">Lock</tspan><tspan id="tspan1513" x="818.525" y="173.827" style="fill:#fff;fill-opacity:1">Home</tspan><tspan id="tspan1515" x="898.525" y="173.827" style="fill:#fff;fill-opacity:1">Pg Up</tspan><tspan id="tspan1517" x="818.525" y="253.827" style="fill:#fff;fill-opacity:1">End</tspan><tspan id="tspan1519" x="898.525" y="253.827" style="fill:#fff;fill-opacity:1">Pg Dn</tspan><tspan id="tspan1521" x="838.525" y="293.827" style="fill:#fff;fill-opacity:1">Ins</tspan><tspan id="tspan1523" x="898.525" y="293.827" style="fill:#fff;fill-opacity:1">Del</tspan></text></g><g id="g1539" font-size="14.111" style="fill:#fff;fill-opacity:1"><text style="text-anchor:middle;fill:#fff;fill-opacity:1" id="text1537"><tspan id="tspan1529" x="818.525" y="215.078" style="fill:#fff;fill-opacity:1">←</tspan><tspan id="tspan1531" x="898.525" y="215.078" style="fill:#fff;fill-opacity:1">→</tspan><tspan id="tspan1533" x="858.525" y="256.201" style="fill:#fff;fill-opacity:1">↓</tspan><tspan id="tspan1535" x="858.525" y="176.201" style="fill:#fff;fill-opacity:1">↑</tspan></text></g></g></g></g><path id="path2406" d="M 60.251426,165.07355 H 57.94765 c -4.760809,0 -8.490105,3.87981 -8.490105,8.83279 v 12.36645 c 0,4.95348 3.729296,8.83373 8.490105,8.83373 h 2.303776 c 4.869887,0 8.831849,-3.96276 8.831849,-8.83373 v -12.36645 c 0,-4.87039 -3.961962,-8.83279 -8.831849,-8.83279 z m -1.070134,4.62877 h 0.178236 c 0.278578,0 0.505324,0.22668 0.505324,0.50533 v 3.59741 c 0,0.27865 -0.226746,0.50532 -0.505324,0.50532 h -0.178236 c -0.278578,0 -0.505324,-0.22667 -0.505324,-0.50532 v -3.59741 c 0,-0.27865 0.226746,-0.50533 0.505324,-0.50533 z m 8.746955,16.57047 c 0,4.23404 -3.443788,7.6787 -7.676821,7.6787 H 57.94765 c -4.113199,0 -7.335077,-3.3729 -7.335077,-7.6787 v -12.36645 c 0,-4.30522 3.22195,-7.67776 7.335077,-7.67776 h 0.738135 v 2.3943 c -0.674247,0.2113 -1.164845,0.8418 -1.164845,1.58484 v 3.59741 c 0,0.74297 0.490598,1.37354 1.164845,1.58477 v 2.97174 c 0,0.31893 0.258582,0.57752 0.577514,0.57752 0.318932,0 0.577514,-0.25859 0.577514,-0.57752 v -2.96755 c 0.681539,-0.20683 1.179067,-0.84079 1.179067,-1.58896 v -3.59748 c 0,-0.74817 -0.497528,-1.38214 -1.179067,-1.58903 v -2.39004 h 0.410613 c 4.233033,0 7.676821,3.44422 7.676821,7.67776 z" style="fill:#2a2a2a;fill-opacity:1;stroke-width:4;stroke-miterlimit:10;stroke-dasharray:none"/><g id="g2509" transform="matrix(0.08836792,0,0,0.08836792,136.96986,157.01471)"><circle id="circle2505" cx="255.811" cy="285.309" r="75.217"/><path id="path2507" d="M 477,137 H 352.718 L 349,108 C 349,91.432 335.568,78 319,78 H 191 c -16.568,0 -30,13.432 -30,30 l -3.718,29 H 34 c -11.046,0 -20,8.454 -20,19.5 v 258 c 0,11.046 8.954,20.5 20,20.5 h 443 c 11.046,0 20,-9.454 20,-20.5 v -258 C 497,145.454 488.046,137 477,137 Z M 255.595,408.562 c -67.928,0 -122.994,-55.066 -122.994,-122.993 0,-67.928 55.066,-122.994 122.994,-122.994 67.928,0 122.994,55.066 122.994,122.994 0,67.926 -55.066,122.993 -122.994,122.993 z M 474,190 H 369 v -31 h 105 z"/></g><rect style="fill:#000;fill-opacity:1;stroke:#000;stroke-width:.478697;stroke-miterlimit:4;stroke-dasharray:none" id="rect2525" width="255.976" height="30.352" x="-51.695" y="211.434" ry="3.12"/><text xml:space="preserve" style="font-style:normal;font-weight:400;font-size:10.5833px;line-height:1.25;font-family:sans-serif;fill:#fff;fill-opacity:1;stroke:none;stroke-width:.264583" id="text2692" x="30.844" y="229.538"><tspan id="tspan2690" x="30.844" y="229.538" style="fill:#fff;fill-opacity:1;stroke-width:.264583">CalDigit TS3 Plus</tspan></text><g id="g1178"><rect style="fill:#0091da;fill-opacity:1;stroke:#000;stroke-width:.499999;stroke-miterlimit:4;stroke-dasharray:none" id="rect2694" width="19.04" height="19.04" x="274.908" y="3.285"/><text xml:space="preserve" style="font-style:normal;font-weight:400;font-size:10.5833px;line-height:1.25;font-family:sans-serif;fill:#000;fill-opacity:1;stroke:none;stroke-width:.264583" id="text2713" x="303.686" y="16.641"><tspan id="tspan2711" x="303.686" y="16.641" style="stroke-width:.264583">USB</tspan></text></g><g id="g1173" transform="translate(0,0.05471257)"><rect style="fill:#3da23d;fill-opacity:1;stroke:#000;stroke-width:.499999;stroke-miterlimit:4;stroke-dasharray:none" id="rect2694-4" width="19.04" height="19.04" x="274.908" y="32.063"/><text xml:space="preserve" style="font-style:normal;font-weight:400;font-size:10.5833px;line-height:1.25;font-family:sans-serif;fill:#000;fill-opacity:1;stroke:none;stroke-width:.264583" id="text2713-5" x="303.572" y="44.539"><tspan id="tspan2711-8" x="303.572" y="44.539" style="stroke-width:.264583">DisplayPort</tspan></text></g><rect style="fill:#b40f0f;fill-opacity:1;stroke:#000;stroke-width:.499999;stroke-miterlimit:4;stroke-dasharray:none" id="rect2694-5" width="19.04" height="19.04" x="274.908" y="60.951"/><text xml:space="preserve" style="font-style:normal;font-weight:400;font-size:10.5833px;line-height:1.25;font-family:sans-serif;fill:#000;fill-opacity:1;stroke:none;stroke-width:.264583" id="text2713-52" x="303.686" y="74.308"><tspan id="tspan2711-2" x="303.686" y="74.308" style="stroke-width:.264583">ThunderBolt-3</tspan></text><text xml:space="preserve" style="font-style:normal;font-weight:400;font-size:10.5833px;line-height:1.25;font-family:sans-serif;fill:#000;fill-opacity:1;stroke:none;stroke-width:.264583" id="text1177" x="-66.019" y="264.371"><tspan id="tspan1175" x="-66.019" y="264.371" style="stroke-width:.264583">2m (active)</tspan></text><text xml:space="preserve" style="font-style:normal;font-weight:400;font-size:10.5833px;line-height:1.25;font-family:sans-serif;fill:#000;fill-opacity:1;stroke:none;stroke-width:.264583" id="text1177-0" x="166.766" y="266.34"><tspan id="tspan1175-7" x="166.766" y="266.34" style="stroke-width:.264583">0.5m</tspan></text><text xml:space="preserve" style="font-style:normal;font-weight:400;font-size:10.5833px;line-height:1.25;font-family:sans-serif;fill:#000;fill-opacity:1;stroke:none;stroke-width:.264583" id="text1199" x="49.211" y="70.329"><tspan id="tspan1197" x="49.211" y="70.329" style="stroke-width:.264583">4k Display</tspan></text></g></svg>