<svg height="247.546" viewBox="0 0 314.902 123.773" width="629.804" xmlns="http://www.w3.org/2000/svg" xmlns:xlink="http://www.w3.org/1999/xlink"><defs><clipPath id="a"><path d="m44 3h270.902344v78h-270.902344zm0 0"/></clipPath><g id="b"><path d="m4.890625-1.15625c-.625.421875-1.171875.625-1.71875.625-1.09375 0-1.828125-.828125-1.828125-2.21875 0-.03125 0-.078125 0-.125h3.53125c.015625-.109375.015625-.21875.015625-.328125 0-1.34375-.78125-2.15625-1.96875-2.15625-1.453125 0-2.515625 1.125-2.515625 2.78125 0 1.59375.984375 2.671875 2.421875 2.671875.6875 0 1.40625-.21875 2.0625-.65625zm-.96875-2.171875h-2.53125c.078125-.921875.6875-1.53125 1.390625-1.53125.734375 0 1.140625.46875 1.140625 1.359375zm0 0"/></g><g id="c"><path d="m3.890625-2.546875c0-.84375-.078125-1.359375-.34375-1.875-.34375-.703125-1-.875-1.4375-.875-1 0-1.375.75-1.484375.96875-.28125.578125-.296875 1.375-.296875 1.78125 0 .53125.015625 1.328125.40625 1.96875.359375.59375.953125.75 1.375.75.390625 0 1.0625-.125 1.46875-.90625.296875-.578125.3125-1.296875.3125-1.8125zm-1.78125 2.484375c-.265625 0-.8125-.125-.984375-.953125-.09375-.453125-.09375-1.203125-.09375-1.625 0-.546875 0-1.109375.09375-1.546875.171875-.8125.78125-.890625.984375-.890625.265625 0 .828125.140625.984375.859375.09375.4375.09375 1.046875.09375 1.578125 0 .46875 0 1.1875-.09375 1.640625-.171875.828125-.71875.9375-.984375.9375zm0 0"/></g><g id="d"><path d="m2.25-1.625c.125-.125.453125-.390625.59375-.5.484375-.453125.953125-.890625.953125-1.609375 0-.953125-.796875-1.5625-1.78125-1.5625-.96875 0-1.59375.71875-1.59375 1.4375 0 .390625.3125.4375.421875.4375.171875 0 .421875-.109375.421875-.421875 0-.40625-.40625-.40625-.5-.40625.234375-.59375.765625-.78125 1.15625-.78125.734375 0 1.125.625 1.125 1.296875 0 .828125-.578125 1.4375-1.53125 2.390625l-1 1.046875c-.09375.078125-.09375.09375-.09375.296875h3.140625l.234375-1.421875h-.25c-.015625.15625-.078125.546875-.171875.703125-.046875.0625-.65625.0625-.78125.0625h-1.421875zm0 0"/></g><g id="e"><path d="m3.140625-5.15625c0-.15625 0-.21875-.171875-.21875-.09375 0-.109375 0-.1875.109375l-2.546875 3.703125v.25h2.25v.671875c0 .296875-.015625.375-.640625.375h-.171875v.265625c.671875-.03125.6875-.03125 1.140625-.03125s.46875 0 1.140625.03125v-.265625h-.171875c-.625 0-.640625-.078125-.640625-.375v-.671875h.84375v-.25h-.84375zm-.59375.640625v2.953125h-2.03125zm0 0"/></g><g id="f"><path d="m2.640625-2.875c.453125-.21875 1-.609375 1-1.234375 0-.765625-.78125-1.1875-1.515625-1.1875-.84375 0-1.53125.578125-1.53125 1.328125 0 .296875.09375.5625.296875.796875.140625.171875.171875.1875.65625.5-.984375.4375-1.203125 1.015625-1.203125 1.453125 0 .890625.890625 1.390625 1.765625 1.390625.96875 0 1.765625-.671875 1.765625-1.515625 0-.5-.265625-.828125-.40625-.96875-.125-.125-.140625-.140625-.828125-.5625zm-1.234375-.75c-.234375-.140625-.421875-.375-.421875-.640625 0-.5.546875-.828125 1.125-.828125.609375 0 1.125.421875 1.125.984375 0 .453125-.359375.84375-.828125 1.078125zm.390625 1.09375c.03125.015625.9375.578125 1.078125.65625.125.078125.546875.328125.546875.8125 0 .609375-.65625.984375-1.296875.984375-.71875 0-1.3125-.484375-1.3125-1.140625 0-.59375.4375-1.0625.984375-1.3125zm0 0"/></g><g id="g"><path d="m2.015625-2.65625c.625 0 1.03125.453125 1.03125 1.296875 0 1-.5625 1.28125-.984375 1.28125-.4375 0-1.046875-.15625-1.328125-.578125.296875 0 .5-.1875.5-.4375 0-.265625-.1875-.4375-.453125-.4375-.203125 0-.4375.125-.4375.453125 0 .75.8125 1.25 1.734375 1.25 1.046875 0 1.796875-.734375 1.796875-1.53125 0-.671875-.53125-1.265625-1.34375-1.453125.625-.21875 1.109375-.75 1.109375-1.390625s-.71875-1.09375-1.546875-1.09375c-.859375 0-1.5.453125-1.5 1.0625 0 .296875.1875.421875.40625.421875.25 0 .40625-.171875.40625-.40625 0-.296875-.265625-.40625-.4375-.40625.34375-.4375.953125-.46875 1.09375-.46875.203125 0 .8125.0625.8125.890625 0 .546875-.234375.890625-.34375 1.015625-.234375.25-.421875.265625-.90625.296875-.15625 0-.21875.015625-.21875.125s.078125.109375.21875.109375zm0 0"/></g><g id="h"><path d="m1.625-.4375c0-.265625-.234375-.453125-.453125-.453125-.25 0-.4375.21875-.4375.4375 0 .28125.21875.453125.4375.453125.25 0 .453125-.203125.453125-.4375zm0 0"/></g></defs><path d="m-.00075 81.837219v-81.83593775h242.363281" fill="none" stroke="#000" stroke-miterlimit="10" stroke-width=".3985" transform="matrix(1 0 0 -1 61.032 88.388)"/><g><path d="m.65625-.21875c.5.21875 1.171875.34375 1.96875.34375 1.734375 0 2.8125-.90625 2.8125-2.1875 0-.484375-.15625-.875-.46875-1.203125-.515625-.484375-1.09375-.65625-1.65625-.890625-1-.421875-1.53125-.703125-1.53125-1.421875 0-.796875.5625-1.328125 1.484375-1.328125.390625 0 .71875.078125.984375.234375l.171875.1875.15625 1.03125h.5625v-1.6875c-.640625-.203125-1.25-.3125-1.84375-.3125-1.546875 0-2.515625.859375-2.515625 2.09375 0 1.0625.625 1.46875 1.84375 1.984375 1.1875.515625 1.8125.71875 1.8125 1.625 0 .75-.59375 1.296875-1.640625 1.296875-.5 0-.90625-.078125-1.21875-.25l-.15625-.1875-.125-1.25h-.640625zm0 0" transform="translate(3.985 50.315)"/><path d="m.25 2.375h2.5625v-.390625l-.703125-.046875-.171875-.1875v-1.8125c.390625.0625.734375.09375 1 .09375 1.625 0 2.6875-1.109375 2.6875-2.828125 0-1.53125-.890625-2.5625-2.09375-2.5625-.515625 0-1.015625.21875-1.59375.65625v-.59375h-.421875l-1.265625.390625v.34375h.78125v6.3125l-.1875.1875-.59375.046875zm1.6875-3v-3.671875c.40625-.234375.765625-.375 1.140625-.375.953125 0 1.59375.75 1.59375 2.015625 0 1.34375-.75 2.203125-1.8125 2.203125-.265625 0-.5625-.0625-.921875-.171875zm0 0" transform="translate(10.05046 50.315)"/><use x="16.061374" xlink:href="#b" y="50.315"/><use x="21.417742" xlink:href="#b" y="50.315"/><path d="m4.171875-7.296875v2.046875c-.328125-.078125-.65625-.109375-.96875-.109375-1.65625 0-2.8125 1.15625-2.8125 2.90625 0 1.53125.921875 2.546875 2.109375 2.546875.59375 0 1.125-.21875 1.671875-.65625v.5625h1.625v-.390625l-.53125-.0625-.1875-.171875v-7.40625h-.40625l-1.328125.390625v.34375zm0 6.328125c-.390625.25-.796875.375-1.1875.375-.984375 0-1.625-.765625-1.625-2.046875 0-1.359375.75-2.25 1.859375-2.25.265625 0 .59375.0625.953125.171875zm0 0" transform="translate(26.77411 50.315)"/></g><path d="m.171875-7.3125v1.671875h.609375l.140625-1.015625.15625-.15625h1.6875v6.15625l-.203125.15625-.734375.046875v.453125h2.84375v-.453125l-.71875-.046875-.203125-.15625v-6.15625h1.6875l.140625.15625.15625 1.015625h.609375v-1.671875zm0 0" transform="translate(162.007 118.288)"/><g><path d="m1.671875-7.71875c-.34375 0-.625.265625-.625.625s.28125.625.625.625c.359375 0 .640625-.265625.640625-.625 0-.34375-.28125-.625-.640625-.625zm-.03125 2.421875-1.265625.390625v.34375h.765625v3.9375l-.1875.171875-.578125.0625v.390625h2.453125v-.390625l-.578125-.0625-.203125-.171875v-4.671875zm0 0" transform="translate(168.31246 118.288)"/><path d="m4.953125-4.625c-.25-.484375-.671875-.734375-1.203125-.734375-.453125 0-1.03125.234375-1.75.65625v-.59375h-.40625l-1.265625.390625v.34375h.765625v3.9375l-.171875.171875-.59375.0625v.390625h2.390625v-.390625l-.53125-.0625-.1875-.171875v-3.65625c.484375-.234375.890625-.359375 1.25-.359375.65625 0 .953125.359375.953125 1.125v2.890625l-.171875.171875-.53125.0625v.390625h2.328125v-.390625l-.515625-.0625-.203125-.171875v-3.65625c.46875-.21875.890625-.359375 1.234375-.359375.6875 0 .984375.359375.984375 1.125v2.890625l-.203125.171875-.5.0625v.390625h2.375v-.390625l-.578125-.0625-.1875-.171875v-3.078125c0-1.078125-.546875-1.65625-1.40625-1.65625-.4375 0-1.0625.25-1.875.734375zm0 0" transform="translate(171.367008 118.288)"/><use x="180.563379" xlink:href="#b" y="118.288"/></g><g><path d="m4.203125-7.828125c-1.9375.234375-3.046875 1.890625-3.046875 4.71875 0 2.796875 1.15625 4.4375 3.046875 4.65625v-.453125c-1.453125-.25-2.125-1.625-2.125-4.1875 0-2.625.640625-4.015625 2.125-4.28125zm0 0" transform="translate(188.952477 118.288)"/><path d="m3.75-5.109375c-.375-.171875-.796875-.25-1.28125-.25-1.234375 0-1.921875.578125-1.921875 1.53125 0 .734375.484375 1.078125 1.40625 1.5.71875.328125 1.109375.515625 1.109375 1.078125 0 .515625-.390625.890625-1.015625.890625-.328125 0-.625-.09375-.9375-.265625l-.125-.921875h-.53125v1.421875c.390625.140625.859375.21875 1.421875.21875 1.28125 0 2.046875-.625 2.046875-1.625 0-.40625-.15625-.734375-.421875-.9375-.359375-.296875-.78125-.453125-1.15625-.640625-.609375-.296875-.921875-.515625-.921875-.984375 0-.5.328125-.796875.90625-.796875.25 0 .515625.078125.796875.234375l.09375.78125h.53125zm0 0" transform="translate(193.501572 118.288)"/><path d="m.34375-7.828125v.453125c1.484375.265625 2.125 1.65625 2.125 4.28125 0 2.5625-.671875 3.9375-2.125 4.1875v.453125c1.890625-.21875 3.046875-1.859375 3.046875-4.65625 0-2.828125-1.109375-4.484375-3.046875-4.71875zm0 0" transform="translate(197.865212 118.288)"/></g><path d="m-.00075.00128125v-2.04687525" fill="none" stroke="#000" stroke-miterlimit="10" stroke-width=".3985" transform="matrix(1 0 0 -1 61.032 88.388)"/><use x="58.914" xlink:href="#c" y="99.754"/><path d="m16.1555.00128125v-2.04687525" fill="none" stroke="#000" stroke-miterlimit="10" stroke-width=".3985" transform="matrix(1 0 0 -1 61.032 88.388)"/><path d="m32.315656.00128125v-2.04687525" fill="none" stroke="#000" stroke-miterlimit="10" stroke-width=".3985" transform="matrix(1 0 0 -1 61.032 88.388)"/><path d="m48.471906.00128125v-2.04687525" fill="none" stroke="#000" stroke-miterlimit="10" stroke-width=".3985" transform="matrix(1 0 0 -1 61.032 88.388)"/><path d="m64.628156.00128125v-2.04687525" fill="none" stroke="#000" stroke-miterlimit="10" stroke-width=".3985" transform="matrix(1 0 0 -1 61.032 88.388)"/><path d="m2.5-5.078125c0-.21875-.015625-.21875-.234375-.21875-.328125.3125-.75.5-1.5.5v.265625c.21875 0 .640625 0 1.109375-.203125v4.078125c0 .296875-.03125.390625-.78125.390625h-.28125v.265625c.328125-.03125 1.015625-.03125 1.375-.03125s1.046875 0 1.375.03125v-.265625h-.28125c-.75 0-.78125-.09375-.78125-.390625zm0 0" transform="translate(116.016 99.754)"/><use x="120.25" xlink:href="#h" y="99.754"/><g><use x="122.603" xlink:href="#c" y="99.754"/><use x="126.837514" xlink:href="#d" y="99.754"/><use x="131.072028" xlink:href="#e" y="99.754"/></g><path d="m80.788312.00128125v-2.04687525" fill="none" stroke="#000" stroke-miterlimit="10" stroke-width=".3985" transform="matrix(1 0 0 -1 61.032 88.388)"/><path d="m96.944562.00128125v-2.04687525" fill="none" stroke="#000" stroke-miterlimit="10" stroke-width=".3985" transform="matrix(1 0 0 -1 61.032 88.388)"/><path d="m113.100812.00128125v-2.04687525" fill="none" stroke="#000" stroke-miterlimit="10" stroke-width=".3985" transform="matrix(1 0 0 -1 61.032 88.388)"/><path d="m129.260969.00128125v-2.04687525" fill="none" stroke="#000" stroke-miterlimit="10" stroke-width=".3985" transform="matrix(1 0 0 -1 61.032 88.388)"/><use x="180.645" xlink:href="#d" y="99.754"/><use x="184.879" xlink:href="#h" y="99.754"/><g><use x="187.232" xlink:href="#c" y="99.754"/><use x="191.466514" xlink:href="#e" y="99.754"/><use x="195.701028" xlink:href="#f" y="99.754"/></g><path d="m145.417219.00128125v-2.04687525" fill="none" stroke="#000" stroke-miterlimit="10" stroke-width=".3985" transform="matrix(1 0 0 -1 61.032 88.388)"/><path d="m161.573469.00128125v-2.04687525" fill="none" stroke="#000" stroke-miterlimit="10" stroke-width=".3985" transform="matrix(1 0 0 -1 61.032 88.388)"/><path d="m177.733625.00128125v-2.04687525" fill="none" stroke="#000" stroke-miterlimit="10" stroke-width=".3985" transform="matrix(1 0 0 -1 61.032 88.388)"/><path d="m193.889875.00128125v-2.04687525" fill="none" stroke="#000" stroke-miterlimit="10" stroke-width=".3985" transform="matrix(1 0 0 -1 61.032 88.388)"/><use x="245.274" xlink:href="#g" y="99.754"/><use x="249.508" xlink:href="#h" y="99.754"/><g><use x="251.861" xlink:href="#c" y="99.754"/><path d="m4.03125-4.859375c.078125-.078125.078125-.09375.078125-.265625h-2.03125c-.203125 0-.4375-.015625-.640625-.03125-.421875-.03125-.421875-.109375-.453125-.234375h-.25l-.265625 1.6875h.25c.015625-.125.109375-.671875.21875-.734375.078125-.046875.6875-.046875.796875-.046875h1.6875l-.8125 1.109375c-.90625 1.203125-1.109375 2.46875-1.109375 3.09375 0 .078125 0 .453125.375.453125s.375-.359375.375-.453125v-.390625c0-1.140625.203125-2.078125.59375-2.609375zm0 0" transform="translate(256.095514 99.754)"/><use x="260.330028" xlink:href="#d" y="99.754"/></g><path d="m210.046125.00128125v-2.04687525" fill="none" stroke="#000" stroke-miterlimit="10" stroke-width=".3985" transform="matrix(1 0 0 -1 61.032 88.388)"/><path d="m226.206281.00128125v-2.04687525" fill="none" stroke="#000" stroke-miterlimit="10" stroke-width=".3985" transform="matrix(1 0 0 -1 61.032 88.388)"/><path d="m242.362531.00128125v-2.04687525" fill="none" stroke="#000" stroke-miterlimit="10" stroke-width=".3985" transform="matrix(1 0 0 -1 61.032 88.388)"/><use x="295.863" xlink:href="#g" y="99.754"/><use x="300.097" xlink:href="#h" y="99.754"/><g><use x="302.449" xlink:href="#f" y="99.754"/><use x="306.683514" xlink:href="#e" y="99.754"/></g><path d="m-.00075.00128125h-2.585938" fill="none" stroke="#000" stroke-miterlimit="10" stroke-width=".3985" transform="matrix(1 0 0 -1 61.032 88.388)"/><use x="50.028" xlink:href="#c" y="90.956"/><path d="m-.00075 20.458313h-2.585938" fill="none" stroke="#000" stroke-miterlimit="10" stroke-width=".3985" transform="matrix(1 0 0 -1 61.032 88.388)"/><g><use x="45.794" xlink:href="#d" y="70.497"/><use x="50.028514" xlink:href="#c" y="70.497"/></g><path d="m-.00075 40.91925h-2.585938" fill="none" stroke="#000" stroke-miterlimit="10" stroke-width=".3985" transform="matrix(1 0 0 -1 61.032 88.388)"/><g><use x="45.794" xlink:href="#e" y="50.039"/><use x="50.028514" xlink:href="#c" y="50.039"/></g><path d="m-.00075 61.376281h-2.585938" fill="none" stroke="#000" stroke-miterlimit="10" stroke-width=".3985" transform="matrix(1 0 0 -1 61.032 88.388)"/><g><path d="m1.09375-2.640625c0-.65625.0625-1.234375.34375-1.71875.25-.40625.65625-.734375 1.15625-.734375.15625 0 .515625.03125.703125.296875-.359375.03125-.390625.296875-.390625.375 0 .25.1875.375.375.375.140625 0 .375-.078125.375-.390625 0-.46875-.359375-.859375-1.078125-.859375-1.109375 0-2.234375 1.046875-2.234375 2.765625 0 2.171875 1.015625 2.703125 1.78125 2.703125.390625 0 .796875-.109375 1.15625-.453125.328125-.3125.59375-.640625.59375-1.34375 0-1.03125-.796875-1.765625-1.671875-1.765625-.578125 0-.921875.359375-1.109375.75zm1.03125 2.5625c-.421875 0-.6875-.28125-.796875-.515625-.1875-.359375-.203125-.890625-.203125-1.203125 0-.78125.421875-1.375 1.046875-1.375.390625 0 .640625.203125.78125.484375.171875.296875.171875.65625.171875 1.0625s0 .75-.15625 1.046875c-.21875.359375-.484375.5-.84375.5zm0 0" transform="translate(45.794 29.58)"/><use x="50.028514" xlink:href="#c" y="29.58"/></g><path d="m-.00075 81.837219h-2.585938" fill="none" stroke="#000" stroke-miterlimit="10" stroke-width=".3985" transform="matrix(1 0 0 -1 61.032 88.388)"/><g><use x="45.794" xlink:href="#f" y="9.121"/><use x="50.028514" xlink:href="#c" y="9.121"/></g><g clip-path="url(#a)"><path d="m-.00075 24.552063h32.316406l16.15625 8.183593 16.15625 26.59375 16.160156 8.183594h161.574219" fill="none" stroke="#4b7e96" stroke-miterlimit="10" stroke-width="1.19553" transform="matrix(1 0 0 -1 61.032 88.388)"/></g><g fill="#4b7e96"><path d="m62.28125 63.835938c0-.6875-.558594-1.25-1.25-1.25-.6875 0-1.25.5625-1.25 1.25 0 .691406.5625 1.25 1.25 1.25.691406 0 1.25-.558594 1.25-1.25zm0 0"/><path d="m78.4375 63.835938c0-.6875-.558594-1.25-1.25-1.25-.6875 0-1.246094.5625-1.246094 1.25 0 .691406.558594 1.25 1.246094 1.25.691406 0 1.25-.558594 1.25-1.25zm0 0"/><path d="m94.597656 63.835938c0-.6875-.5625-1.25-1.25-1.25-.691406 0-1.25.5625-1.25 1.25 0 .691406.558594 1.25 1.25 1.25.6875 0 1.25-.558594 1.25-1.25zm0 0"/><path d="m110.753906 55.652344c0-.6875-.558594-1.25-1.25-1.25s-1.25.5625-1.25 1.25c0 .691406.558594 1.25 1.25 1.25s1.25-.558594 1.25-1.25zm0 0"/><path d="m126.910156 29.058594c0-.691406-.558594-1.25-1.25-1.25-.6875 0-1.246094.558594-1.246094 1.25 0 .6875.558594 1.246094 1.246094 1.246094.691406 0 1.25-.558594 1.25-1.246094zm0 0"/><path d="m143.070312 20.875c0-.691406-.5625-1.25-1.25-1.25-.691406 0-1.25.558594-1.25 1.25 0 .6875.558594 1.246094 1.25 1.246094.6875 0 1.25-.558594 1.25-1.246094zm0 0"/><path d="m159.226562 20.875c0-.691406-.558593-1.25-1.25-1.25-.691406 0-1.25.558594-1.25 1.25 0 .6875.558594 1.246094 1.25 1.246094.691407 0 1.25-.558594 1.25-1.246094zm0 0"/><path d="m175.382812 20.875c0-.691406-.558593-1.25-1.25-1.25-.6875 0-1.246093.558594-1.246093 1.25 0 .6875.558593 1.246094 1.246093 1.246094.691407 0 1.25-.558594 1.25-1.246094zm0 0"/><path d="m191.539062 20.875c0-.691406-.558593-1.25-1.246093-1.25-.691407 0-1.25.558594-1.25 1.25 0 .6875.558593 1.246094 1.25 1.246094.6875 0 1.246093-.558594 1.246093-1.246094zm0 0"/><path d="m207.699219 20.875c0-.691406-.558594-1.25-1.25-1.25-.691407 0-1.25.558594-1.25 1.25 0 .6875.558593 1.246094 1.25 1.246094.691406 0 1.25-.558594 1.25-1.246094zm0 0"/><path d="m223.855469 20.875c0-.691406-.558594-1.25-1.25-1.25-.6875 0-1.25.558594-1.25 1.25 0 .6875.5625 1.246094 1.25 1.246094.691406 0 1.25-.558594 1.25-1.246094zm0 0"/><path d="m240.011719 20.875c0-.691406-.558594-1.25-1.246094-1.25-.691406 0-1.25.558594-1.25 1.25 0 .6875.558594 1.246094 1.25 1.246094.6875 0 1.246094-.558594 1.246094-1.246094zm0 0"/><path d="m256.171875 20.875c0-.691406-.558594-1.25-1.25-1.25s-1.25.558594-1.25 1.25c0 .6875.558594 1.246094 1.25 1.246094s1.25-.558594 1.25-1.246094zm0 0"/><path d="m272.328125 20.875c0-.691406-.558594-1.25-1.25-1.25-.6875 0-1.25.558594-1.25 1.25 0 .6875.5625 1.246094 1.25 1.246094.691406 0 1.25-.558594 1.25-1.246094zm0 0"/><path d="m288.484375 20.875c0-.691406-.558594-1.25-1.246094-1.25-.691406 0-1.25.558594-1.25 1.25 0 .6875.558594 1.246094 1.25 1.246094.6875 0 1.246094-.558594 1.246094-1.246094zm0 0"/><path d="m304.644531 20.875c0-.691406-.5625-1.25-1.25-1.25-.691406 0-1.25.558594-1.25 1.25 0 .6875.558594 1.246094 1.25 1.246094.6875 0 1.25-.558594 1.25-1.246094zm0 0"/></g></svg>