<svg height="333.354" viewBox="0 0 141.732 158.74" width="396.849" xmlns="http://www.w3.org/2000/svg" xmlns:xlink="http://www.w3.org/1999/xlink"><clipPath id="r"><path d="M2 127h52v31.738H2zm0 0"/></clipPath><clipPath id="s"><path d="M55 127h32v31.738H55zm0 0"/></clipPath><symbol id="a" overflow="visible"><path d="M4.281-5.016l3.125-3.28H6.281L2.094-3.892v-4.406h-1V0h1v-2.703L3.64-4.328 6.453 0h1.094zm0 0"/></symbol><symbol id="b" overflow="visible"><path d="M4.86-2.688c0-.515-.048-1.25-.423-1.874-.5-.829-1.328-.922-1.671-.922C1.469-5.484.39-4.25.39-2.688.39-1.109 1.547.126 2.92.126c.563 0 1.22-.156 1.876-.64 0-.047-.047-.422-.047-.438s-.031-.281-.031-.328c-.703.593-1.407.687-1.766.687-.922 0-1.703-.828-1.734-2.094zm-3.563-.64c.203-.813.766-1.438 1.469-1.438.359 0 1.187.157 1.39 1.438zm0 0"/></symbol><symbol id="c" overflow="visible"><path d="M5.172-5.313h-.89C3.733-3.89 2.811-1.546 2.765-.688H2.75c-.063-.718-.688-2.28-.797-2.53L1.11-5.314H.172L2.39 0l-.422 1.094c-.266.593-.438.656-.657.656-.171 0-.546-.047-.921-.188l.078.782a4.5 4.5 0 00.844.094c.296 0 .843 0 1.359-1.313zm0 0"/></symbol><symbol id="d" overflow="visible"><path d="M4.016-5.11a3.874 3.874 0 00-1.688-.374c-.265 0-1.937 0-1.937 1.546 0 .532.296.891.468 1.063.438.36.735.422 1.438.563.39.093 1.078.234 1.078.859 0 .828-.922.828-1.094.828A3.124 3.124 0 01.47-1.219l-.14.813c.046.031.859.531 1.968.531 1.547 0 1.906-.938 1.906-1.64 0-.61-.36-1-.406-1.048-.453-.468-.813-.53-1.531-.671-.438-.094-1.047-.204-1.047-.813 0-.734.843-.734 1-.734a3.2 3.2 0 011.656.437zm0 0"/></symbol><symbol id="e" overflow="visible"><path d="M4.5-7.5h1.063c.14 0 .28.016.421.016h1.563v-.75H.422v.75H2c.14 0 .281-.016.422-.016h1.062V0H4.5zm0 0"/></symbol><symbol id="f" overflow="visible"><path d="M1.844-.531c.406.36.906.656 1.547.656 1.156 0 2.171-1.172 2.171-2.797 0-1.437-.75-2.75-1.875-2.75-.484 0-1.25.156-1.874.672v-.563H.938v7.625h.906zm0-3.485a1.465 1.465 0 011.218-.671c.876 0 1.594.89 1.594 2.03 0 1.204-.812 2.063-1.703 2.063-.328 0-.562-.125-.781-.297-.297-.25-.328-.468-.328-.656zm0 0"/></symbol><symbol id="i" overflow="visible"><path d="M5.438-7.953c-.485-.266-1.094-.594-2.157-.594-1.594 0-2.64 1.14-2.64 2.344 0 .844.515 1.39.578 1.453.593.61 1 .703 1.75.906 1.031.25 1.187.297 1.578.688.203.219.375.594.375 1.015 0 .829-.672 1.594-1.703 1.594a3.752 3.752 0 01-2.516-1l-.172.969A4.894 4.894 0 003.22.25c1.53 0 2.624-1.188 2.624-2.516 0-.765-.375-1.328-.625-1.625-.563-.593-1-.718-1.797-.921-.813-.204-1.11-.266-1.375-.516-.156-.172-.485-.469-.485-1 0-.734.657-1.438 1.72-1.438 1.015 0 1.546.391 1.984.766zm0 0"/></symbol><symbol id="j" overflow="visible"><path d="M5.063-3.594c0-.734-.157-1.828-1.594-1.828-.828 0-1.375.469-1.656.813v-3.688H.921V0h.906v-2.969c0-.75.281-1.734 1.188-1.734 1.109 0 1.14.766 1.14 1.187V0h.907zm0 0"/></symbol><symbol id="k" overflow="visible"><path d="M1.89-8.11H.86v1.016h1.03zm-.077 2.797H.938V0h.875zm0 0"/></symbol><symbol id="l" overflow="visible"><path d="M2.063-4.61h1.28v-.702H2.048v-1.422c0-.813.672-.97 1.078-.97s.781.141.922.204v-.797c-.078-.015-.469-.125-.922-.125-1.125 0-1.938.875-1.938 2.031v1.079H.313v.703h.875V0h.875zm0 0"/></symbol><symbol id="m" overflow="visible"><path d="M2.047-4.61h1.64v-.702h-1.64v-1.516h-.828v1.516h-1v.703h.969v3.203c0 .703.156 1.531.984 1.531.797 0 1.36-.281 1.719-.469l-.172-.703c-.422.375-.86.422-1.078.422-.532 0-.594-.563-.594-.984zm0 0"/></symbol><symbol id="g" overflow="visible"><path d="M2.64-5.5a.704.704 0 00-.687-.688.687.687 0 00-.703.688.696.696 0 101.39 0zm0 4.797a.693.693 0 00-.687-.688.687.687 0 00-.703.688.696.696 0 101.39 0zm0 0"/></symbol><symbol id="h" overflow="visible"><path d="M3.422-8.031a.83.83 0 00-.844-.844c-.406 0-.844.328-.844.844s.407.844.844.844a.84.84 0 00.844-.844zm0 7.187a.83.83 0 00-.844-.844c-.406 0-.844.329-.844.844S2.141 0 2.578 0a.84.84 0 00.844-.844zm0 0"/></symbol><symbol id="o" overflow="visible"><path d="M3.422-8.031a.83.83 0 00-.844-.844c-.406 0-.844.328-.844.844s.407.844.844.844a.84.84 0 00.844-.844zM3.156.234c0 1.313-.406 2.391-1.11 3.375-.124.157-.124.188-.124.22 0 .093.078.171.172.171s1.39-1.422 1.39-3.813c0-.812-.062-1.875-.906-1.875-.453 0-.844.297-.844.844 0 .531.391.844.844.844.203 0 .438-.063.578-.203zm0 0"/></symbol><symbol id="t" overflow="visible"><path d="M8.672-6.625c0-1.266-.016-3.406-.89-5.063-.766-1.453-1.985-1.968-3.048-1.968-1 0-2.25.453-3.046 1.937C.875-10.156.78-8.234.78-6.625c0 1.172.031 2.969.672 4.531C2.328.046 3.922.328 4.734.328c.954 0 2.391-.39 3.235-2.36.625-1.421.703-3.093.703-4.593zM4.734 0C3.406 0 2.625-1.14 2.328-2.703c-.219-1.219-.219-3-.219-4.156 0-1.594 0-2.907.266-4.172.39-1.75 1.547-2.297 2.36-2.297.843 0 1.937.562 2.327 2.25.266 1.187.297 2.562.297 4.219 0 1.343 0 3-.25 4.218C6.672-.39 5.453 0 4.734 0zm0 0"/></symbol><symbol id="n" overflow="visible"><path d="M4.453-2.516H7.5c.156 0 .36 0 .36-.203 0-.219-.204-.219-.36-.219H4.453V-6c0-.156 0-.36-.203-.36-.219 0-.219.204-.219.36v3.063H.97c-.156 0-.36 0-.36.218 0 .203.204.203.36.203h3.06V.547c0 .156 0 .36.219.36.203 0 .203-.204.203-.36zm0 0"/></symbol><symbol id="p" overflow="visible"><path d="M3.938-6.125c.015-.203.015-.547-.36-.547-.219 0-.406.188-.36.375v.188l.188 2.218-1.828-1.328c-.125-.078-.156-.11-.266-.11-.187 0-.375.204-.375.407 0 .234.141.281.282.36l2.031.984-1.969.953c-.234.11-.343.172-.343.39s.187.391.375.391c.109 0 .14 0 .5-.265l1.593-1.157-.203 2.407c0 .296.25.375.375.375.172 0 .375-.11.375-.375L3.75-3.266l1.828 1.329c.125.078.156.093.266.093.187 0 .375-.187.375-.39 0-.22-.125-.297-.297-.375-.86-.438-.89-.438-2.016-.97l1.969-.952c.234-.11.344-.172.344-.39s-.188-.407-.375-.407c-.11 0-.14 0-.5.281L3.75-3.89zm0 0"/></symbol><symbol id="q" overflow="visible"><path d="M5.688-8.813c.015-.296.015-.796-.516-.796-.344 0-.61.265-.547.546v.266l.297 3.203-2.656-1.922c-.172-.109-.22-.14-.36-.14-.297 0-.562.281-.562.578 0 .328.203.406.406.516l2.938 1.39-2.844 1.39c-.328.173-.5.25-.5.563s.265.578.562.578c.14 0 .188 0 .703-.39l2.313-1.672-.313 3.469c0 .421.375.53.532.53.25 0 .562-.14.562-.53l-.312-3.47L8.03-2.78c.188.094.235.14.375.14.297 0 .563-.296.563-.578 0-.312-.188-.422-.438-.547-1.234-.609-1.281-.609-2.906-1.375l2.844-1.39c.328-.157.5-.25.5-.547a.584.584 0 00-.563-.578c-.14 0-.187 0-.703.39L5.391-5.594zm0 0"/></symbol><use x="8.29" xlink:href="#a" y="17.162"/><use x="16.35" xlink:href="#b" y="17.162"/><use x="21.553" xlink:href="#c" y="17.162"/><use x="26.908" xlink:href="#d" y="17.162"/><use x="103.313" xlink:href="#e" y="17.162"/><use x="110.316" xlink:href="#c" y="17.162"/><use x="115.671" xlink:href="#f" y="17.162"/><use x="122.011" xlink:href="#b" y="17.162"/><use x="127.214" xlink:href="#d" y="17.162"/><path d="M4.25 25.512h130.398" fill="none" stroke="#000" stroke-miterlimit="10" stroke-width=".399"/><path d="M8.504 56.113V42.25a2.99 2.99 0 012.988-2.992h13.863a2.992 2.992 0 012.993 2.992v13.863a2.99 2.99 0 01-2.993 2.989H11.492a2.986 2.986 0 01-2.988-2.989zm0 0" fill="#d4d4c8" stroke="#585858" stroke-miterlimit="10" stroke-width=".399"/><path d="M11.336 53.281V43.094c0-1.098.894-1.992 1.996-1.992H23.52c1.097 0 1.992.894 1.992 1.992V53.28a1.996 1.996 0 01-1.992 1.996H13.332a1.997 1.997 0 01-1.996-1.996zm0 0" fill="#ececd7"/><use x="16.474" xlink:href="#g" y="51.277"/><use x="115.019" xlink:href="#h" y="52.637"/><path d="M8.504 84.46V70.595a2.988 2.988 0 012.988-2.989H45.2a2.988 2.988 0 012.989 2.989V84.46a2.986 2.986 0 01-2.989 2.988H11.492a2.986 2.986 0 01-2.988-2.988zm0 0" fill="#d4d4c8" stroke="#585858" stroke-miterlimit="10" stroke-width=".399"/><path d="M11.336 81.629V71.44c0-1.101.894-1.992 1.996-1.992h30.031c1.098 0 1.992.89 1.992 1.992v10.19a1.993 1.993 0 01-1.992 1.992H13.332a1.994 1.994 0 01-1.996-1.992zm0 0" fill="#ececd7"/><use x="16.813" xlink:href="#i" y="80.687"/><use x="23.317" xlink:href="#j" y="80.687"/><use x="29.322" xlink:href="#k" y="80.687"/><use x="32.075" xlink:href="#l" y="80.687"/><use x="35.652" xlink:href="#m" y="80.687"/><path d="M60.945 84.46V70.595a2.988 2.988 0 012.989-2.989H77.8a2.99 2.99 0 012.988 2.989V84.46a2.988 2.988 0 01-2.988 2.988H63.934a2.986 2.986 0 01-2.989-2.988zm0 0" fill="#d4d4c8" stroke="#585858" stroke-miterlimit="10" stroke-width=".399"/><path d="M63.781 81.629V71.44a1.99 1.99 0 011.992-1.992h10.188a1.99 1.99 0 011.992 1.992v10.19a1.99 1.99 0 01-1.992 1.992H65.773a1.99 1.99 0 01-1.992-1.992zm0 0" fill="#ececd7"/><use x="68.915" xlink:href="#g" y="79.624"/><use x="50.324" xlink:href="#n" y="79.263"/><use x="115.019" xlink:href="#o" y="78.973"/><path d="M8.504 121.313v-13.868a2.988 2.988 0 012.988-2.988h13.863a2.992 2.992 0 012.993 2.988v13.868a2.992 2.992 0 01-2.993 2.988H11.492a2.988 2.988 0 01-2.988-2.989zm0 0" fill="#d4d4c8" stroke="#585858" stroke-miterlimit="10" stroke-width=".399"/><path d="M11.336 118.48v-10.187c0-1.102.894-1.992 1.996-1.992H23.52c1.097 0 1.992.89 1.992 1.992v10.187a1.993 1.993 0 01-1.992 1.993H13.332a1.994 1.994 0 01-1.996-1.993zm0 0" fill="#ececd7"/><use x="14.838" xlink:href="#p" y="116.723"/><use x="115.019" xlink:href="#q" y="118.193"/><path d="M8.504 149.66v-13.867a2.986 2.986 0 012.988-2.988H45.2a2.986 2.986 0 012.989 2.988v13.867a2.988 2.988 0 01-2.989 2.988H11.492a2.988 2.988 0 01-2.988-2.988zm0 0" fill="#d4d4c8"/><g clip-path="url(#r)"><path d="M8.504 149.66v-13.867a2.986 2.986 0 012.988-2.988H45.2a2.986 2.986 0 012.989 2.988v13.867a2.988 2.988 0 01-2.989 2.988H11.492a2.988 2.988 0 01-2.988-2.988zm0 0" fill="none" stroke="#585858" stroke-miterlimit="10" stroke-width=".399"/></g><path d="M11.336 146.828v-10.187c0-1.102.894-1.993 1.996-1.993h30.031c1.098 0 1.992.891 1.992 1.993v10.187a1.993 1.993 0 01-1.992 1.992H13.332a1.994 1.994 0 01-1.996-1.992zm0 0" fill="#ececd7"/><use x="16.813" xlink:href="#i" y="145.883"/><use x="23.317" xlink:href="#j" y="145.883"/><use x="29.322" xlink:href="#k" y="145.883"/><use x="32.075" xlink:href="#l" y="145.883"/><use x="35.652" xlink:href="#m" y="145.883"/><path d="M60.945 149.66v-13.867a2.986 2.986 0 012.989-2.988H77.8a2.988 2.988 0 012.988 2.988v13.867a2.99 2.99 0 01-2.988 2.988H63.934a2.988 2.988 0 01-2.989-2.988zm0 0" fill="#d4d4c8"/><g clip-path="url(#s)"><path d="M60.945 149.66v-13.867a2.986 2.986 0 012.989-2.988H77.8a2.988 2.988 0 012.988 2.988v13.867a2.99 2.99 0 01-2.988 2.988H63.934a2.988 2.988 0 01-2.989-2.988zm0 0" fill="none" stroke="#585858" stroke-miterlimit="10" stroke-width=".399"/></g><path d="M63.781 146.828v-10.187a1.99 1.99 0 011.992-1.993h10.188a1.99 1.99 0 011.992 1.993v10.187a1.99 1.99 0 01-1.992 1.992H65.773a1.99 1.99 0 01-1.992-1.992zm0 0" fill="#ececd7"/><use x="67.279" xlink:href="#p" y="145.07"/><use x="50.324" xlink:href="#n" y="144.46"/><use x="115.019" xlink:href="#t" y="148.392"/></svg>