<?xml version="1.0" encoding="UTF-8"?>
<svg xmlns="http://www.w3.org/2000/svg" xmlns:xlink="http://www.w3.org/1999/xlink" width="54.624" height="45.298" viewBox="0 0 54.624 45.298">
<defs>
<clipPath id="clip-0">
<path clip-rule="nonzero" d="M 0 0 L 54.625 0 L 54.625 45.296875 L 0 45.296875 Z M 0 0 "/>
</clipPath>
</defs>
<path fill-rule="nonzero" fill="rgb(100%, 100%, 100%)" fill-opacity="1" d="M 16.273438 2.664062 C 16.273438 2.140625 15.847656 1.710938 15.320312 1.710938 C 14.796875 1.710938 14.371094 2.140625 14.371094 2.664062 C 14.371094 3.191406 14.796875 3.617188 15.320312 3.617188 C 15.847656 3.617188 16.273438 3.191406 16.273438 2.664062 Z M 16.273438 2.664062 "/>
<path fill-rule="nonzero" fill="rgb(100%, 100%, 100%)" fill-opacity="1" d="M 24.425781 2.664062 C 24.425781 2.050781 23.929688 1.554688 23.316406 1.554688 C 22.703125 1.554688 22.203125 2.050781 22.203125 2.664062 C 22.203125 3.277344 22.703125 3.773438 23.316406 3.773438 C 23.929688 3.773438 24.425781 3.277344 24.425781 2.664062 Z M 24.425781 2.664062 "/>
<path fill-rule="nonzero" fill="rgb(100%, 100%, 100%)" fill-opacity="1" d="M 32.417969 2.664062 C 32.417969 2.050781 31.921875 1.554688 31.308594 1.554688 C 30.695312 1.554688 30.199219 2.050781 30.199219 2.664062 C 30.199219 3.277344 30.695312 3.773438 31.308594 3.773438 C 31.921875 3.773438 32.417969 3.277344 32.417969 2.664062 Z M 32.417969 2.664062 "/>
<path fill-rule="nonzero" fill="rgb(100%, 100%, 100%)" fill-opacity="1" d="M 40.253906 2.664062 C 40.253906 2.140625 39.828125 1.710938 39.304688 1.710938 C 38.777344 1.710938 38.351562 2.140625 38.351562 2.664062 C 38.351562 3.191406 38.777344 3.617188 39.304688 3.617188 C 39.828125 3.617188 40.253906 3.191406 40.253906 2.664062 Z M 40.253906 2.664062 "/>
<path fill-rule="nonzero" fill="rgb(100%, 100%, 100%)" fill-opacity="1" d="M 8.277344 10.660156 C 8.277344 10.132812 7.851562 9.707031 7.328125 9.707031 C 6.800781 9.707031 6.375 10.132812 6.375 10.660156 C 6.375 11.183594 6.800781 11.609375 7.328125 11.609375 C 7.851562 11.609375 8.277344 11.183594 8.277344 10.660156 Z M 8.277344 10.660156 "/>
<path fill-rule="nonzero" fill="rgb(100%, 100%, 100%)" fill-opacity="1" d="M 16.628906 10.660156 C 16.628906 9.9375 16.042969 9.351562 15.320312 9.351562 C 14.597656 9.351562 14.011719 9.9375 14.011719 10.660156 C 14.011719 11.378906 14.597656 11.964844 15.320312 11.964844 C 16.042969 11.964844 16.628906 11.378906 16.628906 10.660156 Z M 16.628906 10.660156 "/>
<path fill-rule="nonzero" fill="rgb(100%, 100%, 100%)" fill-opacity="1" d="M 24.886719 10.660156 C 24.886719 9.789062 24.183594 9.085938 23.316406 9.085938 C 22.445312 9.085938 21.742188 9.789062 21.742188 10.660156 C 21.742188 11.527344 22.445312 12.230469 23.316406 12.230469 C 24.183594 12.230469 24.886719 11.527344 24.886719 10.660156 Z M 24.886719 10.660156 "/>
<path fill-rule="nonzero" fill="rgb(100%, 100%, 100%)" fill-opacity="1" d="M 32.882812 10.660156 C 32.882812 9.789062 32.175781 9.085938 31.308594 9.085938 C 30.441406 9.085938 29.738281 9.789062 29.738281 10.660156 C 29.738281 11.527344 30.441406 12.230469 31.308594 12.230469 C 32.175781 12.230469 32.882812 11.527344 32.882812 10.660156 Z M 32.882812 10.660156 "/>
<path fill-rule="nonzero" fill="rgb(100%, 100%, 100%)" fill-opacity="1" d="M 40.609375 10.660156 C 40.609375 9.9375 40.023438 9.351562 39.304688 9.351562 C 38.582031 9.351562 37.996094 9.9375 37.996094 10.660156 C 37.996094 11.378906 38.582031 11.964844 39.304688 11.964844 C 40.023438 11.964844 40.609375 11.378906 40.609375 10.660156 Z M 40.609375 10.660156 "/>
<path fill-rule="nonzero" fill="rgb(100%, 100%, 100%)" fill-opacity="1" d="M 48.25 10.660156 C 48.25 10.132812 47.820312 9.707031 47.296875 9.707031 C 46.769531 9.707031 46.34375 10.132812 46.34375 10.660156 C 46.34375 11.183594 46.769531 11.609375 47.296875 11.609375 C 47.820312 11.609375 48.25 11.183594 48.25 10.660156 Z M 48.25 10.660156 "/>
<path fill-rule="nonzero" fill="rgb(100%, 100%, 100%)" fill-opacity="1" d="M 8.4375 18.652344 C 8.4375 18.039062 7.941406 17.542969 7.328125 17.542969 C 6.714844 17.542969 6.214844 18.039062 6.214844 18.652344 C 6.214844 19.265625 6.714844 19.761719 7.328125 19.761719 C 7.941406 19.761719 8.4375 19.265625 8.4375 18.652344 Z M 8.4375 18.652344 "/>
<path fill-rule="nonzero" fill="rgb(100%, 100%, 100%)" fill-opacity="1" d="M 16.894531 18.652344 C 16.894531 17.785156 16.191406 17.078125 15.320312 17.078125 C 14.453125 17.078125 13.75 17.785156 13.75 18.652344 C 13.75 19.519531 14.453125 20.222656 15.320312 20.222656 C 16.191406 20.222656 16.894531 19.519531 16.894531 18.652344 Z M 16.894531 18.652344 "/>
<path fill-rule="nonzero" fill="rgb(100%, 100%, 100%)" fill-opacity="1" d="M 25.246094 18.652344 C 25.246094 17.585938 24.382812 16.71875 23.316406 16.71875 C 22.25 16.71875 21.382812 17.585938 21.382812 18.652344 C 21.382812 19.71875 22.25 20.582031 23.316406 20.582031 C 24.382812 20.582031 25.246094 19.71875 25.246094 18.652344 Z M 25.246094 18.652344 "/>
<path fill-rule="nonzero" fill="rgb(100%, 100%, 100%)" fill-opacity="1" d="M 33.242188 18.652344 C 33.242188 17.585938 32.375 16.71875 31.308594 16.71875 C 30.242188 16.71875 29.378906 17.585938 29.378906 18.652344 C 29.378906 19.71875 30.242188 20.582031 31.308594 20.582031 C 32.375 20.582031 33.242188 19.71875 33.242188 18.652344 Z M 33.242188 18.652344 "/>
<path fill-rule="nonzero" fill="rgb(100%, 100%, 100%)" fill-opacity="1" d="M 40.875 18.652344 C 40.875 17.785156 40.171875 17.078125 39.304688 17.078125 C 38.433594 17.078125 37.730469 17.785156 37.730469 18.652344 C 37.730469 19.519531 38.433594 20.222656 39.304688 20.222656 C 40.171875 20.222656 40.875 19.519531 40.875 18.652344 Z M 40.875 18.652344 "/>
<path fill-rule="nonzero" fill="rgb(100%, 100%, 100%)" fill-opacity="1" d="M 48.40625 18.652344 C 48.40625 18.039062 47.910156 17.542969 47.296875 17.542969 C 46.683594 17.542969 46.1875 18.039062 46.1875 18.652344 C 46.1875 19.265625 46.683594 19.761719 47.296875 19.761719 C 47.910156 19.761719 48.40625 19.265625 48.40625 18.652344 Z M 48.40625 18.652344 "/>
<path fill-rule="nonzero" fill="rgb(100%, 100%, 100%)" fill-opacity="1" d="M 8.4375 26.644531 C 8.4375 26.03125 7.941406 25.535156 7.328125 25.535156 C 6.714844 25.535156 6.214844 26.03125 6.214844 26.644531 C 6.214844 27.257812 6.714844 27.757812 7.328125 27.757812 C 7.941406 27.757812 8.4375 27.257812 8.4375 26.644531 Z M 8.4375 26.644531 "/>
<path fill-rule="nonzero" fill="rgb(100%, 100%, 100%)" fill-opacity="1" d="M 16.894531 26.644531 C 16.894531 25.777344 16.191406 25.074219 15.320312 25.074219 C 14.453125 25.074219 13.75 25.777344 13.75 26.644531 C 13.75 27.515625 14.453125 28.21875 15.320312 28.21875 C 16.191406 28.21875 16.894531 27.515625 16.894531 26.644531 Z M 16.894531 26.644531 "/>
<path fill-rule="nonzero" fill="rgb(100%, 100%, 100%)" fill-opacity="1" d="M 25.246094 26.644531 C 25.246094 25.578125 24.382812 24.714844 23.316406 24.714844 C 22.25 24.714844 21.382812 25.578125 21.382812 26.644531 C 21.382812 27.710938 22.25 28.578125 23.316406 28.578125 C 24.382812 28.578125 25.246094 27.710938 25.246094 26.644531 Z M 25.246094 26.644531 "/>
<path fill-rule="nonzero" fill="rgb(100%, 100%, 100%)" fill-opacity="1" d="M 33.242188 26.644531 C 33.242188 25.578125 32.375 24.714844 31.308594 24.714844 C 30.242188 24.714844 29.378906 25.578125 29.378906 26.644531 C 29.378906 27.710938 30.242188 28.578125 31.308594 28.578125 C 32.375 28.578125 33.242188 27.710938 33.242188 26.644531 Z M 33.242188 26.644531 "/>
<path fill-rule="nonzero" fill="rgb(100%, 100%, 100%)" fill-opacity="1" d="M 40.875 26.644531 C 40.875 25.777344 40.171875 25.074219 39.304688 25.074219 C 38.433594 25.074219 37.730469 25.777344 37.730469 26.644531 C 37.730469 27.515625 38.433594 28.21875 39.304688 28.21875 C 40.171875 28.21875 40.875 27.515625 40.875 26.644531 Z M 40.875 26.644531 "/>
<path fill-rule="nonzero" fill="rgb(100%, 100%, 100%)" fill-opacity="1" d="M 48.40625 26.644531 C 48.40625 26.03125 47.910156 25.535156 47.296875 25.535156 C 46.683594 25.535156 46.1875 26.03125 46.1875 26.644531 C 46.1875 27.257812 46.683594 27.757812 47.296875 27.757812 C 47.910156 27.757812 48.40625 27.257812 48.40625 26.644531 Z M 48.40625 26.644531 "/>
<path fill-rule="nonzero" fill="rgb(100%, 100%, 100%)" fill-opacity="1" d="M 8.277344 34.640625 C 8.277344 34.113281 7.851562 33.6875 7.328125 33.6875 C 6.800781 33.6875 6.375 34.113281 6.375 34.640625 C 6.375 35.164062 6.800781 35.589844 7.328125 35.589844 C 7.851562 35.589844 8.277344 35.164062 8.277344 34.640625 Z M 8.277344 34.640625 "/>
<path fill-rule="nonzero" fill="rgb(100%, 100%, 100%)" fill-opacity="1" d="M 16.628906 34.640625 C 16.628906 33.917969 16.042969 33.332031 15.320312 33.332031 C 14.597656 33.332031 14.011719 33.917969 14.011719 34.640625 C 14.011719 35.363281 14.597656 35.949219 15.320312 35.949219 C 16.042969 35.949219 16.628906 35.363281 16.628906 34.640625 Z M 16.628906 34.640625 "/>
<path fill-rule="nonzero" fill="rgb(100%, 100%, 100%)" fill-opacity="1" d="M 24.886719 34.640625 C 24.886719 33.769531 24.183594 33.066406 23.316406 33.066406 C 22.445312 33.066406 21.742188 33.769531 21.742188 34.640625 C 21.742188 35.507812 22.445312 36.210938 23.316406 36.210938 C 24.183594 36.210938 24.886719 35.507812 24.886719 34.640625 Z M 24.886719 34.640625 "/>
<path fill-rule="nonzero" fill="rgb(100%, 100%, 100%)" fill-opacity="1" d="M 32.882812 34.640625 C 32.882812 33.769531 32.175781 33.066406 31.308594 33.066406 C 30.441406 33.066406 29.738281 33.769531 29.738281 34.640625 C 29.738281 35.507812 30.441406 36.210938 31.308594 36.210938 C 32.175781 36.210938 32.882812 35.507812 32.882812 34.640625 Z M 32.882812 34.640625 "/>
<path fill-rule="nonzero" fill="rgb(100%, 100%, 100%)" fill-opacity="1" d="M 40.609375 34.640625 C 40.609375 33.917969 40.023438 33.332031 39.304688 33.332031 C 38.582031 33.332031 37.996094 33.917969 37.996094 34.640625 C 37.996094 35.363281 38.582031 35.949219 39.304688 35.949219 C 40.023438 35.949219 40.609375 35.363281 40.609375 34.640625 Z M 40.609375 34.640625 "/>
<path fill-rule="nonzero" fill="rgb(100%, 100%, 100%)" fill-opacity="1" d="M 48.25 34.640625 C 48.25 34.113281 47.820312 33.6875 47.296875 33.6875 C 46.769531 33.6875 46.34375 34.113281 46.34375 34.640625 C 46.34375 35.164062 46.769531 35.589844 47.296875 35.589844 C 47.820312 35.589844 48.25 35.164062 48.25 34.640625 Z M 48.25 34.640625 "/>
<path fill-rule="nonzero" fill="rgb(100%, 100%, 100%)" fill-opacity="1" d="M 16.273438 42.632812 C 16.273438 42.109375 15.847656 41.683594 15.320312 41.683594 C 14.796875 41.683594 14.371094 42.109375 14.371094 42.632812 C 14.371094 43.160156 14.796875 43.585938 15.320312 43.585938 C 15.847656 43.585938 16.273438 43.160156 16.273438 42.632812 Z M 16.273438 42.632812 "/>
<path fill-rule="nonzero" fill="rgb(100%, 100%, 100%)" fill-opacity="1" d="M 24.425781 42.632812 C 24.425781 42.019531 23.929688 41.523438 23.316406 41.523438 C 22.703125 41.523438 22.203125 42.019531 22.203125 42.632812 C 22.203125 43.246094 22.703125 43.746094 23.316406 43.746094 C 23.929688 43.746094 24.425781 43.246094 24.425781 42.632812 Z M 24.425781 42.632812 "/>
<path fill-rule="nonzero" fill="rgb(100%, 100%, 100%)" fill-opacity="1" d="M 32.417969 42.632812 C 32.417969 42.019531 31.921875 41.523438 31.308594 41.523438 C 30.695312 41.523438 30.199219 42.019531 30.199219 42.632812 C 30.199219 43.246094 30.695312 43.746094 31.308594 43.746094 C 31.921875 43.746094 32.417969 43.246094 32.417969 42.632812 Z M 32.417969 42.632812 "/>
<path fill-rule="nonzero" fill="rgb(100%, 100%, 100%)" fill-opacity="1" d="M 40.253906 42.632812 C 40.253906 42.109375 39.828125 41.683594 39.304688 41.683594 C 38.777344 41.683594 38.351562 42.109375 38.351562 42.632812 C 38.351562 43.160156 38.777344 43.585938 39.304688 43.585938 C 39.828125 43.585938 40.253906 43.160156 40.253906 42.632812 Z M 40.253906 42.632812 "/>
<g clip-path="url(#clip-0)">
<path fill="none" stroke-width="2.77797" stroke-linecap="butt" stroke-linejoin="miter" stroke="rgb(100%, 100%, 100%)" stroke-opacity="1" stroke-miterlimit="10" d="M 9.324719 0.0005625 C 9.324719 5.149 5.148937 9.324781 0.0005 9.324781 C -5.151844 9.324781 -9.327625 5.149 -9.327625 0.0005625 C -9.327625 -5.151781 -5.151844 -9.327562 0.0005 -9.327562 C 5.148937 -9.327562 9.324719 -5.151781 9.324719 0.0005625 Z M 9.324719 0.0005625 " transform="matrix(1, 0, 0, -1, 27.312, 22.649)"/>
<path fill="none" stroke-width="1.8425" stroke-linecap="butt" stroke-linejoin="miter" stroke="rgb(100%, 100%, 100%)" stroke-opacity="1" stroke-miterlimit="10" d="M 16.652844 0.0005625 C 16.652844 9.195875 9.195812 16.652906 0.0005 16.652906 C -9.198719 16.652906 -16.65575 9.195875 -16.65575 0.0005625 C -16.65575 -9.198656 -9.198719 -16.655687 0.0005 -16.655687 C 9.195812 -16.655687 16.652844 -9.198656 16.652844 0.0005625 Z M 16.652844 0.0005625 " transform="matrix(1, 0, 0, -1, 27.312, 22.649)"/>
</g>
</svg>
