<?xml version="1.0" encoding="UTF-8"?>
<svg xmlns="http://www.w3.org/2000/svg" xmlns:xlink="http://www.w3.org/1999/xlink" width="54.624" height="45.298" viewBox="0 0 54.624 45.298">
<defs>
<clipPath id="clip-0">
<path clip-rule="nonzero" d="M 0 0 L 54.625 0 L 54.625 45.296875 L 0 45.296875 Z M 0 0 "/>
</clipPath>
<clipPath id="clip-1">
<path clip-rule="nonzero" d="M 5 18 L 54.625 18 L 54.625 45.296875 L 5 45.296875 Z M 5 18 "/>
</clipPath>
</defs>
<path fill-rule="nonzero" fill="rgb(100%, 100%, 100%)" fill-opacity="1" d="M 8.171875 2.664062 C 8.171875 3.132812 7.796875 3.511719 7.328125 3.511719 C 6.863281 3.511719 6.484375 3.132812 6.484375 2.664062 C 6.484375 2.199219 6.863281 1.820312 7.328125 1.820312 C 7.796875 1.820312 8.171875 2.199219 8.171875 2.664062 Z M 8.171875 2.664062 "/>
<path fill-rule="nonzero" fill="rgb(100%, 100%, 100%)" fill-opacity="1" d="M 16.058594 2.664062 C 16.058594 3.070312 15.726562 3.402344 15.320312 3.402344 C 14.917969 3.402344 14.585938 3.070312 14.585938 2.664062 C 14.585938 2.261719 14.917969 1.929688 15.320312 1.929688 C 15.726562 1.929688 16.058594 2.261719 16.058594 2.664062 Z M 16.058594 2.664062 "/>
<path fill-rule="nonzero" fill="rgb(100%, 100%, 100%)" fill-opacity="1" d="M 24.226562 2.664062 C 24.226562 3.167969 23.820312 3.578125 23.316406 3.578125 C 22.8125 3.578125 22.40625 3.167969 22.40625 2.664062 C 22.40625 2.164062 22.8125 1.753906 23.316406 1.753906 C 23.820312 1.753906 24.226562 2.164062 24.226562 2.664062 Z M 24.226562 2.664062 "/>
<path fill-rule="nonzero" fill="rgb(100%, 100%, 100%)" fill-opacity="1" d="M 32.425781 2.664062 C 32.425781 3.285156 31.925781 3.785156 31.308594 3.785156 C 30.691406 3.785156 30.191406 3.285156 30.191406 2.664062 C 30.191406 2.046875 30.691406 1.546875 31.308594 1.546875 C 31.925781 1.546875 32.425781 2.046875 32.425781 2.664062 Z M 32.425781 2.664062 "/>
<path fill-rule="nonzero" fill="rgb(100%, 100%, 100%)" fill-opacity="1" d="M 40.386719 2.664062 C 40.386719 3.265625 39.902344 3.75 39.300781 3.75 C 38.703125 3.75 38.21875 3.265625 38.21875 2.664062 C 38.21875 2.066406 38.703125 1.582031 39.300781 1.582031 C 39.902344 1.582031 40.386719 2.066406 40.386719 2.664062 Z M 40.386719 2.664062 "/>
<path fill-rule="nonzero" fill="rgb(100%, 100%, 100%)" fill-opacity="1" d="M 47.988281 2.664062 C 47.988281 3.046875 47.675781 3.359375 47.296875 3.359375 C 46.914062 3.359375 46.601562 3.046875 46.601562 2.664062 C 46.601562 2.285156 46.914062 1.972656 47.296875 1.972656 C 47.675781 1.972656 47.988281 2.285156 47.988281 2.664062 Z M 47.988281 2.664062 "/>
<path fill-rule="nonzero" fill="rgb(100%, 100%, 100%)" fill-opacity="1" d="M 8.085938 10.660156 C 8.085938 11.078125 7.746094 11.417969 7.328125 11.417969 C 6.910156 11.417969 6.570312 11.078125 6.570312 10.660156 C 6.570312 10.242188 6.910156 9.902344 7.328125 9.902344 C 7.746094 9.902344 8.085938 10.242188 8.085938 10.660156 Z M 8.085938 10.660156 "/>
<path fill-rule="nonzero" fill="rgb(100%, 100%, 100%)" fill-opacity="1" d="M 16.386719 10.660156 C 16.386719 11.246094 15.910156 11.722656 15.320312 11.722656 C 14.734375 11.722656 14.257812 11.246094 14.257812 10.660156 C 14.257812 10.070312 14.734375 9.597656 15.320312 9.597656 C 15.910156 9.597656 16.386719 10.070312 16.386719 10.660156 Z M 16.386719 10.660156 "/>
<path fill-rule="nonzero" fill="rgb(100%, 100%, 100%)" fill-opacity="1" d="M 24.332031 10.660156 C 24.332031 11.222656 23.878906 11.675781 23.316406 11.675781 C 22.753906 11.675781 22.296875 11.222656 22.296875 10.660156 C 22.296875 10.097656 22.753906 9.640625 23.316406 9.640625 C 23.878906 9.640625 24.332031 10.097656 24.332031 10.660156 Z M 24.332031 10.660156 "/>
<path fill-rule="nonzero" fill="rgb(100%, 100%, 100%)" fill-opacity="1" d="M 32.097656 10.660156 C 32.097656 11.09375 31.746094 11.449219 31.308594 11.449219 C 30.871094 11.449219 30.519531 11.09375 30.519531 10.660156 C 30.519531 10.222656 30.871094 9.871094 31.308594 9.871094 C 31.746094 9.871094 32.097656 10.222656 32.097656 10.660156 Z M 32.097656 10.660156 "/>
<path fill-rule="nonzero" fill="rgb(100%, 100%, 100%)" fill-opacity="1" d="M 39.96875 10.660156 C 39.96875 11.027344 39.667969 11.324219 39.300781 11.324219 C 38.933594 11.324219 38.636719 11.027344 38.636719 10.660156 C 38.636719 10.292969 38.933594 9.992188 39.300781 9.992188 C 39.667969 9.992188 39.96875 10.292969 39.96875 10.660156 Z M 39.96875 10.660156 "/>
<path fill-rule="nonzero" fill="rgb(100%, 100%, 100%)" fill-opacity="1" d="M 48.164062 10.660156 C 48.164062 11.136719 47.773438 11.527344 47.296875 11.527344 C 46.816406 11.527344 46.429688 11.136719 46.429688 10.660156 C 46.429688 10.179688 46.816406 9.792969 47.296875 9.792969 C 47.773438 9.792969 48.164062 10.179688 48.164062 10.660156 Z M 48.164062 10.660156 "/>
<path fill-rule="nonzero" fill="rgb(100%, 100%, 100%)" fill-opacity="1" d="M 8.300781 18.652344 C 8.300781 19.191406 7.867188 19.625 7.328125 19.625 C 6.789062 19.625 6.355469 19.191406 6.355469 18.652344 C 6.355469 18.113281 6.789062 17.679688 7.328125 17.679688 C 7.867188 17.679688 8.300781 18.113281 8.300781 18.652344 Z M 8.300781 18.652344 "/>
<path fill-rule="nonzero" fill="rgb(100%, 100%, 100%)" fill-opacity="1" d="M 16.777344 18.652344 C 16.777344 19.457031 16.125 20.109375 15.320312 20.109375 C 14.519531 20.109375 13.867188 19.457031 13.867188 18.652344 C 13.867188 17.847656 14.519531 17.195312 15.320312 17.195312 C 16.125 17.195312 16.777344 17.847656 16.777344 18.652344 Z M 16.777344 18.652344 "/>
<path fill-rule="nonzero" fill="rgb(100%, 100%, 100%)" fill-opacity="1" d="M 24.910156 18.652344 C 24.910156 19.535156 24.195312 20.246094 23.316406 20.246094 C 22.433594 20.246094 21.71875 19.535156 21.71875 18.652344 C 21.71875 17.769531 22.433594 17.058594 23.316406 17.058594 C 24.195312 17.058594 24.910156 17.769531 24.910156 18.652344 Z M 24.910156 18.652344 "/>
<path fill-rule="nonzero" fill="rgb(100%, 100%, 100%)" fill-opacity="1" d="M 32.734375 18.652344 C 32.734375 19.441406 32.097656 20.078125 31.308594 20.078125 C 30.519531 20.078125 29.882812 19.441406 29.882812 18.652344 C 29.882812 17.863281 30.519531 17.226562 31.308594 17.226562 C 32.097656 17.226562 32.734375 17.863281 32.734375 18.652344 Z M 32.734375 18.652344 "/>
<path fill-rule="nonzero" fill="rgb(100%, 100%, 100%)" fill-opacity="1" d="M 40.519531 18.652344 C 40.519531 19.324219 39.972656 19.867188 39.300781 19.867188 C 38.628906 19.867188 38.085938 19.324219 38.085938 18.652344 C 38.085938 17.980469 38.628906 17.4375 39.300781 17.4375 C 39.972656 17.4375 40.519531 17.980469 40.519531 18.652344 Z M 40.519531 18.652344 "/>
<path fill-rule="nonzero" fill="rgb(100%, 100%, 100%)" fill-opacity="1" d="M 48.519531 18.652344 C 48.519531 19.328125 47.972656 19.878906 47.296875 19.878906 C 46.617188 19.878906 46.070312 19.328125 46.070312 18.652344 C 46.070312 17.976562 46.617188 17.425781 47.296875 17.425781 C 47.972656 17.425781 48.519531 17.976562 48.519531 18.652344 Z M 48.519531 18.652344 "/>
<path fill-rule="nonzero" fill="rgb(100%, 100%, 100%)" fill-opacity="1" d="M 8.46875 26.644531 C 8.46875 27.273438 7.957031 27.785156 7.328125 27.785156 C 6.699219 27.785156 6.191406 27.273438 6.191406 26.644531 C 6.191406 26.015625 6.699219 25.507812 7.328125 25.507812 C 7.957031 25.507812 8.46875 26.015625 8.46875 26.644531 Z M 8.46875 26.644531 "/>
<path fill-rule="nonzero" fill="rgb(100%, 100%, 100%)" fill-opacity="1" d="M 17.066406 26.644531 C 17.066406 27.609375 16.285156 28.390625 15.320312 28.390625 C 14.359375 28.390625 13.578125 27.609375 13.578125 26.644531 C 13.578125 25.683594 14.359375 24.902344 15.320312 24.902344 C 16.285156 24.902344 17.066406 25.683594 17.066406 26.644531 Z M 17.066406 26.644531 "/>
<path fill-rule="nonzero" fill="rgb(100%, 100%, 100%)" fill-opacity="1" d="M 25.390625 26.644531 C 25.390625 27.792969 24.460938 28.71875 23.316406 28.71875 C 22.167969 28.71875 21.242188 27.792969 21.242188 26.644531 C 21.242188 25.5 22.167969 24.570312 23.316406 24.570312 C 24.460938 24.570312 25.390625 25.5 25.390625 26.644531 Z M 25.390625 26.644531 "/>
<path fill-rule="nonzero" fill="rgb(100%, 100%, 100%)" fill-opacity="1" d="M 33.363281 26.644531 C 33.363281 27.78125 32.445312 28.699219 31.308594 28.699219 C 30.171875 28.699219 29.253906 27.78125 29.253906 26.644531 C 29.253906 25.511719 30.171875 24.589844 31.308594 24.589844 C 32.445312 24.589844 33.363281 25.511719 33.363281 26.644531 Z M 33.363281 26.644531 "/>
<path fill-rule="nonzero" fill="rgb(100%, 100%, 100%)" fill-opacity="1" d="M 41.128906 26.644531 C 41.128906 27.652344 40.308594 28.472656 39.300781 28.472656 C 38.292969 28.472656 37.476562 27.652344 37.476562 26.644531 C 37.476562 25.636719 38.292969 24.820312 39.300781 24.820312 C 40.308594 24.820312 41.128906 25.636719 41.128906 26.644531 Z M 41.128906 26.644531 "/>
<path fill-rule="nonzero" fill="rgb(100%, 100%, 100%)" fill-opacity="1" d="M 48.980469 26.644531 C 48.980469 27.578125 48.226562 28.332031 47.296875 28.332031 C 46.363281 28.332031 45.609375 27.578125 45.609375 26.644531 C 45.609375 25.714844 46.363281 24.960938 47.296875 24.960938 C 48.226562 24.960938 48.980469 25.714844 48.980469 26.644531 Z M 48.980469 26.644531 "/>
<path fill-rule="nonzero" fill="rgb(100%, 100%, 100%)" fill-opacity="1" d="M 8.625 34.640625 C 8.625 35.355469 8.042969 35.933594 7.328125 35.933594 C 6.613281 35.933594 6.03125 35.355469 6.03125 34.640625 C 6.03125 33.921875 6.613281 33.34375 7.328125 33.34375 C 8.042969 33.34375 8.625 33.921875 8.625 34.640625 Z M 8.625 34.640625 "/>
<path fill-rule="nonzero" fill="rgb(100%, 100%, 100%)" fill-opacity="1" d="M 17.277344 34.640625 C 17.277344 35.71875 16.402344 36.59375 15.320312 36.59375 C 14.242188 36.59375 13.367188 35.71875 13.367188 34.640625 C 13.367188 33.558594 14.242188 32.683594 15.320312 32.683594 C 16.402344 32.683594 17.277344 33.558594 17.277344 34.640625 Z M 17.277344 34.640625 "/>
<path fill-rule="nonzero" fill="rgb(100%, 100%, 100%)" fill-opacity="1" d="M 25.171875 34.640625 C 25.171875 35.664062 24.339844 36.492188 23.316406 36.492188 C 22.289062 36.492188 21.460938 35.664062 21.460938 34.640625 C 21.460938 33.613281 22.289062 32.785156 23.316406 32.785156 C 24.339844 32.785156 25.171875 33.613281 25.171875 34.640625 Z M 25.171875 34.640625 "/>
<path fill-rule="nonzero" fill="rgb(100%, 100%, 100%)" fill-opacity="1" d="M 33.003906 34.640625 C 33.003906 35.574219 32.246094 36.335938 31.308594 36.335938 C 30.371094 36.335938 29.613281 35.574219 29.613281 34.640625 C 29.613281 33.703125 30.371094 32.945312 31.308594 32.945312 C 32.246094 32.945312 33.003906 33.703125 33.003906 34.640625 Z M 33.003906 34.640625 "/>
<path fill-rule="nonzero" fill="rgb(100%, 100%, 100%)" fill-opacity="1" d="M 41.136719 34.640625 C 41.136719 35.652344 40.316406 36.472656 39.300781 36.472656 C 38.289062 36.472656 37.46875 35.652344 37.46875 34.640625 C 37.46875 33.625 38.289062 32.804688 39.300781 32.804688 C 40.316406 32.804688 41.136719 33.625 41.136719 34.640625 Z M 41.136719 34.640625 "/>
<path fill-rule="nonzero" fill="rgb(100%, 100%, 100%)" fill-opacity="1" d="M 49.359375 34.640625 C 49.359375 35.78125 48.4375 36.703125 47.296875 36.703125 C 46.15625 36.703125 45.230469 35.78125 45.230469 34.640625 C 45.230469 33.5 46.15625 32.574219 47.296875 32.574219 C 48.4375 32.574219 49.359375 33.5 49.359375 34.640625 Z M 49.359375 34.640625 "/>
<path fill-rule="nonzero" fill="rgb(100%, 100%, 100%)" fill-opacity="1" d="M 8.824219 42.632812 C 8.824219 43.457031 8.15625 44.128906 7.328125 44.128906 C 6.503906 44.128906 5.832031 43.457031 5.832031 42.632812 C 5.832031 41.804688 6.503906 41.136719 7.328125 41.136719 C 8.15625 41.136719 8.824219 41.804688 8.824219 42.632812 Z M 8.824219 42.632812 "/>
<path fill-rule="nonzero" fill="rgb(100%, 100%, 100%)" fill-opacity="1" d="M 17.4375 42.632812 C 17.4375 43.800781 16.488281 44.746094 15.320312 44.746094 C 14.152344 44.746094 13.207031 43.800781 13.207031 42.632812 C 13.207031 41.464844 14.152344 40.515625 15.320312 40.515625 C 16.488281 40.515625 17.4375 41.464844 17.4375 42.632812 Z M 17.4375 42.632812 "/>
<path fill-rule="nonzero" fill="rgb(100%, 100%, 100%)" fill-opacity="1" d="M 24.890625 42.632812 C 24.890625 43.503906 24.183594 44.207031 23.316406 44.207031 C 22.445312 44.207031 21.738281 43.503906 21.738281 42.632812 C 21.738281 41.761719 22.445312 41.058594 23.316406 41.058594 C 24.183594 41.058594 24.890625 41.761719 24.890625 42.632812 Z M 24.890625 42.632812 "/>
<path fill-rule="nonzero" fill="rgb(100%, 100%, 100%)" fill-opacity="1" d="M 32.523438 42.632812 C 32.523438 43.304688 31.980469 43.847656 31.308594 43.847656 C 30.636719 43.847656 30.09375 43.304688 30.09375 42.632812 C 30.09375 41.960938 30.636719 41.417969 31.308594 41.417969 C 31.980469 41.417969 32.523438 41.960938 32.523438 42.632812 Z M 32.523438 42.632812 "/>
<path fill-rule="nonzero" fill="rgb(100%, 100%, 100%)" fill-opacity="1" d="M 40.527344 42.632812 C 40.527344 43.308594 39.980469 43.859375 39.300781 43.859375 C 38.625 43.859375 38.078125 43.308594 38.078125 42.632812 C 38.078125 41.957031 38.625 41.40625 39.300781 41.40625 C 39.980469 41.40625 40.527344 41.957031 40.527344 42.632812 Z M 40.527344 42.632812 "/>
<path fill-rule="nonzero" fill="rgb(100%, 100%, 100%)" fill-opacity="1" d="M 48.742188 42.632812 C 48.742188 43.429688 48.09375 44.078125 47.296875 44.078125 C 46.496094 44.078125 45.851562 43.429688 45.851562 42.632812 C 45.851562 41.832031 46.496094 41.1875 47.296875 41.1875 C 48.09375 41.1875 48.742188 41.832031 48.742188 42.632812 Z M 48.742188 42.632812 "/>
<g clip-path="url(#clip-0)">
<path fill="none" stroke-width="1.7008" stroke-linecap="round" stroke-linejoin="miter" stroke="rgb(100%, 100%, 100%)" stroke-opacity="1" stroke-miterlimit="10" d="M -19.983875 -5.327562 C -19.745594 -4.2885 -19.487781 -3.253344 -19.21825 -2.222094 C -18.823719 -0.726 -18.394031 0.762281 -17.886219 2.223219 C -17.351063 3.750563 -16.726063 5.254469 -15.921375 6.660719 C -15.804188 6.863844 -15.683094 7.066969 -15.554188 7.262281 C -14.515125 8.816969 -12.897938 9.875563 -11.089344 10.359938 C -9.647938 10.74275 -8.140125 10.754469 -6.659656 10.559156 C -5.147938 10.359938 -3.675281 9.949781 -2.222156 9.49275 C -0.726063 9.020094 0.7505 8.496656 2.223156 7.9615 C 3.383312 7.535719 4.539562 7.102125 5.695812 6.660719 C 6.016125 6.539625 6.336437 6.414625 6.660656 6.293531 C 8.109875 5.758375 9.590344 5.309156 11.090344 4.93025 C 12.555187 4.559156 14.043469 4.250563 15.555187 4.262281 C 17.086437 4.274 18.59425 4.61775 19.984875 5.262281 " transform="matrix(1, 0, 0, -1, 27.312, 22.649)"/>
<path fill="none" stroke-width="1.7008" stroke-linecap="round" stroke-linejoin="miter" stroke="rgb(100%, 100%, 100%)" stroke-opacity="1" stroke-miterlimit="10" d="M -17.71825 -19.983812 C -17.222156 -18.526781 -16.788563 -17.046312 -16.421375 -15.554125 C -16.1245 -14.354906 -15.866688 -13.147875 -15.554188 -11.956469 C -15.476063 -11.667406 -15.397938 -11.378344 -15.319813 -11.089281 C -14.921375 -9.612719 -14.558094 -8.120531 -14.089344 -6.659594 C -13.597156 -5.140062 -12.995594 -3.655687 -12.288563 -2.222094 C -11.948719 -1.530687 -11.585438 -0.843187 -11.089344 -0.253344 C -10.167469 0.859938 -8.878406 1.563063 -7.59325 2.223219 C -7.288563 2.379469 -6.979969 2.531813 -6.659656 2.652906 C -5.245594 3.188063 -3.698719 3.047438 -2.222156 2.715406 C -1.565906 2.566969 -0.917469 2.383375 -0.265125 2.223219 C 0.563 2.016188 1.398937 1.848219 2.223156 1.629469 C 3.738781 1.223219 5.203625 0.641188 6.660656 0.0591563 C 8.1255 -0.526781 9.590344 -1.112719 11.090344 -1.593187 C 11.777844 -1.811937 12.46925 -2.00725 13.15675 -2.222094 C 13.953625 -2.472094 14.746594 -2.749437 15.555187 -2.968187 C 16.996594 -3.358812 18.488781 -3.558031 19.984875 -3.561937 " transform="matrix(1, 0, 0, -1, 27.312, 22.649)"/>
</g>
<g clip-path="url(#clip-1)">
<path fill="none" stroke-width="1.13385" stroke-linecap="round" stroke-linejoin="miter" stroke="rgb(100%, 100%, 100%)" stroke-opacity="1" stroke-miterlimit="10" d="M 19.984875 -17.085375 C 19.305187 -16.847094 18.6255 -16.604906 17.949719 -16.354906 C 17.418469 -16.155687 16.887219 -15.952562 16.352062 -15.753344 C 15.145031 -15.304125 13.930187 -14.870531 12.723156 -14.421312 C 11.527844 -13.976 10.332531 -13.518969 9.09425 -13.222094 C 8.277844 -13.026781 7.445812 -12.905687 6.629406 -12.722094 C 6.238781 -12.636156 5.852062 -12.534594 5.461437 -12.456469 C 4.2505 -12.206469 2.992687 -12.147875 1.816906 -12.522875 C 1.6255 -12.581469 1.441906 -12.651781 1.258312 -12.722094 C 0.176281 -13.13225 -0.929188 -13.5385 -1.815906 -14.2885 C -2.491688 -14.862719 -2.995594 -15.601 -3.464344 -16.354906 C -4.187 -17.518969 -4.831531 -18.733812 -5.394031 -19.983812 " transform="matrix(1, 0, 0, -1, 27.312, 22.649)"/>
</g>
</svg>
