<?xml version="1.0" encoding="UTF-8"?>
<svg xmlns="http://www.w3.org/2000/svg" xmlns:xlink="http://www.w3.org/1999/xlink" width="54.624" height="45.298" viewBox="0 0 54.624 45.298">
<path fill-rule="nonzero" fill="rgb(100%, 100%, 100%)" fill-opacity="1" d="M 9.824219 2.664062 C 9.824219 1.285156 8.707031 0.167969 7.328125 0.167969 C 5.949219 0.167969 4.828125 1.285156 4.828125 2.664062 C 4.828125 4.042969 5.949219 5.164062 7.328125 5.164062 C 8.707031 5.164062 9.824219 4.042969 9.824219 2.664062 Z M 9.824219 2.664062 "/>
<path fill-rule="nonzero" fill="rgb(100%, 100%, 100%)" fill-opacity="1" d="M 17.820312 2.664062 C 17.820312 1.285156 16.699219 0.167969 15.320312 0.167969 C 13.941406 0.167969 12.824219 1.285156 12.824219 2.664062 C 12.824219 4.042969 13.941406 5.164062 15.320312 5.164062 C 16.699219 5.164062 17.820312 4.042969 17.820312 2.664062 Z M 17.820312 2.664062 "/>
<path fill-rule="nonzero" fill="rgb(100%, 100%, 100%)" fill-opacity="1" d="M 25.8125 2.664062 C 25.8125 1.285156 24.695312 0.167969 23.316406 0.167969 C 21.933594 0.167969 20.816406 1.285156 20.816406 2.664062 C 20.816406 4.042969 21.933594 5.164062 23.316406 5.164062 C 24.695312 5.164062 25.8125 4.042969 25.8125 2.664062 Z M 25.8125 2.664062 "/>
<path fill-rule="nonzero" fill="rgb(100%, 100%, 100%)" fill-opacity="1" d="M 33.808594 2.664062 C 33.808594 1.285156 32.6875 0.167969 31.308594 0.167969 C 29.929688 0.167969 28.8125 1.285156 28.8125 2.664062 C 28.8125 4.042969 29.929688 5.164062 31.308594 5.164062 C 32.6875 5.164062 33.808594 4.042969 33.808594 2.664062 Z M 33.808594 2.664062 "/>
<path fill-rule="nonzero" fill="rgb(100%, 100%, 100%)" fill-opacity="1" d="M 41.800781 2.664062 C 41.800781 1.285156 40.683594 0.167969 39.304688 0.167969 C 37.921875 0.167969 36.804688 1.285156 36.804688 2.664062 C 36.804688 4.042969 37.921875 5.164062 39.304688 5.164062 C 40.683594 5.164062 41.800781 4.042969 41.800781 2.664062 Z M 41.800781 2.664062 "/>
<path fill-rule="nonzero" fill="rgb(100%, 100%, 100%)" fill-opacity="1" d="M 49.792969 2.664062 C 49.792969 1.285156 48.675781 0.167969 47.296875 0.167969 C 45.917969 0.167969 44.796875 1.285156 44.796875 2.664062 C 44.796875 4.042969 45.917969 5.164062 47.296875 5.164062 C 48.675781 5.164062 49.792969 4.042969 49.792969 2.664062 Z M 49.792969 2.664062 "/>
<path fill-rule="nonzero" fill="rgb(100%, 100%, 100%)" fill-opacity="1" d="M 9.464844 10.660156 C 9.464844 9.476562 8.507812 8.519531 7.328125 8.519531 C 6.144531 8.519531 5.1875 9.476562 5.1875 10.660156 C 5.1875 11.839844 6.144531 12.796875 7.328125 12.796875 C 8.507812 12.796875 9.464844 11.839844 9.464844 10.660156 Z M 9.464844 10.660156 "/>
<path fill-rule="nonzero" fill="rgb(100%, 100%, 100%)" fill-opacity="1" d="M 17.460938 10.660156 C 17.460938 9.476562 16.503906 8.519531 15.320312 8.519531 C 14.140625 8.519531 13.183594 9.476562 13.183594 10.660156 C 13.183594 11.839844 14.140625 12.796875 15.320312 12.796875 C 16.503906 12.796875 17.460938 11.839844 17.460938 10.660156 Z M 17.460938 10.660156 "/>
<path fill-rule="nonzero" fill="rgb(100%, 100%, 100%)" fill-opacity="1" d="M 25.453125 10.660156 C 25.453125 9.476562 24.496094 8.519531 23.316406 8.519531 C 22.132812 8.519531 21.175781 9.476562 21.175781 10.660156 C 21.175781 11.839844 22.132812 12.796875 23.316406 12.796875 C 24.496094 12.796875 25.453125 11.839844 25.453125 10.660156 Z M 25.453125 10.660156 "/>
<path fill-rule="nonzero" fill="rgb(100%, 100%, 100%)" fill-opacity="1" d="M 33.449219 10.660156 C 33.449219 9.476562 32.488281 8.519531 31.308594 8.519531 C 30.128906 8.519531 29.171875 9.476562 29.171875 10.660156 C 29.171875 11.839844 30.128906 12.796875 31.308594 12.796875 C 32.488281 12.796875 33.449219 11.839844 33.449219 10.660156 Z M 33.449219 10.660156 "/>
<path fill-rule="nonzero" fill="rgb(100%, 100%, 100%)" fill-opacity="1" d="M 41.441406 10.660156 C 41.441406 9.476562 40.484375 8.519531 39.304688 8.519531 C 38.121094 8.519531 37.164062 9.476562 37.164062 10.660156 C 37.164062 11.839844 38.121094 12.796875 39.304688 12.796875 C 40.484375 12.796875 41.441406 11.839844 41.441406 10.660156 Z M 41.441406 10.660156 "/>
<path fill-rule="nonzero" fill="rgb(100%, 100%, 100%)" fill-opacity="1" d="M 49.433594 10.660156 C 49.433594 9.476562 48.476562 8.519531 47.296875 8.519531 C 46.117188 8.519531 45.15625 9.476562 45.15625 10.660156 C 45.15625 11.839844 46.117188 12.796875 47.296875 12.796875 C 48.476562 12.796875 49.433594 11.839844 49.433594 10.660156 Z M 49.433594 10.660156 "/>
<path fill-rule="nonzero" fill="rgb(100%, 100%, 100%)" fill-opacity="1" d="M 9.105469 18.652344 C 9.105469 17.667969 8.308594 16.875 7.328125 16.875 C 6.34375 16.875 5.546875 17.667969 5.546875 18.652344 C 5.546875 19.632812 6.34375 20.429688 7.328125 20.429688 C 8.308594 20.429688 9.105469 19.632812 9.105469 18.652344 Z M 9.105469 18.652344 "/>
<path fill-rule="nonzero" fill="rgb(100%, 100%, 100%)" fill-opacity="1" d="M 17.101562 18.652344 C 17.101562 17.667969 16.304688 16.875 15.320312 16.875 C 14.339844 16.875 13.542969 17.667969 13.542969 18.652344 C 13.542969 19.632812 14.339844 20.429688 15.320312 20.429688 C 16.304688 20.429688 17.101562 19.632812 17.101562 18.652344 Z M 17.101562 18.652344 "/>
<path fill-rule="nonzero" fill="rgb(100%, 100%, 100%)" fill-opacity="1" d="M 25.09375 18.652344 C 25.09375 17.667969 24.296875 16.875 23.316406 16.875 C 22.332031 16.875 21.535156 17.667969 21.535156 18.652344 C 21.535156 19.632812 22.332031 20.429688 23.316406 20.429688 C 24.296875 20.429688 25.09375 19.632812 25.09375 18.652344 Z M 25.09375 18.652344 "/>
<path fill-rule="nonzero" fill="rgb(100%, 100%, 100%)" fill-opacity="1" d="M 33.085938 18.652344 C 33.085938 17.667969 32.292969 16.875 31.308594 16.875 C 30.328125 16.875 29.53125 17.667969 29.53125 18.652344 C 29.53125 19.632812 30.328125 20.429688 31.308594 20.429688 C 32.292969 20.429688 33.085938 19.632812 33.085938 18.652344 Z M 33.085938 18.652344 "/>
<path fill-rule="nonzero" fill="rgb(100%, 100%, 100%)" fill-opacity="1" d="M 41.082031 18.652344 C 41.082031 17.667969 40.285156 16.875 39.304688 16.875 C 38.320312 16.875 37.523438 17.667969 37.523438 18.652344 C 37.523438 19.632812 38.320312 20.429688 39.304688 20.429688 C 40.285156 20.429688 41.082031 19.632812 41.082031 18.652344 Z M 41.082031 18.652344 "/>
<path fill-rule="nonzero" fill="rgb(100%, 100%, 100%)" fill-opacity="1" d="M 49.074219 18.652344 C 49.074219 17.667969 48.277344 16.875 47.296875 16.875 C 46.3125 16.875 45.519531 17.667969 45.519531 18.652344 C 45.519531 19.632812 46.3125 20.429688 47.296875 20.429688 C 48.277344 20.429688 49.074219 19.632812 49.074219 18.652344 Z M 49.074219 18.652344 "/>
<path fill-rule="nonzero" fill="rgb(100%, 100%, 100%)" fill-opacity="1" d="M 8.746094 26.644531 C 8.746094 25.863281 8.109375 25.226562 7.328125 25.226562 C 6.542969 25.226562 5.910156 25.863281 5.910156 26.644531 C 5.910156 27.429688 6.542969 28.066406 7.328125 28.066406 C 8.109375 28.066406 8.746094 27.429688 8.746094 26.644531 Z M 8.746094 26.644531 "/>
<path fill-rule="nonzero" fill="rgb(100%, 100%, 100%)" fill-opacity="1" d="M 16.738281 26.644531 C 16.738281 25.863281 16.105469 25.226562 15.320312 25.226562 C 14.539062 25.226562 13.902344 25.863281 13.902344 26.644531 C 13.902344 27.429688 14.539062 28.066406 15.320312 28.066406 C 16.105469 28.066406 16.738281 27.429688 16.738281 26.644531 Z M 16.738281 26.644531 "/>
<path fill-rule="nonzero" fill="rgb(100%, 100%, 100%)" fill-opacity="1" d="M 24.734375 26.644531 C 24.734375 25.863281 24.097656 25.226562 23.316406 25.226562 C 22.53125 25.226562 21.894531 25.863281 21.894531 26.644531 C 21.894531 27.429688 22.53125 28.066406 23.316406 28.066406 C 24.097656 28.066406 24.734375 27.429688 24.734375 26.644531 Z M 24.734375 26.644531 "/>
<path fill-rule="nonzero" fill="rgb(100%, 100%, 100%)" fill-opacity="1" d="M 32.726562 26.644531 C 32.726562 25.863281 32.09375 25.226562 31.308594 25.226562 C 30.523438 25.226562 29.890625 25.863281 29.890625 26.644531 C 29.890625 27.429688 30.523438 28.066406 31.308594 28.066406 C 32.09375 28.066406 32.726562 27.429688 32.726562 26.644531 Z M 32.726562 26.644531 "/>
<path fill-rule="nonzero" fill="rgb(100%, 100%, 100%)" fill-opacity="1" d="M 40.722656 26.644531 C 40.722656 25.863281 40.085938 25.226562 39.304688 25.226562 C 38.519531 25.226562 37.882812 25.863281 37.882812 26.644531 C 37.882812 27.429688 38.519531 28.066406 39.304688 28.066406 C 40.085938 28.066406 40.722656 27.429688 40.722656 26.644531 Z M 40.722656 26.644531 "/>
<path fill-rule="nonzero" fill="rgb(100%, 100%, 100%)" fill-opacity="1" d="M 48.714844 26.644531 C 48.714844 25.863281 48.082031 25.226562 47.296875 25.226562 C 46.511719 25.226562 45.878906 25.863281 45.878906 26.644531 C 45.878906 27.429688 46.511719 28.066406 47.296875 28.066406 C 48.082031 28.066406 48.714844 27.429688 48.714844 26.644531 Z M 48.714844 26.644531 "/>
<path fill-rule="nonzero" fill="rgb(100%, 100%, 100%)" fill-opacity="1" d="M 8.386719 34.640625 C 8.386719 34.054688 7.914062 33.582031 7.328125 33.582031 C 6.742188 33.582031 6.269531 34.054688 6.269531 34.640625 C 6.269531 35.226562 6.742188 35.699219 7.328125 35.699219 C 7.914062 35.699219 8.386719 35.226562 8.386719 34.640625 Z M 8.386719 34.640625 "/>
<path fill-rule="nonzero" fill="rgb(100%, 100%, 100%)" fill-opacity="1" d="M 16.378906 34.640625 C 16.378906 34.054688 15.90625 33.582031 15.320312 33.582031 C 14.734375 33.582031 14.261719 34.054688 14.261719 34.640625 C 14.261719 35.226562 14.734375 35.699219 15.320312 35.699219 C 15.90625 35.699219 16.378906 35.226562 16.378906 34.640625 Z M 16.378906 34.640625 "/>
<path fill-rule="nonzero" fill="rgb(100%, 100%, 100%)" fill-opacity="1" d="M 24.375 34.640625 C 24.375 34.054688 23.898438 33.582031 23.316406 33.582031 C 22.730469 33.582031 22.253906 34.054688 22.253906 34.640625 C 22.253906 35.226562 22.730469 35.699219 23.316406 35.699219 C 23.898438 35.699219 24.375 35.226562 24.375 34.640625 Z M 24.375 34.640625 "/>
<path fill-rule="nonzero" fill="rgb(100%, 100%, 100%)" fill-opacity="1" d="M 32.367188 34.640625 C 32.367188 34.054688 31.894531 33.582031 31.308594 33.582031 C 30.722656 33.582031 30.25 34.054688 30.25 34.640625 C 30.25 35.226562 30.722656 35.699219 31.308594 35.699219 C 31.894531 35.699219 32.367188 35.226562 32.367188 34.640625 Z M 32.367188 34.640625 "/>
<path fill-rule="nonzero" fill="rgb(100%, 100%, 100%)" fill-opacity="1" d="M 40.363281 34.640625 C 40.363281 34.054688 39.886719 33.582031 39.304688 33.582031 C 38.71875 33.582031 38.242188 34.054688 38.242188 34.640625 C 38.242188 35.226562 38.71875 35.699219 39.304688 35.699219 C 39.886719 35.699219 40.363281 35.226562 40.363281 34.640625 Z M 40.363281 34.640625 "/>
<path fill-rule="nonzero" fill="rgb(100%, 100%, 100%)" fill-opacity="1" d="M 48.355469 34.640625 C 48.355469 34.054688 47.882812 33.582031 47.296875 33.582031 C 46.710938 33.582031 46.238281 34.054688 46.238281 34.640625 C 46.238281 35.226562 46.710938 35.699219 47.296875 35.699219 C 47.882812 35.699219 48.355469 35.226562 48.355469 34.640625 Z M 48.355469 34.640625 "/>
<path fill-rule="nonzero" fill="rgb(100%, 100%, 100%)" fill-opacity="1" d="M 8.027344 42.632812 C 8.027344 42.246094 7.714844 41.933594 7.328125 41.933594 C 6.941406 41.933594 6.628906 42.246094 6.628906 42.632812 C 6.628906 43.019531 6.941406 43.332031 7.328125 43.332031 C 7.714844 43.332031 8.027344 43.019531 8.027344 42.632812 Z M 8.027344 42.632812 "/>
<path fill-rule="nonzero" fill="rgb(100%, 100%, 100%)" fill-opacity="1" d="M 16.019531 42.632812 C 16.019531 42.246094 15.707031 41.933594 15.320312 41.933594 C 14.933594 41.933594 14.621094 42.246094 14.621094 42.632812 C 14.621094 43.019531 14.933594 43.332031 15.320312 43.332031 C 15.707031 43.332031 16.019531 43.019531 16.019531 42.632812 Z M 16.019531 42.632812 "/>
<path fill-rule="nonzero" fill="rgb(100%, 100%, 100%)" fill-opacity="1" d="M 24.015625 42.632812 C 24.015625 42.246094 23.703125 41.933594 23.316406 41.933594 C 22.929688 41.933594 22.617188 42.246094 22.617188 42.632812 C 22.617188 43.019531 22.929688 43.332031 23.316406 43.332031 C 23.703125 43.332031 24.015625 43.019531 24.015625 42.632812 Z M 24.015625 42.632812 "/>
<path fill-rule="nonzero" fill="rgb(100%, 100%, 100%)" fill-opacity="1" d="M 32.007812 42.632812 C 32.007812 42.246094 31.695312 41.933594 31.308594 41.933594 C 30.921875 41.933594 30.609375 42.246094 30.609375 42.632812 C 30.609375 43.019531 30.921875 43.332031 31.308594 43.332031 C 31.695312 43.332031 32.007812 43.019531 32.007812 42.632812 Z M 32.007812 42.632812 "/>
<path fill-rule="nonzero" fill="rgb(100%, 100%, 100%)" fill-opacity="1" d="M 40.003906 42.632812 C 40.003906 42.246094 39.6875 41.933594 39.304688 41.933594 C 38.917969 41.933594 38.601562 42.246094 38.601562 42.632812 C 38.601562 43.019531 38.917969 43.332031 39.304688 43.332031 C 39.6875 43.332031 40.003906 43.019531 40.003906 42.632812 Z M 40.003906 42.632812 "/>
<path fill-rule="nonzero" fill="rgb(100%, 100%, 100%)" fill-opacity="1" d="M 47.996094 42.632812 C 47.996094 42.246094 47.683594 41.933594 47.296875 41.933594 C 46.910156 41.933594 46.597656 42.246094 46.597656 42.632812 C 46.597656 43.019531 46.910156 43.332031 47.296875 43.332031 C 47.683594 43.332031 47.996094 43.019531 47.996094 42.632812 Z M 47.996094 42.632812 "/>
</svg>
