<?xml version="1.0" encoding="UTF-8"?>
<svg xmlns="http://www.w3.org/2000/svg" xmlns:xlink="http://www.w3.org/1999/xlink" width="54.624" height="45.298" viewBox="0 0 54.624 45.298">
<path fill-rule="nonzero" fill="rgb(100%, 100%, 100%)" fill-opacity="1" d="M 8.5 2.664062 C 8.5 2.015625 7.976562 1.492188 7.328125 1.492188 C 6.679688 1.492188 6.15625 2.015625 6.15625 2.664062 C 6.15625 3.3125 6.679688 3.835938 7.328125 3.835938 C 7.976562 3.835938 8.5 3.3125 8.5 2.664062 Z M 8.5 2.664062 "/>
<path fill-rule="nonzero" fill="rgb(100%, 100%, 100%)" fill-opacity="1" d="M 16.175781 2.664062 C 16.175781 2.191406 15.792969 1.808594 15.320312 1.808594 C 14.847656 1.808594 14.464844 2.191406 14.464844 2.664062 C 14.464844 3.136719 14.847656 3.519531 15.320312 3.519531 C 15.792969 3.519531 16.175781 3.136719 16.175781 2.664062 Z M 16.175781 2.664062 "/>
<path fill-rule="nonzero" fill="rgb(100%, 100%, 100%)" fill-opacity="1" d="M 32.042969 2.664062 C 32.042969 2.257812 31.714844 1.933594 31.308594 1.933594 C 30.902344 1.933594 30.578125 2.257812 30.578125 2.664062 C 30.578125 3.070312 30.902344 3.398438 31.308594 3.398438 C 31.714844 3.398438 32.042969 3.070312 32.042969 2.664062 Z M 32.042969 2.664062 "/>
<path fill-rule="nonzero" fill="rgb(100%, 100%, 100%)" fill-opacity="1" d="M 48.40625 2.664062 C 48.40625 2.050781 47.910156 1.554688 47.296875 1.554688 C 46.683594 1.554688 46.1875 2.050781 46.1875 2.664062 C 46.1875 3.277344 46.683594 3.773438 47.296875 3.773438 C 47.910156 3.773438 48.40625 3.277344 48.40625 2.664062 Z M 48.40625 2.664062 "/>
<path fill-rule="nonzero" fill="rgb(100%, 100%, 100%)" fill-opacity="1" d="M 8.234375 10.660156 C 8.234375 10.15625 7.828125 9.75 7.328125 9.75 C 6.824219 9.75 6.417969 10.15625 6.417969 10.660156 C 6.417969 11.160156 6.824219 11.566406 7.328125 11.566406 C 7.828125 11.566406 8.234375 11.160156 8.234375 10.660156 Z M 8.234375 10.660156 "/>
<path fill-rule="nonzero" fill="rgb(100%, 100%, 100%)" fill-opacity="1" d="M 24.089844 10.660156 C 24.089844 10.230469 23.742188 9.882812 23.316406 9.882812 C 22.886719 9.882812 22.539062 10.230469 22.539062 10.660156 C 22.539062 11.085938 22.886719 11.433594 23.316406 11.433594 C 23.742188 11.433594 24.089844 11.085938 24.089844 10.660156 Z M 24.089844 10.660156 "/>
<path fill-rule="nonzero" fill="rgb(100%, 100%, 100%)" fill-opacity="1" d="M 40.433594 10.660156 C 40.433594 10.035156 39.925781 9.527344 39.304688 9.527344 C 38.679688 9.527344 38.171875 10.035156 38.171875 10.660156 C 38.171875 11.285156 38.679688 11.789062 39.304688 11.789062 C 39.925781 11.789062 40.433594 11.285156 40.433594 10.660156 Z M 40.433594 10.660156 "/>
<path fill-rule="nonzero" fill="rgb(100%, 100%, 100%)" fill-opacity="1" d="M 48.160156 10.660156 C 48.160156 10.183594 47.773438 9.796875 47.296875 9.796875 C 46.820312 9.796875 46.433594 10.183594 46.433594 10.660156 C 46.433594 11.132812 46.820312 11.519531 47.296875 11.519531 C 47.773438 11.519531 48.160156 11.132812 48.160156 10.660156 Z M 48.160156 10.660156 "/>
<path fill-rule="nonzero" fill="rgb(100%, 100%, 100%)" fill-opacity="1" d="M 16.492188 18.652344 C 16.492188 18.003906 15.96875 17.480469 15.320312 17.480469 C 14.671875 17.480469 14.148438 18.003906 14.148438 18.652344 C 14.148438 19.300781 14.671875 19.824219 15.320312 19.824219 C 15.96875 19.824219 16.492188 19.300781 16.492188 18.652344 Z M 16.492188 18.652344 "/>
<path fill-rule="nonzero" fill="rgb(100%, 100%, 100%)" fill-opacity="1" d="M 25.527344 18.652344 C 25.527344 17.429688 24.539062 16.4375 23.316406 16.4375 C 22.09375 16.4375 21.101562 17.429688 21.101562 18.652344 C 21.101562 19.875 22.09375 20.863281 23.316406 20.863281 C 24.539062 20.863281 25.527344 19.875 25.527344 18.652344 Z M 25.527344 18.652344 "/>
<path fill-rule="nonzero" fill="rgb(100%, 100%, 100%)" fill-opacity="1" d="M 40.660156 18.652344 C 40.660156 17.902344 40.050781 17.296875 39.304688 17.296875 C 38.554688 17.296875 37.945312 17.902344 37.945312 18.652344 C 37.945312 19.402344 38.554688 20.007812 39.304688 20.007812 C 40.050781 20.007812 40.660156 19.402344 40.660156 18.652344 Z M 40.660156 18.652344 "/>
<path fill-rule="nonzero" fill="rgb(100%, 100%, 100%)" fill-opacity="1" d="M 48.226562 18.652344 C 48.226562 18.136719 47.8125 17.722656 47.296875 17.722656 C 46.78125 17.722656 46.367188 18.136719 46.367188 18.652344 C 46.367188 19.167969 46.78125 19.582031 47.296875 19.582031 C 47.8125 19.582031 48.226562 19.167969 48.226562 18.652344 Z M 48.226562 18.652344 "/>
<path fill-rule="nonzero" fill="rgb(100%, 100%, 100%)" fill-opacity="1" d="M 24.535156 26.644531 C 24.535156 25.972656 23.988281 25.425781 23.316406 25.425781 C 22.640625 25.425781 22.09375 25.972656 22.09375 26.644531 C 22.09375 27.320312 22.640625 27.867188 23.316406 27.867188 C 23.988281 27.867188 24.535156 27.320312 24.535156 26.644531 Z M 24.535156 26.644531 "/>
<path fill-rule="nonzero" fill="rgb(100%, 100%, 100%)" fill-opacity="1" d="M 32.105469 26.644531 C 32.105469 26.207031 31.75 25.851562 31.308594 25.851562 C 30.871094 25.851562 30.515625 26.207031 30.515625 26.644531 C 30.515625 27.085938 30.871094 27.441406 31.308594 27.441406 C 31.75 27.441406 32.105469 27.085938 32.105469 26.644531 Z M 32.105469 26.644531 "/>
<path fill-rule="nonzero" fill="rgb(100%, 100%, 100%)" fill-opacity="1" d="M 40.210938 26.644531 C 40.210938 26.144531 39.804688 25.738281 39.304688 25.738281 C 38.800781 25.738281 38.394531 26.144531 38.394531 26.644531 C 38.394531 27.148438 38.800781 27.554688 39.304688 27.554688 C 39.804688 27.554688 40.210938 27.148438 40.210938 26.644531 Z M 40.210938 26.644531 "/>
<path fill-rule="nonzero" fill="rgb(100%, 100%, 100%)" fill-opacity="1" d="M 16.828125 34.640625 C 16.828125 33.808594 16.152344 33.132812 15.320312 33.132812 C 14.488281 33.132812 13.8125 33.808594 13.8125 34.640625 C 13.8125 35.472656 14.488281 36.148438 15.320312 36.148438 C 16.152344 36.148438 16.828125 35.472656 16.828125 34.640625 Z M 16.828125 34.640625 "/>
<path fill-rule="nonzero" fill="rgb(100%, 100%, 100%)" fill-opacity="1" d="M 32.15625 34.640625 C 32.15625 34.171875 31.777344 33.792969 31.308594 33.792969 C 30.839844 33.792969 30.460938 34.171875 30.460938 34.640625 C 30.460938 35.105469 30.839844 35.484375 31.308594 35.484375 C 31.777344 35.484375 32.15625 35.105469 32.15625 34.640625 Z M 32.15625 34.640625 "/>
<path fill-rule="nonzero" fill="rgb(100%, 100%, 100%)" fill-opacity="1" d="M 40.351562 34.640625 C 40.351562 34.0625 39.882812 33.589844 39.304688 33.589844 C 38.722656 33.589844 38.253906 34.0625 38.253906 34.640625 C 38.253906 35.21875 38.722656 35.6875 39.304688 35.6875 C 39.882812 35.6875 40.351562 35.21875 40.351562 34.640625 Z M 40.351562 34.640625 "/>
<path fill-rule="nonzero" fill="rgb(100%, 100%, 100%)" fill-opacity="1" d="M 49.316406 34.640625 C 49.316406 33.523438 48.410156 32.621094 47.296875 32.621094 C 46.179688 32.621094 45.277344 33.523438 45.277344 34.640625 C 45.277344 35.753906 46.179688 36.660156 47.296875 36.660156 C 48.410156 36.660156 49.316406 35.753906 49.316406 34.640625 Z M 49.316406 34.640625 "/>
<path fill-rule="nonzero" fill="rgb(100%, 100%, 100%)" fill-opacity="1" d="M 8.585938 42.632812 C 8.585938 41.9375 8.023438 41.375 7.328125 41.375 C 6.632812 41.375 6.066406 41.9375 6.066406 42.632812 C 6.066406 43.328125 6.632812 43.894531 7.328125 43.894531 C 8.023438 43.894531 8.585938 43.328125 8.585938 42.632812 Z M 8.585938 42.632812 "/>
<path fill-rule="nonzero" fill="rgb(100%, 100%, 100%)" fill-opacity="1" d="M 17.238281 42.632812 C 17.238281 41.574219 16.378906 40.71875 15.320312 40.71875 C 14.261719 40.71875 13.40625 41.574219 13.40625 42.632812 C 13.40625 43.691406 14.261719 44.550781 15.320312 44.550781 C 16.378906 44.550781 17.238281 43.691406 17.238281 42.632812 Z M 17.238281 42.632812 "/>
<path fill-rule="nonzero" fill="rgb(100%, 100%, 100%)" fill-opacity="1" d="M 32.5625 42.632812 C 32.5625 41.941406 32 41.382812 31.308594 41.382812 C 30.617188 41.382812 30.054688 41.941406 30.054688 42.632812 C 30.054688 43.324219 30.617188 43.886719 31.308594 43.886719 C 32 43.886719 32.5625 43.324219 32.5625 42.632812 Z M 32.5625 42.632812 "/>
<path fill-rule="nonzero" fill="rgb(100%, 100%, 100%)" fill-opacity="1" d="M 40.078125 42.632812 C 40.078125 42.203125 39.730469 41.859375 39.304688 41.859375 C 38.875 41.859375 38.527344 42.203125 38.527344 42.632812 C 38.527344 43.0625 38.875 43.410156 39.304688 43.410156 C 39.730469 43.410156 40.078125 43.0625 40.078125 42.632812 Z M 40.078125 42.632812 "/>
<path fill-rule="nonzero" fill="rgb(100%, 100%, 100%)" fill-opacity="1" d="M 48.453125 42.632812 C 48.453125 41.996094 47.933594 41.476562 47.296875 41.476562 C 46.65625 41.476562 46.140625 41.996094 46.140625 42.632812 C 46.140625 43.273438 46.65625 43.789062 47.296875 43.789062 C 47.933594 43.789062 48.453125 43.273438 48.453125 42.632812 Z M 48.453125 42.632812 "/>
<path fill-rule="nonzero" fill="rgb(100%, 100%, 100%)" fill-opacity="1" d="M 31.308594 4.996094 C 31.851562 8.082031 33.882812 10.113281 35.574219 10.414062 C 36.347656 10.546875 36.347656 10.769531 35.574219 10.90625 C 33.882812 11.203125 31.851562 13.234375 31.554688 14.925781 C 31.417969 15.695312 31.199219 15.695312 31.0625 14.925781 C 30.765625 13.234375 28.734375 11.203125 27.042969 10.90625 C 26.273438 10.769531 26.273438 10.546875 27.042969 10.414062 C 28.734375 10.113281 30.765625 8.082031 31.308594 4.996094 "/>
<path fill-rule="nonzero" fill="rgb(100%, 100%, 100%)" fill-opacity="1" d="M 7.328125 18.984375 C 8.0625 23.164062 10.8125 25.910156 13.59375 26.398438 C 14.363281 26.535156 14.363281 26.757812 13.59375 26.890625 C 10.8125 27.382812 8.0625 30.128906 7.574219 32.910156 C 7.4375 33.683594 7.21875 33.683594 7.082031 32.910156 C 6.589844 30.128906 3.84375 27.382812 1.0625 26.890625 C 0.292969 26.757812 0.292969 26.535156 1.0625 26.398438 C 3.84375 25.910156 6.589844 23.164062 7.328125 18.984375 "/>
</svg>
