<?xml version="1.0" encoding="UTF-8"?>
<svg xmlns="http://www.w3.org/2000/svg" xmlns:xlink="http://www.w3.org/1999/xlink" width="54.624" height="45.298" viewBox="0 0 54.624 45.298">
<defs>
<clipPath id="clip-0">
<path clip-rule="nonzero" d="M 0 0 L 48 0 L 48 45.296875 L 0 45.296875 Z M 0 0 "/>
</clipPath>
</defs>
<path fill-rule="nonzero" fill="rgb(100%, 100%, 100%)" fill-opacity="1" d="M 14.964844 2.664062 C 14.964844 2.125 14.527344 1.6875 13.988281 1.6875 C 13.449219 1.6875 13.011719 2.125 13.011719 2.664062 C 13.011719 3.203125 13.449219 3.640625 13.988281 3.640625 C 14.527344 3.640625 14.964844 3.203125 14.964844 2.664062 Z M 14.964844 2.664062 "/>
<path fill-rule="nonzero" fill="rgb(100%, 100%, 100%)" fill-opacity="1" d="M 21.816406 2.664062 C 21.816406 2.019531 21.292969 1.5 20.652344 1.5 C 20.007812 1.5 19.484375 2.019531 19.484375 2.664062 C 19.484375 3.308594 20.007812 3.832031 20.652344 3.832031 C 21.292969 3.832031 21.816406 3.308594 21.816406 2.664062 Z M 21.816406 2.664062 "/>
<path fill-rule="nonzero" fill="rgb(100%, 100%, 100%)" fill-opacity="1" d="M 28.289062 2.664062 C 28.289062 2.125 27.851562 1.6875 27.3125 1.6875 C 26.773438 1.6875 26.335938 2.125 26.335938 2.664062 C 26.335938 3.203125 26.773438 3.640625 27.3125 3.640625 C 27.851562 3.640625 28.289062 3.203125 28.289062 2.664062 Z M 28.289062 2.664062 "/>
<path fill-rule="nonzero" fill="rgb(100%, 100%, 100%)" fill-opacity="1" d="M 8.304688 9.324219 C 8.304688 8.785156 7.867188 8.347656 7.328125 8.347656 C 6.789062 8.347656 6.351562 8.785156 6.351562 9.324219 C 6.351562 9.867188 6.789062 10.304688 7.328125 10.304688 C 7.867188 10.304688 8.304688 9.867188 8.304688 9.324219 Z M 8.304688 9.324219 "/>
<path fill-rule="nonzero" fill="rgb(100%, 100%, 100%)" fill-opacity="1" d="M 15.625 9.324219 C 15.625 8.421875 14.890625 7.691406 13.988281 7.691406 C 13.085938 7.691406 12.355469 8.421875 12.355469 9.324219 C 12.355469 10.230469 13.085938 10.960938 13.988281 10.960938 C 14.890625 10.960938 15.625 10.230469 15.625 9.324219 Z M 15.625 9.324219 "/>
<path fill-rule="nonzero" fill="rgb(100%, 100%, 100%)" fill-opacity="1" d="M 22.617188 9.324219 C 22.617188 8.242188 21.734375 7.359375 20.652344 7.359375 C 19.566406 7.359375 18.683594 8.242188 18.683594 9.324219 C 18.683594 10.410156 19.566406 11.289062 20.652344 11.289062 C 21.734375 11.289062 22.617188 10.410156 22.617188 9.324219 Z M 22.617188 9.324219 "/>
<path fill-rule="nonzero" fill="rgb(100%, 100%, 100%)" fill-opacity="1" d="M 28.949219 9.324219 C 28.949219 8.421875 28.214844 7.691406 27.3125 7.691406 C 26.410156 7.691406 25.675781 8.421875 25.675781 9.324219 C 25.675781 10.230469 26.410156 10.960938 27.3125 10.960938 C 28.214844 10.960938 28.949219 10.230469 28.949219 9.324219 Z M 28.949219 9.324219 "/>
<path fill-rule="nonzero" fill="rgb(100%, 100%, 100%)" fill-opacity="1" d="M 34.949219 9.324219 C 34.949219 8.785156 34.511719 8.347656 33.972656 8.347656 C 33.433594 8.347656 32.996094 8.785156 32.996094 9.324219 C 32.996094 9.867188 33.433594 10.304688 33.972656 10.304688 C 34.511719 10.304688 34.949219 9.867188 34.949219 9.324219 Z M 34.949219 9.324219 "/>
<path fill-rule="nonzero" fill="rgb(100%, 100%, 100%)" fill-opacity="1" d="M 8.492188 15.988281 C 8.492188 15.34375 7.972656 14.820312 7.328125 14.820312 C 6.683594 14.820312 6.160156 15.34375 6.160156 15.988281 C 6.160156 16.632812 6.683594 17.152344 7.328125 17.152344 C 7.972656 17.152344 8.492188 16.632812 8.492188 15.988281 Z M 8.492188 15.988281 "/>
<path fill-rule="nonzero" fill="rgb(100%, 100%, 100%)" fill-opacity="1" d="M 15.953125 15.988281 C 15.953125 14.902344 15.074219 14.023438 13.988281 14.023438 C 12.902344 14.023438 12.023438 14.902344 12.023438 15.988281 C 12.023438 17.074219 12.902344 17.953125 13.988281 17.953125 C 15.074219 17.953125 15.953125 17.074219 15.953125 15.988281 Z M 15.953125 15.988281 "/>
<path fill-rule="nonzero" fill="rgb(100%, 100%, 100%)" fill-opacity="1" d="M 23.414062 15.988281 C 23.414062 14.460938 22.175781 13.222656 20.652344 13.222656 C 19.125 13.222656 17.886719 14.460938 17.886719 15.988281 C 17.886719 17.515625 19.125 18.75 20.652344 18.75 C 22.175781 18.75 23.414062 17.515625 23.414062 15.988281 Z M 23.414062 15.988281 "/>
<path fill-rule="nonzero" fill="rgb(100%, 100%, 100%)" fill-opacity="1" d="M 29.277344 15.988281 C 29.277344 14.902344 28.398438 14.023438 27.3125 14.023438 C 26.226562 14.023438 25.347656 14.902344 25.347656 15.988281 C 25.347656 17.074219 26.226562 17.953125 27.3125 17.953125 C 28.398438 17.953125 29.277344 17.074219 29.277344 15.988281 Z M 29.277344 15.988281 "/>
<path fill-rule="nonzero" fill="rgb(100%, 100%, 100%)" fill-opacity="1" d="M 35.203125 15.988281 C 35.203125 15.308594 34.652344 14.757812 33.972656 14.757812 C 33.296875 14.757812 32.746094 15.308594 32.746094 15.988281 C 32.746094 16.667969 33.296875 17.214844 33.972656 17.214844 C 34.652344 17.214844 35.203125 16.667969 35.203125 15.988281 Z M 35.203125 15.988281 "/>
<path fill-rule="nonzero" fill="rgb(100%, 100%, 100%)" fill-opacity="1" d="M 8.304688 22.648438 C 8.304688 22.109375 7.867188 21.671875 7.328125 21.671875 C 6.789062 21.671875 6.351562 22.109375 6.351562 22.648438 C 6.351562 23.1875 6.789062 23.625 7.328125 23.625 C 7.867188 23.625 8.304688 23.1875 8.304688 22.648438 Z M 8.304688 22.648438 "/>
<path fill-rule="nonzero" fill="rgb(100%, 100%, 100%)" fill-opacity="1" d="M 15.625 22.648438 C 15.625 21.746094 14.890625 21.015625 13.988281 21.015625 C 13.085938 21.015625 12.355469 21.746094 12.355469 22.648438 C 12.355469 23.550781 13.085938 24.285156 13.988281 24.285156 C 14.890625 24.285156 15.625 23.550781 15.625 22.648438 Z M 15.625 22.648438 "/>
<path fill-rule="nonzero" fill="rgb(100%, 100%, 100%)" fill-opacity="1" d="M 22.617188 22.648438 C 22.617188 21.5625 21.734375 20.683594 20.652344 20.683594 C 19.566406 20.683594 18.683594 21.5625 18.683594 22.648438 C 18.683594 23.734375 19.566406 24.613281 20.652344 24.613281 C 21.734375 24.613281 22.617188 23.734375 22.617188 22.648438 Z M 22.617188 22.648438 "/>
<path fill-rule="nonzero" fill="rgb(100%, 100%, 100%)" fill-opacity="1" d="M 29.007812 22.648438 C 29.007812 21.710938 28.25 20.953125 27.3125 20.953125 C 26.375 20.953125 25.617188 21.710938 25.617188 22.648438 C 25.617188 23.585938 26.375 24.34375 27.3125 24.34375 C 28.25 24.34375 29.007812 23.585938 29.007812 22.648438 Z M 29.007812 22.648438 "/>
<path fill-rule="nonzero" fill="rgb(100%, 100%, 100%)" fill-opacity="1" d="M 35.210938 22.648438 C 35.210938 21.964844 34.65625 21.410156 33.972656 21.410156 C 33.289062 21.410156 32.734375 21.964844 32.734375 22.648438 C 32.734375 23.332031 33.289062 23.886719 33.972656 23.886719 C 34.65625 23.886719 35.210938 23.332031 35.210938 22.648438 Z M 35.210938 22.648438 "/>
<path fill-rule="nonzero" fill="rgb(100%, 100%, 100%)" fill-opacity="1" d="M 41.761719 22.648438 C 41.761719 22.027344 41.257812 21.523438 40.636719 21.523438 C 40.011719 21.523438 39.507812 22.027344 39.507812 22.648438 C 39.507812 23.269531 40.011719 23.773438 40.636719 23.773438 C 41.257812 23.773438 41.761719 23.269531 41.761719 22.648438 Z M 41.761719 22.648438 "/>
<path fill-rule="nonzero" fill="rgb(100%, 100%, 100%)" fill-opacity="1" d="M 14.964844 29.308594 C 14.964844 28.769531 14.527344 28.332031 13.988281 28.332031 C 13.449219 28.332031 13.011719 28.769531 13.011719 29.308594 C 13.011719 29.851562 13.449219 30.289062 13.988281 30.289062 C 14.527344 30.289062 14.964844 29.851562 14.964844 29.308594 Z M 14.964844 29.308594 "/>
<path fill-rule="nonzero" fill="rgb(100%, 100%, 100%)" fill-opacity="1" d="M 21.816406 29.308594 C 21.816406 28.667969 21.292969 28.144531 20.652344 28.144531 C 20.007812 28.144531 19.484375 28.667969 19.484375 29.308594 C 19.484375 29.953125 20.007812 30.476562 20.652344 30.476562 C 21.292969 30.476562 21.816406 29.953125 21.816406 29.308594 Z M 21.816406 29.308594 "/>
<path fill-rule="nonzero" fill="rgb(100%, 100%, 100%)" fill-opacity="1" d="M 28.410156 29.308594 C 28.410156 28.703125 27.917969 28.214844 27.3125 28.214844 C 26.707031 28.214844 26.214844 28.703125 26.214844 29.308594 C 26.214844 29.917969 26.707031 30.40625 27.3125 30.40625 C 27.917969 30.40625 28.410156 29.917969 28.410156 29.308594 Z M 28.410156 29.308594 "/>
<path fill-rule="nonzero" fill="rgb(100%, 100%, 100%)" fill-opacity="1" d="M 35.097656 29.308594 C 35.097656 28.6875 34.59375 28.183594 33.972656 28.183594 C 33.351562 28.183594 32.847656 28.6875 32.847656 29.308594 C 32.847656 29.933594 33.351562 30.4375 33.972656 30.4375 C 34.59375 30.4375 35.097656 29.933594 35.097656 29.308594 Z M 35.097656 29.308594 "/>
<path fill-rule="nonzero" fill="rgb(100%, 100%, 100%)" fill-opacity="1" d="M 42 29.308594 C 42 28.554688 41.390625 27.945312 40.636719 27.945312 C 39.882812 27.945312 39.269531 28.554688 39.269531 29.308594 C 39.269531 30.066406 39.882812 30.675781 40.636719 30.675781 C 41.390625 30.675781 42 30.066406 42 29.308594 Z M 42 29.308594 "/>
<path fill-rule="nonzero" fill="rgb(100%, 100%, 100%)" fill-opacity="1" d="M 48.421875 29.308594 C 48.421875 28.6875 47.917969 28.183594 47.296875 28.183594 C 46.675781 28.183594 46.171875 28.6875 46.171875 29.308594 C 46.171875 29.933594 46.675781 30.4375 47.296875 30.4375 C 47.917969 30.4375 48.421875 29.933594 48.421875 29.308594 Z M 48.421875 29.308594 "/>
<path fill-rule="nonzero" fill="rgb(100%, 100%, 100%)" fill-opacity="1" d="M 41.761719 35.972656 C 41.761719 35.351562 41.257812 34.847656 40.636719 34.847656 C 40.011719 34.847656 39.507812 35.351562 39.507812 35.972656 C 39.507812 36.59375 40.011719 37.097656 40.636719 37.097656 C 41.257812 37.097656 41.761719 36.59375 41.761719 35.972656 Z M 41.761719 35.972656 "/>
<path fill-rule="nonzero" fill="rgb(100%, 100%, 100%)" fill-opacity="1" d="M 20.96875 13.527344 C 20.96875 13.527344 20.199219 13.882812 19.957031 14.195312 C 19.710938 14.503906 19.753906 14.285156 19.214844 15.769531 C 18.671875 17.253906 16.585938 23.40625 16.054688 24.902344 C 15.527344 26.398438 15.570312 26.289062 15.40625 26.554688 C 15.238281 26.820312 14.957031 26.957031 14.863281 26.820312 C 14.769531 26.679688 14.816406 25.902344 14.726562 25.550781 C 14.636719 25.199219 14.394531 24.609375 14.207031 24.285156 C 14.019531 23.960938 13.679688 23.394531 13.378906 23.214844 C 13.082031 23.035156 12.371094 22.890625 12.058594 22.984375 C 11.746094 23.082031 11.265625 23.578125 11.121094 23.90625 C 10.980469 24.230469 10.890625 23.941406 11.035156 25.328125 C 11.175781 26.71875 11.96875 32.53125 12.160156 33.917969 C 12.347656 35.300781 12.257812 34.96875 12.40625 35.320312 C 12.554688 35.667969 12.871094 36.191406 13.21875 36.445312 C 13.566406 36.699219 13.921875 36.78125 14.917969 37.140625 C 15.914062 37.5 19.394531 38.695312 20.398438 39.027344 C 21.40625 39.359375 21.738281 39.511719 22.167969 39.527344 C 22.597656 39.542969 23.175781 39.335938 23.496094 39.132812 C 23.820312 38.925781 23.96875 38.707031 24.492188 38.046875 C 25.015625 37.390625 26.765625 35.070312 27.277344 34.386719 C 27.785156 33.699219 27.953125 33.515625 28.171875 33.09375 C 28.386719 32.675781 28.664062 31.855469 28.84375 31.359375 C 29.023438 30.867188 29.324219 30.03125 29.464844 29.539062 C 29.601562 29.050781 29.847656 28.25 29.847656 27.828125 C 29.847656 27.410156 29.640625 26.785156 29.460938 26.515625 C 29.285156 26.242188 28.816406 25.820312 28.570312 25.875 C 28.324219 25.925781 27.90625 26.574219 27.691406 26.902344 C 27.472656 27.230469 27.140625 28.121094 27.011719 28.238281 C 26.882812 28.355469 26.738281 28.039062 26.765625 27.738281 C 26.796875 27.433594 27.148438 26.511719 27.230469 26.058594 C 27.308594 25.609375 27.445312 24.839844 27.332031 24.492188 C 27.21875 24.144531 26.726562 23.660156 26.417969 23.554688 C 26.113281 23.449219 25.425781 23.527344 25.121094 23.730469 C 24.820312 23.933594 24.453125 24.625 24.238281 25.03125 C 24.023438 25.433594 23.730469 26.378906 23.570312 26.636719 C 23.40625 26.894531 23.09375 27.054688 23.070312 26.878906 C 23.046875 26.707031 23.304688 25.824219 23.398438 25.382812 C 23.496094 24.941406 23.78125 24.09375 23.75 23.695312 C 23.71875 23.296875 23.4375 22.703125 23.175781 22.507812 C 22.914062 22.308594 22.183594 22.171875 21.855469 22.269531 C 21.53125 22.371094 21.0625 22.871094 20.824219 23.230469 C 20.582031 23.59375 20.3125 24.527344 20.128906 24.886719 C 19.945312 25.242188 19.574219 25.832031 19.5 25.808594 C 19.421875 25.78125 19.484375 25.097656 19.574219 24.695312 C 19.667969 24.292969 19.8125 23.917969 20.15625 22.90625 C 20.5 21.898438 21.707031 18.425781 22.039062 17.417969 C 22.375 16.410156 22.519531 16.082031 22.5625 15.640625 C 22.605469 15.199219 22.523438 14.53125 22.347656 14.242188 C 22.175781 13.949219 21.300781 13.539062 21.300781 13.539062 "/>
<g clip-path="url(#clip-0)">
<path fill="none" stroke-width="1.27559" stroke-linecap="butt" stroke-linejoin="miter" stroke="rgb(0%, 0%, 0%)" stroke-opacity="1" stroke-miterlimit="10" d="M -6.34325 9.121656 C -6.34325 9.121656 -7.112781 8.766188 -7.354969 8.453688 C -7.601063 8.145094 -7.558094 8.363844 -8.097156 6.879469 C -8.640125 5.395094 -10.726063 -0.75725 -11.257313 -2.253344 C -11.784656 -3.749437 -11.741688 -3.640062 -11.90575 -3.905687 C -12.073719 -4.171312 -12.354969 -4.308031 -12.448719 -4.171312 C -12.542469 -4.030687 -12.495594 -3.253344 -12.585438 -2.901781 C -12.675281 -2.550219 -12.917469 -1.960375 -13.104969 -1.636156 C -13.292469 -1.311937 -13.632313 -0.745531 -13.933094 -0.565844 C -14.229969 -0.386156 -14.940906 -0.241625 -15.253406 -0.335375 C -15.565906 -0.433031 -16.046375 -0.929125 -16.190906 -1.25725 C -16.331531 -1.581469 -16.421375 -1.292406 -16.276844 -2.679125 C -16.136219 -4.06975 -15.34325 -9.88225 -15.151844 -11.268969 C -14.964344 -12.651781 -15.054188 -12.31975 -14.90575 -12.671312 C -14.757313 -13.018969 -14.440906 -13.542406 -14.09325 -13.796312 C -13.745594 -14.050219 -13.390125 -14.13225 -12.394031 -14.491625 C -11.397938 -14.851 -7.917469 -16.046312 -6.913563 -16.378344 C -5.90575 -16.710375 -5.573719 -16.862719 -5.144031 -16.878344 C -4.714344 -16.893969 -4.136219 -16.686937 -3.815906 -16.483812 C -3.491688 -16.276781 -3.34325 -16.058031 -2.819813 -15.397875 C -2.296375 -14.741625 -0.546375 -12.421312 -0.0346563 -11.737719 C 0.473156 -11.050219 0.641125 -10.866625 0.859875 -10.44475 C 1.074719 -10.026781 1.352062 -9.206469 1.53175 -8.710375 C 1.711437 -8.218187 2.012219 -7.38225 2.152844 -6.890062 C 2.289562 -6.401781 2.535656 -5.601 2.535656 -5.179125 C 2.535656 -4.761156 2.328625 -4.136156 2.148937 -3.866625 C 1.973156 -3.593187 1.504406 -3.171312 1.258312 -3.226 C 1.012219 -3.276781 0.59425 -3.925219 0.379406 -4.253344 C 0.160656 -4.581469 -0.171375 -5.472094 -0.300281 -5.589281 C -0.429188 -5.706469 -0.573719 -5.390062 -0.546375 -5.089281 C -0.515125 -4.784594 -0.163563 -3.862719 -0.0815313 -3.409594 C -0.00340625 -2.960375 0.133312 -2.190844 0.0200312 -1.843187 C -0.09325 -1.495531 -0.585438 -1.011156 -0.894031 -0.905687 C -1.198719 -0.800219 -1.886219 -0.878344 -2.190906 -1.081469 C -2.491688 -1.284594 -2.858875 -1.976 -3.073719 -2.38225 C -3.288563 -2.784594 -3.581531 -3.729906 -3.741688 -3.987719 C -3.90575 -4.245531 -4.21825 -4.405687 -4.241688 -4.229906 C -4.265125 -4.058031 -4.007313 -3.175219 -3.913563 -2.733812 C -3.815906 -2.292406 -3.53075 -1.44475 -3.562 -1.046312 C -3.59325 -0.647875 -3.8745 -0.054125 -4.136219 0.141188 C -4.397938 0.340406 -5.128406 0.477125 -5.456531 0.379469 C -5.78075 0.277906 -6.2495 -0.222094 -6.487781 -0.581469 C -6.729969 -0.94475 -6.9995 -1.878344 -7.183094 -2.237719 C -7.366688 -2.593187 -7.737781 -3.183031 -7.812 -3.159594 C -7.890125 -3.13225 -7.827625 -2.448656 -7.737781 -2.046312 C -7.644031 -1.643969 -7.4995 -1.268969 -7.15575 -0.25725 C -6.812 0.750563 -5.604969 4.223219 -5.272938 5.231031 C -4.937 6.238844 -4.792469 6.566969 -4.7495 7.008375 C -4.706531 7.449781 -4.788563 8.11775 -4.964344 8.406813 C -5.136219 8.699781 -6.011219 9.109938 -6.011219 9.109938 " transform="matrix(1, 0, 0, -1, 27.312, 22.649)"/>
</g>
</svg>
