<?xml version="1.0" encoding="UTF-8"?>
<svg xmlns="http://www.w3.org/2000/svg" xmlns:xlink="http://www.w3.org/1999/xlink" width="54.624" height="45.298" viewBox="0 0 54.624 45.298">
<defs>
<clipPath id="clip-0">
<path clip-rule="nonzero" d="M 0 0 L 54.625 0 L 54.625 45.296875 L 0 45.296875 Z M 0 0 "/>
</clipPath>
<clipPath id="clip-1">
<path clip-rule="nonzero" d="M 0 1 L 48 1 L 48 45.296875 L 0 45.296875 Z M 0 1 "/>
</clipPath>
<clipPath id="clip-2">
<path clip-rule="nonzero" d="M 6 0 L 54.625 0 L 54.625 45 L 6 45 Z M 6 0 "/>
</clipPath>
<clipPath id="clip-3">
<path clip-rule="nonzero" d="M 0 0 L 54.625 0 L 54.625 45.296875 L 0 45.296875 Z M 0 0 "/>
</clipPath>
</defs>
<path fill-rule="nonzero" fill="rgb(100%, 100%, 100%)" fill-opacity="1" d="M 9.308594 2.664062 C 9.308594 1.570312 8.421875 0.683594 7.328125 0.683594 C 6.234375 0.683594 5.347656 1.570312 5.347656 2.664062 C 5.347656 3.757812 6.234375 4.644531 7.328125 4.644531 C 8.421875 4.644531 9.308594 3.757812 9.308594 2.664062 Z M 9.308594 2.664062 "/>
<path fill-rule="nonzero" fill="rgb(100%, 100%, 100%)" fill-opacity="1" d="M 17.597656 2.664062 C 17.597656 1.40625 16.578125 0.390625 15.320312 0.390625 C 14.066406 0.390625 13.046875 1.40625 13.046875 2.664062 C 13.046875 3.921875 14.066406 4.941406 15.320312 4.941406 C 16.578125 4.941406 17.597656 3.921875 17.597656 2.664062 Z M 17.597656 2.664062 "/>
<path fill-rule="nonzero" fill="rgb(100%, 100%, 100%)" fill-opacity="1" d="M 25.621094 2.664062 C 25.621094 1.390625 24.589844 0.355469 23.316406 0.355469 C 22.039062 0.355469 21.007812 1.390625 21.007812 2.664062 C 21.007812 3.9375 22.039062 4.972656 23.316406 4.972656 C 24.589844 4.972656 25.621094 3.9375 25.621094 2.664062 Z M 25.621094 2.664062 "/>
<path fill-rule="nonzero" fill="rgb(100%, 100%, 100%)" fill-opacity="1" d="M 33.488281 2.664062 C 33.488281 1.460938 32.511719 0.484375 31.308594 0.484375 C 30.105469 0.484375 29.128906 1.460938 29.128906 2.664062 C 29.128906 3.867188 30.105469 4.84375 31.308594 4.84375 C 32.511719 4.84375 33.488281 3.867188 33.488281 2.664062 Z M 33.488281 2.664062 "/>
<path fill-rule="nonzero" fill="rgb(100%, 100%, 100%)" fill-opacity="1" d="M 41.425781 2.664062 C 41.425781 1.492188 40.476562 0.539062 39.304688 0.539062 C 38.128906 0.539062 37.179688 1.492188 37.179688 2.664062 C 37.179688 3.835938 38.128906 4.789062 39.304688 4.789062 C 40.476562 4.789062 41.425781 3.835938 41.425781 2.664062 Z M 41.425781 2.664062 "/>
<path fill-rule="nonzero" fill="rgb(100%, 100%, 100%)" fill-opacity="1" d="M 49.484375 2.664062 C 49.484375 1.457031 48.503906 0.476562 47.296875 0.476562 C 46.089844 0.476562 45.109375 1.457031 45.109375 2.664062 C 45.109375 3.871094 46.089844 4.851562 47.296875 4.851562 C 48.503906 4.851562 49.484375 3.871094 49.484375 2.664062 Z M 49.484375 2.664062 "/>
<path fill-rule="nonzero" fill="rgb(100%, 100%, 100%)" fill-opacity="1" d="M 9.386719 10.660156 C 9.386719 9.519531 8.464844 8.597656 7.328125 8.597656 C 6.191406 8.597656 5.269531 9.519531 5.269531 10.660156 C 5.269531 11.796875 6.191406 12.71875 7.328125 12.71875 C 8.464844 12.71875 9.386719 11.796875 9.386719 10.660156 Z M 9.386719 10.660156 "/>
<path fill-rule="nonzero" fill="rgb(100%, 100%, 100%)" fill-opacity="1" d="M 17.644531 10.660156 C 17.644531 9.375 16.605469 8.335938 15.320312 8.335938 C 14.039062 8.335938 12.996094 9.375 12.996094 10.660156 C 12.996094 11.941406 14.039062 12.980469 15.320312 12.980469 C 16.605469 12.980469 17.644531 11.941406 17.644531 10.660156 Z M 17.644531 10.660156 "/>
<path fill-rule="nonzero" fill="rgb(100%, 100%, 100%)" fill-opacity="1" d="M 25.46875 10.660156 C 25.46875 9.46875 24.503906 8.503906 23.316406 8.503906 C 22.125 8.503906 21.160156 9.46875 21.160156 10.660156 C 21.160156 11.847656 22.125 12.8125 23.316406 12.8125 C 24.503906 12.8125 25.46875 11.847656 25.46875 10.660156 Z M 25.46875 10.660156 "/>
<path fill-rule="nonzero" fill="rgb(100%, 100%, 100%)" fill-opacity="1" d="M 33.039062 10.660156 C 33.039062 9.703125 32.265625 8.925781 31.308594 8.925781 C 30.351562 8.925781 29.578125 9.703125 29.578125 10.660156 C 29.578125 11.613281 30.351562 12.390625 31.308594 12.390625 C 32.265625 12.390625 33.039062 11.613281 33.039062 10.660156 Z M 33.039062 10.660156 "/>
<path fill-rule="nonzero" fill="rgb(100%, 100%, 100%)" fill-opacity="1" d="M 40.921875 10.660156 C 40.921875 9.761719 40.199219 9.039062 39.304688 9.039062 C 38.40625 9.039062 37.683594 9.761719 37.683594 10.660156 C 37.683594 11.554688 38.40625 12.277344 39.304688 12.277344 C 40.199219 12.277344 40.921875 11.554688 40.921875 10.660156 Z M 40.921875 10.660156 "/>
<path fill-rule="nonzero" fill="rgb(100%, 100%, 100%)" fill-opacity="1" d="M 49.09375 10.660156 C 49.09375 9.667969 48.289062 8.863281 47.296875 8.863281 C 46.304688 8.863281 45.5 9.667969 45.5 10.660156 C 45.5 11.648438 46.304688 12.453125 47.296875 12.453125 C 48.289062 12.453125 49.09375 11.648438 49.09375 10.660156 Z M 49.09375 10.660156 "/>
<path fill-rule="nonzero" fill="rgb(100%, 100%, 100%)" fill-opacity="1" d="M 9.316406 18.652344 C 9.316406 17.554688 8.425781 16.664062 7.328125 16.664062 C 6.230469 16.664062 5.339844 17.554688 5.339844 18.652344 C 5.339844 19.75 6.230469 20.640625 7.328125 20.640625 C 8.425781 20.640625 9.316406 19.75 9.316406 18.652344 Z M 9.316406 18.652344 "/>
<path fill-rule="nonzero" fill="rgb(100%, 100%, 100%)" fill-opacity="1" d="M 17.621094 18.652344 C 17.621094 17.382812 16.589844 16.351562 15.320312 16.351562 C 14.050781 16.351562 13.023438 17.382812 13.023438 18.652344 C 13.023438 19.921875 14.050781 20.953125 15.320312 20.953125 C 16.589844 20.953125 17.621094 19.921875 17.621094 18.652344 Z M 17.621094 18.652344 "/>
<path fill-rule="nonzero" fill="rgb(100%, 100%, 100%)" fill-opacity="1" d="M 25.4375 18.652344 C 25.4375 17.480469 24.488281 16.527344 23.316406 16.527344 C 22.140625 16.527344 21.191406 17.480469 21.191406 18.652344 C 21.191406 19.824219 22.140625 20.777344 23.316406 20.777344 C 24.488281 20.777344 25.4375 19.824219 25.4375 18.652344 Z M 25.4375 18.652344 "/>
<path fill-rule="nonzero" fill="rgb(100%, 100%, 100%)" fill-opacity="1" d="M 32.300781 18.652344 C 32.300781 18.105469 31.855469 17.660156 31.308594 17.660156 C 30.761719 17.660156 30.316406 18.105469 30.316406 18.652344 C 30.316406 19.199219 30.761719 19.644531 31.308594 19.644531 C 31.855469 19.644531 32.300781 19.199219 32.300781 18.652344 Z M 32.300781 18.652344 "/>
<path fill-rule="nonzero" fill="rgb(100%, 100%, 100%)" fill-opacity="1" d="M 40.332031 18.652344 C 40.332031 18.082031 39.871094 17.621094 39.304688 17.621094 C 38.734375 17.621094 38.273438 18.082031 38.273438 18.652344 C 38.273438 19.21875 38.734375 19.679688 39.304688 19.679688 C 39.871094 19.679688 40.332031 19.21875 40.332031 18.652344 Z M 40.332031 18.652344 "/>
<path fill-rule="nonzero" fill="rgb(100%, 100%, 100%)" fill-opacity="1" d="M 48.652344 18.652344 C 48.652344 17.902344 48.046875 17.296875 47.296875 17.296875 C 46.546875 17.296875 45.941406 17.902344 45.941406 18.652344 C 45.941406 19.402344 46.546875 20.007812 47.296875 20.007812 C 48.046875 20.007812 48.652344 19.402344 48.652344 18.652344 Z M 48.652344 18.652344 "/>
<path fill-rule="nonzero" fill="rgb(100%, 100%, 100%)" fill-opacity="1" d="M 9.027344 26.644531 C 9.027344 25.707031 8.265625 24.945312 7.328125 24.945312 C 6.386719 24.945312 5.628906 25.707031 5.628906 26.644531 C 5.628906 27.585938 6.386719 28.347656 7.328125 28.347656 C 8.265625 28.347656 9.027344 27.585938 9.027344 26.644531 Z M 9.027344 26.644531 "/>
<path fill-rule="nonzero" fill="rgb(100%, 100%, 100%)" fill-opacity="1" d="M 17.347656 26.644531 C 17.347656 25.527344 16.441406 24.617188 15.320312 24.617188 C 14.203125 24.617188 13.292969 25.527344 13.292969 26.644531 C 13.292969 27.765625 14.203125 28.671875 15.320312 28.671875 C 16.441406 28.671875 17.347656 27.765625 17.347656 26.644531 Z M 17.347656 26.644531 "/>
<path fill-rule="nonzero" fill="rgb(100%, 100%, 100%)" fill-opacity="1" d="M 25.375 26.644531 C 25.375 25.507812 24.453125 24.585938 23.316406 24.585938 C 22.175781 24.585938 21.253906 25.507812 21.253906 26.644531 C 21.253906 27.785156 22.175781 28.707031 23.316406 28.707031 C 24.453125 28.707031 25.375 27.785156 25.375 26.644531 Z M 25.375 26.644531 "/>
<path fill-rule="nonzero" fill="rgb(100%, 100%, 100%)" fill-opacity="1" d="M 32.242188 26.644531 C 32.242188 26.132812 31.824219 25.714844 31.308594 25.714844 C 30.792969 25.714844 30.378906 26.132812 30.378906 26.644531 C 30.378906 27.160156 30.792969 27.578125 31.308594 27.578125 C 31.824219 27.578125 32.242188 27.160156 32.242188 26.644531 Z M 32.242188 26.644531 "/>
<path fill-rule="nonzero" fill="rgb(100%, 100%, 100%)" fill-opacity="1" d="M 40.054688 26.644531 C 40.054688 26.230469 39.71875 25.890625 39.304688 25.890625 C 38.886719 25.890625 38.550781 26.230469 38.550781 26.644531 C 38.550781 27.0625 38.886719 27.398438 39.304688 27.398438 C 39.71875 27.398438 40.054688 27.0625 40.054688 26.644531 Z M 40.054688 26.644531 "/>
<path fill-rule="nonzero" fill="rgb(100%, 100%, 100%)" fill-opacity="1" d="M 48.367188 26.644531 C 48.367188 26.054688 47.886719 25.578125 47.296875 25.578125 C 46.707031 25.578125 46.226562 26.054688 46.226562 26.644531 C 46.226562 27.238281 46.707031 27.714844 47.296875 27.714844 C 47.886719 27.714844 48.367188 27.238281 48.367188 26.644531 Z M 48.367188 26.644531 "/>
<path fill-rule="nonzero" fill="rgb(100%, 100%, 100%)" fill-opacity="1" d="M 8.578125 34.640625 C 8.578125 33.949219 8.019531 33.386719 7.328125 33.386719 C 6.636719 33.386719 6.074219 33.949219 6.074219 34.640625 C 6.074219 35.332031 6.636719 35.890625 7.328125 35.890625 C 8.019531 35.890625 8.578125 35.332031 8.578125 34.640625 Z M 8.578125 34.640625 "/>
<path fill-rule="nonzero" fill="rgb(100%, 100%, 100%)" fill-opacity="1" d="M 16.757812 34.640625 C 16.757812 33.847656 16.113281 33.203125 15.320312 33.203125 C 14.527344 33.203125 13.886719 33.847656 13.886719 34.640625 C 13.886719 35.433594 14.527344 36.074219 15.320312 36.074219 C 16.113281 36.074219 16.757812 35.433594 16.757812 34.640625 Z M 16.757812 34.640625 "/>
<path fill-rule="nonzero" fill="rgb(100%, 100%, 100%)" fill-opacity="1" d="M 24.640625 34.640625 C 24.640625 33.910156 24.046875 33.316406 23.316406 33.316406 C 22.582031 33.316406 21.992188 33.910156 21.992188 34.640625 C 21.992188 35.371094 22.582031 35.964844 23.316406 35.964844 C 24.046875 35.964844 24.640625 35.371094 24.640625 34.640625 Z M 24.640625 34.640625 "/>
<path fill-rule="nonzero" fill="rgb(100%, 100%, 100%)" fill-opacity="1" d="M 32.210938 34.640625 C 32.210938 34.140625 31.804688 33.738281 31.308594 33.738281 C 30.8125 33.738281 30.410156 34.140625 30.410156 34.640625 C 30.410156 35.136719 30.8125 35.539062 31.308594 35.539062 C 31.804688 35.539062 32.210938 35.136719 32.210938 34.640625 Z M 32.210938 34.640625 "/>
<path fill-rule="nonzero" fill="rgb(100%, 100%, 100%)" fill-opacity="1" d="M 40.035156 34.640625 C 40.035156 34.234375 39.707031 33.90625 39.304688 33.90625 C 38.898438 33.90625 38.570312 34.234375 38.570312 34.640625 C 38.570312 35.042969 38.898438 35.371094 39.304688 35.371094 C 39.707031 35.371094 40.035156 35.042969 40.035156 34.640625 Z M 40.035156 34.640625 "/>
<path fill-rule="nonzero" fill="rgb(100%, 100%, 100%)" fill-opacity="1" d="M 48.289062 34.640625 C 48.289062 34.09375 47.84375 33.648438 47.296875 33.648438 C 46.75 33.648438 46.304688 34.09375 46.304688 34.640625 C 46.304688 35.1875 46.75 35.632812 47.296875 35.632812 C 47.84375 35.632812 48.289062 35.1875 48.289062 34.640625 Z M 48.289062 34.640625 "/>
<path fill-rule="nonzero" fill="rgb(100%, 100%, 100%)" fill-opacity="1" d="M 8.195312 42.632812 C 8.195312 42.152344 7.808594 41.765625 7.328125 41.765625 C 6.847656 41.765625 6.457031 42.152344 6.457031 42.632812 C 6.457031 43.113281 6.847656 43.503906 7.328125 43.503906 C 7.808594 43.503906 8.195312 43.113281 8.195312 42.632812 Z M 8.195312 42.632812 "/>
<path fill-rule="nonzero" fill="rgb(100%, 100%, 100%)" fill-opacity="1" d="M 16.253906 42.632812 C 16.253906 42.117188 15.835938 41.699219 15.320312 41.699219 C 14.804688 41.699219 14.390625 42.117188 14.390625 42.632812 C 14.390625 43.148438 14.804688 43.566406 15.320312 43.566406 C 15.835938 43.566406 16.253906 43.148438 16.253906 42.632812 Z M 16.253906 42.632812 "/>
<path fill-rule="nonzero" fill="rgb(100%, 100%, 100%)" fill-opacity="1" d="M 24.1875 42.632812 C 24.1875 42.152344 23.796875 41.761719 23.316406 41.761719 C 22.835938 41.761719 22.445312 42.152344 22.445312 42.632812 C 22.445312 43.113281 22.835938 43.503906 23.316406 43.503906 C 23.796875 43.503906 24.1875 43.113281 24.1875 42.632812 Z M 24.1875 42.632812 "/>
<path fill-rule="nonzero" fill="rgb(100%, 100%, 100%)" fill-opacity="1" d="M 32.054688 42.632812 C 32.054688 42.222656 31.71875 41.886719 31.308594 41.886719 C 30.898438 41.886719 30.5625 42.222656 30.5625 42.632812 C 30.5625 43.046875 30.898438 43.378906 31.308594 43.378906 C 31.71875 43.378906 32.054688 43.046875 32.054688 42.632812 Z M 32.054688 42.632812 "/>
<path fill-rule="nonzero" fill="rgb(100%, 100%, 100%)" fill-opacity="1" d="M 40.078125 42.632812 C 40.078125 42.207031 39.730469 41.859375 39.304688 41.859375 C 38.875 41.859375 38.527344 42.207031 38.527344 42.632812 C 38.527344 43.0625 38.875 43.410156 39.304688 43.410156 C 39.730469 43.410156 40.078125 43.0625 40.078125 42.632812 Z M 40.078125 42.632812 "/>
<path fill-rule="nonzero" fill="rgb(100%, 100%, 100%)" fill-opacity="1" d="M 48.367188 42.632812 C 48.367188 42.042969 47.886719 41.5625 47.296875 41.5625 C 46.703125 41.5625 46.226562 42.042969 46.226562 42.632812 C 46.226562 43.226562 46.703125 43.707031 47.296875 43.707031 C 47.886719 43.707031 48.367188 43.226562 48.367188 42.632812 Z M 48.367188 42.632812 "/>
<g clip-path="url(#clip-0)">
<path fill="none" stroke-width="4.252" stroke-linecap="round" stroke-linejoin="miter" stroke="rgb(0%, 0%, 0%)" stroke-opacity="1" stroke-miterlimit="10" d="M 0.402844 -3.304125 C 0.0122187 -5.44475 -1.144031 -7.374437 -2.851063 -8.726 C -4.933094 -10.378344 -7.601063 -11.022875 -10.257313 -10.925219 C -13.526844 -10.804125 -16.640125 -9.604906 -19.319813 -7.726 C -22.604969 -5.425219 -25.132313 -2.19475 -26.577625 1.551344 " transform="matrix(1, 0, 0, -1, 27.312, 22.649)"/>
<path fill="none" stroke-width="4.252" stroke-linecap="round" stroke-linejoin="miter" stroke="rgb(0%, 0%, 0%)" stroke-opacity="1" stroke-miterlimit="10" d="M -0.401844 3.30525 C -0.0112188 5.445875 1.145031 7.371656 2.852062 8.727125 C 4.934094 10.379469 7.602062 11.024 10.258312 10.926344 C 13.527844 10.80525 16.641125 9.602125 19.316906 7.727125 C 22.605969 5.422438 25.133312 2.191969 26.578625 -1.550219 " transform="matrix(1, 0, 0, -1, 27.312, 22.649)"/>
<path fill="none" stroke-width="5.27269" stroke-linecap="round" stroke-linejoin="miter" stroke="rgb(0%, 0%, 0%)" stroke-opacity="1" stroke-miterlimit="10" d="M 1.402844 -3.018969 C 1.691906 -5.175219 1.188 -7.366625 -0.015125 -9.179125 C -1.483875 -11.393969 -3.823719 -12.831469 -6.382313 -13.561937 C -9.526844 -14.456469 -12.858875 -14.276781 -15.983875 -13.31975 C -19.823719 -12.143969 -23.226063 -9.851 -25.757313 -6.737719 " transform="matrix(1, 0, 0, -1, 27.312, 22.649)"/>
<path fill="none" stroke-width="5.27269" stroke-linecap="round" stroke-linejoin="miter" stroke="rgb(0%, 0%, 0%)" stroke-opacity="1" stroke-miterlimit="10" d="M -1.401844 3.020094 C -1.690906 5.176344 -1.187 7.36775 0.016125 9.18025 C 1.484875 11.395094 3.824719 12.832594 6.379406 13.559156 C 9.523937 14.453688 12.859875 14.274 15.984875 13.316969 C 19.824719 12.145094 23.227062 9.852125 25.758312 6.738844 " transform="matrix(1, 0, 0, -1, 27.312, 22.649)"/>
</g>
<g clip-path="url(#clip-1)">
<path fill="none" stroke-width="1.41731" stroke-linecap="round" stroke-linejoin="miter" stroke="rgb(100%, 100%, 100%)" stroke-opacity="1" stroke-miterlimit="10" d="M 0.402844 -3.304125 C 0.0122187 -5.44475 -1.144031 -7.374437 -2.851063 -8.726 C -4.933094 -10.378344 -7.601063 -11.022875 -10.257313 -10.925219 C -13.526844 -10.804125 -16.640125 -9.604906 -19.319813 -7.726 C -22.604969 -5.425219 -25.132313 -2.19475 -26.577625 1.551344 " transform="matrix(1, 0, 0, -1, 27.312, 22.649)"/>
</g>
<g clip-path="url(#clip-2)">
<path fill="none" stroke-width="1.41731" stroke-linecap="round" stroke-linejoin="miter" stroke="rgb(100%, 100%, 100%)" stroke-opacity="1" stroke-miterlimit="10" d="M -0.401844 3.30525 C -0.0112188 5.445875 1.145031 7.371656 2.852062 8.727125 C 4.934094 10.379469 7.602062 11.024 10.258312 10.926344 C 13.527844 10.80525 16.641125 9.602125 19.316906 7.727125 C 22.605969 5.422438 25.133312 2.191969 26.578625 -1.550219 " transform="matrix(1, 0, 0, -1, 27.312, 22.649)"/>
</g>
<g clip-path="url(#clip-3)">
<path fill="none" stroke-width="2.438" stroke-linecap="round" stroke-linejoin="miter" stroke="rgb(100%, 100%, 100%)" stroke-opacity="1" stroke-miterlimit="10" d="M 1.402844 -3.018969 C 1.691906 -5.175219 1.188 -7.366625 -0.015125 -9.179125 C -1.483875 -11.393969 -3.823719 -12.831469 -6.382313 -13.561937 C -9.526844 -14.456469 -12.858875 -14.276781 -15.983875 -13.31975 C -19.823719 -12.143969 -23.226063 -9.851 -25.757313 -6.737719 " transform="matrix(1, 0, 0, -1, 27.312, 22.649)"/>
<path fill="none" stroke-width="2.438" stroke-linecap="round" stroke-linejoin="miter" stroke="rgb(100%, 100%, 100%)" stroke-opacity="1" stroke-miterlimit="10" d="M -1.401844 3.020094 C -1.690906 5.176344 -1.187 7.36775 0.016125 9.18025 C 1.484875 11.395094 3.824719 12.832594 6.379406 13.559156 C 9.523937 14.453688 12.859875 14.274 15.984875 13.316969 C 19.824719 12.145094 23.227062 9.852125 25.758312 6.738844 " transform="matrix(1, 0, 0, -1, 27.312, 22.649)"/>
</g>
</svg>
