<svg width="508.04" height="75.86" xmlns:xlink="http://www.w3.org/1999/xlink" xmlns="http://www.w3.org/2000/svg"><defs><path d="M.39 0h3.016v-.484l-.844-.063-.203-.172v-2.36a7.1 7.1 0 0 0 .891.063c1.922 0 3.094-1.03 3.094-2.562 0-1.828-1.032-2.438-3.313-2.438H.297v.47l.781.077.203.172v6.578l-.203.172-.687.063zm1.97-3.64v-3.813c.203-.016.421-.016.609-.016 1.531 0 2.265.578 2.265 1.86 0 1.312-.734 2.03-2.093 2.03-.172 0-.438-.03-.782-.062zm0 0" id="b"/><path d="M.36 0h2.874v-.438l-.828-.046-.203-.204v-3.406c.485-.578.906-.875 1.297-.875.25 0 .453.094.61.282h.39V-5.72a1.758 1.758 0 0 0-.719-.156c-.094 0-.203 0-.297.031-.437.344-.859.735-1.28 1.157v-1.125H1.75l-1.39.437v.36h.843v4.327l-.219.204-.625.046zm0 0" id="c"/><path d="M5.36-1.266c-.688.454-1.282.688-1.876.688-1.218 0-2.015-.906-2.015-2.438v-.125h3.875c.015-.14.015-.25.015-.375 0-1.468-.859-2.359-2.156-2.359C1.61-5.875.438-4.641.438-2.828c0 1.75 1.092 2.937 2.67 2.937.75 0 1.532-.234 2.25-.718zM4.296-3.64H1.53c.078-1.015.75-1.687 1.516-1.687.797 0 1.25.516 1.25 1.484v.203zm0 0" id="d"/><path d="M-.063-5.75v.438l.735.078L2.594 0h.672l2.093-5.219.704-.093v-.438H3.938v.438l.656.046.093.204-1.53 3.906L1.75-5.063l.156-.203.625-.046v-.438Zm0 0" id="e"/><path d="M.39-8.016v.47l.688.077.203.172v6.578l-.203.172-.687.063V0h2.906v-.484l-.735-.063-.203-.172v-3.219h4.11v3.22l-.203.171-.75.063V0h2.906v-.484L7.75-.547l-.203-.172v-6.578l.203-.172.672-.078v-.469H5.516v.47l.75.077.203.172v2.813h-4.11v-2.813l.204-.172.734-.078v-.469zm0 0" id="f"/><path d="M3.219-5.875c-1.61 0-2.781 1.219-2.781 3 0 1.766 1.171 2.984 2.78 2.984C4.814.11 6-1.109 6-2.875c0-1.781-1.172-3-2.781-3zm0 .516c.969 0 1.656.937 1.656 2.484S4.187-.406 3.219-.406c-.953 0-1.656-.938-1.656-2.469 0-1.563.687-2.484 1.656-2.484zm0 0" id="g"/><path d="M.328 0h2.797v-.438l-.672-.046-.219-.204v-8.109h-.453l-1.453.438V-8h.922v7.313l-.203.203-.719.046Zm0 0" id="h"/><path d="M4.578-8v2.25a5.296 5.296 0 0 0-1.062-.125C1.703-5.875.437-4.609.437-2.687c0 1.671 1 2.796 2.297 2.796.657 0 1.235-.234 1.844-.734V0h1.766v-.438l-.578-.046-.204-.204v-8.109H5.11l-1.453.438V-8Zm0 6.938c-.437.28-.875.421-1.297.421-1.078 0-1.797-.859-1.797-2.25 0-1.5.829-2.468 2.047-2.468.281 0 .64.078 1.047.203zm0 0" id="i"/><path d="M1.047-5.031v3.86c0 .843.25 1.202 1.25 1.202.469 0 1-.078 1.562-.265v-.438a3.74 3.74 0 0 1-.828.094c-.828 0-.984-.39-.984-1.297v-3.156h1.812v-.563H2.047v-1.265h-.438L1.094-5.75l-.797.344v.375zm0 0" id="k"/><path d="M1.844-8.469a.7.7 0 0 0-.703.703c0 .375.312.672.703.672a.68.68 0 0 0 .687-.672.697.697 0 0 0-.687-.703zm-.047 2.656-1.375.438v.36h.828v4.327l-.203.204-.625.046V0h2.687v-.438l-.64-.046-.219-.204v-5.125zm0 0" id="l"/><path d="M5.422-5.063c-.266-.53-.719-.812-1.313-.812-.5 0-1.125.25-1.906.719v-.657H1.75l-1.39.438v.36h.843v4.327L1-.484l-.64.046V0h2.609v-.438l-.563-.046-.203-.204v-4c.516-.265.969-.39 1.36-.39.718 0 1.046.39 1.046 1.234v3.156l-.203.204-.562.046V0H6.39v-.438l-.563-.046-.219-.204v-4c.516-.25.97-.39 1.344-.39.75 0 1.078.39 1.078 1.234v3.156l-.219.204-.562.046V0h2.61v-.438l-.626-.046-.203-.204v-3.359c0-1.187-.61-1.828-1.547-1.828-.484 0-1.156.281-2.062.813zm0 0" id="m"/><clipPath id="a"><path d="M43 23h52v12.098H43Zm0 0"/></clipPath><clipPath id="j"><path d="M227 9h4.54v5H227Zm0 0"/></clipPath></defs><g clip-path="url(#a)" transform="matrix(2.2 0 0 2.2 -.478 -.478)"><path fill="none" stroke-width=".797" stroke="#ffc888" stroke-miterlimit="10" d="M44.055 23.785V34.7m49.89-10.914V34.7"/></g><path fill="#e6e6e6" stroke-width=".797" stroke="#000" stroke-miterlimit="10" d="M.399 48.42V.4h96.043v48.02Zm0 0"/><g transform="matrix(2.2 0 0 2.2 -.478 -.478)"><use xlink:href="#b" x="10.718" y="15.285"/><use xlink:href="#c" x="17.389" y="15.285"/><use xlink:href="#d" x="21.956" y="15.285"/><use xlink:href="#e" x="27.826" y="15.285"/></g><path fill="#e6e6e6" stroke-width=".797" stroke="#000" stroke-miterlimit="10" d="M206.202 48.42V.4h157.772v48.02Zm0 0"/><g transform="matrix(2.2 0 0 2.2 -.478 -.478)"><use xlink:href="#f" x="117.104" y="14.43"/><use xlink:href="#g" x="125.927" y="14.43"/><use xlink:href="#h" x="132.371" y="14.43"/><use xlink:href="#i" x="135.742" y="14.43"/></g><path fill="none" stroke-width=".797" stroke="#000" stroke-miterlimit="10" d="M439.436 24.41h62.898"/><g clip-path="url(#j)" transform="matrix(2.2 0 0 2.2 -.478 -.478)"><path d="M231.145 11.313 227 9.242l1.55 2.07-1.55 2.074"/></g><g transform="matrix(2.2 0 0 2.2 -.478 -.478)"><use xlink:href="#k" x="203.905" y="24.226"/><use xlink:href="#l" x="207.898" y="24.226"/><use xlink:href="#m" x="211.245" y="24.226"/><use xlink:href="#d" x="221.324" y="24.226"/></g><path fill="none" stroke-width="1.245" stroke="#ff9010" stroke-miterlimit="10" d="M103.618 69.002h95.4"/><path fill="#ff9010" d="m96.442 69.002 11.482 5.741-4.306-5.74 4.306-5.75m98.278 5.749-11.49-5.749 4.305 5.75-4.305 5.74" style="stroke-width:2.2"/></svg>