<svg width="508.04" height="75.86" xmlns:xlink="http://www.w3.org/1999/xlink" xmlns="http://www.w3.org/2000/svg"><defs><path d="M.188-8.016v1.829h.656l.172-1.11.171-.172h1.844v6.75l-.219.172-.796.063V0h3.109v-.484l-.797-.063-.219-.172v-6.75h1.844l.172.172.156 1.11h.657v-1.829zm0 0" id="b"/><path d="M4-.688 4.14 0h1.688v-.438l-.625-.046-.219-.204V-4.14c0-1.218-.53-1.734-1.78-1.734-1.5 0-2.423.625-2.423 1.36 0 .28.11.374.375.374h.828v-1.015c.329-.125.61-.188.907-.188C3.75-5.344 4-4.954 4-4v.375C1.61-3.047.5-2.687.5-1.453.5-.547 1.094.078 2.031.078 2.61.078 3.234-.172 4-.687zm0-.406c-.61.344-1.094.532-1.484.532-.61 0-.97-.391-.97-.985 0-.875.766-1.187 2.454-1.656zm0 0" id="c"/><path d="M.281 2.61h2.797v-.438l-.765-.063-.204-.187v-2c.454.078.813.11 1.125.11 1.766 0 2.938-1.22 2.938-3.11 0-1.672-.984-2.797-2.297-2.797-.563 0-1.125.25-1.766.719v-.657h-.453l-1.375.438v.36h.844v6.937l-.203.187-.64.063zM2.11-.688v-4.016c.454-.266.86-.406 1.266-.406 1.031 0 1.734.812 1.734 2.187C5.11-1.453 4.297-.5 3.125-.5c-.281 0-.61-.063-1.016-.188zm0 0" id="d"/><path d="M1.047-5.031v3.86c0 .843.25 1.202 1.25 1.202.469 0 1-.078 1.562-.265v-.438a3.74 3.74 0 0 1-.828.094c-.828 0-.984-.39-.984-1.297v-3.156h1.812v-.563H2.047v-1.265h-.438L1.094-5.75l-.797.344v.375zm0 0" id="g"/><path d="M1.844-8.469a.7.7 0 0 0-.703.703c0 .375.312.672.703.672a.68.68 0 0 0 .687-.672.697.697 0 0 0-.687-.703zm-.047 2.656-1.375.438v.36h.828v4.327l-.203.204-.625.046V0h2.687v-.438l-.64-.046-.219-.204v-5.125zm0 0" id="h"/><path d="M5.422-5.063c-.266-.53-.719-.812-1.313-.812-.5 0-1.125.25-1.906.719v-.657H1.75l-1.39.438v.36h.843v4.327L1-.484l-.64.046V0h2.609v-.438l-.563-.046-.203-.204v-4c.516-.265.969-.39 1.36-.39.718 0 1.046.39 1.046 1.234v3.156l-.203.204-.562.046V0H6.39v-.438l-.563-.046-.219-.204v-4c.516-.25.97-.39 1.344-.39.75 0 1.078.39 1.078 1.234v3.156l-.219.204-.562.046V0h2.61v-.438l-.626-.046-.203-.204v-3.359c0-1.187-.61-1.828-1.547-1.828-.484 0-1.156.281-2.062.813zm0 0" id="i"/><path d="M5.36-1.266c-.688.454-1.282.688-1.876.688-1.218 0-2.015-.906-2.015-2.438v-.125h3.875c.015-.14.015-.25.015-.375 0-1.468-.859-2.359-2.156-2.359C1.61-5.875.438-4.641.438-2.828c0 1.75 1.092 2.937 2.67 2.937.75 0 1.532-.234 2.25-.718zM4.296-3.64H1.53c.078-1.015.75-1.687 1.516-1.687.797 0 1.25.516 1.25 1.484v.203zm0 0" id="j"/><path d="M2.297-2.984a.643.643 0 0 0-.64-.641.64.64 0 0 0-.626.64c0 .344.282.626.625.626a.63.63 0 0 0 .64-.625zm0 0" id="e"/><clipPath id="a"><path d="M43 23h83v12.098H43Zm0 0"/></clipPath><clipPath id="f"><path d="M227 9h4.54v5H227Zm0 0"/></clipPath></defs><g clip-path="url(#a)" transform="matrix(2.2 0 0 2.2 -.478 -.478)"><path fill="none" stroke-width=".797" stroke="#ffc888" stroke-miterlimit="10" d="M44.055 23.785V34.7m18.707-10.914V34.7m43.656-10.914V34.7m18.707-10.914V34.7"/></g><path fill="#e6e6e6" stroke-width=".797" stroke="#000" stroke-miterlimit="10" d="M.399 48.42V.4h96.043v48.02Zm0 0"/><use xlink:href="#b" x="12.912" y="14.029" transform="matrix(2.2 0 0 2.2 -.478 -.478)"/><g transform="matrix(2.2 0 0 2.2 -.478 -.478)"><use xlink:href="#c" x="18.89" y="14.029"/><use xlink:href="#d" x="24.951" y="14.029"/></g><path fill="#e6e6e6" stroke-width=".797" stroke="#000" stroke-miterlimit="10" d="M137.598 48.42V.4h96.043v48.02Zm0 0"/><use xlink:href="#b" x="75.275" y="14.029" transform="matrix(2.2 0 0 2.2 -.478 -.478)"/><g transform="matrix(2.2 0 0 2.2 -.478 -.478)"><use xlink:href="#c" x="81.253" y="14.029"/><use xlink:href="#d" x="87.314" y="14.029"/></g><path fill="#e6e6e6" stroke-width=".797" stroke="#000" stroke-miterlimit="10" d="M274.797 48.42V.4h96.044v48.02Zm0 0"/><use xlink:href="#b" x="137.637" y="14.029" transform="matrix(2.2 0 0 2.2 -.478 -.478)"/><g transform="matrix(2.2 0 0 2.2 -.478 -.478)"><use xlink:href="#c" x="143.615" y="14.029"/><use xlink:href="#d" x="149.676" y="14.029"/></g><use xlink:href="#e" x="179.516" y="13.969" transform="matrix(2.2 0 0 2.2 -.478 -.478)"/><use xlink:href="#e" x="184.834" y="13.969" transform="matrix(2.2 0 0 2.2 -.478 -.478)"/><use xlink:href="#e" x="190.139" y="13.969" transform="matrix(2.2 0 0 2.2 -.478 -.478)"/><path fill="none" stroke-width=".797" stroke="#000" stroke-miterlimit="10" d="M439.436 24.41h62.898"/><g clip-path="url(#f)" transform="matrix(2.2 0 0 2.2 -.478 -.478)"><path d="M231.145 11.313 227 9.242l1.55 2.07-1.55 2.074"/></g><g transform="matrix(2.2 0 0 2.2 -.478 -.478)"><use xlink:href="#g" x="203.905" y="24.226"/><use xlink:href="#h" x="207.898" y="24.226"/><use xlink:href="#i" x="211.245" y="24.226"/><use xlink:href="#j" x="221.324" y="24.226"/></g><path fill="none" stroke-width="1.245" stroke="#ff9010" stroke-miterlimit="10" d="M103.618 69.002h26.804"/><path fill="#ff9010" d="m96.442 69.002 11.482 5.741-4.306-5.74 4.306-5.75m29.674 5.749-11.482-5.749 4.306 5.75-4.306 5.74" style="stroke-width:2.2"/><path fill="none" stroke-width="1.245" stroke="#ff9010" stroke-miterlimit="10" d="M240.817 69.002h26.804"/><path fill="#ff9010" d="m233.641 69.002 11.482 5.741-4.306-5.74 4.306-5.75m29.674 5.749-11.481-5.749 4.305 5.75-4.305 5.74" style="stroke-width:2.2"/></svg>