<svg height="179.305" viewBox="0 0 317.881 99.614" width="762.915" xmlns="http://www.w3.org/2000/svg" xmlns:xlink="http://www.w3.org/1999/xlink"><clipPath id="a"><path d="M298 0h19.883v20H298zm0 0"/></clipPath><clipPath id="b"><path d="M281 0h36.883v37H281zm0 0"/></clipPath><clipPath id="c"><path d="M298 20h19.883v20H298zm0 0"/></clipPath><clipPath id="d"><path d="M281 3h36.883v54H281zm0 0"/></clipPath><clipPath id="e"><path d="M298 40h19.883v20H298zm0 0"/></clipPath><clipPath id="f"><path d="M281 23h36.883v54H281zm0 0"/></clipPath><clipPath id="g"><path d="M298 60h19.883v20H298zm0 0"/></clipPath><clipPath id="h"><path d="M281 43h36.883v54H281zm0 0"/></clipPath><clipPath id="i"><path d="M0 79h25v20.613H0zm0 0"/></clipPath><clipPath id="j"><path d="M0 63h42v36.613H0zm0 0"/></clipPath><clipPath id="k"><path d="M25 79h25v20.613H25zm0 0"/></clipPath><clipPath id="l"><path d="M8 63h59v36.613H8zm0 0"/></clipPath><clipPath id="m"><path d="M50 79h25v20.613H50zm0 0"/></clipPath><clipPath id="n"><path d="M33 63h59v36.613H33zm0 0"/></clipPath><clipPath id="o"><path d="M75 79h119v20.613H75zm0 0"/></clipPath><clipPath id="p"><path d="M58 63h153v36.613H58zm0 0"/></clipPath><clipPath id="q"><path d="M194 79h25v20.613h-25zm0 0"/></clipPath><clipPath id="r"><path d="M177 63h58v36.613h-58zm0 0"/></clipPath><clipPath id="s"><path d="M218 79h25v20.613h-25zm0 0"/></clipPath><clipPath id="t"><path d="M201 63h59v36.613h-59zm0 0"/></clipPath><clipPath id="u"><path d="M258 79h20v20.613h-20zm0 0"/></clipPath><clipPath id="v"><path d="M241 63h54v36.613h-54zm0 0"/></clipPath><clipPath id="w"><path d="M278 79h20v20.613h-20zm0 0"/></clipPath><clipPath id="x"><path d="M261 63h54v36.613h-54zm0 0"/></clipPath><clipPath id="y"><path d="M298 79h19.883v20.613H298zm0 0"/></clipPath><clipPath id="z"><path d="M281 63h36.883v36.613H281zm0 0"/></clipPath><clipPath id="A"><path d="M0 0h30v99.613H0zm0 0"/></clipPath><clipPath id="B"><path d="M19 0h38v99.613H19zm0 0"/></clipPath><clipPath id="C"><path d="M38 0h39v99.613H38zm0 0"/></clipPath><clipPath id="D"><path d="M118 0h38v99.613h-38zm0 0"/></clipPath><clipPath id="E"><path d="M177 0h41v99.613h-41zm0 0"/></clipPath><clipPath id="F"><path d="M217 0h39v99.613h-39zm0 0"/></clipPath><clipPath id="G"><path d="M237 0h58v99.613h-58zm0 0"/></clipPath><clipPath id="H"><path d="M264 0h37v99.613h-37zm0 0"/></clipPath><clipPath id="I"><path d="M296 0h21.883v99.613H296zm0 0"/></clipPath><clipPath id="J"><path d="M4 20h313.883v44H4zm0 0"/></clipPath><clipPath id="K"><path d="M1 14h316.883v30H1zm0 0"/></clipPath><symbol id="L" overflow="visible"><path d="M1.75-4.094C.828-4.094.234-3.328.234-2 .234-.687.828.078 1.75.078 2.688.078 3.281-.687 3.281-2c0-1.328-.594-2.094-1.531-2.094zm.016.344c.468 0 .703.578.703 1.734 0 1.172-.235 1.75-.703 1.75-.485 0-.72-.593-.72-1.765 0-1.14.25-1.719.72-1.719zm0 0"/></symbol><symbol id="M" overflow="visible"><path d="M.188 1.047C.875.969 1.313.469 1.313-.141c0-.39-.22-.625-.547-.625-.25 0-.407.157-.407.407 0 .125.032.234.125.312h.36v.063c0 .421-.235.671-.656.75zm0 0"/></symbol><symbol id="N" overflow="visible"><path d="M1.938-4.078l-1.282.437v.313l.844-.125.063.062v2.954l-.079.109-.593.031V0h2.078v-.297l-.563-.031-.078-.094v-3.656zm0 0"/></symbol><symbol id="O" overflow="visible"><path d="M1.031-.61c1.328-.906 2.032-1.546 2.032-2.312 0-.687-.516-1.172-1.313-1.172-.86 0-1.406.422-1.406.922 0 .25.172.422.422.422a.77.77 0 00.39-.11v-.765a.69.69 0 01.344-.078c.453 0 .734.297.734.844 0 .734-.687 1.406-1.953 2.39V0h2.906v-1.14h-.374l-.11.53zm0 0"/></symbol><symbol id="P" overflow="visible"><path d="M2-2.11c.64-.156.984-.484.984-.953 0-.593-.5-1.015-1.296-1.015-.813 0-1.344.39-1.344.828 0 .234.172.406.437.406a.52.52 0 00.313-.078v-.703a.986.986 0 01.343-.078c.422 0 .735.297.735.719 0 .453-.313.734-.875.734h-.172v.422c.156-.016.281-.031.36-.031.515 0 .827.296.827.734 0 .469-.343.844-.796.844-.125 0-.266-.031-.422-.094l-.188-.64C.812-1.048.75-1.079.672-1.079c-.25 0-.422.156-.422.39 0 .407.469.75 1.203.75 1.031 0 1.672-.546 1.672-1.218 0-.547-.39-.907-1.125-.953zm0 0"/></symbol><symbol id="Q" overflow="visible"><path d="M2.125-4.047L.156-1.563v.485h1.86V.188h.687v-1.266h.688v-.484h-.688v-2.485zm-.11.828v1.656H.688zm0 0"/></symbol><symbol id="R" overflow="visible"><path d="M.578-4.016v2.079c.235-.063.469-.094.719-.094.656 0 1.047.344 1.047.875 0 .484-.375.86-.86.86-.093 0-.187 0-.28-.032L1-1c-.078-.016-.156-.047-.219-.047-.265 0-.453.172-.453.375 0 .406.422.719 1.11.719 1.03 0 1.703-.578 1.703-1.39 0-.704-.532-1.173-1.36-1.173a2.16 2.16 0 00-.718.141v-1.016h1.859v-.625zm0 0"/></symbol><symbol id="S" overflow="visible"><path d="M2.813-4.266C1.25-4.266.28-3.25.28-1.734.28-.594.858.078 1.78.078c.89 0 1.532-.61 1.532-1.469 0-.765-.547-1.312-1.235-1.312-.344 0-.656.11-.953.297.14-.89.64-1.39 1.438-1.453l.25.03zM1.077-2.078c.203-.094.422-.14.64-.14.485 0 .798.359.798.937 0 .625-.282.984-.672.984-.485 0-.766-.469-.766-1.422v-.36zm0 0"/></symbol><symbol id="T" overflow="visible"><path d="M.453-4.016v1.22h.39l.095-.548h1.734L.734.203h.641V.031l1.953-3.656v-.39zm0 0"/></symbol><symbol id="U" overflow="visible"><path d="M2.078-2.266c-.61-.234-.906-.5-.906-.875a.57.57 0 01.578-.593c.375 0 .64.296.64.734a.965.965 0 01-.312.734zm.281.141c.47-.203.704-.531.704-.938 0-.593-.485-1.03-1.25-1.03-.844 0-1.391.452-1.391 1.14 0 .422.219.734.64.937-.53.157-.812.485-.812.938C.25-.406.813.094 1.703.094c.953 0 1.516-.5 1.516-1.188 0-.5-.281-.828-.86-1.031zm-1.03.25c.765.297 1.14.516 1.14.969 0 .375-.281.625-.719.625-.453 0-.797-.36-.797-.86 0-.296.125-.515.375-.734zm0 0"/></symbol><symbol id="V" overflow="visible"><path d="M2.422-1.922a1.087 1.087 0 01-.516.125c-.547 0-.86-.328-.86-.953 0-.61.298-.984.688-.984.454 0 .75.437.75 1.234 0 .203-.03.39-.062.578zM.766.312c1.609-.5 2.5-1.593 2.5-2.812 0-.984-.563-1.594-1.454-1.594C.875-4.094.25-3.5.25-2.625c0 .766.516 1.297 1.219 1.297.297 0 .578-.094.875-.234C2.125-.938 1.64-.47.875-.125l-.266.047zm0 0"/></symbol><path d="M.598 16.656V3.586A2.99 2.99 0 013.586.598H16.66a2.99 2.99 0 012.988 2.988v13.07a2.992 2.992 0 01-2.988 2.992H3.586a2.992 2.992 0 01-2.988-2.992zm19.843 0V3.586A2.988 2.988 0 0123.43.598H36.5a2.988 2.988 0 012.988 2.988v13.07a2.99 2.99 0 01-2.988 2.992H23.43a2.99 2.99 0 01-2.989-2.992zm19.844 0V3.586A2.988 2.988 0 0143.273.598h13.07a2.988 2.988 0 012.989 2.988v13.07a2.99 2.99 0 01-2.988 2.992h-13.07a2.99 2.99 0 01-2.989-2.992zm19.84 0V3.586A2.99 2.99 0 0163.113.598h13.075a2.99 2.99 0 012.988 2.988v13.07a2.992 2.992 0 01-2.989 2.992H63.114a2.992 2.992 0 01-2.988-2.992zm19.844 0V3.586A2.99 2.99 0 0182.957.598h13.07a2.992 2.992 0 012.993 2.988v13.07a2.992 2.992 0 01-2.993 2.992h-13.07a2.992 2.992 0 01-2.988-2.992zm19.844 0V3.586A2.988 2.988 0 01102.8.598h13.07a2.988 2.988 0 012.988 2.988v13.07a2.99 2.99 0 01-2.988 2.992H102.8a2.99 2.99 0 01-2.989-2.992zm19.839 0V3.586a2.992 2.992 0 012.993-2.988h13.07a2.99 2.99 0 012.988 2.988v13.07a2.992 2.992 0 01-2.988 2.992h-13.07a2.992 2.992 0 01-2.993-2.992zm19.844 0V3.586a2.99 2.99 0 012.988-2.988h13.075a2.99 2.99 0 012.988 2.988v13.07a2.992 2.992 0 01-2.988 2.992h-13.075a2.992 2.992 0 01-2.988-2.992zm19.844 0V3.586a2.988 2.988 0 012.988-2.988h13.07a2.988 2.988 0 012.989 2.988v13.07a2.99 2.99 0 01-2.989 2.992h-13.07a2.99 2.99 0 01-2.988-2.992zm19.844 0V3.586a2.988 2.988 0 012.988-2.988h13.07a2.988 2.988 0 012.988 2.988v13.07a2.99 2.99 0 01-2.988 2.992h-13.07a2.99 2.99 0 01-2.988-2.992zm19.839 0V3.586a2.992 2.992 0 012.993-2.988h13.07a2.99 2.99 0 012.988 2.988v13.07a2.992 2.992 0 01-2.988 2.992h-13.07a2.992 2.992 0 01-2.993-2.992zm19.844 0V3.586a2.99 2.99 0 012.988-2.988h13.075a2.99 2.99 0 012.988 2.988v13.07a2.992 2.992 0 01-2.988 2.992h-13.075a2.992 2.992 0 01-2.988-2.992zm19.843 0V3.586A2.988 2.988 0 01241.7.598h13.07a2.988 2.988 0 012.988 2.988v13.07a2.99 2.99 0 01-2.988 2.992H241.7a2.99 2.99 0 01-2.99-2.992zm19.845 0V3.586a2.988 2.988 0 012.988-2.988h32.914a2.99 2.99 0 012.988 2.988v13.07a2.992 2.992 0 01-2.988 2.992h-32.914a2.99 2.99 0 01-2.988-2.992zm0 0" fill="#ccc" stroke="#f2f2f2" stroke-miterlimit="10" stroke-width="1.196"/><g clip-path="url(#a)"><path d="M298.238 16.656V3.586a2.99 2.99 0 012.989-2.988h13.07a2.992 2.992 0 012.992 2.988v13.07a2.992 2.992 0 01-2.992 2.992h-13.07a2.992 2.992 0 01-2.989-2.992zm0 0" fill="#ccc"/></g><g clip-path="url(#b)"><path d="M298.238 16.656V3.586a2.99 2.99 0 012.989-2.988h13.07a2.992 2.992 0 012.992 2.988v13.07a2.992 2.992 0 01-2.992 2.992h-13.07a2.992 2.992 0 01-2.989-2.992zm0 0" fill="none" stroke="#f2f2f2" stroke-miterlimit="10" stroke-width="1.196"/></g><path d="M.598 36.5V23.43a2.988 2.988 0 012.988-2.989h22.992a2.99 2.99 0 012.992 2.989V36.5a2.99 2.99 0 01-2.992 2.988H3.586A2.988 2.988 0 01.598 36.5zm29.765 0V23.43a2.986 2.986 0 012.989-2.989h13.07a2.986 2.986 0 012.988 2.989V36.5a2.986 2.986 0 01-2.988 2.988h-13.07a2.986 2.986 0 01-2.989-2.988zm19.84 0V23.43a2.99 2.99 0 012.992-2.989h13.07a2.988 2.988 0 012.989 2.989V36.5a2.988 2.988 0 01-2.988 2.988h-13.07a2.99 2.99 0 01-2.993-2.988zm19.844 0V23.43a2.988 2.988 0 012.988-2.989H86.11a2.988 2.988 0 012.989 2.989V36.5a2.988 2.988 0 01-2.989 2.988H73.035a2.988 2.988 0 01-2.988-2.988zm19.843 0V23.43a2.986 2.986 0 012.989-2.989h13.07a2.986 2.986 0 012.989 2.989V36.5a2.986 2.986 0 01-2.989 2.988H92.88a2.986 2.986 0 01-2.99-2.988zm19.844 0V23.43a2.986 2.986 0 012.989-2.989h13.07a2.986 2.986 0 012.988 2.989V36.5a2.986 2.986 0 01-2.988 2.988h-13.07a2.986 2.986 0 01-2.989-2.988zm19.84 0V23.43a2.988 2.988 0 012.988-2.989h13.075a2.988 2.988 0 012.988 2.989V36.5a2.988 2.988 0 01-2.988 2.988h-13.075a2.988 2.988 0 01-2.988-2.988zm19.844 0V23.43a2.988 2.988 0 012.988-2.989h13.07a2.99 2.99 0 012.993 2.989V36.5a2.99 2.99 0 01-2.992 2.988h-13.07a2.988 2.988 0 01-2.989-2.988zm19.844 0V23.43a2.986 2.986 0 012.988-2.989h13.07a2.986 2.986 0 012.989 2.989V36.5a2.986 2.986 0 01-2.989 2.988h-13.07a2.986 2.986 0 01-2.988-2.988zm19.843 0V23.43a2.986 2.986 0 012.989-2.989h13.07a2.986 2.986 0 012.988 2.989V36.5a2.986 2.986 0 01-2.988 2.988h-13.07a2.986 2.986 0 01-2.989-2.988zm19.84 0V23.43a2.988 2.988 0 012.989-2.989h13.074a2.988 2.988 0 012.988 2.989V36.5a2.988 2.988 0 01-2.988 2.988h-13.074a2.988 2.988 0 01-2.989-2.988zm19.845 0V23.43a2.988 2.988 0 012.987-2.989h13.07a2.99 2.99 0 012.993 2.989V36.5a2.99 2.99 0 01-2.992 2.988h-13.07a2.988 2.988 0 01-2.989-2.988zm19.843 0V23.43a2.986 2.986 0 012.988-2.989h13.07a2.986 2.986 0 012.989 2.989V36.5a2.986 2.986 0 01-2.989 2.988h-13.07a2.986 2.986 0 01-2.988-2.988zm19.84 0V23.43a2.99 2.99 0 012.992-2.989h22.992a2.988 2.988 0 012.988 2.989V36.5a2.988 2.988 0 01-2.988 2.988h-22.992a2.99 2.99 0 01-2.992-2.988zm0 0" fill="#ccc" stroke="#f2f2f2" stroke-miterlimit="10" stroke-width="1.196"/><g clip-path="url(#c)"><path d="M298.238 36.5V23.43a2.988 2.988 0 012.989-2.989h13.07a2.99 2.99 0 012.992 2.989V36.5a2.99 2.99 0 01-2.992 2.988h-13.07a2.988 2.988 0 01-2.989-2.988zm0 0" fill="#ccc"/></g><g clip-path="url(#d)"><path d="M298.238 36.5V23.43a2.988 2.988 0 012.989-2.989h13.07a2.99 2.99 0 012.992 2.989V36.5a2.99 2.99 0 01-2.992 2.988h-13.07a2.988 2.988 0 01-2.989-2.988zm0 0" fill="none" stroke="#f2f2f2" stroke-miterlimit="10" stroke-width="1.196"/></g><path d="M.598 56.344v-13.07a2.992 2.992 0 012.988-2.993h27.953a2.99 2.99 0 012.988 2.992v13.07a2.988 2.988 0 01-2.988 2.989H3.586a2.99 2.99 0 01-2.988-2.988zm34.726 0v-13.07a2.99 2.99 0 012.989-2.993h13.07a2.99 2.99 0 012.988 2.992v13.07a2.988 2.988 0 01-2.988 2.989h-13.07a2.988 2.988 0 01-2.989-2.988zm19.84 0v-13.07a2.992 2.992 0 012.988-2.993h13.075a2.992 2.992 0 012.988 2.992v13.07a2.99 2.99 0 01-2.988 2.989H58.152a2.99 2.99 0 01-2.988-2.988zm19.844 0v-13.07a2.992 2.992 0 012.988-2.993h13.07a2.992 2.992 0 012.993 2.992v13.07a2.992 2.992 0 01-2.993 2.989h-13.07a2.99 2.99 0 01-2.988-2.988zm19.844 0v-13.07a2.99 2.99 0 012.988-2.993h13.07a2.99 2.99 0 012.988 2.992v13.07a2.988 2.988 0 01-2.988 2.989H97.84a2.988 2.988 0 01-2.988-2.988zm19.843 0v-13.07a2.99 2.99 0 012.989-2.993h13.07a2.99 2.99 0 012.988 2.992v13.07a2.988 2.988 0 01-2.988 2.989h-13.07a2.988 2.988 0 01-2.989-2.988zm19.84 0v-13.07a2.992 2.992 0 012.988-2.993h13.075a2.992 2.992 0 012.988 2.992v13.07a2.99 2.99 0 01-2.988 2.989h-13.075a2.99 2.99 0 01-2.988-2.988zm19.844 0v-13.07a2.992 2.992 0 012.988-2.993h13.07a2.992 2.992 0 012.993 2.992v13.07a2.992 2.992 0 01-2.993 2.989h-13.07a2.99 2.99 0 01-2.988-2.988zm19.844 0v-13.07a2.99 2.99 0 012.988-2.993h13.07a2.99 2.99 0 012.989 2.992v13.07a2.988 2.988 0 01-2.989 2.989h-13.07a2.988 2.988 0 01-2.988-2.988zm19.84 0v-13.07a2.992 2.992 0 012.992-2.993h13.07a2.992 2.992 0 012.988 2.992v13.07a2.99 2.99 0 01-2.988 2.989h-13.07a2.992 2.992 0 01-2.993-2.988zm19.843 0v-13.07a2.992 2.992 0 012.989-2.993h13.074a2.992 2.992 0 012.988 2.992v13.07a2.99 2.99 0 01-2.988 2.989h-13.074a2.99 2.99 0 01-2.989-2.988zm19.844 0v-13.07a2.99 2.99 0 012.988-2.993h13.07a2.99 2.99 0 012.989 2.992v13.07a2.988 2.988 0 01-2.988 2.989h-13.07a2.988 2.988 0 01-2.989-2.988zm19.844 0v-13.07a2.99 2.99 0 012.988-2.993h37.875a2.992 2.992 0 012.988 2.992v13.07a2.99 2.99 0 01-2.988 2.989h-37.875a2.988 2.988 0 01-2.988-2.988zm0 0" fill="#ccc" stroke="#f2f2f2" stroke-miterlimit="10" stroke-width="1.196"/><g clip-path="url(#e)"><path d="M298.238 56.344v-13.07a2.992 2.992 0 012.989-2.993h13.07a2.992 2.992 0 012.992 2.992v13.07a2.992 2.992 0 01-2.992 2.989h-13.07a2.99 2.99 0 01-2.989-2.988zm0 0" fill="#ccc"/></g><g clip-path="url(#f)"><path d="M298.238 56.344v-13.07a2.992 2.992 0 012.989-2.993h13.07a2.992 2.992 0 012.992 2.992v13.07a2.992 2.992 0 01-2.992 2.989h-13.07a2.99 2.99 0 01-2.989-2.988zm0 0" fill="none" stroke="#f2f2f2" stroke-miterlimit="10" stroke-width="1.196"/></g><path d="M.598 76.188V63.112a2.99 2.99 0 012.988-2.988H36.5a2.988 2.988 0 012.988 2.988v13.075a2.988 2.988 0 01-2.988 2.988H3.586a2.99 2.99 0 01-2.988-2.989zm39.687 0V63.112a2.988 2.988 0 012.988-2.988h13.07a2.988 2.988 0 012.989 2.988v13.075a2.988 2.988 0 01-2.988 2.988h-13.07a2.988 2.988 0 01-2.989-2.989zm19.84 0V63.112a2.99 2.99 0 012.988-2.988h13.075a2.99 2.99 0 012.988 2.988v13.075a2.99 2.99 0 01-2.989 2.988H63.114a2.99 2.99 0 01-2.988-2.989zm19.844 0V63.112a2.99 2.99 0 012.988-2.988h13.07a2.992 2.992 0 012.993 2.988v13.075a2.992 2.992 0 01-2.993 2.988h-13.07a2.99 2.99 0 01-2.988-2.989zm19.844 0V63.112a2.988 2.988 0 012.988-2.988h13.07a2.988 2.988 0 012.988 2.988v13.075a2.988 2.988 0 01-2.988 2.988h-13.07a2.988 2.988 0 01-2.989-2.989zm19.839 0V63.112a2.992 2.992 0 012.993-2.988h13.07a2.99 2.99 0 012.988 2.988v13.075a2.99 2.99 0 01-2.988 2.988h-13.07a2.992 2.992 0 01-2.993-2.989zm19.844 0V63.112a2.99 2.99 0 012.988-2.988h13.075a2.99 2.99 0 012.988 2.988v13.075a2.99 2.99 0 01-2.988 2.988h-13.075a2.99 2.99 0 01-2.988-2.989zm19.844 0V63.112a2.988 2.988 0 012.988-2.988h13.07a2.988 2.988 0 012.989 2.988v13.075a2.988 2.988 0 01-2.989 2.988h-13.07a2.988 2.988 0 01-2.988-2.989zm19.844 0V63.112a2.988 2.988 0 012.988-2.988h13.07a2.988 2.988 0 012.988 2.988v13.075a2.988 2.988 0 01-2.988 2.988h-13.07a2.988 2.988 0 01-2.988-2.989zm19.839 0V63.112a2.992 2.992 0 012.993-2.988h13.07a2.99 2.99 0 012.988 2.988v13.075a2.99 2.99 0 01-2.988 2.988h-13.07a2.992 2.992 0 01-2.993-2.989zm19.844 0V63.112a2.99 2.99 0 012.988-2.988h13.075a2.99 2.99 0 012.988 2.988v13.075a2.99 2.99 0 01-2.988 2.988h-13.075a2.99 2.99 0 01-2.988-2.989zm19.843 0V63.112a2.988 2.988 0 012.99-2.988h32.913a2.988 2.988 0 012.989 2.988v13.075a2.988 2.988 0 01-2.989 2.988H241.7a2.988 2.988 0 01-2.988-2.989zm39.685 0V63.112a2.99 2.99 0 012.988-2.988h13.074a2.99 2.99 0 012.988 2.988v13.075a2.99 2.99 0 01-2.988 2.988h-13.074a2.99 2.99 0 01-2.988-2.989zm0 0" fill="#ccc" stroke="#f2f2f2" stroke-miterlimit="10" stroke-width="1.196"/><g clip-path="url(#g)"><path d="M298.238 76.188V63.112a2.99 2.99 0 012.989-2.988h13.07a2.992 2.992 0 012.992 2.988v13.075a2.992 2.992 0 01-2.992 2.988h-13.07a2.99 2.99 0 01-2.989-2.989zm0 0" fill="#ccc"/></g><g clip-path="url(#h)"><path d="M298.238 76.188V63.112a2.99 2.99 0 012.989-2.988h13.07a2.992 2.992 0 012.992 2.988v13.075a2.992 2.992 0 01-2.992 2.988h-13.07a2.99 2.99 0 01-2.989-2.989zm0 0" fill="none" stroke="#f2f2f2" stroke-miterlimit="10" stroke-width="1.196"/></g><g clip-path="url(#i)"><path d="M.598 96.027v-13.07a2.988 2.988 0 012.988-2.988h18.031a2.99 2.99 0 012.992 2.988v13.07a2.99 2.99 0 01-2.992 2.989H3.586a2.988 2.988 0 01-2.988-2.989zm0 0" fill="#ccc"/></g><g clip-path="url(#j)"><path d="M.598 96.027v-13.07a2.988 2.988 0 012.988-2.988h18.031a2.99 2.99 0 012.992 2.988v13.07a2.99 2.99 0 01-2.992 2.989H3.586a2.988 2.988 0 01-2.988-2.989zm0 0" fill="none" stroke="#f2f2f2" stroke-miterlimit="10" stroke-width="1.196"/></g><g clip-path="url(#k)"><path d="M25.402 96.027v-13.07a2.986 2.986 0 012.989-2.988h18.03a2.986 2.986 0 012.99 2.988v13.07a2.986 2.986 0 01-2.99 2.989h-18.03a2.986 2.986 0 01-2.989-2.989zm0 0" fill="#ccc"/></g><g clip-path="url(#l)"><path d="M25.402 96.027v-13.07a2.986 2.986 0 012.989-2.988h18.03a2.986 2.986 0 012.99 2.988v13.07a2.986 2.986 0 01-2.99 2.989h-18.03a2.986 2.986 0 01-2.989-2.989zm0 0" fill="none" stroke="#f2f2f2" stroke-miterlimit="10" stroke-width="1.196"/></g><g clip-path="url(#m)"><path d="M50.203 96.027v-13.07a2.99 2.99 0 012.992-2.988h18.032a2.988 2.988 0 012.988 2.988v13.07a2.988 2.988 0 01-2.988 2.989H53.195a2.99 2.99 0 01-2.992-2.989zm0 0" fill="#ccc"/></g><g clip-path="url(#n)"><path d="M50.203 96.027v-13.07a2.99 2.99 0 012.992-2.988h18.032a2.988 2.988 0 012.988 2.988v13.07a2.988 2.988 0 01-2.988 2.989H53.195a2.99 2.99 0 01-2.992-2.989zm0 0" fill="none" stroke="#f2f2f2" stroke-miterlimit="10" stroke-width="1.196"/></g><g clip-path="url(#o)"><path d="M75.008 96.027v-13.07a2.988 2.988 0 012.988-2.988h112.285a2.986 2.986 0 012.989 2.988v13.07a2.986 2.986 0 01-2.989 2.989H77.996a2.988 2.988 0 01-2.988-2.989zm0 0" fill="#ccc"/></g><g clip-path="url(#p)"><path d="M75.008 96.027v-13.07a2.988 2.988 0 012.988-2.988h112.285a2.986 2.986 0 012.989 2.988v13.07a2.986 2.986 0 01-2.989 2.989H77.996a2.988 2.988 0 01-2.988-2.989zm0 0" fill="none" stroke="#f2f2f2" stroke-miterlimit="10" stroke-width="1.196"/></g><g clip-path="url(#q)"><path d="M194.063 96.027v-13.07a2.99 2.99 0 012.992-2.988h18.03a2.988 2.988 0 012.99 2.988v13.07a2.988 2.988 0 01-2.99 2.989h-18.03a2.99 2.99 0 01-2.993-2.989zm0 0" fill="#ccc"/></g><g clip-path="url(#r)"><path d="M194.063 96.027v-13.07a2.99 2.99 0 012.992-2.988h18.03a2.988 2.988 0 012.99 2.988v13.07a2.988 2.988 0 01-2.99 2.989h-18.03a2.99 2.99 0 01-2.993-2.989zm0 0" fill="none" stroke="#f2f2f2" stroke-miterlimit="10" stroke-width="1.196"/></g><g clip-path="url(#s)"><path d="M218.867 96.027v-13.07a2.988 2.988 0 012.988-2.988h18.032a2.99 2.99 0 012.992 2.988v13.07a2.99 2.99 0 01-2.992 2.989h-18.032a2.988 2.988 0 01-2.988-2.989zm0 0" fill="#ccc"/></g><g clip-path="url(#t)"><path d="M218.867 96.027v-13.07a2.988 2.988 0 012.988-2.988h18.032a2.99 2.99 0 012.992 2.988v13.07a2.99 2.99 0 01-2.992 2.989h-18.032a2.988 2.988 0 01-2.988-2.989zm0 0" fill="none" stroke="#f2f2f2" stroke-miterlimit="10" stroke-width="1.196"/></g><g clip-path="url(#u)"><path d="M258.555 96.027v-13.07a2.986 2.986 0 012.988-2.988h13.07a2.986 2.986 0 012.989 2.988v13.07a2.986 2.986 0 01-2.989 2.989h-13.07a2.986 2.986 0 01-2.988-2.989zm0 0" fill="#ccc"/></g><g clip-path="url(#v)"><path d="M258.555 96.027v-13.07a2.986 2.986 0 012.988-2.988h13.07a2.986 2.986 0 012.989 2.988v13.07a2.986 2.986 0 01-2.989 2.989h-13.07a2.986 2.986 0 01-2.988-2.989zm0 0" fill="none" stroke="#f2f2f2" stroke-miterlimit="10" stroke-width="1.196"/></g><g clip-path="url(#w)"><path d="M278.395 96.027v-13.07a2.988 2.988 0 012.988-2.988h13.074a2.988 2.988 0 012.988 2.988v13.07a2.988 2.988 0 01-2.988 2.989h-13.074a2.988 2.988 0 01-2.988-2.989zm0 0" fill="#ccc"/></g><g clip-path="url(#x)"><path d="M278.395 96.027v-13.07a2.988 2.988 0 012.988-2.988h13.074a2.988 2.988 0 012.988 2.988v13.07a2.988 2.988 0 01-2.988 2.989h-13.074a2.988 2.988 0 01-2.988-2.989zm0 0" fill="none" stroke="#f2f2f2" stroke-miterlimit="10" stroke-width="1.196"/></g><g clip-path="url(#y)"><path d="M298.238 96.027v-13.07a2.988 2.988 0 012.989-2.988h13.07a2.99 2.99 0 012.992 2.988v13.07a2.99 2.99 0 01-2.992 2.989h-13.07a2.988 2.988 0 01-2.989-2.989zm0 0" fill="#ccc"/></g><g clip-path="url(#z)"><path d="M298.238 96.027v-13.07a2.988 2.988 0 012.989-2.988h13.07a2.99 2.99 0 012.992 2.988v13.07a2.99 2.99 0 01-2.992 2.989h-13.07a2.988 2.988 0 01-2.989-2.989zm0 0" fill="none" stroke="#f2f2f2" stroke-miterlimit="10" stroke-width="1.196"/></g><g clip-path="url(#A)"><path d="M10.52 11.816L13 31.66c.688 5.508 1.793 14.336 2.48 19.844.688 5.504 3.168 14.336 2.48 19.84-.687 5.508-7.44 19.844-7.44 19.844" fill="none" stroke="#f32a96" stroke-miterlimit="10" stroke-width=".797"/></g><path d="M12.328 11.816a1.81 1.81 0 10-3.62.002 1.81 1.81 0 003.62-.002zm2.481 19.844c0-1-.809-1.808-1.809-1.808s-1.809.808-1.809 1.808a1.809 1.809 0 103.618.001zm2.481 19.844a1.809 1.809 0 10-3.618 0 1.81 1.81 0 003.617 0zm2.48 19.84c0-.996-.81-1.805-1.81-1.805a1.806 1.806 0 100 3.613c1 0 1.81-.808 1.81-1.808zm-7.442 19.844a1.81 1.81 0 10-3.62.002 1.81 1.81 0 003.62-.002zm0 0" fill="#f32a96"/><g clip-path="url(#B)"><path d="M30.363 11.816s7.856 14.336 9.922 19.844c2.063 5.508 5.305 11.582 4.957 19.844-.344 8.258-7.437 39.684-7.437 39.684" fill="none" stroke="#f32a96" stroke-miterlimit="10" stroke-width=".797"/></g><path d="M32.172 11.816a1.81 1.81 0 10-1.809 1.809 1.81 1.81 0 001.809-1.809zM42.09 31.66a1.806 1.806 0 10-3.613 0 1.807 1.807 0 103.613 0zm4.96 19.844a1.807 1.807 0 10-3.612 0c0 .996.808 1.809 1.804 1.809 1 0 1.809-.813 1.809-1.81zm-7.44 39.684c0-.997-.81-1.81-1.805-1.81a1.81 1.81 0 000 3.618c.996 0 1.804-.808 1.804-1.808zm0 0" fill="#f32a96"/><g clip-path="url(#C)"><path d="M50.203 11.816s7.86 14.336 9.922 19.844c2.066 5.508 6.34 14.336 4.96 19.844-1.374 5.504-14.538 14.336-14.882 19.84-.344 5.508 12.402 19.844 12.402 19.844" fill="none" stroke="#f32a96" stroke-miterlimit="10" stroke-width=".797"/></g><path d="M52.012 11.816a1.81 1.81 0 00-1.809-1.808c-.996 0-1.808.812-1.808 1.808a1.81 1.81 0 003.617 0zm9.922 19.844a1.81 1.81 0 10-3.615.002 1.81 1.81 0 003.615-.002zm4.961 19.844a1.81 1.81 0 00-3.617 0c0 .996.812 1.809 1.808 1.809 1 0 1.809-.813 1.809-1.81zm-14.883 19.84a1.809 1.809 0 00-3.617 0 1.81 1.81 0 003.617 0zm12.402 19.844a1.81 1.81 0 00-1.809-1.81 1.81 1.81 0 101.809 1.809zm0 0" fill="#f32a96"/><path d="M70.047 11.816s7.855 14.336 9.922 19.844c2.066 5.508 6.336 14.336 4.96 19.844-1.374 5.504-14.882 19.84-14.882 19.84" fill="none" stroke="#f32a96" stroke-miterlimit="10" stroke-width=".797"/><path d="M71.855 11.816a1.81 1.81 0 10-3.619.002 1.81 1.81 0 003.62-.002zm9.922 19.844c0-1-.808-1.808-1.808-1.808s-1.809.808-1.809 1.808a1.808 1.808 0 103.617 0zm4.961 19.844a1.807 1.807 0 10-3.617 0 1.81 1.81 0 003.617 0zm-14.883 19.84c0-.996-.808-1.805-1.808-1.805a1.806 1.806 0 100 3.613c1 0 1.808-.808 1.808-1.808zm0 0" fill="#f32a96"/><path d="M89.89 11.816s7.856 14.336 9.922 19.844c2.063 5.508 6.336 14.336 4.961 19.844-1.378 5.504-14.882 19.84-14.882 19.84" fill="none" stroke="#f32a96" stroke-miterlimit="10" stroke-width=".797"/><path d="M91.7 11.816a1.81 1.81 0 10-3.62.002 1.81 1.81 0 003.62-.002zm9.921 19.844a1.81 1.81 0 10-3.62.002 1.81 1.81 0 003.62-.002zm4.961 19.844a1.81 1.81 0 00-3.617 0 1.81 1.81 0 001.808 1.809c.997 0 1.809-.813 1.809-1.81zM91.7 71.344c0-.996-.81-1.805-1.81-1.805a1.806 1.806 0 100 3.613c1 0 1.81-.808 1.81-1.808zm0 0" fill="#f32a96"/><path d="M109.734 11.816s7.856 14.336 9.918 19.844c2.067 5.508 6.34 14.336 4.961 19.844-1.375 5.504-14.879 19.84-14.879 19.84" fill="none" stroke="#f32a96" stroke-miterlimit="10" stroke-width=".797"/><path d="M111.54 11.816a1.81 1.81 0 00-1.806-1.808 1.81 1.81 0 000 3.617c.996 0 1.805-.809 1.805-1.809zm9.92 19.844a1.807 1.807 0 10-3.612 0 1.806 1.806 0 103.613 0zm4.962 19.844a1.81 1.81 0 00-3.617 0c0 .996.812 1.809 1.808 1.809 1 0 1.809-.813 1.809-1.81zm-14.882 19.84a1.806 1.806 0 10-3.614.003 1.806 1.806 0 003.613-.003zm0 0" fill="#f32a96"/><path d="M149.418 11.816s7.855 14.336 9.922 19.844c2.062 5.508 6.336 14.336 4.96 19.844-1.378 5.504-14.882 19.84-14.882 19.84" fill="none" stroke="#f32a96" stroke-miterlimit="10" stroke-width=".797"/><path d="M151.227 11.816a1.81 1.81 0 10-3.62.002 1.81 1.81 0 003.62-.002zm9.921 19.844c0-1-.808-1.808-1.808-1.808s-1.809.808-1.809 1.808a1.808 1.808 0 103.617 0zm4.962 19.844a1.81 1.81 0 00-3.618 0 1.81 1.81 0 001.809 1.809c.996 0 1.808-.813 1.808-1.81zm-14.883 19.84c0-.996-.809-1.805-1.809-1.805a1.806 1.806 0 100 3.613c1 0 1.809-.808 1.809-1.808zm0 0" fill="#f32a96"/><path d="M169.262 11.816s7.855 14.336 9.922 19.844c2.062 5.508 6.336 14.336 4.96 19.844-1.378 5.504-14.882 19.84-14.882 19.84" fill="none" stroke="#f32a96" stroke-miterlimit="10" stroke-width=".797"/><path d="M171.07 11.816c0-.996-.812-1.808-1.808-1.808a1.81 1.81 0 000 3.617 1.81 1.81 0 001.808-1.809zm9.922 19.844a1.81 1.81 0 10-3.62.002 1.81 1.81 0 003.62-.002zm4.958 19.844a1.806 1.806 0 10-3.614 0 1.81 1.81 0 001.809 1.809c.996 0 1.804-.813 1.804-1.81zm-14.88 19.84a1.809 1.809 0 00-3.617 0 1.81 1.81 0 003.617 0zm0 0" fill="#f32a96"/><path d="M208.945 11.816s7.856 14.336 9.922 19.844c2.067 5.508 6.336 14.336 4.961 19.844-1.375 5.504-14.883 19.84-14.883 19.84" fill="none" stroke="#f32a96" stroke-miterlimit="10" stroke-width=".797"/><path d="M210.754 11.816a1.81 1.81 0 00-1.809-1.808c-.996 0-1.808.812-1.808 1.808a1.81 1.81 0 003.617 0zm9.922 19.844c0-1-.809-1.808-1.809-1.808s-1.808.808-1.808 1.808.808 1.809 1.808 1.809 1.809-.809 1.809-1.809zm4.961 19.844a1.808 1.808 0 10-3.617 0 1.81 1.81 0 003.617 0zm-14.883 19.84a1.809 1.809 0 00-3.617 0 1.81 1.81 0 003.617 0zm0 0" fill="#f32a96"/><g clip-path="url(#D)"><path d="M129.574 11.816s7.86 14.336 9.922 19.844c2.066 5.508 6.336 14.336 4.961 19.844-1.375 5.504-13.504 14.336-14.883 19.84-1.375 5.508 4.961 19.844 4.961 19.844" fill="none" stroke="#f32a96" stroke-miterlimit="10" stroke-width=".797"/></g><path d="M131.383 11.816a1.81 1.81 0 00-1.809-1.808c-.996 0-1.808.812-1.808 1.808a1.81 1.81 0 003.617 0zm9.922 19.844a1.81 1.81 0 10-3.615.002 1.81 1.81 0 003.615-.002zm4.961 19.844c0-1-.809-1.809-1.809-1.809s-1.809.809-1.809 1.809a1.81 1.81 0 003.618 0zm-14.883 19.84a1.809 1.809 0 00-3.617 0 1.81 1.81 0 003.617 0zm4.961 19.844a1.81 1.81 0 00-1.809-1.81 1.81 1.81 0 101.809 1.809zm0 0" fill="#f32a96"/><g clip-path="url(#E)"><path d="M189.102 11.816s7.859 14.336 9.921 19.844c2.067 5.508 6.34 14.336 4.961 19.844-1.375 5.504-15.226 14.336-14.882 19.84.347 5.508 17.363 19.844 17.363 19.844" fill="none" stroke="#f32a96" stroke-miterlimit="10" stroke-width=".797"/></g><path d="M190.91 11.816a1.81 1.81 0 00-1.808-1.808 1.809 1.809 0 000 3.617c1 0 1.808-.809 1.808-1.809zm9.922 19.844a1.81 1.81 0 10-3.615.002 1.81 1.81 0 003.615-.002zm4.961 19.844a1.81 1.81 0 00-3.617 0c0 .996.812 1.809 1.808 1.809 1 0 1.809-.813 1.809-1.81zm-14.883 19.84a1.806 1.806 0 10-3.612.003 1.806 1.806 0 003.612-.003zm17.363 19.844a1.81 1.81 0 00-1.808-1.81 1.81 1.81 0 101.809 1.809zm0 0" fill="#f32a96"/><g clip-path="url(#F)"><path d="M228.79 11.816s7.855 14.336 9.92 19.844c2.063 5.508 6.337 14.336 4.962 19.844-1.379 5.504-13.3 14.336-14.883 19.84-1.582 5.508 3.473 19.844 3.473 19.844" fill="none" stroke="#f32a96" stroke-miterlimit="10" stroke-width=".797"/></g><path d="M230.598 11.816a1.81 1.81 0 10-3.62.002 1.81 1.81 0 003.62-.002zm9.922 19.844a1.81 1.81 0 10-3.62.002 1.81 1.81 0 003.62-.002zm4.96 19.844a1.81 1.81 0 00-3.617 0 1.81 1.81 0 001.809 1.809c.996 0 1.808-.813 1.808-1.81zm-14.882 19.84c0-.996-.809-1.805-1.809-1.805a1.806 1.806 0 100 3.613c1 0 1.809-.808 1.809-1.808zm3.472 19.844a1.81 1.81 0 10-3.619.002 1.81 1.81 0 003.62-.002zm16.371-79.372c0-.996-.812-1.808-1.808-1.808a1.81 1.81 0 000 3.617 1.81 1.81 0 001.808-1.809zm9.919 19.844a1.806 1.806 0 10-3.614 0 1.807 1.807 0 103.613 0zm24.804 0a1.81 1.81 0 10-3.615.002 1.81 1.81 0 003.615-.002zM260.36 71.344a1.806 1.806 0 10-3.614.003 1.806 1.806 0 003.613-.003zm9.921 19.844a1.81 1.81 0 00-1.808-1.81 1.81 1.81 0 101.809 1.809zm0 0" fill="#f32a96"/><g clip-path="url(#G)"><path d="M248.633 11.816s5.101 17.09 9.922 19.844c4.816 2.754 24.113-2.754 24.8 0s-16.402 14.336-19.843 19.844c-3.442 5.504-5.649 14.336-4.957 19.84.687 5.508 9.918 19.844 9.918 19.844" fill="none" stroke="#f32a96" stroke-miterlimit="10" stroke-width=".797"/></g><g clip-path="url(#H)"><path d="M278.395 11.816s-3.856 31.426-2.48 39.688c1.378 8.258 10.683 14.336 12.401 19.84 1.723 5.508 0 19.844 0 19.844" fill="none" stroke="#f32a96" stroke-miterlimit="10" stroke-width=".797"/></g><path d="M280.203 11.816a1.81 1.81 0 00-1.808-1.808c-.997 0-1.81.812-1.81 1.808a1.81 1.81 0 003.618 0zm-2.48 39.688a1.81 1.81 0 00-3.617 0c0 .996.812 1.809 1.808 1.809 1 0 1.809-.813 1.809-1.81zm12.402 19.84c0-.996-.809-1.805-1.809-1.805a1.806 1.806 0 100 3.613c1 0 1.809-.808 1.809-1.808zm0 19.844a1.81 1.81 0 10-3.62.002 1.81 1.81 0 003.62-.002zm0 0" fill="#f32a96"/><g clip-path="url(#I)"><path d="M308.16 11.816v79.372" fill="none" stroke="#f32a96" stroke-miterlimit="10" stroke-width=".797"/></g><path d="M309.969 11.816a1.81 1.81 0 10-3.62.002 1.81 1.81 0 003.62-.002zm0 19.844c0-1-.809-1.808-1.809-1.808s-1.808.808-1.808 1.808.808 1.809 1.808 1.809 1.809-.809 1.809-1.809zm0 19.844a1.808 1.808 0 10-3.617 0 1.81 1.81 0 003.617 0zm0 19.84c0-.996-.809-1.805-1.809-1.805a1.806 1.806 0 100 3.613c1 0 1.809-.808 1.809-1.808zm0 19.844a1.81 1.81 0 10-3.62.002 1.81 1.81 0 003.62-.002zm0 0" fill="#f32a96"/><g clip-path="url(#J)"><path d="M15.48 51.504h188.504c27.532 0 28.676 2.754 39.688 0s35.21-19.844 39.683-19.844c4.473 0-10.882 17.09-7.44 19.844 3.44 2.754 32.245 0 32.245 0" fill="none" stroke="#f32a96" stroke-miterlimit="10" stroke-width=".797"/></g><g clip-path="url(#K)"><path d="M13 31.66h225.71c34.071 0 13.65.824 19.845 0 6.191-.824 17.918-5.953 24.8-5.953 6.883 0 24.805 5.953 24.805 5.953" fill="none" stroke="#f32a96" stroke-miterlimit="10" stroke-width=".797"/></g><path d="M10.52 11.816h297.64M17.96 71.344h290.2M10.52 91.188h297.64" fill="none" stroke="#f32a96" stroke-miterlimit="10" stroke-width=".797"/><use x="5.785" xlink:href="#L" y="8.763"/><use x="9.258" xlink:href="#M" y="8.763"/><use x="10.986" xlink:href="#L" y="8.763"/><use x="25.628" xlink:href="#L" y="8.763"/><use x="29.101" xlink:href="#M" y="8.763"/><use x="30.829" xlink:href="#N" y="8.763"/><use x="45.47" xlink:href="#L" y="8.763"/><use x="48.943" xlink:href="#M" y="8.763"/><use x="50.671" xlink:href="#O" y="8.763"/><use x="65.313" xlink:href="#L" y="8.763"/><use x="68.786" xlink:href="#M" y="8.763"/><use x="70.514" xlink:href="#P" y="8.763"/><use x="85.155" xlink:href="#L" y="8.763"/><use x="88.628" xlink:href="#M" y="8.763"/><use x="90.356" xlink:href="#Q" y="8.763"/><use x="104.997" xlink:href="#L" y="8.763"/><use x="108.47" xlink:href="#M" y="8.763"/><use x="110.198" xlink:href="#R" y="8.763"/><use x="124.84" xlink:href="#L" y="8.763"/><use x="128.313" xlink:href="#M" y="8.763"/><use x="130.041" xlink:href="#S" y="8.763"/><use x="144.682" xlink:href="#L" y="8.763"/><use x="148.155" xlink:href="#M" y="8.763"/><use x="149.883" xlink:href="#T" y="8.763"/><use x="164.525" xlink:href="#L" y="8.763"/><use x="167.998" xlink:href="#M" y="8.763"/><use x="169.726" xlink:href="#U" y="8.763"/><use x="184.367" xlink:href="#L" y="8.763"/><use x="187.84" xlink:href="#M" y="8.763"/><use x="189.568" xlink:href="#V" y="8.763"/><use x="202.473" xlink:href="#L" y="8.763"/><use x="205.946" xlink:href="#M" y="8.763"/><use x="207.674" xlink:href="#N" y="8.763"/><use x="211.146" xlink:href="#L" y="8.763"/><use x="222.316" xlink:href="#L" y="8.763"/><use x="225.789" xlink:href="#M" y="8.763"/><use x="227.517" xlink:href="#N" y="8.763"/><use x="230.989" xlink:href="#N" y="8.763"/><use x="242.158" xlink:href="#L" y="8.763"/><use x="245.631" xlink:href="#M" y="8.763"/><use x="247.359" xlink:href="#N" y="8.763"/><use x="250.831" xlink:href="#O" y="8.763"/><use x="271.922" xlink:href="#L" y="8.763"/><use x="275.395" xlink:href="#M" y="8.763"/><use x="277.123" xlink:href="#N" y="8.763"/><use x="280.595" xlink:href="#P" y="8.763"/><use x="301.685" xlink:href="#L" y="8.763"/><use x="305.158" xlink:href="#M" y="8.763"/><use x="306.886" xlink:href="#N" y="8.763"/><use x="310.358" xlink:href="#Q" y="8.763"/><use x="10.746" xlink:href="#N" y="28.605"/><use x="14.219" xlink:href="#M" y="28.605"/><use x="15.947" xlink:href="#L" y="28.605"/><use x="35.549" xlink:href="#N" y="28.605"/><use x="39.022" xlink:href="#M" y="28.605"/><use x="40.75" xlink:href="#N" y="28.605"/><use x="55.391" xlink:href="#N" y="28.605"/><use x="58.864" xlink:href="#M" y="28.605"/><use x="60.592" xlink:href="#O" y="28.605"/><use x="75.234" xlink:href="#N" y="28.605"/><use x="78.707" xlink:href="#M" y="28.605"/><use x="80.435" xlink:href="#P" y="28.605"/><use x="95.076" xlink:href="#N" y="28.605"/><use x="98.549" xlink:href="#M" y="28.605"/><use x="100.277" xlink:href="#Q" y="28.605"/><use x="114.919" xlink:href="#N" y="28.605"/><use x="118.392" xlink:href="#M" y="28.605"/><use x="120.12" xlink:href="#R" y="28.605"/><use x="134.761" xlink:href="#N" y="28.605"/><use x="138.234" xlink:href="#M" y="28.605"/><use x="139.962" xlink:href="#S" y="28.605"/><use x="154.604" xlink:href="#N" y="28.605"/><use x="158.077" xlink:href="#M" y="28.605"/><use x="159.805" xlink:href="#T" y="28.605"/><use x="174.446" xlink:href="#N" y="28.605"/><use x="177.919" xlink:href="#M" y="28.605"/><use x="179.647" xlink:href="#U" y="28.605"/><use x="194.288" xlink:href="#N" y="28.605"/><use x="197.761" xlink:href="#M" y="28.605"/><use x="199.489" xlink:href="#V" y="28.605"/><use x="212.394" xlink:href="#N" y="28.605"/><use x="215.867" xlink:href="#M" y="28.605"/><use x="217.595" xlink:href="#N" y="28.605"/><use x="221.067" xlink:href="#L" y="28.605"/><use x="232.237" xlink:href="#N" y="28.605"/><use x="235.71" xlink:href="#M" y="28.605"/><use x="237.438" xlink:href="#N" y="28.605"/><use x="240.91" xlink:href="#N" y="28.605"/><use x="252.079" xlink:href="#N" y="28.605"/><use x="255.552" xlink:href="#M" y="28.605"/><use x="257.28" xlink:href="#N" y="28.605"/><use x="260.752" xlink:href="#O" y="28.605"/><use x="276.882" xlink:href="#O" y="28.605"/><use x="280.355" xlink:href="#M" y="28.605"/><use x="282.083" xlink:href="#N" y="28.605"/><use x="285.555" xlink:href="#O" y="28.605"/><use x="301.685" xlink:href="#N" y="28.605"/><use x="305.158" xlink:href="#M" y="28.605"/><use x="306.886" xlink:href="#N" y="28.605"/><use x="310.358" xlink:href="#Q" y="28.605"/><use x="13.226" xlink:href="#O" y="48.448"/><use x="16.699" xlink:href="#M" y="48.448"/><use x="18.427" xlink:href="#L" y="48.448"/><use x="40.51" xlink:href="#O" y="48.448"/><use x="43.983" xlink:href="#M" y="48.448"/><use x="45.711" xlink:href="#N" y="48.448"/><use x="60.352" xlink:href="#O" y="48.448"/><use x="63.825" xlink:href="#M" y="48.448"/><use x="65.553" xlink:href="#O" y="48.448"/><use x="80.194" xlink:href="#O" y="48.448"/><use x="83.667" xlink:href="#M" y="48.448"/><use x="85.395" xlink:href="#P" y="48.448"/><use x="100.037" xlink:href="#O" y="48.448"/><use x="103.51" xlink:href="#M" y="48.448"/><use x="105.238" xlink:href="#Q" y="48.448"/><use x="119.879" xlink:href="#O" y="48.448"/><use x="123.352" xlink:href="#M" y="48.448"/><use x="125.08" xlink:href="#R" y="48.448"/><use x="139.722" xlink:href="#O" y="48.448"/><use x="143.195" xlink:href="#M" y="48.448"/><use x="144.923" xlink:href="#S" y="48.448"/><use x="159.564" xlink:href="#O" y="48.448"/><use x="163.037" xlink:href="#M" y="48.448"/><use x="164.765" xlink:href="#T" y="48.448"/><use x="179.407" xlink:href="#O" y="48.448"/><use x="182.88" xlink:href="#M" y="48.448"/><use x="184.608" xlink:href="#U" y="48.448"/><use x="199.249" xlink:href="#O" y="48.448"/><use x="202.722" xlink:href="#M" y="48.448"/><use x="204.45" xlink:href="#V" y="48.448"/><use x="217.355" xlink:href="#O" y="48.448"/><use x="220.828" xlink:href="#M" y="48.448"/><use x="222.556" xlink:href="#N" y="48.448"/><use x="226.028" xlink:href="#L" y="48.448"/><use x="237.197" xlink:href="#O" y="48.448"/><use x="240.67" xlink:href="#M" y="48.448"/><use x="242.398" xlink:href="#N" y="48.448"/><use x="245.87" xlink:href="#N" y="48.448"/><use x="269.441" xlink:href="#O" y="48.448"/><use x="272.914" xlink:href="#M" y="48.448"/><use x="274.642" xlink:href="#N" y="48.448"/><use x="278.114" xlink:href="#P" y="48.448"/><use x="301.685" xlink:href="#O" y="48.448"/><use x="305.158" xlink:href="#M" y="48.448"/><use x="306.886" xlink:href="#N" y="48.448"/><use x="310.358" xlink:href="#Q" y="48.448"/><use x="15.707" xlink:href="#P" y="68.29"/><use x="19.18" xlink:href="#M" y="68.29"/><use x="20.908" xlink:href="#L" y="68.29"/><use x="45.47" xlink:href="#P" y="68.29"/><use x="48.943" xlink:href="#M" y="68.29"/><use x="50.671" xlink:href="#O" y="68.29"/><use x="65.313" xlink:href="#P" y="68.29"/><use x="68.786" xlink:href="#M" y="68.29"/><use x="70.514" xlink:href="#P" y="68.29"/><use x="85.155" xlink:href="#P" y="68.29"/><use x="88.628" xlink:href="#M" y="68.29"/><use x="90.356" xlink:href="#Q" y="68.29"/><use x="104.997" xlink:href="#P" y="68.29"/><use x="108.47" xlink:href="#M" y="68.29"/><use x="110.198" xlink:href="#R" y="68.29"/><use x="124.84" xlink:href="#P" y="68.29"/><use x="128.313" xlink:href="#M" y="68.29"/><use x="130.041" xlink:href="#S" y="68.29"/><use x="144.682" xlink:href="#P" y="68.29"/><use x="148.155" xlink:href="#M" y="68.29"/><use x="149.883" xlink:href="#T" y="68.29"/><use x="164.525" xlink:href="#P" y="68.29"/><use x="167.998" xlink:href="#M" y="68.29"/><use x="169.726" xlink:href="#U" y="68.29"/><use x="184.367" xlink:href="#P" y="68.29"/><use x="187.84" xlink:href="#M" y="68.29"/><use x="189.568" xlink:href="#V" y="68.29"/><use x="202.473" xlink:href="#P" y="68.29"/><use x="205.946" xlink:href="#M" y="68.29"/><use x="207.674" xlink:href="#N" y="68.29"/><use x="211.146" xlink:href="#L" y="68.29"/><use x="222.316" xlink:href="#P" y="68.29"/><use x="225.789" xlink:href="#M" y="68.29"/><use x="227.517" xlink:href="#N" y="68.29"/><use x="230.989" xlink:href="#N" y="68.29"/><use x="252.079" xlink:href="#P" y="68.29"/><use x="255.552" xlink:href="#M" y="68.29"/><use x="257.28" xlink:href="#N" y="68.29"/><use x="260.752" xlink:href="#O" y="68.29"/><use x="281.843" xlink:href="#P" y="68.29"/><use x="285.316" xlink:href="#M" y="68.29"/><use x="287.044" xlink:href="#N" y="68.29"/><use x="290.516" xlink:href="#P" y="68.29"/><use x="301.685" xlink:href="#P" y="68.29"/><use x="305.158" xlink:href="#M" y="68.29"/><use x="306.886" xlink:href="#N" y="68.29"/><use x="310.358" xlink:href="#Q" y="68.29"/><use x="8.266" xlink:href="#Q" y="88.133"/><use x="11.739" xlink:href="#M" y="88.133"/><use x="13.467" xlink:href="#L" y="88.133"/><use x="33.069" xlink:href="#Q" y="88.133"/><use x="36.542" xlink:href="#M" y="88.133"/><use x="38.27" xlink:href="#N" y="88.133"/><use x="57.872" xlink:href="#Q" y="88.133"/><use x="61.345" xlink:href="#M" y="88.133"/><use x="63.073" xlink:href="#O" y="88.133"/><use x="129.801" xlink:href="#Q" y="88.133"/><use x="133.274" xlink:href="#M" y="88.133"/><use x="135.002" xlink:href="#S" y="88.133"/><use x="201.729" xlink:href="#Q" y="88.133"/><use x="205.202" xlink:href="#M" y="88.133"/><use x="206.93" xlink:href="#V" y="88.133"/><use x="224.796" xlink:href="#Q" y="88.133"/><use x="228.269" xlink:href="#M" y="88.133"/><use x="229.997" xlink:href="#N" y="88.133"/><use x="233.469" xlink:href="#N" y="88.133"/><use x="262" xlink:href="#Q" y="88.133"/><use x="265.473" xlink:href="#M" y="88.133"/><use x="267.201" xlink:href="#N" y="88.133"/><use x="270.673" xlink:href="#O" y="88.133"/><use x="281.843" xlink:href="#Q" y="88.133"/><use x="285.316" xlink:href="#M" y="88.133"/><use x="287.044" xlink:href="#N" y="88.133"/><use x="290.516" xlink:href="#P" y="88.133"/><use x="301.685" xlink:href="#Q" y="88.133"/><use x="305.158" xlink:href="#M" y="88.133"/><use x="306.886" xlink:href="#N" y="88.133"/><use x="310.358" xlink:href="#Q" y="88.133"/></svg>