<svg height="253.433" viewBox="0 0 337.723 140.796" width="810.535" xmlns="http://www.w3.org/2000/svg" xmlns:xlink="http://www.w3.org/1999/xlink"><clipPath id="a"><path d="M221 90h51v50.797h-51zm0 0"/></clipPath><clipPath id="b"><path d="M204 73h85v67.797h-85zm0 0"/></clipPath><clipPath id="c"><path d="M318 15h19.723v20H318zm0 0"/></clipPath><clipPath id="d"><path d="M301 0h36.723v52H301zm0 0"/></clipPath><clipPath id="e"><path d="M318 35h19.723v20H318zm0 0"/></clipPath><clipPath id="f"><path d="M301 18h36.723v54H301zm0 0"/></clipPath><clipPath id="g"><path d="M318 55h19.723v20H318zm0 0"/></clipPath><clipPath id="h"><path d="M301 38h36.723v54H301zm0 0"/></clipPath><clipPath id="i"><path d="M318 75h19.723v20H318zm0 0"/></clipPath><clipPath id="j"><path d="M301 58h36.723v53H301zm0 0"/></clipPath><clipPath id="k"><path d="M102 87h54v53.797h-54zm0 0"/></clipPath><clipPath id="l"><path d="M122 87h54v53.797h-54zm0 0"/></clipPath><clipPath id="m"><path d="M162 87h54v53.797h-54zm0 0"/></clipPath><clipPath id="n"><path d="M0 0h337.723v39H0zm0 0"/></clipPath><clipPath id="o"><path d="M0 20h337.723v39H0zm0 0"/></clipPath><clipPath id="p"><path d="M0 40h337.723v39H0zm0 0"/></clipPath><clipPath id="q"><path d="M0 60h337.723v39H0zm0 0"/></clipPath><clipPath id="r"><path d="M16 15h153v125.797H16zm0 0"/></clipPath><symbol id="s" overflow="visible"><path d="M1.75-4.094C.828-4.094.234-3.328.234-2 .234-.687.828.078 1.75.078 2.688.078 3.281-.687 3.281-2c0-1.328-.594-2.094-1.531-2.094zm.016.344c.468 0 .703.578.703 1.734 0 1.172-.235 1.75-.703 1.75-.485 0-.72-.593-.72-1.765 0-1.14.25-1.719.72-1.719zm0 0"/></symbol><symbol id="t" overflow="visible"><path d="M.188 1.047C.875.969 1.313.469 1.313-.141c0-.39-.22-.625-.547-.625-.25 0-.407.157-.407.407 0 .125.032.234.125.312h.36v.063c0 .421-.235.671-.656.75zm0 0"/></symbol><symbol id="u" overflow="visible"><path d="M1.938-4.078l-1.282.437v.313l.844-.125.063.062v2.954l-.079.109-.593.031V0h2.078v-.297l-.563-.031-.078-.094v-3.656zm0 0"/></symbol><symbol id="v" overflow="visible"><path d="M1.031-.61c1.328-.906 2.032-1.546 2.032-2.312 0-.687-.516-1.172-1.313-1.172-.86 0-1.406.422-1.406.922 0 .25.172.422.422.422a.77.77 0 00.39-.11v-.765a.69.69 0 01.344-.078c.453 0 .734.297.734.844 0 .734-.687 1.406-1.953 2.39V0h2.906v-1.14h-.374l-.11.53zm0 0"/></symbol><symbol id="w" overflow="visible"><path d="M2-2.11c.64-.156.984-.484.984-.953 0-.593-.5-1.015-1.296-1.015-.813 0-1.344.39-1.344.828 0 .234.172.406.437.406a.52.52 0 00.313-.078v-.703a.986.986 0 01.343-.078c.422 0 .735.297.735.719 0 .453-.313.734-.875.734h-.172v.422c.156-.016.281-.031.36-.031.515 0 .827.296.827.734 0 .469-.343.844-.796.844-.125 0-.266-.031-.422-.094l-.188-.64C.812-1.048.75-1.079.672-1.079c-.25 0-.422.156-.422.39 0 .407.469.75 1.203.75 1.031 0 1.672-.546 1.672-1.218 0-.547-.39-.907-1.125-.953zm0 0"/></symbol><symbol id="x" overflow="visible"><path d="M2.125-4.047L.156-1.563v.485h1.86V.188h.687v-1.266h.688v-.484h-.688v-2.485zm-.11.828v1.656H.688zm0 0"/></symbol><symbol id="y" overflow="visible"><path d="M.578-4.016v2.079c.235-.063.469-.094.719-.094.656 0 1.047.344 1.047.875 0 .484-.375.86-.86.86-.093 0-.187 0-.28-.032L1-1c-.078-.016-.156-.047-.219-.047-.265 0-.453.172-.453.375 0 .406.422.719 1.11.719 1.03 0 1.703-.578 1.703-1.39 0-.704-.532-1.173-1.36-1.173a2.16 2.16 0 00-.718.141v-1.016h1.859v-.625zm0 0"/></symbol><symbol id="z" overflow="visible"><path d="M2.813-4.266C1.25-4.266.28-3.25.28-1.734.28-.594.858.078 1.78.078c.89 0 1.532-.61 1.532-1.469 0-.765-.547-1.312-1.235-1.312-.344 0-.656.11-.953.297.14-.89.64-1.39 1.438-1.453l.25.03zM1.077-2.078c.203-.094.422-.14.64-.14.485 0 .798.359.798.937 0 .625-.282.984-.672.984-.485 0-.766-.469-.766-1.422v-.36zm0 0"/></symbol><symbol id="A" overflow="visible"><path d="M.453-4.016v1.22h.39l.095-.548h1.734L.734.203h.641V.031l1.953-3.656v-.39zm0 0"/></symbol><symbol id="B" overflow="visible"><path d="M2.078-2.266c-.61-.234-.906-.5-.906-.875a.57.57 0 01.578-.593c.375 0 .64.296.64.734a.965.965 0 01-.312.734zm.281.141c.47-.203.704-.531.704-.938 0-.593-.485-1.03-1.25-1.03-.844 0-1.391.452-1.391 1.14 0 .422.219.734.64.937-.53.157-.812.485-.812.938C.25-.406.813.094 1.703.094c.953 0 1.516-.5 1.516-1.188 0-.5-.281-.828-.86-1.031zm-1.03.25c.765.297 1.14.516 1.14.969 0 .375-.281.625-.719.625-.453 0-.797-.36-.797-.86 0-.296.125-.515.375-.734zm0 0"/></symbol><symbol id="C" overflow="visible"><path d="M2.422-1.922a1.087 1.087 0 01-.516.125c-.547 0-.86-.328-.86-.953 0-.61.298-.984.688-.984.454 0 .75.437.75 1.234 0 .203-.03.39-.062.578zM.766.312c1.609-.5 2.5-1.593 2.5-2.812 0-.984-.563-1.594-1.454-1.594C.875-4.094.25-3.5.25-2.625c0 .766.516 1.297 1.219 1.297.297 0 .578-.094.875-.234C2.125-.938 1.64-.47.875-.125l-.266.047zm0 0"/></symbol><g clip-path="url(#a)"><path d="M271.45 115.398c0-13.699-11.102-24.804-24.802-24.804-13.699 0-24.804 11.105-24.804 24.804 0 13.696 11.105 24.801 24.804 24.801 13.7 0 24.801-11.105 24.801-24.8zm0 0" fill="#ccc"/></g><g clip-path="url(#b)"><path d="M271.45 115.398c0-13.699-11.102-24.804-24.802-24.804-13.699 0-24.804 11.105-24.804 24.804 0 13.696 11.105 24.801 24.804 24.801 13.7 0 24.801-11.105 24.801-24.8zm0 0" fill="none" stroke="#f2f2f2" stroke-miterlimit="10" stroke-width="1.196"/></g><path d="M.598 31.54V18.468a2.988 2.988 0 012.988-2.989H16.66a2.988 2.988 0 012.988 2.989v13.07a2.988 2.988 0 01-2.988 2.988H3.586A2.988 2.988 0 01.598 31.54zm19.843 0V18.468a2.986 2.986 0 012.989-2.989H36.5a2.986 2.986 0 012.988 2.989v13.07a2.986 2.986 0 01-2.988 2.988H23.43a2.986 2.986 0 01-2.989-2.988zm19.844-9.923V8.547a2.988 2.988 0 012.988-2.988h13.07a2.988 2.988 0 012.989 2.988v13.07a2.99 2.99 0 01-2.988 2.992h-13.07a2.99 2.99 0 01-2.989-2.992zm19.84-4.957V3.586A2.99 2.99 0 0163.113.598h13.075a2.99 2.99 0 012.988 2.988V16.66a2.99 2.99 0 01-2.989 2.988H63.114a2.99 2.99 0 01-2.988-2.988zm19.844 4.957V8.547a2.99 2.99 0 012.988-2.988h13.07a2.992 2.992 0 012.993 2.988v13.07a2.992 2.992 0 01-2.993 2.992h-13.07a2.992 2.992 0 01-2.988-2.992zm19.844 0V8.547a2.988 2.988 0 012.988-2.988h13.07a2.988 2.988 0 012.988 2.988v13.07a2.99 2.99 0 01-2.988 2.992h-13.07a2.99 2.99 0 01-2.989-2.992zm119.054 0V8.547a2.99 2.99 0 012.988-2.988h13.075a2.99 2.99 0 012.988 2.988v13.07a2.992 2.992 0 01-2.988 2.992h-13.075a2.992 2.992 0 01-2.988-2.992zm19.843 0V8.547a2.988 2.988 0 012.99-2.988h13.07a2.988 2.988 0 012.988 2.988v13.07a2.99 2.99 0 01-2.988 2.992H241.7a2.99 2.99 0 01-2.99-2.992zm19.845-4.957V3.586a2.988 2.988 0 012.988-2.988h13.07a2.988 2.988 0 012.989 2.988V16.66a2.988 2.988 0 01-2.989 2.988h-13.07a2.988 2.988 0 01-2.988-2.988zm19.84 4.957V8.547a2.99 2.99 0 012.988-2.988h13.074a2.99 2.99 0 012.988 2.988v13.07a2.992 2.992 0 01-2.988 2.992h-13.074a2.992 2.992 0 01-2.988-2.992zm19.843 9.923V18.468a2.988 2.988 0 012.989-2.989h13.07a2.99 2.99 0 012.992 2.989v13.07a2.99 2.99 0 01-2.992 2.988h-13.07a2.988 2.988 0 01-2.989-2.988zm0 0" fill="#ccc" stroke="#f2f2f2" stroke-miterlimit="10" stroke-width="1.196"/><g clip-path="url(#c)"><path d="M318.082 31.54V18.468a2.986 2.986 0 012.988-2.989h13.07a2.986 2.986 0 012.989 2.989v13.07a2.986 2.986 0 01-2.988 2.988h-13.07a2.986 2.986 0 01-2.989-2.988zm0 0" fill="#ccc"/></g><g clip-path="url(#d)"><path d="M318.082 31.54V18.468a2.986 2.986 0 012.988-2.989h13.07a2.986 2.986 0 012.989 2.989v13.07a2.986 2.986 0 01-2.988 2.988h-13.07a2.986 2.986 0 01-2.989-2.988zm0 0" fill="none" stroke="#f2f2f2" stroke-miterlimit="10" stroke-width="1.196"/></g><path d="M.598 51.383v-13.07a2.988 2.988 0 012.988-2.989H16.66a2.988 2.988 0 012.988 2.989v13.07a2.988 2.988 0 01-2.988 2.988H3.586a2.988 2.988 0 01-2.988-2.988zm19.843 0v-13.07a2.986 2.986 0 012.989-2.989H36.5a2.986 2.986 0 012.988 2.989v13.07A2.986 2.986 0 0136.5 54.37H23.43a2.986 2.986 0 01-2.989-2.988zm19.844-9.923V28.39a2.986 2.986 0 012.988-2.988h13.07a2.986 2.986 0 012.989 2.989v13.07a2.986 2.986 0 01-2.988 2.988h-13.07a2.986 2.986 0 01-2.989-2.988zm19.84-4.96V23.43a2.988 2.988 0 012.988-2.989h13.075a2.988 2.988 0 012.988 2.989V36.5a2.988 2.988 0 01-2.989 2.988H63.114a2.988 2.988 0 01-2.988-2.988zm19.844 4.96V28.39a2.988 2.988 0 012.988-2.988h13.07a2.99 2.99 0 012.993 2.989v13.07a2.99 2.99 0 01-2.993 2.988h-13.07a2.988 2.988 0 01-2.988-2.988zm19.844 0V28.39a2.986 2.986 0 012.988-2.988h13.07a2.986 2.986 0 012.988 2.989v13.07a2.986 2.986 0 01-2.988 2.988h-13.07a2.986 2.986 0 01-2.989-2.988zm119.054 0V28.39a2.988 2.988 0 012.988-2.988h13.075a2.988 2.988 0 012.988 2.989v13.07a2.988 2.988 0 01-2.988 2.988h-13.075a2.988 2.988 0 01-2.988-2.988zm19.843 0V28.39a2.986 2.986 0 012.99-2.988h13.07a2.986 2.986 0 012.988 2.989v13.07a2.986 2.986 0 01-2.988 2.988H241.7a2.986 2.986 0 01-2.99-2.988zm19.845-4.96V23.43a2.986 2.986 0 012.988-2.989h13.07a2.986 2.986 0 012.989 2.989V36.5a2.986 2.986 0 01-2.989 2.988h-13.07a2.986 2.986 0 01-2.988-2.988zm19.84 4.96V28.39a2.988 2.988 0 012.988-2.988h13.074a2.988 2.988 0 012.988 2.989v13.07a2.988 2.988 0 01-2.988 2.988h-13.074a2.988 2.988 0 01-2.988-2.988zm19.843 9.923v-13.07a2.988 2.988 0 012.989-2.989h13.07a2.99 2.99 0 012.992 2.989v13.07a2.99 2.99 0 01-2.992 2.988h-13.07a2.988 2.988 0 01-2.989-2.988zm0 0" fill="#ccc" stroke="#f2f2f2" stroke-miterlimit="10" stroke-width="1.196"/><g clip-path="url(#e)"><path d="M318.082 51.383v-13.07a2.986 2.986 0 012.988-2.989h13.07a2.986 2.986 0 012.989 2.989v13.07a2.986 2.986 0 01-2.988 2.988h-13.07a2.986 2.986 0 01-2.989-2.988zm0 0" fill="#ccc"/></g><g clip-path="url(#f)"><path d="M318.082 51.383v-13.07a2.986 2.986 0 012.988-2.989h13.07a2.986 2.986 0 012.989 2.989v13.07a2.986 2.986 0 01-2.988 2.988h-13.07a2.986 2.986 0 01-2.989-2.988zm0 0" fill="none" stroke="#f2f2f2" stroke-miterlimit="10" stroke-width="1.196"/></g><path d="M.598 71.227V58.152a2.99 2.99 0 012.988-2.988H16.66a2.99 2.99 0 012.988 2.988v13.075a2.99 2.99 0 01-2.988 2.988H3.586a2.99 2.99 0 01-2.988-2.988zm19.843 0V58.152a2.988 2.988 0 012.989-2.988H36.5a2.988 2.988 0 012.988 2.988v13.075a2.988 2.988 0 01-2.988 2.988H23.43a2.988 2.988 0 01-2.989-2.988zm19.844-9.922v-13.07a2.99 2.99 0 012.988-2.993h13.07a2.99 2.99 0 012.989 2.992v13.07a2.988 2.988 0 01-2.988 2.989h-13.07a2.988 2.988 0 01-2.989-2.988zm19.84-4.961v-13.07a2.988 2.988 0 012.988-2.989h13.075a2.988 2.988 0 012.988 2.988v13.07a2.988 2.988 0 01-2.989 2.989H63.114a2.988 2.988 0 01-2.988-2.988zm19.844 4.961v-13.07a2.992 2.992 0 012.988-2.993h13.07a2.992 2.992 0 012.993 2.992v13.07a2.992 2.992 0 01-2.993 2.989h-13.07a2.99 2.99 0 01-2.988-2.988zm19.844 0v-13.07a2.99 2.99 0 012.988-2.993h13.07a2.99 2.99 0 012.988 2.992v13.07a2.988 2.988 0 01-2.988 2.989h-13.07a2.988 2.988 0 01-2.989-2.988zm119.054 0v-13.07a2.992 2.992 0 012.988-2.993h13.075a2.992 2.992 0 012.988 2.992v13.07a2.99 2.99 0 01-2.988 2.989h-13.075a2.99 2.99 0 01-2.988-2.988zm19.843 0v-13.07a2.99 2.99 0 012.99-2.993h13.07a2.99 2.99 0 012.988 2.992v13.07a2.988 2.988 0 01-2.988 2.989H241.7a2.988 2.988 0 01-2.99-2.988zm19.845-4.961v-13.07a2.986 2.986 0 012.988-2.989h13.07a2.986 2.986 0 012.989 2.988v13.07a2.986 2.986 0 01-2.989 2.989h-13.07a2.986 2.986 0 01-2.988-2.988zm19.84 4.961v-13.07a2.992 2.992 0 012.988-2.993h13.074a2.992 2.992 0 012.988 2.992v13.07a2.99 2.99 0 01-2.988 2.989h-13.074a2.99 2.99 0 01-2.988-2.988zm19.843 9.922V58.152a2.99 2.99 0 012.989-2.988h13.07a2.992 2.992 0 012.992 2.988v13.075a2.992 2.992 0 01-2.992 2.988h-13.07a2.99 2.99 0 01-2.989-2.988zm0 0" fill="#ccc" stroke="#f2f2f2" stroke-miterlimit="10" stroke-width="1.196"/><g clip-path="url(#g)"><path d="M318.082 71.227V58.152a2.988 2.988 0 012.988-2.988h13.07a2.988 2.988 0 012.989 2.988v13.075a2.988 2.988 0 01-2.988 2.988h-13.07a2.988 2.988 0 01-2.989-2.988zm0 0" fill="#ccc"/></g><g clip-path="url(#h)"><path d="M318.082 71.227V58.152a2.988 2.988 0 012.988-2.988h13.07a2.988 2.988 0 012.989 2.988v13.075a2.988 2.988 0 01-2.988 2.988h-13.07a2.988 2.988 0 01-2.989-2.988zm0 0" fill="none" stroke="#f2f2f2" stroke-miterlimit="10" stroke-width="1.196"/></g><path d="M.598 91.07V77.996a2.99 2.99 0 012.988-2.988H16.66a2.99 2.99 0 012.988 2.988V91.07a2.99 2.99 0 01-2.988 2.989H3.586A2.99 2.99 0 01.598 91.07zm19.843 0V77.996a2.988 2.988 0 012.989-2.988H36.5a2.988 2.988 0 012.988 2.988V91.07a2.988 2.988 0 01-2.988 2.99H23.43a2.988 2.988 0 01-2.989-2.989zm19.844-9.922V68.074a2.988 2.988 0 012.988-2.988h13.07a2.988 2.988 0 012.989 2.988v13.074a2.988 2.988 0 01-2.988 2.989h-13.07a2.988 2.988 0 01-2.989-2.989zm19.84-4.96V63.112a2.99 2.99 0 012.988-2.988h13.075a2.99 2.99 0 012.988 2.988v13.075a2.99 2.99 0 01-2.989 2.988H63.114a2.99 2.99 0 01-2.988-2.989zm19.844 4.96V68.074a2.99 2.99 0 012.988-2.988h13.07a2.992 2.992 0 012.993 2.988v13.074a2.992 2.992 0 01-2.993 2.989h-13.07a2.99 2.99 0 01-2.988-2.989zm19.844 0V68.074a2.988 2.988 0 012.988-2.988h13.07a2.988 2.988 0 012.988 2.988v13.074a2.988 2.988 0 01-2.988 2.989h-13.07a2.988 2.988 0 01-2.989-2.989zm119.054 0V68.074a2.99 2.99 0 012.988-2.988h13.075a2.99 2.99 0 012.988 2.988v13.074a2.99 2.99 0 01-2.988 2.989h-13.075a2.99 2.99 0 01-2.988-2.989zm19.843 0V68.074a2.988 2.988 0 012.99-2.988h13.07a2.988 2.988 0 012.988 2.988v13.074a2.988 2.988 0 01-2.988 2.989H241.7a2.988 2.988 0 01-2.99-2.989zm19.845-4.96V63.112a2.988 2.988 0 012.988-2.988h13.07a2.988 2.988 0 012.989 2.988v13.075a2.988 2.988 0 01-2.989 2.988h-13.07a2.988 2.988 0 01-2.988-2.989zm19.84 4.96V68.074a2.99 2.99 0 012.988-2.988h13.074a2.99 2.99 0 012.988 2.988v13.074a2.99 2.99 0 01-2.988 2.989h-13.074a2.99 2.99 0 01-2.988-2.989zm19.843 9.922V77.996a2.99 2.99 0 012.989-2.988h13.07a2.992 2.992 0 012.992 2.988V91.07a2.992 2.992 0 01-2.992 2.989h-13.07a2.99 2.99 0 01-2.989-2.989zm0 0" fill="#ccc" stroke="#f2f2f2" stroke-miterlimit="10" stroke-width="1.196"/><g clip-path="url(#i)"><path d="M318.082 91.07V77.996a2.988 2.988 0 012.988-2.988h13.07a2.988 2.988 0 012.989 2.988V91.07a2.988 2.988 0 01-2.988 2.989h-13.07a2.988 2.988 0 01-2.989-2.989zm0 0" fill="#ccc"/></g><g clip-path="url(#j)"><path d="M318.082 91.07V77.996a2.988 2.988 0 012.988-2.988h13.07a2.988 2.988 0 012.989 2.988V91.07a2.988 2.988 0 01-2.988 2.989h-13.07a2.988 2.988 0 01-2.989-2.989zm0 0" fill="none" stroke="#f2f2f2" stroke-miterlimit="10" stroke-width="1.196"/></g><g fill="#ccc"><path d="M99.813 100.988v-13.07a2.988 2.988 0 012.988-2.988h13.07a2.988 2.988 0 012.988 2.988v13.07a2.99 2.99 0 01-2.988 2.992h-13.07a2.99 2.99 0 01-2.989-2.992zm19.839 0v-13.07a2.992 2.992 0 012.993-2.988h13.07a2.99 2.99 0 012.988 2.988v13.07a2.992 2.992 0 01-2.988 2.992h-13.07a2.992 2.992 0 01-2.993-2.992zm19.844 0v-13.07a2.99 2.99 0 012.988-2.988h13.075a2.99 2.99 0 012.988 2.988v13.07a2.992 2.992 0 01-2.988 2.992h-13.075a2.992 2.992 0 01-2.988-2.992zm39.688 0v-13.07a2.988 2.988 0 012.988-2.988h13.07a2.988 2.988 0 012.988 2.988v13.07a2.99 2.99 0 01-2.988 2.992h-13.07a2.99 2.99 0 01-2.988-2.992zm19.839 0v-13.07a2.992 2.992 0 012.993-2.988h13.07a2.99 2.99 0 012.988 2.988v13.07a2.992 2.992 0 01-2.988 2.992h-13.07a2.992 2.992 0 01-2.993-2.992zm0 0" stroke="#f2f2f2" stroke-miterlimit="10" stroke-width="1.196"/><path d="M119.652 120.832v-13.07a2.99 2.99 0 012.993-2.989h13.07a2.988 2.988 0 012.988 2.989v13.07a2.988 2.988 0 01-2.988 2.988h-13.07a2.99 2.99 0 01-2.993-2.988zm0 0"/></g><g clip-path="url(#k)"><path d="M119.652 120.832v-13.07a2.99 2.99 0 012.993-2.989h13.07a2.988 2.988 0 012.988 2.989v13.07a2.988 2.988 0 01-2.988 2.988h-13.07a2.99 2.99 0 01-2.993-2.988zm0 0" fill="none" stroke="#f2f2f2" stroke-miterlimit="10" stroke-width="1.196"/></g><path d="M139.496 120.832v-13.07a2.988 2.988 0 012.988-2.989h13.075a2.988 2.988 0 012.988 2.989v13.07a2.988 2.988 0 01-2.988 2.988h-13.075a2.988 2.988 0 01-2.988-2.988zm0 0" fill="#ccc"/><g clip-path="url(#l)"><path d="M139.496 120.832v-13.07a2.988 2.988 0 012.988-2.989h13.075a2.988 2.988 0 012.988 2.989v13.07a2.988 2.988 0 01-2.988 2.988h-13.075a2.988 2.988 0 01-2.988-2.988zm0 0" fill="none" stroke="#f2f2f2" stroke-miterlimit="10" stroke-width="1.196"/></g><path d="M179.184 120.832v-13.07a2.986 2.986 0 012.988-2.989h13.07a2.986 2.986 0 012.988 2.989v13.07a2.986 2.986 0 01-2.988 2.988h-13.07a2.986 2.986 0 01-2.988-2.988zm0 0" fill="#ccc"/><g clip-path="url(#m)"><path d="M179.184 120.832v-13.07a2.986 2.986 0 012.988-2.989h13.07a2.986 2.986 0 012.988 2.989v13.07a2.986 2.986 0 01-2.988 2.988h-13.07a2.986 2.986 0 01-2.988-2.988zm0 0" fill="none" stroke="#f2f2f2" stroke-miterlimit="10" stroke-width="1.196"/></g><g clip-path="url(#n)"><path d="M10.52 26.7s14.335 1.378 19.843 0c5.504-1.376 14.336-7.856 19.84-9.923 5.508-2.062 14.34-4.96 19.844-4.96 5.508 0 14.336 4.273 19.844 4.96 5.504.692 19.843 0 19.843 0m218.27 9.922s-14.34 1.38-19.844 0c-5.508-1.375-14.336-7.855-19.844-9.922-5.503-2.062-14.336-4.96-19.843-4.96-5.504 0-14.336 4.273-19.84 4.96-5.508.692-19.844 0-19.844 0" fill="none" stroke="#f32a96" stroke-miterlimit="10" stroke-width=".797"/></g><path d="M12.328 26.7a1.81 1.81 0 10-3.62.001 1.81 1.81 0 003.62-.002zm19.844 0c0-.997-.813-1.81-1.809-1.81a1.81 1.81 0 000 3.618 1.81 1.81 0 001.809-1.809zm19.84-9.923a1.81 1.81 0 00-1.809-1.808c-.996 0-1.808.812-1.808 1.808a1.81 1.81 0 003.617 0zm19.843-4.961a1.81 1.81 0 10-3.619.002 1.81 1.81 0 003.62-.002zM91.7 16.777a1.81 1.81 0 10-3.62.002 1.81 1.81 0 003.62-.002zm19.84 0a1.81 1.81 0 00-1.806-1.808 1.81 1.81 0 000 3.617c.996 0 1.805-.809 1.805-1.809zM329.809 26.7a1.81 1.81 0 00-1.805-1.81 1.81 1.81 0 000 3.618c.996 0 1.805-.809 1.805-1.809zm-19.84 0a1.81 1.81 0 10-3.62.001 1.81 1.81 0 003.62-.002zm-19.844-9.923a1.81 1.81 0 10-3.62.002 1.81 1.81 0 003.62-.002zm-19.844-4.961a1.81 1.81 0 00-1.808-1.808c-.996 0-1.809.812-1.809 1.808a1.81 1.81 0 003.617 0zm-19.84 4.961c0-.996-.812-1.808-1.808-1.808a1.81 1.81 0 000 3.617 1.81 1.81 0 001.808-1.809zm-19.843 0a1.81 1.81 0 10-3.62.002 1.81 1.81 0 003.62-.002zm0 0" fill="#f32a96"/><g clip-path="url(#o)"><path d="M10.52 46.543s14.335 1.375 19.843 0c5.504-1.375 14.336-7.856 19.84-9.922 5.508-2.066 14.34-4.96 19.844-4.96 5.508 0 14.336 4.273 19.844 4.96 5.504.688 19.843 0 19.843 0m218.27 9.922s-14.34 1.375-19.844 0c-5.508-1.375-14.336-7.856-19.844-9.922-5.503-2.066-14.336-4.96-19.843-4.96-5.504 0-14.336 4.273-19.84 4.96-5.508.688-19.844 0-19.844 0" fill="none" stroke="#f32a96" stroke-miterlimit="10" stroke-width=".797"/></g><path d="M12.328 46.543a1.807 1.807 0 10-3.617 0 1.808 1.808 0 103.617 0zm19.844 0a1.81 1.81 0 10-3.62.002 1.81 1.81 0 003.62-.002zm19.84-9.922a1.81 1.81 0 10-3.615.002 1.81 1.81 0 003.615-.002zm19.843-4.961c0-1-.808-1.808-1.808-1.808s-1.809.808-1.809 1.808a1.808 1.808 0 103.617 0zM91.7 36.621a1.809 1.809 0 10-3.615 0 1.809 1.809 0 003.614 0zm19.84 0a1.806 1.806 0 10-3.614 0 1.807 1.807 0 103.613 0zm218.269 9.922a1.806 1.806 0 10-3.614 0 1.807 1.807 0 103.614 0zm-19.84 0a1.808 1.808 0 10-3.617 0 1.808 1.808 0 103.617 0zm-19.844-9.922a1.808 1.808 0 10-3.617.001 1.808 1.808 0 103.617-.001zm-19.844-4.961c0-1-.808-1.808-1.808-1.808a1.81 1.81 0 101.808 1.808zm-19.84 4.961a1.81 1.81 0 10-3.619.002 1.81 1.81 0 003.62-.002zm-19.843 0a1.808 1.808 0 10-3.618.001c0 1 .81 1.808 1.81 1.808s1.808-.809 1.808-1.809zm0 0" fill="#f32a96"/><g clip-path="url(#p)"><path d="M10.52 66.387s14.335 1.375 19.843 0c5.504-1.38 14.336-7.86 19.84-9.922 5.508-2.067 14.34-4.961 19.844-4.961 5.508 0 14.336 4.273 19.844 4.96 5.504.688 19.843 0 19.843 0m218.27 9.923s-14.34 1.375-19.844 0c-5.508-1.38-14.336-7.86-19.844-9.922-5.503-2.067-14.336-4.961-19.843-4.961-5.504 0-14.336 4.273-19.84 4.96-5.508.688-19.844 0-19.844 0" fill="none" stroke="#f32a96" stroke-miterlimit="10" stroke-width=".797"/></g><path d="M12.328 66.387a1.807 1.807 0 10-3.617 0 1.81 1.81 0 003.617 0zm19.844 0a1.81 1.81 0 00-3.617 0 1.81 1.81 0 001.808 1.808c.996 0 1.809-.812 1.809-1.808zm19.84-9.922a1.81 1.81 0 00-3.617 0 1.81 1.81 0 003.617 0zm19.843-4.961a1.807 1.807 0 10-3.617 0 1.808 1.808 0 103.617-.001zM91.7 56.465a1.809 1.809 0 10-3.618 0 1.81 1.81 0 003.617 0zm19.84 0a1.806 1.806 0 10-3.614 0 1.81 1.81 0 001.808 1.808c.996 0 1.805-.812 1.805-1.808zm218.269 9.922a1.806 1.806 0 10-3.614 0 1.81 1.81 0 001.809 1.808c.996 0 1.805-.812 1.805-1.808zm-19.84 0a1.808 1.808 0 10-3.617 0 1.81 1.81 0 003.617 0zm-19.844-9.922a1.808 1.808 0 10-3.617 0 1.81 1.81 0 003.617 0zm-19.844-4.961c0-1-.808-1.809-1.808-1.809a1.81 1.81 0 101.808 1.809zm-19.84 4.961a1.81 1.81 0 00-3.617 0 1.81 1.81 0 001.809 1.808c.996 0 1.808-.812 1.808-1.808zm-19.843 0c0-1-.809-1.809-1.809-1.809s-1.809.809-1.809 1.809a1.81 1.81 0 003.618 0zm0 0" fill="#f32a96"/><g clip-path="url(#q)"><path d="M10.52 86.227s14.335 1.378 19.843 0c5.504-1.375 14.336-7.856 19.84-9.918 5.508-2.067 14.34-4.961 19.844-4.961 5.508 0 14.336 4.27 19.844 4.96 5.504.688 19.843 0 19.843 0m218.27 9.919s-14.34 1.378-19.844 0c-5.508-1.375-14.336-7.856-19.844-9.918-5.503-2.067-14.336-4.961-19.843-4.961-5.504 0-14.336 4.27-19.84 4.96-5.508.688-19.844 0-19.844 0" fill="none" stroke="#f32a96" stroke-miterlimit="10" stroke-width=".797"/></g><path d="M12.328 86.227a1.81 1.81 0 10-3.62.002 1.81 1.81 0 003.62-.002zm19.844 0a1.81 1.81 0 10-1.809 1.809 1.81 1.81 0 001.809-1.81zm19.84-9.918a1.81 1.81 0 00-3.617 0 1.809 1.809 0 003.617 0zm19.843-4.961a1.807 1.807 0 10-3.617 0 1.81 1.81 0 003.617 0zM91.7 76.309c0-1-.81-1.809-1.81-1.809a1.807 1.807 0 100 3.613c1 0 1.81-.808 1.81-1.804zm19.84 0a1.806 1.806 0 10-3.614-.005 1.806 1.806 0 003.613.005zm218.269 9.918c0-.997-.809-1.809-1.805-1.809a1.81 1.81 0 000 3.617c.996 0 1.805-.808 1.805-1.808zm-19.84 0a1.81 1.81 0 10-3.62.002 1.81 1.81 0 003.62-.002zm-19.844-9.918c0-1-.809-1.809-1.809-1.809a1.807 1.807 0 100 3.613c1 0 1.809-.808 1.809-1.804zm-19.844-4.961c0-1-.808-1.809-1.808-1.809a1.81 1.81 0 00-1.809 1.809 1.81 1.81 0 003.617 0zm-19.84 4.961a1.81 1.81 0 00-3.617 0 1.809 1.809 0 003.617 0zm-19.843 0c0-1-.809-1.809-1.809-1.809a1.807 1.807 0 100 3.613c1 0 1.809-.808 1.809-1.804zm0 0" fill="#f32a96"/><path d="M149.418 96.148s5.508 19.844 0 19.844-36.934-17.09-39.684-19.844c-2.754-2.753 17.09-2.753 19.84 0 2.754 2.754 0 19.844 0 19.844" fill="none" stroke="#f32a96" stroke-miterlimit="10" stroke-width=".797"/><path d="M151.227 96.148a1.81 1.81 0 10-3.62.003 1.81 1.81 0 003.62-.003zm0 19.844c0-1-.809-1.808-1.809-1.808s-1.809.808-1.809 1.808.809 1.809 1.809 1.809 1.809-.809 1.809-1.809zM111.54 96.148a1.81 1.81 0 00-1.806-1.808 1.81 1.81 0 000 3.617c.996 0 1.805-.809 1.805-1.809zm19.843 0a1.81 1.81 0 00-1.809-1.808c-.996 0-1.808.812-1.808 1.808a1.81 1.81 0 003.617 0zm0 19.844a1.81 1.81 0 10-3.615.002 1.81 1.81 0 003.615-.002zm0 0" fill="#f32a96"/><path d="M189.102 96.148s19.843-2.753 19.843 0c0 2.754-19.843 19.844-19.843 19.844" fill="none" stroke="#f32a96" stroke-miterlimit="10" stroke-width=".797"/><path d="M190.91 96.148a1.81 1.81 0 00-1.808-1.808 1.809 1.809 0 000 3.617c1 0 1.808-.809 1.808-1.809zm19.844 0a1.81 1.81 0 00-1.809-1.808c-.996 0-1.808.812-1.808 1.808a1.81 1.81 0 003.617 0zm-19.844 19.844a1.807 1.807 0 10-3.613 0 1.806 1.806 0 103.613 0zm0 0" fill="#f32a96"/><g clip-path="url(#r)"><path d="M30.363 26.7v39.687c0 8.258-6.61 15.71 0 19.84 6.606 4.132 35.23 3.867 47.621 9.921 12.391 6.059 30.793 30.98 41.668 33.735 10.875 2.754 32.582-9.211 36.711-13.89 4.13-4.68-6.945-19.845-6.945-19.845" fill="none" stroke="#f32a96" stroke-miterlimit="10" stroke-width=".797"/></g><g fill="none" stroke="#f32a96" stroke-miterlimit="10" stroke-width=".797"><path d="M50.203 16.777v39.688c0 8.258-4.816 14.336 0 19.844 4.82 5.504 25.09 12.957 34.727 19.84 9.636 6.882 25.777 27.011 34.722 29.765 8.95 2.754 29.766-9.922 29.766-9.922"/><path d="M70.047 11.816v39.688c0 8.258-1.375 15.023 0 19.844 1.379 4.816 4.414 11.437 9.922 14.879 5.508 3.441 29.765 9.921 29.765 9.921"/><path d="M89.89 16.777v39.688c0 8.258-1.378 15.71 0 19.844 1.376 4.129 5.794 8.543 9.922 9.918 4.13 1.378 15.711-1.375 19.84 0 4.133 1.378 9.922 9.921 9.922 9.921"/><path d="M109.734 16.777v39.688c0 8.258 1.649 15.71 0 19.844-1.652 4.129-10.53 5.789-11.906 9.918-1.379 4.132-2.422 15.714 1.984 19.843 4.403 4.13 29.762 9.922 29.762 9.922m99.216-99.215v39.688c0 8.258 3.026 12.96 0 19.844-3.028 6.882-16.321 24.254-21.83 29.761-5.503 5.508-17.858 9.922-17.858 9.922"/><path d="M268.473 11.816v39.688c0 8.258 6.058 14.336 0 19.844-6.055 5.504-35.395 16.398-43.653 19.84-8.257 3.44-15.875 4.96-15.875 4.96"/><path d="M308.16 26.7v39.687c0 8.258 6.883 17.226 0 19.84-6.883 2.617-39.281-1.817-49.605-.993-10.325.829-15.168 1.579-24.805 6.946-9.637 5.37-37.488 29.132-44.648 31.75-7.157 2.613-6.942-9.043-6.942-12.899s6.942-14.883 6.942-14.883M10.52 26.7v59.527m317.484-59.528v59.528m-39.688-69.45V76.31m-39.683-59.532V76.31"/></g><use x="5.785" xlink:href="#s" y="23.645"/><use x="9.258" xlink:href="#t" y="23.645"/><use x="10.986" xlink:href="#s" y="23.645"/><use x="25.628" xlink:href="#s" y="23.645"/><use x="29.101" xlink:href="#t" y="23.645"/><use x="30.829" xlink:href="#u" y="23.645"/><use x="45.47" xlink:href="#s" y="13.724"/><use x="48.943" xlink:href="#t" y="13.724"/><use x="50.671" xlink:href="#v" y="13.724"/><use x="65.313" xlink:href="#s" y="8.763"/><use x="68.786" xlink:href="#t" y="8.763"/><use x="70.514" xlink:href="#w" y="8.763"/><use x="85.155" xlink:href="#s" y="13.724"/><use x="88.628" xlink:href="#t" y="13.724"/><use x="90.356" xlink:href="#x" y="13.724"/><use x="104.997" xlink:href="#s" y="13.724"/><use x="108.47" xlink:href="#t" y="13.724"/><use x="110.198" xlink:href="#y" y="13.724"/><use x="224.052" xlink:href="#y" y="13.724"/><use x="227.525" xlink:href="#t" y="13.724"/><use x="229.253" xlink:href="#y" y="13.724"/><use x="243.894" xlink:href="#y" y="13.724"/><use x="247.367" xlink:href="#t" y="13.724"/><use x="249.095" xlink:href="#x" y="13.724"/><use x="263.737" xlink:href="#y" y="8.763"/><use x="267.21" xlink:href="#t" y="8.763"/><use x="268.938" xlink:href="#w" y="8.763"/><use x="283.579" xlink:href="#y" y="13.724"/><use x="287.052" xlink:href="#t" y="13.724"/><use x="288.78" xlink:href="#v" y="13.724"/><use x="303.422" xlink:href="#y" y="23.645"/><use x="306.895" xlink:href="#t" y="23.645"/><use x="308.623" xlink:href="#u" y="23.645"/><use x="323.264" xlink:href="#y" y="23.645"/><use x="326.737" xlink:href="#t" y="23.645"/><use x="328.465" xlink:href="#s" y="23.645"/><use x="5.785" xlink:href="#u" y="43.487"/><use x="9.258" xlink:href="#t" y="43.487"/><use x="10.986" xlink:href="#s" y="43.487"/><use x="25.628" xlink:href="#u" y="43.487"/><use x="29.101" xlink:href="#t" y="43.487"/><use x="30.829" xlink:href="#u" y="43.487"/><use x="45.47" xlink:href="#u" y="33.566"/><use x="48.943" xlink:href="#t" y="33.566"/><use x="50.671" xlink:href="#v" y="33.566"/><use x="65.313" xlink:href="#u" y="28.606"/><use x="68.786" xlink:href="#t" y="28.606"/><use x="70.514" xlink:href="#w" y="28.606"/><use x="85.155" xlink:href="#u" y="33.566"/><use x="88.628" xlink:href="#t" y="33.566"/><use x="90.356" xlink:href="#x" y="33.566"/><use x="104.997" xlink:href="#u" y="33.566"/><use x="108.47" xlink:href="#t" y="33.566"/><use x="110.198" xlink:href="#y" y="33.566"/><use x="224.052" xlink:href="#z" y="33.566"/><use x="227.525" xlink:href="#t" y="33.566"/><use x="229.253" xlink:href="#y" y="33.566"/><use x="243.894" xlink:href="#z" y="33.566"/><use x="247.367" xlink:href="#t" y="33.566"/><use x="249.095" xlink:href="#x" y="33.566"/><use x="263.737" xlink:href="#z" y="28.605"/><use x="267.21" xlink:href="#t" y="28.605"/><use x="268.938" xlink:href="#w" y="28.605"/><use x="283.579" xlink:href="#z" y="33.566"/><use x="287.052" xlink:href="#t" y="33.566"/><use x="288.78" xlink:href="#v" y="33.566"/><use x="303.422" xlink:href="#z" y="43.487"/><use x="306.895" xlink:href="#t" y="43.487"/><use x="308.623" xlink:href="#u" y="43.487"/><use x="323.264" xlink:href="#z" y="43.487"/><use x="326.737" xlink:href="#t" y="43.487"/><use x="328.465" xlink:href="#s" y="43.487"/><use x="5.785" xlink:href="#v" y="63.33"/><use x="9.258" xlink:href="#t" y="63.33"/><use x="10.986" xlink:href="#s" y="63.33"/><use x="25.628" xlink:href="#v" y="63.33"/><use x="29.101" xlink:href="#t" y="63.33"/><use x="30.829" xlink:href="#u" y="63.33"/><use x="45.47" xlink:href="#v" y="53.409"/><use x="48.943" xlink:href="#t" y="53.409"/><use x="50.671" xlink:href="#v" y="53.409"/><use x="65.313" xlink:href="#v" y="48.448"/><use x="68.786" xlink:href="#t" y="48.448"/><use x="70.514" xlink:href="#w" y="48.448"/><use x="85.155" xlink:href="#v" y="53.409"/><use x="88.628" xlink:href="#t" y="53.409"/><use x="90.356" xlink:href="#x" y="53.409"/><use x="104.997" xlink:href="#v" y="53.409"/><use x="108.47" xlink:href="#t" y="53.409"/><use x="110.198" xlink:href="#y" y="53.409"/><use x="224.052" xlink:href="#A" y="53.409"/><use x="227.525" xlink:href="#t" y="53.409"/><use x="229.253" xlink:href="#y" y="53.409"/><use x="243.894" xlink:href="#A" y="53.409"/><use x="247.367" xlink:href="#t" y="53.409"/><use x="249.095" xlink:href="#x" y="53.409"/><use x="263.737" xlink:href="#A" y="48.448"/><use x="267.21" xlink:href="#t" y="48.448"/><use x="268.938" xlink:href="#w" y="48.448"/><use x="283.579" xlink:href="#A" y="53.409"/><use x="287.052" xlink:href="#t" y="53.409"/><use x="288.78" xlink:href="#v" y="53.409"/><use x="303.422" xlink:href="#A" y="63.33"/><use x="306.895" xlink:href="#t" y="63.33"/><use x="308.623" xlink:href="#u" y="63.33"/><use x="323.264" xlink:href="#A" y="63.33"/><use x="326.737" xlink:href="#t" y="63.33"/><use x="328.465" xlink:href="#s" y="63.33"/><use x="5.785" xlink:href="#w" y="83.172"/><use x="9.258" xlink:href="#t" y="83.172"/><use x="10.986" xlink:href="#s" y="83.172"/><use x="25.628" xlink:href="#w" y="83.172"/><use x="29.101" xlink:href="#t" y="83.172"/><use x="30.829" xlink:href="#u" y="83.172"/><use x="45.47" xlink:href="#w" y="73.251"/><use x="48.943" xlink:href="#t" y="73.251"/><use x="50.671" xlink:href="#v" y="73.251"/><use x="65.313" xlink:href="#w" y="68.29"/><use x="68.786" xlink:href="#t" y="68.29"/><use x="70.514" xlink:href="#w" y="68.29"/><use x="85.155" xlink:href="#w" y="73.251"/><use x="88.628" xlink:href="#t" y="73.251"/><use x="90.356" xlink:href="#x" y="73.251"/><use x="104.997" xlink:href="#w" y="73.251"/><use x="108.47" xlink:href="#t" y="73.251"/><use x="110.198" xlink:href="#y" y="73.251"/><use x="224.052" xlink:href="#B" y="73.251"/><use x="227.525" xlink:href="#t" y="73.251"/><use x="229.253" xlink:href="#y" y="73.251"/><use x="243.894" xlink:href="#B" y="73.251"/><use x="247.367" xlink:href="#t" y="73.251"/><use x="249.095" xlink:href="#x" y="73.251"/><use x="263.737" xlink:href="#B" y="68.29"/><use x="267.21" xlink:href="#t" y="68.29"/><use x="268.938" xlink:href="#w" y="68.29"/><use x="283.579" xlink:href="#B" y="73.251"/><use x="287.052" xlink:href="#t" y="73.251"/><use x="288.78" xlink:href="#v" y="73.251"/><use x="303.422" xlink:href="#B" y="83.172"/><use x="306.895" xlink:href="#t" y="83.172"/><use x="308.623" xlink:href="#u" y="83.172"/><use x="323.264" xlink:href="#B" y="83.172"/><use x="326.737" xlink:href="#t" y="83.172"/><use x="328.465" xlink:href="#s" y="83.172"/><use x="104.997" xlink:href="#x" y="93.093"/><use x="108.47" xlink:href="#t" y="93.093"/><use x="110.198" xlink:href="#w" y="93.093"/><use x="124.84" xlink:href="#x" y="93.093"/><use x="128.313" xlink:href="#t" y="93.093"/><use x="130.041" xlink:href="#x" y="93.093"/><use x="144.682" xlink:href="#x" y="93.093"/><use x="148.155" xlink:href="#t" y="93.093"/><use x="149.883" xlink:href="#u" y="93.093"/><use x="184.367" xlink:href="#C" y="93.093"/><use x="187.84" xlink:href="#t" y="93.093"/><use x="189.568" xlink:href="#u" y="93.093"/><use x="204.21" xlink:href="#C" y="93.093"/><use x="207.683" xlink:href="#t" y="93.093"/><use x="209.411" xlink:href="#w" y="93.093"/><use x="124.84" xlink:href="#x" y="112.936"/><use x="128.313" xlink:href="#t" y="112.936"/><use x="130.041" xlink:href="#y" y="112.936"/><use x="144.682" xlink:href="#x" y="112.936"/><use x="148.155" xlink:href="#t" y="112.936"/><use x="149.883" xlink:href="#v" y="112.936"/><use x="184.367" xlink:href="#C" y="112.936"/><use x="187.84" xlink:href="#t" y="112.936"/><use x="189.568" xlink:href="#y" y="112.936"/></svg>