<?xml version="1.0" encoding="UTF-8" standalone="no"?>
<!-- Created with Inkscape (http://www.inkscape.org/) -->

<svg
   width="489mm"
   height="146mm"
   viewBox="0 0 489 146"
   version="1.1"
   id="svg5"
   inkscape:version="1.2.2 (b0a84865, 2022-12-01)"
   sodipodi:docname="cic_surgery_no_font.svg"
   xmlns:inkscape="http://www.inkscape.org/namespaces/inkscape"
   xmlns:sodipodi="http://sodipodi.sourceforge.net/DTD/sodipodi-0.dtd"
   xmlns="http://www.w3.org/2000/svg"
   xmlns:svg="http://www.w3.org/2000/svg">
  <sodipodi:namedview
     id="namedview7"
     pagecolor="#ffffff"
     bordercolor="#000000"
     borderopacity="0.25"
     inkscape:showpageshadow="2"
     inkscape:pageopacity="0.0"
     inkscape:pagecheckerboard="0"
     inkscape:deskcolor="#d1d1d1"
     inkscape:document-units="mm"
     showgrid="false"
     inkscape:zoom="0.46785853"
     inkscape:cx="672.21175"
     inkscape:cy="588.85322"
     inkscape:window-width="1728"
     inkscape:window-height="1051"
     inkscape:window-x="358"
     inkscape:window-y="195"
     inkscape:window-maximized="0"
     inkscape:current-layer="layer1" />
  <defs
     id="defs2">
    <rect
       x="240.5546"
       y="-59.791027"
       width="1473.9183"
       height="144.61086"
       id="rect8552" />
  </defs>
  <g
     inkscape:label="Layer 1"
     inkscape:groupmode="layer"
     id="layer1">
    <path
       style="fill:#adadad;fill-opacity:1;stroke:#ababab;stroke-width:1.4;stroke-dasharray:1.4, 1.4;stroke-dashoffset:0;stroke-opacity:1"
       d="M 258.43362,266.62302 V 5.5823014"
       id="path3700"
       sodipodi:nodetypes="cc" />
    <g
       aria-label="CUTTING HST RST PIN"
       id="text3472"
       style="font-weight:bold;font-size:9.525px;font-family:'Roboto Mono';-inkscape-font-specification:'Roboto Mono Bold';stroke-width:0.499999">
      <path
         d="m 76.374246,13.832173 h -1.306897 q -0.0186,0.306958 -0.102319,0.525549 -0.08372,0.218591 -0.227893,0.358118 -0.144178,0.139526 -0.348816,0.204638 -0.204639,0.06511 -0.460437,0.06511 -0.190686,0 -0.348816,-0.04186 -0.153479,-0.04651 -0.279053,-0.139527 -0.116272,-0.08371 -0.209289,-0.209289 -0.08837,-0.125574 -0.153479,-0.288355 -0.09302,-0.237195 -0.139527,-0.553454 -0.04186,-0.320911 -0.04186,-0.725537 v -0.920874 q 0,-0.297657 0.02791,-0.553455 0.02791,-0.260449 0.08837,-0.47439 0.07906,-0.274401 0.20929,-0.47904 0.134875,-0.20929 0.325561,-0.320911 0.111621,-0.06511 0.241846,-0.09767 0.134876,-0.03256 0.288355,-0.03256 0.288354,0 0.492993,0.07906 0.209289,0.07441 0.348816,0.223242 0.134875,0.153479 0.204638,0.381372 0.07441,0.227893 0.09302,0.5302 h 1.302246 q -0.04651,-0.5302 -0.223242,-0.95343 -0.176734,-0.42323 -0.483692,-0.7162354 -0.306958,-0.2930054 -0.74414,-0.4511352 -0.432532,-0.1581299 -0.990637,-0.1581299 -0.376722,0 -0.706934,0.097668 -0.325562,0.093018 -0.599963,0.269751 -0.306958,0.2092896 -0.548804,0.5115967 -0.241846,0.3023074 -0.390674,0.6883304 -0.130224,0.316259 -0.195337,0.68833 -0.06511,0.367419 -0.06511,0.776696 v 0.911573 q 0,0.437182 0.06976,0.827856 0.07441,0.390674 0.20929,0.716235 0.139526,0.325562 0.339514,0.595313 0.204638,0.269751 0.465088,0.460437 0.283703,0.204639 0.63717,0.31626 0.358118,0.10697 0.776697,0.10697 0.5302,0 0.967383,-0.153479 0.437182,-0.15813 0.753442,-0.446485 0.31626,-0.288354 0.502295,-0.697631 0.190686,-0.409278 0.223242,-0.920874 z"
         style="stroke-width:0.5"
         id="path7732" />
      <path
         d="m 81.89949,9.1812939 h -1.297595 l -0.0047,4.4880981 q -0.0047,0.330212 -0.06976,0.58136 -0.06511,0.251147 -0.195337,0.418579 -0.120923,0.162781 -0.306958,0.246496 -0.181384,0.07906 -0.418579,0.07906 -0.218592,0 -0.386023,-0.07441 -0.167432,-0.07906 -0.283704,-0.232544 -0.125574,-0.167431 -0.190686,-0.42323 -0.06046,-0.255798 -0.06511,-0.595312 l -0.0047,-4.4880981 h -1.306897 l -0.0047,4.4880981 q 0,0.567407 0.15813,1.013891 0.162781,0.441834 0.455786,0.744141 0.293006,0.302307 0.702283,0.460437 0.413928,0.15813 0.925525,0.15813 0.544153,0 0.967383,-0.15813 0.42788,-0.15813 0.725537,-0.465088 0.293005,-0.302307 0.446484,-0.74414 0.15813,-0.441834 0.15813,-1.009241 z"
         style="stroke-width:0.5"
         id="path7734" />
      <path
         d="M 88.080508,10.246345 V 9.1812939 h -5.460132 v 1.0650511 h 2.060339 v 5.706628 h 1.311548 v -5.706628 z"
         style="stroke-width:0.5"
         id="path7736" />
      <path
         d="M 93.796437,10.246345 V 9.1812939 h -5.460132 v 1.0650511 h 2.06034 v 5.706628 h 1.311547 v -5.706628 z"
         style="stroke-width:0.5"
         id="path7738" />
      <path
         d="m 94.824282,9.1812939 v 1.0557491 h 1.288293 v 4.664832 h -1.288293 v 1.051098 h 3.91604 v -1.051098 h -1.32085 v -4.664832 h 1.32085 V 9.1812939 Z"
         style="stroke-width:0.5"
         id="path7740" />
      <path
         d="M 104.7167,15.952973 V 9.1812939 h -1.31155 l -0.005,4.3485721 -1.86965,-4.3485721 h -1.3162 v 6.7716791 h 1.3162 v -4.367175 l 1.88361,4.367175 z"
         style="stroke-width:0.5"
         id="path7742" />
      <path
         d="m 110.62332,15.162324 -0.005,-2.669604 h -2.4231 v 0.976684 h 1.12086 l -0.005,1.227832 q -0.0512,0.06046 -0.15348,0.116272 -0.0977,0.05116 -0.22789,0.09302 -0.13023,0.04186 -0.27906,0.06511 -0.14883,0.02325 -0.3023,0.02325 -0.25115,-0.0047 -0.45114,-0.07906 -0.19534,-0.07906 -0.34416,-0.227893 -0.0884,-0.08837 -0.16279,-0.199987 -0.0698,-0.116272 -0.12557,-0.251148 -0.0884,-0.232544 -0.13953,-0.534851 -0.0465,-0.302307 -0.0465,-0.669726 v -0.930176 q 0,-0.293006 0.0326,-0.544153 0.0372,-0.251147 0.10232,-0.455786 0.0837,-0.2651 0.20929,-0.460437 0.13023,-0.195337 0.28836,-0.31626 0.12092,-0.08837 0.26044,-0.134875 0.13953,-0.04651 0.28836,-0.04651 0.2744,0 0.46974,0.07441 0.19999,0.06976 0.33021,0.21394 0.11627,0.130225 0.18138,0.320911 0.0698,0.190686 0.10232,0.437183 h 1.27434 q -0.0512,-0.488343 -0.21859,-0.879017 -0.16278,-0.3906733 -0.45578,-0.6650752 -0.29301,-0.2697509 -0.72089,-0.4139282 -0.42323,-0.1441772 -0.99529,-0.1441772 -0.37207,0 -0.70693,0.1023193 -0.33486,0.1023193 -0.61857,0.3023071 -0.24184,0.1767334 -0.44648,0.4185791 -0.19999,0.2418461 -0.35347,0.5441531 -0.16278,0.339514 -0.25115,0.758093 -0.0884,0.413928 -0.0884,0.89762 v 0.920874 q 0,0.506945 0.0884,0.939477 0.093,0.432532 0.26975,0.776697 0.15348,0.311609 0.37207,0.553454 0.22325,0.241846 0.493,0.409278 0.2744,0.16278 0.59996,0.246496 0.33021,0.08837 0.70228,0.08837 0.42788,0 0.79996,-0.07906 0.37207,-0.07907 0.67437,-0.20929 0.29766,-0.125573 0.51625,-0.283703 0.21859,-0.15813 0.34417,-0.311609 z"
         style="stroke-width:0.5"
         id="path7744" />
      <path
         d="M 121.86914,15.952973 V 9.1812939 h -1.29294 v 2.7765751 h -1.91616 V 9.1812939 h -1.2976 v 6.7716791 h 1.2976 v -2.934704 h 1.91616 v 2.934704 z"
         style="stroke-width:0.5"
         id="path7746" />
      <path
         d="m 126.63164,14.185639 q 0,0.181385 -0.0744,0.334864 -0.0744,0.148828 -0.21394,0.255798 -0.13953,0.10697 -0.34417,0.167432 -0.19998,0.06046 -0.46043,0.06046 -0.29301,0 -0.53951,-0.06511 -0.24184,-0.06511 -0.41392,-0.204639 -0.17674,-0.139526 -0.27441,-0.358118 -0.0977,-0.218591 -0.10697,-0.525549 h -1.28364 q 0,0.525549 0.19999,0.916223 0.20464,0.390674 0.55345,0.679029 0.36742,0.293005 0.86042,0.446484 0.49764,0.148828 1.00459,0.148828 0.51624,0 0.95343,-0.120923 0.43718,-0.125574 0.75344,-0.367419 0.31626,-0.237195 0.49299,-0.58136 0.18139,-0.348816 0.18139,-0.7953 0,-0.516248 -0.2372,-0.911573 -0.23719,-0.395324 -0.63717,-0.69298 -0.2651,-0.181385 -0.58136,-0.320911 -0.31626,-0.139526 -0.66507,-0.237195 -0.32557,-0.08837 -0.58602,-0.190686 -0.25579,-0.102319 -0.43718,-0.227893 -0.18138,-0.120923 -0.27905,-0.274402 -0.093,-0.153479 -0.093,-0.344165 0,-0.181384 0.0698,-0.334863 0.0744,-0.15813 0.21394,-0.274402 0.13952,-0.111621 0.33951,-0.172082 0.20464,-0.06511 0.46509,-0.06511 0.2837,0 0.49299,0.07906 0.21394,0.07441 0.35812,0.20929 0.13952,0.139526 0.20929,0.330212 0.0744,0.190686 0.0837,0.418579 h 1.27434 q 0,-0.455786 -0.17673,-0.837158 -0.17673,-0.3813721 -0.49299,-0.6604248 -0.31626,-0.2744018 -0.7581,-0.4278808 -0.43718,-0.153479 -0.96738,-0.153479 -0.51159,0 -0.94878,0.1348755 -0.43718,0.1302246 -0.75809,0.3767211 -0.32091,0.2464966 -0.5023,0.595313 -0.18138,0.348815 -0.18138,0.776696 0,0.372071 0.13488,0.68833 0.13952,0.31626 0.40927,0.576709 0.26975,0.260449 0.69298,0.479041 0.42788,0.218591 0.99064,0.37207 0.36277,0.09767 0.60462,0.21394 0.24649,0.111622 0.39997,0.246497 0.14883,0.139526 0.20929,0.297656 0.0651,0.15813 0.0651,0.339514 z"
         style="stroke-width:0.5"
         id="path7748" />
      <path
         d="M 133.80795,10.246345 V 9.1812939 h -5.46013 v 1.0650511 h 2.06034 v 5.706628 h 1.31155 v -5.706628 z"
         style="stroke-width:0.5"
         id="path7750" />
      <path
         d="m 142.5609,13.422895 1.27434,2.530078 h 1.39991 v -0.06046 l -1.45572,-2.795178 q 0.27905,-0.125574 0.50229,-0.297656 0.2279,-0.172083 0.39068,-0.404627 0.15813,-0.227893 0.24184,-0.516247 0.0884,-0.293006 0.0884,-0.655774 0,-0.502295 -0.17673,-0.883667 -0.17209,-0.3813723 -0.493,-0.6371706 -0.32556,-0.2557984 -0.78135,-0.386023 -0.45578,-0.1348755 -1.01854,-0.1348755 h -2.26963 v 6.7716791 h 1.3069 v -2.530078 z m -0.99064,-1.0604 v -2.120801 h 0.96273 q 0.26975,0 0.47904,0.06511 0.20929,0.06511 0.35347,0.186035 0.16278,0.134875 0.24185,0.344165 0.0837,0.204638 0.0837,0.474389 0,0.223243 -0.0651,0.404627 -0.0605,0.181384 -0.18139,0.311609 -0.14417,0.16278 -0.37672,0.251147 -0.22789,0.08372 -0.5302,0.08372 z"
         style="stroke-width:0.5"
         id="path7752" />
      <path
         d="m 149.49536,14.185639 q 0,0.181385 -0.0744,0.334864 -0.0744,0.148828 -0.21394,0.255798 -0.13953,0.10697 -0.34417,0.167432 -0.19998,0.06046 -0.46043,0.06046 -0.29301,0 -0.53951,-0.06511 -0.24184,-0.06511 -0.41392,-0.204639 -0.17674,-0.139526 -0.27441,-0.358118 -0.0977,-0.218591 -0.10697,-0.525549 h -1.28364 q 0,0.525549 0.19999,0.916223 0.20464,0.390674 0.55345,0.679029 0.36742,0.293005 0.86042,0.446484 0.49764,0.148828 1.00459,0.148828 0.51624,0 0.95343,-0.120923 0.43718,-0.125574 0.75344,-0.367419 0.31626,-0.237195 0.49299,-0.58136 0.18139,-0.348816 0.18139,-0.7953 0,-0.516248 -0.2372,-0.911573 -0.23719,-0.395324 -0.63717,-0.69298 -0.2651,-0.181385 -0.58136,-0.320911 -0.31626,-0.139526 -0.66507,-0.237195 -0.32557,-0.08837 -0.58602,-0.190686 -0.25579,-0.102319 -0.43718,-0.227893 -0.18138,-0.120923 -0.27905,-0.274402 -0.093,-0.153479 -0.093,-0.344165 0,-0.181384 0.0698,-0.334863 0.0744,-0.15813 0.21395,-0.274402 0.13952,-0.111621 0.33951,-0.172082 0.20464,-0.06511 0.46509,-0.06511 0.2837,0 0.49299,0.07906 0.21394,0.07441 0.35812,0.20929 0.13952,0.139526 0.20929,0.330212 0.0744,0.190686 0.0837,0.418579 h 1.27434 q 0,-0.455786 -0.17673,-0.837158 -0.17673,-0.3813721 -0.49299,-0.6604248 -0.31626,-0.2744018 -0.7581,-0.4278808 -0.43718,-0.153479 -0.96738,-0.153479 -0.51159,0 -0.94878,0.1348755 -0.43718,0.1302246 -0.75809,0.3767211 -0.32091,0.2464966 -0.5023,0.595313 -0.18138,0.348815 -0.18138,0.776696 0,0.372071 0.13488,0.68833 0.13952,0.31626 0.40927,0.576709 0.26975,0.260449 0.69298,0.479041 0.42788,0.218591 0.99064,0.37207 0.36277,0.09767 0.60462,0.21394 0.24649,0.111622 0.39997,0.246497 0.14883,0.139526 0.20929,0.297656 0.0651,0.15813 0.0651,0.339514 z"
         style="stroke-width:0.5"
         id="path7754" />
      <path
         d="M 156.67167,10.246345 V 9.1812939 h -5.46014 v 1.0650511 h 2.06034 v 5.706628 h 1.31155 v -5.706628 z"
         style="stroke-width:0.5"
         id="path7756" />
      <path
         d="m 164.5177,13.469404 h 1.00924 q 0.55346,0 0.99994,-0.15813 0.44648,-0.15813 0.76274,-0.441833 0.31161,-0.279053 0.47904,-0.665076 0.17209,-0.386023 0.17209,-0.841809 0,-0.488342 -0.17209,-0.888318 -0.16743,-0.399975 -0.47904,-0.6883298 -0.31626,-0.2837036 -0.76274,-0.4418335 -0.44648,-0.1627808 -0.99994,-0.1627808 h -2.31614 v 6.7716791 h 1.3069 z m 0,-1.0604 v -2.16731 h 1.00924 q 0.27905,0 0.48369,0.08837 0.20464,0.08837 0.34417,0.241846 0.13487,0.153479 0.19998,0.358117 0.0698,0.204639 0.0698,0.441834 0,0.204638 -0.0698,0.395325 -0.0651,0.186035 -0.19998,0.330212 -0.13953,0.144177 -0.34417,0.227893 -0.20464,0.08372 -0.48369,0.08372 z"
         style="stroke-width:0.5"
         id="path7758" />
      <path
         d="m 169.13137,9.1812939 v 1.0557491 h 1.28829 v 4.664832 h -1.28829 v 1.051098 h 3.91604 v -1.051098 h -1.32085 v -4.664832 h 1.32085 V 9.1812939 Z"
         style="stroke-width:0.5"
         id="path7760" />
      <path
         d="M 179.02379,15.952973 V 9.1812939 h -1.31154 l -0.005,4.3485721 -1.86965,-4.3485721 h -1.3162 v 6.7716791 h 1.3162 v -4.367175 l 1.88361,4.367175 z"
         style="stroke-width:0.5"
         id="path7762" />
    </g>
    <g
       aria-label="CUTTING CONF PIN"
       id="text3472-1"
       style="font-weight:bold;font-size:9.525px;font-family:'Roboto Mono';-inkscape-font-specification:'Roboto Mono Bold';stroke-width:0.499999">
      <path
         d="m 345.03048,13.05368 h -1.3069 q -0.0186,0.306958 -0.10232,0.525549 -0.0837,0.218591 -0.22789,0.358118 -0.14418,0.139526 -0.34881,0.204638 -0.20464,0.06511 -0.46044,0.06511 -0.19069,0 -0.34882,-0.04186 -0.15348,-0.04651 -0.27905,-0.139527 -0.11627,-0.08371 -0.20929,-0.209289 -0.0884,-0.125574 -0.15348,-0.288355 -0.093,-0.237194 -0.13952,-0.553454 -0.0419,-0.320911 -0.0419,-0.725537 v -0.920874 q 0,-0.297657 0.0279,-0.553455 0.0279,-0.260449 0.0884,-0.474389 0.0791,-0.274402 0.20929,-0.479041 0.13487,-0.2092895 0.32556,-0.3209106 0.11162,-0.065112 0.24185,-0.097668 0.13487,-0.032556 0.28835,-0.032556 0.28835,0 0.49299,0.079065 0.20929,0.074414 0.34882,0.2232422 0.13487,0.153479 0.20464,0.3813721 0.0744,0.227893 0.093,0.5302 h 1.30224 q -0.0465,-0.5302 -0.22324,-0.95343 -0.17673,-0.42323 -0.48369,-0.7162353 -0.30696,-0.2930054 -0.74414,-0.4511353 -0.43253,-0.1581298 -0.99064,-0.1581298 -0.37672,0 -0.70693,0.097668 -0.32556,0.093018 -0.59997,0.269751 -0.30695,0.2092895 -0.5488,0.5115966 -0.24185,0.3023072 -0.39067,0.6883301 -0.13023,0.3162593 -0.19534,0.6883303 -0.0651,0.367419 -0.0651,0.776696 v 0.911573 q 0,0.437182 0.0698,0.827856 0.0744,0.390674 0.20929,0.716235 0.13953,0.325562 0.33951,0.595313 0.20464,0.269751 0.46509,0.460437 0.28371,0.204639 0.63717,0.31626 0.35812,0.10697 0.7767,0.10697 0.5302,0 0.96738,-0.153479 0.43718,-0.15813 0.75344,-0.446484 0.31626,-0.288355 0.5023,-0.697632 0.19068,-0.409278 0.22324,-0.920874 z"
         style="stroke-width:0.5"
         id="path7703" />
      <path
         d="m 350.55572,8.402801 h -1.29759 l -0.005,4.488098 q -0.005,0.330212 -0.0698,0.58136 -0.0651,0.251147 -0.19534,0.418579 -0.12092,0.162781 -0.30696,0.246496 -0.18138,0.07906 -0.41858,0.07906 -0.21859,0 -0.38602,-0.07441 -0.16743,-0.07906 -0.28371,-0.232544 -0.12557,-0.167431 -0.19068,-0.42323 -0.0605,-0.255798 -0.0651,-0.595312 l -0.005,-4.488098 h -1.3069 l -0.005,4.488098 q 0,0.567407 0.15813,1.013892 0.16278,0.441833 0.45578,0.74414 0.29301,0.302307 0.70229,0.460437 0.41392,0.15813 0.92552,0.15813 0.54415,0 0.96738,-0.15813 0.42789,-0.15813 0.72554,-0.465088 0.29301,-0.302307 0.44649,-0.74414 0.15813,-0.441834 0.15813,-1.009241 z"
         style="stroke-width:0.5"
         id="path7705" />
      <path
         d="M 356.73674,9.4678522 V 8.402801 h -5.46013 v 1.0650512 h 2.06034 V 15.17448 h 1.31155 V 9.4678522 Z"
         style="stroke-width:0.5"
         id="path7707" />
      <path
         d="M 362.45267,9.4678522 V 8.402801 h -5.46013 v 1.0650512 h 2.06034 V 15.17448 h 1.31155 V 9.4678522 Z"
         style="stroke-width:0.5"
         id="path7709" />
      <path
         d="m 363.48052,8.402801 v 1.0557495 h 1.28829 v 4.6648315 h -1.28829 v 1.051098 h 3.91604 v -1.051098 h -1.32085 V 9.4585505 h 1.32085 V 8.402801 Z"
         style="stroke-width:0.5"
         id="path7711" />
      <path
         d="M 373.37294,15.17448 V 8.402801 h -1.31155 l -0.005,4.348572 -1.86966,-4.348572 h -1.31619 v 6.771679 h 1.31619 v -4.367175 l 1.88361,4.367175 z"
         style="stroke-width:0.5"
         id="path7713" />
      <path
         d="m 379.27955,14.383831 -0.005,-2.669604 h -2.42311 v 0.976684 h 1.12086 l -0.005,1.227832 q -0.0512,0.06046 -0.15348,0.116272 -0.0977,0.05116 -0.22789,0.09302 -0.13022,0.04186 -0.27905,0.06511 -0.14883,0.02325 -0.30231,0.02325 -0.25115,-0.0046 -0.45113,-0.07906 -0.19534,-0.07906 -0.34417,-0.227893 -0.0884,-0.08837 -0.16278,-0.199987 -0.0698,-0.116272 -0.12557,-0.251148 -0.0884,-0.232544 -0.13953,-0.534851 -0.0465,-0.302307 -0.0465,-0.669726 v -0.930176 q 0,-0.293006 0.0326,-0.544153 0.0372,-0.251147 0.10232,-0.455786 0.0837,-0.2651 0.20929,-0.4604371 0.13022,-0.1953369 0.28835,-0.3162597 0.12092,-0.088367 0.26045,-0.1348755 0.13953,-0.046509 0.28835,-0.046509 0.27441,0 0.46974,0.074414 0.19999,0.069763 0.33021,0.2139404 0.11628,0.1302246 0.18139,0.3209106 0.0698,0.190686 0.10232,0.437183 h 1.27434 q -0.0512,-0.4883426 -0.21859,-0.8790164 -0.16278,-0.3906739 -0.45579,-0.6650757 -0.293,-0.269751 -0.72088,-0.4139282 -0.42323,-0.1441773 -0.99529,-0.1441773 -0.37207,0 -0.70694,0.1023194 -0.33486,0.1023193 -0.61856,0.3023071 -0.24185,0.1767334 -0.44649,0.4185791 -0.19999,0.2418457 -0.35346,0.5441528 -0.16278,0.3395142 -0.25115,0.7580932 -0.0884,0.413928 -0.0884,0.89762 v 0.920874 q 0,0.506945 0.0884,0.939477 0.093,0.432532 0.26975,0.776697 0.15348,0.311609 0.37207,0.553454 0.22324,0.241846 0.49299,0.409278 0.2744,0.16278 0.59997,0.246496 0.33021,0.08837 0.70228,0.08837 0.42788,0 0.79995,-0.07906 0.37207,-0.07906 0.67438,-0.209289 0.29765,-0.125574 0.51624,-0.283704 0.2186,-0.15813 0.34417,-0.311609 z"
         style="stroke-width:0.5"
         id="path7715" />
      <path
         d="m 390.75792,13.05368 h -1.3069 q -0.0186,0.306958 -0.10232,0.525549 -0.0837,0.218591 -0.22789,0.358118 -0.14418,0.139526 -0.34881,0.204638 -0.20464,0.06511 -0.46044,0.06511 -0.19069,0 -0.34882,-0.04186 -0.15348,-0.04651 -0.27905,-0.139527 -0.11627,-0.08371 -0.20929,-0.209289 -0.0884,-0.125574 -0.15348,-0.288355 -0.093,-0.237194 -0.13953,-0.553454 -0.0419,-0.320911 -0.0419,-0.725537 v -0.920874 q 0,-0.297657 0.0279,-0.553455 0.0279,-0.260449 0.0884,-0.474389 0.0791,-0.274402 0.20929,-0.479041 0.13487,-0.2092895 0.32556,-0.3209106 0.11162,-0.065112 0.24185,-0.097668 0.13487,-0.032556 0.28835,-0.032556 0.28835,0 0.49299,0.079065 0.20929,0.074414 0.34882,0.2232422 0.13487,0.153479 0.20464,0.3813721 0.0744,0.227893 0.093,0.5302 h 1.30224 q -0.0465,-0.5302 -0.22324,-0.95343 -0.17673,-0.42323 -0.48369,-0.7162353 -0.30696,-0.2930054 -0.74414,-0.4511353 -0.43253,-0.1581298 -0.99064,-0.1581298 -0.37672,0 -0.70693,0.097668 -0.32556,0.093018 -0.59997,0.269751 -0.30695,0.2092895 -0.5488,0.5115966 -0.24185,0.3023072 -0.39067,0.6883301 -0.13023,0.3162593 -0.19534,0.6883303 -0.0651,0.367419 -0.0651,0.776696 v 0.911573 q 0,0.437182 0.0698,0.827856 0.0744,0.390674 0.20929,0.716235 0.13953,0.325562 0.33951,0.595313 0.20464,0.269751 0.46509,0.460437 0.2837,0.204639 0.63717,0.31626 0.35812,0.10697 0.7767,0.10697 0.5302,0 0.96738,-0.153479 0.43718,-0.15813 0.75344,-0.446484 0.31626,-0.288355 0.5023,-0.697632 0.19068,-0.409278 0.22324,-0.920874 z"
         style="stroke-width:0.5"
         id="path7717" />
      <path
         d="m 396.49711,12.286285 v -0.985987 q 0,-0.460437 -0.0884,-0.869714 -0.0837,-0.409277 -0.2465,-0.7534422 -0.14883,-0.3023071 -0.35811,-0.5534546 -0.20464,-0.2511474 -0.47905,-0.4278808 -0.2744,-0.1860352 -0.61856,-0.2837036 -0.33952,-0.1023194 -0.73019,-0.1023194 -0.38602,0 -0.71624,0.097668 -0.33021,0.097668 -0.59531,0.2790527 -0.26975,0.1860352 -0.47904,0.4464844 -0.20464,0.2604492 -0.34881,0.5813598 -0.14883,0.3395142 -0.2279,0.7394902 -0.0744,0.399975 -0.0744,0.846459 v 0.985987 q 0,0.418579 0.0651,0.7953 0.0698,0.376721 0.19999,0.697632 0.14418,0.348816 0.35812,0.627868 0.21394,0.274402 0.48369,0.469739 0.2744,0.186035 0.60926,0.288355 0.33487,0.102319 0.73019,0.102319 0.37207,0 0.69298,-0.09302 0.32556,-0.08837 0.59531,-0.251147 0.29766,-0.186035 0.5302,-0.465088 0.23255,-0.279053 0.39068,-0.613916 0.14883,-0.334863 0.22789,-0.725537 0.0791,-0.395325 0.0791,-0.832507 z m -1.3255,-0.995288 v 0.995288 q 0,0.251147 -0.0279,0.483691 -0.0233,0.232544 -0.0744,0.427881 -0.0651,0.251147 -0.17674,0.451135 -0.10697,0.195337 -0.2651,0.325562 -0.12557,0.10697 -0.28835,0.16278 -0.16278,0.05581 -0.35812,0.05581 -0.20464,0 -0.36742,-0.06046 -0.15813,-0.06046 -0.2837,-0.172083 -0.13488,-0.125574 -0.2372,-0.325561 -0.0977,-0.204639 -0.14883,-0.451136 -0.0465,-0.195337 -0.0651,-0.42323 -0.0186,-0.227893 -0.0186,-0.474389 v -0.995288 q 0,-0.26045 0.0186,-0.497644 0.0233,-0.237195 0.0698,-0.437183 0.0605,-0.260449 0.16743,-0.455786 0.11162,-0.1953369 0.26975,-0.3255615 0.11627,-0.088367 0.26045,-0.1348755 0.14883,-0.046509 0.33021,-0.046509 0.19069,0 0.34416,0.05116 0.15813,0.05116 0.28371,0.1441772 0.15813,0.1255737 0.2744,0.3255615 0.11627,0.1953374 0.18604,0.4464844 0.0558,0.199988 0.0791,0.437183 0.0279,0.232543 0.0279,0.492993 z"
         style="stroke-width:0.5"
         id="path7719" />
      <path
         d="M 401.95259,15.17448 V 8.402801 h -1.31155 l -0.005,4.348572 -1.86965,-4.348572 h -1.3162 v 6.771679 h 1.3162 v -4.367175 l 1.8836,4.367175 z"
         style="stroke-width:0.5"
         id="path7721" />
      <path
         d="M 407.50108,12.370001 V 11.3096 h -2.90215 V 9.4678522 h 3.26492 V 8.402801 h -4.57646 v 6.771679 h 1.31154 v -2.804479 z"
         style="stroke-width:0.5"
         id="path7723" />
      <path
         d="m 416.02615,12.690911 h 1.00924 q 0.55345,0 0.99994,-0.15813 0.44648,-0.15813 0.76274,-0.441833 0.31161,-0.279053 0.47904,-0.665076 0.17208,-0.386023 0.17208,-0.841809 0,-0.488342 -0.17208,-0.8883177 -0.16743,-0.3999756 -0.47904,-0.68833 -0.31626,-0.2837036 -0.76274,-0.4418335 -0.44649,-0.1627808 -0.99994,-0.1627808 h -2.31614 v 6.771679 h 1.3069 z m 0,-1.0604 V 9.4632014 h 1.00924 q 0.27905,0 0.48369,0.088367 0.20464,0.088367 0.34416,0.2418457 0.13488,0.153479 0.19999,0.3581172 0.0698,0.204639 0.0698,0.441834 0,0.204639 -0.0698,0.395325 -0.0651,0.186035 -0.19999,0.330212 -0.13952,0.144177 -0.34416,0.227893 -0.20464,0.08372 -0.48369,0.08372 z"
         style="stroke-width:0.5"
         id="path7725" />
      <path
         d="m 420.63981,8.402801 v 1.0557495 h 1.2883 v 4.6648315 h -1.2883 v 1.051098 h 3.91604 v -1.051098 h -1.32084 V 9.4585505 h 1.32084 V 8.402801 Z"
         style="stroke-width:0.5"
         id="path7727" />
      <path
         d="M 430.53224,15.17448 V 8.402801 h -1.31155 l -0.005,4.348572 -1.86965,-4.348572 h -1.3162 v 6.771679 h 1.3162 v -4.367175 l 1.8836,4.367175 z"
         style="stroke-width:0.5"
         id="path7729" />
    </g>
    <g
       transform="scale(0.26458333)"
       id="text8550"
       style="font-weight:bold;font-size:36px;font-family:'Roboto Mono';-inkscape-font-specification:'Roboto Mono Bold';white-space:pre;shape-inside:url(#rect8552);display:inline;stroke:#000000;stroke-width:5.29134" />
    <g
       id="g6937"
       transform="translate(0.56551995,-15.198145)">
      <path
         id="rect788"
         style="fill:#d3d3d3;fill-opacity:1;stroke:#000000;stroke-width:0.572;stroke-dasharray:none;stroke-opacity:1"
         d="M 89.52482,43.034186 V 147.96977 h 71.52635 V 43.034186 h -23.14234 c -1.35483,5.11544 -6.58838,8.739733 -12.62088,8.740109 -6.0325,-3.76e-4 -11.26604,-3.624669 -12.62087,-8.740109 z"
         sodipodi:nodetypes="cccccccc" />
      <g
         aria-label="OUT"
         transform="scale(1.0156232,0.98461712)"
         id="text1055"
         style="font-weight:bold;font-size:7.47169px;font-family:'Roboto Mono';-inkscape-font-specification:'Roboto Mono Bold';stroke-width:0.392215">
        <path
           d="m 100.42693,58.416669 v -0.773437 q 0,-0.36118 -0.0693,-0.682229 -0.0657,-0.321049 -0.19335,-0.591023 -0.11675,-0.237138 -0.280923,-0.434146 -0.160524,-0.197007 -0.375773,-0.335642 -0.215249,-0.145931 -0.485222,-0.222545 -0.266325,-0.08026 -0.572781,-0.08026 -0.302808,0 -0.561836,0.07661 -0.259029,0.07661 -0.466981,0.218898 -0.2116,0.145931 -0.375773,0.350235 -0.160525,0.204304 -0.273622,0.456036 -0.116745,0.266325 -0.178766,0.580077 -0.05837,0.313753 -0.05837,0.663988 v 0.773437 q 0,0.328346 0.05108,0.623857 0.05472,0.295511 0.156876,0.547243 0.113097,0.273621 0.280918,0.492519 0.167821,0.215248 0.379422,0.368476 0.215249,0.145932 0.477925,0.226194 0.262677,0.08026 0.572781,0.08026 0.291863,0 0.543595,-0.07297 0.25538,-0.06932 0.46698,-0.197008 0.233491,-0.145931 0.415905,-0.364828 0.182411,-0.218897 0.306461,-0.481574 0.11674,-0.262677 0.17876,-0.569133 0.062,-0.310104 0.062,-0.653043 z m -1.03976,-0.780733 v 0.780733 q 0,0.197008 -0.02189,0.379422 -0.01824,0.182414 -0.05837,0.335642 -0.05108,0.197008 -0.138635,0.353884 -0.08391,0.153228 -0.207952,0.25538 -0.0985,0.08391 -0.226194,0.12769 -0.12769,0.04378 -0.280918,0.04378 -0.160524,0 -0.288214,-0.04743 -0.124042,-0.04743 -0.222546,-0.134987 -0.1058,-0.0985 -0.186063,-0.25538 -0.07661,-0.160525 -0.116745,-0.353884 -0.03648,-0.153228 -0.05108,-0.331994 -0.01459,-0.178766 -0.01459,-0.372125 v -0.780733 q 0,-0.204304 0.01459,-0.390367 0.01824,-0.186062 0.05472,-0.342939 0.04743,-0.204304 0.131338,-0.357532 0.08756,-0.153228 0.211601,-0.25538 0.09121,-0.06932 0.204304,-0.1058 0.116745,-0.03648 0.259028,-0.03648 0.14958,0 0.269973,0.04013 0.124042,0.04013 0.222546,0.113097 0.124041,0.0985 0.215248,0.25538 0.09121,0.153228 0.145932,0.350236 0.04378,0.156876 0.06202,0.342938 0.02189,0.182415 0.02189,0.386719 z"
           id="path7602" />
        <path
           d="m 104.74285,55.37035 h -1.01787 l -0.004,3.520596 q -0.004,0.259029 -0.0547,0.456036 -0.0511,0.197007 -0.15323,0.328346 -0.0948,0.12769 -0.24078,0.193359 -0.14229,0.06202 -0.32835,0.06202 -0.17147,0 -0.30281,-0.05837 -0.13134,-0.06202 -0.22254,-0.182414 -0.0985,-0.131338 -0.14958,-0.331994 -0.0474,-0.200656 -0.0511,-0.466981 l -0.004,-3.520596 h -1.02517 l -0.004,3.520596 q 0,0.445091 0.12404,0.795327 0.12769,0.346587 0.35753,0.583725 0.22984,0.237139 0.55089,0.361181 0.3247,0.124042 0.72601,0.124042 0.42685,0 0.75884,-0.124042 0.33565,-0.124042 0.56914,-0.364829 0.22984,-0.237138 0.35023,-0.583726 0.12404,-0.346587 0.12404,-0.791678 z"
           id="path7604" />
        <path
           d="M 109.59143,56.205808 V 55.37035 h -4.28309 v 0.835458 h 1.61619 v 4.476447 h 1.02882 v -4.476447 z"
           id="path7606" />
      </g>
      <g
         aria-label="IN"
         transform="scale(1.0156232,0.98461712)"
         id="text1055-1"
         style="font-weight:bold;font-size:7.47169px;font-family:'Roboto Mono';-inkscape-font-specification:'Roboto Mono Bold';stroke-width:0.392215">
        <path
           d="m 96.946467,66.975868 v 0.828161 h 1.010575 v 3.659231 h -1.010575 v 0.824513 h 3.071853 V 71.46326 h -1.036109 v -3.659231 h 1.036109 v -0.828161 z"
           id="path7609" />
        <path
           d="m 104.70637,72.287773 v -5.311905 h -1.02882 l -0.004,3.411148 -1.46661,-3.411148 h -1.03247 v 5.311905 h 1.03247 v -3.425741 l 1.47755,3.425741 z"
           id="path7611" />
      </g>
      <g
         aria-label="SEED"
         transform="scale(1.0156232,0.98461712)"
         id="text1055-3"
         style="font-weight:bold;font-size:7.47169px;font-family:'Roboto Mono';-inkscape-font-specification:'Roboto Mono Bold';stroke-width:0.392215">
        <path
           d="m 99.478378,83.337078 q 0,0.142283 -0.05837,0.262677 -0.05837,0.116745 -0.167821,0.200655 -0.109449,0.08391 -0.269973,0.131339 -0.156877,0.04743 -0.361181,0.04743 -0.229842,0 -0.423201,-0.05108 -0.189711,-0.05108 -0.324697,-0.160524 -0.138635,-0.109449 -0.215249,-0.280918 -0.07661,-0.17147 -0.08391,-0.412257 h -1.006927 q 0,0.412257 0.156876,0.718713 0.160525,0.306456 0.434147,0.53265 0.288214,0.229842 0.674933,0.350235 0.390366,0.116745 0.788029,0.116745 0.40496,0 0.747899,-0.09485 0.342939,-0.0985 0.591022,-0.288215 0.248079,-0.186062 0.386719,-0.456036 0.14228,-0.273621 0.14228,-0.623857 0,-0.404959 -0.18606,-0.715064 -0.18606,-0.310104 -0.499815,-0.543594 -0.207952,-0.142283 -0.456036,-0.251732 -0.248083,-0.109449 -0.521705,-0.186063 -0.25538,-0.06932 -0.459684,-0.149579 -0.200655,-0.08026 -0.342939,-0.178766 -0.142283,-0.09486 -0.218897,-0.215249 -0.07297,-0.120394 -0.07297,-0.269973 0,-0.142284 0.05473,-0.262677 0.05837,-0.124042 0.167821,-0.215249 0.109449,-0.08756 0.266325,-0.134987 0.160524,-0.05108 0.364828,-0.05108 0.222546,0 0.386719,0.06202 0.167821,0.05837 0.280918,0.164173 0.109448,0.109449 0.164173,0.259029 0.05837,0.149579 0.06567,0.328345 h 0.999634 q 0,-0.357532 -0.13864,-0.656691 -0.13863,-0.29916 -0.386717,-0.518057 -0.248083,-0.215249 -0.594671,-0.335642 -0.342938,-0.120394 -0.758843,-0.120394 -0.401312,0 -0.74425,0.105801 -0.342939,0.102152 -0.594671,0.295511 -0.251732,0.193359 -0.394015,0.46698 -0.142283,0.273622 -0.142283,0.609264 0,0.291863 0.1058,0.539947 0.109449,0.248083 0.321049,0.452387 0.211601,0.204304 0.543595,0.375774 0.335642,0.171469 0.777085,0.291863 0.284566,0.07661 0.474277,0.167821 0.193359,0.08756 0.313753,0.193359 0.116745,0.109448 0.164173,0.23349 0.05108,0.124042 0.05108,0.266325 z"
           id="path7614" />
        <path
           d="m 104.47288,82.39582 v -0.809919 h -2.18167 V 80.24698 h 2.5392 v -0.835458 h -3.56802 v 5.311905 h 3.57897 v -0.828161 h -2.55015 V 82.39582 Z"
           id="path7616" />
        <path
           d="m 108.95663,82.39582 v -0.809919 h -2.18168 V 80.24698 h 2.53921 v -0.835458 h -3.56803 v 5.311905 h 3.57897 v -0.828161 h -2.55015 V 82.39582 Z"
           id="path7618" />
        <path
           d="m 110.14961,84.723427 h 1.42648 q 0.35389,0 0.66399,-0.08756 0.31376,-0.08756 0.57278,-0.251732 0.22255,-0.138635 0.40861,-0.342939 0.18606,-0.207952 0.3247,-0.452387 0.14593,-0.273622 0.22619,-0.601967 0.0803,-0.328346 0.0803,-0.696823 v -0.437794 q 0,-0.38307 -0.0876,-0.722361 -0.0839,-0.339291 -0.24079,-0.620209 -0.13499,-0.229842 -0.3174,-0.423201 -0.17877,-0.197007 -0.40861,-0.331994 -0.26268,-0.164173 -0.58373,-0.251732 -0.32104,-0.09121 -0.68952,-0.09121 h -1.37541 z m 1.03247,-4.480096 h 0.34294 q 0.18606,0 0.34294,0.04378 0.16052,0.04013 0.29186,0.116745 0.17147,0.102152 0.29916,0.262677 0.13134,0.160524 0.2116,0.364828 0.0657,0.17147 0.0985,0.379422 0.0365,0.204304 0.0365,0.434146 v 0.445091 q 0,0.244435 -0.0365,0.456036 -0.0328,0.207952 -0.0985,0.379421 -0.0803,0.197008 -0.19336,0.346588 -0.10945,0.145931 -0.24808,0.240787 -0.13499,0.09121 -0.29916,0.138634 -0.16417,0.04743 -0.35389,0.04743 h -0.39401 z"
           id="path7620" />
      </g>
      <g
         aria-label="CONF"
         transform="scale(1.0156232,0.98461712)"
         id="text1055-36"
         style="font-weight:bold;font-size:7.47169px;font-family:'Roboto Mono';-inkscape-font-specification:'Roboto Mono Bold';stroke-width:0.392215">
        <path
           d="m 100.40869,95.495439 h -1.025168 q -0.01459,0.240787 -0.08026,0.412256 -0.06567,0.17147 -0.178766,0.280918 -0.113097,0.109449 -0.273622,0.160525 -0.160524,0.05108 -0.36118,0.05108 -0.14958,0 -0.273621,-0.03283 -0.120394,-0.03648 -0.218898,-0.109449 -0.09121,-0.06567 -0.164172,-0.164173 -0.06932,-0.0985 -0.120394,-0.226194 -0.07297,-0.186062 -0.109449,-0.434146 -0.03283,-0.251732 -0.03283,-0.569132 v -0.722361 q 0,-0.23349 0.02189,-0.434146 0.02189,-0.204304 0.06932,-0.372125 0.06202,-0.215249 0.164173,-0.375774 0.1058,-0.164173 0.25538,-0.251732 0.08756,-0.05108 0.189711,-0.07661 0.1058,-0.02554 0.226194,-0.02554 0.226193,0 0.386718,0.06202 0.164173,0.05837 0.273621,0.175118 0.105801,0.120393 0.160525,0.299159 0.05837,0.178767 0.07297,0.415905 h 1.021521 q -0.0365,-0.415905 -0.17512,-0.747899 -0.13863,-0.331994 -0.379421,-0.561836 -0.240787,-0.229842 -0.583725,-0.353883 -0.339291,-0.124042 -0.777085,-0.124042 -0.295512,0 -0.55454,0.07661 -0.25538,0.07297 -0.470629,0.2116 -0.240787,0.164173 -0.430498,0.401312 -0.18971,0.237139 -0.306456,0.539946 -0.102152,0.248084 -0.153228,0.539947 -0.05108,0.288214 -0.05108,0.609263 v 0.715065 q 0,0.342938 0.05472,0.649395 0.05837,0.306456 0.164173,0.561836 0.109448,0.25538 0.266324,0.46698 0.160525,0.211601 0.364829,0.361181 0.222545,0.160524 0.499815,0.248083 0.280918,0.08391 0.609264,0.08391 0.415905,0 0.758844,-0.120394 0.342938,-0.124042 0.591022,-0.350235 0.248082,-0.226194 0.394012,-0.547243 0.14958,-0.321049 0.17512,-0.722361 z"
           id="path7623" />
        <path
           d="m 104.91068,94.893472 v -0.773437 q 0,-0.36118 -0.0693,-0.682229 -0.0657,-0.32105 -0.19336,-0.591023 -0.11675,-0.237138 -0.28092,-0.434146 -0.16052,-0.197007 -0.37577,-0.335642 -0.21525,-0.145932 -0.48522,-0.222546 -0.26633,-0.08026 -0.57279,-0.08026 -0.3028,0 -0.56183,0.07661 -0.25903,0.07661 -0.46698,0.218897 -0.2116,0.145932 -0.37578,0.350236 -0.16052,0.204304 -0.27362,0.456036 -0.11674,0.266324 -0.17876,0.580077 -0.0584,0.313753 -0.0584,0.663988 v 0.773437 q 0,0.328346 0.0511,0.623857 0.0547,0.295511 0.15688,0.547243 0.11309,0.273621 0.28091,0.492518 0.16783,0.215249 0.37943,0.368477 0.21525,0.145932 0.47792,0.226194 0.26268,0.08026 0.57278,0.08026 0.29187,0 0.5436,-0.07296 0.25538,-0.06932 0.46698,-0.197008 0.23349,-0.145931 0.4159,-0.364828 0.18242,-0.218898 0.30646,-0.481574 0.11674,-0.262677 0.17876,-0.569133 0.062,-0.310104 0.062,-0.653043 z m -1.03977,-0.780733 v 0.780733 q 0,0.197007 -0.0219,0.379422 -0.0182,0.182414 -0.0584,0.335642 -0.0511,0.197007 -0.13863,0.353884 -0.0839,0.153228 -0.20796,0.25538 -0.0985,0.08391 -0.22619,0.12769 -0.12769,0.04378 -0.28092,0.04378 -0.16052,0 -0.28821,-0.04743 -0.12404,-0.04743 -0.22255,-0.134987 -0.1058,-0.0985 -0.18606,-0.25538 -0.0766,-0.160525 -0.11674,-0.353884 -0.0365,-0.153228 -0.0511,-0.331994 -0.0146,-0.178766 -0.0146,-0.372125 v -0.780733 q 0,-0.204304 0.0146,-0.390367 0.0182,-0.186063 0.0547,-0.342939 0.0474,-0.204304 0.13134,-0.357532 0.0876,-0.153228 0.2116,-0.25538 0.0912,-0.06932 0.20431,-0.1058 0.11674,-0.03648 0.25902,-0.03648 0.14958,0 0.26998,0.04013 0.12404,0.04013 0.22254,0.113097 0.12404,0.0985 0.21525,0.25538 0.0912,0.153228 0.14593,0.350235 0.0438,0.156877 0.062,0.342939 0.0219,0.182415 0.0219,0.386719 z"
           id="path7625" />
        <path
           d="m 109.19012,97.159058 v -5.311905 h -1.02882 l -0.004,3.411147 -1.46661,-3.411147 h -1.03247 v 5.311905 h 1.03247 v -3.425741 l 1.47756,3.425741 z"
           id="path7627" />
        <path
           d="m 113.54252,94.959141 v -0.831809 h -2.27653 V 92.68261 h 2.5611 v -0.835457 h -3.58992 v 5.311905 h 1.02882 v -2.199917 z"
           id="path7629" />
      </g>
      <g
         aria-label="CLK"
         transform="scale(1.0156232,0.98461712)"
         id="text1055-9"
         style="font-weight:bold;font-size:7.47169px;font-family:'Roboto Mono';-inkscape-font-specification:'Roboto Mono Bold';stroke-width:0.392215">
        <path
           d="m 100.40869,119.53649 h -1.025168 q -0.01459,0.24079 -0.08026,0.41226 -0.06567,0.17147 -0.178766,0.28092 -0.113097,0.10945 -0.273622,0.16052 -0.160524,0.0511 -0.36118,0.0511 -0.14958,0 -0.273621,-0.0328 -0.120394,-0.0365 -0.218898,-0.10945 -0.09121,-0.0657 -0.164172,-0.16417 -0.06932,-0.0985 -0.120394,-0.22619 -0.07297,-0.18606 -0.109449,-0.43415 -0.03283,-0.25173 -0.03283,-0.56913 v -0.72236 q 0,-0.23349 0.02189,-0.43415 0.02189,-0.2043 0.06932,-0.37212 0.06202,-0.21525 0.164173,-0.37578 0.1058,-0.16417 0.25538,-0.25173 0.08756,-0.0511 0.189711,-0.0766 0.1058,-0.0255 0.226194,-0.0255 0.226193,0 0.386718,0.062 0.164173,0.0584 0.273621,0.17512 0.105801,0.12039 0.160525,0.29916 0.05837,0.17876 0.07297,0.4159 h 1.021521 q -0.0365,-0.4159 -0.17512,-0.7479 -0.13863,-0.33199 -0.379421,-0.56183 -0.240787,-0.22984 -0.583725,-0.35389 -0.339291,-0.12404 -0.777085,-0.12404 -0.295512,0 -0.55454,0.0766 -0.25538,0.073 -0.470629,0.2116 -0.240787,0.16417 -0.430498,0.40131 -0.18971,0.23714 -0.306456,0.53995 -0.102152,0.24808 -0.153228,0.53994 -0.05108,0.28822 -0.05108,0.60927 v 0.71506 q 0,0.34294 0.05472,0.64939 0.05837,0.30646 0.164173,0.56184 0.109448,0.25538 0.266324,0.46698 0.160525,0.2116 0.364829,0.36118 0.222545,0.16053 0.499815,0.24808 0.280918,0.0839 0.609264,0.0839 0.415905,0 0.758844,-0.1204 0.342938,-0.12404 0.591022,-0.35023 0.248082,-0.2262 0.394012,-0.54725 0.14958,-0.32105 0.17512,-0.72236 z"
           id="path7632" />
        <path
           d="m 102.30215,120.37195 v -4.48374 h -1.02882 v 5.3119 h 3.51695 v -0.82816 z"
           id="path7634" />
        <path
           d="m 107.27112,119.01844 1.31338,2.18167 h 1.21853 l -1.85333,-2.96241 1.78766,-2.34949 h -1.25501 l -1.2915,1.78401 -0.48157,0.64939 v -2.4334 h -1.02882 v 5.3119 h 1.02882 V 119.635 Z"
           id="path7636" />
      </g>
      <g
         aria-label="+5V"
         transform="scale(1.0156232,0.98461712)"
         id="text1055-9-0"
         style="font-weight:bold;font-size:7.47169px;font-family:'Roboto Mono';-inkscape-font-specification:'Roboto Mono Bold';stroke-width:0.392215">
        <path
           d="m 139.66183,57.527509 v -1.437424 h -0.96679 v 1.437424 h -1.33893 v 0.926665 h 1.33893 v 1.503094 h 0.96679 v -1.503094 h 1.33527 v -0.926665 z"
           id="path7639" />
        <path
           d="m 142.04416,57.874097 0.80992,0.200655 q 0.0584,-0.05837 0.12404,-0.109448 0.0657,-0.05473 0.14958,-0.09486 0.0839,-0.04013 0.19336,-0.06567 0.10945,-0.02554 0.25903,-0.02554 0.22255,0 0.38672,0.06932 0.16417,0.06932 0.27362,0.197007 0.10945,0.12769 0.16053,0.306456 0.0547,0.175118 0.0547,0.386718 0,0.215249 -0.0438,0.401312 -0.0401,0.186062 -0.12769,0.321049 -0.0912,0.134987 -0.23714,0.211601 -0.14228,0.07661 -0.34659,0.07661 -0.33199,0 -0.54724,-0.189711 -0.2116,-0.189711 -0.24808,-0.536298 h -0.99963 q 0.0109,0.368477 0.16417,0.656691 0.15688,0.284567 0.40496,0.481574 0.24808,0.197007 0.56548,0.299159 0.32105,0.102152 0.66399,0.102152 0.45239,0 0.78438,-0.142283 0.332,-0.142283 0.5509,-0.386718 0.21889,-0.244435 0.32469,-0.565484 0.1058,-0.32105 0.1058,-0.678582 0,-0.419553 -0.10945,-0.751547 -0.10944,-0.331994 -0.31375,-0.561836 -0.20795,-0.229842 -0.51076,-0.350235 -0.29916,-0.124042 -0.68223,-0.124042 -0.26997,0 -0.47792,0.06932 -0.20796,0.06932 -0.32105,0.134986 l 0.12769,-1.167451 h 2.11236 v -0.860996 h -2.94782 z"
           id="path7641" />
        <path
           d="m 147.68076,60.489918 h 1.04341 l 1.6089,-5.311905 h -1.13097 l -0.90478,3.465872 -0.0985,0.36118 -0.0912,-0.357532 -0.90112,-3.46952 h -1.13097 z"
           id="path7643" />
      </g>
      <g
         aria-label="RST"
         transform="scale(1.0156232,0.98461712)"
         id="text1055-7"
         style="font-weight:bold;font-size:7.47169px;font-family:'Roboto Mono';-inkscape-font-specification:'Roboto Mono Bold';stroke-width:0.392215">
        <path
           d="m 98.522527,132.06598 0.99963,1.98466 h 1.098133 v -0.0474 l -1.141912,-2.19262 q 0.218897,-0.0985 0.394015,-0.23349 0.178767,-0.13499 0.306457,-0.31741 0.12404,-0.17876 0.18971,-0.40495 0.0693,-0.22985 0.0693,-0.51441 0,-0.39402 -0.13864,-0.69318 -0.13498,-0.29916 -0.386716,-0.49981 -0.25538,-0.20066 -0.612912,-0.30281 -0.357532,-0.1058 -0.798975,-0.1058 h -1.780364 v 5.3119 h 1.025169 v -1.98466 z m -0.777085,-0.83181 v -1.66362 h 0.755195 q 0.2116,0 0.375773,0.0511 0.164173,0.0511 0.27727,0.14594 0.12769,0.1058 0.189711,0.26997 0.06567,0.16052 0.06567,0.37212 0,0.17512 -0.05108,0.31741 -0.04743,0.14228 -0.142283,0.24443 -0.113097,0.12769 -0.295511,0.19701 -0.178766,0.0657 -0.415905,0.0657 z"
           id="path7646" />
        <path
           d="m 103.96212,132.6643 q 0,0.14228 -0.0584,0.26267 -0.0584,0.11675 -0.16782,0.20066 -0.10945,0.0839 -0.26998,0.13134 -0.15687,0.0474 -0.36118,0.0474 -0.22984,0 -0.4232,-0.0511 -0.18971,-0.0511 -0.32469,-0.16053 -0.13864,-0.10945 -0.21525,-0.28092 -0.0766,-0.17146 -0.0839,-0.41225 h -1.00693 q 0,0.41225 0.15688,0.71871 0.16052,0.30646 0.43414,0.53265 0.28822,0.22984 0.67493,0.35024 0.39037,0.11674 0.78803,0.11674 0.40496,0 0.7479,-0.0948 0.34294,-0.0985 0.59103,-0.28822 0.24808,-0.18606 0.38671,-0.45603 0.14229,-0.27363 0.14229,-0.62386 0,-0.40496 -0.18607,-0.71507 -0.18606,-0.3101 -0.49981,-0.54359 -0.20795,-0.14228 -0.45604,-0.25173 -0.24808,-0.10945 -0.5217,-0.18606 -0.25538,-0.0693 -0.45969,-0.14958 -0.20065,-0.0803 -0.34293,-0.17877 -0.14229,-0.0949 -0.2189,-0.21525 -0.073,-0.12039 -0.073,-0.26997 0,-0.14229 0.0547,-0.26268 0.0584,-0.12404 0.16782,-0.21525 0.10945,-0.0876 0.26632,-0.13498 0.16053,-0.0511 0.36483,-0.0511 0.22255,0 0.38672,0.062 0.16782,0.0584 0.28092,0.16417 0.10945,0.10945 0.16417,0.25903 0.0584,0.14958 0.0657,0.32835 h 0.99963 q 0,-0.35753 -0.13863,-0.65669 -0.13864,-0.29916 -0.38672,-0.51806 -0.24809,-0.21525 -0.59467,-0.33564 -0.34294,-0.1204 -0.75885,-0.1204 -0.40131,0 -0.74425,0.1058 -0.34294,0.10216 -0.59467,0.29551 -0.25173,0.19336 -0.39401,0.46699 -0.14229,0.27362 -0.14229,0.60926 0,0.29186 0.1058,0.53995 0.10945,0.24808 0.32105,0.45238 0.2116,0.20431 0.5436,0.37578 0.33564,0.17147 0.77708,0.29186 0.28457,0.0766 0.47428,0.16782 0.19336,0.0876 0.31375,0.19336 0.11675,0.10945 0.16418,0.23349 0.0511,0.12404 0.0511,0.26633 z"
           id="path7648" />
        <path
           d="m 109.59143,129.5742 v -0.83546 h -4.28309 v 0.83546 h 1.61619 v 4.47644 h 1.02882 v -4.47644 z"
           id="path7650" />
      </g>
      <g
         aria-label="GND"
         transform="scale(1.0156232,0.98461712)"
         id="text1055-4"
         style="font-weight:bold;font-size:7.47169px;font-family:'Roboto Mono';-inkscape-font-specification:'Roboto Mono Bold';stroke-width:0.392215">
        <path
           d="m 100.37221,145.86606 -0.004,-2.09412 h -1.900758 v 0.76614 h 0.879237 l -0.0036,0.96315 q -0.04013,0.0474 -0.120393,0.0912 -0.07661,0.0401 -0.178766,0.073 -0.102152,0.0328 -0.218898,0.0511 -0.116745,0.0182 -0.237138,0.0182 -0.197008,-0.004 -0.353884,-0.062 -0.153228,-0.062 -0.269973,-0.17877 -0.06932,-0.0693 -0.12769,-0.15687 -0.05472,-0.0912 -0.0985,-0.19701 -0.06932,-0.18241 -0.109449,-0.41955 -0.03648,-0.23714 -0.03648,-0.52536 v -0.72965 q 0,-0.22985 0.02554,-0.42685 0.02919,-0.19701 0.08026,-0.35754 0.06567,-0.20795 0.164173,-0.36118 0.102152,-0.15322 0.226194,-0.24808 0.09485,-0.0693 0.204304,-0.1058 0.109448,-0.0365 0.226193,-0.0365 0.215249,0 0.368477,0.0584 0.156877,0.0547 0.259029,0.16782 0.09121,0.10215 0.142283,0.25173 0.05472,0.14958 0.08026,0.34294 h 0.999631 q -0.0401,-0.38307 -0.17147,-0.68952 -0.12769,-0.30646 -0.357532,-0.52171 -0.229842,-0.2116 -0.565484,-0.3247 -0.331994,-0.11309 -0.780734,-0.11309 -0.291863,0 -0.554539,0.0803 -0.262677,0.0803 -0.485222,0.23714 -0.189711,0.13863 -0.350236,0.32834 -0.156876,0.18971 -0.277269,0.42685 -0.127691,0.26633 -0.197008,0.59467 -0.06932,0.3247 -0.06932,0.70412 v 0.72236 q 0,0.39767 0.06932,0.73696 0.07297,0.33929 0.211601,0.60926 0.120393,0.24444 0.291863,0.43415 0.175117,0.18971 0.386718,0.32105 0.215249,0.12769 0.470629,0.19336 0.259028,0.0693 0.550891,0.0693 0.335642,0 0.627505,-0.062 0.291863,-0.062 0.529002,-0.16417 0.23349,-0.0985 0.404955,-0.22255 0.17147,-0.12404 0.26998,-0.24443 z"
           id="path7653" />
        <path
           d="m 104.70637,146.48627 v -5.31191 h -1.02882 l -0.004,3.41115 -1.46661,-3.41115 h -1.03247 v 5.31191 h 1.03247 v -3.42574 l 1.47755,3.42574 z"
           id="path7655" />
        <path
           d="m 105.66587,146.48627 h 1.42648 q 0.35388,0 0.66399,-0.0876 0.31375,-0.0876 0.57278,-0.25173 0.22255,-0.13864 0.40861,-0.34294 0.18606,-0.20795 0.3247,-0.45239 0.14593,-0.27362 0.22619,-0.60197 0.0803,-0.32834 0.0803,-0.69682 v -0.43779 q 0,-0.38307 -0.0876,-0.72236 -0.0839,-0.3393 -0.24078,-0.62021 -0.13499,-0.22985 -0.31741,-0.4232 -0.17876,-0.19701 -0.4086,-0.332 -0.26268,-0.16417 -0.58373,-0.25173 -0.32105,-0.0912 -0.68953,-0.0912 h -1.3754 z m 1.03247,-4.4801 h 0.34293 q 0.18607,0 0.34294,0.0438 0.16053,0.0401 0.29187,0.11675 0.17147,0.10215 0.29916,0.26267 0.13133,0.16053 0.2116,0.36483 0.0657,0.17147 0.0985,0.37942 0.0365,0.20431 0.0365,0.43415 v 0.44509 q 0,0.24444 -0.0365,0.45604 -0.0328,0.20795 -0.0985,0.37942 -0.0803,0.19701 -0.19336,0.34658 -0.10945,0.14594 -0.24809,0.24079 -0.13498,0.0912 -0.29916,0.13864 -0.16417,0.0474 -0.35388,0.0474 h -0.39401 z"
           id="path7657" />
      </g>
      <g
         aria-label="KEY RST"
         transform="scale(1.0156232,0.98461712)"
         id="text1055-7-1"
         style="font-weight:bold;font-size:7.47169px;font-family:'Roboto Mono';-inkscape-font-specification:'Roboto Mono Bold';text-align:end;text-anchor:end;stroke-width:0.392215">
        <path
           d="m 123.37251,131.84242 1.31338,2.18167 h 1.21853 l -1.85333,-2.9624 1.78766,-2.3495 h -1.25501 l -1.29149,1.78401 -0.48158,0.6494 v -2.43341 h -1.02881 v 5.3119 h 1.02881 v -1.56511 z"
           id="path7660" />
        <path
           d="m 129.54176,131.69649 v -0.80992 h -2.18167 v -1.33892 h 2.5392 v -0.83546 h -3.56802 v 5.3119 h 3.57897 v -0.82816 h -2.55015 v -1.49944 z"
           id="path7662" />
        <path
           d="m 132.56984,131.16019 -1.04706,-2.448 h -1.12367 l 1.64537,3.42939 0.004,1.88251 h 1.02152 l 0.004,-1.83873 1.67092,-3.47317 h -1.12732 z"
           id="path7664" />
        <path
           d="m 141.52638,132.03943 0.99963,1.98466 h 1.09814 v -0.0474 l -1.14192,-2.19262 q 0.2189,-0.0985 0.39402,-0.23349 0.17876,-0.13499 0.30645,-0.31741 0.12404,-0.17876 0.18971,-0.40496 0.0693,-0.22984 0.0693,-0.5144 0,-0.39402 -0.13863,-0.69318 -0.13499,-0.29916 -0.38672,-0.49981 -0.25538,-0.20066 -0.61291,-0.30281 -0.35754,-0.1058 -0.79898,-0.1058 h -1.78036 v 5.3119 h 1.02517 v -1.98466 z m -0.77708,-0.83181 V 129.544 h 0.75519 q 0.2116,0 0.37577,0.0511 0.16418,0.0511 0.27727,0.14594 0.12769,0.1058 0.18972,0.26997 0.0657,0.16052 0.0657,0.37212 0,0.17512 -0.0511,0.3174 -0.0474,0.14229 -0.14228,0.24444 -0.1131,0.12769 -0.29552,0.19701 -0.17876,0.0657 -0.4159,0.0657 z"
           id="path7666" />
        <path
           d="m 146.96598,132.63774 q 0,0.14229 -0.0584,0.26268 -0.0584,0.11675 -0.16782,0.20066 -0.10945,0.0839 -0.26997,0.13134 -0.15688,0.0474 -0.36118,0.0474 -0.22984,0 -0.4232,-0.0511 -0.18971,-0.0511 -0.3247,-0.16053 -0.13864,-0.10945 -0.21525,-0.28092 -0.0766,-0.17146 -0.0839,-0.41225 h -1.00693 q 0,0.41225 0.15688,0.71871 0.16052,0.30646 0.43415,0.53265 0.28821,0.22984 0.67493,0.35024 0.39036,0.11674 0.78803,0.11674 0.40496,0 0.7479,-0.0949 0.34294,-0.0985 0.59102,-0.28822 0.24808,-0.18606 0.38672,-0.45603 0.14228,-0.27363 0.14228,-0.62386 0,-0.40496 -0.18606,-0.71507 -0.18606,-0.3101 -0.49982,-0.54359 -0.20795,-0.14228 -0.45603,-0.25173 -0.24809,-0.10945 -0.52171,-0.18606 -0.25538,-0.0693 -0.45968,-0.14958 -0.20066,-0.0803 -0.34294,-0.17877 -0.14228,-0.0949 -0.2189,-0.21525 -0.073,-0.12039 -0.073,-0.26997 0,-0.14229 0.0547,-0.26268 0.0584,-0.12404 0.16782,-0.21525 0.10945,-0.0876 0.26633,-0.13498 0.16052,-0.0511 0.36483,-0.0511 0.22254,0 0.38671,0.062 0.16782,0.0584 0.28092,0.16417 0.10945,0.10945 0.16417,0.25903 0.0584,0.14958 0.0657,0.32835 h 0.99963 q 0,-0.35753 -0.13863,-0.65669 -0.13864,-0.29916 -0.38672,-0.51806 -0.24808,-0.21525 -0.59467,-0.33564 -0.34294,-0.1204 -0.75884,-0.1204 -0.40131,0 -0.74425,0.1058 -0.34294,0.10216 -0.59467,0.29551 -0.25174,0.19336 -0.39402,0.46699 -0.14228,0.27362 -0.14228,0.60926 0,0.29186 0.1058,0.53995 0.10945,0.24808 0.32105,0.45238 0.2116,0.20431 0.54359,0.37578 0.33564,0.17147 0.77709,0.29186 0.28456,0.0766 0.47427,0.16782 0.19336,0.0876 0.31376,0.19336 0.11674,0.10945 0.16417,0.23349 0.0511,0.12404 0.0511,0.26632 z"
           id="path7668" />
        <path
           d="m 152.59528,129.54765 v -0.83546 h -4.28309 v 0.83546 h 1.61619 v 4.47644 h 1.02882 v -4.47644 z"
           id="path7670" />
      </g>
      <g
         aria-label="HST RST"
         transform="scale(1.0156232,0.98461712)"
         id="text1055-4-7"
         style="font-weight:bold;font-size:7.47169px;font-family:'Roboto Mono';-inkscape-font-specification:'Roboto Mono Bold';text-align:end;text-anchor:end;stroke-width:0.392215">
        <path
           d="m 124.88439,146.04031 v -5.3119 h -1.01422 v 2.17803 h -1.5031 v -2.17803 h -1.01787 v 5.3119 h 1.01787 v -2.30206 h 1.5031 v 2.30206 z"
           id="path7673" />
        <path
           d="m 128.62023,144.65396 q 0,0.14229 -0.0584,0.26268 -0.0584,0.11675 -0.16782,0.20066 -0.10945,0.0839 -0.26997,0.13134 -0.15688,0.0474 -0.36118,0.0474 -0.22985,0 -0.4232,-0.0511 -0.18972,-0.0511 -0.3247,-0.16053 -0.13864,-0.10945 -0.21525,-0.28092 -0.0766,-0.17146 -0.0839,-0.41225 h -1.00693 q 0,0.41225 0.15688,0.71871 0.16052,0.30646 0.43414,0.53265 0.28822,0.22984 0.67494,0.35024 0.39036,0.11674 0.78803,0.11674 0.40496,0 0.7479,-0.0949 0.34293,-0.0985 0.59102,-0.28822 0.24808,-0.18606 0.38672,-0.45603 0.14228,-0.27363 0.14228,-0.62386 0,-0.40496 -0.18606,-0.71507 -0.18607,-0.3101 -0.49982,-0.54359 -0.20795,-0.14228 -0.45603,-0.25173 -0.24809,-0.10945 -0.52171,-0.18606 -0.25538,-0.0693 -0.45968,-0.14958 -0.20066,-0.0803 -0.34294,-0.17877 -0.14229,-0.0949 -0.2189,-0.21525 -0.073,-0.12039 -0.073,-0.26997 0,-0.14229 0.0547,-0.26268 0.0584,-0.12404 0.16782,-0.21525 0.10945,-0.0876 0.26633,-0.13498 0.16052,-0.0511 0.36482,-0.0511 0.22255,0 0.38672,0.062 0.16782,0.0584 0.28092,0.16417 0.10945,0.10945 0.16417,0.25903 0.0584,0.14958 0.0657,0.32835 h 0.99963 q 0,-0.35753 -0.13863,-0.65669 -0.13864,-0.29916 -0.38672,-0.51806 -0.24808,-0.21525 -0.59467,-0.33564 -0.34294,-0.1204 -0.75884,-0.1204 -0.40132,0 -0.74426,0.1058 -0.34293,0.10216 -0.59467,0.29551 -0.25173,0.19336 -0.39401,0.46699 -0.14228,0.27362 -0.14228,0.60926 0,0.29186 0.1058,0.53995 0.10945,0.24808 0.32105,0.45238 0.2116,0.20431 0.54359,0.37578 0.33564,0.17147 0.77709,0.29186 0.28456,0.0766 0.47427,0.16782 0.19336,0.0876 0.31376,0.19336 0.11674,0.10945 0.16417,0.23349 0.0511,0.12404 0.0511,0.26632 z"
           id="path7675" />
        <path
           d="m 134.24954,141.56387 v -0.83546 h -4.28309 v 0.83546 h 1.61619 v 4.47644 h 1.02882 v -4.47644 z"
           id="path7677" />
        <path
           d="m 141.11561,144.05565 0.99963,1.98466 h 1.09814 v -0.0474 l -1.14191,-2.19262 q 0.21889,-0.0985 0.39401,-0.23349 0.17877,-0.13499 0.30646,-0.31741 0.12404,-0.17876 0.18971,-0.40496 0.0693,-0.22984 0.0693,-0.5144 0,-0.39402 -0.13863,-0.69318 -0.13499,-0.29916 -0.38672,-0.49981 -0.25538,-0.20066 -0.61291,-0.30281 -0.35753,-0.1058 -0.79898,-0.1058 h -1.78036 v 5.3119 h 1.02517 v -1.98466 z m -0.77708,-0.83181 v -1.66362 h 0.75519 q 0.2116,0 0.37578,0.0511 0.16417,0.0511 0.27727,0.14594 0.12769,0.1058 0.18971,0.26997 0.0657,0.16052 0.0657,0.37212 0,0.17512 -0.0511,0.3174 -0.0474,0.14229 -0.14228,0.24444 -0.1131,0.12769 -0.29551,0.19701 -0.17877,0.0657 -0.41591,0.0657 z"
           id="path7679" />
        <path
           d="m 146.55521,144.65396 q 0,0.14229 -0.0584,0.26268 -0.0584,0.11675 -0.16783,0.20066 -0.10944,0.0839 -0.26997,0.13134 -0.15687,0.0474 -0.36118,0.0474 -0.22984,0 -0.4232,-0.0511 -0.18971,-0.0511 -0.3247,-0.16053 -0.13863,-0.10945 -0.21525,-0.28092 -0.0766,-0.17146 -0.0839,-0.41225 h -1.00692 q 0,0.41225 0.15687,0.71871 0.16053,0.30646 0.43415,0.53265 0.28821,0.22984 0.67493,0.35024 0.39037,0.11674 0.78803,0.11674 0.40496,0 0.7479,-0.0949 0.34294,-0.0985 0.59102,-0.28822 0.24809,-0.18606 0.38672,-0.45603 0.14228,-0.27363 0.14228,-0.62386 0,-0.40496 -0.18606,-0.71507 -0.18606,-0.3101 -0.49981,-0.54359 -0.20796,-0.14228 -0.45604,-0.25173 -0.24808,-0.10945 -0.5217,-0.18606 -0.25538,-0.0693 -0.45969,-0.14958 -0.20065,-0.0803 -0.34294,-0.17877 -0.14228,-0.0949 -0.21889,-0.21525 -0.073,-0.12039 -0.073,-0.26997 0,-0.14229 0.0547,-0.26268 0.0584,-0.12404 0.16783,-0.21525 0.10944,-0.0876 0.26632,-0.13498 0.16052,-0.0511 0.36483,-0.0511 0.22254,0 0.38672,0.062 0.16782,0.0584 0.28091,0.16417 0.10945,0.10945 0.16418,0.25903 0.0584,0.14958 0.0657,0.32835 h 0.99963 q 0,-0.35753 -0.13864,-0.65669 -0.13863,-0.29916 -0.38672,-0.51806 -0.24808,-0.21525 -0.59467,-0.33564 -0.34294,-0.1204 -0.75884,-0.1204 -0.40131,0 -0.74425,0.1058 -0.34294,0.10216 -0.59467,0.29551 -0.25173,0.19336 -0.39402,0.46699 -0.14228,0.27362 -0.14228,0.60926 0,0.29186 0.1058,0.53995 0.10945,0.24808 0.32105,0.45238 0.2116,0.20431 0.5436,0.37578 0.33564,0.17147 0.77708,0.29186 0.28457,0.0766 0.47428,0.16782 0.19336,0.0876 0.31375,0.19336 0.11675,0.10945 0.16417,0.23349 0.0511,0.12404 0.0511,0.26632 z"
           id="path7681" />
        <path
           d="m 152.18451,141.56387 v -0.83546 h -4.28308 v 0.83546 h 1.61619 v 4.47644 h 1.02881 v -4.47644 z"
           id="path7683" />
      </g>
      <path
         id="path2798-5"
         style="fill:#adadad;stroke:#000000;stroke-width:0.392214"
         d="m 93.932371,129.2599 a 4.3805752,4.2468395 0 0 1 -4.380575,4.24684 4.3805752,4.2468395 0 0 1 -4.380575,-4.24684 4.3805752,4.2468395 0 0 1 4.380575,-4.24684 4.3805752,4.2468395 0 0 1 4.380575,4.24684 z" />
      <path
         id="path2798-70"
         style="fill:#adadad;stroke:#000000;stroke-width:0.392214"
         d="m 93.932371,141.30707 a 4.3805752,4.2468395 0 0 1 -4.380575,4.24684 4.3805752,4.2468395 0 0 1 -4.380575,-4.24684 4.3805752,4.2468395 0 0 1 4.380575,-4.24684 4.3805752,4.2468395 0 0 1 4.380575,4.24684 z" />
      <path
         id="path2798"
         style="fill:#adadad;stroke:#000000;stroke-width:0.392214"
         d="m 93.932371,56.976967 a 4.3805752,4.2468395 0 0 1 -4.380575,4.246839 4.3805752,4.2468395 0 0 1 -4.380575,-4.246839 4.3805752,4.2468395 0 0 1 4.380575,-4.24684 4.3805752,4.2468395 0 0 1 4.380575,4.24684 z" />
      <path
         id="path2798-7"
         style="fill:#adadad;stroke:#000000;stroke-width:0.392214"
         d="m 93.932371,69.024124 a 4.3805752,4.2468395 0 0 1 -4.380575,4.24684 4.3805752,4.2468395 0 0 1 -4.380575,-4.24684 4.3805752,4.2468395 0 0 1 4.380575,-4.246839 4.3805752,4.2468395 0 0 1 4.380575,4.246839 z" />
      <path
         id="path2798-4"
         style="fill:#adadad;stroke:#000000;stroke-width:0.392214"
         d="m 93.932371,81.071281 a 4.3805752,4.2468395 0 0 1 -4.380575,4.24684 4.3805752,4.2468395 0 0 1 -4.380575,-4.24684 4.3805752,4.2468395 0 0 1 4.380575,-4.246839 4.3805752,4.2468395 0 0 1 4.380575,4.246839 z" />
      <path
         id="path2798-8"
         style="fill:#adadad;stroke:#000000;stroke-width:0.392214"
         d="m 93.932371,93.118439 a 4.3805752,4.2468395 0 0 1 -4.380575,4.246839 4.3805752,4.2468395 0 0 1 -4.380575,-4.246839 4.3805752,4.2468395 0 0 1 4.380575,-4.24684 4.3805752,4.2468395 0 0 1 4.380575,4.24684 z" />
      <path
         id="path2798-0"
         style="fill:#adadad;stroke:#000000;stroke-width:0.392214"
         d="m 93.932371,105.16559 a 4.3805752,4.2468395 0 0 1 -4.380575,4.24684 4.3805752,4.2468395 0 0 1 -4.380575,-4.24684 4.3805752,4.2468395 0 0 1 4.380575,-4.24684 4.3805752,4.2468395 0 0 1 4.380575,4.24684 z" />
      <path
         id="path2798-40"
         style="fill:#adadad;stroke:#000000;stroke-width:0.392214"
         d="m 93.932371,117.21276 a 4.3805752,4.2468395 0 0 1 -4.380575,4.24684 4.3805752,4.2468395 0 0 1 -4.380575,-4.24684 4.3805752,4.2468395 0 0 1 4.380575,-4.24684 4.3805752,4.2468395 0 0 1 4.380575,4.24684 z" />
      <path
         id="path2798-5-0"
         style="fill:#adadad;stroke:#000000;stroke-width:0.392214"
         d="m 165.44323,129.15878 a 4.3805752,4.2468395 0 0 1 -4.38058,4.24684 4.3805752,4.2468395 0 0 1 -4.38057,-4.24684 4.3805752,4.2468395 0 0 1 4.38057,-4.24684 4.3805752,4.2468395 0 0 1 4.38058,4.24684 z" />
      <path
         id="path2798-70-4"
         style="fill:#ff0000;stroke:#000000;stroke-width:0.392214"
         d="m 165.44323,141.20595 a 4.3805752,4.2468395 0 0 1 -4.38058,4.24684 4.3805752,4.2468395 0 0 1 -4.38057,-4.24684 4.3805752,4.2468395 0 0 1 4.38057,-4.24684 4.3805752,4.2468395 0 0 1 4.38058,4.24684 z" />
      <path
         id="path2798-09"
         style="fill:#adadad;stroke:#000000;stroke-width:0.392214"
         d="m 165.44323,56.875847 a 4.3805752,4.2468395 0 0 1 -4.38058,4.246839 4.3805752,4.2468395 0 0 1 -4.38057,-4.246839 4.3805752,4.2468395 0 0 1 4.38057,-4.24684 4.3805752,4.2468395 0 0 1 4.38058,4.24684 z" />
      <path
         id="path2798-7-2"
         style="fill:#adadad;stroke:#000000;stroke-width:0.392214"
         d="m 165.44323,68.923004 a 4.3805752,4.2468395 0 0 1 -4.38058,4.24684 4.3805752,4.2468395 0 0 1 -4.38057,-4.24684 4.3805752,4.2468395 0 0 1 4.38057,-4.246839 4.3805752,4.2468395 0 0 1 4.38058,4.246839 z" />
      <path
         id="path2798-4-4"
         style="fill:#adadad;stroke:#000000;stroke-width:0.392214"
         d="m 165.44323,80.970169 a 4.3805752,4.2468395 0 0 1 -4.38058,4.24684 4.3805752,4.2468395 0 0 1 -4.38057,-4.24684 4.3805752,4.2468395 0 0 1 4.38057,-4.246839 4.3805752,4.2468395 0 0 1 4.38058,4.246839 z" />
      <path
         id="path2798-8-9"
         style="fill:#adadad;stroke:#000000;stroke-width:0.392214"
         d="m 165.44323,93.017319 a 4.3805752,4.2468395 0 0 1 -4.38058,4.246839 4.3805752,4.2468395 0 0 1 -4.38057,-4.246839 4.3805752,4.2468395 0 0 1 4.38057,-4.24684 4.3805752,4.2468395 0 0 1 4.38058,4.24684 z" />
      <path
         id="path2798-0-2"
         style="fill:#adadad;stroke:#000000;stroke-width:0.392214"
         d="m 165.44323,105.06447 a 4.3805752,4.2468395 0 0 1 -4.38058,4.24684 4.3805752,4.2468395 0 0 1 -4.38057,-4.24684 4.3805752,4.2468395 0 0 1 4.38057,-4.24684 4.3805752,4.2468395 0 0 1 4.38058,4.24684 z" />
      <path
         id="ellipse2146"
         style="opacity:1;fill:#adadad;stroke:#000000;stroke-width:0.392214"
         d="m 165.52254,116.85287 a 4.3805752,4.2468395 0 0 1 -4.38057,4.24684 4.3805752,4.2468395 0 0 1 -4.38058,-4.24684 4.3805752,4.2468395 0 0 1 4.38058,-4.24684 4.3805752,4.2468395 0 0 1 4.38057,4.24684 z" />
    </g>
    <g
       id="g6976"
       transform="translate(0.56551995,-11.310399)">
      <path
         id="rect788-7"
         style="fill:#d3d3d3;fill-opacity:1;stroke:#000000;stroke-width:0.572;stroke-dasharray:none;stroke-opacity:1"
         d="m 348.16599,39.14644 v 104.93558 h 71.52635 V 39.14644 H 396.55 c -1.35483,5.11544 -6.58838,8.739733 -12.62088,8.740109 -6.0325,-3.76e-4 -11.26604,-3.624669 -12.62087,-8.740109 z"
         sodipodi:nodetypes="cccccccc" />
      <g
         aria-label="OUT"
         transform="scale(1.0156232,0.98461712)"
         id="text1055-48"
         style="font-weight:bold;font-size:7.47169px;font-family:'Roboto Mono';-inkscape-font-specification:'Roboto Mono Bold';stroke-width:0.392215">
        <path
           d="m 355.08943,54.468183 v -0.773437 q 0,-0.36118 -0.0693,-0.682229 -0.0657,-0.32105 -0.19336,-0.591023 -0.11674,-0.237138 -0.28091,-0.434146 -0.16053,-0.197007 -0.37578,-0.335642 -0.21525,-0.145932 -0.48522,-0.222546 -0.26632,-0.08026 -0.57278,-0.08026 -0.30281,0 -0.56184,0.07661 -0.25903,0.07661 -0.46698,0.218897 -0.2116,0.145932 -0.37577,0.350236 -0.16053,0.204304 -0.27362,0.456035 -0.11675,0.266325 -0.17877,0.580078 -0.0584,0.313753 -0.0584,0.663988 v 0.773437 q 0,0.328345 0.0511,0.623857 0.0547,0.295511 0.15687,0.547243 0.1131,0.273621 0.28092,0.492518 0.16782,0.215249 0.37942,0.368477 0.21525,0.145932 0.47793,0.226194 0.26267,0.08026 0.57278,0.08026 0.29186,0 0.54359,-0.07297 0.25538,-0.06932 0.46698,-0.197007 0.23349,-0.145931 0.41591,-0.364829 0.18241,-0.218897 0.30645,-0.481573 0.11675,-0.262677 0.17877,-0.569133 0.062,-0.310104 0.062,-0.653043 z m -1.03976,-0.780734 v 0.780734 q 0,0.197007 -0.0219,0.379421 -0.0182,0.182415 -0.0584,0.335643 -0.0511,0.197007 -0.13864,0.353884 -0.0839,0.153228 -0.20795,0.25538 -0.0985,0.08391 -0.22619,0.12769 -0.12769,0.04378 -0.28092,0.04378 -0.16053,0 -0.28822,-0.04743 -0.12404,-0.04743 -0.22254,-0.134986 -0.1058,-0.0985 -0.18607,-0.25538 -0.0766,-0.160525 -0.11674,-0.353884 -0.0365,-0.153228 -0.0511,-0.331994 -0.0146,-0.178766 -0.0146,-0.372125 v -0.780734 q 0,-0.204304 0.0146,-0.390366 0.0183,-0.186063 0.0547,-0.342939 0.0474,-0.204304 0.13134,-0.357532 0.0876,-0.153228 0.2116,-0.25538 0.0912,-0.06932 0.2043,-0.1058 0.11675,-0.03648 0.25903,-0.03648 0.14958,0 0.26997,0.04013 0.12404,0.04013 0.22255,0.113097 0.12404,0.0985 0.21525,0.25538 0.0912,0.153228 0.14593,0.350235 0.0438,0.156877 0.062,0.342939 0.0219,0.182414 0.0219,0.386718 z"
           id="path7502" />
        <path
           d="m 359.40535,51.421864 h -1.01787 l -0.004,3.520596 q -0.004,0.259028 -0.0547,0.456036 -0.0511,0.197007 -0.15323,0.328345 -0.0949,0.12769 -0.24079,0.19336 -0.14228,0.06202 -0.32834,0.06202 -0.17147,0 -0.30281,-0.05837 -0.13134,-0.06202 -0.22255,-0.182414 -0.0985,-0.131339 -0.14958,-0.331994 -0.0474,-0.200656 -0.0511,-0.466981 l -0.004,-3.520596 h -1.02517 l -0.004,3.520596 q 0,0.445091 0.12405,0.795326 0.12769,0.346588 0.35753,0.583726 0.22984,0.237139 0.55089,0.36118 0.3247,0.124042 0.72601,0.124042 0.42685,0 0.75884,-0.124042 0.33564,-0.124041 0.56913,-0.364828 0.22985,-0.237139 0.35024,-0.583726 0.12404,-0.346587 0.12404,-0.791678 z"
           id="path7504" />
        <path
           d="m 364.25393,52.257321 v -0.835457 h -4.28309 v 0.835457 h 1.61619 v 4.476447 h 1.02881 v -4.476447 z"
           id="path7506" />
      </g>
      <g
         aria-label="IN"
         transform="scale(1.0156232,0.98461712)"
         id="text1055-1-3"
         style="font-weight:bold;font-size:7.47169px;font-family:'Roboto Mono';-inkscape-font-specification:'Roboto Mono Bold';stroke-width:0.392215">
        <path
           d="m 351.60897,63.027382 v 0.828161 h 1.01057 v 3.659231 h -1.01057 v 0.824513 h 3.07185 v -0.824513 h -1.03611 v -3.659231 h 1.03611 v -0.828161 z"
           id="path7509" />
        <path
           d="m 359.36887,68.339287 v -5.311905 h -1.02882 l -0.004,3.411148 -1.46662,-3.411148 h -1.03246 v 5.311905 h 1.03246 v -3.425741 l 1.47756,3.425741 z"
           id="path7511" />
      </g>
      <g
         aria-label="SEED"
         transform="scale(1.0156232,0.98461712)"
         id="text1055-3-6"
         style="font-weight:bold;font-size:7.47169px;font-family:'Roboto Mono';-inkscape-font-specification:'Roboto Mono Bold';stroke-width:0.392215">
        <path
           d="m 354.14088,79.388592 q 0,0.142283 -0.0584,0.262676 -0.0584,0.116745 -0.16782,0.200656 -0.10945,0.08391 -0.26997,0.131338 -0.15688,0.04743 -0.36118,0.04743 -0.22984,0 -0.4232,-0.05108 -0.18971,-0.05108 -0.3247,-0.160524 -0.13863,-0.109449 -0.21525,-0.280919 -0.0766,-0.171469 -0.0839,-0.412256 h -1.00693 q 0,0.412256 0.15688,0.718713 0.16052,0.306456 0.43415,0.532649 0.28821,0.229842 0.67493,0.350236 0.39037,0.116745 0.78803,0.116745 0.40496,0 0.7479,-0.09486 0.34294,-0.0985 0.59102,-0.288214 0.24808,-0.186063 0.38672,-0.456036 0.14228,-0.273621 0.14228,-0.623857 0,-0.40496 -0.18606,-0.715064 -0.18606,-0.310104 -0.49982,-0.543595 -0.20795,-0.142283 -0.45603,-0.251731 -0.24809,-0.109449 -0.52171,-0.186063 -0.25538,-0.06932 -0.45968,-0.14958 -0.20066,-0.08026 -0.34294,-0.178766 -0.14228,-0.09486 -0.2189,-0.215249 -0.073,-0.120393 -0.073,-0.269973 0,-0.142283 0.0547,-0.262676 0.0584,-0.124042 0.16782,-0.215249 0.10945,-0.08756 0.26633,-0.134987 0.16052,-0.05108 0.36483,-0.05108 0.22254,0 0.38671,0.06202 0.16783,0.05837 0.28092,0.164173 0.10945,0.109448 0.16418,0.259028 0.0584,0.14958 0.0657,0.328346 h 0.99963 q 0,-0.357532 -0.13863,-0.656692 -0.13863,-0.299159 -0.38672,-0.518056 -0.24808,-0.215249 -0.59467,-0.335643 -0.34294,-0.120393 -0.75884,-0.120393 -0.40131,0 -0.74425,0.1058 -0.34294,0.102152 -0.59467,0.295512 -0.25174,0.193359 -0.39402,0.46698 -0.14228,0.273622 -0.14228,0.609264 0,0.291863 0.1058,0.539946 0.10945,0.248084 0.32105,0.452388 0.2116,0.204304 0.54359,0.375773 0.33564,0.17147 0.77709,0.291863 0.28456,0.07661 0.47427,0.167821 0.19336,0.08756 0.31376,0.19336 0.11674,0.109448 0.16417,0.23349 0.0511,0.124042 0.0511,0.266325 z"
           id="path7514" />
        <path
           d="m 359.13538,78.447334 v -0.80992 h -2.18168 v -1.338921 h 2.53921 v -0.835457 h -3.56802 v 5.311904 h 3.57897 v -0.82816 h -2.55016 v -1.499446 z"
           id="path7516" />
        <path
           d="m 363.61912,78.447334 v -0.80992 h -2.18167 v -1.338921 h 2.53921 v -0.835457 h -3.56803 v 5.311904 h 3.57897 v -0.82816 h -2.55015 v -1.499446 z"
           id="path7518" />
        <path
           d="m 364.81211,80.77494 h 1.42648 q 0.35389,0 0.66399,-0.08756 0.31375,-0.08756 0.57278,-0.251732 0.22255,-0.138635 0.40861,-0.342939 0.18606,-0.207952 0.3247,-0.452388 0.14593,-0.273621 0.22619,-0.601967 0.0803,-0.328346 0.0803,-0.696822 v -0.437795 q 0,-0.38307 -0.0876,-0.72236 -0.0839,-0.339291 -0.24078,-0.620209 -0.13499,-0.229842 -0.3174,-0.423201 -0.17877,-0.197008 -0.40861,-0.331994 -0.26268,-0.164173 -0.58373,-0.251732 -0.32105,-0.09121 -0.68952,-0.09121 h -1.37541 z m 1.03247,-4.480095 h 0.34294 q 0.18606,0 0.34294,0.04378 0.16052,0.04013 0.29186,0.116746 0.17147,0.102152 0.29916,0.262676 0.13134,0.160525 0.2116,0.364829 0.0657,0.171469 0.0985,0.379422 0.0365,0.204304 0.0365,0.434146 v 0.445091 q 0,0.244435 -0.0365,0.456035 -0.0328,0.207953 -0.0985,0.379422 -0.0803,0.197008 -0.19336,0.346587 -0.10945,0.145932 -0.24808,0.240787 -0.13499,0.09121 -0.29916,0.138635 -0.16418,0.04743 -0.35389,0.04743 h -0.39401 z"
           id="path7520" />
      </g>
      <g
         aria-label="CONF"
         transform="scale(1.0156232,0.98461712)"
         id="text1055-36-2"
         style="font-weight:bold;font-size:7.47169px;font-family:'Roboto Mono';-inkscape-font-specification:'Roboto Mono Bold';stroke-width:0.392215">
        <path
           d="m 355.07119,91.546953 h -1.02517 q -0.0146,0.240787 -0.0803,0.412256 -0.0657,0.17147 -0.17877,0.280918 -0.11309,0.109449 -0.27362,0.160525 -0.16052,0.05108 -0.36118,0.05108 -0.14958,0 -0.27362,-0.03284 -0.12039,-0.03648 -0.2189,-0.109448 -0.0912,-0.06567 -0.16417,-0.164173 -0.0693,-0.0985 -0.12039,-0.226194 -0.073,-0.186063 -0.10945,-0.434146 -0.0328,-0.251732 -0.0328,-0.569133 v -0.72236 q 0,-0.233491 0.0219,-0.434146 0.0219,-0.204305 0.0693,-0.372126 0.062,-0.215249 0.16417,-0.375773 0.1058,-0.164173 0.25538,-0.251732 0.0876,-0.05108 0.18971,-0.07661 0.1058,-0.02554 0.2262,-0.02554 0.22619,0 0.38672,0.06202 0.16417,0.05837 0.27362,0.175118 0.1058,0.120393 0.16052,0.299159 0.0584,0.178766 0.073,0.415905 h 1.02152 q -0.0365,-0.415905 -0.17512,-0.747899 -0.13864,-0.331994 -0.37942,-0.561836 -0.24079,-0.229842 -0.58373,-0.353884 -0.33929,-0.124041 -0.77708,-0.124041 -0.29551,0 -0.55454,0.07661 -0.25538,0.07296 -0.47063,0.2116 -0.24079,0.164173 -0.4305,0.401312 -0.18971,0.237138 -0.30646,0.539946 -0.10215,0.248083 -0.15322,0.539946 -0.0511,0.288215 -0.0511,0.609264 v 0.715064 q 0,0.342939 0.0547,0.649395 0.0584,0.306456 0.16417,0.561836 0.10945,0.25538 0.26632,0.466981 0.16053,0.211601 0.36483,0.36118 0.22255,0.160525 0.49982,0.248084 0.28091,0.08391 0.60926,0.08391 0.41591,0 0.75884,-0.120393 0.34294,-0.124042 0.59103,-0.350236 0.24808,-0.226193 0.39401,-0.547243 0.14958,-0.321049 0.17512,-0.72236 z"
           id="path7523" />
        <path
           d="m 359.57317,90.944986 v -0.773437 q 0,-0.36118 -0.0693,-0.68223 -0.0657,-0.321049 -0.19336,-0.591022 -0.11675,-0.237139 -0.28092,-0.434146 -0.16053,-0.197008 -0.37577,-0.335642 -0.21525,-0.145932 -0.48523,-0.222546 -0.26632,-0.08026 -0.57278,-0.08026 -0.3028,0 -0.56183,0.07661 -0.25903,0.07661 -0.46698,0.218897 -0.2116,0.145931 -0.37578,0.350235 -0.16052,0.204305 -0.27362,0.456036 -0.11674,0.266325 -0.17876,0.580078 -0.0584,0.313752 -0.0584,0.663988 v 0.773437 q 0,0.328345 0.0511,0.623856 0.0547,0.295512 0.15688,0.547243 0.11309,0.273622 0.28091,0.492519 0.16782,0.215249 0.37942,0.368477 0.21525,0.145931 0.47793,0.226194 0.26268,0.08026 0.57278,0.08026 0.29186,0 0.5436,-0.07297 0.25538,-0.06932 0.46698,-0.197007 0.23349,-0.145932 0.4159,-0.364829 0.18242,-0.218897 0.30646,-0.481574 0.11674,-0.262676 0.17876,-0.569132 0.062,-0.310105 0.062,-0.653043 z m -1.03976,-0.780734 v 0.780734 q 0,0.197007 -0.0219,0.379421 -0.0182,0.182415 -0.0584,0.335643 -0.0511,0.197007 -0.13863,0.353883 -0.0839,0.153228 -0.20796,0.25538 -0.0985,0.08391 -0.22619,0.12769 -0.12769,0.04378 -0.28092,0.04378 -0.16052,0 -0.28821,-0.04743 -0.12405,-0.04743 -0.22255,-0.134986 -0.1058,-0.0985 -0.18606,-0.25538 -0.0766,-0.160525 -0.11675,-0.353884 -0.0365,-0.153228 -0.0511,-0.331994 -0.0146,-0.178766 -0.0146,-0.372125 v -0.780734 q 0,-0.204304 0.0146,-0.390366 0.0182,-0.186063 0.0547,-0.342939 0.0474,-0.204304 0.13134,-0.357532 0.0876,-0.153228 0.2116,-0.25538 0.0912,-0.06932 0.2043,-0.105801 0.11675,-0.03648 0.25903,-0.03648 0.14958,0 0.26998,0.04013 0.12404,0.04013 0.22254,0.113097 0.12404,0.0985 0.21525,0.25538 0.0912,0.153228 0.14593,0.350235 0.0438,0.156876 0.062,0.342939 0.0219,0.182414 0.0219,0.386718 z"
           id="path7525" />
        <path
           d="m 363.85261,93.210571 v -5.311904 h -1.02881 l -0.004,3.411147 -1.46661,-3.411147 h -1.03247 v 5.311904 h 1.03247 v -3.42574 l 1.47755,3.42574 z"
           id="path7527" />
        <path
           d="m 368.20502,91.010655 v -0.83181 h -2.27653 v -1.444721 h 2.5611 v -0.835457 h -3.58992 v 5.311904 h 1.02882 v -2.199916 z"
           id="path7529" />
      </g>
      <g
         aria-label="CLK"
         transform="scale(1.0156232,0.98461712)"
         id="text1055-9-2"
         style="font-weight:bold;font-size:7.47169px;font-family:'Roboto Mono';-inkscape-font-specification:'Roboto Mono Bold';stroke-width:0.392215">
        <path
           d="m 355.07119,115.58801 h -1.02517 q -0.0146,0.24079 -0.0803,0.41226 -0.0657,0.17147 -0.17877,0.28092 -0.11309,0.10945 -0.27362,0.16052 -0.16052,0.0511 -0.36118,0.0511 -0.14958,0 -0.27362,-0.0328 -0.12039,-0.0365 -0.2189,-0.10944 -0.0912,-0.0657 -0.16417,-0.16418 -0.0693,-0.0985 -0.12039,-0.22619 -0.073,-0.18606 -0.10945,-0.43415 -0.0328,-0.25173 -0.0328,-0.56913 v -0.72236 q 0,-0.23349 0.0219,-0.43415 0.0219,-0.2043 0.0693,-0.37212 0.062,-0.21525 0.16417,-0.37577 0.1058,-0.16418 0.25538,-0.25174 0.0876,-0.0511 0.18971,-0.0766 0.1058,-0.0255 0.2262,-0.0255 0.22619,0 0.38672,0.062 0.16417,0.0584 0.27362,0.17512 0.1058,0.12039 0.16052,0.29916 0.0584,0.17877 0.073,0.4159 h 1.02152 q -0.0365,-0.4159 -0.17512,-0.74789 -0.13864,-0.332 -0.37942,-0.56184 -0.24079,-0.22984 -0.58373,-0.35388 -0.33929,-0.12405 -0.77708,-0.12405 -0.29551,0 -0.55454,0.0766 -0.25538,0.073 -0.47063,0.2116 -0.24079,0.16417 -0.4305,0.40131 -0.18971,0.23714 -0.30646,0.53995 -0.10215,0.24808 -0.15322,0.53994 -0.0511,0.28822 -0.0511,0.60927 v 0.71506 q 0,0.34294 0.0547,0.6494 0.0584,0.30645 0.16417,0.56183 0.10945,0.25538 0.26632,0.46698 0.16053,0.2116 0.36483,0.36118 0.22255,0.16053 0.49982,0.24809 0.28091,0.0839 0.60926,0.0839 0.41591,0 0.75884,-0.1204 0.34294,-0.12404 0.59103,-0.35023 0.24808,-0.2262 0.39401,-0.54725 0.14958,-0.32104 0.17512,-0.72236 z"
           id="path7532" />
        <path
           d="m 356.96465,116.42347 v -4.48374 h -1.02882 v 5.3119 h 3.51695 v -0.82816 z"
           id="path7534" />
        <path
           d="m 361.93362,115.06996 1.31338,2.18167 h 1.21853 l -1.85333,-2.96241 1.78766,-2.34949 h -1.25501 l -1.2915,1.78401 -0.48157,0.64939 v -2.4334 h -1.02882 v 5.3119 h 1.02882 v -1.56511 z"
           id="path7536" />
      </g>
      <g
         aria-label="+5V"
         transform="scale(1.0156232,0.98461712)"
         id="text1055-9-0-7"
         style="font-weight:bold;font-size:7.47169px;font-family:'Roboto Mono';-inkscape-font-specification:'Roboto Mono Bold';stroke-width:0.392215">
        <path
           d="m 394.32434,53.579023 v -1.437425 h -0.9668 v 1.437425 h -1.33892 v 0.926665 h 1.33892 v 1.503094 h 0.9668 v -1.503094 h 1.33527 v -0.926665 z"
           id="path7539" />
        <path
           d="m 396.70667,53.92561 0.80992,0.200656 q 0.0584,-0.05837 0.12404,-0.109449 0.0657,-0.05472 0.14958,-0.09486 0.0839,-0.04013 0.19336,-0.06567 0.10945,-0.02554 0.25903,-0.02554 0.22254,0 0.38672,0.06932 0.16417,0.06932 0.27362,0.197008 0.10945,0.12769 0.16052,0.306456 0.0547,0.175117 0.0547,0.386718 0,0.215249 -0.0438,0.401312 -0.0401,0.186062 -0.12769,0.321049 -0.0912,0.134986 -0.23714,0.2116 -0.14229,0.07661 -0.34659,0.07661 -0.33199,0 -0.54724,-0.189711 -0.2116,-0.18971 -0.24809,-0.536298 h -0.99963 q 0.0109,0.368477 0.16418,0.656692 0.15687,0.284566 0.40496,0.481574 0.24808,0.197007 0.56548,0.299159 0.32105,0.102152 0.66399,0.102152 0.45239,0 0.78438,-0.142283 0.33199,-0.142283 0.55089,-0.386718 0.2189,-0.244436 0.3247,-0.565485 0.1058,-0.321049 0.1058,-0.678581 0,-0.419553 -0.10945,-0.751547 -0.10945,-0.331994 -0.31375,-0.561836 -0.20795,-0.229842 -0.51076,-0.350235 -0.29916,-0.124042 -0.68223,-0.124042 -0.26997,0 -0.47793,0.06932 -0.20795,0.06932 -0.32105,0.134987 l 0.12769,-1.167452 h 2.11236 v -0.860995 h -2.94781 z"
           id="path7541" />
        <path
           d="m 402.34327,56.541431 h 1.04341 l 1.60889,-5.311904 h -1.13096 l -0.90478,3.465872 -0.0985,0.36118 -0.0912,-0.357532 -0.90113,-3.46952 h -1.13097 z"
           id="path7543" />
      </g>
      <g
         aria-label="RST"
         transform="scale(1.0156232,0.98461712)"
         id="text1055-7-5"
         style="font-weight:bold;font-size:7.47169px;font-family:'Roboto Mono';-inkscape-font-specification:'Roboto Mono Bold';stroke-width:0.392215">
        <path
           d="m 353.18503,128.11749 0.99963,1.98467 h 1.09813 v -0.0474 l -1.14191,-2.19262 q 0.21889,-0.0985 0.39401,-0.23349 0.17877,-0.13499 0.30646,-0.3174 0.12404,-0.17877 0.18971,-0.40496 0.0693,-0.22984 0.0693,-0.51441 0,-0.39401 -0.13864,-0.69317 -0.13499,-0.29916 -0.38672,-0.49982 -0.25538,-0.20065 -0.61291,-0.30281 -0.35753,-0.1058 -0.79897,-0.1058 h -1.78037 v 5.31191 h 1.02517 v -1.98467 z m -0.77709,-0.83181 v -1.66362 h 0.7552 q 0.2116,0 0.37577,0.0511 0.16417,0.0511 0.27727,0.14593 0.12769,0.1058 0.18971,0.26997 0.0657,0.16053 0.0657,0.37213 0,0.17512 -0.0511,0.3174 -0.0474,0.14228 -0.14228,0.24443 -0.1131,0.12769 -0.29551,0.19701 -0.17877,0.0657 -0.41591,0.0657 z"
           id="path7546" />
        <path
           d="m 358.62462,128.71581 q 0,0.14228 -0.0584,0.26268 -0.0584,0.11674 -0.16782,0.20065 -0.10945,0.0839 -0.26998,0.13134 -0.15687,0.0474 -0.36118,0.0474 -0.22984,0 -0.4232,-0.0511 -0.18971,-0.0511 -0.3247,-0.16052 -0.13863,-0.10945 -0.21525,-0.28092 -0.0766,-0.17147 -0.0839,-0.41226 h -1.00692 q 0,0.41226 0.15687,0.71871 0.16053,0.30646 0.43415,0.53265 0.28821,0.22985 0.67493,0.35024 0.39037,0.11675 0.78803,0.11675 0.40496,0 0.7479,-0.0949 0.34294,-0.0985 0.59102,-0.28822 0.24809,-0.18606 0.38672,-0.45603 0.14229,-0.27362 0.14229,-0.62386 0,-0.40496 -0.18607,-0.71506 -0.18606,-0.31011 -0.49981,-0.5436 -0.20796,-0.14228 -0.45604,-0.25173 -0.24808,-0.10945 -0.5217,-0.18606 -0.25538,-0.0693 -0.45969,-0.14958 -0.20065,-0.0803 -0.34294,-0.17877 -0.14228,-0.0949 -0.21889,-0.21525 -0.073,-0.12039 -0.073,-0.26997 0,-0.14228 0.0547,-0.26268 0.0584,-0.12404 0.16783,-0.21524 0.10944,-0.0876 0.26632,-0.13499 0.16053,-0.0511 0.36483,-0.0511 0.22255,0 0.38672,0.062 0.16782,0.0584 0.28092,0.16418 0.10944,0.10945 0.16417,0.25903 0.0584,0.14958 0.0657,0.32834 h 0.99963 q 0,-0.35753 -0.13864,-0.65669 -0.13863,-0.29916 -0.38671,-0.51806 -0.24809,-0.21525 -0.59468,-0.33564 -0.34293,-0.12039 -0.75884,-0.12039 -0.40131,0 -0.74425,0.1058 -0.34294,0.10215 -0.59467,0.29551 -0.25173,0.19336 -0.39401,0.46698 -0.14229,0.27362 -0.14229,0.60926 0,0.29187 0.1058,0.53995 0.10945,0.24808 0.32105,0.45239 0.2116,0.2043 0.5436,0.37577 0.33564,0.17147 0.77708,0.29186 0.28457,0.0766 0.47428,0.16782 0.19336,0.0876 0.31375,0.19336 0.11675,0.10945 0.16417,0.23349 0.0511,0.12405 0.0511,0.26633 z"
           id="path7548" />
        <path
           d="m 364.25393,125.62571 v -0.83546 h -4.28309 v 0.83546 h 1.61619 v 4.47645 h 1.02881 v -4.47645 z"
           id="path7550" />
      </g>
      <g
         aria-label="GND"
         transform="scale(1.0156232,0.98461712)"
         id="text1055-4-1"
         style="font-weight:bold;font-size:7.47169px;font-family:'Roboto Mono';-inkscape-font-specification:'Roboto Mono Bold';stroke-width:0.392215">
        <path
           d="m 355.03471,141.91757 -0.004,-2.09411 h -1.90076 v 0.76614 h 0.87924 l -0.004,0.96314 q -0.0401,0.0474 -0.12039,0.0912 -0.0766,0.0401 -0.17877,0.073 -0.10215,0.0328 -0.2189,0.0511 -0.11674,0.0182 -0.23714,0.0182 -0.197,-0.004 -0.35388,-0.062 -0.15323,-0.062 -0.26997,-0.17876 -0.0693,-0.0693 -0.12769,-0.15688 -0.0547,-0.0912 -0.0985,-0.19701 -0.0693,-0.18241 -0.10945,-0.41955 -0.0365,-0.23714 -0.0365,-0.52535 V 139.517 q 0,-0.22984 0.0255,-0.42685 0.0292,-0.19701 0.0803,-0.35753 0.0657,-0.20795 0.16418,-0.36118 0.10215,-0.15323 0.22619,-0.24809 0.0949,-0.0693 0.2043,-0.1058 0.10945,-0.0365 0.2262,-0.0365 0.21525,0 0.36847,0.0584 0.15688,0.0547 0.25903,0.16783 0.0912,0.10215 0.14229,0.25173 0.0547,0.14958 0.0803,0.34294 h 0.99963 q -0.0401,-0.38307 -0.17147,-0.68953 -0.12769,-0.30646 -0.35753,-0.52171 -0.22985,-0.2116 -0.56549,-0.32469 -0.33199,-0.1131 -0.78073,-0.1131 -0.29186,0 -0.55454,0.0803 -0.26268,0.0803 -0.48522,0.23714 -0.18971,0.13864 -0.35024,0.32835 -0.15687,0.18971 -0.27727,0.42685 -0.12769,0.26632 -0.19701,0.59467 -0.0693,0.32469 -0.0693,0.70412 v 0.72236 q 0,0.39766 0.0693,0.73695 0.073,0.33929 0.21161,0.60926 0.12039,0.24444 0.29186,0.43415 0.17512,0.18971 0.38672,0.32105 0.21525,0.12769 0.47063,0.19336 0.25902,0.0693 0.55089,0.0693 0.33564,0 0.6275,-0.062 0.29186,-0.062 0.529,-0.16418 0.23349,-0.0985 0.40496,-0.22254 0.17147,-0.12404 0.26998,-0.24444 z"
           id="path7553" />
        <path
           d="m 359.36887,142.53778 v -5.3119 h -1.02882 l -0.004,3.41114 -1.46662,-3.41114 h -1.03246 v 5.3119 h 1.03246 v -3.42574 l 1.47756,3.42574 z"
           id="path7555" />
        <path
           d="m 360.32837,142.53778 h 1.42648 q 0.35388,0 0.66399,-0.0876 0.31375,-0.0876 0.57278,-0.25173 0.22254,-0.13863 0.40861,-0.34294 0.18606,-0.20795 0.32469,-0.45239 0.14594,-0.27362 0.2262,-0.60196 0.0803,-0.32835 0.0803,-0.69683 v -0.43779 q 0,-0.38307 -0.0876,-0.72236 -0.0839,-0.33929 -0.24079,-0.62021 -0.13498,-0.22984 -0.3174,-0.4232 -0.17876,-0.19701 -0.4086,-0.332 -0.26268,-0.16417 -0.58373,-0.25173 -0.32105,-0.0912 -0.68953,-0.0912 h -1.3754 z m 1.03246,-4.48009 h 0.34294 q 0.18607,0 0.34294,0.0438 0.16053,0.0401 0.29187,0.11675 0.17146,0.10215 0.29915,0.26268 0.13134,0.16052 0.21161,0.36483 0.0657,0.17146 0.0985,0.37942 0.0365,0.2043 0.0365,0.43414 v 0.44509 q 0,0.24444 -0.0365,0.45604 -0.0328,0.20795 -0.0985,0.37942 -0.0803,0.19701 -0.19336,0.34659 -0.10945,0.14593 -0.24809,0.24079 -0.13498,0.0912 -0.29916,0.13863 -0.16417,0.0474 -0.35388,0.0474 h -0.39402 z"
           id="path7557" />
      </g>
      <g
         aria-label="KEY RST"
         transform="scale(1.0156232,0.98461712)"
         id="text1055-7-1-0"
         style="font-weight:bold;font-size:7.47169px;font-family:'Roboto Mono';-inkscape-font-specification:'Roboto Mono Bold';text-align:end;text-anchor:end;stroke-width:0.392215">
        <path
           d="m 378.03503,127.89393 1.31338,2.18168 h 1.21853 l -1.85333,-2.96241 1.78766,-2.3495 h -1.25501 l -1.29149,1.78401 -0.48158,0.6494 v -2.43341 h -1.02881 v 5.31191 h 1.02881 v -1.56512 z"
           id="path7560" />
        <path
           d="m 384.20428,127.748 v -0.80992 h -2.18167 v -1.33892 h 2.5392 v -0.83546 h -3.56802 v 5.31191 h 3.57897 v -0.82816 h -2.55015 V 127.748 Z"
           id="path7562" />
        <path
           d="m 387.23236,127.2117 -1.04706,-2.448 h -1.12367 l 1.64538,3.42939 0.004,1.88252 h 1.02152 l 0.004,-1.83874 1.67092,-3.47317 h -1.12732 z"
           id="path7564" />
        <path
           d="m 396.1889,128.09094 0.99963,1.98467 h 1.09814 v -0.0474 l -1.14192,-2.19262 q 0.2189,-0.0985 0.39402,-0.23349 0.17876,-0.13499 0.30645,-0.3174 0.12405,-0.17877 0.18971,-0.40496 0.0693,-0.22984 0.0693,-0.51441 0,-0.39401 -0.13863,-0.69317 -0.13499,-0.29916 -0.38672,-0.49982 -0.25538,-0.20066 -0.61291,-0.30281 -0.35754,-0.1058 -0.79898,-0.1058 h -1.78036 v 5.31191 h 1.02517 v -1.98467 z m -0.77708,-0.83181 v -1.66362 h 0.75519 q 0.2116,0 0.37578,0.0511 0.16417,0.0511 0.27727,0.14593 0.12769,0.1058 0.18971,0.26997 0.0657,0.16053 0.0657,0.37213 0,0.17512 -0.0511,0.3174 -0.0474,0.14228 -0.14228,0.24443 -0.1131,0.12769 -0.29551,0.19701 -0.17877,0.0657 -0.41591,0.0657 z"
           id="path7566" />
        <path
           d="m 401.6285,128.68926 q 0,0.14228 -0.0584,0.26268 -0.0584,0.11674 -0.16782,0.20065 -0.10945,0.0839 -0.26997,0.13134 -0.15688,0.0474 -0.36118,0.0474 -0.22984,0 -0.4232,-0.0511 -0.18971,-0.0511 -0.3247,-0.16052 -0.13863,-0.10945 -0.21525,-0.28092 -0.0766,-0.17147 -0.0839,-0.41226 h -1.00693 q 0,0.41226 0.15688,0.71871 0.16053,0.30646 0.43415,0.53265 0.28821,0.22985 0.67493,0.35024 0.39037,0.11674 0.78803,0.11674 0.40496,0 0.7479,-0.0949 0.34294,-0.0985 0.59102,-0.28822 0.24808,-0.18606 0.38672,-0.45603 0.14228,-0.27362 0.14228,-0.62386 0,-0.40496 -0.18606,-0.71506 -0.18606,-0.31011 -0.49982,-0.5436 -0.20795,-0.14228 -0.45603,-0.25173 -0.24809,-0.10945 -0.52171,-0.18606 -0.25538,-0.0693 -0.45968,-0.14958 -0.20066,-0.0803 -0.34294,-0.17877 -0.14228,-0.0949 -0.2189,-0.21525 -0.073,-0.12039 -0.073,-0.26997 0,-0.14228 0.0547,-0.26268 0.0584,-0.12404 0.16782,-0.21524 0.10945,-0.0876 0.26633,-0.13499 0.16052,-0.0511 0.36483,-0.0511 0.22254,0 0.38671,0.062 0.16783,0.0584 0.28092,0.16418 0.10945,0.10945 0.16418,0.25903 0.0584,0.14957 0.0657,0.32834 h 0.99964 q 0,-0.35753 -0.13864,-0.65669 -0.13863,-0.29916 -0.38672,-0.51806 -0.24808,-0.21525 -0.59467,-0.33564 -0.34294,-0.12039 -0.75884,-0.12039 -0.40131,0 -0.74425,0.1058 -0.34294,0.10215 -0.59467,0.29551 -0.25173,0.19336 -0.39402,0.46698 -0.14228,0.27362 -0.14228,0.60926 0,0.29187 0.1058,0.53995 0.10945,0.24808 0.32105,0.45239 0.2116,0.2043 0.54359,0.37577 0.33565,0.17147 0.77709,0.29186 0.28456,0.0766 0.47428,0.16782 0.19335,0.0876 0.31375,0.19336 0.11674,0.10945 0.16417,0.23349 0.0511,0.12405 0.0511,0.26633 z"
           id="path7568" />
        <path
           d="m 407.2578,125.59916 v -0.83546 h -4.28309 v 0.83546 h 1.6162 v 4.47645 h 1.02881 v -4.47645 z"
           id="path7570" />
      </g>
      <g
         aria-label="HST RST"
         transform="scale(1.0156232,0.98461712)"
         id="text1055-4-7-8"
         style="font-weight:bold;font-size:7.47169px;font-family:'Roboto Mono';-inkscape-font-specification:'Roboto Mono Bold';text-align:end;text-anchor:end;stroke-width:0.392215">
        <path
           d="m 379.54691,142.09183 v -5.31191 h -1.01422 v 2.17803 h -1.5031 v -2.17803 h -1.01787 v 5.31191 h 1.01787 v -2.30207 h 1.5031 v 2.30207 z"
           id="path7573" />
        <path
           d="m 383.28276,140.70548 q 0,0.14228 -0.0584,0.26268 -0.0584,0.11674 -0.16782,0.20065 -0.10945,0.0839 -0.26997,0.13134 -0.15688,0.0474 -0.36118,0.0474 -0.22984,0 -0.4232,-0.0511 -0.18971,-0.0511 -0.3247,-0.16052 -0.13864,-0.10945 -0.21525,-0.28092 -0.0766,-0.17147 -0.0839,-0.41226 h -1.00693 q 0,0.41226 0.15688,0.71871 0.16052,0.30646 0.43415,0.53265 0.28821,0.22985 0.67493,0.35024 0.39036,0.11674 0.78803,0.11674 0.40496,0 0.7479,-0.0948 0.34294,-0.0985 0.59102,-0.28822 0.24808,-0.18606 0.38672,-0.45603 0.14228,-0.27362 0.14228,-0.62386 0,-0.40496 -0.18606,-0.71506 -0.18606,-0.31011 -0.49982,-0.5436 -0.20795,-0.14228 -0.45603,-0.25173 -0.24809,-0.10945 -0.52171,-0.18606 -0.25538,-0.0693 -0.45968,-0.14958 -0.20066,-0.0803 -0.34294,-0.17877 -0.14228,-0.0949 -0.2189,-0.21525 -0.073,-0.12039 -0.073,-0.26997 0,-0.14228 0.0547,-0.26268 0.0584,-0.12404 0.16782,-0.21524 0.10945,-0.0876 0.26633,-0.13499 0.16052,-0.0511 0.36483,-0.0511 0.22254,0 0.38671,0.062 0.16782,0.0584 0.28092,0.16418 0.10945,0.10945 0.16417,0.25903 0.0584,0.14957 0.0657,0.32834 h 0.99963 q 0,-0.35753 -0.13863,-0.65669 -0.13864,-0.29916 -0.38672,-0.51806 -0.24808,-0.21525 -0.59467,-0.33564 -0.34294,-0.12039 -0.75884,-0.12039 -0.40131,0 -0.74425,0.1058 -0.34294,0.10215 -0.59467,0.29551 -0.25174,0.19336 -0.39402,0.46698 -0.14228,0.27362 -0.14228,0.60926 0,0.29187 0.1058,0.53995 0.10945,0.24808 0.32105,0.45239 0.2116,0.2043 0.54359,0.37577 0.33564,0.17147 0.77709,0.29186 0.28456,0.0766 0.47427,0.16782 0.19336,0.0876 0.31376,0.19336 0.11674,0.10945 0.16417,0.23349 0.0511,0.12405 0.0511,0.26633 z"
           id="path7575" />
        <path
           d="m 388.91206,137.61538 v -0.83546 h -4.28309 v 0.83546 h 1.61619 v 4.47645 h 1.02882 v -4.47645 z"
           id="path7577" />
        <path
           d="m 395.77814,140.10716 0.99963,1.98467 h 1.09813 v -0.0474 l -1.14191,-2.19262 q 0.21889,-0.0985 0.39401,-0.23349 0.17877,-0.13499 0.30646,-0.3174 0.12404,-0.17877 0.18971,-0.40496 0.0693,-0.22984 0.0693,-0.51441 0,-0.39401 -0.13864,-0.69317 -0.13499,-0.29916 -0.38672,-0.49982 -0.25538,-0.20066 -0.61291,-0.30281 -0.35753,-0.1058 -0.79897,-0.1058 h -1.78037 v 5.31191 h 1.02517 v -1.98467 z m -0.77709,-0.83181 v -1.66362 h 0.7552 q 0.2116,0 0.37577,0.0511 0.16417,0.0511 0.27727,0.14593 0.12769,0.1058 0.18971,0.26997 0.0657,0.16053 0.0657,0.37213 0,0.17512 -0.0511,0.3174 -0.0474,0.14228 -0.14228,0.24443 -0.1131,0.12769 -0.29551,0.19701 -0.17877,0.0657 -0.41591,0.0657 z"
           id="path7579" />
        <path
           d="m 401.21773,140.70548 q 0,0.14228 -0.0584,0.26268 -0.0584,0.11674 -0.16782,0.20065 -0.10945,0.0839 -0.26998,0.13134 -0.15687,0.0474 -0.36118,0.0474 -0.22984,0 -0.4232,-0.0511 -0.18971,-0.0511 -0.3247,-0.16052 -0.13863,-0.10945 -0.21524,-0.28092 -0.0766,-0.17147 -0.0839,-0.41226 h -1.00692 q 0,0.41226 0.15687,0.71871 0.16053,0.30646 0.43415,0.53265 0.28821,0.22985 0.67493,0.35024 0.39037,0.11674 0.78803,0.11674 0.40496,0 0.7479,-0.0948 0.34294,-0.0985 0.59102,-0.28822 0.24809,-0.18606 0.38672,-0.45603 0.14229,-0.27362 0.14229,-0.62386 0,-0.40496 -0.18607,-0.71506 -0.18606,-0.31011 -0.49981,-0.5436 -0.20795,-0.14228 -0.45604,-0.25173 -0.24808,-0.10945 -0.5217,-0.18606 -0.25538,-0.0693 -0.45969,-0.14958 -0.20065,-0.0803 -0.34294,-0.17877 -0.14228,-0.0949 -0.21889,-0.21525 -0.073,-0.12039 -0.073,-0.26997 0,-0.14228 0.0547,-0.26268 0.0584,-0.12404 0.16782,-0.21524 0.10945,-0.0876 0.26632,-0.13499 0.16053,-0.0511 0.36483,-0.0511 0.22255,0 0.38672,0.062 0.16782,0.0584 0.28092,0.16418 0.10944,0.10945 0.16417,0.25903 0.0584,0.14957 0.0657,0.32834 h 0.99963 q 0,-0.35753 -0.13864,-0.65669 -0.13863,-0.29916 -0.38671,-0.51806 -0.24809,-0.21525 -0.59468,-0.33564 -0.34293,-0.12039 -0.75884,-0.12039 -0.40131,0 -0.74425,0.1058 -0.34294,0.10215 -0.59467,0.29551 -0.25173,0.19336 -0.39401,0.46698 -0.14229,0.27362 -0.14229,0.60926 0,0.29187 0.1058,0.53995 0.10945,0.24808 0.32105,0.45239 0.2116,0.2043 0.5436,0.37577 0.33564,0.17147 0.77708,0.29186 0.28457,0.0766 0.47428,0.16782 0.19336,0.0876 0.31375,0.19336 0.11675,0.10945 0.16417,0.23349 0.0511,0.12405 0.0511,0.26633 z"
           id="path7581" />
        <path
           d="m 406.84704,137.61538 v -0.83546 h -4.28309 v 0.83546 h 1.61619 v 4.47645 h 1.02882 v -4.47645 z"
           id="path7583" />
      </g>
      <path
         id="path2798-5-6"
         style="fill:#adadad;stroke:#000000;stroke-width:0.392214"
         d="m 352.57354,125.37216 a 4.3805752,4.2468395 0 0 1 -4.38058,4.24684 4.3805752,4.2468395 0 0 1 -4.38057,-4.24684 4.3805752,4.2468395 0 0 1 4.38057,-4.24684 4.3805752,4.2468395 0 0 1 4.38058,4.24684 z" />
      <path
         id="path2798-70-0"
         style="fill:#adadad;stroke:#000000;stroke-width:0.392214"
         d="m 352.57354,137.41933 a 4.3805752,4.2468395 0 0 1 -4.38058,4.24684 4.3805752,4.2468395 0 0 1 -4.38057,-4.24684 4.3805752,4.2468395 0 0 1 4.38057,-4.24684 4.3805752,4.2468395 0 0 1 4.38058,4.24684 z" />
      <path
         id="path2798-095"
         style="fill:#adadad;stroke:#000000;stroke-width:0.392214"
         d="m 352.57354,53.089218 a 4.3805752,4.2468395 0 0 1 -4.38058,4.24684 4.3805752,4.2468395 0 0 1 -4.38057,-4.24684 4.3805752,4.2468395 0 0 1 4.38057,-4.246839 4.3805752,4.2468395 0 0 1 4.38058,4.246839 z" />
      <path
         id="path2798-7-6"
         style="fill:#adadad;stroke:#000000;stroke-width:0.392214"
         d="m 352.57354,65.136375 a 4.3805752,4.2468395 0 0 1 -4.38058,4.24684 4.3805752,4.2468395 0 0 1 -4.38057,-4.24684 4.3805752,4.2468395 0 0 1 4.38057,-4.246839 4.3805752,4.2468395 0 0 1 4.38058,4.246839 z" />
      <path
         id="path2798-4-2"
         style="fill:#adadad;stroke:#000000;stroke-width:0.392214"
         d="m 352.57354,77.183533 a 4.3805752,4.2468395 0 0 1 -4.38058,4.246839 4.3805752,4.2468395 0 0 1 -4.38057,-4.246839 4.3805752,4.2468395 0 0 1 4.38057,-4.24684 4.3805752,4.2468395 0 0 1 4.38058,4.24684 z" />
      <path
         id="path2798-8-8"
         style="fill:#ff0000;stroke:#000000;stroke-width:0.392214"
         d="m 352.57354,89.23069 a 4.3805752,4.2468395 0 0 1 -4.38058,4.24684 4.3805752,4.2468395 0 0 1 -4.38057,-4.24684 4.3805752,4.2468395 0 0 1 4.38057,-4.24684 4.3805752,4.2468395 0 0 1 4.38058,4.24684 z" />
      <path
         id="path2798-0-5"
         style="fill:#adadad;stroke:#000000;stroke-width:0.392214"
         d="m 352.57354,101.27784 a 4.3805752,4.2468395 0 0 1 -4.38058,4.24684 4.3805752,4.2468395 0 0 1 -4.38057,-4.24684 4.3805752,4.2468395 0 0 1 4.38057,-4.24684 4.3805752,4.2468395 0 0 1 4.38058,4.24684 z" />
      <path
         id="path2798-40-9"
         style="fill:#adadad;stroke:#000000;stroke-width:0.392214"
         d="m 352.57354,113.32501 a 4.3805752,4.2468395 0 0 1 -4.38058,4.24684 4.3805752,4.2468395 0 0 1 -4.38057,-4.24684 4.3805752,4.2468395 0 0 1 4.38057,-4.24684 4.3805752,4.2468395 0 0 1 4.38058,4.24684 z" />
      <path
         id="path2798-5-0-4"
         style="fill:#adadad;stroke:#000000;stroke-width:0.392214"
         d="m 424.0844,125.27104 a 4.3805752,4.2468395 0 0 1 -4.38057,4.24684 4.3805752,4.2468395 0 0 1 -4.38058,-4.24684 4.3805752,4.2468395 0 0 1 4.38058,-4.24684 4.3805752,4.2468395 0 0 1 4.38057,4.24684 z" />
      <path
         id="path2798-70-4-3"
         style="fill:#adadad;stroke:#000000;stroke-width:0.392214"
         d="m 424.0844,137.31821 a 4.3805752,4.2468395 0 0 1 -4.38057,4.24684 4.3805752,4.2468395 0 0 1 -4.38058,-4.24684 4.3805752,4.2468395 0 0 1 4.38058,-4.24684 4.3805752,4.2468395 0 0 1 4.38057,4.24684 z" />
      <path
         id="path2798-09-9"
         style="fill:#adadad;stroke:#000000;stroke-width:0.392214"
         d="m 424.0844,52.988098 a 4.3805752,4.2468395 0 0 1 -4.38057,4.24684 4.3805752,4.2468395 0 0 1 -4.38058,-4.24684 4.3805752,4.2468395 0 0 1 4.38058,-4.246839 4.3805752,4.2468395 0 0 1 4.38057,4.246839 z" />
      <path
         id="path2798-7-2-0"
         style="fill:#adadad;stroke:#000000;stroke-width:0.392214"
         d="m 424.0844,65.035255 a 4.3805752,4.2468395 0 0 1 -4.38057,4.24684 4.3805752,4.2468395 0 0 1 -4.38058,-4.24684 4.3805752,4.2468395 0 0 1 4.38058,-4.246839 4.3805752,4.2468395 0 0 1 4.38057,4.246839 z" />
      <path
         id="path2798-4-4-5"
         style="fill:#adadad;stroke:#000000;stroke-width:0.392214"
         d="m 424.0844,77.08242 a 4.3805752,4.2468395 0 0 1 -4.38057,4.24684 4.3805752,4.2468395 0 0 1 -4.38058,-4.24684 4.3805752,4.2468395 0 0 1 4.38058,-4.246839 4.3805752,4.2468395 0 0 1 4.38057,4.246839 z" />
      <path
         id="path2798-8-9-6"
         style="fill:#adadad;stroke:#000000;stroke-width:0.392214"
         d="m 424.0844,89.12957 a 4.3805752,4.2468395 0 0 1 -4.38057,4.24684 4.3805752,4.2468395 0 0 1 -4.38058,-4.24684 4.3805752,4.2468395 0 0 1 4.38058,-4.24684 4.3805752,4.2468395 0 0 1 4.38057,4.24684 z" />
      <path
         id="path2798-0-2-3"
         style="fill:#adadad;stroke:#000000;stroke-width:0.392214"
         d="m 424.0844,101.17672 a 4.3805752,4.2468395 0 0 1 -4.38057,4.24684 4.3805752,4.2468395 0 0 1 -4.38058,-4.24684 4.3805752,4.2468395 0 0 1 4.38058,-4.24684 4.3805752,4.2468395 0 0 1 4.38057,4.24684 z" />
      <path
         id="ellipse2146-6"
         style="fill:#adadad;stroke:#000000;stroke-width:0.392214"
         d="m 424.16372,112.96512 a 4.3805752,4.2468395 0 0 1 -4.38058,4.24684 4.3805752,4.2468395 0 0 1 -4.38057,-4.24684 4.3805752,4.2468395 0 0 1 4.38057,-4.24684 4.3805752,4.2468395 0 0 1 4.38058,4.24684 z" />
    </g>
  </g>
</svg>
