<svg height="146.08" viewBox="0 0 206.975 78.962" width="510.539" xmlns="http://www.w3.org/2000/svg" xmlns:xlink="http://www.w3.org/1999/xlink"><clipPath id="c"><path d="M13 6h193.977v51H13zm0 0"/></clipPath><clipPath id="d"><path d="M13 62h193.977v2H13zm0 0"/></clipPath><clipPath id="e"><path d="M204 61h2.977v4H204zm0 0"/></clipPath><symbol id="a" overflow="visible"><path d="M5.016-3.484c0-.875-.047-1.75-.438-2.563-.5-1.047-1.39-1.219-1.86-1.219-.64 0-1.437.282-1.89 1.297-.344.75-.406 1.61-.406 2.485 0 .812.047 1.796.5 2.625A2.004 2.004 0 002.719.234c.578 0 1.422-.218 1.89-1.265.36-.75.407-1.594.407-2.453zM2.719 0C2.297 0 1.64-.266 1.453-1.313c-.125-.656-.125-1.671-.125-2.312 0-.688 0-1.406.094-2 .203-1.297 1.016-1.406 1.297-1.406.36 0 1.078.203 1.281 1.281.11.61.11 1.438.11 2.125 0 .828 0 1.563-.126 2.266C3.828-.33 3.204 0 2.72 0zm0 0"/></symbol><symbol id="b" overflow="visible"><path d="M3.203-6.984c0-.25 0-.282-.25-.282-.672.704-1.64.704-1.984.704v.328c.219 0 .86 0 1.437-.282v5.657c0 .39-.047.515-1.015.515h-.36V0c.39-.031 1.328-.031 1.766-.031s1.39 0 1.765.031v-.344H4.22c-.985 0-1.016-.11-1.016-.515zm0 0"/></symbol><symbol id="f" overflow="visible"><path d="M.172-7.313v1.672h.61l.14-1.015.156-.157h1.688v6.157L2.562-.5l-.734.047V0h2.844v-.453L3.953-.5 3.75-.656v-6.157h1.688l.14.157.156 1.015h.61v-1.671zm0 0"/></symbol><symbol id="g" overflow="visible"><path d="M1.672-7.719c-.344 0-.625.266-.625.625s.281.625.625.625a.62.62 0 00.64-.625.63.63 0 00-.64-.625zM1.64-5.297l-1.266.39v.345h.766v3.937l-.188.172-.578.062V0h2.453v-.39L2.25-.454l-.203-.172v-4.672zm0 0"/></symbol><symbol id="h" overflow="visible"><path d="M4.953-4.625a1.288 1.288 0 00-1.203-.734c-.453 0-1.031.234-1.75.656v-.594h-.406l-1.266.39v.345h.766v3.937l-.172.172-.594.062V0h2.39v-.39l-.53-.063L2-.625v-3.656c.484-.235.89-.36 1.25-.36.656 0 .953.36.953 1.125v2.891l-.172.172-.531.062V0h2.328v-.39l-.516-.063-.203-.172v-3.656c.47-.219.891-.36 1.235-.36.687 0 .984.36.984 1.125v2.891l-.203.172-.5.062V0H9v-.39l-.578-.063-.188-.172v-3.078c0-1.078-.546-1.656-1.406-1.656-.437 0-1.062.25-1.875.734zm0 0"/></symbol><symbol id="i" overflow="visible"><path d="M4.89-1.156c-.624.422-1.171.625-1.718.625-1.094 0-1.828-.828-1.828-2.219v-.125h3.531c.016-.11.016-.219.016-.328 0-1.344-.782-2.156-1.97-2.156C1.47-5.36.407-4.234.407-2.58c0 1.595.985 2.673 2.422 2.673.688 0 1.406-.219 2.063-.656zm-.968-2.172H1.39c.078-.922.687-1.531 1.39-1.531.735 0 1.14.468 1.14 1.359zm0 0"/></symbol><use x="3.985" xlink:href="#a" y="59.204"/><use x="3.985" xlink:href="#b" y="11.015"/><g clip-path="url(#c)"><path d="M13.621 55.688h77.106V7.5h4.816v48.188h9.64V7.5h9.637v48.188h4.82V7.5h4.817v48.188h4.82V7.5h77.102" fill="none" stroke="#1f77b4" stroke-miterlimit="10" stroke-width="1.196"/></g><g clip-path="url(#d)"><path d="M13.621 62.918h192.3" fill="none" stroke="#000" stroke-miterlimit="10" stroke-width=".399"/></g><g clip-path="url(#e)"><path d="M204.727 61.324c.101.598 1.195 1.492 1.496 1.594-.301.098-1.395.996-1.496 1.594" fill="none" stroke-width=".319" stroke-linecap="round" stroke-linejoin="round" stroke="#000" stroke-miterlimit="10"/></g><use x="174.098" xlink:href="#f" y="74.885"/><use x="180.403" xlink:href="#g" y="74.885"/><use x="183.458" xlink:href="#h" y="74.885"/><use x="192.654" xlink:href="#i" y="74.885"/></svg>