<svg height="512.293" viewBox="0 0 447.029 384.22" width="596.039" xmlns="http://www.w3.org/2000/svg" xmlns:xlink="http://www.w3.org/1999/xlink"><symbol id="a" overflow="visible"><path d="M.86-.281C1.515 0 2.405.172 3.437.172c2.296 0 3.718-1.188 3.718-2.89 0-.626-.218-1.157-.625-1.563-.672-.657-1.437-.875-2.172-1.188-1.312-.562-2-.922-2-1.875 0-1.047.72-1.734 1.938-1.734.516 0 .937.094 1.297.297l.218.25.22 1.36h.734v-2.22a7.591 7.591 0 00-2.438-.406c-2.031 0-3.312 1.14-3.312 2.75 0 1.39.828 1.922 2.421 2.61C5-3.766 5.845-3.5 5.845-2.313c0 1-.782 1.718-2.172 1.718-.64 0-1.188-.11-1.61-.328l-.187-.234-.172-1.657H.86zm0 0"/></symbol><symbol id="b" overflow="visible"><path d="M1.266-6.031v4.625c0 1.015.296 1.453 1.484 1.453.563 0 1.203-.11 1.89-.313v-.53a5.62 5.62 0 01-1 .109c-1 0-1.187-.47-1.187-1.563v-3.781h2.188v-.688H2.453v-1.515h-.531l-.61 1.328-.953.422v.453zm0 0"/></symbol><symbol id="c" overflow="visible"><path d="M2.031-7.047l-1.656.531v.454h1.016v4.015c0 1.438.687 2.188 1.921 2.188.704 0 1.47-.329 2.329-.938V0h2.125v-.516l-.688-.078-.25-.219v-6.234h-.547l-1.656.531v.454h1.016v4.859c-.594.281-1.141.422-1.672.422-.953 0-1.39-.485-1.39-1.516v-4.75zm0 0"/></symbol><symbol id="d" overflow="visible"><path d="M5.5-9.594v2.688a6.364 6.364 0 00-1.281-.157C2.03-7.063.516-5.516.516-3.233.516-1.22 1.719.125 3.28.125c.797 0 1.485-.281 2.219-.875V0h2.11v-.516l-.688-.078-.234-.219v-9.75H6.14l-1.75.516v.453zm0 8.313c-.531.328-1.047.5-1.563.5-1.296 0-2.156-1.016-2.156-2.688 0-1.797 1-2.953 2.453-2.953.344 0 .766.078 1.266.219zm0 0"/></symbol><symbol id="e" overflow="visible"><path d="M6.422-1.516c-.813.547-1.531.829-2.25.829-1.453 0-2.406-1.094-2.406-2.922v-.157h4.64c.016-.171.016-.312.016-.453 0-1.765-1.016-2.828-2.578-2.828C1.922-7.047.53-5.563.53-3.407.53-1.297 1.843.125 3.733.125c.907 0 1.829-.281 2.688-.86zM5.156-4.375H1.844c.078-1.219.89-2.016 1.812-2.016.969 0 1.5.625 1.5 1.782zm0 0"/></symbol><symbol id="f" overflow="visible"><path d="M.438 0h3.14v-.516l-.687-.078-.25-.219v-4.812c.609-.313 1.14-.469 1.609-.469 1.063 0 1.438.422 1.438 1.469v3.813l-.235.218-.687.078V0h3.14v-.516l-.781-.078-.234-.219v-4.046c0-1.438-.688-2.188-1.938-2.188-.625 0-1.36.328-2.312.86v-.782h-.547l-1.656.516v.437h1.015v5.204l-.25.218-.766.078zm0 0"/></symbol><symbol id="g" overflow="visible"><path d="M4.938-6.734c-.485-.204-1.047-.313-1.688-.313-1.625 0-2.531.75-2.531 2.016 0 .953.625 1.422 1.844 1.968.953.422 1.468.688 1.468 1.422 0 .672-.515 1.172-1.343 1.172-.422 0-.829-.125-1.22-.344l-.17-1.217H.609v1.86c.5.187 1.125.296 1.86.296 1.687 0 2.687-.813 2.687-2.14 0-.532-.203-.97-.547-1.235-.484-.39-1.03-.594-1.53-.844-.798-.375-1.22-.687-1.22-1.297 0-.64.438-1.03 1.204-1.03.343 0 .687.093 1.046.296l.125 1.016h.704zm0 0"/></symbol><symbol id="A" overflow="visible"><path d="M.469 0h3.625v-.594L3.062-.656 2.829-.86v-2.829c.438.047.797.079 1.078.079 2.297 0 3.703-1.25 3.703-3.094 0-2.172-1.218-2.922-3.984-2.922H.359v.578l.938.078.234.203V-.86l-.234.203-.828.062zm2.36-4.375v-4.563c.25-.03.515-.03.75-.03 1.827 0 2.702.702 2.702 2.234 0 1.578-.875 2.437-2.515 2.437-.204 0-.532-.031-.938-.078zm0 0"/></symbol><symbol id="B" overflow="visible"><path d="M.438 0H3.89v-.516l-1-.078-.25-.219v-4.109c.593-.687 1.093-1.047 1.562-1.047.297 0 .547.11.734.344h.454v-1.234a2.19 2.19 0 00-.86-.188c-.11 0-.25 0-.36.031-.515.422-1.03.875-1.53 1.391v-1.344h-.547l-1.656.516v.437h1.015v5.204l-.266.218-.75.078zm0 0"/></symbol><symbol id="C" overflow="visible"><path d="M3.86-7.047C1.921-7.047.53-5.594.53-3.453.531-1.328 1.937.125 3.86.125s3.344-1.453 3.344-3.578S5.797-7.047 3.86-7.047zm0 .625c1.156 0 2 1.11 2 2.969s-.844 2.969-2 2.969c-1.141 0-1.985-1.125-1.985-2.97 0-1.874.828-2.968 1.984-2.968zm0 0"/></symbol><symbol id="D" overflow="visible"><path d="M5.297-6.64c-.547-.266-1.078-.407-1.625-.407-1.688 0-2.781.984-2.781 2.375 0 1.078.671 1.922 1.78 2.156-.468.547-.687 1-.687 1.375 0 .22.047.438.141.641C1.141-.328.578.36.578 1.281c0 1.14.938 1.844 2.594 1.844 1.094 0 2.078-.328 2.844-.938.546-.468.859-1.078.859-1.609 0-1.062-.75-1.515-2.438-1.765l-1.375-.22c-.015-.155-.03-.265-.03-.343 0-.234.046-.438.155-.64h.235c1.672 0 2.75-.97 2.75-2.25 0-.5-.14-.907-.406-1.329h1.578v-.672zm-1.766.156c.828 0 1.406.671 1.406 1.765 0 1.078-.578 1.766-1.406 1.766S2.125-3.641 2.125-4.72c0-1.11.578-1.765 1.406-1.765zM2.953-.438l1.39.266c1 .188 1.47.344 1.47 1.125 0 .797-.86 1.516-2.141 1.516-1.172 0-1.953-.656-1.953-1.5 0-.625.453-1.156 1.234-1.406zm0 0"/></symbol><symbol id="E" overflow="visible"><path d="M4.797-.828L4.984 0H7v-.516l-.766-.078-.25-.219v-4.171c0-1.438-.64-2.063-2.14-2.063-1.813 0-2.89.75-2.89 1.625 0 .344.109.438.437.438h.984v-1.204c.39-.156.734-.218 1.094-.218 1.031 0 1.328.468 1.328 1.593v.47C1.922-3.657.609-3.235.609-1.735.61-.656 1.313.094 2.438.094c.687 0 1.453-.313 2.359-.922zm0-.485c-.719.407-1.313.641-1.781.641-.72 0-1.157-.469-1.157-1.172 0-1.047.907-1.437 2.938-2zm0 0"/></symbol><symbol id="F" overflow="visible"><path d="M6.516-6.078c-.329-.64-.875-.969-1.579-.969-.609 0-1.359.313-2.296.86v-.782h-.547l-1.656.516v.437h1.015v5.204l-.25.218-.766.078V0h3.141v-.516l-.687-.078-.25-.219v-4.812c.625-.313 1.156-.469 1.64-.469.86 0 1.25.469 1.25 1.469v3.813l-.234.218-.688.078V0h3.047v-.516l-.672-.078-.25-.219v-4.812c.61-.297 1.157-.469 1.61-.469.89 0 1.297.469 1.297 1.469v3.813l-.266.218-.672.078V0h3.125v-.516l-.75-.078-.25-.219v-4.046c0-1.422-.719-2.188-1.844-2.188-.578 0-1.39.328-2.468.969zm0 0"/></symbol><symbol id="H" overflow="visible"><path d="M.422 0h3.344v-.516l-.891-.078-.25-.219V-6.03h2.016v-.688h-2v-1.047c0-1.203.312-1.937.937-2.234l1.297.86c.375-.094.594-.376.594-.72 0-.453-.469-.812-1.125-.812-1.688 0-2.907 1.422-2.907 3.797v.156L.516-6.5v.469h.921v5.218l-.265.22-.75.077zm0 0"/></symbol><symbol id="I" overflow="visible"><path d="M2.203-10.156c-.453 0-.828.36-.828.828s.375.828.828.828c.469 0 .844-.36.844-.828a.837.837 0 00-.844-.828zM2.156-6.97L.5-6.453v.437h1v5.204l-.234.218L.5-.516V0h3.234v-.516l-.78-.078-.25-.219v-6.156zm0 0"/></symbol><symbol id="J" overflow="visible"><path d="M.406 0h3.36v-.516l-.829-.078-.25-.219v-9.75h-.546l-1.75.516v.453h1.093v8.781l-.234.22-.844.077zm0 0"/></symbol><symbol id="K" overflow="visible"><path d="M-.016-6.906v.531l.875.094L3.266-.063C2.906.97 2.5 1.673 2.109 2.095L.734 1.547c-.25.234-.375.484-.375.781 0 .469.391.797.985.797.937 0 1.625-.781 2.297-2.406L6.516-6.25l.828-.125v-.531H4.797v.531l.766.063.125.234L3.89-1.625 2.17-6.078l.173-.234.75-.063v-.531zm0 0"/></symbol><symbol id="L" overflow="visible"><path d="M.328 3.125h3.375v-.516l-.922-.078-.25-.219V-.094c.531.094.985.14 1.344.14C6 .047 7.406-1.421 7.406-3.686c0-2-1.187-3.36-2.765-3.36-.672 0-1.344.297-2.11.86v-.782H2l-1.672.516v.437h1.016v8.329l-.235.218-.78.078zM2.531-.828v-4.828c.547-.313 1.031-.485 1.516-.485 1.25 0 2.094.985 2.094 2.641 0 1.766-.985 2.89-2.375 2.89-.36 0-.75-.062-1.235-.218zm0 0"/></symbol><symbol id="h" overflow="visible"><path d="M4.953-4.625a1.288 1.288 0 00-1.203-.734c-.453 0-1.031.234-1.75.656v-.594h-.406l-1.266.39v.345h.766v3.937l-.172.172-.594.062V0h2.39v-.39l-.53-.063L2-.625v-3.656c.484-.235.89-.36 1.25-.36.656 0 .953.36.953 1.125v2.891l-.172.172-.531.062V0h2.328v-.39l-.516-.063-.203-.172v-3.656c.47-.219.891-.36 1.235-.36.687 0 .984.36.984 1.125v2.891l-.203.172-.5.062V0H9v-.39l-.578-.063-.188-.172v-3.078c0-1.078-.546-1.656-1.406-1.656-.437 0-1.062.25-1.875.734zm0 0"/></symbol><symbol id="i" overflow="visible"><path d="M4.89-1.156c-.624.422-1.171.625-1.718.625-1.094 0-1.828-.828-1.828-2.219v-.125h3.531c.016-.11.016-.219.016-.328 0-1.344-.782-2.156-1.97-2.156C1.47-5.36.407-4.234.407-2.58c0 1.595.985 2.673 2.422 2.673.688 0 1.406-.219 2.063-.656zm-.968-2.172H1.39c.078-.922.687-1.531 1.39-1.531.735 0 1.14.468 1.14 1.359zm0 0"/></symbol><symbol id="j" overflow="visible"><path d="M3.64-.625L3.782 0h1.547v-.39L4.75-.454l-.203-.172v-3.156c0-1.11-.484-1.578-1.625-1.578-1.375 0-2.203.578-2.203 1.234 0 .266.094.344.344.344h.75v-.922a2.02 2.02 0 01.828-.172c.78 0 1 .36 1 1.219v.36C1.469-2.782.453-2.454.453-1.314.453-.5 1 .079 1.86.079c.516 0 1.094-.234 1.782-.703zm0-.375c-.546.313-.984.484-1.343.484-.547 0-.875-.359-.875-.89 0-.797.687-1.094 2.219-1.516zm0 0"/></symbol><symbol id="k" overflow="visible"><path d="M.328 0h2.39v-.39l-.53-.063L2-.625v-3.656c.469-.235.875-.36 1.234-.36.797 0 1.094.329 1.094 1.125v2.891l-.187.172-.516.062V0h2.39v-.39l-.593-.063-.188-.172v-3.078c0-1.078-.515-1.656-1.468-1.656-.47 0-1.032.25-1.766.656v-.594h-.406l-1.266.39v.345h.766v3.937l-.172.172-.594.062zm0 0"/></symbol><symbol id="l" overflow="visible"><path d="M1.734-5.25c-.375 0-.687.297-.687.688s.312.703.687.703.704-.313.704-.704-.329-.687-.704-.687zm0 3.969c-.375 0-.687.297-.687.687s.312.688.687.688.704-.297.704-.688-.329-.687-.704-.687zm0 0"/></symbol><symbol id="o" overflow="visible"><path d="M-.016-5.25v.406l.657.063L2.094 0h.672L4.25-4.14 5.563 0h.671l1.563-4.75.61-.094v-.406H6.483v.406l.579.047.093.172-1.11 3.547L4.75-5.25h-.656L2.625-1.078l-.984-3.547.125-.172.578-.047v-.406zm0 0"/></symbol><symbol id="p" overflow="visible"><path d="M.25 2.375h2.563v-.39l-.704-.048-.171-.187V-.063c.39.063.734.094 1 .094 1.624 0 2.687-1.11 2.687-2.828 0-1.531-.89-2.562-2.094-2.562-.515 0-1.015.218-1.594.656v-.594h-.421l-1.266.39v.345h.781V1.75l-.187.188-.594.046zm1.688-3v-3.672c.406-.234.765-.375 1.14-.375.953 0 1.594.75 1.594 2.016 0 1.344-.75 2.203-1.813 2.203-.265 0-.562-.063-.921-.172zm0 0"/></symbol><symbol id="m" overflow="visible"><path d="M3.156-3.844c.906-.297 1.531-1.047 1.531-1.922 0-.89-.953-1.5-2-1.5C1.579-7.266.75-6.609.75-5.78c0 .36.25.562.563.562a.525.525 0 00.546-.547c0-.546-.5-.546-.671-.546.343-.532 1.062-.672 1.453-.672.453 0 1.046.234 1.046 1.218 0 .125-.015.766-.312 1.235-.328.531-.688.562-.969.578-.078 0-.344.031-.422.031-.093 0-.156.016-.156.125 0 .125.063.125.25.125h.485c.89 0 1.296.735 1.296 1.813 0 1.484-.75 1.796-1.234 1.796-.469 0-1.281-.187-1.672-.828.39.047.719-.187.719-.609 0-.39-.281-.61-.61-.61-.25 0-.609.157-.609.641C.453-.484 1.47.234 2.656.234c1.328 0 2.328-.984 2.328-2.093 0-.907-.687-1.75-1.828-1.985zm0 0"/></symbol><symbol id="n" overflow="visible"><path d="M3.203-1.797v.953c0 .39-.015.5-.828.5h-.219V0c.438-.031 1-.031 1.469-.031.453 0 1.031 0 1.484.031v-.344h-.234c-.813 0-.828-.11-.828-.5v-.953H5.14v-.344H4.047v-4.953c0-.218 0-.297-.172-.297-.094 0-.14 0-.219.141L.312-2.14v.343zm.063-.344H.609l2.657-4.062zm0 0"/></symbol><symbol id="G" overflow="visible"><path d="M4.89-2.188c0-1.296-.89-2.39-2.062-2.39-.531 0-1 .172-1.39.547v-2.125c.218.078.578.14.921.14 1.344 0 2.11-.984 2.11-1.125 0-.062-.032-.125-.11-.125 0 0-.03 0-.078.032-.218.109-.765.312-1.484.312a3.44 3.44 0 01-1.453-.297c-.094-.031-.11-.031-.14-.031-.11 0-.11.078-.11.266v3.218c0 .204 0 .282.156.282.078 0 .11-.032.14-.094.126-.172.532-.766 1.407-.766.578 0 .844.5.937.703.172.407.188.829.188 1.375 0 .375 0 1.032-.25 1.485C3.406-.344 3-.062 2.5-.062c-.797 0-1.422-.579-1.61-1.22.032 0 .063.016.188.016.36 0 .547-.265.547-.53s-.188-.532-.547-.532c-.156 0-.531.078-.531.578 0 .938.75 1.984 1.969 1.984C3.78.234 4.89-.812 4.89-2.187zm0 0"/></symbol><symbol id="M" overflow="visible"><path d="M1.39-.844l1.157-1.125C4.25-3.469 4.89-4.062 4.89-5.14c0-1.25-.97-2.125-2.313-2.125-1.219 0-2.031 1-2.031 1.97 0 .624.547.624.578.624.188 0 .563-.14.563-.578 0-.297-.188-.578-.579-.578-.078 0-.109 0-.14.016.25-.704.844-1.11 1.469-1.11 1 0 1.468.875 1.468 1.781 0 .86-.547 1.735-1.14 2.407L.672-.406C.547-.281.547-.266.547 0h4.047l.297-1.89h-.266c-.063.312-.125.796-.234.968-.079.078-.797.078-1.047.078zm0 0"/></symbol><symbol id="q" overflow="visible"><path d="M3.89-2.547c0-.844-.078-1.36-.343-1.875-.344-.703-1-.875-1.438-.875-1 0-1.375.75-1.484.969C.344-3.75.328-2.953.328-2.547c0 .531.016 1.328.406 1.969.36.594.954.75 1.375.75.391 0 1.063-.125 1.47-.906.296-.579.312-1.297.312-1.813zM2.11-.062c-.266 0-.813-.126-.985-.954-.094-.453-.094-1.203-.094-1.625 0-.546 0-1.109.094-1.546.172-.813.781-.891.984-.891.266 0 .829.14.985.86.094.437.094 1.046.094 1.577 0 .47 0 1.188-.094 1.641-.172.828-.719.938-.985.938zm0 0"/></symbol><symbol id="r" overflow="visible"><path d="M2.5-5.078c0-.219-.016-.219-.234-.219-.329.313-.75.5-1.5.5v.266c.218 0 .64 0 1.109-.203v4.078c0 .297-.031.39-.781.39H.812V0c.329-.031 1.016-.031 1.375-.031s1.047 0 1.376.031v-.266H3.28c-.75 0-.781-.093-.781-.39zm0 0"/></symbol><symbol id="s" overflow="visible"><path d="M2.25-1.625a9.23 9.23 0 01.594-.5c.484-.453.953-.89.953-1.61 0-.953-.797-1.562-1.781-1.562-.97 0-1.594.719-1.594 1.438 0 .39.312.437.422.437.172 0 .422-.11.422-.422 0-.406-.407-.406-.5-.406.234-.594.765-.781 1.156-.781.734 0 1.125.625 1.125 1.297 0 .828-.578 1.437-1.531 2.39l-1 1.047C.422-.219.422-.203.422 0h3.14l.235-1.422h-.25c-.016.156-.078.547-.172.703-.047.063-.656.063-.781.063H1.172zm0 0"/></symbol><symbol id="t" overflow="visible"><path d="M2.016-2.656c.625 0 1.03.453 1.03 1.297 0 1-.562 1.28-.983 1.28-.438 0-1.047-.155-1.329-.577.297 0 .5-.188.5-.438 0-.265-.187-.437-.453-.437-.203 0-.437.125-.437.453 0 .75.812 1.25 1.734 1.25 1.047 0 1.797-.734 1.797-1.531 0-.672-.531-1.266-1.344-1.454.625-.218 1.11-.75 1.11-1.39s-.72-1.094-1.547-1.094c-.86 0-1.5.453-1.5 1.063 0 .296.187.421.406.421.25 0 .406-.171.406-.406 0-.297-.265-.406-.437-.406.344-.438.953-.469 1.094-.469.203 0 .812.063.812.89 0 .548-.234.891-.344 1.016-.234.25-.422.266-.906.297-.156 0-.219.016-.219.125s.078.11.219.11zm0 0"/></symbol><symbol id="u" overflow="visible"><path d="M3.14-5.156c0-.157 0-.219-.171-.219-.094 0-.11 0-.188.11L.234-1.564v.25h2.25v.672c0 .297-.015.375-.64.375h-.172V0c.672-.031.687-.031 1.14-.031s.47 0 1.141.031v-.266h-.172c-.625 0-.64-.078-.64-.375v-.671h.843v-.25h-.843zm-.593.64v2.954H.516zm0 0"/></symbol><symbol id="v" overflow="visible"><path d="M1.11-4.484c.109.03.421.125.765.125 1 0 1.594-.704 1.594-.829 0-.093-.047-.109-.094-.109-.016 0-.031 0-.094.031a2.982 2.982 0 01-1.11.22c-.468 0-.858-.11-1.108-.22-.079-.03-.094-.03-.11-.03-.094 0-.094.077-.094.234v2.328c0 .14 0 .234.125.234.063 0 .079-.031.125-.094.094-.11.391-.515 1.079-.515.437 0 .656.359.734.515.125.281.14.656.14.953s0 .735-.218 1.079c-.156.25-.485.484-.906.484A1.271 1.271 0 01.734-.922c.016.016.079.016.079.016.218 0 .406-.14.406-.39 0-.298-.235-.407-.39-.407s-.407.078-.407.422c0 .718.625 1.453 1.531 1.453 1 0 1.844-.781 1.844-1.766 0-.922-.672-1.75-1.61-1.75-.39 0-.765.125-1.078.406zm0 0"/></symbol><symbol id="w" overflow="visible"><path d="M1.094-2.64c0-.657.062-1.235.343-1.72.25-.406.657-.734 1.157-.734.156 0 .515.032.703.297-.36.031-.39.297-.39.375 0 .25.187.375.374.375.14 0 .375-.078.375-.39 0-.47-.36-.86-1.078-.86C1.468-5.297.344-4.25.344-2.53.344-.36 1.359.172 2.125.172c.39 0 .797-.11 1.156-.453.328-.313.594-.64.594-1.344 0-1.031-.797-1.766-1.672-1.766-.578 0-.922.36-1.11.75zM2.125-.079a.88.88 0 01-.797-.516c-.187-.36-.203-.89-.203-1.203 0-.781.422-1.375 1.047-1.375.39 0 .64.203.781.485.172.296.172.656.172 1.062s0 .75-.156 1.047c-.219.36-.485.5-.844.5zm0 0"/></symbol><symbol id="x" overflow="visible"><path d="M4.031-4.86c.078-.077.078-.093.078-.265H2.08a8.79 8.79 0 01-.642-.031c-.421-.032-.421-.11-.453-.235h-.25L.47-3.703h.25c.015-.125.11-.672.219-.735.078-.046.687-.046.796-.046h1.688L2.61-3.375C1.703-2.172 1.5-.906 1.5-.281c0 .078 0 .453.375.453s.375-.36.375-.453v-.39c0-1.141.203-2.079.594-2.61zm0 0"/></symbol><symbol id="y" overflow="visible"><path d="M2.64-2.875c.454-.219 1-.61 1-1.234 0-.766-.78-1.188-1.515-1.188-.844 0-1.531.578-1.531 1.328 0 .297.094.563.297.797.14.172.171.188.656.5C.563-2.234.344-1.656.344-1.219c0 .89.89 1.39 1.765 1.39.97 0 1.766-.671 1.766-1.515 0-.5-.266-.828-.406-.968-.125-.126-.14-.141-.828-.563zm-1.234-.75c-.234-.14-.422-.375-.422-.64 0-.5.547-.829 1.125-.829.61 0 1.125.422 1.125.985 0 .453-.359.843-.828 1.078zm.39 1.094c.032.015.938.578 1.079.656.125.078.547.328.547.813 0 .609-.656.984-1.297.984-.719 0-1.313-.484-1.313-1.14 0-.595.438-1.063.985-1.313zm0 0"/></symbol><symbol id="z" overflow="visible"><path d="M3.125-2.344c0 1.938-.922 2.266-1.39 2.266-.173 0-.579-.016-.798-.266.36-.031.375-.297.375-.375a.37.37 0 00-.375-.375.37.37 0 00-.375.39c0 .548.454.876 1.188.876 1.094 0 2.125-1.094 2.125-2.797 0-2.063-.922-2.672-1.734-2.672-.954 0-1.797.734-1.797 1.781 0 1.016.781 1.766 1.687 1.766.563 0 .906-.36 1.094-.766zm-1.063.375c-.374 0-.609-.172-.78-.468-.188-.282-.188-.672-.188-1.079 0-.468 0-.796.218-1.125.204-.296.454-.453.829-.453.53 0 .765.532.796.563.157.39.172 1.015.172 1.172 0 .64-.343 1.39-1.046 1.39zm0 0"/></symbol><use x="12.263" xlink:href="#a" y="69.283"/><use x="20.239" xlink:href="#b" y="69.283"/><use x="25.031" xlink:href="#c" y="69.283"/><use x="33.194" xlink:href="#d" y="69.283"/><use x="41.3" xlink:href="#e" y="69.283"/><use x="48.344" xlink:href="#f" y="69.283"/><use x="56.492" xlink:href="#b" y="69.283"/><use x="61.284" xlink:href="#g" y="69.283"/><path d="M183.121 108.2V91.417h26.93V43.5h26.93V29.809h26.93v37.316h26.929v25.176h26.93v13.691h26.93v.66h26.929v1.547" fill="#d2e4f0" stroke="#1f77b4" stroke-miterlimit="10" stroke-width="1.196"/><path d="M247.754 108.2V8.831" fill="none" stroke="#1f77b4" stroke-miterlimit="10" stroke-width="1.196"/><g fill="#1f77b4"><use x="252.334" xlink:href="#h" y="24.256"/><use x="261.53" xlink:href="#i" y="24.256"/><use x="266.887" xlink:href="#j" y="24.256"/><use x="272.418" xlink:href="#k" y="24.256"/><use x="278.614" xlink:href="#l" y="24.256"/></g><g fill="#1f77b4"><use x="285.857" xlink:href="#m" y="24.256"/><use x="291.312" xlink:href="#n" y="24.256"/></g><path d="M156.191 108.2h269.297" fill="none" stroke="#000" stroke-miterlimit="10" stroke-width=".399"/><use x="279.029" xlink:href="#o" y="132.042"/><use x="287.44" xlink:href="#p" y="132.042"/><use x="293.451" xlink:href="#h" y="132.042"/><path d="M156.191 108.2v2.206" fill="none" stroke="#000" stroke-miterlimit="10" stroke-width=".399"/><use x="154.074" xlink:href="#q" y="119.728"/><path d="M183.121 108.2v2.206" fill="none" stroke="#000" stroke-miterlimit="10" stroke-width=".399"/><use x="178.886" xlink:href="#r" y="119.728"/><use x="183.121" xlink:href="#q" y="119.728"/><path d="M210.05 108.2v2.206" fill="none" stroke="#000" stroke-miterlimit="10" stroke-width=".399"/><use x="205.816" xlink:href="#s" y="119.728"/><use x="210.051" xlink:href="#q" y="119.728"/><path d="M236.98 108.2v2.206" fill="none" stroke="#000" stroke-miterlimit="10" stroke-width=".399"/><use x="232.745" xlink:href="#t" y="119.728"/><use x="236.98" xlink:href="#q" y="119.728"/><path d="M263.91 108.2v2.206" fill="none" stroke="#000" stroke-miterlimit="10" stroke-width=".399"/><use x="259.675" xlink:href="#u" y="119.728"/><use x="263.91" xlink:href="#q" y="119.728"/><path d="M290.84 108.2v2.206" fill="none" stroke="#000" stroke-miterlimit="10" stroke-width=".399"/><use x="286.604" xlink:href="#v" y="119.728"/><use x="290.839" xlink:href="#q" y="119.728"/><path d="M317.77 108.2v2.206" fill="none" stroke="#000" stroke-miterlimit="10" stroke-width=".399"/><use x="313.534" xlink:href="#w" y="119.728"/><use x="317.769" xlink:href="#q" y="119.728"/><path d="M344.7 108.2v2.206" fill="none" stroke="#000" stroke-miterlimit="10" stroke-width=".399"/><use x="340.463" xlink:href="#x" y="119.728"/><use x="344.698" xlink:href="#q" y="119.728"/><path d="M371.629 108.2v2.206" fill="none" stroke="#000" stroke-miterlimit="10" stroke-width=".399"/><use x="367.393" xlink:href="#y" y="119.728"/><use x="371.628" xlink:href="#q" y="119.728"/><path d="M398.559 108.2v2.206" fill="none" stroke="#000" stroke-miterlimit="10" stroke-width=".399"/><use x="394.322" xlink:href="#z" y="119.728"/><use x="398.557" xlink:href="#q" y="119.728"/><path d="M425.488 108.2v2.206" fill="none" stroke="#000" stroke-miterlimit="10" stroke-width=".399"/><use x="419.134" xlink:href="#r" y="119.728"/><use x="423.369" xlink:href="#q" y="119.728"/><use x="427.603" xlink:href="#q" y="119.728"/><use x="12.263" xlink:href="#A" y="188.745"/><use x="20.268" xlink:href="#B" y="188.745"/><use x="25.748" xlink:href="#C" y="188.745"/><use x="33.481" xlink:href="#D" y="188.745"/><use x="40.984" xlink:href="#B" y="188.745"/><use x="46.464" xlink:href="#E" y="188.745"/><use x="53.738" xlink:href="#F" y="188.745"/><use x="65.832" xlink:href="#F" y="188.745"/><use x="77.926" xlink:href="#e" y="188.745"/><use x="84.97" xlink:href="#B" y="188.745"/><use x="90.45" xlink:href="#g" y="188.745"/><path d="M183.121 229.648v-2.207h26.93v-3.312h26.93v-24.953h26.93v-11.922h26.929v-20.758h26.93v6.625h26.93v39.082h26.929v14.133h26.93v3.312" fill="#d2e4f0" stroke="#1f77b4" stroke-miterlimit="10" stroke-width="1.196"/><path d="M301.613 229.648v-83.91" fill="none" stroke="#1f77b4" stroke-miterlimit="10" stroke-width="1.196"/><g fill="#1f77b4"><use x="306.193" xlink:href="#h" y="161.162"/><use x="315.389" xlink:href="#i" y="161.162"/><use x="320.746" xlink:href="#j" y="161.162"/><use x="326.277" xlink:href="#k" y="161.162"/><use x="332.473" xlink:href="#l" y="161.162"/></g><g fill="#1f77b4"><use x="339.716" xlink:href="#G" y="161.162"/><use x="345.171" xlink:href="#n" y="161.162"/></g><path d="M156.191 229.648h269.297" fill="none" stroke="#000" stroke-miterlimit="10" stroke-width=".399"/><use x="279.029" xlink:href="#o" y="253.491"/><use x="287.44" xlink:href="#p" y="253.491"/><use x="293.451" xlink:href="#h" y="253.491"/><path d="M156.191 229.648v2.211" fill="none" stroke="#000" stroke-miterlimit="10" stroke-width=".399"/><use x="154.074" xlink:href="#q" y="241.177"/><path d="M183.121 229.648v2.211" fill="none" stroke="#000" stroke-miterlimit="10" stroke-width=".399"/><use x="178.886" xlink:href="#r" y="241.177"/><use x="183.121" xlink:href="#q" y="241.177"/><path d="M210.05 229.648v2.211" fill="none" stroke="#000" stroke-miterlimit="10" stroke-width=".399"/><use x="205.816" xlink:href="#s" y="241.177"/><use x="210.051" xlink:href="#q" y="241.177"/><path d="M236.98 229.648v2.211" fill="none" stroke="#000" stroke-miterlimit="10" stroke-width=".399"/><use x="232.745" xlink:href="#t" y="241.177"/><use x="236.98" xlink:href="#q" y="241.177"/><path d="M263.91 229.648v2.211" fill="none" stroke="#000" stroke-miterlimit="10" stroke-width=".399"/><use x="259.675" xlink:href="#u" y="241.177"/><use x="263.91" xlink:href="#q" y="241.177"/><path d="M290.84 229.648v2.211" fill="none" stroke="#000" stroke-miterlimit="10" stroke-width=".399"/><use x="286.604" xlink:href="#v" y="241.177"/><use x="290.839" xlink:href="#q" y="241.177"/><path d="M317.77 229.648v2.211" fill="none" stroke="#000" stroke-miterlimit="10" stroke-width=".399"/><use x="313.534" xlink:href="#w" y="241.177"/><use x="317.769" xlink:href="#q" y="241.177"/><path d="M344.7 229.648v2.211" fill="none" stroke="#000" stroke-miterlimit="10" stroke-width=".399"/><use x="340.463" xlink:href="#x" y="241.177"/><use x="344.698" xlink:href="#q" y="241.177"/><path d="M371.629 229.648v2.211" fill="none" stroke="#000" stroke-miterlimit="10" stroke-width=".399"/><use x="367.393" xlink:href="#y" y="241.177"/><use x="371.628" xlink:href="#q" y="241.177"/><path d="M398.559 229.648v2.211" fill="none" stroke="#000" stroke-miterlimit="10" stroke-width=".399"/><use x="394.322" xlink:href="#z" y="241.177"/><use x="398.557" xlink:href="#q" y="241.177"/><path d="M425.488 229.648v2.211" fill="none" stroke="#000" stroke-miterlimit="10" stroke-width=".399"/><use x="419.134" xlink:href="#r" y="241.177"/><use x="423.369" xlink:href="#q" y="241.177"/><use x="427.603" xlink:href="#q" y="241.177"/><use x="12.263" xlink:href="#A" y="310.675"/><use x="20.268" xlink:href="#B" y="310.675"/><use x="25.748" xlink:href="#C" y="310.675"/><use x="33.481" xlink:href="#H" y="310.675"/><use x="38.086" xlink:href="#e" y="310.675"/><use x="45.13" xlink:href="#g" y="310.675"/><use x="50.869" xlink:href="#g" y="310.675"/><use x="56.607" xlink:href="#I" y="310.675"/><use x="60.624" xlink:href="#C" y="310.675"/><use x="68.357" xlink:href="#f" y="310.675"/><use x="76.505" xlink:href="#E" y="310.675"/><use x="83.779" xlink:href="#J" y="310.675"/><use x="91.813" xlink:href="#b" y="310.675"/><use x="96.604" xlink:href="#K" y="310.675"/><use x="103.706" xlink:href="#L" y="310.675"/><use x="111.61" xlink:href="#I" y="310.675"/><use x="115.627" xlink:href="#g" y="310.675"/><use x="121.366" xlink:href="#b" y="310.675"/><use x="126.157" xlink:href="#g" y="310.675"/><path d="M210.05 351.102v-8.391h26.93v-13.914h26.93v-43.281h26.93v-8.61h26.93v41.07h26.93v21.641h26.929v7.73h26.93v2.208h26.93v1.547" fill="#d2e4f0" stroke="#1f77b4" stroke-miterlimit="10" stroke-width="1.196"/><path d="M296.227 351.102v-93.848" fill="none" stroke="#1f77b4" stroke-miterlimit="10" stroke-width="1.196"/><g fill="#1f77b4"><use x="300.807" xlink:href="#h" y="272.675"/><use x="310.003" xlink:href="#i" y="272.675"/><use x="315.36" xlink:href="#j" y="272.675"/><use x="320.891" xlink:href="#k" y="272.675"/><use x="327.087" xlink:href="#l" y="272.675"/></g><g fill="#1f77b4"><use x="334.33" xlink:href="#G" y="272.675"/><use x="339.785" xlink:href="#M" y="272.675"/></g><path d="M156.191 351.102h269.297" fill="none" stroke="#000" stroke-miterlimit="10" stroke-width=".399"/><use x="279.029" xlink:href="#o" y="374.94"/><use x="287.44" xlink:href="#p" y="374.94"/><use x="293.451" xlink:href="#h" y="374.94"/><path d="M156.191 351.102v2.207" fill="none" stroke="#000" stroke-miterlimit="10" stroke-width=".399"/><use x="154.074" xlink:href="#q" y="362.626"/><path d="M183.121 351.102v2.207" fill="none" stroke="#000" stroke-miterlimit="10" stroke-width=".399"/><use x="178.886" xlink:href="#r" y="362.626"/><use x="183.121" xlink:href="#q" y="362.626"/><path d="M210.05 351.102v2.207" fill="none" stroke="#000" stroke-miterlimit="10" stroke-width=".399"/><use x="205.816" xlink:href="#s" y="362.626"/><use x="210.051" xlink:href="#q" y="362.626"/><path d="M236.98 351.102v2.207" fill="none" stroke="#000" stroke-miterlimit="10" stroke-width=".399"/><use x="232.745" xlink:href="#t" y="362.626"/><use x="236.98" xlink:href="#q" y="362.626"/><path d="M263.91 351.102v2.207" fill="none" stroke="#000" stroke-miterlimit="10" stroke-width=".399"/><use x="259.675" xlink:href="#u" y="362.626"/><use x="263.91" xlink:href="#q" y="362.626"/><path d="M290.84 351.102v2.207" fill="none" stroke="#000" stroke-miterlimit="10" stroke-width=".399"/><use x="286.604" xlink:href="#v" y="362.626"/><use x="290.839" xlink:href="#q" y="362.626"/><path d="M317.77 351.102v2.207" fill="none" stroke="#000" stroke-miterlimit="10" stroke-width=".399"/><use x="313.534" xlink:href="#w" y="362.626"/><use x="317.769" xlink:href="#q" y="362.626"/><path d="M344.7 351.102v2.207" fill="none" stroke="#000" stroke-miterlimit="10" stroke-width=".399"/><use x="340.463" xlink:href="#x" y="362.626"/><use x="344.698" xlink:href="#q" y="362.626"/><path d="M371.629 351.102v2.207" fill="none" stroke="#000" stroke-miterlimit="10" stroke-width=".399"/><use x="367.393" xlink:href="#y" y="362.626"/><use x="371.628" xlink:href="#q" y="362.626"/><path d="M398.559 351.102v2.207" fill="none" stroke="#000" stroke-miterlimit="10" stroke-width=".399"/><use x="394.322" xlink:href="#z" y="362.626"/><use x="398.557" xlink:href="#q" y="362.626"/><path d="M425.488 351.102v2.207" fill="none" stroke="#000" stroke-miterlimit="10" stroke-width=".399"/><use x="419.134" xlink:href="#r" y="362.626"/><use x="423.369" xlink:href="#q" y="362.626"/><use x="427.603" xlink:href="#q" y="362.626"/></svg>