<svg xmlns="http://www.w3.org/2000/svg" xmlns:xlink="http://www.w3.org/1999/xlink" width="578.74" height="146.457" viewBox="0 0 434.055 109.843"><defs><path id="a" d="M1.11-8.297V0h3.093C5.875 0 7.11-1.078 7.11-2.25c0-1.047-1.03-1.89-2.265-2.094 1.39-.375 1.937-1.172 1.937-1.875 0-1.078-1.218-2.078-2.906-2.078Zm.968 3.625v-2.953h1.469c1.281 0 2.312.625 2.312 1.422 0 .844-1.03 1.531-2.296 1.531Zm0 4v-3.281h1.594c1.547 0 2.5.86 2.5 1.687 0 .844-.969 1.594-2.313 1.594Zm0 0"/><path id="b" d="M2.11-8.297H1.077V0h4.75v-.766c-1.062.032-2.094.032-3.156.032h-.563Zm0 0"/><path id="c" d="M1.094-8.297V0h3.062c2 0 3.594-1.813 3.594-4.078 0-2.328-1.578-4.219-3.594-4.219Zm1 7.625v-6.953H3.89c1.593 0 2.859 1.375 2.859 3.531 0 2.188-1.328 3.422-2.86 3.422Zm0 0"/><path id="d" d="M10.813-8.297h-.876L8.845-4.375 8.36-2.609c-.14.578-.328 1.265-.375 1.703H7.97c-.063-.5-.313-1.531-.516-2.25l-1.422-5.14H5.016L4-4.595c-.094.297-.813 2.89-.89 3.672h-.016c-.047-.469-.344-1.625-.39-1.828l-.517-1.906-1-3.64H.173L2.516 0H3.5l1.125-4.063c.297-1.062.75-2.703.828-3.343h.016c0 .015.078.625.64 2.672L7.406 0H8.47Zm0 0"/><path id="e" d="M6.484-7.813v-.484H.813v.735h2.343c.14 0 .281-.016.422-.016h1.61L.64-.484V0h5.906v-.766H5.422c-1.016 0-2.063.032-3.094.032h-.375Zm0 0"/><path id="f" d="M2.563-8.297h-1.47V0h.923v-7.406c.109.234.734 1.531.968 2L5.625 0h1.469v-8.297h-.907V-.89h-.015c-.11-.234-.734-1.53-.969-2Zm0 0"/><path id="g" d="M4.86-3.89c1.312-.376 2.015-1.282 2.015-2.172 0-1.188-1.281-2.235-2.969-2.235H1.094V0h1v-3.797h1.86L6.171 0h1.031ZM2.093-4.5v-3.125H3.78c1.438 0 2.14.766 2.14 1.563 0 .75-.64 1.562-2.14 1.562Zm0 0"/><path id="h" d="M4.5-7.5h1.063c.14 0 .28.016.421.016h1.563v-.75H.422v.75H2c.14 0 .281-.016.422-.016h1.062V0H4.5Zm0 0"/><path id="i" d="M5.438-7.953c-.485-.266-1.094-.594-2.157-.594-1.594 0-2.64 1.14-2.64 2.344 0 .844.515 1.39.578 1.453.593.61 1 .703 1.75.906 1.031.25 1.187.297 1.578.688.203.219.375.594.375 1.015 0 .829-.672 1.594-1.703 1.594a3.752 3.752 0 0 1-2.516-1l-.172.969A4.894 4.894 0 0 0 3.22.25c1.53 0 2.624-1.188 2.624-2.516 0-.765-.375-1.328-.625-1.625-.563-.593-1-.718-1.797-.921-.813-.204-1.11-.266-1.375-.516-.156-.172-.485-.469-.485-1 0-.734.657-1.438 1.72-1.438 1.015 0 1.546.391 1.984.766Zm0 0"/><path id="j" d="M7.016-3.625h-2.47v.734h1.548v2c-.485.125-.985.25-1.563.25-1.718 0-2.718-1.859-2.718-3.515 0-1.61.953-3.532 2.78-3.532.907 0 1.485.282 2.141.813l.188-.984c-.797-.407-1.453-.579-2.375-.579C2.266-8.438.78-6.28.78-4.155.78-2.015 2.265.11 4.577.11a5.28 5.28 0 0 0 2.438-.578Zm0 0"/><path id="k" d="M6.234-.39C7.422-1.345 7.97-2.657 7.97-4.126c0-2.531-1.719-4.422-3.657-4.422-1.984 0-3.671 1.922-3.671 4.422S2.344.25 4.312.25c.5 0 .954-.14 1.11-.203L6.438 1.5H7.64Zm-1.25-.204c-.234.078-.328.11-.671.11-1.391 0-2.657-1.422-2.657-3.641 0-2.266 1.297-3.688 2.64-3.688 1.407 0 2.673 1.454 2.673 3.688 0 1.531-.594 2.563-1.203 3.063l-.938-1.25H3.797Zm0 0"/><path id="l" d="m4.281-4.375 2.797-3.922h-1.11l-2.187 3.14-2.25-3.14H.328l2.953 3.922L.171 0h1.095L3.78-3.656 6.36 0h1.188Zm0 0"/><path id="m" d="M2.5-8.297H1.14V0h.923v-7.375c.171.813 2.109 5.922 2.562 7.125H5.5c.39-1.031 2.36-6.234 2.578-7.14h.016V0h.922v-8.297h-1.36L6.281-4.609c-.61 1.671-1.078 2.921-1.203 3.468h-.016c-.03-.203-.187-.64-.343-1.109-.219-.64-.219-.672-.407-1.156Zm0 0"/><path id="n" d="M6.813-1.375c-.735.531-1.235.734-2.266.734-1.563 0-2.734-1.609-2.734-3.53 0-1.61.953-3.516 2.78-3.516.782 0 1.376.234 1.985.64l.172-.969c-.781-.296-1.36-.406-2.188-.406-2.03 0-3.78 1.781-3.78 4.266 0 2.61 1.937 4.265 3.671 4.265 1.203 0 1.469-.078 2.438-.656Zm0 0"/><path id="o" d="M7.547-8.297H6.64L5.156-4.328c-.484 1.281-1.078 2.86-1.218 3.437-.11-.515-.5-1.515-.782-2.28L1.25-8.298H.172L3.328 0h1.078Zm0 0"/><path id="q" d="M5.656-3.781V-4.5H2.11v-3.031h1.532c.156 0 .296.015.437.015h2.063v-.75H1.078V0H2.11v-3.781Zm0 0"/><path id="r" d="M7.969-4.125c0-2.531-1.719-4.422-3.657-4.422-1.984 0-3.671 1.922-3.671 4.422C.64-1.609 2.375.25 4.297.25c1.984 0 3.672-1.875 3.672-4.375ZM4.312-.5c-1.39 0-2.64-1.5-2.64-3.797 0-2.203 1.297-3.516 2.625-3.516 1.375 0 2.64 1.344 2.64 3.516C6.938-1.953 5.657-.5 4.313-.5Zm0 0"/><path id="s" d="M6.89-8.297h-.92v5.531c0 1.594-1 2.344-1.953 2.344-.938 0-1.907-.734-1.907-2.344v-5.53H1.08v5.515C1.078-1.031 2.452.25 4 .25c1.563 0 2.89-1.297 2.89-3.031Zm0 0"/><path id="t" d="M4.531-8.297h-1v6.485c0 .687-.344 1.328-1.39 1.328a1.956 1.956 0 0 1-1.485-.657L.484-.25c.704.36 1.375.5 2 .5 1.25 0 2.047-.734 2.047-2.016Zm0 0"/><path id="u" d="M7.688-8.297H6.655L4.61-5.203c-.234.344-.468.703-.671 1.031-.032-.062-.157-.297-.672-1.078L1.234-8.297H.031L3.36-3.328V0h1v-3.328Zm0 0"/><path id="v" d="M7.11-8.297H6.077v3.625H2.11v-3.625H1.08V0h1.03v-3.953h3.97V0h1.03Zm0 0"/><path id="w" d="M4.39-8.297H3.329L.328 0h.875l.875-2.422h3.375L6.328 0h1.078Zm-.624.86 1.437 4.343h-2.86Zm0 0"/><path id="x" d="M5.969-3.938v-.718h-3.86v-2.875h1.625c.141 0 .282.015.422.015h2.157v-.75H1.077V0h5.39v-.813h-1.56c-.156 0-.297.016-.437.016H2.11v-3.14Zm0 0"/><path id="y" d="M2.11-8.297H1.077V0H2.11Zm0 0"/><path id="z" d="m4.281-5.016 3.125-3.28H6.281L2.094-3.892v-4.406h-1V0h1v-2.703L3.64-4.328 6.453 0h1.094Zm0 0"/><path id="A" d="M4-3.453c1.656 0 2.797-1.188 2.797-2.422 0-1.266-1.172-2.422-2.797-2.422H1.094V0h1.015v-3.453Zm-.25-4.172c1.406 0 2.094.828 2.094 1.734 0 .938-.735 1.75-2.094 1.75H2.094v-3.484Zm0 0"/><path id="p" d="M.938-5h.218l.438-2.672c.015-.078.015-.156.015-.234 0-.407-.203-.625-.562-.625-.36 0-.563.219-.563.625 0 .078 0 .156.016.234Zm0 0"/><path id="B" d="M1.719-1.813c-.516 0-.938.422-.938.97a.94.94 0 0 0 .938.937.944.944 0 0 0 .953-.938.96.96 0 0 0-.953-.969Zm0 0"/><path id="C" d="M.438-3.469v1.172h3.03v-1.172Zm0 0"/><path id="D" d="M4.734-8.016-.328 1.11h.906l5.047-9.125Zm0 0"/><clipPath id="E"><path d="M78 71h3v38.844h-3Zm0 0"/></clipPath><clipPath id="F"><path d="M114 71h3v38.844h-3Zm0 0"/></clipPath><clipPath id="G"><path d="M149 71h3v38.844h-3Zm0 0"/></clipPath><clipPath id="H"><path d="M185 71h3v38.844h-3Zm0 0"/></clipPath><clipPath id="I"><path d="M220 71h3v38.844h-3Zm0 0"/></clipPath><clipPath id="J"><path d="M255 71h3v38.844h-3Zm0 0"/></clipPath><clipPath id="K"><path d="M291 71h3v38.844h-3Zm0 0"/></clipPath><clipPath id="L"><path d="M326 71h3v38.844h-3Zm0 0"/></clipPath><clipPath id="M"><path d="M362 71h3v38.844h-3Zm0 0"/></clipPath><clipPath id="N"><path d="M0 0h410v109.844H0Zm0 0"/></clipPath><clipPath id="O"><path d="M16 44h411v65.844H16Zm0 0"/></clipPath></defs><path fill="#ECECD7" d="M17.715 6.754v25.469a4.983 4.983 0 0 0 4.984 4.984H367.07c2.75 0 4.98-2.23 4.98-4.984V6.753a4.98 4.98 0 0 0-4.98-4.98H22.7a4.982 4.982 0 0 0-4.985 4.98Zm0 0"/><path fill="#ECECD7" d="M26.574 42.188v25.468a4.982 4.982 0 0 0 4.98 4.985H375.93c2.75 0 4.98-2.23 4.98-4.985V42.187a4.98 4.98 0 0 0-4.98-4.98H31.555a4.98 4.98 0 0 0-4.98 4.98Zm0 0"/><path fill="#ECECD7" d="M44.293 77.621v25.469a4.982 4.982 0 0 0 4.98 4.984h344.372c2.75 0 4.98-2.23 4.98-4.984V77.62a4.98 4.98 0 0 0-4.98-4.98H49.273a4.98 4.98 0 0 0-4.98 4.98Zm0 0"/><use xlink:href="#a" x="31.548" y="22.892"/><use xlink:href="#b" x="67.704" y="22.892"/><use xlink:href="#c" x="102.089" y="22.892"/><use xlink:href="#d" x="136.239" y="22.892"/><use xlink:href="#e" x="173.588" y="22.892"/><use xlink:href="#f" x="40.189" y="58.326"/><use xlink:href="#g" x="75.957" y="58.326"/><use xlink:href="#h" x="111.165" y="58.326"/><use xlink:href="#i" x="147.339" y="58.326"/><use xlink:href="#j" x="182.122" y="58.326"/><use xlink:href="#k" x="57.691" y="93.759"/><use xlink:href="#l" x="93.574" y="93.759"/><use xlink:href="#m" x="127.796" y="93.759"/><use xlink:href="#n" x="164.568" y="93.759"/><use xlink:href="#o" x="199.873" y="93.759"/><use xlink:href="#p" x="211.552" y="23.042"/><use xlink:href="#q" x="244.707" y="22.893"/><use xlink:href="#r" x="279.147" y="22.893"/><use xlink:href="#s" x="314.913" y="22.893"/><use xlink:href="#t" x="351.584" y="22.893"/><use xlink:href="#u" x="217.589" y="58.326"/><use xlink:href="#v" x="252.787" y="58.326"/><use xlink:href="#w" x="288.455" y="58.326"/><use xlink:href="#x" x="324.269" y="58.326"/><use xlink:href="#y" x="361.598" y="58.326"/><use xlink:href="#z" x="235.143" y="93.759"/><use xlink:href="#A" x="270.884" y="93.759"/><use xlink:href="#B" x="308.312" y="93.759"/><use xlink:href="#C" x="343.524" y="93.759"/><use xlink:href="#D" x="377.97" y="93.759"/><path fill="none" stroke="#D4D4C8" stroke-miterlimit="10" stroke-width="1.993" d="M53.148 37.207V1.773m35.434 35.434V1.773m35.434 35.434V1.773m35.434 35.434V1.773m35.433 35.434V1.773m35.433 35.434V1.773m35.434 35.434V1.773m35.434 35.434V1.773m35.433 35.434V1.773M62.008 72.64V37.208M97.441 72.64V37.208m35.434 35.432V37.208m35.434 35.432V37.208m35.433 35.432V37.208m35.434 35.432V37.208M274.61 72.64V37.208m35.433 35.432V37.208m35.434 35.432V37.208"/><g clip-path="url(#E)"><path fill="none" stroke="#D4D4C8" stroke-miterlimit="10" stroke-width="1.993" d="M79.727 108.074V72.641"/></g><g clip-path="url(#F)"><path fill="none" stroke="#D4D4C8" stroke-miterlimit="10" stroke-width="1.993" d="M115.16 108.074V72.641"/></g><g clip-path="url(#G)"><path fill="none" stroke="#D4D4C8" stroke-miterlimit="10" stroke-width="1.993" d="M150.594 108.074V72.641"/></g><g clip-path="url(#H)"><path fill="none" stroke="#D4D4C8" stroke-miterlimit="10" stroke-width="1.993" d="M186.027 108.074V72.641"/></g><g clip-path="url(#I)"><path fill="none" stroke="#D4D4C8" stroke-miterlimit="10" stroke-width="1.993" d="M221.46 108.074V72.641"/></g><g clip-path="url(#J)"><path fill="none" stroke="#D4D4C8" stroke-miterlimit="10" stroke-width="1.993" d="M256.89 108.074V72.641"/></g><g clip-path="url(#K)"><path fill="none" stroke="#D4D4C8" stroke-miterlimit="10" stroke-width="1.993" d="M292.324 108.074V72.641"/></g><g clip-path="url(#L)"><path fill="none" stroke="#D4D4C8" stroke-miterlimit="10" stroke-width="1.993" d="M327.758 108.074V72.641"/></g><g clip-path="url(#M)"><path fill="none" stroke="#D4D4C8" stroke-miterlimit="10" stroke-width="1.993" d="M363.191 108.074V72.641"/></g><path fill="none" stroke="#D4D4C8" stroke-miterlimit="10" stroke-width="1.993" d="M26.574 37.207H376.48M35.434 72.64H389.77"/><g clip-path="url(#N)"><path fill="none" stroke="#D4D4C8" stroke-miterlimit="10" stroke-width="1.993" d="M372.05 19.488v12.735a4.982 4.982 0 0 0 4.981 4.984h-1.101a4.98 4.98 0 0 1 4.98 4.98v30.454M44.293 90.355V77.621c0-2.75-2.23-4.98-4.984-4.98h-7.754c-2.75 0-4.98-2.23-4.98-4.985V37.207"/></g><path fill="none" stroke="#D4D4C8" stroke-miterlimit="10" stroke-width="1.993" d="M17.715 6.754v25.469a4.983 4.983 0 0 0 4.984 4.984H367.07c2.75 0 4.98-2.23 4.98-4.984V6.753a4.98 4.98 0 0 0-4.98-4.98H22.7a4.982 4.982 0 0 0-4.985 4.98Zm0 0"/><g clip-path="url(#O)"><path fill="none" stroke="#D4D4C8" stroke-miterlimit="10" stroke-width="1.993" d="M44.293 77.621v25.469a4.982 4.982 0 0 0 4.98 4.984h344.372c2.75 0 4.98-2.23 4.98-4.984V77.62a4.98 4.98 0 0 0-4.98-4.98H49.273a4.98 4.98 0 0 0-4.98 4.98Zm0 0"/></g></svg>