<svg height="146.457" viewBox="0 0 407.48 109.843" width="543.307" xmlns="http://www.w3.org/2000/svg" xmlns:xlink="http://www.w3.org/1999/xlink"><clipPath id="E"><path d="M52 0h3v109.844h-3zm0 0"/></clipPath><clipPath id="F"><path d="M87 0h3v109.844h-3zm0 0"/></clipPath><clipPath id="G"><path d="M123 0h3v109.844h-3zm0 0"/></clipPath><clipPath id="H"><path d="M158 0h3v109.844h-3zm0 0"/></clipPath><clipPath id="I"><path d="M247 0h3v109.844h-3zm0 0"/></clipPath><clipPath id="J"><path d="M282 0h3v109.844h-3zm0 0"/></clipPath><clipPath id="K"><path d="M317 0h3v109.844h-3zm0 0"/></clipPath><clipPath id="L"><path d="M353 0h3v109.844h-3zm0 0"/></clipPath><symbol id="a" overflow="visible"><path d="M7.547-8.297H6.64L5.156-4.328c-.484 1.281-1.078 2.86-1.218 3.437-.11-.515-.5-1.515-.782-2.28L1.25-8.298H.172L3.328 0h1.078zm0 0"/></symbol><symbol id="b" overflow="visible"><path d="M2.5-8.297H1.14V0h.923v-7.375c.171.813 2.109 5.922 2.562 7.125H5.5c.39-1.031 2.36-6.234 2.578-7.14h.016V0h.922v-8.297h-1.36L6.281-4.609c-.61 1.671-1.078 2.921-1.203 3.468h-.016c-.03-.203-.187-.64-.343-1.109-.219-.64-.219-.672-.407-1.156zm0 0"/></symbol><symbol id="c" overflow="visible"><path d="M2.11-8.297H1.077V0h4.75v-.766c-1.062.032-2.094.032-3.156.032h-.563zm0 0"/></symbol><symbol id="d" overflow="visible"><path d="M6.813-1.375c-.735.531-1.235.734-2.266.734-1.563 0-2.734-1.609-2.734-3.53 0-1.61.953-3.516 2.78-3.516.782 0 1.376.234 1.985.64l.172-.969c-.781-.296-1.36-.406-2.188-.406-2.03 0-3.78 1.781-3.78 4.266 0 2.61 1.937 4.265 3.671 4.265 1.203 0 1.469-.078 2.438-.656zm0 0"/></symbol><symbol id="e" overflow="visible"><path d="M4-3.453c1.656 0 2.797-1.188 2.797-2.422 0-1.266-1.172-2.422-2.797-2.422H1.094V0h1.015v-3.453zm-.25-4.172c1.406 0 2.094.828 2.094 1.734 0 .938-.735 1.75-2.094 1.75H2.094v-3.484zm0 0"/></symbol><symbol id="f" overflow="visible"><path d="M5.438-7.953c-.485-.266-1.094-.594-2.157-.594-1.594 0-2.64 1.14-2.64 2.344 0 .844.515 1.39.578 1.453.593.61 1 .703 1.75.906 1.031.25 1.187.297 1.578.688.203.219.375.594.375 1.015 0 .829-.672 1.594-1.703 1.594a3.752 3.752 0 01-2.516-1l-.172.969A4.894 4.894 0 003.22.25c1.53 0 2.624-1.188 2.624-2.516 0-.765-.375-1.328-.625-1.625-.563-.593-1-.718-1.797-.921-.813-.204-1.11-.266-1.375-.516-.156-.172-.485-.469-.485-1 0-.734.657-1.438 1.72-1.438 1.015 0 1.546.391 1.984.766zm0 0"/></symbol><symbol id="g" overflow="visible"><path d="M4.5-7.5h1.063c.14 0 .28.016.421.016h1.563v-.75H.422v.75H2c.14 0 .281-.016.422-.016h1.062V0H4.5zm0 0"/></symbol><symbol id="h" overflow="visible"><path d="M4.86-3.89c1.312-.376 2.015-1.282 2.015-2.172 0-1.188-1.281-2.235-2.969-2.235H1.094V0h1v-3.797h1.86L6.171 0h1.031zM2.093-4.5v-3.125H3.78c1.438 0 2.14.766 2.14 1.563 0 .75-.64 1.562-2.14 1.562zm0 0"/></symbol><symbol id="i" overflow="visible"><path d="M1.094-8.297V0h3.062c2 0 3.594-1.813 3.594-4.078 0-2.328-1.578-4.219-3.594-4.219zm1 7.625v-6.953H3.89c1.593 0 2.859 1.375 2.859 3.531 0 2.188-1.328 3.422-2.86 3.422zm0 0"/></symbol><symbol id="j" overflow="visible"><path d="M7.688-8.297H6.655L4.61-5.203c-.234.344-.468.703-.671 1.031-.032-.062-.157-.297-.672-1.078L1.234-8.297H.031L3.36-3.328V0h1v-3.328zm0 0"/></symbol><symbol id="k" overflow="visible"><path d="M6.484-7.813v-.484H.813v.735h2.343c.14 0 .281-.016.422-.016h1.61L.64-.484V0h5.906v-.766H5.422c-1.016 0-2.063.032-3.094.032h-.375zm0 0"/></symbol><symbol id="l" overflow="visible"><path d="M4.281-5.016l3.125-3.28H6.281L2.094-3.892v-4.406h-1V0h1v-2.703L3.64-4.328 6.453 0h1.094zm0 0"/></symbol><symbol id="m" overflow="visible"><path d="M6.234-.39C7.422-1.345 7.97-2.657 7.97-4.126c0-2.531-1.719-4.422-3.657-4.422-1.984 0-3.671 1.922-3.671 4.422S2.344.25 4.312.25c.5 0 .954-.14 1.11-.203L6.438 1.5H7.64zm-1.25-.204c-.234.078-.328.11-.671.11-1.391 0-2.657-1.422-2.657-3.641 0-2.266 1.297-3.688 2.64-3.688 1.407 0 2.673 1.454 2.673 3.688 0 1.531-.594 2.563-1.203 3.063l-.938-1.25H3.797zm0 0"/></symbol><symbol id="n" overflow="visible"><path d="M7.016-3.625h-2.47v.734h1.548v2c-.485.125-.985.25-1.563.25-1.718 0-2.718-1.859-2.718-3.515 0-1.61.953-3.532 2.78-3.532.907 0 1.485.282 2.141.813l.188-.984c-.797-.407-1.453-.579-2.375-.579C2.266-8.438.78-6.28.78-4.155.78-2.015 2.265.11 4.577.11a5.28 5.28 0 002.438-.578zm0 0"/></symbol><symbol id="o" overflow="visible"><path d="M10.813-8.297h-.876L8.845-4.375 8.36-2.609c-.14.578-.328 1.265-.375 1.703H7.97c-.063-.5-.313-1.531-.516-2.25l-1.422-5.14H5.016L4-4.595c-.094.297-.813 2.89-.89 3.672h-.016c-.047-.469-.344-1.625-.39-1.828l-.517-1.906-1-3.64H.173L2.516 0H3.5l1.125-4.063c.297-1.062.75-2.703.828-3.343h.016c0 .015.078.625.64 2.672L7.406 0H8.47zm0 0"/></symbol><symbol id="p" overflow="visible"><path d="M4.281-4.375l2.797-3.922h-1.11l-2.187 3.14-2.25-3.14H.328l2.953 3.922L.171 0h1.095L3.78-3.656 6.36 0h1.188zm0 0"/></symbol><symbol id="q" overflow="visible"><path d="M5.656-3.781V-4.5H2.11v-3.031h1.532c.156 0 .296.015.437.015h2.063v-.75H1.078V0H2.11v-3.781zm0 0"/></symbol><symbol id="r" overflow="visible"><path d="M7.969-4.125c0-2.531-1.719-4.422-3.657-4.422-1.984 0-3.671 1.922-3.671 4.422C.64-1.609 2.375.25 4.297.25c1.984 0 3.672-1.875 3.672-4.375zM4.312-.5c-1.39 0-2.64-1.5-2.64-3.797 0-2.203 1.297-3.516 2.625-3.516 1.375 0 2.64 1.344 2.64 3.516C6.938-1.953 5.657-.5 4.313-.5zm0 0"/></symbol><symbol id="s" overflow="visible"><path d="M6.89-8.297h-.92v5.531c0 1.594-1 2.344-1.953 2.344-.938 0-1.907-.734-1.907-2.344v-5.53H1.08v5.515C1.078-1.031 2.452.25 4 .25c1.563 0 2.89-1.297 2.89-3.031zm0 0"/></symbol><symbol id="t" overflow="visible"><path d="M4.531-8.297h-1v6.485c0 .687-.344 1.328-1.39 1.328a1.956 1.956 0 01-1.485-.657L.484-.25c.704.36 1.375.5 2 .5 1.25 0 2.047-.734 2.047-2.016zm0 0"/></symbol><symbol id="v" overflow="visible"><path d="M2.563-8.297h-1.47V0h.923v-7.406c.109.234.734 1.531.968 2L5.625 0h1.469v-8.297h-.907V-.89h-.015c-.11-.234-.734-1.53-.969-2zm0 0"/></symbol><symbol id="w" overflow="visible"><path d="M4.39-8.297H3.329L.328 0h.875l.875-2.422h3.375L6.328 0h1.078zm-.624.86l1.437 4.343h-2.86zm0 0"/></symbol><symbol id="x" overflow="visible"><path d="M5.969-3.938v-.718h-3.86v-2.875h1.625c.141 0 .282.015.422.015h2.157v-.75H1.077V0h5.39v-.813h-1.56c-.156 0-.297.016-.437.016H2.11v-3.14zm0 0"/></symbol><symbol id="y" overflow="visible"><path d="M2.11-8.297H1.077V0H2.11zm0 0"/></symbol><symbol id="z" overflow="visible"><path d="M1.11-8.297V0h3.093C5.875 0 7.11-1.078 7.11-2.25c0-1.047-1.03-1.89-2.265-2.094 1.39-.375 1.937-1.172 1.937-1.875 0-1.078-1.218-2.078-2.906-2.078zm.968 3.625v-2.953h1.469c1.281 0 2.312.625 2.312 1.422 0 .844-1.03 1.531-2.296 1.531zm0 4v-3.281h1.594c1.547 0 2.5.86 2.5 1.687 0 .844-.969 1.594-2.313 1.594zm0 0"/></symbol><symbol id="A" overflow="visible"><path d="M7.11-8.297H6.077v3.625H2.11v-3.625H1.08V0h1.03v-3.953h3.97V0h1.03zm0 0"/></symbol><symbol id="u" overflow="visible"><path d="M1.719-1.813c-.516 0-.938.422-.938.97a.94.94 0 00.938.937.944.944 0 00.953-.938.96.96 0 00-.953-.969zm0 0"/></symbol><symbol id="B" overflow="visible"><path d="M.938-5h.218l.438-2.672c.015-.078.015-.156.015-.234 0-.407-.203-.625-.562-.625s-.563.219-.563.625c0 .078 0 .156.016.234zm0 0"/></symbol><symbol id="C" overflow="visible"><path d="M2.063-5.828c-.516 0-.922.406-.922.937s.406.954.921.954S3-4.36 3-4.891s-.422-.937-.938-.937zM.813 2.094C2.155 1.938 3.03.938 3.03-.281c0-.781-.406-1.266-1.078-1.266-.5 0-.812.328-.812.813 0 .265.078.468.25.656h.718v.094c0 .828-.453 1.375-1.296 1.53zm0 0"/></symbol><symbol id="D" overflow="visible"><path d="M.375 2.094C1.75 1.938 2.625.938 2.625-.281c0-.781-.422-1.266-1.094-1.266-.484 0-.828.328-.828.813 0 .265.078.468.25.656h.75v.11c0 .827-.469 1.359-1.328 1.515zm0 0"/></symbol><path d="M17.715 6.754v96.336a4.983 4.983 0 004.984 4.984h362.086a4.983 4.983 0 004.985-4.984V6.754c0-2.75-2.23-4.98-4.985-4.98H22.7a4.982 4.982 0 00-4.984 4.98zm0 0" fill="#d4d4c8"/><path d="M17.715 6.754v96.336a4.983 4.983 0 004.984 4.984h167.203c2.75 0 4.98-2.23 4.98-4.984V6.754a4.98 4.98 0 00-4.98-4.98H22.7a4.982 4.982 0 00-4.984 4.98zm180.004-4.981v106.301h12.047V1.774zm0 0" fill="#ececd7"/><use x="31.566" xlink:href="#a" y="22.892"/><use x="65.788" xlink:href="#b" y="22.892"/><use x="103.137" xlink:href="#c" y="22.892"/><use x="137.993" xlink:href="#d" y="22.892"/><use x="173.443" xlink:href="#e" y="22.892"/><use x="32.181" xlink:href="#f" y="58.326"/><use x="66.874" xlink:href="#g" y="58.326"/><use x="102.532" xlink:href="#h" y="58.326"/><use x="137.522" xlink:href="#i" y="58.326"/><use x="173.298" xlink:href="#j" y="58.326"/><use x="31.856" xlink:href="#k" y="93.759"/><use x="66.836" xlink:href="#l" y="93.759"/><use x="101.982" xlink:href="#m" y="93.759"/><use x="137.83" xlink:href="#n" y="93.759"/><use x="171.672" xlink:href="#o" y="93.759"/><path d="M212.602 6.754v96.336a4.982 4.982 0 004.98 4.984h167.203a4.983 4.983 0 004.985-4.984V6.754c0-2.75-2.23-4.98-4.985-4.98H217.582a4.98 4.98 0 00-4.98 4.98zm0 0" fill="#ececd7"/><use x="226.447" xlink:href="#p" y="22.893"/><use x="262.424" xlink:href="#q" y="22.893"/><use x="296.864" xlink:href="#r" y="22.893"/><use x="332.629" xlink:href="#s" y="22.893"/><use x="369.301" xlink:href="#t" y="22.893"/><use x="228.587" xlink:href="#u" y="58.326"/><use x="261.645" xlink:href="#v" y="58.326"/><use x="297.314" xlink:href="#w" y="58.326"/><use x="333.127" xlink:href="#x" y="58.326"/><use x="370.456" xlink:href="#y" y="58.326"/><use x="226.43" xlink:href="#z" y="93.759"/><use x="261.645" xlink:href="#A" y="93.759"/><use x="300.135" xlink:href="#B" y="93.909"/><use x="334.582" xlink:href="#C" y="93.445"/><use x="370.32" xlink:href="#D" y="93.445"/><path d="M17.715 6.754v96.336a4.983 4.983 0 004.984 4.984h362.086a4.983 4.983 0 004.985-4.984V6.754c0-2.75-2.23-4.98-4.985-4.98H22.7a4.982 4.982 0 00-4.984 4.98zm0 30.453h177.168M17.715 72.64h177.168" fill="none" stroke="#d4d4c8" stroke-miterlimit="10" stroke-width="1.993"/><g clip-path="url(#E)"><path d="M53.148 1.773v106.301" fill="none" stroke="#d4d4c8" stroke-miterlimit="10" stroke-width="1.993"/></g><g clip-path="url(#F)"><path d="M88.582 1.773v106.301" fill="none" stroke="#d4d4c8" stroke-miterlimit="10" stroke-width="1.993"/></g><g clip-path="url(#G)"><path d="M124.016 1.773v106.301" fill="none" stroke="#d4d4c8" stroke-miterlimit="10" stroke-width="1.993"/></g><g clip-path="url(#H)"><path d="M159.45 1.773v106.301" fill="none" stroke="#d4d4c8" stroke-miterlimit="10" stroke-width="1.993"/></g><path d="M212.602 37.207H389.77M212.602 72.64H389.77" fill="none" stroke="#d4d4c8" stroke-miterlimit="10" stroke-width="1.993"/><g clip-path="url(#I)"><path d="M248.035 1.773v106.301" fill="none" stroke="#d4d4c8" stroke-miterlimit="10" stroke-width="1.993"/></g><g clip-path="url(#J)"><path d="M283.469 1.773v106.301" fill="none" stroke="#d4d4c8" stroke-miterlimit="10" stroke-width="1.993"/></g><g clip-path="url(#K)"><path d="M318.902 1.773v106.301" fill="none" stroke="#d4d4c8" stroke-miterlimit="10" stroke-width="1.993"/></g><g clip-path="url(#L)"><path d="M354.336 1.773v106.301" fill="none" stroke="#d4d4c8" stroke-miterlimit="10" stroke-width="1.993"/></g></svg>