<?xml version="1.0" encoding="UTF-8" standalone="no"?>
<!-- Created with Inkscape (http://www.inkscape.org/) -->

<svg
   xmlns:dc="http://purl.org/dc/elements/1.1/"
   xmlns:cc="http://creativecommons.org/ns#"
   xmlns:rdf="http://www.w3.org/1999/02/22-rdf-syntax-ns#"
   xmlns:svg="http://www.w3.org/2000/svg"
   xmlns="http://www.w3.org/2000/svg"
   xmlns:sodipodi="http://sodipodi.sourceforge.net/DTD/sodipodi-0.dtd"
   xmlns:inkscape="http://www.inkscape.org/namespaces/inkscape"
   version="1.0"
   width="307.75604"
   height="86.490784"
   viewBox="0 0 1.0397164 1.1700593"
   id="body"
   sodipodi:version="0.32"
   inkscape:version="0.92.2 5c3e80d, 2017-08-06"
   sodipodi:docname="SNES_logo.svg"
   inkscape:output_extension="org.inkscape.output.svg.inkscape">
  <metadata
     id="metadata3313">
    <rdf:RDF>
      <cc:Work
         rdf:about="">
        <dc:format>image/svg+xml</dc:format>
        <dc:type
           rdf:resource="http://purl.org/dc/dcmitype/StillImage" />
        <dc:title>SVG drawing</dc:title>
      </cc:Work>
    </rdf:RDF>
  </metadata>
  <sodipodi:namedview
     inkscape:window-height="778"
     inkscape:window-width="1339"
     inkscape:pageshadow="2"
     inkscape:pageopacity="0.0"
     guidetolerance="10.0"
     gridtolerance="10.0"
     objecttolerance="10.0"
     borderopacity="1.0"
     bordercolor="#666666"
     pagecolor="#ffffff"
     id="base"
     inkscape:zoom="2.3817568"
     inkscape:cx="145.90071"
     inkscape:cy="44.097592"
     inkscape:window-x="22"
     inkscape:window-y="22"
     inkscape:current-layer="body"
     showgrid="false"
     inkscape:window-maximized="0"
     fit-margin-top="0"
     fit-margin-left="0"
     fit-margin-right="0"
     fit-margin-bottom="0"
     inkscape:snap-global="false" />
  <defs
     id="defs2260" />
  <title
     id="title2161">SVG drawing</title>
  <desc
     id="desc2163">This was produced by version 4.2 of GNU libplot, a free library for exporting 2-D vector graphics.</desc>
  <rect
     style="opacity:1;fill:#ffffff;fill-opacity:1;stroke:none;stroke-width:0.02705628;stroke-miterlimit:4;stroke-dasharray:none;stroke-dashoffset:0;stroke-opacity:1"
     id="rect4505"
     width="4.1406474"
     height="1.1643795"
     x="-1.5504652"
     y="-0.0056798295" />
  <path
     d="m -1.2737451,0.08448749 c -0.037546,0 -0.074042,0.03086239 -0.080747,0.06911392 v 6.8429e-4 6.8429e-4 6.8427e-4 l -6.842e-4,6.8428e-4 v 0.001369 6.8428e-4 l -6.843e-4,0.001369 v 0.001369 l -6.844e-4,0.001369 v 0.002053 l -6.843e-4,0.001369 v 0.002053 l -6.844e-4,0.002053 -6.842e-4,0.002053 -6.843e-4,0.004106 -0.00137,0.00479 -6.842e-4,0.00479 -0.00137,0.00479 -6.845e-4,0.005474 -0.00137,0.005474 -0.00137,0.006159 -0.00137,0.005474 -0.00205,0.011633 -0.00137,0.006159 -0.00137,0.005474 -6.843e-4,0.005474 -0.00137,0.005474 -0.00137,0.005474 -6.842e-4,0.005474 -6.844e-4,0.00479 -0.00137,0.004106 -6.845e-4,0.00479 v 0.002053 l -6.841e-4,0.001369 v 0.002053 0.001369 l -6.843e-4,0.002053 v 0.001369 0.001369 l -6.843e-4,0.001369 v 6.843e-4 6.843e-4 c -7.059e-4,0.0167262 0.00162,0.0395605 0.00684,0.043795 0.00663,0.03684 0.1294394,0.20737352 0.1259106,0.23334493 -0.00332,0.0260421 -0.017792,0.10264439 -0.017792,0.10264439 -0.00445,0.0258305 -0.02207,0.0465321 -0.047901,0.0465321 -0.02583,10e-8 -0.043451,-0.0206311 -0.039005,-0.0465321 l 0.023266,-0.12727896 h -0.091696 l -0.030793,0.1765483 c -0.00628,0.0358521 0.017996,0.0643239 0.054059,0.0643239 h 0.1307007 c 0.036205,0 0.070692,-0.0284717 0.077326,-0.0643239 0,0 0.033672,-0.16490347 0.03353,-0.1765483 -1.411e-4,-0.0117154 -0.00342,-0.0130017 -0.00342,-0.0130017 0,-0.0134092 -0.1092853,-0.19379409 -0.1204361,-0.20049872 -0.0048,-0.002823 -0.00875,-0.0206797 -0.0089,-0.0314776 -2.117e-4,-0.0107274 0.01437,-0.0827998 0.01437,-0.0827998 0.00445,-0.0258304 0.028913,-0.0465322 0.054744,-0.0465322 0.02583,0 0.036608,0.0207018 0.032162,0.0465322 l -0.019845,0.11427743 h 0.09238 l 0.032162,-0.17175833 c 0.00727,-0.0382515 -0.017198,-0.06911392 -0.054744,-0.06911392 z m 0.2518209,0 -0.1094873,0.630921 c -0.00628,0.0358521 0.017996,0.0643239 0.054059,0.0643239 h 0.13070068 c 0.0362048,0 0.0713051,-0.0284718 0.0780097,-0.0643239 l 0.11701465,-0.630921 h -0.0821155 l -0.11154026,0.61312935 c -0.001623,0.008892 -0.010268,0.0164231 -0.0191604,0.0164231 h -0.0650082 c -0.0091,0 -0.015168,-0.00746 -0.013686,-0.0164231 l 0.10880312,-0.61312935 z m 0.31477637,0 -0.13206911,0.69524488 h 0.0875899 l 0.0602181,-0.31477628 h 0.11154026 c 0.0362755,0 0.0706914,-0.0286836 0.0773255,-0.0643238 l 0.0479007,-0.24703091 c 0.007199,-0.038322 -0.0171979,-0.06911392 -0.0547437,-0.06911392 h -0.11017169 z m 0.31272338,0 -0.13685923,0.69524488 h 0.1970773 l 0.0136859,-0.0862213 h -0.0971701 l 0.0396892,-0.23471365 h 0.0971701 l 0.0136859,-0.0725354 h -0.0971701 l 0.0431107,-0.21555329 h 0.0971701 l 0.0136859,-0.08622131 z m 0.23539787,0 -0.13138485,0.69524488 h 0.0875899 l 0.0595338,-0.31477628 h 0.062271 c 0.008187,0.007622 0.009135,0.021683 0.0102644,0.0287406 0.001623,0.0102331 0.003323,0.0232971 0.002053,0.0335304 -0.001129,0.0101629 -0.0479007,0.2525053 -0.0479007,0.2525053 h 0.0875899 c 0,0 0.04926932,-0.26400962 0.04926932,-0.26824416 1.4124e-4,-0.004305 8.98e-6,-0.017838 -0.0047901,-0.0253189 -0.003176,-0.004799 -0.0087027,-0.0158218 -0.0150545118,-0.0198447 C -0.01179503,0.45849063 -0.02558869,0.45332313 -0.02558869,0.45332313 h -0.0061586 c 0.02505398,-0.00988 0.07231465,-0.0261548 0.07732552,-0.0526908 L 0.09347877,0.15360141 C 0.10074804,0.11527937 0.07628086,0.08448749 0.03873501,0.08448749 Z m 0.46874285,0 -0.13206917,0.69524488 h 0.10059162 l 0.0814312,-0.40305041 0.0321619,0.40305041 h 0.08759 L 0.61149096,0.08448749 H 0.51089938 L 0.44246979,0.44784884 0.39730625,0.08448749 Z m 0.34762251,0 L 0.5252696,0.77973237 H 0.6128595 L 0.74492864,0.08448749 Z m 0.13343768,0 -0.13206911,0.69524488 h 0.10127583 l 0.0814313,-0.40305041 0.0321619,0.40305041 h 0.0875899 L 1.0932353,0.08448749 H 0.99195961 L 0.92421428,0.44784884 0.8790507,0.08448749 Z m 0.33941084,0 -0.016423,0.08622131 h 0.054744 L 1.060389,0.77973237 H 1.160296 L 1.270468,0.1707088 H 1.323159 L 1.336845,0.08448749 Z m 0.2408723,0 -0.1368594,0.69524488 h 0.1970773 l 0.013686,-0.0862213 h -0.09717 l 0.040373,-0.23471365 h 0.09717 l 0.013686,-0.0725354 h -0.09717 l 0.042426,-0.21555329 h 0.09717 l 0.013686,-0.08622131 z m 0.2223963,0 -0.1320693,0.69524488 h 0.1012759 l 0.081431,-0.40305041 0.032162,0.40305041 h 0.08759 L 1.8959146,0.08448749 H 1.7946387 L 1.7268936,0.44784884 1.6817299,0.08448749 Z m 0.3483066,0 -0.1320692,0.69524488 h 0.1998145 c 0.036276,0 0.071305,-0.028472 0.07801,-0.0643239 L 2.1935835,0.15360141 c 0.0072,-0.038322 -0.017198,-0.06911392 -0.054744,-0.06911392 z m 0.3756786,0 c -0.037546,-1e-7 -0.073358,0.03086239 -0.080063,0.06911392 l -0.097854,0.56180708 c -0.00635,0.0358519 0.017383,0.0643239 0.053375,0.0643239 h 0.1443866 c 0.036205,0 0.071305,-0.028472 0.07801,-0.0643239 L 2.5213613,0.15360141 C 2.5286307,0.11534997 2.5040926,0.08448749 2.4666177,0.08448749 Z M 2.0163509,0.16455014 h 0.040373 c 0.025831,0 0.043451,0.0207018 0.039005,0.0465322 l -0.086221,0.45505684 c -0.00452,0.0258305 -0.029598,0.0472165 -0.055428,0.0472165 h -0.039689 z m 0.3524125,0 h 0.00274 c 0.025831,0 0.042766,0.0207018 0.038321,0.0465322 l -0.082116,0.45505684 c -0.00445,0.0257599 -0.028229,0.0472165 -0.054059,0.0472165 -0.025829,2e-7 -0.036608,-0.021386 -0.032162,-0.0472165 l 0.081431,-0.45505684 6.842e-4,-0.002053 6.843e-4,-0.002053 6.843e-4,-0.002737 6.843e-4,-0.002053 6.842e-4,-0.002737 6.843e-4,-0.002053 6.843e-4,-0.002053 0.00137,-0.002053 6.843e-4,-0.002053 0.00137,-0.002053 6.843e-4,-0.002053 0.00137,-0.002053 0.00137,-0.001369 0.00137,-0.002053 0.00137,-0.002053 0.00205,-0.001369 0.00137,-0.001369 0.00137,-0.001369 0.00205,-0.001369 0.00205,-0.001369 0.00137,-0.001369 0.00205,-0.001369 0.00205,-6.8429e-4 0.00205,-0.001369 0.00137,-6.8429e-4 0.00274,-6.8438e-4 0.00205,-6.8429e-4 h 0.00205 l 0.00205,-6.8427e-4 h 0.00274 z m -2.99174277,0.002737 h 0.0424264 c 0.009316,-1e-7 0.0290657,0.0213362 0.0273718,0.0307932 l -0.0362677,0.17175837 c -0.001694,0.008893 -0.0136893,0.0294247 -0.0225818,0.0294247 h -0.0513222 -6.8428e-4 -6.8433e-4 l -6.8428e-4,-6.8429e-4 h -6.8429e-4 -6.843e-4 -6.843e-4 -6.843e-4 v -6.843e-4 h -6.8428e-4 -6.843e-4 l -6.843e-4,-6.8431e-4 h -6.8429e-4 l -6.843e-4,-6.8429e-4 -6.843e-4,-6.843e-4 h -6.843e-4 v -6.8429e-4 l -6.8429e-4,-6.8429e-4 -6.8429e-4,-6.843e-4 V 0.393105 l -6.8431e-4,-6.843e-4 -6.8429e-4,-6.8429e-4 V 0.3910521 0.39036782 l -6.8429e-4,-6.843e-4 v -6.8424e-4 -6.8429e-4 l -6.8429e-4,-6.8429e-4 v -6.843e-4 c -1e-7,-0.001129 -1.4117e-4,-0.002835 0,-0.004106 l 0.0410578,-0.21007887 c 0.003741,-0.003105 0.008344,-0.005474 0.0130016,-0.005474 z m 0.54538405,0 h 6.8428e-4 6.843e-4 6.843e-4 6.843e-4 0.03968917 c 0.0093158,-1e-7 0.02920684,0.0213362 0.02737183,0.0307932 l -0.03626768,0.17107432 c -0.001623,0.008963 -0.02388335,0.030109 -0.03284622,0.030109 h -0.0376363 c -0.007763,0 -0.0131213,-0.005119 -0.0136859,-0.0123173 0,-0.001129 -1.4121e-4,-0.002765 0,-0.004106 l 0.0403735,-0.21007887 6.8428e-4,-6.844e-4 6.8429e-4,-6.8426e-4 0.001369,-6.8429e-4 h 6.8429e-4 l 6.8429e-4,-6.8428e-4 6.843e-4,-6.8429e-4 h 6.843e-4 l 6.8428e-4,-6.8429e-4 h 6.8432e-4 l 0.001369,-6.8427e-4 h 6.843e-4 6.8429e-4 6.8431e-4 z M -1.4680852,0.83995045 V 1.0678211 H 2.4378772 V 0.83995045 Z m 2.8713067,0.0239504 h 6.843e-4 6.843e-4 6.843e-4 6.843e-4 6.842e-4 0.030109 c 0.00812,0 0.01394,0.006508 0.012317,0.0150544 l -0.00753,0.0383207 h -0.018476 l 0.00411,-0.025319 c 9.175e-4,-0.00573 -0.00242,-0.0102645 -0.00821,-0.0102645 -0.00572,0 -0.011329,0.004506 -0.012317,0.0102645 l -0.00342,0.018476 c -5.645e-4,0.001101 0.00114,0.006293 0.00205,0.006843 0.00254,0.001461 0.026687,0.0415011 0.026687,0.0444792 5.649e-4,0.001489 8.961e-4,0.002187 6.843e-4,0.002737 -7.061e-4,0.005018 -0.00753,0.0390049 -0.00753,0.0390049 -0.00148,0.00781 -0.00906,0.01437 -0.017108,0.01437 h -0.02874 c -0.00797,0 -0.013114,-0.00656 -0.011633,-0.01437 l 0.00684,-0.0390049 h 0.019845 l -0.00479,0.0280561 c -9.176e-4,0.005731 0.00242,0.0109488 0.00821,0.0109488 0.00551,0 0.0114,-0.00519 0.012317,-0.0109488 l 0.00411,-0.0225818 c -0.00367,-0.00945 -0.027872,-0.0438202 -0.029425,-0.0520065 -0.00106,-9.1066e-4 -0.00151,-0.005854 -0.00137,-0.00958 2.12e-4,-0.004079 0.00547,-0.0294243 0.00547,-0.0294248 h 6.843e-4 v -6.842e-4 -6.8431e-4 -6.8439e-4 l 6.842e-4,-0.001368 v -6.8429e-4 l 6.843e-4,-6.8441e-4 v -6.8429e-4 l 6.843e-4,-6.8421e-4 v -6.843e-4 l 6.843e-4,-6.843e-4 6.843e-4,-6.8431e-4 v -6.8429e-4 h 6.843e-4 l 6.843e-4,-6.8431e-4 6.843e-4,-6.8439e-4 6.843e-4,-6.8421e-4 v -6.843e-4 h 6.842e-4 l 6.843e-4,-6.843e-4 6.844e-4,-6.8431e-4 h 6.842e-4 l 6.844e-4,-6.843e-4 h 6.843e-4 l 6.843e-4,-6.843e-4 h 6.842e-4 0.00137 z m 0.1573881,0 h 0.024635 l 0.00342,0.0581652 0.031478,-0.0581652 h 0.024635 l -0.050638,0.0889585 -0.012317,0.0650081 h -0.021898 l 0.010949,-0.0697982 z m 0.2237647,0 h 6.844e-4 6.843e-4 6.842e-4 6.844e-4 6.844e-4 0.030109 c 0.00812,0 0.0138,0.006508 0.012317,0.0150544 l -0.00753,0.0383207 H 1.804216 l 0.00411,-0.025319 c 9.175e-4,-0.00573 -0.00242,-0.0102645 -0.00821,-0.0102645 -0.00572,0 -0.0114,0.004506 -0.012317,0.0102645 l -0.00342,0.018476 c -7.054e-4,0.001101 9.24e-4,0.006293 0.00205,0.006843 0.0024,0.001461 0.026688,0.0415011 0.026688,0.0444792 7.054e-4,0.001489 6.843e-4,0.002187 6.843e-4,0.002737 -9.181e-4,0.005018 -0.00684,0.0390049 -0.00684,0.0390049 -0.00148,0.00781 -0.00913,0.01437 -0.017108,0.01437 h -0.029425 c -0.00797,0 -0.013115,-0.00656 -0.011633,-0.01437 l 0.00684,-0.0390049 h 0.019845 l -0.00479,0.0280561 c -9.177e-4,0.005731 0.00264,0.0109488 0.00821,0.0109488 0.00572,0 0.011188,-0.00519 0.012318,-0.0109488 l 0.00411,-0.0225818 c -0.00374,-0.00945 -0.027872,-0.0438202 -0.029425,-0.0520065 -0.00106,-9.1066e-4 -0.00151,-0.005854 -0.00137,-0.00958 2.117e-4,-0.004079 0.00547,-0.0294243 0.00547,-0.0294248 l 6.843e-4,-6.842e-4 v -6.8431e-4 -6.8439e-4 l 6.844e-4,-0.001368 v -6.8429e-4 l 6.842e-4,-6.8441e-4 v -6.8429e-4 l 6.843e-4,-6.8421e-4 v -6.843e-4 l 6.842e-4,-6.843e-4 6.845e-4,-6.8431e-4 v -6.8429e-4 h 6.842e-4 l 6.843e-4,-6.8431e-4 6.843e-4,-6.8439e-4 6.842e-4,-6.8421e-4 6.844e-4,-6.843e-4 6.842e-4,-6.843e-4 6.842e-4,-6.8431e-4 h 6.844e-4 l 6.843e-4,-6.843e-4 h 6.843e-4 l 6.843e-4,-6.843e-4 h 6.843e-4 0.00137 z m 0.1594412,0 h 0.045848 l -0.00342,0.018476 h -0.011633 l -0.02395,0.13549065 h -0.022582 l 0.02395,-0.13549065 h -0.011633 z m 0.1792856,0 h 0.041058 l -0.00342,0.018476 h -0.021213 l -0.00958,0.0485851 h 0.021897 l -0.00342,0.0157387 h -0.021213 l -0.0089,0.0520065 h 0.021213 l -0.00274,0.01916 h -0.043795 z m 0.1690209,0 h 0.025319 l 0.00411,0.0889585 0.039005,-0.0882742 0.024635,-6.843e-4 L 2.359188,1.0178675 H 2.340028 L 2.352345,0.93643628 2.31813,1.0178675 H 2.304444 L 2.300334,0.9343835 2.285279,1.0178675 H 2.262697 Z m -3.6753545,0.005474 h 0.040373 l -0.00274,0.0191602 h -0.021898 l -0.0089,0.0479007 h 0.021213 l -0.00274,0.0164231 h -0.021897 l -0.00821,0.0520065 h 0.021213 l -0.00342,0.01916 h -0.043795 z m 0.1888657,0 h 0.01916 l 0.010264,0.0807469 0.015055,-0.0807469 h 0.022582 l -0.029425,0.15465095 h -0.01916 l -0.00753,-0.0896427 -0.017792,0.0896427 h -0.022582 z m 0.20528893,0 h 0.0451636 l -0.002737,0.0191602 h -0.011633 l -0.0246348,0.13549065 h -0.021897 l 0.02395,-0.13549065 h -0.012317 z m 0.19913025,0 h 0.0410578 l -0.003422,0.0191602 h -0.0212132 l -0.00958,0.0479007 h 0.0212132 l -0.002737,0.0164231 h -0.0212132 l -0.008896,0.0520065 h 0.0212132 l -0.002737,0.01916 h -0.043795 z m 0.19297151,0 h 0.043795 c 0.008116,-1e-7 0.0132563,0.007193 0.011633,0.0157387 l -0.0102644,0.0547438 c -0.001129,0.005928 -0.011532,0.0107646 -0.0171074,0.0130016 h 0.001369 6.843e-4 6.843e-4 v 6.8421e-4 h 6.8429e-4 6.8431e-4 6.8428e-4 6.843e-4 l 6.843e-4,6.8431e-4 h 6.8429e-4 6.843e-4 6.8431e-4 v 6.8429e-4 h 6.8429e-4 6.8428e-4 v 6.8431e-4 h 6.8431e-4 c 9.1747e-4,0.001659 0.001369,0.006589 0.001369,0.007527 0,9.1016e-4 -0.0109487,0.0609028 -0.0109487,0.0609024 h -0.0198446 c 0,0 0.0105958,-0.0538749 0.0109487,-0.0561122 2.1178e-4,-0.0024 -2.6087e-4,-0.005289 -6.843e-4,-0.007527 -1.4113e-4,-0.001651 -2.1792e-4,-0.004479 -0.002053,-0.006159 h -0.0136859 l -0.0130016,0.0697983 h -0.0198446 z m 0.19570871,0 h 0.0458478 l -0.002737,0.0191602 H -0.3697897 L -0.3944243,1.0240257 h -0.0218975 l 0.0239504,-0.13549065 h -0.0123173 z m 0.22787061,0 h 0.0260032 l -0.008212,0.15465095 h -0.0260033 l 0.003421,-0.0355834 h -0.0157388 l -0.0130017,0.0355834 h -0.023266 z m 0.18202277,0 H 0.02847057 L -9.5418178e-4,1.0240258 H -0.02011446 Z m 0.17654845,0 h 0.0191603 l 0.0102644,0.0807469 0.0150546,-0.0807469 h 0.0218974 L 0.22281073,1.0240258 h -0.0198446 l -0.006843,-0.0896427 -0.0177917,0.0896427 h -0.0225818 z m 0.22650202,0 h 0.0253189 l 0.004106,0.0896428 0.0390049,-0.0889584 h 0.0246346 L 0.47873743,1.0240261 H 0.45957723 L 0.47189453,0.9425949 0.43767973,1.0240261 H 0.42399383 L 0.41988783,0.940542 0.40483333,1.0240261 h -0.0218975 z m 0.24839946,0 h 0.0403735 l -0.002737,0.0191602 h -0.0218975 l -0.008896,0.0479007 h 0.0212132 l -0.002737,0.0164231 h -0.0218977 l -0.008896,0.0520065 h 0.0218975 l -0.003422,0.01916 h -0.0431107 z m 0.19844594,0 h 0.0191603 l 0.0102644,0.0807469 0.0150545,-0.0807469 h 0.0218975 L 0.89615805,1.0240258 h -0.0191603 l -0.007527,-0.0896427 -0.0177917,0.0896427 h -0.0225818 z m 0.20323575,0 h 0.045848 l -0.00342,0.0191602 h -0.011633 l -0.02395,0.13549065 h -0.021897 l 0.02395,-0.13549065 h -0.012317 z m -1.6402577,0.018476 c -0.001058,0 -0.001961,6.2755e-4 -0.002737,0.001369 l -0.008896,0.0465321 c 5e-8,3.598e-4 0,3.0346e-4 0,6.8431e-4 5e-8,0.001489 0.001043,0.002737 0.002737,0.002737 h 0.008212 c 0.002047,0 0.007174,-0.004119 0.007527,-0.006159 l 0.007527,-0.0383206 c 3.529e-4,-0.002202 -0.003428,-0.006843 -0.005474,-0.006843 z m 0.40510331,0.0465322 -0.0143702,0.0390048 h 0.0109487 z"
     style="font-style:normal;font-variant:normal;font-weight:normal;font-stretch:normal;letter-spacing:normal;word-spacing:normal;text-anchor:start;fill:#fc0c18;fill-opacity:1;fill-rule:nonzero;stroke:#fc0c18;stroke-width:0;stroke-linecap:butt;stroke-linejoin:miter;stroke-miterlimit:10.43299961;stroke-dasharray:none;stroke-dashoffset:0;stroke-opacity:1"
     id="polyline2177"
     inkscape:connector-curvature="0" />
</svg>
