<svg height="226.772" viewBox="0 0 496.063 170.079" width="661.417" xmlns="http://www.w3.org/2000/svg" xmlns:xlink="http://www.w3.org/1999/xlink"><clipPath id="C"><path d="M382 32h114.063v131H382zm0 0"/></clipPath><symbol id="a" overflow="visible"><path d="M4.734-11.672L.844-1l-1.031.156V0h3.703v-.844L2.422-.969l-.172-.219 1.031-2.906h3.766l1.031 2.922-.125.219-1.078.11V0h4.64v-.844L10.5-1.016 6.547-11.672zm.375 2.36l1.532 4.25H3.609zm0 0"/></symbol><symbol id="b" overflow="visible"><path d="M7.984-.781V-2c-.843.516-1.64.781-2.39.781-1.594 0-2.657-1.218-2.657-3.297 0-1.953 1.063-3.203 2.266-3.203.125 0 .25.016.422.063v1.812c.313.235.64.328 1.016.328.75 0 1.25-.5 1.25-1.171 0-1.047-1.079-1.875-2.844-1.875C2.469-8.563.609-6.72.609-4.095.609-1.595 2.234.14 4.734.14c1.11 0 2.157-.313 3.25-.922zm0 0"/></symbol><symbol id="c" overflow="visible"><path d="M2.828-12.719l-2.547.797v.672h1.25v10.14l-.234.266-.89.063V0h4.265v-.781l-.766-.063-.25-.265v-5.672c.656-.188 1.203-.297 1.64-.297 1.079 0 1.563.594 1.563 1.86v4.109l-.25.265-.734.063V0h4.219v-.781l-.922-.063-.219-.265v-4.61c0-1.906-.781-2.86-2.36-2.86-.78 0-1.702.376-2.937 1.048v-5.188zm0 0"/></symbol><symbol id="d" overflow="visible"><path d="M5.094-8.594C2.39-8.594.64-6.828.64-4.188.64-1.578 2.375.141 4.953.141c2.719 0 4.469-1.735 4.469-4.297 0-2.735-1.688-4.438-4.328-4.438zm-.063.922c1.219 0 2.016 1.219 2.016 3.469 0 2.234-.766 3.422-2.031 3.422C3.812-.781 3.03-2 3.03-4.25c0-2.219.781-3.422 2-3.422zm0 0"/></symbol><symbol id="e" overflow="visible"><path d="M.5 0h4.75v-.781L4.031-.844l-.265-.265v-4.938c.546-.328.953-.484 1.234-.484.5 0 .86.187 1.11.625h.906l.218-2.375c-.375-.188-.765-.297-1.14-.297-.125 0-.25.015-.375.031-.703.5-1.39 1.094-2.016 1.766l.063-1.766h-.829l-2.53.813v.687h1.25v5.938l-.25.265L.5-.78zm0 0"/></symbol><symbol id="f" overflow="visible"><path d="M6.703-11.234v2.796a8.222 8.222 0 00-1.625-.171C2.468-8.61.641-6.766.641-4 .64-1.516 2.047.156 3.984.156c.875 0 1.735-.39 2.72-1.125V0h3.218v-.75l-.875-.078-.25-.281v-11.61H8l-2.563.797v.688zm0 9.593c-.562.22-1.031.329-1.453.329-1.422 0-2.313-1.11-2.313-3.047 0-2.047 1.016-3.282 2.485-3.282.36 0 .781.079 1.281.25zm0 0"/></symbol><symbol id="g" overflow="visible"><path d="M2.797-12.469c-.719 0-1.25.547-1.25 1.297s.578 1.266 1.266 1.266c.718 0 1.265-.531 1.265-1.297 0-.719-.516-1.266-1.281-1.266zm.187 3.922l-2.437.813v.687h1.14v5.938l-.234.265-.937.063V0H5.03v-.781l-.968-.063-.25-.265v-7.438zm0 0"/></symbol><symbol id="h" overflow="visible"><path d="M.531 0h4.25v-.781l-.75-.063-.25-.265v-5.672c.656-.188 1.219-.297 1.64-.297 1.095 0 1.548.594 1.548 1.86v4.109l-.235.265-.75.063V0h4.22v-.781l-.907-.063-.219-.265v-4.61c0-1.906-.765-2.86-2.344-2.86-.765 0-1.718.376-2.953 1.048v-1.016H2.97l-2.485.813v.687h1.172v5.938l-.25.265-.875.063zm0 0"/></symbol><symbol id="i" overflow="visible"><path d="M.469-9.625v.578l.828.078.234.203v7.907l-.234.203-.828.062V0h3.484v-.594l-.89-.062-.235-.203v-3.86h4.938v3.86l-.25.203-.891.062V0h3.484v-.594l-.812-.062-.25-.203v-7.907l.25-.203.812-.078v-.578H6.625v.578l.89.078.25.203v3.391H2.829v-3.39l.235-.204.89-.078v-.578zm0 0"/></symbol><symbol id="j" overflow="visible"><path d="M3.86-7.047C1.921-7.047.53-5.594.53-3.453.531-1.328 1.937.125 3.86.125s3.344-1.453 3.344-3.578S5.797-7.047 3.86-7.047zm0 .625c1.156 0 2 1.11 2 2.969s-.844 2.969-2 2.969c-1.141 0-1.985-1.125-1.985-2.97 0-1.874.828-2.968 1.984-2.968zm0 0"/></symbol><symbol id="k" overflow="visible"><path d="M.406 0h3.36v-.516l-.829-.078-.25-.219v-9.75h-.546l-1.75.516v.453h1.093v8.781l-.234.22-.844.077zm0 0"/></symbol><symbol id="l" overflow="visible"><path d="M5.5-9.594v2.688a6.364 6.364 0 00-1.281-.157C2.03-7.063.516-5.516.516-3.233.516-1.22 1.719.125 3.28.125c.797 0 1.485-.281 2.219-.875V0h2.11v-.516l-.688-.078-.234-.219v-9.75H6.14l-1.75.516v.453zm0 8.313c-.531.328-1.047.5-1.563.5-1.296 0-2.156-1.016-2.156-2.688 0-1.797 1-2.953 2.453-2.953.344 0 .766.078 1.266.219zm0 0"/></symbol><symbol id="m" overflow="visible"><path d="M6.422-1.516c-.813.547-1.531.829-2.25.829-1.453 0-2.406-1.094-2.406-2.922v-.157h4.64c.016-.171.016-.312.016-.453 0-1.765-1.016-2.828-2.578-2.828C1.922-7.047.53-5.563.53-3.407.53-1.297 1.843.125 3.733.125c.907 0 1.829-.281 2.688-.86zM5.156-4.375H1.844c.078-1.219.89-2.016 1.812-2.016.969 0 1.5.625 1.5 1.782zm0 0"/></symbol><symbol id="n" overflow="visible"><path d="M-.078-6.906v.531l.875.094L3.109 0h.813l2.5-6.25.844-.125v-.531H4.734v.531l.782.063.109.234-1.844 4.687L2.11-6.078l.172-.234.766-.063v-.531zm0 0"/></symbol><symbol id="o" overflow="visible"><path d="M.438 0h3.14v-.516l-.687-.078-.25-.219v-4.812c.609-.313 1.14-.469 1.609-.469 1.063 0 1.438.422 1.438 1.469v3.813l-.235.218-.687.078V0h3.14v-.516l-.781-.078-.234-.219v-4.046c0-1.438-.688-2.188-1.938-2.188-.625 0-1.36.328-2.312.86v-.782h-.547l-1.656.516v.437h1.015v5.204l-.25.218-.766.078zm0 0"/></symbol><symbol id="p" overflow="visible"><path d="M1.266-6.031v4.625c0 1.015.296 1.453 1.484 1.453.563 0 1.203-.11 1.89-.313v-.53a5.62 5.62 0 01-1 .109c-1 0-1.187-.47-1.187-1.563v-3.781h2.188v-.688H2.453v-1.515h-.531l-.61 1.328-.953.422v.453zm0 0"/></symbol><symbol id="q" overflow="visible"><path d="M.422 0h3.344v-.516l-.891-.078-.25-.219V-6.03h2.016v-.688h-2v-1.047c0-1.203.312-1.937.937-2.234l1.297.86c.375-.094.594-.376.594-.72 0-.453-.469-.812-1.125-.812-1.688 0-2.907 1.422-2.907 3.797v.156L.516-6.5v.469h.921v5.218l-.265.22-.75.077zm0 0"/></symbol><symbol id="r" overflow="visible"><path d="M.438 0H3.89v-.516l-1-.078-.25-.219v-4.109c.593-.687 1.093-1.047 1.562-1.047.297 0 .547.11.734.344h.454v-1.234a2.19 2.19 0 00-.86-.188c-.11 0-.25 0-.36.031-.515.422-1.03.875-1.53 1.391v-1.344h-.547l-1.656.516v.437h1.015v5.204l-.266.218-.75.078zm0 0"/></symbol><symbol id="s" overflow="visible"><path d="M6.516-6.078c-.329-.64-.875-.969-1.579-.969-.609 0-1.359.313-2.296.86v-.782h-.547l-1.656.516v.437h1.015v5.204l-.25.218-.766.078V0h3.141v-.516l-.687-.078-.25-.219v-4.812c.625-.313 1.156-.469 1.64-.469.86 0 1.25.469 1.25 1.469v3.813l-.234.218-.688.078V0h3.047v-.516l-.672-.078-.25-.219v-4.812c.61-.297 1.157-.469 1.61-.469.89 0 1.297.469 1.297 1.469v3.813l-.266.218-.672.078V0h3.125v-.516l-.75-.078-.25-.219v-4.046c0-1.422-.719-2.188-1.844-2.188-.578 0-1.39.328-2.468.969zm0 0"/></symbol><symbol id="t" overflow="visible"><path d="M5.938.156c2.468-.406 4-2.312 4-4.984 0-1.563-.516-2.875-1.485-3.813-.86-.812-1.969-1.25-3.203-1.25s-2.328.438-3.188 1.25c-.984.938-1.5 2.25-1.5 3.813 0 2.687 1.547 4.61 4.016 4.984 0 1.61.906 2.375 2.719 2.375.594 0 1.266-.078 2.031-.234v-.594a5.667 5.667 0 01-1.36.156c-1.312 0-1.984-.562-2.03-1.703zM5.25-.563c-1.875 0-3.172-1.625-3.172-4.265 0-2.703 1.281-4.281 3.172-4.281S8.422-7.5 8.422-4.83c0 2.641-1.281 4.266-3.172 4.266zm0 0"/></symbol><symbol id="u" overflow="visible"><path d="M.438 0h3.03v-.594l-.874-.11-.25-.265v-7.843L5.609 0h.61l3.406-8.953V-.86l-.14.203-.954.062V0h3.438v-.594l-.906-.062-.172-.203v-7.907l.171-.203.907-.078v-.578H8.89v.438L6.17-2.032l-2.7-7.202v-.391H.438v.578l.937.078.188.203v7.797l-.25.266-.875.11zm0 0"/></symbol><symbol id="v" overflow="visible"><path d="M.469 0h3.484v-.594l-.89-.062-.235-.203v-3.422h1.063L6.625-.438V0H9v-.594L7.953-.656 4.687-5.328l3.016-3.594.953-.125v-.578H5.672v.578l.797.078.093.203-3.187 3.891h-.547v-3.89l.235-.204.89-.078v-.578H.47v.578l.828.078.234.203v7.907l-.234.203-.828.062zm0 0"/></symbol><symbol id="w" overflow="visible"><path d="M8.438-.328v-2.266h-.813L7.312-1l-.234.219a3.89 3.89 0 01-1.234.187c-2.328 0-3.75-1.594-3.75-4.328 0-2.562 1.39-4.11 3.531-4.11a3.68 3.68 0 011.61.376l.187.25.203 1.312h.813v-2.218c-1.047-.329-2-.485-2.844-.485-2.985 0-4.985 2-4.985 4.985 0 1.875.954 3.53 2.485 4.406.672.375 1.5.578 2.437.578.969 0 1.953-.172 2.907-.5zm0 0"/></symbol><symbol id="x" overflow="visible"><path d="M2.203-10.156c-.453 0-.828.36-.828.828s.375.828.828.828c.469 0 .844-.36.844-.828a.837.837 0 00-.844-.828zM2.156-6.97L.5-6.453v.437h1v5.204l-.234.218L.5-.516V0h3.234v-.516l-.78-.078-.25-.219v-6.156zm0 0"/></symbol><symbol id="y" overflow="visible"><path d="M2.031-7.047l-1.656.531v.454h1.016v4.015c0 1.438.687 2.188 1.921 2.188.704 0 1.47-.329 2.329-.938V0h2.125v-.516l-.688-.078-.25-.219v-6.234h-.547l-1.656.531v.454h1.016v4.859c-.594.281-1.141.422-1.672.422-.953 0-1.39-.485-1.39-1.516v-4.75zm0 0"/></symbol><symbol id="z" overflow="visible"><path d="M4.797-.828L4.984 0H7v-.516l-.766-.078-.25-.219v-4.171c0-1.438-.64-2.063-2.14-2.063-1.813 0-2.89.75-2.89 1.625 0 .344.109.438.437.438h.984v-1.204c.39-.156.734-.218 1.094-.218 1.031 0 1.328.468 1.328 1.593v.47C1.922-3.657.609-3.235.609-1.735.61-.656 1.313.094 2.438.094c.687 0 1.453-.313 2.359-.922zm0-.485c-.719.407-1.313.641-1.781.641-.72 0-1.157-.469-1.157-1.172 0-1.047.907-1.437 2.938-2zm0 0"/></symbol><symbol id="A" overflow="visible"><path d="M4.938-6.734c-.485-.204-1.047-.313-1.688-.313-1.625 0-2.531.75-2.531 2.016 0 .953.625 1.422 1.844 1.968.953.422 1.468.688 1.468 1.422 0 .672-.515 1.172-1.343 1.172-.422 0-.829-.125-1.22-.344l-.17-1.217H.609v1.86c.5.187 1.125.296 1.86.296 1.687 0 2.687-.813 2.687-2.14 0-.532-.203-.97-.547-1.235-.484-.39-1.03-.594-1.53-.844-.798-.375-1.22-.687-1.22-1.297 0-.64.438-1.03 1.204-1.03.343 0 .687.093 1.046.296l.125 1.016h.704zm0 0"/></symbol><symbol id="B" overflow="visible"><path d="M2.016-10.563l-1.75.516v.453h1.109v8.781l-.234.22-.782.077V0H3.5v-.516l-.672-.078-.265-.219v-4.812c.624-.313 1.156-.469 1.609-.469 1.062 0 1.453.422 1.453 1.469v3.813l-.25.218-.672.078V0h3.125v-.516l-.75-.078-.266-.219v-4.046c0-1.438-.671-2.188-1.921-2.188-.61 0-1.36.328-2.329.86v-4.375zm0 0"/></symbol><symbol id="D" overflow="visible"><path d="M.86-.281C1.515 0 2.405.172 3.437.172c2.296 0 3.718-1.188 3.718-2.89 0-.626-.218-1.157-.625-1.563-.672-.657-1.437-.875-2.172-1.188-1.312-.562-2-.922-2-1.875 0-1.047.72-1.734 1.938-1.734.516 0 .937.094 1.297.297l.218.25.22 1.36h.734v-2.22a7.591 7.591 0 00-2.438-.406c-2.031 0-3.312 1.14-3.312 2.75 0 1.39.828 1.922 2.421 2.61C5-3.766 5.845-3.5 5.845-2.313c0 1-.782 1.718-2.172 1.718-.64 0-1.188-.11-1.61-.328l-.187-.234-.172-1.657H.86zm0 0"/></symbol><symbol id="E" overflow="visible"><path d="M1.875-10.563l-1.766.516v.453h1.125V0h1.829c2.75 0 4.171-1.313 4.171-3.766 0-1.953-1.156-3.28-2.843-3.28-.625 0-1.282.171-1.97.5v-4.016zm.547 9.907v-5.39c.469-.157.906-.235 1.265-.235 1.438 0 2.25.984 2.25 2.781 0 1.984-.859 2.86-2.718 2.86-.078 0-.344 0-.797-.016zm0 0"/></symbol><symbol id="F" overflow="visible"><path d="M6.578-6.813c-.75-.156-1.437-.25-2.047-.25-2.468 0-4 1.47-4 3.766C.531-1.266 1.671.047 3.36.047c.594 0 1.25-.172 1.97-.516v2.781l-.235.235-.907.062v.516h3.36v-.516l-.766-.062-.25-.235v-8.078c0-.14.032-.484.047-1.046zm-1.25.532v5.343c-.562.157-1 .22-1.328.22-1.344 0-2.172-.985-2.172-2.766 0-1.86.938-2.954 2.422-2.954.297 0 .656.047 1.078.157zm0 0"/></symbol><symbol id="G" overflow="visible"><path d="M2-1.688c-.516 0-.922.391-.922.907s.406.906.922.906c.5 0 .89-.39.89-.906S2.5-1.687 2-1.687zm0 0"/></symbol><symbol id="H" overflow="visible"><path d="M.469-9.625v.578l.828.078.234.203v7.907l-.234.203-.828.062V0H3.89v-.594l-.829-.062-.234-.203v-3.422c.25 0 .5-.016.719-.016 1.297 0 1.86.36 2.25 1.547.297.906.36 1.844 1.047 2.453.328.281.797.406 1.453.406.328 0 .687-.03 1.11-.125v-.546H9.28c-1.094 0-1.547-.172-1.86-1.016-.265-.672-.28-1.469-.687-2.125-.28-.469-.765-.766-1.468-.953C6.812-5 7.594-5.813 7.594-7.046c0-1.766-1.14-2.579-3.469-2.579zm2.36.656h.687c1.78 0 2.64.547 2.64 2.047 0 1.406-.828 1.969-2.547 1.969-.078 0-.343 0-.78-.016zm0 0"/></symbol><symbol id="I" overflow="visible"><path d="M.328 3.125h3.375v-.516l-.922-.078-.25-.219V-.094c.531.094.985.14 1.344.14C6 .047 7.406-1.421 7.406-3.686c0-2-1.187-3.36-2.765-3.36-.672 0-1.344.297-2.11.86v-.782H2l-1.672.516v.437h1.016v8.329l-.235.218-.78.078zM2.531-.828v-4.828c.547-.313 1.031-.485 1.516-.485 1.25 0 2.094.985 2.094 2.641 0 1.766-.985 2.89-2.375 2.89-.36 0-.75-.062-1.235-.218zm0 0"/></symbol><path d="M133.742 42.926l2.551-9.508c.285-1.066 1.328-1.55 2.324-1.086l8.926 4.16a1.992 1.992 0 002.648-.965l4.164-8.922c.465-.996 1.575-1.292 2.477-.664l8.066 5.645a1.993 1.993 0 002.778-.488l5.648-8.063c.633-.902 1.774-1 2.555-.222l6.965 6.96a1.99 1.99 0 002.816 0l6.965-6.96c.781-.778 1.922-.68 2.555.222l5.648 8.063a1.993 1.993 0 002.777.488l8.067-5.645c.902-.628 2.012-.332 2.476.664l4.165 8.922c.464 1 1.652 1.43 2.648.965l8.926-4.16c.996-.465 2.039.02 2.324 1.086l2.55 9.508c.286 1.066.962 1.152 1.512.199l8.211-14.223c.551-.953 1.727-1.214 2.63-.582l14.222 9.957a2.03 2.03 0 01.516 2.793l-41.305 60.993c-.617.91-1.8 1.074-2.645.367l-9.164-7.688c-.843-.71-1.078-2.054-.527-3.008l5.66-9.804c.55-.953.281-1.192-.598-.532l-5.863 4.391c-.879.66-1.644.305-1.703-.793l-.402-7.316c-.063-1.098-.72-1.336-1.473-.535l-5.012 5.343c-.754.805-1.566.586-1.816-.484l-1.668-7.137c-.25-1.07-.941-1.191-1.543-.27l-4.004 6.133c-.601.922-1.441.848-1.875-.164l-2.879-6.734c-.433-1.012-1.133-1.012-1.566 0l-2.88 6.734c-.433 1.012-1.273 1.086-1.874.164l-4.004-6.132c-.602-.922-1.293-.801-1.543.27l-1.668 7.136c-.25 1.07-1.063 1.289-1.816.484l-5.012-5.343c-.75-.801-1.41-.563-1.473.535l-.402 7.316c-.059 1.098-.824 1.453-1.703.793l-5.864-4.39c-.878-.66-1.148-.422-.597.53l5.664 9.805c.547.954.312 2.297-.531 3.008l-9.164 7.688c-.844.707-2.028.543-2.645-.367L106.652 41.07a2.038 2.038 0 01.516-2.793l14.223-9.957c.902-.632 2.078-.37 2.629.582l8.21 14.223c.551.953 1.227.867 1.512-.2zm0 0" fill="#ff9010" stroke="#000" stroke-miterlimit="10" stroke-width="1.196"/><use x="142.892" xlink:href="#a" y="57.926"/><use x="154.099" xlink:href="#b" y="57.926"/><use x="162.294" xlink:href="#c" y="57.926"/><use x="172.571" xlink:href="#d" y="57.926"/><use x="182.505" xlink:href="#e" y="57.926"/><use x="189.752" xlink:href="#f" y="57.926"/><use x="200.013" xlink:href="#g" y="57.926"/><use x="205.263" xlink:href="#d" y="57.926"/><use x="215.197" xlink:href="#h" y="57.926"/><path d="M82.203 61.797h25.633" fill="none" stroke="#000" stroke-miterlimit="10" stroke-width="2.391"/><path d="M112.816 61.797l-7.968-3.988 2.988 3.988-2.988 3.984"/><use x="6.158" xlink:href="#i" y="58.64"/><use x="16.745" xlink:href="#j" y="58.64"/><use x="24.478" xlink:href="#k" y="58.64"/><use x="28.524" xlink:href="#l" y="58.64"/><use x="40.618" xlink:href="#m" y="58.64"/><use x="47.662" xlink:href="#n" y="58.64"/><use x="54.749" xlink:href="#m" y="58.64"/><use x="61.793" xlink:href="#o" y="58.64"/><use x="69.941" xlink:href="#p" y="58.64"/><use x="6.158" xlink:href="#q" y="73.086"/><use x="10.763" xlink:href="#r" y="73.086"/><use x="16.243" xlink:href="#j" y="73.086"/><use x="23.976" xlink:href="#s" y="73.086"/><use x="40.058" xlink:href="#t" y="73.086"/><use x="50.545" xlink:href="#u" y="73.086"/><use x="62.969" xlink:href="#v" y="73.086"/><path d="M255.688 61.797h25.632" fill="none" stroke="#000" stroke-miterlimit="10" stroke-width="2.391"/><path d="M286.3 61.797l-7.968-3.988 2.988 3.988-2.988 3.984"/><use x="291.479" xlink:href="#w" y="59.63"/><use x="300.546" xlink:href="#j" y="59.63"/><use x="308.278" xlink:href="#o" y="59.63"/><use x="316.427" xlink:href="#p" y="59.63"/><use x="321.219" xlink:href="#x" y="59.63"/><use x="325.236" xlink:href="#o" y="59.63"/><use x="333.384" xlink:href="#y" y="59.63"/><use x="341.547" xlink:href="#m" y="59.63"/><use x="352.579" xlink:href="#z" y="59.63"/><use x="359.853" xlink:href="#A" y="59.63"/><use x="291.479" xlink:href="#B" y="74.076"/><use x="299.57" xlink:href="#j" y="74.076"/><use x="307.303" xlink:href="#k" y="74.076"/><use x="311.348" xlink:href="#l" y="74.076"/><use x="323.442" xlink:href="#m" y="74.076"/><use x="330.486" xlink:href="#n" y="74.076"/><use x="337.573" xlink:href="#m" y="74.076"/><use x="344.617" xlink:href="#o" y="74.076"/><use x="352.766" xlink:href="#p" y="74.076"/><path d="M373.043 61.797h15.55" fill="none" stroke="#000" stroke-miterlimit="10" stroke-width="2.391"/><path d="M393.574 61.797l-7.972-3.988 2.992 3.988-2.992 3.984"/><path d="M489.637 49.32h-88.492a1.993 1.993 0 00-1.993 1.993v92.394a1.99 1.99 0 001.993 1.992h88.492a1.99 1.99 0 001.992-1.992V51.313c0-1.098-.89-1.993-1.992-1.993zm0 0" fill="#d9d9d9"/><g clip-path="url(#C)"><path d="M489.637 49.32h-88.492a1.993 1.993 0 00-1.993 1.993v92.394a1.99 1.99 0 001.993 1.992h88.492a1.99 1.99 0 001.992-1.992V51.313c0-1.098-.89-1.993-1.992-1.993zm0 0" fill="none" stroke="#000" stroke-miterlimit="10" stroke-width="1.196"/></g><use x="407.12" xlink:href="#D" y="95.536"/><use x="415.096" xlink:href="#y" y="95.536"/><use x="423.259" xlink:href="#E" y="95.536"/><use x="430.992" xlink:href="#A" y="95.536"/><use x="436.731" xlink:href="#m" y="95.536"/><use x="443.775" xlink:href="#F" y="95.536"/><use x="451.392" xlink:href="#y" y="95.536"/><use x="459.555" xlink:href="#m" y="95.536"/><use x="466.599" xlink:href="#o" y="95.536"/><use x="474.748" xlink:href="#p" y="95.536"/><use x="407.12" xlink:href="#B" y="109.981"/><use x="415.211" xlink:href="#z" y="109.981"/><use x="422.485" xlink:href="#o" y="109.981"/><use x="430.633" xlink:href="#l" y="109.981"/><use x="438.739" xlink:href="#k" y="109.981"/><use x="442.785" xlink:href="#m" y="109.981"/><use x="449.829" xlink:href="#r" y="109.981"/><use x="455.309" xlink:href="#A" y="109.981"/><use x="461.047" xlink:href="#G" y="109.981"/><use x="465.036" xlink:href="#G" y="109.981"/><use x="469.024" xlink:href="#G" y="109.981"/><path d="M184.254 102.613v23.64a6.975 6.975 0 006.973 6.977h90.093" fill="none" stroke="#000" stroke-miterlimit="10" stroke-width="2.391"/><path d="M286.3 133.23l-7.968-3.988 2.988 3.988-2.988 3.985"/><use x="291.479" xlink:href="#H" y="129.556"/><use x="300.216" xlink:href="#m" y="129.556"/><use x="307.26" xlink:href="#n" y="129.556"/><use x="314.347" xlink:href="#x" y="129.556"/><use x="318.364" xlink:href="#A" y="129.556"/><use x="324.102" xlink:href="#m" y="129.556"/><use x="335.134" xlink:href="#z" y="129.556"/><use x="342.408" xlink:href="#A" y="129.556"/><use x="291.479" xlink:href="#p" y="144.002"/><use x="296.271" xlink:href="#z" y="144.002"/><use x="303.544" xlink:href="#I" y="144.002"/><use x="315.437" xlink:href="#m" y="144.002"/><use x="322.481" xlink:href="#n" y="144.002"/><use x="329.568" xlink:href="#m" y="144.002"/><use x="336.612" xlink:href="#o" y="144.002"/><use x="344.761" xlink:href="#p" y="144.002"/><path d="M373.043 133.23h15.55" fill="none" stroke="#000" stroke-miterlimit="10" stroke-width="2.391"/><path d="M393.574 133.23l-7.972-3.988 2.992 3.988-2.992 3.985"/></svg>