<svg height="357.173" viewBox="0 0 247.81 94.502" width="936.606" xmlns="http://www.w3.org/2000/svg"><rect fill="#fbc3bd" height="84.477" rx="7.926" ry="1.198" width="237.81" x="5" y="5.001"/><rect fill="#96eed5" height="84.502" rx="4.042" ry="1.199" width="121.28" x="121.53" y="5.001"/><g stroke="#000" stroke-linecap="round" stroke-linejoin="round"><path d="M174.166 51.073c-1.802 5.005-3.143 6.064-5.366 6.343-1.903.23-17.426-.734-18.42-.702-.993.032-19.712-1.142-20.482-1.189-.768-.046-1.75-.09-2.076-1.051-.326-.96-.376-6.066-.376-6.066z" fill="#b9cdcd" stroke-width=".372"/><path d="M170.222 20.822s.68-3.033 1.79-3.968c2.352-1.982 6.034-2.115 8.932-2.313l1.814.891c-2.187.207-4.635-.189-6.804.496-1.326.418-2.76 1.017-3.58 2.14-.637.872-.738 3.155-.738 3.155m26.954 1.123c.13-1.727-1.014-2.927-2.208-3.753-3.248-2.248-8.238-.08-11.676-2.027-2.251-1.275-5.48-3.321-5.072-5.877.3-1.893 3.009-2.878 4.923-2.972 2.304-.113 5.356.85 6.245 2.978.46 1.1-.28 2.591-1.174 3.381-1.275 1.125-4.988 1.063-4.988 1.063l-1.475-.897s3.724.319 5.179-.634c.793-.519 1.884-1.608 1.446-2.45-1.384-2.659-7.637-3.386-8.967-.699-1.01 2.043 2.574 3.975 4.558 5.095 3.547 2.005 8.631.002 12.01 2.28 1.508 1.017 2.953 4.59 2.953 4.59" fill="#eaf0f0" stroke-width=".5"/><path d="M169.778 55.367s-38.618-1.632-39.431-1.875c-.813-.244-2.65-.443-2.807-2.741-.156-2.298-.147-8.784.203-14.054s1.078-13.861 2.359-15.431c1.007-1.236 3.36-1.3 5.043-1.19 5.952.389 16.151.73 17.55.614 1.4-.116 16.47-.163 18.552.652 2.08.815 3.195 1.528 3.482 3.832.287 2.303.337 9.753.28 14.328-.06 4.575-.36 9.456-.684 10.84-.323 1.387-.965 3.395-2.588 4.373-1.088.656-1.959.652-1.959.652z" fill="#eaf0f0" stroke-width=".372"/><path d="M169.183 27.277l-36.736-1.256m36.794 5.816l-36.735-1.384m36.665 6.57l-36.669-1.447m36.772 6.727l-36.762-1.532m36.849 6.804l-36.87-1.222m0 0l-.044-20.332m36.914 21.554l-.178-20.298m-5.09 20.112l-.098-20.285m-5.482 20.143l.095-20.33m-5.833 20.364l-.044-20.332m-6.118 20.213l-.045-20.334m-6.5 20.04l-.044-20.331" fill="none" stroke-width=".5"/></g><text font-family="Lato" font-size="7.056" letter-spacing="0" stroke-width=".265" word-spacing="0" x="16.99" y="14.888"><tspan font-family="'Liberation Sans'" font-weight="bold" x="16.99" y="14.888">NO</tspan></text><text font-family="Lato" font-size="7.056" letter-spacing="0" stroke-width=".265" word-spacing="0" x="139.405" y="14.961"><tspan font-family="'Liberation Sans'" font-weight="bold" x="139.405" y="14.961">YES</tspan></text><g stroke-linecap="round"><g stroke="#000" stroke-linejoin="round" stroke-width=".5"><path d="M22.841 47.893c2.42 5.147 4.66 6.324 8.617 6.805 3.388.401 31.496.855 33.28.977 1.782.121 35.68.656 37.072.68 1.393.024 3.168.068 3.913-.858s1.674-6.007 1.674-6.007z" fill="#b9cdcd"/><g fill="#eaf0f0"><path d="M69.486 7.82s-.684 1.325.093 2.923c.326.672 1.952 2.143 1.952 2.143l1.226 2.623s-2.595-1.18-3.52-2.211a7.79 7.79 0 01-1.845-3.815c-.126-.74.256-2.238.256-2.238"/><path d="M74.235 19.954c.129-1.727-.049-2.925-.861-3.717-.813-.792-2.445-2.112-2.442-3.548.003-1.173 1.013-2.27 2.01-2.891.847-.528 1.998-.71 2.962-.449 1.105.3 2.39 1.047 2.672 2.157.226.89-.416 1.89-1.062 2.544-.586.595-2.298.996-2.298.996l-1.408-1.325s1.206-.157 1.701-.476c.503-.324 1.28-.788 1.154-1.372-.153-.706-1.247-1.077-1.954-.934-.831.169-2.18 1.215-1.686 1.904.777 1.084 2.37 2.256 2.628 3.013.258.758.337 4.175.337 4.175"/><path d="M30.034 52.568s69.8 1.89 71.304 1.72c1.504-.168 4.845-.199 5.504-2.473.658-2.275 1.71-8.734 1.947-14.015s.34-13.901-1.708-15.581c-1.61-1.322-5.837-1.6-8.885-1.643-10.78-.155-29.199-.743-31.699-.986s-29.628-1.661-33.51-1.04c-3.88.623-6.003 1.232-6.9 3.5-.896 2.267-2.211 9.681-2.859 14.243s-.908 9.449-.555 10.858c.354 1.409 1.181 3.467 3.941 4.589 1.852.752 3.42.828 3.42.828z"/></g><path d="M29.983 25.164l74.825 2.047M29.992 29.61l74.484 2.02m-74.944 3.078l74.633 2.036m-74.81 3.18l74.48 2.005m-75.148 3.526l74.825 2.046m-74.825-2.046l1.296-20.291m73.529 22.337l1.296-20.29m-37.553 13.7l.81-14.709M32.712 45.604l1.297-20.29m38.247 15.744l.998-14.71m4.371 14.912l1.017-14.765m4.567 20.683l1.296-20.29m4.863 20.55l1.296-20.291m5.253 20.403l1.297-20.292m-59.9 17.981l1.234-19.783m4.136 20.159l1.296-20.29m4.567 20.682l1.297-20.29m4.862 20.55l1.296-20.29M61.607 40.8l.945-14.712" fill="none"/><path d="M35.624 87.4s1.4-3.914 4.3-8.059 5.894-9.432 9.2-12.211c3.305-2.779 8.791-5.642 9.914-7.105 1.124-1.464 5.108-6.78 5.398-7.954.291-1.173 2.246-5.157 2.25-5.882s.174-3.157-1.482-3.373c-1.657-.216-4.068.328-4.888 1.553-.82 1.226-.882 2.76-.882 2.76s-.272-.153-1.812 2.28c-1.539 2.432 1.001-3.232.905-3.824-.096-.593 3.152-6.171 3.58-7.852.427-1.681.69-5 .418-6.098-.272-1.096-1.672-4.282-2.501-4.307-.83-.025-2.428-.36-3.462.698-1.033 1.059-1.525 1.657-1.525 1.657l-.282 3.4c.857.077 1.5-.541 1.703-1.106 0 0-.099 1.296.123 1.766.221.47.354 2.066.354 2.066s-.518.18-1.677 2.833c-1.16 2.654-1.465 3.929-1.465 3.929s1.526-14.647 1.342-15.032c-.183-.384-1.22-2.54-2.569-2.648-1.348-.108-2.958-.764-3.53.07-.573.833-1.147 2.653-.837 3.12s.15 2.18-.158 3.451-1.992 9.33-1.992 9.33l-.367-5.457c-.072-1.067-.739-3.748-.739-3.748s1.177-.037 1.64-.525c.629-.663.834-1.366.44-2.035s-1.343-4.1-2.332-4.282-2.793-.6-3.871.215a5.013 5.013 0 00-1.959 3.764c-.064 1.583-.363 5.073-.072 6.836.29 1.764.362 4.813.362 4.813l-1.502-8.103s.672-.309 1.05-.61l.13-2.678s-1.577-2.33-2.728-2.356c-1.15-.026-2.734.798-3.154 1.488-.692 1.14-.973 5.728-.978 6.694-.004.967 1.192 6.307 1.492 6.875s.57 9.85.925 11.312c.356 1.463-.892 6.365-.995 6.736-.102.37-1.156.399-1.6.97-.927 1.189-.37 1.872-1.516 3.346-.663.852-9.451 7.307-11.456 9.073-2.006 1.766-4.087 4.382-4.087 4.382" fill="#ffc68a"/><path d="M57.271 49.743c-1.422 3.194-1.717 4.256-1.717 4.256m.904-22.022l.66-1.657m-.184 5.49l1.135-1.629m-8.101-2.414l1.546.888m-11.549.201l2.487.094m-8.932 1.967l1.506-.746m24.82 1.697l1.108 1.038m4.769 12.028s-.415.468-.814.136c-.46-.383-.48-.954-1.71-1.838-.284-.204.344-1.21.659-1.748.371-.632 1.418-1.682 1.418-1.682M37.649 32.34l-1.061-3.451m8.354 2.768l-.8-4.245M33.281 59.883c1.554-.523 3.628-2.005 3.628-2.005m-2.936-.564c.52-.996 2.063-3.688 2.063-3.688" fill="none"/><path d="M91.976 87.237c-4.765-10.372-6.527-10.708-9.154-16.387-.964-2.084-1.038-4.61-2.408-6.454-2.374-3.197-8.655-6.199-9.51-7.232-.909-1.098-2.748-6.357-2.774-7.96-.025-1.602-.057-2.773.921-3.505.979-.731 3.358-1.44 4.123-.827.766.615 1.704 2.06 2.238 3.057s1.654 5.102 1.654 5.102 1.09-7.942 1.502-9.084c.413-1.143-.122-9.07-.122-9.07s-2.41-.662-3.153-1.034c-.742-.371-1.712-2.099-1.502-3.195.22-1.157.495-1.47 1.78-1.688 1.286-.219 4.172.304 5.501.87.94-.19 3.455-.901 4.726-.833 1.27.068 2.36.19 3.487.885.975.602 1.224 1.956 1.224 1.956s2.983-1.23 3.784-1.094c.8.137 2.968 1.746 2.994 2.553.026.806.067 1.723.067 1.723s1.003-.144 1.365.566c.361.71 1.39 2.64 1.3 5.5-.09 2.859-.555 5.26-.555 5.26s.78 3.677.333 5.536c-.446 1.858-2.106 7.303-2.106 7.303s1.622.96 1.353 1.665-.765 1.638-.765 1.638 1.955 1.002 3.486 3.108c.918 1.262.485 1.946 1.854 4.615 1.37 2.669 7.095 9.814 7.095 9.814" fill="#ffc68a" fill-opacity=".995"/><path d="M97.692 59.185l-1.918.23m2.506 3.073l-1.253.5M68.28 50.219c.436.461.794 1.53 1.135.89.342-.64.816-1.77 1.643-2.173.826-.404 1.019-.28.945-.585-.073-.306-1.416-2.465-1.416-2.465m7.86-11.009l.251-.815m5.809 10.801c.02-2.92.568-4 .545-5.454s-.348-5.258-.857-6.674c-.902-2.511-3.122-2.905-3.122-2.905m9.706 14.365c.016-2.04.98-6.632.946-7.442-.157-1.694-.326-3.477-1.215-4.915M95.8 43.97c.514-1.619 1.41-4.587 1.501-5.433.092-.847.054-3.517.054-3.517M84.43 33.933c.74.676 1.154.78 1.154.78m-4.921-.236l1.454.323m6.491.138l1.176.302m4.243 2.101l.93.473m3.658 1.96l1.112.373M76.53 34.256c-.433-.694-.424-1.824-.424-1.824" fill="none"/></g><path d="M98.645 75.548c-8.73-9.43-9.254-8.944-9.467-16.727-.213-7.784-.154-7.837-.154-7.837M34.722 72.07c8.61-9.538 9.142-9.058 9.258-16.843.116-7.786.056-7.838.056-7.838" fill="none" stroke="#fa4631" stroke-width="1.5"/><g stroke="#000" stroke-linejoin="round"><path d="M193.679 50.615c1.627 5.064 2.93 6.17 5.142 6.525 1.894.296 17.441-.129 18.433-.062.992.066 19.74-.459 20.511-.478.77-.02 1.753-.03 2.112-.979.36-.948.586-6.05.586-6.05z" fill="#b9cdcd" stroke-width=".372"/><g fill="#eaf0f0" stroke-width=".5"><path d="M223.452 9.75s-.685 1.323.092 2.921c.327.672 1.952 2.143 1.952 2.143l1.226 2.623s-2.595-1.179-3.519-2.21a7.79 7.79 0 01-1.846-3.816c-.126-.74.256-2.237.256-2.237"/><path d="M228.2 21.883c.129-1.727-.048-2.924-.86-3.717-.814-.792-2.445-2.112-2.442-3.547.003-1.174 1.012-2.271 2.008-2.892.848-.528 1.999-.71 2.963-.45 1.105.3 2.391 1.049 2.672 2.158.226.89-.416 1.89-1.061 2.545-.587.594-2.299.995-2.299.995l-1.407-1.325s1.206-.157 1.7-.476c.503-.323 1.28-.788 1.154-1.372-.153-.706-1.247-1.077-1.954-.933-.83.168-2.18 1.214-1.686 1.903.777 1.084 2.37 2.256 2.629 3.014.257.757.336 4.174.336 4.174"/></g><path d="M197.915 55.06s38.651-.294 39.472-.508c.821-.216 2.665-.351 2.9-2.642.236-2.291.452-8.773.285-14.052-.167-5.28-.597-13.89-1.822-15.504-.964-1.27-3.313-1.416-4.999-1.364-5.962.182-16.167.17-17.561.005-1.394-.164-16.455-.734-18.563.008-2.108.742-3.246 1.417-3.613 3.71-.367 2.291-.675 9.735-.776 14.309-.1 4.575.032 9.463.307 10.858.274 1.396.847 3.425 2.434 4.46 1.066.692 1.936.718 1.936.718z" fill="#eaf0f0" stroke-width=".372"/><g stroke-width=".5"><path d="M199.483 27.006l36.758.019m-36.974 4.537l36.761-.11m-36.87 5.295l36.696-.175m-36.982 5.448l36.793-.256m-37.063 5.522l36.89.057m0 0l.75-20.318m-37.64 20.26l.881-20.279m4.39 20.277l.801-20.27m4.78 20.321l.61-20.32m5.124 20.553l.749-20.318m5.414 20.412l.75-20.32m5.8 20.254l.75-20.318" fill="none"/><path d="M220.308 86.536c-2.373-10.519-1.686-11.03-3.711-16.178-.723-1.837-1.3-4.532-2.963-5.127-3.172-1.136-6.85-4.813-7.813-5.745-1.025-.994-4.351-6.384-4.553-7.973-.2-1.59-.36-2.751.531-3.586s3.18-1.8 4.008-1.274 1.92 1.86 2.56 2.792c.64.933 2.203 4.89 2.203 4.89s.213-8.013.497-9.194c.284-1.181-1.128-8.472-1.128-8.472s-2.468-.394-3.247-.682c-.778-.288-1.932-1.898-1.844-3.012.094-1.173.331-1.513 1.585-1.873 1.253-.358 4.18-.155 5.564.262.912-.292 3.345-1.804 4.616-1.876 1.27-.072 2.367-.071 3.563.498 1.035.49 1.431 1.81 1.431 1.81s2.83-1.551 3.64-1.503c.812.048 3.143 1.41 3.257 2.209.115.798.185.975.185.975s1.597-.054 2.035.612c.436.666 1.125 3.002 1.35 5.854.224 2.853.026 5.29.026 5.29s1.178 3.57.939 5.466c-.24 1.896-1.293 7.49-1.293 7.49 2.591 2.017 1.007 3.923 1.616 5.853.715 2.259.442 3.534 2.39 6.695 1.653 2.503 4.102 9.72 4.102 9.72" fill="#ffc68a"/><path d="M231.746 58.189l-.806-.805m-29.411-4.88c.482.41.956 1.434 1.225.76s.617-1.848 1.395-2.34c.776-.492.981-.389.875-.685-.107-.296-1.679-2.294-1.679-2.294m6.594-11.276l.161-.837m6.97 9.568c-.3-2.904.125-4.038-.057-5.48-.182-1.444-.924-5.19-1.584-6.54-1.173-2.397-3.432-2.016-3.432-2.016m11.233 12.684c-.208-2.03.247-6.699.125-7.501-.344-1.666-.707-3.42-1.747-4.752m6.588 11.478c.333-1.665.899-4.713.897-5.565.044-1.439-.114-2.832-.404-4.231m-12.743 1.128c.809.59 1.08.59 1.08.59m-4.611.458l1.48.17m5.884-.624l1.203.17m5.137.977l.975.369m3.445 1.801l1.146.249m-23.719-2.503c-.506-.643-.621-1.767-.621-1.767" fill="none"/><path d="M150.741 87.966s.286-6.972.654-10.44c.24-2.272.159-3.793 1.014-6.779.914-3.183 6.701-6.126 7.974-7.463s6.09-7.321 6.502-8.458c.415-1.136 2.78-4.889 2.86-5.61.08-.72.508-3.121-1.118-3.511-1.623-.39-4.078-.105-5.023 1.027-.945 1.132-2.314 3.247-2.314 3.247s-.88.282-1.957 1.493c-1.91 2.151 1.338-3.108 1.304-3.707-.032-.6 3.259-5.795 3.862-7.422.603-1.626 1.216-4.9 1.062-6.018-.155-1.12-.438-4.47-1.35-4.933-.739-.377-3.287-.634-4.426.31s-.935 1.882-.935 1.882l-.64 3.351c.845.168 1.021-.373 1.282-.912 0 0-.236 1.278-.065 1.769s.133 2.091.133 2.091-.004.117-1.438 2.633c-1.435 2.516-1.873 3.751-1.873 3.751s3.068-14.402 2.927-14.805-.743-3.145-2.072-3.395-2.977-.496-3.635.273c-1.436 2.077-1.223 4.034-2.033 6.284-.442 1.232-2.707 9.124-2.707 9.124l.213-5.465c.042-1.069-.337-3.806-.337-3.806s1.174.088 1.686-.348c.695-.593.973-1.269.653-1.977s-.902-4.219-1.866-4.505c-.964-.285-2.82-.543-3.978.154a5.013 5.013 0 00-2.346 3.535c-.231 1.568-.792 4.657-.69 6.442.102 1.783-.15 4.823-.15 4.823l-.635-8.216s.701-.236 1.108-.495l.413-2.65s-1.251-2.18-2.393-2.328-2.77.321-3.259.964c-.81 1.06-1.68 5.471-1.785 6.432-.107.961.514 6.398.755 6.993.237.585-1.66 5.67-.842 10.977.228 1.487-.996 6.604-1.137 6.963-.142.357-1.157.408-1.754 1.591-.68 1.345.431 3.218.351 4.829-.114 2.247-.586 4.473-1.163 6.646-.888 3.343-3.52 9.759-3.52 9.759" fill="#ffc68a"/><path d="M158.948 51.767c-1.752 3.025-2.157 4.051-2.157 4.051m2.701-21.795l.245-1.32m-6.412.669l1.651.672m-11.465-1.197l2.463.357m-8.63 1.173l1.577-.581m22.513 4.588l1.408.57m5.157 13.017s-.464.422-.825.049c-.415-.43-.376-1-1.507-2.01-.26-.232.471-1.166.842-1.667.436-.59 1.588-1.523 1.588-1.523m-26.819-14.435l-.198-2.825m7.524 2.918l-.089-4.01M134.02 59.311a14.387 14.387 0 002.987-1.057" fill="none"/></g></g></g></svg>