<svg height="409.442" viewBox="0 0 247.81 108.332" width="936.605" xmlns="http://www.w3.org/2000/svg"><rect fill="#fbc3bd" height="98.302" rx="7.926" ry="1.394" width="237.81" x="5" y="5"/><rect fill="#96eed5" height="98.332" rx="3.923" ry="1.395" width="117.706" x="125.104" y="5"/><text font-family="Lato" font-size="7.056" letter-spacing="0" stroke-width=".265" word-spacing="0" x="16.99" y="14.887"><tspan font-family="'Liberation Sans'" font-weight="bold" x="16.99" y="14.887">NO</tspan></text><text font-family="Lato" font-size="7.056" letter-spacing="0" stroke-width=".265" word-spacing="0" x="139.405" y="14.96"><tspan font-family="'Liberation Sans'" font-weight="bold" x="139.405" y="14.96">YES</tspan></text><g fill="#ffa066" stroke="#050000" stroke-linecap="round" stroke-linejoin="round" stroke-width=".38"><rect height="6.89" rx="2.959" ry=".525" width="7.117" x="28.46" y="23.066"/><rect height="6.89" rx="2.959" ry=".525" width="7.117" x="31.482" y="30.701"/><rect height="6.89" rx="2.959" ry=".525" width="7.117" x="34.465" y="38.03"/></g><g fill="#ea80b4" stroke="#050000" stroke-linecap="round" stroke-linejoin="round" stroke-width=".38"><rect height="6.89" rx="2.959" ry=".525" width="7.117" x="36.413" y="23.066"/><rect height="6.89" rx="2.959" ry=".525" width="7.117" x="39.435" y="30.701"/><rect height="6.89" rx="2.959" ry=".525" width="7.117" x="42.418" y="38.03"/></g><text font-family="Lato" font-size="21.333" letter-spacing="0" transform="translate(25.125 18.896) scale(.20911)" word-spacing="0"><tspan x="63.807" y="43.988">E</tspan></text><g fill="#ffd066" stroke="#050000" stroke-linecap="round" stroke-linejoin="round" stroke-width=".38"><rect height="6.89" rx="2.959" ry=".525" width="7.117" x="20.507" y="23.066"/><rect height="6.89" rx="2.959" ry=".525" width="7.117" x="23.529" y="30.701"/><rect height="6.89" rx="2.959" ry=".525" width="7.117" x="26.512" y="38.03"/></g><text font-family="Lato" font-size="21.333" letter-spacing="0" transform="translate(12.49 26.626) scale(.20911)" word-spacing="0"><tspan x="63.807" y="43.988">A</tspan></text><g stroke="#050000" stroke-linecap="round" stroke-linejoin="round" stroke-width=".38"><g fill="#ffd066"><rect height="6.89" rx="2.959" ry=".525" width="7.117" x="102.667" y="23.066"/><rect height="6.89" rx="2.959" ry=".525" width="7.117" x="105.69" y="30.701"/><rect height="6.89" rx="2.959" ry=".525" width="7.117" x="108.673" y="38.03"/></g><g fill="#927cf3"><rect height="6.89" rx="2.959" ry=".525" width="7.117" x="52.319" y="23.066"/><rect height="6.89" rx="2.959" ry=".525" width="7.117" x="55.341" y="30.701"/><rect height="6.89" rx="2.959" ry=".525" width="7.117" x="58.324" y="38.03"/><rect height="6.89" rx="2.959" ry=".525" width="7.117" x="44.366" y="23.066"/><rect height="6.89" rx="2.959" ry=".525" width="7.117" x="47.388" y="30.701"/><rect height="6.89" rx="2.959" ry=".525" width="7.117" x="50.371" y="38.03"/></g></g><text font-family="Lato" font-size="21.333" letter-spacing="0" transform="translate(28.189 26.403) scale(.20911)" word-spacing="0"><tspan x="63.807" y="43.988">D</tspan></text><g stroke="#050000" stroke-linecap="round" stroke-linejoin="round" stroke-width=".38"><g fill="#99b5ff"><rect height="6.89" rx="2.959" ry=".525" width="7.117" x="78.808" y="23.066"/><rect height="6.89" rx="2.959" ry=".525" width="7.117" x="81.831" y="30.701"/><rect height="6.89" rx="2.959" ry=".525" width="7.117" x="84.814" y="38.03"/></g><g fill="#99b5ff"><rect height="6.89" rx="2.959" ry=".525" width="7.117" x="70.855" y="23.066"/><rect height="6.89" rx="2.959" ry=".525" width="7.117" x="73.878" y="30.701"/><rect height="6.89" rx="2.959" ry=".525" width="7.117" x="76.861" y="38.03"/></g><g fill="#ffa066"><rect height="6.89" rx="2.959" ry=".525" width="7.117" x="94.714" y="23.066"/><rect height="6.89" rx="2.959" ry=".525" width="7.117" x="97.737" y="30.701"/><rect height="6.89" rx="2.959" ry=".525" width="7.117" x="100.72" y="38.03"/></g><g fill="#ea80b4"><rect height="6.89" rx="2.959" ry=".525" width="7.117" x="86.761" y="23.066"/><rect height="6.89" rx="2.959" ry=".525" width="7.117" x="89.784" y="30.701"/><rect height="6.89" rx="2.959" ry=".525" width="7.117" x="92.767" y="38.03"/></g></g><g font-family="Lato" font-size="21.333" letter-spacing="0" word-spacing="0"><text transform="translate(8.777 18.911) scale(.20911)"><tspan x="63.807" y="43.988">Q</tspan></text><text transform="translate(16.434 18.96) scale(.20911)"><tspan x="63.807" y="43.988">W</tspan></text><text transform="translate(33.218 18.902) scale(.20911)"><tspan x="63.807" y="43.988">R</tspan></text><text transform="translate(31.003 34) scale(.20911)"><tspan x="63.807" y="43.988">C</tspan></text><text transform="translate(39.057 34.069) scale(.20911)"><tspan x="63.807" y="43.988">V</tspan></text><text transform="translate(47.094 33.916) scale(.20911)"><tspan x="63.807" y="43.988">B</tspan></text><text transform="translate(65.462 33.918) scale(.20911)"><tspan x="63.807" y="43.988">N</tspan></text><text transform="translate(73.055 33.934) scale(.20911)"><tspan x="63.807" y="43.988">M</tspan></text><text transform="translate(41.172 19.002) scale(.20911)"><tspan x="63.807" y="43.988">T</tspan></text><text transform="translate(59.49 18.975) scale(.20911)"><tspan x="63.807" y="43.988">Y</tspan></text><text transform="translate(67.41 18.921) scale(.20911)"><tspan x="63.807" y="43.988">U</tspan></text><text transform="translate(76.387 18.995) scale(.20911)"><tspan x="63.807" y="43.988">I</tspan></text><text transform="translate(83.28 18.89) scale(.20911)"><tspan x="63.807" y="43.988">O</tspan></text><text transform="translate(82.412 33.904) scale(.20911)"><tspan x="63.807" y="43.988">,</tspan></text><text transform="translate(90.377 33.886) scale(.20911)"><tspan x="63.807" y="43.988">.</tspan></text><text transform="translate(97.81 33.802) scale(.20911)"><tspan x="63.807" y="43.988">/</tspan></text><text transform="translate(35.959 26.536) scale(.20911)"><tspan x="63.807" y="43.988">F</tspan></text><text transform="translate(43.734 26.605) scale(.20911)"><tspan x="63.807" y="43.988">G</tspan></text><text transform="translate(62.478 26.452) scale(.20911)"><tspan x="63.807" y="43.988">H</tspan></text><text transform="translate(71.194 26.53) scale(.20911)"><tspan x="63.807" y="43.988">J</tspan></text><text transform="translate(78.278 26.542) scale(.20911)"><tspan x="63.807" y="43.988">K</tspan></text><text transform="translate(86.302 26.395) scale(.20911)"><tspan x="63.807" y="43.988">L</tspan></text><text transform="translate(95.192 25.988) scale(.20911)"><tspan x="63.807" y="43.988">;</tspan></text><text transform="translate(91.496 18.882) scale(.20911)"><tspan x="63.807" y="43.988">P</tspan></text></g><g stroke-linecap="round"><g stroke="#050000" stroke-linejoin="round" stroke-width=".5"><path d="M13.945 95.907S24.75 85.86 25.75 84.58s2.344-2.313 1.793-3.98c-.552-1.667-.45-2.384.084-3.338.534-.954 1.857-1.849 1.857-1.849s-.259-.489-.01-1.472c.247-.983 1.68-3.14 1.488-4.116-.191-.976-1.155-8.394-.84-9.959.315-1.565-.133-2.627-1.065-3.466-.932-.838-3.35-3.156-3.888-4.113-.539-.957-.93-2.386-.774-4.006.155-1.62.625-4.707 1.082-5.601.458-.895.904-1.466 1.51-1.673.604-.208 4.434-1.583 4.434-1.583l.161 5.258s-.759.208-1.148.208c-.269 0-.793-.146-.793-.146s.564.635.505 1.186c-.06.55-.283 1.738-.283 1.738s.825.507 1.283 1.088c.458.58 1.506 3.685 1.506 3.685-.191-4.205-.11-2.674-.204-4.156-.095-1.483-.946-2.61-1.063-5.813-.117-3.203.9-7.733 1.55-9.471.65-1.738 1.349-4.129 2.356-4.743 1.008-.614 2.678-.768 3.207-.121.53.646.634 2.702.634 2.702l2.143-4.237c.87-1.722 1.026-1.837 1.943-2.047.901-.207 2.006.265 2.596.977.827.999.919 3.02.67 3.833-.248.814-1.936 4.588-2.253 5.476-.317.888-.667 1.573-.497 2.597.171 1.024.721 6.322.621 7.2-.1.877-.538 5.112-.538 5.112s.829-6.394 1.253-9.59c.133-.998.027-2.061.405-2.995 1.186-2.932 3.151-4.028 4.562-5.11 1.41-1.082 2.308-3.158 4.052-3.37 1.02-.124 2.264.457 2.775 1.35.658 1.149.184 3.265-.31 3.959-.495.693-3.286 2.838-3.715 3.327-.43.488-1.104 1.3-1.186 2.452-.081 1.152.246 5.897.166 6.656-.08.759-.705 5.057-.705 5.057s1.448 4.192 1.486 5.393c.037 1.201.58 4.296.326 5.854-.254 1.557-.77 4.904-.77 4.904l.777-3.676s3.41-3.979 4.7-5.071 1.542-.533 1.542-.533l-1.247.11s-.48-1.3-.67-2.472c-.189-1.174-.167-3.452.135-4.67.308-1.242.77-2.47 2.375-2.939.883-.257 1.517.147 1.517.147s.313-.218.802-.237c.49-.02 1.953.649 1.953.649s.366 2.215.179 3.301-.07 2.577.05 3.941c.121 1.364.065 3.46-.37 4.5-.436 1.041-1.29 5.516-3.419 7.66s-3.136 3.635-5.874 5.521c-2.084 1.436-2.901 2.095-2.901 2.095s-.179.825-.63 1.613c-1.217 2.119-3.257 5.538-4.43 6.398-1.173.86-1.309 1.434-1.48 2.317-.17.883-8.348 14.587-8.348 14.587" fill="#ffc68a"/><path d="M39.133 30.839c-.923 2.727-1.414 3.47-1.445 5.288-.03 1.818.309 7.117.286 9.183-.022 2.066-.713 4.422-.713 4.422m24.025-1.199c-.276.466-.735.676-.725 2.1.01 1.426-.004 1.722.497 2.343.26.323.638.574 1.135.511.886-.112 1.726.201 1.726.201M28.043 40.745c.802.666 1.177 1.086 1.568 1.042.39-.045 1.804-.663 1.804-.663m2.481-10.656c.324.463.393.724 1.424.689.636-.022 1.43-.076 1.872-.377.259-.177.515-.799.515-.799m3.615-3.137c-.004.62.298 1.029.69 1.1.842.156 1.503.422 2.233.253.378-.088.727-.4.982-.627m6.275 3.251c.626.496 1.926.949 2.258 1.055.331.106.723.068.908-.121.185-.189.445-.444.445-.444M41.55 55.532c-.846.277-.849.358-.762.511.086.154-.041.894-.041.894m-6.707.417c.358.8.378.65.65.9.164.15.572.34.572.34m-5.777 16.819c1.301-.568 2.27-.713 2.27-.713m-.968-3.653l1.022-.478M47.685 56.77l.944-.251m-2.051-17.541c.486.39 1.337.176 1.337.176m-.705-1.679c.098.021 1.237.116 1.237.116m-9.113.262c.708.625 1.557.24 1.557.24m-.972-1.16c.755-.71 1.369.008 1.369.008m-8.22 2.894l1.1-.255m-7.832 11.892c1.128-.091 1.477-.728 1.477-.728m34.355 8.676l.942.72M41.84 29.96c.738.074.958.241.958.241" fill="none"/></g><path d="M32.13 90.874c8.61-9.538 9.142-9.058 9.258-16.843.116-7.786.056-7.838.056-7.838" fill="none" stroke="#fa4631" stroke-width="1.5"/><g fill="#ffa066" stroke="#050000" stroke-linejoin="round" stroke-width=".387"><rect height="7.001" rx="3.007" ry=".533" width="7.231" x="148.248" y="30.526"/><rect height="7.001" rx="3.007" ry=".533" width="7.231" x="148.304" y="37.973"/></g></g><g transform="translate(105.434 -61.994) scale(.80308)"><rect fill="#ea80b4" height="8.717" rx="3.745" ry=".664" stroke="#050000" stroke-linecap="round" stroke-linejoin="round" stroke-width=".481" width="9.004" x="63.254" y="103.96"/><text font-family="Lato" font-size="21.333" letter-spacing="0" transform="translate(48.973 98.684) scale(.26458)" word-spacing="0"><tspan x="63.807" y="43.988">E</tspan></text></g><rect fill="#ffd066" height="7.001" rx="3.007" ry=".533" stroke="#050000" stroke-linecap="round" stroke-linejoin="round" stroke-width=".387" width="7.231" x="140.223" y="40.948"/><g transform="translate(102.46 -57.745) scale(.80308)"><rect fill="#ffd066" height="8.717" rx="3.745" ry=".664" stroke="#050000" stroke-linecap="round" stroke-linejoin="round" stroke-width=".481" width="9.004" x="46.953" y="113.62"/><text font-family="Lato" font-size="21.333" letter-spacing="0" transform="translate(32.986 108.464) scale(.26458)" word-spacing="0"><tspan x="63.807" y="43.988">A</tspan></text></g><g stroke="#050000" stroke-linecap="round" stroke-linejoin="round" stroke-width=".387"><g fill="#ffd066"><rect height="7.001" rx="3.007" ry=".533" width="7.231" x="223.079" y="25.743"/><rect height="7.001" rx="3.007" ry=".533" width="7.231" x="223.175" y="33.501"/><rect height="7.001" rx="3.007" ry=".533" width="7.231" x="223.232" y="40.948"/></g><g fill="#927cf3"><rect height="7.001" rx="3.007" ry=".533" width="7.231" x="172.395" y="23.618"/><rect height="7.001" rx="3.007" ry=".533" width="7.231" x="172.491" y="31.376"/><rect height="7.001" rx="3.007" ry=".533" width="7.231" x="172.548" y="38.823"/><rect height="7.001" rx="3.007" ry=".533" width="7.231" x="164.41" y="30.526"/><rect height="7.001" rx="3.007" ry=".533" width="7.231" x="164.467" y="37.973"/></g></g><g transform="translate(102.46 -61.994) scale(.80308)"><rect fill="#ea80b4" height="8.717" rx="3.745" ry=".664" stroke="#050000" stroke-linecap="round" stroke-linejoin="round" stroke-width=".481" width="9.004" x="67.079" y="113.62"/><text font-family="Lato" font-size="21.333" letter-spacing="0" transform="translate(52.849 108.181) scale(.26458)" word-spacing="0"><tspan x="63.807" y="43.988">D</tspan></text></g><g stroke="#050000" stroke-linecap="round" stroke-linejoin="round" stroke-width=".387"><g fill="#99b5ff"><rect height="7.001" rx="3.007" ry=".533" width="7.231" x="198.836" y="22.768"/><rect height="7.001" rx="3.007" ry=".533" width="7.231" x="198.932" y="30.526"/><rect height="7.001" rx="3.007" ry=".533" width="7.231" x="198.989" y="37.973"/><rect height="7.001" rx="3.007" ry=".533" width="7.231" x="190.755" y="23.618"/><rect height="7.001" rx="3.007" ry=".533" width="7.231" x="190.851" y="31.376"/><rect height="7.001" rx="3.007" ry=".533" width="7.231" x="190.908" y="38.823"/></g><g fill="#ffa066"><rect height="7.001" rx="3.007" ry=".533" width="7.231" x="214.998" y="22.768"/><rect height="7.001" rx="3.007" ry=".533" width="7.231" x="215.094" y="30.526"/><rect height="7.001" rx="3.007" ry=".533" width="7.231" x="215.151" y="37.973"/></g><g fill="#ea80b4"><rect height="7.001" rx="3.007" ry=".533" width="7.231" x="206.917" y="21.493"/><rect height="7.001" rx="3.007" ry=".533" width="7.231" x="207.013" y="29.251"/><rect height="7.001" rx="3.007" ry=".533" width="7.231" x="207.07" y="36.698"/></g></g><g transform="translate(105.434 -57.745) scale(.80308)"><rect fill="#ffd066" height="8.717" rx="3.745" ry=".664" stroke="#050000" stroke-linecap="round" stroke-linejoin="round" stroke-width=".481" width="9.004" x="43.129" y="103.96"/><text font-family="Lato" font-size="21.333" letter-spacing="0" transform="translate(28.288 98.703) scale(.26458)" word-spacing="0"><tspan x="63.807" y="43.988">Q</tspan></text></g><g transform="translate(105.434 -60.72) scale(.80308)"><rect fill="#ffa066" height="8.717" rx="3.745" ry=".664" stroke="#050000" stroke-linecap="round" stroke-linejoin="round" stroke-width=".481" width="9.004" x="53.192" y="103.96"/><text font-family="Lato" font-size="21.333" letter-spacing="0" transform="translate(37.977 98.766) scale(.26458)" word-spacing="0"><tspan x="63.807" y="43.988">W</tspan></text></g><g transform="translate(105.434 -60.72) scale(.80308)"><rect fill="#927cf3" height="8.717" rx="3.745" ry=".664" stroke="#050000" stroke-linecap="round" stroke-linejoin="round" stroke-width=".481" width="9.004" x="73.317" y="103.96"/><text font-family="Lato" font-size="21.333" letter-spacing="0" transform="translate(59.212 98.69) scale(.26458)" word-spacing="0"><tspan x="63.807" y="43.988">R</tspan></text></g><g transform="translate(99.485 -61.994) scale(.80308)"><rect fill="#ea80b4" height="8.717" rx="3.745" ry=".664" stroke="#050000" stroke-linecap="round" stroke-linejoin="round" stroke-width=".481" width="9.004" x="70.853" y="122.893"/><text font-family="Lato" font-size="21.333" letter-spacing="0" transform="translate(56.41 117.795) scale(.26458)" word-spacing="0"><tspan x="63.807" y="43.988">C</tspan></text></g><g font-family="Lato" font-size="21.333" letter-spacing="0" word-spacing="0"><text transform="translate(152.97 33.948) scale(.21248)"><tspan x="63.807" y="43.988">V</tspan></text><text transform="translate(161.136 34.643) scale(.21248)"><tspan x="63.807" y="43.988">B</tspan></text><text transform="translate(179.326 34.645) scale(.21248)"><tspan x="63.807" y="43.988">N</tspan></text><text transform="translate(187.04 33.81) scale(.21248)"><tspan x="63.807" y="43.988">M</tspan></text><text transform="translate(161.068 19.488) scale(.21248)"><tspan x="63.807" y="43.988">T</tspan></text><text transform="translate(179.206 19.46) scale(.21248)"><tspan x="63.807" y="43.988">Y</tspan></text><text transform="translate(187.253 18.557) scale(.21248)"><tspan x="63.807" y="43.988">U</tspan></text><text transform="translate(196.376 17.357) scale(.21248)"><tspan x="63.807" y="43.988">I</tspan></text><text transform="translate(203.38 18.526) scale(.21248)"><tspan x="63.807" y="43.988">O</tspan></text><text transform="translate(196.548 32.506) scale(.21248)"><tspan x="63.807" y="43.988">,</tspan></text><text transform="translate(204.642 33.763) scale(.21248)"><tspan x="63.807" y="43.988">.</tspan></text><text transform="translate(212.194 36.652) scale(.21248)"><tspan x="63.807" y="43.988">/</tspan></text><text transform="translate(152.797 26.294) scale(.21248)"><tspan x="63.807" y="43.988">F</tspan></text><text transform="translate(160.697 27.214) scale(.21248)"><tspan x="63.807" y="43.988">G</tspan></text><text transform="translate(179.267 27.059) scale(.21248)"><tspan x="63.807" y="43.988">H</tspan></text><text transform="translate(188.125 26.288) scale(.21248)"><tspan x="63.807" y="43.988">J</tspan></text><text transform="translate(195.322 25.026) scale(.21248)"><tspan x="63.807" y="43.988">K</tspan></text><text transform="translate(203.475 26.151) scale(.21248)"><tspan x="63.807" y="43.988">L</tspan></text><text transform="translate(212.508 28.712) scale(.21248)"><tspan x="63.807" y="43.988">;</tspan></text><text transform="translate(211.728 21.491) scale(.21248)"><tspan x="63.807" y="43.988">P</tspan></text></g><g stroke="#050000" stroke-linecap="round" stroke-linejoin="round" stroke-width=".5"><path d="M142.504 101.077s2.079-14.44 2.328-16.044c.123-.793-.202-1.566-.67-3.258-.274-.99-.745-2.156-.21-3.11s2.149-2.222 2.149-2.222.197-.61.444-1.594c.248-.984-.536-2.918-.727-3.894s-.784-6.481-.47-8.046c.316-1.566-.02-4.304-.733-5.48-.65-1.071-1.093-3.215-1.504-4.861-.537-2.156-1.066-4.333-1.25-6.548a9.725 9.725 0 01.045-1.92c.185-1.597.037-3.43.996-4.721.526-.708 1.448-1.39 2.321-1.27.835.115 1.894.926 1.81 1.764-.145 1.43-.3 2.471-.43 3.709-.09.849-.362 1.704-.243 2.549.194 1.375 1.205 2.525 1.527 3.876.27 1.128.323 3.464.323 3.464-.191-4.206-.11-2.675-.204-4.157s-.946-2.61-1.063-5.812c-.117-3.203.9-7.734 1.55-9.472.65-1.738 1.041-4.428 2.049-5.042 1.007-.615 2.715-.62 3.245.025.529.646.903 2.855.903 2.855s.594-2.43 1.085-4.237c.506-1.862 1.026-1.837 1.943-2.047.9-.207 2.006.265 2.595.977.828 1 .92 3.02.67 3.834s-.877 4.588-1.194 5.475-.667 1.574-.497 2.597c.171 1.024.721 6.323.621 7.2-.1.877-.538 5.112-.538 5.112s.829-6.394 1.253-9.59c.133-.998.213-2.006.405-2.995.326-1.678.75-2.58 1.213-4.269.553-2.02.457-4.443 2.137-5.41.934-.538 2.468-.311 3.198.482 1.004 1.09.367 2.957.297 4.439-.061 1.31-.518 2.576-.63 3.883-.1 1.157.045 2.33-.036 3.483-.082 1.152.198 3.806.217 5.711.019 1.786-.094 5.356-.094 5.356s.467 4.974.505 6.175c.037 1.201.622 4.192.644 5.718.022 1.577-.328 3.275-.328 3.275l.335-2.047c2.06-4.028 3.086-5.847 2.738-7.966-.19-1.173-.167-3.451.135-4.67.308-1.242.711-2.777 2.375-2.938.41-.04.848.183.848.183s.63-.282 1.47-.274c.996.01 1.954.649 1.954.649s.366 2.215.178 3.302c-.187 1.087-.07 2.577.051 3.94.12 1.364.212 3.41-.223 4.45s-.84 4.136-2.627 6.906c-1.64 2.538-2.312 3.81-4.82 6.42-1.753 1.825-2.025 2.276-2.778 3.588-1.342 2.338-2.223 4.927-3.025 7.501-.399 1.28-.723 2.594-.88 3.926-.408 3.462-.104 10.98-.104 10.98" fill="#ffc68a"/><path d="M154.69 31.868c-.923 2.727-1.123 3.548-1.154 5.366-.031 1.818.018 7.04-.005 9.105-.022 2.066-.372 4.367-.372 4.367m21.428-1.106c-.276.465-.6 1.163-.59 2.588.011 1.424.129 1.559.661 2.031.382.34 1.007.36 1.504.298.887-.112 1.87.165 1.87.165M142.802 40.8c.203.771.19.983 1.568 1.041 1.472.062 1.804-.663 1.804-.663m3.279-9.681c.324.463.393.724 1.424.69.636-.022 1.43-.076 1.872-.378.259-.177.515-.799.515-.799m2.83-3.097c-.004.621.298 1.03.69 1.101.842.156 1.503.422 2.232.252.379-.087.728-.4.983-.627m3.565 2.65c.334.392.14.553.895.809.33.112 2.086.314 2.27.125s.446-.445.446-.445m-8.792 25.355c-.181.327-.278.438-.48.593-.156.12-.54.24-.54.24m-10.095 17.603l-1.167.874m16.456-36.525c.486.39 1.337.176 1.337.176m-8.597-1.051c.707.624 1.557.239 1.557.239m-7.449 1.519l1.1-.255m25.24 19.976l1.164.226M156.822 31.2c.738.073.958.24.958.24" fill="none"/></g></svg>