<?xml version="1.0" encoding="UTF-8" standalone="no"?>
<!-- Creator: CorelDRAW 2019 (64-Bit) -->

<svg
   xmlns:dc="http://purl.org/dc/elements/1.1/"
   xmlns:cc="http://creativecommons.org/ns#"
   xmlns:rdf="http://www.w3.org/1999/02/22-rdf-syntax-ns#"
   xmlns:svg="http://www.w3.org/2000/svg"
   xmlns="http://www.w3.org/2000/svg"
   xmlns:sodipodi="http://sodipodi.sourceforge.net/DTD/sodipodi-0.dtd"
   xmlns:inkscape="http://www.inkscape.org/namespaces/inkscape"
   xml:space="preserve"
   width="201.93555"
   height="234.56932"
   version="1.1"
   style="clip-rule:evenodd;fill-rule:evenodd;image-rendering:optimizeQuality;shape-rendering:geometricPrecision;text-rendering:geometricPrecision"
   viewBox="0 0 178.37576 207.20681"
   id="svg10"
   sodipodi:docname="streacom_logo_head_name.svg"
   inkscape:version="0.92.4 (5da689c313, 2019-01-14)"><metadata
   id="metadata14"><rdf:RDF><cc:Work
       rdf:about=""><dc:format>image/svg+xml</dc:format><dc:type
         rdf:resource="http://purl.org/dc/dcmitype/StillImage" /><dc:title></dc:title></cc:Work></rdf:RDF></metadata><sodipodi:namedview
   pagecolor="#ffffff"
   bordercolor="#666666"
   borderopacity="1"
   objecttolerance="10"
   gridtolerance="10"
   guidetolerance="10"
   inkscape:pageopacity="0"
   inkscape:pageshadow="2"
   inkscape:window-width="2060"
   inkscape:window-height="1298"
   id="namedview12"
   showgrid="false"
   fit-margin-top="0"
   fit-margin-left="0"
   fit-margin-right="0"
   fit-margin-bottom="0"
   inkscape:zoom="1.0459844"
   inkscape:cx="638.51361"
   inkscape:cy="249.72531"
   inkscape:window-x="0"
   inkscape:window-y="0"
   inkscape:window-maximized="0"
   inkscape:current-layer="svg10" />
 <defs
   id="defs4">
  <style
   type="text/css"
   id="style2">
   <![CDATA[
    .fil0 {fill:#FEFEFE}
   ]]>
  </style>
 
  
  
 </defs>
 <path
   style="fill:#000000;fill-opacity:1;stroke-width:1"
   d="M 89.18025,0 6.8786,23.689998 38.3997,41.719314 89.18025,27.109524 139.95907,41.719314 171.4888,23.689998 Z M -0.0105,35.489274 20.44975,117.90997 82.28943,176.67 82.29973,140.5993 44.15006,104.34917 31.51918,53.509964 Z m 178.37976,0 -31.52972,18.02069 -12.63087,50.839206 -38.14968,36.25013 0.0104,36.0707 61.86037,-58.76003 z"
   id="path7"
   inkscape:connector-curvature="0" />
<path
   style="clip-rule:evenodd;fill:#000000;fill-opacity:1;fill-rule:evenodd;stroke-width:0.22584173;image-rendering:optimizeQuality;shape-rendering:geometricPrecision;text-rendering:geometricPrecision"
   d="m 12.139007,189.33795 c -1.13373,0 -2.10525,0.39122 -2.90022,1.17491 -0.79496,0.78365 -1.19045,1.72857 -1.19045,2.83294 v 1.72875 c 0,1.12017 0.39549,2.06305 1.19045,2.84672 0.79497,0.78142 1.76649,1.17493 2.90022,1.17493 h 9.08885 c 0.61655,0 1.13215,0.20866 1.55448,0.61076 0.42006,0.40424 0.62973,0.91021 0.62973,1.51998 v 1.60107 c 0,0.61205 -0.20962,1.11653 -0.62973,1.53206 -0.42233,0.41329 -0.93793,0.61075 -1.55448,0.61075 H 8.678067 v 2.22391 h 13.13465 c 1.11793,0 2.07765,-0.39182 2.87262,-1.1732 0.79495,-0.78368 1.20426,-1.72828 1.20426,-2.84846 v -2.39643 c 0,-1.10438 -0.40931,-2.05963 -1.20426,-2.84328 -0.79497,-0.78368 -1.75469,-1.17493 -2.87262,-1.17493 h -9.09228 c -0.63011,0 -1.15329,-0.19624 -1.56657,-0.6004 -0.42006,-0.40199 -0.61766,-0.91909 -0.61766,-1.54241 v -0.91269 c 0,-0.61883 0.1976,-1.12608 0.61766,-1.53033 0.41328,-0.40202 0.93646,-0.61075 1.56657,-0.61076 h 11.93212 v -2.22389 z m 15.35166,0 v 2.19974 h 7.39978 v 15.65704 h 2.49477 v -15.65704 h 7.41013 v -2.19974 z m 20.03928,0 v 17.85678 h 2.48614 v -7.41014 h 7.5171 l 4.26147,7.42221 h 2.79325 l -4.46332,-7.42221 h 0.42269 c 1.12018,0 2.08973,-0.37916 2.88469,-1.16285 0.79496,-0.79494 1.20253,-1.74927 1.20253,-2.85363 v -2.40851 c 0,-1.10889 -0.40757,-2.05178 -1.20253,-2.84674 -0.79496,-0.78369 -1.76451,-1.17491 -2.88469,-1.17491 z m 23.68309,0 c -1.13374,0 -2.10354,0.40612 -2.89849,1.18527 -0.79043,0.78368 -1.18873,1.72749 -1.18873,2.83638 v 9.80139 c 0,1.12018 0.3983,2.07686 1.18873,2.86054 0.79495,0.78138 1.76475,1.1732 2.89849,1.1732 h 13.21402 v -2.25496 h -12.63087 c -0.6301,0 -1.15659,-0.19963 -1.56311,-0.60386 -0.40875,-0.402 -0.60904,-0.91909 -0.60904,-1.5424 v -3.69731 h 12.30652 v -2.25669 h -12.30652 v -3.11069 c 0,-0.61201 0.20015,-1.11796 0.60904,-1.51999 0.40652,-0.40423 0.93301,-0.61247 1.56311,-0.61247 h 12.63087 v -2.25841 z m 23.66239,0 -9.36143,17.85678 h 2.80532 l 2.84156,-5.47436 h 10.408693 l 2.84156,5.47436 h 2.79325 l -9.351093,-17.85678 z m 17.480673,0 c -1.13374,0 -2.1035,0.40612 -2.89849,1.18527 -0.80624,0.78368 -1.20252,1.72749 -1.20252,2.83638 v 9.80139 c 0,1.12018 0.39628,2.07686 1.20252,2.86054 0.79499,0.78138 1.76475,1.1732 2.89849,1.1732 h 13.20367 v -2.21356 h -12.6188 c -0.63236,0 -1.15605,-0.19332 -1.56483,-0.60902 -0.42233,-0.41553 -0.62111,-0.92228 -0.62111,-1.53207 v -9.1475 c 0,-0.60751 0.19865,-1.11648 0.62111,-1.53206 0.40878,-0.41555 0.93247,-0.62283 1.56483,-0.62283 h 12.6188 v -2.19974 z m 18.68321,0 c -1.13374,0 -2.10181,0.40612 -2.89677,1.18527 -0.79497,0.78368 -1.1939,1.72749 -1.1939,2.83638 v 9.80139 c 0,1.12018 0.39893,2.07686 1.1939,2.86054 0.79496,0.78138 1.76303,1.1732 2.89677,1.1732 h 10.9349 c 1.12468,0 2.09394,-0.39182 2.90021,-1.1732 0.80623,-0.78368 1.21461,-1.74036 1.21461,-2.86054 v -9.80139 c 0,-1.10889 -0.40838,-2.0527 -1.21461,-2.83638 -0.80627,-0.77915 -1.77553,-1.18527 -2.90021,-1.18527 z m 16.25398,0 v 17.85678 h 2.48959 v -12.57911 l 7.87597,12.15296 h 2.30154 l 7.87595,-12.15296 v 12.57911 h 2.47408 v -17.85678 h -2.09105 l -9.41493,14.69949 -9.4201,-14.69949 z m -97.277203,2.19974 h 9.94459 c 0.60979,0 1.13333,0.20839 1.55794,0.61248 0.4178,0.41556 0.62973,0.9236 0.62973,1.54241 v 1.7391 c 0,0.60301 -0.21116,1.10841 -0.61765,1.52171 -0.42459,0.41555 -0.93766,0.62283 -1.57002,0.62283 h -9.94459 z m 81.608083,0 h 9.76862 c 0.63008,0 1.14477,0.20745 1.56483,0.62283 0.42233,0.41558 0.62973,0.92455 0.62973,1.53206 v 9.1475 c 0,0.60979 -0.20735,1.11654 -0.62973,1.53207 -0.42006,0.41554 -0.93475,0.60902 -1.56483,0.60902 h -9.76862 c -0.63235,0 -1.15607,-0.19254 -1.56484,-0.59695 -0.40878,-0.40425 -0.61075,-0.92305 -0.61075,-1.54414 v -9.1475 c 0,-0.61881 0.20188,-1.12685 0.61075,-1.54241 0.40877,-0.40425 0.93249,-0.61248 1.56484,-0.61248 z m -35.264983,0.2657 3.985433,7.67238 h -7.982943 z"
   id="path7-3"
   inkscape:connector-curvature="0" /></svg>