<svg height="239.769" viewBox="-3 -3 140.876 63.439" width="532.445" xmlns="http://www.w3.org/2000/svg"><g stroke="#000" stroke-linecap="round"><path d="M94.088 15.878c.157 1.15-.129 2.402-.129 2.402s-.409-.685-.81-.862c-.401-.177-.873-.997-.873-.997" fill="none" stroke-width=".265"/><path d="M80.982 34.418c1.579-.59 3.5-1.113 4.588-2.125.96-.893 3.859-1.82 4.379-.895.318.614 1.071 1.14 1.017 1.97-.055.831-.396 1.26-.437 1.911-.04.631.378 1.308.187 1.887-.19.579-1.589 1.073-2.424 1.099-.835.026-2.673-.05-4.394.595-1.787.67-4.687 1.911-5.75 2.4-2.252 1.034-5.37 2.994-7.138 2.837-.904-.117-2.08-.979-2.277-1.515s-.395-3.472-.395-3.472-.078-1.012.413-1.419c1.503-1.242 3.313-.476 6.115-1.502 2.624-.996 4.128-1.028 6.116-1.771z" fill="#f4eed7" stroke-width=".397"/><g fill="none" stroke-width=".397"><path d="M14.516 25.006s-.82.958-2.335 1.636c-1.485.665-3.1 1.132-4.723 1.23-2.28.01-5.413-.47-6.752-2.203-.374-.506-.596-1.089-.475-1.827.12-.737.761-1.373 1.635-1.968 1.98-1.349 3.843-2.55 6.344-3.63 2.385-.95 4.83-1.362 7.156-2.146a86.417 86.417 0 008.154-3.284c1.158-.533 2.16-1.439 3.394-1.765.766-.203.958-.08 2.377-.09 1.418-.01 6.127.149 6.127.149"/><path d="M11.808 23.969s.506.464.96.67c.612.277.971.309 1.764.37.792.063 2.484.13 4.674-.206 3.847-.622 7.42-1.837 10.971-3.344m-1.916-1.099c.941.629 1.714 1.065 3.008 1.372 1.143.2 2.008.27 3.463.35 1.714.095 4.002.126 5.379.169 1.397.043 4.935.089 5.269.285.601.353.66.572 1.363 1.613.703 1.042.58.922 1.126 1.523.822.902 1.961 1.609 2.705 1.92.743.31 1.871.73 2.453.689.581-.043.812.009.812.009m-34.391 1.757s-.09.387-.584.841c-.494.455-2.018 1.613-3.107 2.223-1.09.611-2.555 1.417-4.259 1.864-1.704.448-3.003.342-3.608.16-.638-.192-1.927-1.097-2.206-2.3-.277-1.192.024-1.491.31-2.171.287-.68 1.085-1.934 1.374-2.334.29-.4.375-.483.375-.483m10.645 1.556c.41.326-.008.08.41.326.417.246.65.318.65.318s.492.079 1.292.099c.799.02 2.096-.006 3.126-.192 1.03-.185 2.656-.391 3.38-.494.724-.103 3.01-.319 3.953-.584.943-.265 2.117-1.241 2.117-1.241m-1.475-1.233s.231.392.712.732c.48.34.763.5.763.5s1.628.366 2.682.363c1.055-.003 5.687.042 6.664.01.977-.032 2.318.035 2.318.035m-.96-1.321c.34.455.63.833.96 1.321 1.017.367 2.088.4 3.424.722"/><path d="M47.362 25.119s-.13.218-.067.652c.063.434.441 1.651.686 2.226.244.574.423.767.423.767s.568.415 1.109.86c.54.445 1.911 1.155 2.552 1.686.641.532.698.506 1.516 1.267.817.76 1.616 1.619 2.277 2.608.66.99 1.374 2.982 1.374 2.982m-4.209-11.4c.303.56.44.819.816 1.523 0 0 1.81 4.065 2.471 5.43.661 1.365 1.36 2.088 1.36 2.088"/><path d="M58.153 33.187c-.138 1.214-.482 2.621-.482 2.621s.051.505.088.97c.038.464-.527 1.389-.527 1.389s-.448.744-.86 1.15c-.412.406-2.92 1.672-4.5 2.306-1.578.633-2.791 1.147-3.83 1.53-2.344 1.068-4.9.993-7.065 1.854-1.087.437-2.292 1.083-3.037 1.768-2.085 1.918-2.642 4.748-2.11 7.197.673 2.14 2.422 3.25 4.175 3.269 3.704-.033 7.083-1.131 10.233-2.479 1.507-.641 7.105-3.048 7.105-3.048 1.21-.568 2.47-.892 3.708-1.326 4.012-1.405 13.46-4.599 13.46-4.599 5.715-2.16 10.628-5.322 13.439-5.969m9.954-2.026c9.365-.838 12.32.096 18.3 1.384 4.532.977 8.65 2.871 13.07 4.755"/><path d="M63.035 31.849c.212 1.236-.2 2.145-.959 2.82-.45.402-2.134 1.006-3.068 1.714-.669.506-1.776 1.784-1.776 1.784m-33.35-8.23s-.652 1.576-1.053 2.327c-1.11 2.078-1.721 3.582-3.729 6.002-.354.427-1.095 1.734-1.155 2.242-.06.508.597 1.342.965 1.69.492.466 1.37 1.065 2.811 1.142 1.442.077 2.4-.16 3.513-.573 1.128-.418 2.256-1.029 3.081-1.881 1.102-1.138 2.472-2.935 2.98-4.137.506-1.202.74-2.043.74-2.043"/><path d="M30.433 33.668s.22.23.911.634l.691.404c1.754.127 3.31-.01 4.948-.21 1.86-.227 3.212-.348 4.973-1.088"/><path d="M36.983 34.496s.12.391-.443 1.315c-.564.924-1.11 1.37-1.463 2.167-.488 1.098-.926 2.823-.863 3.498.063.675.375 1.552.979 1.815 1.114.486 2.862.402 3.727-.34 1.092-.987 1.616-1.75 1.821-3.183"/><path d="M39.188 39.03s.404.333.979.535l.574.203c1.47.136 3.035-.758 4.094-2.112"/><path d="M44.114 36.97l.721.686s.886.501 1.476.59c.59.089 1.272.323 3.356.143 2.084-.18 3.832-.418 4.434-.324.603.093 2.067 1.38 2.067 1.38m-14.789-7.247s-.038.191.121.511c.16.32.457.699.457.699s.897.54 1.521.656c2.131.392 8.235-.023 10.48-1.036M35.246 11.089s1.341.16 2.014.21c3.783.44 7.672.1 11.295-.241 1.946-.188 6.878-.548 8.826-.876 1.947-.328 3.445.1 5.148.337 4.808.67 9.444 2.3 14.24 3.056 3.85.607 7.151 1.069 11.636 1.181m-49.223 42.42c.052.003 4.82-1.704 5.178-2.034.358-.33.133-.846.133-.846m-8.627-3.909c.046-.003 5.42-1.45 5.744-1.204.335.255.298.549.298.549"/></g><path d="M47.075 48.25c-2.898 1.15-1.274.432-2.909 1.15-1.635.719-1.574.687-1.908 1.037-.335.35-.668.985-.68 1.548-.01.436.125.96.476 1.219.52.384 1.075.265 1.933.145.858-.12 2.846-.802 3.816-1.148.97-.346 2.648-1.146 3.636-1.288.987-.143 1.707.221 2.148.291.44.07 1.15-.162 1.514-.453.363-.291.303-1.268.289-1.913-.015-.703-.11-1.431-.404-2.07-.307-.671-.739-1.355-1.368-1.741a1.888 1.888 0 00-1.265-.253c-.514.087-1.015.445-1.345.797-.33.353-.78 1.105-1.448 1.594-.669.488-2.485 1.086-2.485 1.086z" fill="#f4eed7" stroke-width=".397"/></g><g stroke="#000" stroke-linecap="round" stroke-width=".397"><g fill="#f4eed7"><path d="M104.782 22.1c-1.336-.237-4.464-.835-5.014-1.278s-1.134-1.429-.897-2.085.68-.845 1.325-.853c.645-.007 6.838.372 9.351.81 2.513.436 5.934 1.477 9.708 1.713s13.708 1.48 13.708 1.48l-5.782 2.476s-9.609-.617-12.184-1.006-6.46-.592-10.215-1.257zm-11.533-1.226c-.267.7-.245 1.318.211 2.237s1.136 3.412 2.227 4.61 1.814 1.568 2.59 1.602c.776.033 2.042-.082 2.167-1.866.124-1.783.34-5.45-.96-6.408-1.298-.957-2.756-2.372-4.12-2.142-1.364.23-1.773 1.067-2.115 1.967z"/><path d="M93.935 24.3c1.736.971 2.214 2.594 2.108 3.69s.739.15.604 1.627c-.103 1.126-2.887 2.384-4.46 2.757-1.571.373-5.406.698-6.108-.316-.703-1.013-1.49-1.616-.943-2.757.547-1.142 1.43-1.046.687-1.678-.86-.732.397-1.945.708-2.3.31-.354 2.262-1.707 3.128-1.952.865-.244 3.188.32 4.276.928zm2.059-6.495c.864.695 1.323 1.893 1.202 2.486-.121.593-.72 1.828-2.766.965-2.501-1.056.035-4.437 1.564-3.451z"/><path d="M69.131 19.46s2.128.057 3.385.535c1.257.477 5.621 2.912 6.665 3.36s2.694 1.76 4.86 1.609c2.166-.15 4.889-.87 6.252-1.655 1.362-.786 3.33-1.407 3.538-2.16.208-.754.513-2.05-.095-2.692-.61-.642-3.807-1.458-6.978-1.93-3.172-.473-12.752-2.246-12.752-2.246"/></g><path d="M133.015 13.434c-6.973 1.15-3.65.772-7.226 1.238-3.576.466-24.8.743-24.8.743" fill="none"/></g><g stroke="#000"><g stroke-linecap="round" stroke-width=".397"><g fill="#f4eed7"><path d="M115.925 34.82s-5.629.115-9.187.215c-3.558.1-15.247 1.727-16.383 1.391-1.136-.336-.909-.946-.526-1.043.384-.098 9.254-1.405 10.67-1.45 1.415-.045 15.543-.145 15.543-.145z"/><path d="M84.543 37.446c5.845-1.806 16.413-4.216 17.833-4.336s13.913-.426 13.913-.426l.064-1.965s-4.948.647-7.525.697c-2.577.05-4.52-.391-9.232.885s-14.392 3.645-18.408 4.637c-4.016.991-10.904 2.475-11.909 3.314l.67 2.7c5.412-2.383 9.626-3.971 14.594-5.506zm44.745 2.28c-3.37-.097-4.99-.033-7.121-.835-2.131-.802-3.01-1.6-4.58-2.252-.862-.358-2.57-.508-2.649-.91-.08-.401.423-1.054.268-1.424-.155-.37.606-.809 1.156-.898 1.824-.294 7.676-.275 11.486.104 1.043.104 3.087.592 3.087.592"/></g><path d="M102.467 18.924c.193 1.86-.228 6.984-1.593 8.988-1.365 2.004-.913 2.106-.673 2.886.24.78-.437 2.194-.374 2.875.062.681.082 1.853-.199 2.447-.46.976-1.819 1.69-1.819 1.69m-2.547.434s-4.95 1.173-7.247 1.552c.286-.74.982-2.873 1.109-3.074.254-.401 1.49-1.51 1.314-3.043-.176-1.532.443-1.928.115-2.808-.328-.88-.784-.385-.692-1.316.093-.93 1.328-1.834 1.55-3.1.223-1.267 1.104-4.815-.916-9.072-.604-1.274-1.738-.461-2.242-1.275l-.259-.418c-.893-1.442 2.84-.961 5.553-.684.847.086 2.553.083 2.553.083 6.193-.455 5.417.303 6.402 3.918" fill="none"/></g><path d="M100.14 16.25l3.531-4.734" fill="none" stroke-width=".655"/><g stroke-linecap="round"><path d="M55.163 43.964c.084-.427.422.04 2.144-.348 1.722-.389 3.647-1.087 4.661-1.645s2.39-1.325 3.174-2.292c.467-.575 1.907-1.052 2.22-1.022.314.029 1.756.214 1.85.855.192 1.297.72 1.74 1.003 2.443.174.5-.137 1.06-.452 1.486-1.227 1.658-3.953 1.647-5.455 2.126-1.503.48-2.384 1.015-3.224 1.47-.84.456-1.707.907-2.609 1.25-.622.235-1.788.792-1.92.548-.13-.244.138-.74.064-1.53a5.557 5.557 0 00-.504-1.929c-.234-.517-1.062-.853-.952-1.412z" fill="#f4eed7" stroke-width=".397"/><g fill="none"><path d="M99.679 15.594s.621.66 1.214 1.446c.592.786 1.376 2.774 1.376 2.774m-3.957-3.646c.574.828 1.293 3.298 1.293 3.298m-8.288-3.611c.065.407.064.471.335.757.27.285.889.915.889.915s-.161-.213-.197-.797a7.148 7.148 0 00-.1-.897m-1.613 22.764c.575-.294 1.054-.816 1.192-1.05.137-.234.224-.733.224-.733" stroke-width=".265"/><path d="M92.822 38.302c.682-.325.915-.805 1.332-.973.418-.168 1.07-.455 1.147-.543a.795.795 0 01.082-.09" stroke-width=".244"/><path d="M93.15 30.599c-.282-.425-.27-.718-.075-1.035.193-.317.967-1.195.967-1.195M95.13 30.6c-.131-.362-.217-.704-.094-1.15.122-.445.567-1.343.505-1.524-.062-.182-.083-.58-.083-.58m1.809 3.182c-.11-.294-.219-.744-.07-1.093s.378-1.026.378-1.026m-6.779 1.706c.425-.532.855-1.294 1.168-2.062.313-.769.71-1.36.71-1.36m3.669-10.906c.585.762.466.549.634.864.234.438.508 1.401.508 1.401m1.845 12.215s-.185-.684-.14-1.169c.046-.484.137-.945.33-1.23s.222-.323.222-.323" stroke-width=".265"/></g></g></g><text font-family="Lato" font-size="4.939" letter-spacing="0" stroke-width=".265" word-spacing="0" x="112.262" y="160.971" transform="translate(-9.294 -150.521)"><tspan x="112.262" y="160.971">Retinaculum</tspan></text><text font-family="Lato" font-size="21.333" letter-spacing="0" transform="translate(22.598 -2.723) scale(.26458)" word-spacing="0"><tspan x="219.541" y="26.004">Carpal bones</tspan></text><g stroke="#000"><path d="M68.523 20.638c.724.31 24.806 10.438 24.49 10.503-2.526.515-7.22 1.027-11.622 3.134s-13.448 6.299-17.267 7.889c-3.92 1.632-15.29 6.286-21.928 9.447-.274.13.394.72.678.611 2.365-.91 16.478-6.657 24.642-10.165h0c6.458-3.052 11.494-6.1 17.668-8.033 4.603-1.44 6-1.7 14.235-2.586 8.235-.886 31.682-.494 31.682-.494.192-.387.334-.687.42-.944 0 0-18.38-.551-26.429-.117-4.013.217-7.489.385-10.01.847-2.31-1.034-20.789-8.677-25.972-10.9" fill="#fc0" stroke-linecap="round" stroke-width=".397"/><path d="M98.245 9.395s-.08-1.243-.57-1.442c-2.156-.88-4.545 1.649-5.736-.717 0 0-.864 1.04-1.733 1.072-1.652.062-2.765-.49-4.143.147-.48.223-.364 1.275-.364 1.275" fill="none" stroke-width=".578"/><g stroke-linecap="round" stroke-width=".397"><path d="M134.677 21.398c-4.208 1.14-9.756 4.05-12.588 5.888-2.832 1.837-4.629 2.09-5.9 3.105s-.241.943-.221 1.412c.02.463-1.932.834-1.463 1.282 5.208 1.233 11.005.17 16.43 1.018" fill="#f4eed7"/><path d="M133.795 24.206s-2.013.708-3.021.913c-1.008.204-1.815.117-3.901.85-2.087.732-8.442 3.291-8.442 3.291m.233 5.329s-.97-.112-1.618-.348-1.239-.693-1.239-.693" fill="none"/></g></g><path d="M94.219 31.255l5.188 15.39" fill="none" stroke="#ff2a2a" stroke-width=".75"/><text font-family="Lato" font-size="21.333" letter-spacing="0" transform="translate(-5 -9.11) scale(.26458)" word-spacing="0"><tspan x="334.146" y="232.045">Median nerve</tspan></text></svg>