<svg height="234.568" viewBox="0 0 94.549 62.063" width="357.35" xmlns="http://www.w3.org/2000/svg"><path d="M24.18 37.057c2.953.241 6.945.239 8.518.941h0c1.896.9 4.483 2.288 6.263 2.918 1.1.389 3.414.76 3.414.76 1.866.207 2.87.791 4.848-.301 1.195-.66 3.254-2.137 2.774-3.451-1.451-3.97-3.056-9.332-2.908-11.478.174-2.288 1.755-5.132 1.622-6.391-.106-1.006-3.052-1.687-4.714-2.103-1.663-.417-4.691.853-6.886 1.9-2.195 1.048-2.965 1.147-5.693 1.362-2.73.216-7.241-.443-7.241-.443" fill="#f4eed7" stroke="#000" stroke-linecap="round" stroke-width=".397"/><g font-family="Lato" font-size="4.939" letter-spacing="0" stroke-width=".265" word-spacing="0"><text x="108.96" y="88.321" transform="translate(-93.698 -59.985)"><tspan x="108.96" y="88.321">Proximal</tspan><tspan x="108.96" y="94.495">phalanx</tspan></text><text text-anchor="end" x="169.757" y="68.563" transform="translate(-93.698 -59.985)"><tspan x="169.757" y="68.563">UCL proper</tspan><tspan x="169.757" y="74.737">(cord like)</tspan></text><text x="98.683" y="110.15" transform="translate(-93.698 -59.985)"><tspan x="98.683" y="110.15">Accessory UCL</tspan><tspan x="98.683" y="116.324">(fan like)</tspan></text><text x="143.895" y="114.32" transform="translate(-93.698 -59.985)"><tspan x="143.895" y="114.32">Volar plate</tspan></text></g><path d="M83.925 18.933s-3.485.736-6.524.798-9.73.466-12.76.178c-3.03-.288-6.056-1.508-7.399-1.424-1.343.085-3.063-.088-4.328.702-1.266.79-2.902 3.589-3.223 4.61-.32 1.022-.715 2.753-.749 5.64-.033 2.886.5 6.25.976 7.26.476 1.008 2.656 6.778 8.137 5.741 5.48-1.037 7.14-2.5 8.453-3.304 1.312-.803 1.835-2.132 4.592-3.08 2.757-.947 6.05-1.453 9.395-1.597l3.345-.143" fill="#f4eed7" stroke="#000" stroke-linecap="round" stroke-width=".397"/><text font-family="Lato" font-size="4.939" letter-spacing="0" stroke-width=".265" word-spacing="0" x="159.293" y="89.217" transform="translate(-93.698 -59.985)"><tspan x="159.293" y="89.217">Metacarpal</tspan></text><g stroke="#000"><g stroke-linecap="round"><g stroke-width=".397"><path d="M47.517 35.458c4.078-1.747 10.436-5.302 10.436-5.302s.03-1.295-.752-1.258c-.781.036.336-.808-.435-1.316 0-.7.942-.873.608-1.059s-10.222 4.605-11.722 5.145c-1.5.54-4.691 1.404-4.427 1.776.265.372 1.103.314.495.78-.609.465-1.499.768-.793.775.706.006 1.491.205 1.325.576-.167.371-.665.894-.434 1.257.23.363.633.314.438.839-.577 1.549 4.1-1.716 5.261-2.213z" fill="#f55"/><path d="M60.843 42.634c2.826-1.109 4.365-1.907 4.803-1.89.438.017 1.134.854.892 1.505-.242.651-1.305 1.726-3.86 2.632s-7.32 1.479-9.926 1.214-4.805-.48-6.763-2.158c-.31-.266-.36-.91-.096-1.224.486-.577 2.252-.213 2.252-.213" fill="#f4eed7"/><path d="M57.953 30.156c-.724-.6-.469-1.18-1.287-.221-.818.96-2.997 2.933-4.714 5.426-1.716 2.493-4.452 6.694-3.99 7.247.464.552.901-.296 1.343.345s.185.86.78.578.718-.566 1.195-.108c.476.458.62.279 1.221.09.601-.188.835.466 1.276.4.448-.065.833-1.041 1.125-.764s.576 1.139 1.28.9c.706-.239 1.187-1.167 2.028-1.035.84.132 1.37.677 1.957.364.587-.313.869-.622.465-1.553-.403-.931-.784-3.355-.694-5.052.098-1.859 1.46-4.953 1.339-5.42s-1.131.11-1.38-.484c-.248-.594-.785.528-1.147.356-.38-.18.205-1.377-.47-1.17l-.327.101" fill="#f55"/></g><g stroke-width=".265"><path d="M61.253 36.384s.36.699 1.083.555c.722-.144 1.256-.41 1.343-.733.087-.323.439-.906 1.016-.813.578.094 1.079.17 1.167.451.087.281-.005 1.2-.005 1.2m-.417 2.431c.1-.598.326-1.191.811-1.169.493.022.168-1.735.603-1.858.473-.134.377-.521 1.054-.53.676-.01.462-.575.722-.596.26-.022.759-.531 1.208-.614.45-.083.83.124 1.28.086.45-.038.961-.498 1.473-.493.511.005 1.527.66 1.527.66m-2.261-1.628c-.835.154-.41.133-.826.163s-1.78.025-1.78.025m-5.349.657c-.029-.645-.116-.326-.029-.645.087-.319.272-.655.272-.655m1.255 1.915c-.362-.42-.565-.332-.502-1.045.062-.713.323-1.585.323-1.585m1.921-11.388c-.878.338-.975.57-1.762.542-.786-.029-2.376-.832-2.376-.832m-9.072 3.98c.219-.463.28-.907.498-1.12s.957-.332 1.198-.74c.22-.376.931-.499.951-.63.02-.13.074-.652.074-.652m-12.775-1.252c.557.265 1.156.11 1.242.355.087.244.5.262.02.613s-.871.696-.683.881c.189.185 1.158.023.526.224-.81.258-1.228.927-.762 1.206.465.278 1.268.513.765.785-.503.273-.936.334-1.042.66-.106.327.01.665.01.665m2.432-4.562c.33.396.163.09.33.396.167.307 0 .07-.28 1.104a165.65 165.65 0 00-.512 1.933m-.622-5.507c.576.457.829.657 1.283.795.454.138 1.002.248 1.002.248m-.166 16.303c-.01.725.023 1.555.144 1.82.122.266.326.774.326.774l-1.036-1.649m-1.113.529l.574 1.196M31.102 22.048s1.73.085 2.186-.03c.456-.114.488-.191.747-.022.259.168.327.183.327.183m.803-.076c.638.151.758.21-.188.49s-2.614.583-2.18.74c.436.155.831.207.831.207m2.385 14.451l1.944 2.54m-3.437-2.787l.734 1.514" fill="none"/><path d="M32.608 36.957l.8 1.358" fill="red"/></g></g><path d="M54.155 13.688L52.36 30.252M36.601 45.235l17.573-8.404m6.048 12.454l.136-4.656" fill="none" stroke-width=".562"/></g></svg>