<svg height="303.832" viewBox="0 0 180.717 80.389" width="683.023" xmlns="http://www.w3.org/2000/svg"><g stroke="#000" stroke-linecap="round"><path d="M112.813 25.138c.157 1.15-.128 2.402-.128 2.402s-.41-.685-.81-.862c-.402-.177-.874-.997-.874-.997" fill="none" stroke-width=".265"/><path d="M85.982 43.527c1.579-.59 3.5-1.113 4.588-2.125.96-.893 3.859-1.82 4.379-.895.318.614 1.071 1.14 1.017 1.97-.055.831-.396 1.26-.437 1.912-.04.63.378 1.308.187 1.886-.19.579-1.589 1.073-2.424 1.099-.835.026-2.673-.05-4.394.596-1.787.67-4.687 1.91-5.75 2.399-2.252 1.034-5.37 2.994-7.138 2.837-.904-.117-2.08-.979-2.277-1.515s-.395-3.472-.395-3.472-.078-1.012.413-1.418c1.503-1.243 3.313-.476 6.115-1.503 2.624-.996 4.128-1.028 6.116-1.771z" fill="#f4eed7" stroke-width=".397"/><g fill="none" stroke-width=".397"><path d="M19.516 34.115s-.82.958-2.335 1.636c-1.485.665-3.1 1.132-4.723 1.23-2.28.01-5.413-.47-6.752-2.203-.374-.506-.596-1.089-.475-1.827.12-.737.761-1.372 1.635-1.967 1.98-1.35 3.843-2.55 6.344-3.631 2.385-.95 4.83-1.362 7.156-2.145a86.417 86.417 0 008.154-3.284c1.158-.533 2.16-1.44 3.394-1.766.766-.203.958-.08 2.377-.09 1.418-.01 6.127.149 6.127.149"/><path d="M16.808 33.078s.506.464.96.67c.612.277.971.309 1.764.371.792.062 2.484.128 4.674-.207 3.847-.622 7.42-1.837 10.971-3.344m-1.916-1.098c.941.628 1.714 1.065 3.008 1.371 1.143.2 2.008.27 3.463.35 1.714.095 4.002.126 5.379.169 1.397.044 4.935.09 5.269.285.601.354.66.572 1.363 1.613.703 1.042.58.923 1.126 1.523.822.902 1.961 1.61 2.705 1.92.743.31 1.871.73 2.453.689.581-.042.812.009.812.009m-34.391 1.757s-.09.387-.584.841c-.494.455-2.018 1.613-3.107 2.224-1.09.61-2.555 1.416-4.259 1.863-1.704.448-3.003.342-3.608.16-.638-.192-1.927-1.096-2.206-2.3-.277-1.192.024-1.491.31-2.171.287-.68 1.085-1.934 1.374-2.334.29-.4.375-.482.375-.482m10.645 1.555c.41.326-.008.08.41.326.417.246.65.318.65.318s.492.079 1.292.1c.799.02 2.096-.007 3.126-.192 1.03-.186 2.656-.392 3.38-.495.724-.102 3.01-.318 3.953-.584.943-.265 2.117-1.241 2.117-1.241m-1.475-1.234s.231.393.712.733c.48.34.763.501.763.501s1.628.365 2.682.362c1.055-.003 5.687.042 6.664.01.977-.032 2.318.035 2.318.035m-.96-1.321c.34.455.63.834.96 1.321 1.017.367 2.088.4 3.424.722"/><path d="M52.362 34.228s-.13.218-.067.652c.063.434.441 1.651.686 2.226.244.574.423.767.423.767s.568.415 1.109.86c.54.445 1.911 1.155 2.552 1.686.641.532.698.506 1.516 1.267.817.76 1.616 1.62 2.277 2.609.66.99 1.374 2.981 1.374 2.981m-4.209-11.4c.303.56.44.82.816 1.523 0 0 1.81 4.065 2.471 5.43.661 1.365 1.36 2.088 1.36 2.088"/><path d="M63.153 42.296c-.138 1.215-.482 2.621-.482 2.621s.051.506.088.97c.038.464-.527 1.39-.527 1.39s-.448.743-.86 1.15c-.412.405-2.92 1.671-4.5 2.305-1.578.634-2.791 1.147-3.83 1.53-2.344 1.068-4.9.993-7.065 1.854-1.087.437-2.292 1.083-3.037 1.768-2.085 1.918-2.642 4.748-2.11 7.197.673 2.14 2.422 3.25 4.175 3.269 3.704-.033 7.083-1.131 10.233-2.479 1.507-.641 7.105-3.048 7.105-3.048 1.21-.568 2.47-.892 3.708-1.326a1799.357 1799.357 0 0112.064-4.134m2.794-.929c4.317-1.695 5.133-2.651 7.81-3.724 3.306-1.324 8.167-2.776 10.151-3.33m2.718-.55c3.768.151 14.62.37 20.01 1.503 4.834 1 8.256 2.825 12.677 4.71"/><path d="M68.035 40.958c.212 1.236-.2 2.145-.959 2.821-.45.4-2.134 1.005-3.068 1.713-.669.506-1.776 1.784-1.776 1.784m-33.35-8.23s-.652 1.576-1.053 2.327c-1.11 2.078-1.721 3.582-3.729 6.003-.354.426-1.095 1.733-1.155 2.24-.06.509.597 1.343.965 1.691.492.467 1.37 1.065 2.811 1.142 1.442.077 2.4-.16 3.513-.572 1.128-.419 2.256-1.03 3.081-1.882 1.102-1.138 2.472-2.935 2.98-4.137.506-1.202.74-2.043.74-2.043"/><path d="M35.433 42.777s.22.23.911.634l.691.404c1.754.127 3.31-.01 4.948-.21 1.86-.227 3.212-.348 4.973-1.088"/><path d="M41.983 43.605s.12.392-.443 1.315c-.564.924-1.11 1.37-1.463 2.168-.488 1.097-.926 2.823-.863 3.497.063.675.375 1.552.979 1.815 1.114.486 2.862.402 3.727-.339 1.092-.988 1.616-1.751 1.821-3.184"/><path d="M44.188 48.139s.404.333.979.535l.574.203c1.47.136 3.035-.757 4.094-2.112"/><path d="M49.114 46.079l.721.686s.886.501 1.476.59c.59.089 1.272.323 3.356.144 2.084-.18 3.832-.419 4.434-.325.603.093 2.067 1.38 2.067 1.38m-14.789-7.247s-.038.191.121.511c.16.32.457.699.457.699s.897.54 1.521.656c2.131.392 8.235-.023 10.48-1.036M40.246 20.198s1.341.16 2.014.21c3.783.44 7.672.1 11.295-.241 1.946-.188 6.878-.548 8.826-.876 1.947-.328 3.445.1 5.148.337 4.808.67 9.435 2.358 14.24 3.056 5.202.757 11.755.726 15.725 1.22M44.182 66.285c.052.003 4.82-1.703 5.178-2.033.358-.33.133-.847.133-.847m-8.627-3.909c.046-.003 5.42-1.45 5.744-1.204.335.255.298.55.298.55"/></g><path d="M52.075 57.36c-2.898 1.149-1.274.432-2.909 1.15-1.635.718-1.574.686-1.908 1.036-.335.35-.668.985-.68 1.548-.01.436.125.96.476 1.219.52.384 1.075.265 1.933.145.858-.12 2.846-.802 3.816-1.148.97-.346 2.648-1.145 3.636-1.288.987-.143 1.707.222 2.148.291.44.07 1.15-.162 1.514-.453.363-.291.303-1.268.289-1.913-.015-.703-.11-1.431-.404-2.07-.307-.671-.739-1.355-1.368-1.741a1.888 1.888 0 00-1.265-.253c-.514.087-1.015.445-1.345.797-.33.353-.78 1.106-1.448 1.594-.669.488-2.485 1.086-2.485 1.086z" fill="#f4eed7" stroke-width=".397"/></g><text font-family="Lato" font-size="5.997" letter-spacing="0" stroke-width=".265" word-spacing="0" x="90.382" y="150.829" transform="translate(-4.294 -141.412)"><tspan x="90.382" y="150.829">Tendon</tspan><tspan x="90.382" y="158.326">sheath</tspan></text><g stroke="#000" stroke-linecap="round" stroke-width=".397"><path d="M100.126 24.154s.096.035 1.738.184 3.986.198 4.872.364" fill="none"/><g fill="#f4eed7"><path d="M109.782 31.209c-1.336-.237-4.464-.835-5.014-1.278s-1.134-1.429-.897-2.085.68-.845 1.325-.853c.645-.007 6.838.372 9.351.81 2.513.436 5.934 1.477 9.708 1.713s13.708 1.48 13.708 1.48l-5.782 2.476s-9.609-.617-12.184-1.006-6.46-.592-10.215-1.257zm-11.533-1.226c-.267.7-.245 1.319.211 2.238s1.136 3.41 2.227 4.608 1.814 1.57 2.59 1.603c.776.033 2.042-.082 2.167-1.865.124-1.784.34-5.451-.96-6.409-1.298-.957-2.756-2.372-4.12-2.142-1.364.23-1.773 1.067-2.115 1.967z"/><path d="M98.935 33.409c1.736.971 2.214 2.594 2.108 3.69s.739.15.604 1.627c-.103 1.127-2.887 2.384-4.46 2.757-1.571.373-5.406.698-6.108-.315-.703-1.014-1.49-1.617-.943-2.758.547-1.142 1.43-1.046.687-1.678-.86-.732.397-1.945.708-2.3.31-.354 2.262-1.707 3.128-1.952.865-.244 3.188.32 4.276.929zm2.059-6.495c.864.695 1.323 1.893 1.202 2.486-.121.593-.72 1.828-2.766.965-2.501-1.055.035-4.437 1.564-3.451z"/><path d="M74.131 28.568s2.128.058 3.385.536c1.257.478 5.621 2.912 6.665 3.36s2.694 1.76 4.86 1.609c2.166-.15 4.889-.869 6.252-1.655 1.362-.786 3.33-1.407 3.538-2.16.208-.753.513-2.05-.095-2.691-.61-.642-3.807-1.459-6.978-1.931-3.172-.473-12.752-2.246-12.752-2.246"/></g><path d="M138.015 22.543c-6.973 1.15-3.65.772-7.226 1.238-3.576.466-10.641.684-10.641.684" fill="none"/></g><g stroke="#000"><g stroke-linecap="round" stroke-width=".397"><path d="M101.53 46.121c2.97-.645 11.14-1.241 15.835-.82 3.148.282 3.56-1.371 3.56-1.371l.413-4.01c.13-1.268-1.623-1.407-2.052-1.407-.428 0-3.948.78-6.264.76-2.316-.019-4.855.074-7.226.534-1.961.38-4.946 1.67-5.708 1.824-2.252.454-2.63.294-3.296.642-.666.348-.383 1.155-.12 1.94.263.786-.588 1.74-.107 2.477.203.31 1.247.162 2.676-.11" fill="#f55"/><path d="M120.925 43.93s-5.629.114-9.187.214c-3.558.1-15.247 1.727-16.383 1.391-1.136-.336-.909-.945-.526-1.043.384-.098 9.254-1.405 10.67-1.45 1.415-.045 15.543-.145 15.543-.145z" fill="#ffd42a"/><path d="M89.543 46.555c5.845-1.806 16.413-4.216 17.833-4.336s13.913-.426 13.913-.426l.064-1.965s-4.948.647-7.525.697c-2.577.05-4.52-.391-9.232.885s-14.392 3.645-18.408 4.637c-4.016.991-10.904 2.476-11.909 3.314l.67 2.7c5.412-2.383 9.626-3.97 14.594-5.506z" fill="#fc0"/><path d="M139.677 30.508c-4.208 1.139-9.756 4.05-12.588 5.887-2.832 1.838-4.629 2.09-5.9 3.105s-.241.943-.221 1.412c.02.463-1.932.835-1.463 1.282 5.208 1.233 11.005.17 16.43 1.019" fill="#f4eed7"/><path d="M134.288 48.835c-3.37-.097-4.99-.033-7.121-.835-2.131-.801-3.01-1.599-4.58-2.252-.862-.358-2.57-.508-2.649-.91-.08-.401.423-1.053.268-1.424-.155-.37.606-.809 1.156-.897 1.824-.295 7.676-.276 11.486.103 1.043.104 3.087.593 3.087.593" fill="#f4eed7"/><path d="M106.74 24.653c1.003-1.158 3.936-.542 6.63-.726 2.7-.185 5.358-.124 6.134.043.794.17 1.997 2.15 2.19 4.01.194 1.86-.71 6.89-2.075 8.895-1.365 2.004-.913 2.106-.673 2.886.24.78-.436 2.194-.374 2.875s.156 1.894-.198 2.447c-.354.554-2.92 2.242-2.92 2.242l-9.817-.33s1.979-.908 2.232-1.31c.254-.401 1.49-1.51 1.314-3.042-.175-1.533.444-1.929.116-2.809-.328-.88-.785-.385-.692-1.316.092-.93 1.327-1.834 1.55-3.1.222-1.267 1.103-4.815-.917-9.072-.604-1.274-3.127-.97-2.5-1.693z" fill="none"/></g><path d="M116.179 25.652l1.08-7.763" fill="none" stroke-width=".75"/></g><path d="M97.187 19.704l8.022 20.918" fill="none" stroke="#ff2a2a" stroke-width=".75"/><g stroke="#000"><path d="M78.146 64.806l2.096-15.953m20.248 6.156l.05-10.691" fill="none" stroke-width=".75"/><g stroke-linecap="round"><path d="M60.163 53.073c.084-.427.422.04 2.144-.348 1.722-.389 3.647-1.087 4.661-1.645s2.39-1.325 3.174-2.292c.467-.575 1.907-1.051 2.22-1.022.314.029 1.756.215 1.85.855.192 1.297.72 1.74 1.003 2.443.174.5-.137 1.06-.452 1.486-1.227 1.658-3.953 1.647-5.455 2.126-1.503.48-2.384 1.015-3.224 1.47-.84.456-1.707.908-2.609 1.25-.622.235-1.788.792-1.92.548-.13-.244.138-.74.064-1.53a5.557 5.557 0 00-.504-1.929c-.234-.517-1.062-.853-.952-1.412z" fill="#f4eed7" stroke-width=".397"/><g fill="none"><path d="M118.96 24.947s.622.659 1.214 1.445c.593.787 1.377 2.775 1.377 2.775m-3.832-3.739c.575.828 1.293 3.298 1.293 3.298m-8.97-3.612c.065.408.064.472.335.758.27.285.889.915.889.915s-.161-.213-.197-.797a7.148 7.148 0 00-.1-.897m-2.819 21.909c.62-.183 1.187-.608 1.365-.812.178-.205.356-.679.356-.679m.499 1.598c.86-.166 1.22-.58 1.741-.65.521-.07 1.34-.205 1.446-.274.107-.069.113-.069.113-.069m-1.796-6.257c-.28-.425-.268-.718-.074-1.035.194-.317.967-1.195.967-1.195m1.087 2.231c-.13-.362-.215-.704-.093-1.15.122-.445.567-1.343.505-1.525-.062-.181-.082-.58-.082-.58m1.809 3.183c-.111-.294-.22-.744-.07-1.093s.377-1.026.377-1.026m-6.779 1.706c.425-.532.855-1.294 1.168-2.062.313-.769.71-1.36.71-1.36m1.774-11.145c.585.762.466.549.634.864.234.438.508 1.401.508 1.401m3.74 12.454s-.185-.685-.14-1.169c.047-.484.137-.945.33-1.23s.222-.323.222-.323" stroke-width=".265"/><path d="M138.795 33.315s-2.013.708-3.021.913c-1.008.204-1.815.117-3.901.85-2.087.732-8.442 3.291-8.442 3.291m.233 5.329s-.97-.111-1.618-.348-1.239-.693-1.239-.693" stroke-width=".397"/><path d="M113.203 47.277c.777-.299.682-.67 1.242-.783.56-.112.703-.28.703-.28" stroke-width=".265"/></g></g></g><g font-family="Lato" font-size="4.939" letter-spacing="0" stroke-width=".265" word-spacing="0"><text x="59.574" y="210.588" transform="translate(-4.294 -141.412)"><tspan x="59.574" y="210.588">Extensor pollicis</tspan><tspan x="59.574" y="216.762">brevis tendon</tspan></text><text x="145.093" y="175.113" transform="translate(-4.294 -141.412)"><tspan x="145.093" y="175.113">Extensor pollicis</tspan><tspan x="145.093" y="181.286">brevis</tspan></text><text x="98.423" y="201.197" transform="translate(-4.294 -141.412)"><tspan x="98.423" y="201.197">Abductor pollicis</tspan><tspan x="98.423" y="207.371">longus tendon</tspan></text><text x="140.87" y="189.82" transform="translate(-4.294 -141.412)"><tspan x="140.87" y="189.82">Abductor pollicis</tspan><tspan x="140.87" y="195.994">longus</tspan></text><text x="118.13" y="157.634" transform="translate(-4.294 -141.412)"><tspan x="118.13" y="157.634">Retinaculum</tspan></text></g></svg>