<svg height="270.227" width="490.256" xmlns="http://www.w3.org/2000/svg"><g stroke="#000"><g stroke-linecap="round" stroke-width="1.5"><path d="M311.126 108.684c5.585-1.517 11.016-3.558 16.59-5.117 4.773-1.335 12.713-7.252 14.42-3.623 1.033 2.4 3.726 4.591 3.294 7.706-.433 3.115-2.324 4.62-2.168 7.084.173 2.71 4.23 5.297 3.352 7.426-.879 2.129-5.27 2.654-8.425 2.524-3.155-.13-15.257-1.051-21.92.911-6.922 2.038-16.168 4.567-22.633 7.333-3.713 1.59-5.525 4.84-7.612 5.736s-22.362 6.821-23.37 4.928c-1.009-1.893-2.954-5.217-3.552-7.291-.598-2.074-5.564-15.956-5.564-15.956l2.99-6.581 22.01-2.037s5.315 1.09 10.122 1.062c7.63-.044 16.876-2.586 22.466-4.105z" fill="#f4eed7"/><path d="M207.569 137.797c.433-1.587 1.579.267 8.176-.727 6.598-.994 14.046-3.097 18.022-4.923 3.976-1.826 9.37-4.342 12.591-7.772 1.917-2.04 5.694-4.186 6.867-3.99 1.173.195 3.293 1.084 4.456 2.28 1.407 1.446 2.636 3.062 2.608 5.463-.028 2.4-1.295 3.803-1.226 5.768.083 2.337 1.94 6.742 1.94 6.742s-13.605 4.31-19.4 5.704c-5.794 1.395-9.264 3.174-12.555 4.66-3.29 1.487-6.683 2.953-10.175 3.995-2.41.719-6.956 2.498-7.386 1.543-.43-.956.72-2.75.657-5.748-.062-2.998-.507-5.053-1.373-7.411-.74-2.014-3.769-3.507-3.202-5.584z" fill="#f4eed7"/><g fill="none"><path d="M59.53 55.214s-3.348 3.387-9.248 5.53c-5.78 2.097-11.993 3.418-18.142 3.343-8.597-.586-20.276-3.25-24.848-10.152C6.02 51.926 5.343 49.667 6 46.92s3.247-4.966 6.702-6.97c7.834-4.544 15.188-8.562 24.91-11.952 9.248-2.93 18.58-3.813 27.561-6.129 10.711-2.815 21.267-6.26 31.636-10.149 4.512-1.692 8.54-4.833 13.275-5.726 2.945-.555 3.637-.04 8.985.31 5.348.352 23.06 2.238 23.06 2.238"/><path d="M49.607 50.564s1.782 1.888 3.436 2.786c2.232 1.212 3.577 1.432 6.547 1.883 2.97.45 9.33 1.164 17.678.498 14.672-1.293 28.473-4.896 42.27-9.605m-6.921-4.663c3.374 2.624 6.169 4.483 10.961 5.992 4.255 1.066 7.495 1.569 12.961 2.27 6.433.824 15.05 1.565 20.229 2.104 5.256.547 18.581 1.687 19.784 2.517 2.17 1.497 2.329 2.334 4.696 6.454 2.368 4.12 1.932 3.634 3.83 6.048 2.85 3.625 6.952 6.602 9.67 7.976 2.719 1.374 6.856 3.269 9.059 3.269 2.203 0 3.057.256 3.057.256M76.746 75.565s-.445 1.433-2.432 3.012c-1.987 1.58-8.05 5.527-12.323 7.53-4.272 2.005-10.017 4.641-16.562 5.862-6.545 1.22-11.415.467-13.647-.385-2.35-.897-6.962-4.661-7.687-9.275-.717-4.567.5-5.614 1.766-8.098 1.266-2.484 4.618-6.993 5.817-8.422 1.198-1.428 1.546-1.717 1.546-1.717m39.702 8.776c1.453 1.34-.053.299 1.453 1.34 1.506 1.043 2.367 1.377 2.367 1.377s1.833.433 4.84.727c3.007.295 7.903.55 11.837.133 3.935-.417 10.12-.75 12.877-.939 2.757-.188 11.436-.377 15.062-1.12 3.626-.741 8.32-4.1 8.32-4.1"/><path d="M124.46 65.214s.763 1.543 2.482 2.956c1.72 1.413 2.74 2.097 2.74 2.097s6.036 1.82 10.012 2.097c3.975.278 21.426 1.716 25.118 1.861 3.691.146 8.726.767 8.726.767m-3.258-5.242c1.159 1.806 2.146 3.314 3.258 5.242 3.735 1.66 7.763 2.078 12.712 3.66m-2.931-14.027s-.55.785-.432 2.438c.118 1.654 1.21 6.346 1.976 8.578.764 2.233 1.387 3.01 1.387 3.01s2.028 1.717 3.943 3.543 6.89 4.877 9.16 7.056c2.271 2.178 2.49 2.098 5.366 5.189 2.875 3.09 5.65 6.546 7.87 10.457 2.222 3.91 4.364 11.615 4.364 11.615m-12.745-44.124c.986 2.191 1.433 3.206 2.656 5.962 0 0 5.713 15.818 7.832 21.145 2.118 5.328 4.557 8.244 4.557 8.244"/><path d="M223.034 88.785s-.392 4.661-1.245 9.203c-.853 4.542-2.536 9.75-2.536 9.75s.056 1.92.069 3.68c.015 1.76-2.369 5.093-2.369 5.093s-1.891 2.683-3.556 4.1c-1.665 1.417-11.465 5.503-17.59 7.46s-10.839 3.56-14.858 4.723c-9.128 3.382-18.74 2.4-27.141 5.054-4.216 1.35-8.937 3.457-11.93 5.835-8.386 6.66-11.261 17.174-9.927 26.553 1.956 8.251 8.242 12.914 14.845 13.463 13.974.888 27.012-2.327 39.253-6.544 5.859-2.005 14.731-5.205 14.731-5.205"/><path d="M240.559 94.28c.459 4.718-1.34 8.033-4.387 10.373-1.806 1.387-8.322 3.205-12.035 5.617-2.66 1.727-7.184 6.24-7.184 6.24M93.488 76.364s-2.889 5.761-4.605 8.483c-4.75 7.53-7.469 13.032-15.698 21.608-1.45 1.512-4.603 6.234-4.968 8.132-.366 1.898 1.885 5.223 3.174 6.637 1.727 1.892 4.874 4.388 10.287 5.072 5.413.684 9.091.053 13.397-1.197 4.369-1.267 8.787-3.262 12.131-6.25 4.465-3.988 10.121-10.387 12.361-14.779 2.24-4.392 3.353-7.497 3.353-7.497"/><path d="M117.163 92.22s.766.926 3.261 2.64l2.496 1.713c6.577.955 12.477.868 18.71.561 7.072-.348 12.202-.434 19.043-2.742"/><path d="M141.63 97.134s.346 1.508-2.033 4.835c-2.38 3.327-4.557 4.864-6.108 7.77-2.137 4.004-4.262 10.389-4.209 12.949.053 2.56.99 5.952 3.194 7.11 4.067 2.136 10.68 2.298 14.143-.26 4.387-3.426 6.57-6.159 7.735-11.504"/><path d="M148.701 114.826s1.432 1.367 3.542 2.287l2.11.92c5.506.918 11.648-2.023 16.01-6.841m-2.532-2.782l2.532 2.782s3.203 2.132 5.403 2.628c2.199.496 4.704 1.568 12.61 1.46 7.905-.108 14.559-.53 16.805-.01 2.247.517 7.411 5.771 7.411 5.771m-53.765-31.367s-.197.71.317 1.96c.513 1.25 1.53 2.758 1.53 2.758s3.236 2.285 5.555 2.888c7.926 2.062 31.05 2.168 39.788-1.037M141.482 8.421s5.012.974 7.537 1.343c14.14 2.694 28.891 2.476 42.643 2.182 7.387-.175 26.078-.183 33.508-.887 7.43-.705 12.959 1.318 19.315 2.679 17.941 3.84 34.934 11.417 52.84 15.416 19.007 4.244 42.885 6.107 57.718 9.052M143.711 183.23c.195.029 18.64-5.103 20.079-6.25 1.439-1.145.733-3.153.733-3.153m-31.453-17.096c.174 0 20.826-3.983 21.98-2.967 1.197 1.053.973 2.15.973 2.15m57.645 11.696c4.716-1.813 9.542-2.725 14.34-3.986 2.892-.76 8.705-2.156 8.705-2.156m42.935-10.688s10.042-3.137 14.773-5.395c5.054-2.412 9.374-6.186 14.407-8.642 5.067-2.474 15.784-6.085 15.784-6.085m7.396-2.031s12.962-3.056 20.728-3.614c7.767-.558 14.385.226 14.385.226"/></g><path d="M175.909 151.743c-11.24 3.54-4.921 1.28-11.28 3.54-6.36 2.26-6.122 2.157-7.479 3.386-1.357 1.229-2.787 3.528-2.985 5.648-.154 1.641.209 3.651 1.46 4.724 1.853 1.591 3.982 1.293 7.248 1.076 3.266-.218 10.949-2.245 14.698-3.284 3.749-1.039 10.298-3.593 14.058-3.86 3.76-.269 6.377 1.302 8.018 1.685 1.641.384 4.38-.295 5.83-1.294 1.452-.999 1.49-4.698 1.615-7.132.135-2.654-.028-5.425-.957-7.915-.974-2.613-2.415-5.308-4.68-6.937-1.319-.95-3.081-1.456-4.7-1.3-1.96.19-3.947 1.4-5.289 2.639-1.341 1.24-3.24 3.953-5.894 5.611-2.655 1.659-9.663 3.413-9.663 3.413zm78.354-13.518c-2.68.062-7.592-1.23-7.998-.827-.406.403.853 1.759.448 2.22-.405.46-1.969-.523-2.331-.023-.362.502 1.476 1.83.596 2.477-.88.647-3.881.397-3.958.893-.077.496 1.09 1.948 1.97 2.574 3.067 2.183 6.974 3.18 10.72 3.55 6.194.615 12.582-.45 18.533-2.273 4.694-1.437 11.887-5.196 13.115-6.698 1.227-1.503-1.395-.73-2.165-.716-.482.007-2.119.59-.736-1.203 1.383-1.794 4.998-3.952 3.057-3.48-1.94.471-5.36 1.739-4.078.117 1.28-1.622 3.425-4.244 2.12-3.521-1.304.722-9.013 3.499-12.315 4.36-6.294 1.644-11.257 2.417-16.978 2.549z" fill="#f4eed7"/><path d="M226.303 134.303s6.668-4.442 9.897-8.91c3.23-4.467 7.418-13.689 13.98-16.93 4.955-2.448 12.267-1.73 16.57-.616 5.462 1.415 6.768 2.44 11.789 3.88 0 0-3.377.075-8.207.699-4.83.623-11.997 1.102-14.05 3.132-2.055 2.03-2.744 4.787-2.744 4.787s-2-.4-3.825.936c-1.825 1.334-4.178 5.026-9.85 7.668-5.674 2.641-13.56 5.354-13.56 5.354z" fill="#f55"/></g><g fill="none"><path d="M185.341 200.827l35.247-49.753m-4.204 69.06l31.657-74.893m89.093-6.476l-16.087-17.27" stroke-width="2.125"/><path d="M249.645 155.44s-.056 3.276 1.147 3.899c5.313 2.75 11.931-3.401 14.47 3.051 0 0 2.42-2.55 4.642-2.46 4.223.173 6.943 1.85 10.588.458 1.272-.486 1.194-3.272 1.194-3.272" stroke-width="1.5"/></g></g><path d="M262.019 97.698l4.355 4.944 5.372-3.977m-4.296-5.911l-1.076 9.888" fill="none" stroke="#ff2a2a" stroke-width="2.125"/><g font-family="Lato" letter-spacing="0" word-spacing="0"><text font-size="22.667" x="331.748" y="128.914" transform="translate(-86.486 -67.645)"><tspan x="331.748" y="128.914">Ulnar collateral ligament</tspan><tspan x="331.748" y="157.248">(UCL)</tspan></text><g font-size="18.667"><text x="184.976" y="284.567" transform="translate(-86.486 -67.645)"><tspan x="184.976" y="284.567">Proximal</tspan><tspan x="184.976" y="307.901">phalanx</tspan></text><text x="282.678" y="306.803" transform="translate(-86.486 -67.645)"><tspan x="282.678" y="306.803">Radial collateral ligament</tspan><tspan x="282.678" y="330.137">(RCL)</tspan></text><text x="428.394" y="216.475" transform="translate(-86.486 -67.645)"><tspan x="428.394" y="216.475">Metacarpal</tspan></text><text x="338.813" y="250.03" transform="translate(-86.486 -67.645)"><tspan x="338.813" y="250.03">Metacarpophalangeal</tspan><tspan x="338.813" y="273.364">(MCP) joint</tspan></text></g></g></svg>